<svg width="41" height="41" viewBox="0 0 41 41" fill="none" xmlns="http://www.w3.org/2000/svg">
<path fill-rule="evenodd" clip-rule="evenodd" d="M20.493 0.494141C24.4487 0.494141 28.3155 1.66712 31.6044 3.86475C34.8934 6.06238 37.4569 9.18595 38.9706 12.8405C40.4844 16.495 40.8804 20.5163 40.1087 24.3959C39.337 28.2756 37.4322 31.8392 34.6352 34.6363C31.8381 37.4333 28.2745 39.3381 24.3948 40.1098C20.5152 40.8815 16.4939 40.4855 12.8394 38.9717C9.18485 37.458 6.06128 34.8945 3.86365 31.6055C1.66602 28.3166 0.493042 24.4498 0.493042 20.4941C0.493042 15.1898 2.60018 10.1027 6.35091 6.352C10.1016 2.60128 15.1887 0.494141 20.493 0.494141ZM10.4963 12.8639L20.6753 21.1549L30.4117 12.8639H10.4963ZM9.84525 26.8255L17.0946 19.5534L9.83874 13.6419V26.819L9.84525 26.8255ZM17.8856 20.2044L10.4149 27.6914H30.5093L23.3674 20.2044L21.0009 22.2096C20.9093 22.2853 20.7942 22.3267 20.6753 22.3267C20.5565 22.3267 20.4414 22.2853 20.3498 22.2096L17.8791 20.1947L17.8856 20.2044ZM24.1486 19.5534L31.1473 26.8906V13.5768L24.1486 19.5404V19.5534Z" fill="black"/>
</svg>
