<svg width="41" height="41" viewBox="0 0 41 41" fill="none" xmlns="http://www.w3.org/2000/svg">
<path fill-rule="evenodd" clip-rule="evenodd" d="M20.8092 0.494141C26.3333 0.494141 31.3333 2.73372 34.9498 6.35352C38.5696 9.97331 40.8092 14.9733 40.8092 20.4941C40.8092 26.015 38.5696 31.0182 34.9498 34.6348C31.33 38.2546 26.33 40.4941 20.8092 40.4941C15.2851 40.4941 10.2851 38.2546 6.66858 34.6348C3.04879 31.0182 0.809204 26.0182 0.809204 20.4941C0.809204 14.9701 3.04879 9.97005 6.66858 6.35352C10.2851 2.73372 15.2851 0.494141 20.8092 0.494141ZM16.4668 18.7852C17.1178 19.957 17.8665 21.0833 18.8398 22.1087C19.8131 23.1406 21.0273 24.0814 22.5996 24.8789C22.7135 24.9375 22.8274 24.9375 22.9251 24.8952C23.0748 24.8366 23.2246 24.7161 23.3776 24.5664C23.4915 24.4525 23.638 24.2637 23.791 24.0618C24.3932 23.2676 25.1419 22.2813 26.1966 22.7728C26.2194 22.7826 26.2389 22.7956 26.2617 22.8086L29.7806 24.8333C29.7903 24.8398 29.8033 24.8496 29.8164 24.8561C30.2819 25.1751 30.4739 25.6667 30.4772 26.2233C30.4772 26.793 30.2688 27.431 29.9629 27.9714C29.5559 28.6842 28.9602 29.153 28.2701 29.4688C27.6158 29.7682 26.8834 29.9342 26.1836 30.0352C25.0833 30.1979 24.0514 30.0938 22.9935 29.7682C21.9615 29.4492 20.9199 28.9219 19.7871 28.2188L19.7057 28.1667C19.1849 27.8411 18.6217 27.4928 18.0683 27.0827C16.0468 25.5592 13.9863 23.3555 12.6484 20.9303C11.5221 18.8926 10.9101 16.6953 11.2421 14.6022C11.4277 13.4531 11.9225 12.4082 12.7786 11.7214C13.5273 11.1191 14.5364 10.7871 15.8418 10.9043C15.9915 10.9141 16.125 11.002 16.1966 11.1322L18.4557 14.9473C18.7845 15.377 18.8268 15.8001 18.6477 16.2233C18.498 16.5716 18.1953 16.8906 17.7819 17.1934C17.6614 17.2975 17.5149 17.4017 17.3619 17.5124C16.8574 17.877 16.2812 18.3001 16.4798 18.8014L16.4668 18.7852Z" fill="black"/>
</svg>
