<svg width="41" height="41" viewBox="0 0 41 41" fill="none" xmlns="http://www.w3.org/2000/svg">
<path fill-rule="evenodd" clip-rule="evenodd" d="M20.499 0.494141C31.5401 0.494141 40.505 9.44704 40.505 20.5001C40.505 31.5412 31.5521 40.5061 20.499 40.5061C9.45794 40.5061 0.493042 31.5532 0.493042 20.5001C0.493042 9.45904 9.44594 0.494141 20.499 0.494141ZM28.8999 11.9193C26.7997 9.81907 24.0154 8.66696 21.0391 8.66696C14.9185 8.66696 9.93799 13.6475 9.93799 19.7681C9.93799 21.7243 10.454 23.6325 11.4261 25.3126L9.85398 31.0732L15.7466 29.525C17.3667 30.4131 19.1909 30.8812 21.0511 30.8812C27.1717 30.8812 32.1522 25.9007 32.1522 19.7801C32.1522 16.8158 31.0001 14.0195 28.8999 11.9193ZM21.0511 29.009C19.3949 29.009 17.7628 28.5649 16.3466 27.7249L16.0106 27.5208L12.5182 28.4329L13.4543 25.0246L13.2383 24.6766C12.3142 23.2124 11.8222 21.5082 11.8222 19.7681C11.8222 14.6796 15.9626 10.5391 21.0631 10.5391C23.5233 10.5391 25.8516 11.4992 27.5918 13.2394C29.3319 14.9916 30.292 17.2958 30.292 19.7681C30.292 24.8566 26.1516 29.009 21.0631 29.009H21.0511ZM26.1156 22.0963C25.8396 21.9523 24.4714 21.2922 24.2194 21.1962C23.9674 21.1002 23.7754 21.0522 23.5954 21.3402C23.4153 21.6163 22.8753 22.2403 22.7193 22.4323C22.5512 22.6124 22.3952 22.6484 22.1192 22.5043C21.8432 22.3603 20.9431 22.0723 19.887 21.1242C19.0589 20.3921 18.5068 19.48 18.3388 19.204C18.1708 18.928 18.3148 18.772 18.4588 18.64C18.5909 18.5199 18.7349 18.3159 18.8789 18.1479C19.0229 17.9799 19.0589 17.8719 19.1549 17.6799C19.2509 17.4998 19.2029 17.3318 19.1309 17.1878C19.0589 17.0438 18.5068 15.6877 18.2788 15.1236C18.0508 14.5835 17.8228 14.6556 17.6548 14.6436C17.4867 14.6316 17.3067 14.6316 17.1267 14.6316C16.9467 14.6316 16.6467 14.7036 16.3826 14.9796C16.1306 15.2556 15.4105 15.9277 15.4105 17.2958C15.4105 18.664 16.4066 19.9841 16.5386 20.1641C16.6827 20.3441 18.4948 23.1524 21.2791 24.3525C21.9392 24.6406 22.4552 24.8086 22.8633 24.9406C23.5233 25.1446 24.1354 25.1206 24.6155 25.0486C25.1435 24.9646 26.2596 24.3765 26.4876 23.7285C26.7157 23.0804 26.7157 22.5283 26.6557 22.4083C26.5957 22.2883 26.4036 22.2163 26.1276 22.0723L26.1156 22.0963Z" fill="black"/>
</svg>
