<svg width="287" height="351" viewBox="0 0 287 351" fill="none" xmlns="http://www.w3.org/2000/svg">
<path d="M89.7536 58.4006C64.5443 48.4908 39.3349 27.8017 34.1192 25.7154C28.9035 23.6291 50.8095 10.416 65.0658 13.5454C79.3221 16.6748 77.5836 35.4514 77.5836 39.624C77.5836 39.624 81.0607 34.0606 88.7105 37.19C96.3602 40.3195 98.4465 52.1418 98.4465 57.7052C98.4465 63.2687 93.7488 59.9723 89.7536 58.4006Z" fill="#F3E7D9"/>
<path d="M274.908 169.909C274.908 169.909 226.416 146.47 204.19 133.538C181.964 120.607 178.327 106.058 176.71 98.3806C175.093 90.7031 176.307 83.8322 195.702 93.53C195.702 93.53 191.259 85.4491 198.126 76.9614C204.997 68.4737 221.162 76.9614 228.84 87.4693C236.517 97.9773 236.921 99.9975 236.921 99.9975C236.921 99.9975 242.578 90.7031 251.066 93.53C259.553 96.3569 261.977 118.99 255.509 125.861C255.509 125.861 262.784 124.244 272.481 133.941C282.179 143.639 288.647 151.724 285.816 155.361C282.986 158.998 275.308 158.998 266.417 153.34C266.417 153.34 285.006 170.312 285.006 172.74C285.009 175.163 274.908 169.909 274.908 169.909Z" fill="#F3E7D9"/>
<path d="M73.1121 199.221C69.3707 194.767 62.6111 186.7 62.6111 186.7C62.6111 186.7 52.4092 196.533 48.9842 199.816C45.3436 203.303 38.1946 208.574 41.5048 208.971C44.8359 209.367 48.6817 208.679 49.7179 208.38C49.7179 208.38 50.1664 218.592 63.9012 216.155C77.1282 213.804 77.1839 204.068 73.1121 199.221Z" fill="#1D2538"/>
<path d="M49.4081 206.258C49.4081 206.258 24.6369 229.663 25.3914 231.878C26.1703 234.166 43.9107 238.349 55.1732 225.174C64.6067 214.141 65.323 201.884 49.4081 206.258Z" fill="#1D2538"/>
<path d="M33.5938 233.3C32.2586 234.062 4.98381 261.837 5.20635 266.058C5.44279 270.488 19.2645 276.594 31.6675 267.804C42.9613 259.803 51.3933 223.161 33.5938 233.3Z" fill="#1D2538"/>
<path d="M217.014 199.634L251.531 226.196C251.531 226.196 248.621 228.502 240.585 226.68L195.873 236.84L217.014 199.634Z" fill="#1D2538"/>
<path d="M238.422 222.579L265.294 245.57C265.294 245.57 253.36 255.244 241.67 244.889C238.328 241.93 197.75 245.021 197.75 245.021L215.762 220.708C215.762 220.708 232.852 221.348 238.422 222.579Z" fill="#1D2538"/>
<path d="M256.413 246.757C257.63 247.268 268.274 254.792 280.259 265.001C280.259 265.001 266.16 275.801 256.559 271.712C246.952 267.62 238.843 239.361 256.413 246.757Z" fill="#1D2538"/>
<path d="M174.341 171.369L196.703 197.367C196.703 197.367 193.99 199.335 188.027 197.705L150.808 203.313L174.341 171.369Z" fill="#1D2538"/>
<path d="M184.174 193.028L203.615 211.359C203.615 211.359 176.556 250.529 169.323 241.509C167.254 238.933 150.748 210.385 150.748 210.385L169.414 189.547C169.421 189.543 180.04 191.925 184.174 193.028Z" fill="#1D2538"/>
<path d="M196.428 212.316C197.287 212.768 204.227 219.332 211.72 228.23C211.72 228.23 198.643 237.441 191.88 233.843C185.113 230.244 184.035 205.806 196.428 212.316Z" fill="#1D2538"/>
<path d="M166.425 124.64C166.425 124.64 173.379 85.6961 138.955 77.3509C104.531 69.0057 93.2376 95.5816 91.3183 101.343C87.4934 112.818 87.4934 119.772 87.4934 119.772L166.425 124.64Z" fill="#C94039"/>
<path d="M165.194 120.537C165.194 120.537 154.668 105.335 129.428 99.2153C104.187 93.0955 99.6877 98.8467 98.6132 100.039C96.1375 102.79 96.1375 112.557 96.1375 112.557C96.1375 112.557 114.354 108.746 132.867 110.77C156.803 113.385 165.194 120.537 165.194 120.537Z" fill="#EE5D4F"/>
<path d="M87.4064 119.995C87.0622 125.207 98.4568 129.411 128.524 131.129C158.591 132.85 166.425 127.422 166.425 124.769C166.769 119.557 148.98 114.223 132.349 112.474C112.529 110.384 87.7506 114.783 87.4064 119.995Z" fill="#1D2538"/>
<path d="M92.8447 115.906L93.0881 115.816C93.0846 115.76 92.2988 110.465 96.6556 97.0498C101.092 83.3951 116.326 77.0319 116.475 76.9658L115.856 77.1327L115.495 77.237C115.345 77.3031 100.828 83.9236 96.4609 97.0603C92.1284 110.093 92.8412 115.851 92.8447 115.906Z" fill="#1D2538"/>
<path d="M139.147 105.223C131.6 105.223 125.482 99.1053 125.482 91.5583C125.482 84.0112 131.6 77.8931 139.147 77.8931C146.694 77.8931 152.812 84.0112 152.812 91.5583C152.812 99.1053 146.694 105.223 139.147 105.223Z" fill="#EE5D4F"/>
<path d="M134.609 104.124C126.448 104.124 119.831 97.5079 119.831 89.3462C119.831 81.1846 126.448 74.5684 134.609 74.5684C142.771 74.5684 149.387 81.1846 149.387 89.3462C149.387 97.5079 142.771 104.124 134.609 104.124Z" fill="#34283A"/>
<path d="M136.347 102.385C128.186 102.385 121.57 95.7691 121.57 87.6075C121.57 79.4459 128.186 72.8296 136.347 72.8296C144.509 72.8296 151.125 79.4459 151.125 87.6075C151.125 95.7691 144.509 102.385 136.347 102.385Z" fill="#1689CB"/>
<path d="M137.217 99.2562C130.304 99.2562 124.699 93.6518 124.699 86.7384C124.699 79.8251 130.304 74.2207 137.217 74.2207C144.13 74.2207 149.735 79.8251 149.735 86.7384C149.735 93.6518 144.13 99.2562 137.217 99.2562Z" fill="#29ABE2"/>
<path d="M137.565 97.5179C131.42 97.5179 126.438 92.5362 126.438 86.391C126.438 80.2458 131.42 75.2642 137.565 75.2642C143.71 75.2642 148.692 80.2458 148.692 86.391C148.692 92.5362 143.71 97.5179 137.565 97.5179Z" fill="#665070"/>
<path d="M136.4 97.0242C131.119 97.0242 126.838 92.7431 126.838 87.4621C126.838 82.181 131.119 77.8999 136.4 77.8999C141.681 77.8999 145.962 82.181 145.962 87.4621C145.962 92.7431 141.681 97.0242 136.4 97.0242Z" fill="#FEED7F"/>
<path d="M128.938 91.9334C132.516 97.8202 139.508 95.3584 139.508 95.3584L128.604 83.0806C128.604 83.0806 125.36 86.0466 128.938 91.9334Z" fill="#F7BC4B"/>
<path d="M131.353 68.6753L137.957 0.999512" stroke="#F7BC4B" stroke-miterlimit="10"/>
<path d="M162.718 76.9307L210.588 16.6821" stroke="#F7BC4B" stroke-miterlimit="10"/>
<path d="M143.736 67.8511L161.894 29.0601" stroke="#F7BC4B" stroke-miterlimit="10"/>
<path d="M178.4 67.0262C178.4 67.0262 169.321 41.4414 137.957 43.0895" stroke="#F7BC4B" stroke-miterlimit="10"/>
<path d="M231.59 61.4318L227.877 77.1138L230.763 74.2243L233.652 61.0181L231.59 61.4318Z" fill="#3E4C6F"/>
<path d="M226.086 62.7145L222.372 78.3965L225.262 75.5069L228.151 62.3042L226.086 62.7145Z" fill="#3E4C6F"/>
<path d="M226.684 62.0752L229.984 73.6298L227.508 77.3434L223.794 66.6129L224.618 80.2329L218.429 78.995L221.729 62.4855L226.684 62.0752Z" fill="#1D2538"/>
<path d="M228.829 127.07C233.471 123.836 234.904 89.2945 234.619 79.4785C234.344 70.111 234.452 73.7829 234.452 73.7829C234.452 73.7829 234.932 71.7627 230.766 71.7627C226.601 71.7627 226.604 71.8809 226.079 73.1883C225.55 74.5027 225.203 76.6759 224.664 77.5243C224.121 78.3797 223.169 78.6857 222.303 78.6648C221.437 78.644 222.713 77.1592 220.126 77.1592C217.539 77.1592 216.593 76.6724 215.867 79.7288C215.126 82.827 209.709 109.292 209.632 112.011C209.552 114.765 213.937 115.585 217.504 116.361C219.834 116.868 223.666 122.122 224.215 123.635C224.758 125.144 226.854 128.447 228.829 127.07Z" fill="#1D2538"/>
<path d="M219.667 113.659C219.667 113.659 218.978 123.837 212.789 129.202C206.599 134.567 201.165 136.494 201.165 136.494" stroke="#4B3355" stroke-width="3" stroke-miterlimit="10"/>
<path d="M220.904 113.659C220.904 113.659 220.491 124.8 214.301 130.165C208.112 135.53 202.403 136.494 202.403 136.494" stroke="#665070" stroke-width="3" stroke-miterlimit="10"/>
<path d="M214.639 108.068C214.639 108.068 212.956 118.093 206.739 123.426C200.521 128.757 194.496 132.092 194.496 132.092" stroke="#665070" stroke-width="3" stroke-miterlimit="10"/>
<path d="M216.426 108.204C216.426 108.204 214.743 118.229 208.526 123.563C202.309 128.893 196.283 132.228 196.283 132.228" stroke="#4B3355" stroke-width="3" stroke-miterlimit="10"/>
<path d="M219.451 109.995C219.451 109.995 217.769 120.019 211.551 125.353C205.334 130.684 199.308 134.018 199.308 134.018" stroke="#4B3355" stroke-width="3" stroke-miterlimit="10"/>
<path d="M223.495 68.1299C223.495 68.1299 217.459 70.9569 215.859 70.018C214.26 69.0792 212.653 67.4206 211.485 65.0144C210.317 62.6082 209.201 61.0957 210.209 60.1082C211.217 59.1241 212.309 58.1157 212.309 58.1157C212.309 58.1157 211.256 58.9329 210.313 57.7333C209.371 56.5336 206.367 50.9041 206.881 49.4159C207.396 47.9277 208.564 45.8171 209.023 45.1564C209.482 44.4958 209.868 44.9374 209.868 44.9374C209.868 44.9374 209.851 43.1362 210.689 42.1939C211.527 41.2516 213.092 40.6639 213.092 40.6639C213.092 40.6639 213.036 39.4122 214.003 38.6194C214.969 37.8266 215.383 37.8544 217.191 37.3363C218.999 36.8182 220.164 36.7869 220.164 36.7869C220.164 36.7869 221.552 35.702 222.313 35.5038C223.075 35.3056 226.767 34.5685 228.408 35.6777C230.053 36.7834 233.037 40.6153 234.236 44.1828C235.436 47.7504 236.886 57.1282 235.356 60.9601C233.826 64.7954 227.369 67.3893 223.495 68.1299Z" fill="#992C29"/>
<path d="M218.46 62.9496C218.46 62.9496 213.529 67.5777 212.521 65.634C211.68 64.0067 210.64 62.0282 210.64 62.0282C210.64 62.0282 210.323 61.1519 210.497 60.4808C210.671 59.8098 211.641 59.1908 211.641 59.1908C210.869 58.2103 207.987 54.1733 208.411 52.9528C208.832 51.7323 209.788 50.0042 210.164 49.4652C210.539 48.9263 210.855 49.2844 210.855 49.2844C210.855 49.2844 210.842 47.8101 211.527 47.0382C212.212 46.2663 213.495 45.7864 213.495 45.7864C213.495 45.7864 213.449 44.7641 214.242 44.1139C215.035 43.4637 215.372 43.488 216.854 43.0638C218.335 42.6396 219.288 42.6152 219.288 42.6152C219.288 42.6152 220.425 41.7286 221.047 41.5651C221.669 41.4017 224.695 40.8002 226.04 41.7077C227.386 42.6152 229.83 45.7516 230.814 48.6759C231.798 51.6002 232.883 55.3486 230.519 57.7617C228.693 59.6289 223.95 58.8744 218.46 62.9496Z" fill="#C94039"/>
<path d="M221.423 35.9868C221.423 35.9868 219.215 37.9166 219.18 39.078C219.145 40.2394 221.002 46.5956 221.607 48.4037C222.212 50.2118 222.438 50.5561 223.62 50.9281C224.803 51.3002 226.785 50.8482 226.785 50.8482C226.785 50.8482 226.124 51.4254 224.518 51.5053C222.911 51.5853 221.997 50.6708 221.597 50.4379C221.197 50.2049 220.7 48.2994 220.223 46.46C219.743 44.6206 218.412 40.0238 218.213 39.2623C218.015 38.5008 218.905 36.9813 221.423 35.9868Z" fill="#121721"/>
<path d="M213.164 40.6016C213.164 40.6016 213.338 43.1747 214.799 48.2582C215.275 49.9169 215.678 52.41 218.109 51.9579C219.653 51.4781 222.4 50.5706 222.4 50.5706L222.525 50.8765C222.525 50.8765 220.466 51.8189 219.089 52.2465C217.709 52.6742 216.52 52.782 215.779 52.024C215.039 51.266 213.669 46.6136 213.265 44.2804C212.862 41.9437 212.239 41.3839 213.164 40.6016Z" fill="#121721"/>
<path d="M209.865 44.934C209.865 44.934 211.409 50.8556 211.937 52.615C212.462 54.3745 213.613 54.7987 215.435 55.814L214.865 55.8731C214.865 55.8731 212.045 54.6666 211.614 53.0184C211.182 51.3702 209.461 44.8088 209.461 44.8088C209.461 44.8088 209.534 44.7775 209.67 44.8088C209.802 44.8401 209.865 44.934 209.865 44.934Z" fill="#121721"/>
<path d="M211.412 59.1864C211.412 59.1864 214.91 55.9735 216.582 54.8574C218.255 53.7412 219.84 54.8887 220.313 55.9179C220.783 56.9471 222.174 58.1085 221.089 59.1377C220.007 60.167 217.705 61.1684 216.537 62.1246C216.537 62.1246 216.641 62.2046 216.958 63.0113C217.274 63.818 217.778 63.9814 217.778 63.9814L217.007 62.1281C217.007 62.1281 221.795 59.5307 221.881 58.5605C221.968 57.5904 220.758 55.8066 220.063 54.7009C219.368 53.5952 217.97 53.689 216.137 54.7079C214.305 55.7232 211.412 59.1864 211.412 59.1864Z" fill="#121721"/>
<path d="M214.302 136.699C208.3 136.699 203.435 131.835 203.435 125.833C203.435 119.832 208.3 114.967 214.302 114.967C220.303 114.967 225.168 119.832 225.168 125.833C225.168 131.835 220.303 136.699 214.302 136.699Z" fill="#992C29"/>
<path d="M216.503 130.646C214.3 130.646 212.514 128.86 212.514 126.658C212.514 124.455 214.3 122.669 216.503 122.669C218.705 122.669 220.491 124.455 220.491 126.658C220.491 128.86 218.705 130.646 216.503 130.646Z" fill="#4B3355"/>
<path d="M223.794 112.696C223.794 112.696 223.106 122.874 216.917 128.239C210.727 133.604 205.292 135.531 205.292 135.531" stroke="#856792" stroke-width="3" stroke-miterlimit="10"/>
<path d="M226.819 112.147C226.819 112.147 226.131 122.325 219.942 127.69C213.752 133.055 208.318 134.981 208.318 134.981" stroke="#BB83C3" stroke-width="3" stroke-miterlimit="10"/>
<path d="M225.857 114.828C225.857 114.828 224.48 128.239 218.29 133.605C212.101 138.97 206.666 140.896 206.666 140.896" stroke="#665070" stroke-width="3" stroke-miterlimit="10"/>
<path d="M165.562 141.011C168.72 138.08 166.932 138.678 182.729 131.014C192.389 126.327 199.614 123.907 202.907 122.916C204.135 122.547 206.273 123.18 206.562 124.821C207.215 128.514 207.792 130.798 208.853 132.77C209.896 134.703 210.845 135.437 212.483 134.571C214.058 133.737 216.065 131.487 216.656 133.75C217.236 135.986 217.334 141.244 215.387 142.541C211.099 145.402 186.161 162.027 175.288 164.676C162.892 167.698 162.308 144.036 165.562 141.011Z" fill="#C94039"/>
<path d="M178.063 142.933C180.32 140.927 177.093 141.633 188.519 136.264C195.602 132.936 200.943 131.17 203.391 130.44C204.305 130.165 205.905 130.575 206.12 131.705C206.61 134.258 207.042 135.84 207.841 137.199C208.627 138.538 209.343 139.042 210.581 138.42C211.774 137.822 213.294 136.226 213.746 137.804C214.194 139.369 214.274 143.062 212.796 143.987C209.542 146.021 190.855 157.468 182.931 159.464C178.672 160.545 175.744 144.995 178.063 142.933Z" fill="#EE5D4F"/>
<path d="M216.931 138.26L171.318 162.429" stroke="#1D2538" stroke-width="0.5" stroke-miterlimit="10"/>
<path d="M163.15 137.641C163.15 137.641 170.351 134.077 171.359 136.667C171.919 143.19 175.49 155.788 178.807 164.415C177.848 165.677 173.14 169.356 169.297 168.101C165.274 166.79 163.15 137.641 163.15 137.641Z" fill="#F7BC4B"/>
<path d="M170.897 154.425C172.302 153.542 173.018 151.88 172.715 150.246C171.749 145.002 170.539 134.567 171.359 136.671C171.919 143.194 175.49 155.792 178.807 164.418C177.848 165.681 173.14 169.359 169.297 168.104C167.218 167.426 165.928 155.34 165.928 155.34C168.379 155.263 169.728 155.159 170.897 154.425Z" fill="#FEED7F"/>
<path d="M229.702 126.469C235.008 122.863 236.99 85.3308 236.051 75.8347C235.196 67.1801 235.526 70.5251 235.526 70.5251C235.526 70.5251 235.905 68.6753 231.569 68.6753C227.261 68.6753 227.268 68.7831 226.777 69.9688C226.28 71.1684 226.005 73.1678 225.473 73.9536C224.938 74.7464 223.954 75.0246 223.05 75.0037C222.149 74.9794 223.429 73.6094 220.748 73.5989C218.078 73.5885 217.097 73.14 216.395 75.9599C215.671 78.8633 210.654 104.069 209.621 111.642C211.168 111.051 214.68 111.611 219.18 113.725C223.752 115.874 226.739 119.143 227.588 122.067C228.453 125.036 227.435 128.009 229.702 126.469Z" fill="#C94039"/>
<path d="M214.027 87.5221L215.08 81.9725C215.08 81.9725 226.635 78.4884 236.357 83.2556L236.173 89.125C236.173 89.1285 224.664 83.6729 214.027 87.5221Z" fill="#F7BC4B"/>
<path d="M236.038 91.8536L236.107 89.9272C236.107 89.9272 229.981 87.6497 224.897 87.2463C218.843 86.7665 213.756 88.6893 213.756 88.6893L213.412 90.6852C213.412 90.6852 217.703 88.4633 224.789 88.964C228.005 89.1935 231.803 90.1984 236.038 91.8536Z" fill="#F7BC4B"/>
<path d="M230.485 124.86C233.423 116.272 234.855 95.9615 234.855 95.9615C234.855 95.9615 235.196 94.2925 231.288 94.2925C227.404 94.2925 219.639 98.5137 217.602 100.864C213.704 105.357 212.052 109.943 212.786 110.308C213.52 110.673 216.938 111.459 220.995 113.365C225.119 115.301 227.814 118.25 228.579 120.889C229.358 123.567 229.685 127.204 230.485 124.86Z" fill="#EE5D4F"/>
<path d="M232.23 68.6753C234.309 72.5315 234.292 90.8804 232.046 104.716C230.335 115.262 227.094 120.812 227.094 120.812" stroke="#1D2538" stroke-width="0.5" stroke-miterlimit="10"/>
<path d="M165.729 137.457C165.729 137.457 157.766 125.353 131.629 123.427C101.002 120.308 86.4501 131.595 86.4501 131.595L60.3749 276.766L180.204 273.243L165.729 137.457Z" fill="#992C29"/>
<path d="M170.559 182.577C170.559 182.577 151.577 169.785 124.751 169.785C97.9247 169.785 77.34 182.302 77.34 182.302L73.7168 202.202C73.7168 202.202 97.5144 190.004 123.099 189.594C148.684 189.184 172.805 203.304 172.805 203.304L170.559 182.577Z" fill="#F7BC4B"/>
<path d="M173.469 210.153C173.469 210.153 152.735 198.738 123.906 198.738C95.077 198.738 72.479 209.854 72.479 209.854L68.901 228.151C68.901 228.151 101.732 214.121 122.64 214.305C143.548 214.489 175.556 228.262 175.556 228.262L173.469 210.153Z" fill="#F7BC4B"/>
<path d="M162.913 148.733C162.913 148.733 157.85 142.833 137.133 141.306C109.622 146.258 71.6551 240.071 71.6551 240.071C71.6551 240.071 94.2149 230.443 123.103 230.029C151.991 229.615 174.551 244.473 174.551 244.473L162.913 148.733Z" fill="#EE5D4F"/>
<path d="M88.1506 203.981C88.1506 203.981 85.9634 208.293 83.6233 213.182C81.6796 217.243 79.6559 221.708 78.4598 224.361C125.029 197.983 172.398 227.139 172.398 227.139L170.18 208.592C170.18 208.592 149.519 198.849 123.009 198.992C105.769 199.082 95.4978 201.923 88.1506 203.981Z" fill="#FEED7F"/>
<path d="M166.755 180.368L169.366 201.512C169.366 201.512 157.902 193.167 133.075 191.036C108.245 188.904 92.8863 194.819 92.8863 194.819C92.8863 194.819 98.9261 182.99 106.183 171.71C106.183 171.706 132.731 163.316 166.755 180.368Z" fill="#FEED7F"/>
<path d="M84.3118 141.858C84.3118 141.858 99.9938 127.689 129.751 130.067C140.638 130.937 153.18 134.337 166.115 142.137" stroke="#1D2538" stroke-width="0.5" stroke-miterlimit="10"/>
<path d="M153.959 136.035L155.52 169.575" stroke="#1D2538" stroke-width="0.5" stroke-miterlimit="10"/>
<path d="M170.041 178.475L170.11 178.535L170.09 178.288C170.09 178.288 167.068 175.336 161.098 172.133C155.586 169.181 146.4 165.436 133.924 164.365C106.03 161.966 83.505 169.988 78.3832 176.518L78.3171 176.883L78.4214 176.754C83.3138 170.231 105.887 162.129 133.91 164.536C146.358 165.607 155.524 169.338 161.018 172.283C166.964 175.475 170.01 178.444 170.041 178.475Z" fill="#1D2538"/>
<path d="M72.2043 234.16C72.2043 234.16 95.0839 216.795 125.575 219.302C149.095 221.235 165.743 227.143 173.549 233.343" stroke="#1D2538" stroke-width="0.5" stroke-miterlimit="10"/>
<path d="M124.111 129.845L123.927 146.535C123.927 146.535 109.413 146.744 103.752 148.003C95.4975 149.835 93.665 150.937 93.665 150.937L95.1324 135.346C95.1324 135.346 108.693 129.341 124.111 129.845Z" stroke="#1D2538" stroke-width="0.5" stroke-miterlimit="10"/>
<path d="M94.3989 142.867C94.3989 142.867 87.7958 144.883 85.5948 146.9" stroke="#1D2538" stroke-width="0.5" stroke-miterlimit="10"/>
<path d="M123.927 142.867C123.927 142.867 141.351 141.769 154.373 148.368" stroke="#1D2538" stroke-width="0.5" stroke-miterlimit="10"/>
<path d="M93.6649 150.937L92.5175 168.657" stroke="#1D2538" stroke-width="0.5" stroke-miterlimit="10"/>
<path d="M21.5843 61.4314L25.2979 77.1133L22.4084 74.2238L19.5224 61.0176L21.5843 61.4314Z" fill="#3E4C6F"/>
<path d="M27.085 62.714L30.8021 78.396L27.9126 75.5065L25.023 62.3037L27.085 62.714Z" fill="#3E4C6F"/>
<path d="M26.4907 62.0747L23.1909 73.6293L25.6666 77.3429L29.3802 66.6124L28.5527 80.2324L34.7455 78.9945L31.4422 62.485L26.4907 62.0747Z" fill="#1D2538"/>
<path d="M34.5953 113.978C36.3165 113.533 37.4084 112.114 37.304 110.543C36.8555 103.727 35.8923 86.7589 35.8019 85.6288C35.6941 84.2484 35.0543 82.8993 32.9055 82.5203C30.7705 82.1447 28.1313 82.1447 27.8531 81.0286C27.5819 79.9333 27.8845 78.1147 26.0381 77.9826C24.1952 77.8505 21.6743 77.4193 20.6763 78.3338C19.3202 79.5751 13.7185 103.067 13.0231 113.891C12.206 126.617 22.4462 132.765 23.2355 131.59C24.0109 130.432 20.5824 127.713 23.5867 119.722C25.3427 115.046 31.6537 114.74 34.5953 113.978Z" fill="#1D2538"/>
<path d="M23.511 108.982C23.511 108.982 24.1994 119.16 30.3888 124.525C36.5781 129.891 42.0129 131.817 42.0129 131.817" stroke="#4B3355" stroke-width="3" stroke-miterlimit="10"/>
<path d="M22.273 108.982C22.273 108.982 22.6868 120.123 28.8761 125.488C35.0655 130.854 40.775 131.817 40.775 131.817" stroke="#665070" stroke-width="3" stroke-miterlimit="10"/>
<path d="M29.985 101.944C29.985 101.944 31.6679 111.969 37.8851 117.303C44.1022 122.633 50.1281 125.968 50.1281 125.968" stroke="#665070" stroke-width="3" stroke-miterlimit="10"/>
<path d="M28.1945 102.084C28.1945 102.084 29.8774 112.109 36.0946 117.443C42.3117 122.773 48.3376 126.108 48.3376 126.108" stroke="#4B3355" stroke-width="3" stroke-miterlimit="10"/>
<path d="M23.7264 105.317C23.7264 105.317 25.4093 115.342 31.6265 120.675C37.8436 126.006 43.8695 129.341 43.8695 129.341" stroke="#4B3355" stroke-width="3" stroke-miterlimit="10"/>
<path d="M32.0223 70.365C32.0223 70.365 38.1873 72.7678 39.7068 71.7281C41.2264 70.6884 42.7007 68.9359 43.6917 66.4776C44.6827 64.0158 45.6841 62.4406 44.6166 61.5366C43.5526 60.6325 42.4016 59.7111 42.4016 59.7111C42.4016 59.7111 43.5004 60.4447 44.3523 59.193C45.2042 57.9412 47.7877 52.1622 47.1758 50.7261C46.5638 49.2866 45.2633 47.2802 44.7626 46.6578C44.2619 46.0354 43.9107 46.4979 43.9107 46.4979C43.9107 46.4979 43.8029 44.7141 42.9093 43.8413C42.0157 42.9686 40.4266 42.4957 40.4266 42.4957C40.4266 42.4957 40.3953 41.2543 39.3835 40.5346C38.3716 39.8148 37.9648 39.8704 36.1393 39.4845C34.3138 39.0985 33.1594 39.1472 33.1594 39.1472C33.1594 39.1472 31.7094 38.1701 30.9444 38.0275C30.176 37.885 26.4728 37.4086 24.922 38.6187C23.3712 39.8287 20.6834 43.8205 19.7411 47.4367C18.7988 51.053 18.0094 60.4308 19.7897 64.1166C21.5665 67.7989 28.1384 69.9026 32.0223 70.365Z" fill="#992C29"/>
<path d="M35.6555 65.9179C35.6555 65.9179 40.0924 68.4388 41.1703 68.1919C42.2482 67.9451 42.9506 67.4687 43.7225 65.5423C44.4945 63.616 45.2803 62.3851 44.4458 61.6758C43.6113 60.9664 43.5695 60.8204 44.2371 59.8433C44.9048 58.8627 46.925 54.3424 46.4451 53.2193C45.9653 52.0927 44.95 50.5245 44.5571 50.0343C44.1641 49.544 43.8894 49.9091 43.8894 49.9091C43.8894 49.9091 43.806 48.5147 43.1071 47.8297C42.4082 47.1447 41.1668 46.7762 41.1668 46.7762C41.1668 46.7762 41.1425 45.806 40.3497 45.2427C39.5569 44.6794 39.2405 44.7246 37.8114 44.4221C36.3857 44.1196 35.4817 44.1579 35.4817 44.1579C35.4817 44.1579 34.3481 43.3929 33.7501 43.2816C33.152 43.1704 30.2521 42.7983 29.0385 43.7441C27.825 44.6899 25.7213 47.8158 24.9842 50.6428C24.247 53.4732 23.7672 56.307 25.158 59.1896C26.5489 62.0721 30.5858 61.3802 35.6555 65.9179Z" fill="#C94039"/>
<path d="M31.855 38.438C31.855 38.438 34.1707 40.194 34.289 41.3414C34.4072 42.4889 33.0024 48.9077 32.526 50.7367C32.0497 52.5657 31.8515 52.9273 30.7075 53.3723C29.5635 53.8174 27.5711 53.5114 27.5711 53.5114C27.5711 53.5114 28.2665 54.04 29.8591 54.0052C31.4516 53.9739 32.2965 53.0073 32.6756 52.7465C33.0546 52.4857 33.4162 50.5698 33.7604 48.7164C34.1081 46.8631 35.1096 42.2211 35.2556 41.4562C35.4017 40.6912 34.4176 39.2482 31.855 38.438Z" fill="#121721"/>
<path d="M40.3461 42.4336C40.3461 42.4336 40.353 44.9928 39.2577 50.125C38.8996 51.801 38.6736 54.2942 36.2361 54.0125C34.6748 53.6439 31.8966 52.9346 31.8966 52.9346L31.7958 53.2475C31.7958 53.2475 33.8959 54.0368 35.2903 54.3672C36.6846 54.694 37.8703 54.7184 38.5484 53.9186C39.2264 53.1189 40.2626 48.4178 40.5025 46.0811C40.739 43.741 41.3162 43.1429 40.3461 42.4336Z" fill="#121721"/>
<path d="M43.9105 46.4942C43.9105 46.4942 42.7874 52.461 42.391 54.2378C41.9946 56.0146 40.8854 56.5118 39.1503 57.6419L39.7205 57.6593C39.7205 57.6593 42.4292 56.2719 42.7387 54.6098C43.0516 52.9478 44.3034 46.3377 44.3034 46.3377C44.3034 46.3377 44.2304 46.3099 44.0983 46.3516C43.9661 46.3968 43.9105 46.4942 43.9105 46.4942Z" fill="#121721"/>
<path d="M43.3608 60.7057C43.3608 60.7057 39.6785 57.7675 37.9434 56.78C36.2083 55.7925 34.7201 57.0373 34.3237 58.0874C33.9273 59.1375 33.4648 59.6139 34.6018 60.9526C35.7389 62.2913 38.0964 64.4541 38.0964 64.4541C38.0964 64.4541 35.9997 65.5668 35.106 66.6099C35.4259 65.4103 37.0845 63.9847 37.0845 63.9847C37.0845 63.9847 33.4509 60.7892 33.2979 59.833C33.1449 58.8767 33.8751 58.004 34.4871 56.86C35.0991 55.716 36.4899 55.7125 38.3745 56.5957C40.2592 57.4789 43.3608 60.7057 43.3608 60.7057Z" fill="#121721"/>
<path d="M32.4049 134.338C26.4037 134.338 21.5388 129.473 21.5388 123.472C21.5388 117.47 26.4037 112.605 32.4049 112.605C38.4061 112.605 43.271 117.47 43.271 123.472C43.271 129.473 38.4061 134.338 32.4049 134.338Z" fill="#992C29"/>
<path d="M30.753 127.185C28.7769 127.185 27.175 125.583 27.175 123.607C27.175 121.631 28.7769 120.029 30.753 120.029C32.7291 120.029 34.331 121.631 34.331 123.607C34.331 125.583 32.7291 127.185 30.753 127.185Z" fill="#4B3355"/>
<path d="M22.1123 110.312C22.1123 110.312 22.8008 120.489 28.9901 125.854C35.1794 131.22 40.6142 133.146 40.6142 133.146" stroke="#856792" stroke-width="3" stroke-miterlimit="10"/>
<path d="M19.0836 109.762C19.0836 109.762 19.7721 119.94 25.9614 125.305C32.1507 130.67 37.5855 132.597 37.5855 132.597" stroke="#BB83C3" stroke-width="3" stroke-miterlimit="10"/>
<path d="M20.7353 115.677C20.7353 115.677 21.4238 125.854 27.6131 131.22C33.8025 136.585 39.2372 138.511 39.2372 138.511" stroke="#665070" stroke-width="3" stroke-miterlimit="10"/>
<path d="M85.3344 131.122C85.3344 131.122 52.4162 120.377 47.8542 119.07C43.473 117.811 41.6927 118.531 41.1537 122.21C40.6217 125.833 38.8171 127.561 35.4756 127.978C32.2522 128.382 31.3725 128.267 30.7119 128.399C30.0512 128.531 29.6374 129.936 29.5957 133.257C29.5574 136.442 28.4795 136.97 35.3886 141.24C42.7497 145.788 73.1192 159.175 73.1192 159.175C73.1192 159.175 82.0902 154.422 84.9206 147.624C87.8692 140.552 85.3344 131.122 85.3344 131.122Z" fill="#C94039"/>
<path d="M61.7069 139.69C54.1719 137.158 44.6306 132.725 41.9949 133.027C39.4427 133.319 36.0525 134.307 33.8932 134.251C31.7478 134.199 31.1497 133.187 31.1114 135.76C31.0767 138.233 33.396 138.758 38.8203 142.106C44.5854 145.663 71.05 156.592 71.05 156.592C71.05 156.592 74.9757 152.284 75.5251 146.946C75.8241 143.994 69.3671 142.263 61.7069 139.69Z" fill="#EE5D4F"/>
<path d="M72.1765 150.911C72.1383 151.536 72.5938 152.068 73.1988 152.1C73.8038 152.131 74.3289 151.644 74.3706 151.018C74.4123 150.389 73.9533 149.853 73.3483 149.826C72.7398 149.794 72.2182 150.281 72.1765 150.911Z" fill="#3E4C6F"/>
<path d="M77.5349 155.236L29.6372 134.982" stroke="#1D2538" stroke-width="0.5" stroke-miterlimit="10"/>
<path d="M82.8165 129.772C82.8165 129.772 88.46 130.798 89.5622 132.102C90.6714 133.413 89.1345 145.267 85.706 152.186C82.4236 158.807 78.8213 161.863 75.3928 160.354C73.7168 159.613 72.02 158.716 72.02 158.716C72.02 158.716 75.5249 154.822 78.8387 144.947C82.4862 134.067 82.8165 129.772 82.8165 129.772Z" fill="#FEED7F"/>
<path d="M82.8166 129.772C82.8166 129.772 88.46 130.798 89.5623 132.102C90.6715 133.413 86.784 145.451 86.784 145.451C86.784 145.451 85.3236 147.454 78.8387 144.947C82.4863 134.067 82.8166 129.772 82.8166 129.772Z" fill="#F7BC4B"/>
<path d="M32.4049 109.392C35.6143 109.392 37.1268 111.715 37.1268 111.715C37.1268 111.715 37.4363 111.61 37.2311 109.454C36.4975 100.41 35.8124 80.5594 35.7394 79.6066C35.6212 78.0628 34.9293 76.5537 32.5996 76.1295C30.2873 75.7088 27.4256 75.7088 27.1265 74.4605C26.831 73.2365 27.1578 71.1989 25.1585 71.0529C23.1626 70.9068 20.4296 70.4235 19.3482 71.4458C17.8773 72.8366 11.8097 99.11 11.0551 111.221C10.1685 125.456 21.5631 132.668 22.415 131.354C23.2565 130.057 17.8669 126.409 21.1215 117.469C23.0305 112.236 29.1954 109.392 32.4049 109.392Z" fill="#C94039"/>
<path d="M35.1794 94.2629C35.1794 94.2629 28.5763 95.087 25.5512 93.4388C22.5261 91.7872 25.7216 78.96 25.7216 78.96L34.6961 80.8515L35.1794 94.2629Z" stroke="#1D2538" stroke-width="0.5" stroke-miterlimit="10"/>
<path d="M31.4073 108.398C35.2252 108.565 35.9797 108.906 35.7989 107.011C35.479 100.272 16.9528 97.3371 15.5306 97.3823C13.7712 97.438 11.8622 104.535 12.4116 113.339C12.961 122.143 17.7699 129.379 18.4653 121.041C18.8339 116.639 22.6866 108.019 31.4073 108.398Z" fill="#EE5D4F"/>
<path d="M22.7767 70.7861C22.2586 72.3022 11.6811 104.167 17.4567 128.378" stroke="#1D2538" stroke-width="0.5" stroke-miterlimit="10"/>
<path d="M77.3227 109.554C78.9535 111.181 82.6845 113.88 80.8381 115.646C79.409 117.016 77.6252 115.559 74.5966 112.569C72.6494 110.646 75.6919 107.927 77.3227 109.554Z" fill="#CC6D3D"/>
<path d="M78.6442 113.676L77.7019 115.275L75.0175 112.542L78.6442 113.676Z" fill="#F5894E"/>
<path d="M71.7105 106.478C71.7105 106.478 73.3239 104.989 75.1842 106.965C77.2809 109.193 77.3818 109.36 77.3818 109.36L74.6001 112.57C74.6001 112.57 70.9734 107.079 71.7105 106.478Z" fill="#C94039"/>
<path d="M81.1582 115.633C79.7987 116.401 79.1728 116.405 78.3 115.295C77.4273 114.186 79.7743 112.67 83.2967 110.817C86.8225 108.963 88.0082 108.119 88.5541 108.922C89.1035 109.725 87.5423 111.585 85.0944 113.174C82.6464 114.763 82.5178 114.864 81.1582 115.633Z" fill="#CC6D3D"/>
<path d="M81.3873 115.355C80.0278 116.123 79.4193 115.706 79.4193 115.706L80.3685 114.291C80.3685 114.291 88.0426 111.019 85.5947 112.608C83.1468 114.197 82.7469 114.586 81.3873 115.355Z" fill="#F5894E"/>
<path d="M88.6477 110.788C89.2701 110.374 89.6595 110.176 90.0212 109.811C90.4384 109.189 90.7896 107.975 91.106 107.457C91.7597 106.393 91.04 105.499 90.7583 106.216C90.4767 106.932 89.1032 108.166 89.1032 108.166L89.7012 106.007L91.4398 103.893C91.4398 103.893 91.5198 102.057 90.9669 102.234C90.4141 102.412 89.3605 104.609 88.4286 104.842C87.4967 105.075 86.2728 108.796 86.5301 109.613C86.7874 110.43 87.8375 111.275 88.6477 110.788Z" fill="#CC6D3D"/>
<path d="M80.6123 124.789C80.6123 124.789 81.3355 127.421 75.6956 126.465C70.0556 125.509 59.7633 123.005 59.7633 123.005C59.7633 123.005 77.1595 120.529 80.6123 124.789Z" fill="#EE5D4F"/>
<path d="M73.1323 135.676L68.8102 142.345L66.9012 140.29L70.2323 133.437L73.1323 135.676Z" fill="#CC6D3D"/>
<path d="M77.7571 124.082C78.1361 124.176 80.3823 124.604 78.2473 128.168C75.7855 132.278 75.1944 133.2 73.0838 135.807L70.156 133.638C70.156 133.638 71.8216 129.465 72.6248 127.097C73.6158 124.176 77.378 123.989 77.7571 124.082Z" fill="#1D2538"/>
<path d="M73.1808 133.753C74.7455 133.342 80.3819 124.604 78.2469 128.168C75.7851 132.278 75.194 133.2 73.0834 135.808L70.1556 133.638C70.1556 133.641 71.6126 134.163 73.1808 133.753Z" fill="#3E4C6F"/>
<path d="M68.9805 141.603C68.9805 141.603 69.9367 145.515 68.897 145.95C67.8574 146.385 66.2509 141.211 66.9011 140.289C67.5514 139.368 68.9805 141.603 68.9805 141.603Z" fill="#CC6D3D"/>
<path d="M69.1338 142.251C69.1338 142.251 69.4258 144.824 68.9008 144.859C68.3792 144.894 67.4508 143.138 67.1587 142.606C66.8667 142.074 67.2387 140.262 66.8214 140.196C66.4077 140.13 65.7435 141.305 65.7262 141.827C65.7192 142.008 66.0912 142.449 66.3938 143.52C66.5885 144.209 66.6511 145.443 66.9258 146.093C67.4543 147.342 68.3966 148.211 68.7721 148.402C69.6414 148.851 69.8466 147.554 69.8535 145.885C69.864 144.216 69.1338 142.251 69.1338 142.251Z" fill="#C94039"/>
<path d="M67.0751 142.041C67.023 141.342 67.235 140.265 66.8213 140.198C66.4075 140.132 65.7434 141.308 65.726 141.829C65.719 142.01 66.0911 142.452 66.3936 143.523C66.5883 144.211 66.6509 145.445 66.9256 146.096C67.4541 147.344 68.3964 148.213 68.7719 148.405C69.6412 148.853 67.315 146.979 67.3255 145.31C67.3289 144.9 68.4973 144.663 68.4973 144.663C68.4973 144.663 67.169 143.283 67.0751 142.041Z" fill="#992C29"/>
<path d="M72.2456 120.289C72.2456 120.289 77.0336 122.403 78.4175 124.034C79.8014 125.664 79.6693 129.1 72.9445 126.468C68.299 124.649 63.5527 122.865 65.7642 122.292C67.9721 121.718 69.8881 119.127 72.2456 120.289Z" fill="#1D2538"/>
<path d="M72.388 146.042C72.388 146.042 73.2538 147.541 73.6189 148.389C73.9353 149.13 74.5612 150.11 74.6794 150.684C74.9332 151.922 74.8359 152.607 74.3039 152.673C73.7719 152.739 72.3497 152.273 71.5465 151.39C71.0945 150.893 70.2182 148.563 70.0409 147.447C69.8983 146.578 70.8615 143.935 72.388 146.042Z" fill="#C94039"/>
<path d="M71.5501 149.395C72.0126 151.634 74.836 152.611 74.304 152.674C73.772 152.74 72.3499 152.274 71.5467 151.391C71.0946 150.893 69.6759 147.82 69.4951 146.703C69.356 145.831 70.0167 145.076 70.2079 144.892C70.3957 144.711 73.0245 147.315 71.5501 149.395Z" fill="#992C29"/>
<path d="M71.6058 138.526L72.0752 145.115C72.0752 145.115 73.6365 149.499 73.2227 149.517C72.8089 149.534 71.3485 148.495 70.5627 146.874C70.055 145.821 68.7337 140.101 68.2191 138.644C66.4944 133.738 71.4563 134.492 71.6058 138.526Z" fill="#F5894E"/>
<path d="M64.4602 121.612C65.5069 122.124 70.0063 123.108 70.4479 126.136C70.9938 129.864 71.6162 138.661 71.6162 138.661L68.2955 138.779C68.2955 138.779 66.1467 133.88 65.5312 130.761C65.0931 128.542 64.9123 126.759 64.9123 126.759C64.9123 126.759 60.385 123.4 59.999 122.172C59.6166 120.945 63.4136 121.101 64.4602 121.612Z" fill="#1D2538"/>
<path d="M70.9384 130.772L71.227 133.995L71.6199 138.665L68.2957 138.78L70.6463 136.228L70.9384 130.772Z" fill="#3E4C6F"/>
<path d="M62.3783 117.157C61.9262 116.587 62.8581 115.63 62.9833 114.375C63.1919 112.247 62.9728 109.424 63.5361 107.386C63.9256 105.971 63.9117 105.794 64.847 105.126C65.466 104.684 67.8652 105.498 70.2957 105.595C72.7506 105.696 72.914 105.846 73.8285 108.485C74.6978 110.992 73.9572 111.444 72.9766 113.186C72.1942 114.577 70.932 116.072 70.932 116.072C70.932 116.072 70.6469 117.779 68.4633 118.211C65.6051 118.781 63.5987 118.697 62.3783 117.157Z" fill="#CE9436"/>
<path d="M72.2182 102.699L71.2446 105.777C71.2446 105.777 70.7161 107.136 69.6834 107.147C68.6507 107.157 68.0108 105.85 68.1012 105.53C68.1917 105.21 69.3774 101.493 69.3774 101.493L72.2182 102.699Z" fill="#CC6D3D"/>
<path d="M70.6674 116.41C71.94 117.053 75.1251 120.016 77.0966 121.181C81.3805 124.265 80.612 124.79 80.612 124.79C80.612 124.79 79.1446 123.434 77.4061 123.837C76.4499 124.06 74.2697 125.816 71.401 124.484C69.2939 123.507 65.9106 123.044 65.9106 123.044C65.9106 123.044 62.6769 123.639 62.0753 123.789C60.229 124.247 59.1267 122.996 59.1267 122.996C59.8221 121.094 62.2248 115.499 63.9008 114.866C65.5838 114.237 69.3947 115.767 70.6674 116.41Z" fill="#F7BC4B"/>
<path d="M62.0789 123.792C60.2465 124.289 59.1303 122.999 59.1303 122.999C60.1387 119.985 62.0129 117.015 62.0129 117.015L60.4551 121.97L62.0789 123.792Z" fill="#CE9436"/>
<path d="M69.5373 112.588C70.1528 112.932 73.5743 110.71 73.2579 111.513C72.9415 112.313 70.7822 117.132 69.8329 117.522C68.8871 117.911 67.9239 115.853 66.6861 115.554C65.4482 115.255 63.2958 116.134 63.3619 115.606C63.428 115.077 66.0428 110.633 69.5373 112.588Z" fill="#F7BC4B"/>
<path d="M71.0567 123.082C72.0929 123.68 74.2174 124.049 74.2174 124.049C74.2174 124.049 71.7764 122.776 69.8153 119.737C69.8118 119.737 70.0205 122.484 71.0567 123.082Z" fill="#CE9436"/>
<path d="M60.6949 109.716C60.6949 109.716 59.2797 112.248 58.7408 114.129C58.2018 116.01 59.5544 116.883 60.4029 116.844C61.2513 116.81 62.9307 112.557 64.0191 110.808C65.1074 109.059 62.1971 106.788 60.6949 109.716Z" fill="#CC6D3D"/>
<path d="M64.0578 111.344C64.0578 111.344 66.7804 106.727 64.7358 105.371C62.6947 104.011 60.9179 108.545 60.4728 109.853L64.0578 111.344Z" fill="#C94039"/>
<path d="M56.992 123.469C56.992 123.469 60.9559 117.752 61.5436 115.708C62.1312 113.663 59.6798 113.347 58.7862 114.143C57.896 114.936 55.7854 120.746 55.3403 122.193C54.8953 123.639 56.0984 124.178 56.992 123.469Z" fill="#CC6D3D"/>
<path d="M57.6214 122.241C57.6214 122.241 60.6744 117.835 61.1264 116.264C61.5784 114.689 56.6896 120.144 56.3488 121.26C56.008 122.373 56.9295 122.787 57.6214 122.241Z" fill="#F5894E"/>
<path d="M57.1033 122.67C57.1033 122.67 57.2911 124.079 57.0338 125C56.9399 125.417 56.1645 125.501 55.549 125.605C54.9336 125.709 54.3146 125.695 53.9634 125.671C53.6157 125.647 53.1185 125.254 54.2625 124.976C54.7528 124.857 55.7751 124.392 55.7751 124.392C55.7751 124.392 55.928 123.404 56.1506 122.907C56.5157 122.083 57.1033 122.67 57.1033 122.67Z" fill="#CC6D3D"/>
<path d="M55.3891 124.603C55.3891 124.603 53.5323 124.464 52.8995 124.548C52.2284 124.638 50.9697 124.993 50.7298 124.648C50.4968 124.308 51.3278 123.79 51.5921 123.769C51.8494 123.744 53.7757 123.644 53.7757 123.644C53.7757 123.644 57.4441 123.845 55.3891 124.603Z" fill="#CC6D3D"/>
<path d="M55.9943 123.571C55.9943 123.571 53.9914 122.848 53.6333 122.799C53.2647 122.751 50.7438 124.465 51.5366 124.461C52.2842 124.458 53.0943 123.71 53.7306 124.117C54.36 124.517 56.1959 124.795 55.9943 123.571Z" fill="#CC6D3D"/>
<path d="M56.1467 122.906C56.1467 122.906 54.7767 122.298 54.4185 122.433C54.043 122.576 52.6834 123.668 53.504 123.668C54.2725 123.671 56.0597 124.819 56.1467 122.906Z" fill="#CC6D3D"/>
<path d="M75.8519 102.381C75.8519 102.381 74.4749 104.676 72.3747 103.737C70.2745 102.795 69.7565 97.4504 72.872 97.5547C75.9875 97.659 77.0167 100.813 75.8519 102.381Z" fill="#273252"/>
<path d="M74.3498 95.2121C73.2997 94.0786 72.9068 92.6216 70.6119 93.098C70.6119 93.098 68.2613 92.3365 66.0047 93.9499C63.2995 95.8867 64.3252 98.6928 64.3252 98.6928C64.3252 98.6928 61.3488 101.683 64.9128 103.682C66.6306 104.646 69.7774 103.682 71.1578 103.241C74.2351 102.26 75.3999 96.3457 74.3498 95.2121Z" fill="#273252"/>
<path d="M71.2515 94.5193C72.4129 94.8114 76.5611 94.2654 76.655 93.3092C76.7489 92.353 73.2092 91.3099 72.6841 93.3197C72.6841 93.3197 73.5221 91.3655 72.326 90.8266C71.1264 90.2841 70.0902 94.2272 71.2515 94.5193Z" fill="#273252"/>
<path d="M75.3927 98.5629C75.8864 103.073 73.0143 104.151 69.9057 103.751C67.5691 103.452 67.2422 101.967 67.3709 99.0184C67.4995 96.0698 68.6574 93.8722 71.008 93.7088C74.1131 93.4932 75.0728 95.6351 75.3927 98.5629Z" fill="#CC6D3D"/>
<path d="M74.4122 101.015C73.8698 102.604 72.6389 103.762 70.5039 103.505C68.7897 103.3 67.7882 101.982 67.7117 100.347C67.6352 98.7132 71.2584 97.5797 72.9588 97.5275C75.2015 97.4614 74.9547 99.4226 74.4122 101.015Z" fill="#F5894E"/>
<path d="M66.8354 99.5884L68.8174 99.4875C68.8174 99.4875 68.9043 95.8817 71.1888 95.0159C73.5881 94.1049 74.6833 95.6418 74.6833 95.6418C74.6833 95.6418 73.5394 92.5576 69.9927 93.8511C67.1727 94.8768 66.8354 99.5884 66.8354 99.5884Z" fill="#F7BC4B"/>
<path d="M66.3625 99.8145C66.124 98.9122 66.5011 98.03 67.2048 97.844C67.9084 97.6581 68.6722 98.2388 68.9106 99.1411C69.1491 100.043 68.772 100.926 68.0683 101.112C67.3647 101.298 66.6009 100.717 66.3625 99.8145Z" fill="#F5894E"/>
<path d="M71.7728 96.8189C71.7728 96.8189 72.3781 96.4189 72.7676 96.4224" stroke="#1D2538" stroke-width="0.25" stroke-miterlimit="10" stroke-linecap="round" stroke-linejoin="round"/>
<path d="M72.2692 98.0012C72.1926 97.6484 72.2842 97.329 72.4738 97.2879C72.6633 97.2468 72.8791 97.4995 72.9556 97.8523C73.0321 98.2052 72.9405 98.5245 72.751 98.5657C72.5614 98.6068 72.3457 98.3541 72.2692 98.0012Z" fill="#273252"/>
<path d="M74.5059 97.7106C74.4747 97.3855 74.5487 97.1124 74.6711 97.1007C74.7935 97.089 74.918 97.3431 74.9491 97.6682C74.9802 97.9933 74.9062 98.2663 74.7838 98.2781C74.6614 98.2898 74.537 98.0357 74.5059 97.7106Z" fill="#273252"/>
<path d="M74.2347 96.1925C74.2347 96.1925 74.6799 96.1612 74.899 96.3734" stroke="#1D2538" stroke-width="0.25" stroke-miterlimit="10" stroke-linecap="round" stroke-linejoin="round"/>
<path d="M66.7278 100.844C66.7278 100.844 68.7967 99.9612 70.0033 101.349C71.2098 102.736 69.2696 106.224 66.9121 104.958C64.5546 103.699 65.1422 101.359 66.7278 100.844Z" fill="#273252"/>
<path d="M69.7912 94.5532C69.7912 94.5532 69.885 96.1006 69.4956 97.168C69.2 97.9747 68.8002 98.4442 68.8002 98.4442L68.7028 98.1173L68.223 98.1625C68.223 98.1625 69.1687 97.0776 69.4469 94.6297L69.7912 94.5532Z" fill="#EE5D4F"/>
<path d="M69.7706 94.3828C69.7706 94.3828 70.3895 95.805 70.3895 96.9385C70.3895 97.7974 70.1739 98.3746 70.1739 98.3746L69.9723 98.0999L69.5376 98.305C69.5376 98.305 70.0522 96.9629 69.4785 94.5636L69.7706 94.3828Z" fill="#EE5D4F"/>
<path d="M69.8358 95.3784C69.5264 95.58 67.9443 94.3909 68.5528 93.7719C69.123 93.1878 69.8741 92.6314 70.1801 93.1878C70.4896 93.7406 70.1488 95.1767 69.8358 95.3784Z" fill="#EE5D4F"/>
<path d="M68.8519 94.7805C68.8519 94.7805 68.3823 94.0779 68.584 93.9144C68.7858 93.7509 68.8588 94.1718 69.1858 94.6171C69.5093 95.0692 69.0571 95.0727 68.8519 94.7805Z" fill="#F7BC4B"/>
<path d="M69.7846 94.8737C69.7846 94.8737 69.5621 94.5538 68.9014 94.6651C68.2373 94.7729 67.7887 94.9155 67.6774 95.3188C67.5662 95.7222 68.1399 96.5184 68.6197 96.7375C69.1031 96.9566 69.7603 95.8369 69.8646 95.4892C69.9689 95.1415 69.7846 94.8737 69.7846 94.8737Z" fill="#EE5D4F"/>
<path d="M68.0698 96.0248C68.0698 96.0248 68.5148 96.6751 68.8556 96.529C69.3633 96.3134 68.1184 95.458 67.9376 95.3085C67.7603 95.159 67.6212 95.6806 68.0698 96.0248Z" fill="#F7BC4B"/>
<path d="M220.422 253.065C220.422 253.065 264.251 280.789 276.866 286.126C289.919 291.648 265.068 292.135 265.068 292.135C265.068 292.135 276.55 299.183 268.173 300.16C259.748 301.144 254.991 300.16 254.991 300.16C254.991 300.16 274.724 308.206 259.307 315.578C243.197 323.28 149.929 349.897 93.603 334.9C41.5744 321.044 40.4547 316.471 21.8798 317.525C3.19012 318.585 12.5019 310.146 19.0564 307.646C19.0564 307.646 -4.61261 309.312 2.05656 299.291C15.2071 279.53 25.1657 273.431 25.1657 273.431L220.422 253.065Z" fill="#1D2538"/>
<path d="M129.191 330.067C128.677 328.857 120.276 321.277 124.396 320.55C128.517 319.823 134.497 324.326 134.497 324.326C134.497 324.326 135.78 316.937 137.808 319.1C139.838 321.263 141.052 324.983 141.052 324.983C141.052 324.983 142.537 317.205 145.03 319.587C147.523 321.969 148.552 324.389 148.552 324.389C148.552 324.389 152.453 319.684 153.615 322.41C154.776 325.137 156.066 328.162 156.066 328.162C156.066 328.162 159.269 320.95 161.856 320.953C164.443 320.957 165.969 326.277 165.969 326.277C165.969 326.277 167.509 319.493 170.225 319.799C172.941 320.105 174.286 324.128 174.286 324.128C174.286 324.128 180.291 323.881 181.38 327.296C182.465 330.714 175.813 327.292 161.31 330.095C149.846 332.313 129.191 330.067 129.191 330.067Z" fill="#3E4C6F"/>
<path d="M236.98 310.126C236.98 310.126 245.982 303.443 243.652 303.126C241.277 302.803 238.423 306.124 238.423 306.124C238.423 306.124 238.541 300.63 236.159 302.925C233.808 305.185 231.635 312.96 231.635 312.96C231.635 312.96 234.201 302.327 230.836 305.995C227.557 309.57 226.374 313.93 226.374 313.93C226.374 313.93 216.43 300.557 211.829 305.846C207.393 310.947 210.505 314.031 210.505 314.031C210.505 314.031 207.264 306.364 204.312 311.03C201.471 315.519 214.729 323.256 236.98 310.126Z" fill="#3E4C6F"/>
<path d="M111.965 333.833C111.965 333.833 125.77 336.246 124.487 332.988C123.207 329.73 117.727 330.944 117.727 330.944C117.727 330.944 121.517 322.244 118.423 323.144C115.328 324.049 114.834 325.182 114.834 325.182C114.834 325.182 114.163 319.49 112.038 321.263C109.914 323.04 109.914 323.04 109.914 323.04C109.914 323.04 106.875 314.514 106.315 317.87C105.752 321.225 105.752 321.225 105.752 321.225C105.752 321.225 100.425 314.855 100.06 321.896C99.6946 328.937 96.5512 328.92 111.965 333.833Z" fill="#3E4C6F"/>
<path d="M96.6904 318.755C96.6904 318.755 92.5631 311.738 92.1528 313.804C91.739 315.866 93.3906 321.231 93.3906 321.231C93.3906 321.231 86.3737 312.566 84.7255 316.28C83.0739 319.993 87.6151 323.296 87.6151 323.296C87.6151 323.296 76.0605 316.28 76.4743 319.169C76.8881 322.059 90.5046 330.724 97.9318 328.248C105.355 325.772 96.6904 318.755 96.6904 318.755Z" fill="#3E4C6F"/>
<path d="M60.4272 310.752C60.4272 310.752 64.9545 304.458 67.1903 308.231C69.4261 312.004 65.1457 312.47 65.1457 312.47C65.1457 312.47 72.0896 311.242 69.7147 314.997C67.3398 318.753 65.6395 318.857 65.6395 318.857C65.6395 318.857 72.5381 320.137 69.0923 322.856C65.6499 325.575 49.8428 318.023 44.8983 317.522C39.9538 317.025 40.83 310.05 44.4045 311.134C47.9825 312.219 47.9825 312.219 47.9825 312.219C47.9825 312.219 45.2077 304.57 49.2621 305.321C53.3199 306.075 53.3199 306.075 53.3199 306.075C53.3199 306.075 58.3305 299.451 60.4272 310.752Z" fill="#3E4C6F"/>
<path d="M92.1498 274.023C92.1498 274.023 102.164 288.081 99.1353 291.058C96.0581 294.083 80.0075 288.895 80.0075 288.895C80.0075 288.895 75.828 294.65 68.9015 294.709C61.9716 294.771 52.9901 285.602 52.9901 285.602C52.9901 285.602 38.2678 293.353 34.4673 292.136C30.6911 290.926 24.241 280.254 24.241 280.254C24.241 280.254 10.7253 284.069 8.29478 282.021C5.89207 279.997 31.7169 254.263 31.7169 254.263L41.1678 244.054L92.1498 274.023Z" fill="#33A86D"/>
<path d="M57.4511 269.579C57.4615 270.34 59.8747 318.189 59.8747 318.189L46.0565 313.318L50.8515 267.312L57.4511 269.579Z" fill="#4B3355"/>
<path d="M57.4858 270.201C57.4962 270.963 58.8836 294.555 58.8836 294.555L52.6734 284.551L49.2797 281.526L50.1977 270.062L57.4858 270.201Z" fill="#34283A"/>
<path d="M77.8097 249.186L90.6439 269.054C90.6439 269.054 98.5509 280.373 96.9931 282.862C95.411 285.387 76.2902 270.915 76.2902 270.915C76.2902 270.915 70.918 282.017 66.509 282.128C62.0965 282.24 54.1025 272.285 54.1025 272.285C54.1025 272.285 40.1626 279.66 35.8892 278.822C31.6331 277.987 27.5823 265.539 27.5823 265.539C27.5823 265.539 20.9896 271.464 17.9505 268.655C14.9602 265.89 34.4218 246.79 38.0172 241.568C41.4596 236.567 41.4596 236.567 41.4596 236.567L77.8097 249.186Z" fill="#288453"/>
<path d="M73.8908 228.184L73.9499 229.074C75.1183 232.079 87.3474 253.202 87.3474 253.202C87.3474 253.202 87.6256 259.802 84.0059 259.614C80.3931 259.426 71.4464 252.778 71.4464 252.778C71.4464 252.778 63.6437 263.234 57.6039 261.989C51.6058 260.755 48.7719 250.219 48.7719 250.219C48.7719 250.219 39.3627 255.431 35.9899 253.108C32.6623 250.82 35.2527 247.027 35.2527 247.027C35.2527 247.027 28.7505 249.325 30.4473 246.763C32.1198 244.238 50.281 219.557 50.281 219.557C50.281 219.557 58.9599 207.999 63.9497 213.799C69.1445 219.836 74.6941 228.184 74.6941 228.184" fill="#33A86D"/>
<path d="M73.9433 222.127L73.9989 222.854C75.1255 225.305 87.831 247.277 87.831 247.277C87.831 247.277 85.6508 250.41 83.4602 250.25C81.2696 250.09 71.5997 242.148 71.5997 242.148C71.5997 242.148 62.4513 250.744 58.3378 249.617C54.2591 248.497 51.2375 240.118 51.2375 240.118C51.2375 240.118 39.5821 244.207 38.0556 243.556C36.5326 242.91 37.4541 239.38 37.4541 239.38C37.4541 239.38 30.3468 241.773 31.901 239.711C33.431 237.68 51.1992 215.079 51.1992 215.079C51.1992 215.079 59.5374 205.607 64.3568 210.364C69.3673 215.308 74.7152 222.13 74.7152 222.13" fill="#288453"/>
<path d="M61.3735 200.457C61.3735 200.457 72.41 216.229 79.3921 228.416C79.3921 228.416 76.1827 232.467 73.9573 231.581C71.7424 230.697 65.9181 222.102 65.9181 222.102C65.9181 222.102 62.4618 228.566 57.9833 229.459C53.4769 230.357 48.8801 224.372 48.8801 224.372C48.8801 224.372 40.3402 229.174 40.7505 226.671C41.1504 224.205 60.6363 201.872 61.3735 200.457Z" fill="#FFFCF3"/>
<path d="M51.7381 287.118L52.1484 294.775L51.4669 304.135L51.6929 313.072L49.1894 304.775L50.5559 297.115L49.8291 281.343L52.6526 279.051L51.7381 287.118Z" fill="#34283A"/>
<path d="M54.4155 303.718L55.1492 307.936L53.3132 311.788V307.202L53.6818 300.967L54.4155 303.718Z" fill="#34283A"/>
<path d="M132.088 247.214C132.088 247.214 97.2398 300.188 105.495 303.078C113.749 305.967 131.465 296.043 131.465 296.043C131.465 296.043 136.274 306.305 145.301 307.716C154.328 309.128 159.968 299.225 159.968 299.225C159.968 299.225 182.114 302.664 186.655 298.676C191.192 294.687 176.752 276.255 176.752 276.255L149.181 244.491L132.088 247.214Z" fill="#33A86D"/>
<path d="M150.586 282.85L152.516 332.921L142.432 332.226L145.436 282.155L150.586 282.85Z" fill="#4B3355"/>
<path d="M150.889 281.067L151.713 303.808L149.477 302.25L144.24 301.836L144.87 280.229L150.889 281.067Z" fill="#34283A"/>
<path d="M133.74 244.943C133.74 244.943 100.724 286.234 107.97 288.988C115.217 291.738 133.117 282.715 133.117 282.715C133.117 282.715 140.402 291.025 146.953 291.745C153.504 292.465 161.619 285.177 161.619 285.177C161.619 285.177 179.502 293.605 185.278 286.828C191.057 280.051 159.144 241.173 159.144 241.173L133.74 244.943Z" fill="#288453"/>
<path d="M162.844 242.717C162.844 242.717 149.21 224.974 143.858 212.498C143.858 212.498 136.306 229.609 133.183 234.713C130.061 239.818 123.927 247.526 126.139 248.677C128.35 249.828 135.204 243.476 135.204 243.476C135.204 243.476 140.026 247.822 143.135 248.5C146.244 249.178 148.914 246.709 148.914 246.709C148.914 246.709 156.007 250.576 158.939 250.127C161.87 249.679 162.844 242.717 162.844 242.717Z" fill="#FFFCF3"/>
<path d="M147.405 299.865L148.504 308.579L148.045 313.899L148.139 320.133L147.036 314.354L147.311 308.853L145.663 299.684L147.405 299.865Z" fill="#34283A"/>
<path d="M149.787 304.451L150.339 318.391L149.787 322.244L151.073 317.383L150.889 309.587L149.787 304.451Z" fill="#34283A"/>
<path d="M146.487 320.683L145.384 326.368L144.651 331.413L144.745 325.634L145.937 321.142L146.118 316.833L146.487 320.683Z" fill="#34283A"/>
<path d="M239.243 249.477C244.685 257.178 268.434 267.415 274.324 273.441C280.225 279.481 281.334 283.608 275.402 286.658C269.421 289.728 258.732 281.971 258.732 281.971C258.732 281.971 260.387 291.762 253.906 295.041C240.258 301.943 230.919 293.915 230.919 293.915C230.919 293.915 233.005 303.216 226.743 304.506C220.438 305.803 213.168 299.94 213.168 299.94C213.168 299.94 203.48 314.204 197.149 314.183C190.785 314.162 189.84 305.907 189.84 305.907C189.84 305.907 181.324 314.374 173.716 314.353C166.059 314.329 165.52 298.616 165.52 298.616C165.52 298.616 153.18 311.206 151.254 303.063C149.341 294.975 162.881 278.062 177.475 248.131C191.137 220.112 228.728 234.601 239.243 249.477Z" fill="#288453"/>
<path d="M207.469 258.785L203.022 319.055L219.844 322.143L213.662 255.326L207.469 258.785Z" fill="#665070"/>
<path d="M207.319 256.813L204.419 299.787L214.187 289.749L217.121 291.546L213.14 254.303L207.319 256.813Z" fill="#4B3355"/>
<path d="M246.972 252.064C246.972 252.064 281.504 277.318 276.608 279.411C271.681 281.518 252.706 269.971 252.706 269.971C252.706 269.971 253.343 286.724 242.97 288.514C232.49 290.323 224.235 278.692 224.235 278.692L214.524 277.2C214.524 277.2 203.943 298.532 199.68 298.48C192.732 298.397 195.629 287.169 195.629 287.169C195.629 287.169 184.074 301.157 175.764 301.06C167.401 300.963 170.041 286.31 170.041 286.31C170.041 286.31 160.673 297.844 154.011 297.614C147.314 297.381 164.95 268.799 179.269 242.254C192.068 218.53 221.339 232.459 246.972 252.064Z" fill="#33A86D"/>
<path d="M222.668 217.675C222.668 217.675 265.555 247.808 264.432 251.792C263.427 255.36 260.736 253.903 255.318 253.479C249.88 253.051 243.235 249.251 243.235 249.251C243.235 249.251 242.133 254.793 237.606 255.795C234.953 256.382 225.623 251.546 225.623 251.546C225.623 251.546 224.201 257.095 217.261 259.088C212.285 260.513 201.711 252.724 201.711 252.724C201.711 252.724 199.75 265.652 193.23 265.541C186.676 265.426 178.769 245.235 178.769 245.235L165.538 255.927C165.538 255.927 179.972 217.299 187.865 200.946C195.567 184.989 222.668 217.675 222.668 217.675Z" fill="#288453"/>
<path d="M185.643 239.385C185.643 239.385 188.685 257.832 182.965 260.975C177.2 264.143 178.883 253.68 178.883 253.68C178.883 253.68 170.507 263.701 168.424 260.919C166.345 258.141 170.83 252.32 170.83 252.32C170.83 252.32 163.288 259.866 166.946 250.954C170.611 242.024 171.578 241.093 171.578 241.093L185.643 239.385Z" fill="#288453"/>
<path d="M225.529 218.279C233.948 226.182 258.788 242.375 257.735 246.176C256.674 249.997 239.622 235.651 239.622 235.651C239.622 235.651 246.566 248.168 242.046 248.071C237.526 247.974 227.463 243.481 227.463 243.481C227.463 243.481 223.878 253.415 217.529 253.04C211.186 252.664 200.223 243.453 200.223 243.453C200.223 243.453 194.802 253.662 188.891 252.863C182.993 252.063 179.721 240.529 179.721 240.529C179.721 240.529 165.072 259.045 167.047 250.675C168.619 244.01 193.773 188.069 193.773 188.069C193.773 188.069 217.219 210.476 225.529 218.279Z" fill="#33A86D"/>
<path d="M194.037 182.795L231.315 217.792C231.315 217.792 229.17 219.19 225.067 219.162C220.95 219.131 216.638 213.669 216.638 213.669C216.638 213.669 219.051 219.872 214.51 220.508C209.952 221.148 205.452 212.938 205.452 212.938C205.452 212.938 198.741 223.304 193.112 222.82C187.461 222.334 188.842 215.504 188.842 215.504C183.087 222.167 172.346 235.529 172.52 229.719C172.694 223.944 187.201 198.028 194.037 182.795Z" fill="#F3E7D9"/>
<path d="M228.339 270.822C228.339 270.822 229.896 281.653 224.201 283.743C220.692 285.03 217.817 279.463 213.832 274.285C212.093 272.025 212.935 267.536 215.616 267.692L228.339 270.822Z" fill="#33A86D"/>
<path d="M207.845 294.978L205.72 300.962L205.588 308.035L204.367 317.099L206.996 310.816L207.173 302.478L209.082 294.588L207.845 294.978Z" fill="#4B3355"/>
<path d="M207.013 314.906L208.655 315.584L208.296 319.308L209.972 316.238L209.899 303.004L207.013 314.906Z" fill="#4B3355"/>
<path d="M211.92 288.219L209.489 290.694L211.69 309.127L213.175 302.854L211.92 288.219Z" fill="#4B3355"/>
<path d="M139.418 270.948C108.531 224.97 102.901 226.19 102.901 226.19C102.901 226.19 49.5272 293.07 55.4522 296.665C65.7237 302.896 81.9898 289.683 81.9898 289.683C81.9898 289.683 76.7081 302.521 82.9356 303.904C89.2049 305.295 104.946 300.605 104.946 300.605C104.946 300.605 110.749 309.868 118.702 311.61C126.723 313.366 135.1 290.625 135.1 290.625C135.1 290.625 146.275 302.708 156.669 295.931C159.868 292.941 147.002 282.235 139.418 270.948Z" fill="#288453"/>
<path d="M106.893 270.502L107.662 331.53L93.9408 328.477L102.453 265.913L106.893 270.502Z" fill="#665070"/>
<path d="M101.18 298.922L99.9947 306.895L100.645 314.643L100.694 322.004L101.542 316.426L100.885 306.245L101.18 298.922Z" fill="#4B3355"/>
<path d="M104.971 286.432L103.072 295.02L103.875 307.128L105.381 325.184L105.659 316.832L105.165 305.636L104.32 294.551L104.971 286.432Z" fill="#4B3355"/>
<path d="M102.421 311.329L103.099 325.185L105.506 330.133L104.184 322.483L102.421 311.329Z" fill="#4B3355"/>
<path d="M107.376 278.48L107.38 291.617L101.573 292.879L97.7934 299.854L101.716 273.89L107.376 278.48Z" fill="#4B3355"/>
<path d="M133.569 252.603C109.932 214.757 104.41 221.736 104.41 221.736C104.41 221.736 72.1802 263.893 66.6967 272.329C60.2674 282.214 57.6039 283.344 61.8078 285.768C66.0638 288.223 85.1847 277.207 85.1847 277.207C85.1847 277.207 88.6862 284.624 96.1377 286.053C103.645 287.496 108.954 280.949 108.954 280.949C108.954 280.949 119.535 290.702 126.173 289.968C132.787 289.238 132.45 279.095 132.45 279.095C132.45 279.095 149.828 287.204 155.667 287.492C161.515 287.785 139.331 261.828 133.569 252.603Z" fill="#33A86D"/>
<path d="M120.346 233.756L140.572 261.921C140.572 261.921 137.363 266.74 131.434 266.98C125.499 267.223 120.37 262.307 120.37 262.307C120.37 262.307 111.855 271.351 107.686 271.326C103.516 271.302 98.8536 262.839 98.8536 262.839C98.8536 262.839 89.6426 269.72 86.0646 269.118C82.4971 268.52 81.0332 260.433 81.0332 260.433C81.0332 260.433 74.5761 263.273 73.6512 260.679C72.7367 258.117 92.4765 234.709 95.7659 227.003C98.7041 220.112 113.006 226.478 120.346 233.756Z" fill="#288453"/>
<path d="M118.002 228.36C125.561 239.17 139.846 253.409 137.957 256.031C136.042 258.691 133.486 255.781 129.292 255.617C125.102 255.454 119.417 246.89 119.417 246.89C119.417 246.89 111.994 257.982 107.06 258.072C102.122 258.163 98.4814 246.865 98.4814 246.865C98.4814 246.865 89.1244 257.363 85.9428 256.205C82.7821 255.058 83.2689 247.822 83.2689 247.822C83.2689 247.822 79.4857 251.939 77.2986 251.08C75.1219 250.221 96.4438 223.294 96.4438 223.294C96.4438 223.294 110.909 218.214 118.002 228.36Z" fill="#33A86D"/>
<path d="M105.79 209.068L125.867 237.591L116.291 234.764C116.291 234.764 113.843 241.165 111.622 241.165C109.396 241.165 101.392 235.609 101.392 235.609C101.392 235.609 97.6156 241.277 94.9069 240.981C92.2051 240.686 90.2684 235.56 90.2684 235.56C90.2684 235.56 81.9684 240.352 84.8823 236.729C101.016 216.665 105.79 209.068 105.79 209.068Z" fill="#F3E7D9"/>
<path d="M2.87693 319.129C2.87693 319.129 17.3488 307.004 45.5137 313.652C73.6787 320.301 94.8024 333.601 129.616 330.864C164.429 328.128 200.81 321.869 224.67 312.87C248.531 303.874 272.394 305.439 282.565 308.569C292.736 311.698 282.944 310.784 273.312 312.432C263.681 314.08 249.313 320.304 243.836 323.041C243.836 323.041 260.426 319.282 260.266 321.086C260.106 322.888 207.977 348.535 176.554 349.849C137.13 351.501 102.835 345.106 64.499 331.417C35.0927 320.909 10.7005 317.171 2.87693 319.129Z" fill="#1D2538"/>
</svg>
