<svg width="287" height="330" viewBox="0 0 287 330" fill="none" xmlns="http://www.w3.org/2000/svg">
<path d="M152.876 22.5279C152.876 22.5279 136.461 -9.27594 101.579 2.69326C66.6976 14.6625 80.0347 49.5441 80.0347 49.5441C80.0347 49.5441 67.0396 42.3626 53.7025 50.2281C40.3654 58.0935 45.153 70.0627 45.153 70.0627C45.153 70.0627 36.6036 70.4047 31.8159 76.9023C27.0283 83.3998 30.79 92.2912 33.5258 93.6592C33.5258 93.6592 20.1887 101.525 20.5307 107.338C20.8727 113.152 66.6976 89.2135 85.8483 79.2961C104.999 69.3788 161.767 38.9428 168.949 35.1811C176.13 31.4193 164.503 30.7354 160.741 34.1551C156.98 37.5749 198.359 15.3464 185.364 14.6625C172.369 13.9785 152.876 22.5279 152.876 22.5279Z" fill="#F3E7D9"/>
<path d="M219.048 26.1187C219.048 26.1187 211.183 33.3002 215.971 32.6162C220.758 31.9323 253.246 15.5174 257.008 12.7816C260.77 10.0458 259.744 5.25807 255.982 4.57412C252.22 3.89017 244.013 8.33587 242.303 15.1754C242.303 15.1754 240.593 2.18028 231.018 2.52226C221.442 2.86424 218.022 18.2532 219.048 26.1187Z" fill="#F3E7D9"/>
<path d="M60.7607 312.381C60.7607 312.381 53.1859 311.3 45.6077 311.3C38.0295 311.3 35.3244 316.71 38.5732 316.71C38.5732 316.71 15.8454 320.499 27.2093 322.664C38.5732 324.825 73.749 322.12 60.7607 312.381Z" fill="#33A86D"/>
<path d="M186.403 298.838C188.595 296.738 180.853 296.461 171.274 296.892C159.117 297.439 161.606 300.117 161.606 300.117C161.606 300.117 155.027 299.782 151.672 301.844C149.624 303.103 152.746 303.906 162.147 304.46C171.544 305.014 174.499 301.858 174.499 301.858C174.499 301.858 184.208 300.938 186.403 298.838Z" fill="#33A86D"/>
<path d="M82.2299 299.878C84.422 298.028 76.6796 296.869 67.1009 296.212C54.9436 295.378 57.4332 298.339 57.4332 298.339C57.4332 298.339 50.8535 297.255 47.4987 298.938C45.4503 299.964 48.5725 301.123 57.9735 302.744C67.3744 304.365 70.3257 301.547 70.3257 301.547C70.3257 301.547 80.0379 301.728 82.2299 299.878Z" fill="#33A86D"/>
<path d="M105.406 308.598C105.406 308.598 95.0405 308.424 86.1935 309.809C77.3466 311.194 80.3183 314.166 82.6746 314.166C85.0308 314.166 47.4372 324.928 58.0522 327.694C68.6672 330.461 84.4563 329.206 128.13 327.113C150.858 326.026 162.222 320.67 152.482 318.765C143.755 317.059 121.284 314.918 121.284 314.918C127.778 310.418 105.406 308.598 105.406 308.598Z" fill="#33A86D"/>
<path d="M56.7493 312.371C56.7493 312.371 56.0585 307.987 57.4401 307.987C58.8217 307.987 58.5926 310.757 58.5926 310.757C58.5926 310.757 61.3626 306.602 61.3626 308.219C61.3626 309.833 59.9776 311.218 59.9776 311.218C59.9776 311.218 57.4435 313.988 56.7493 312.371Z" fill="#288453"/>
<path d="M73.8003 320.921C73.8003 320.921 75.2263 315.083 73.8003 314.823C72.3742 314.563 72.1143 318.065 72.1143 318.455C72.1143 318.845 71.9844 312.617 70.9482 312.487C69.912 312.357 69.3922 314.823 69.3922 314.823C69.3922 314.823 68.4825 313.007 67.3164 314.433C66.1502 315.859 67.4463 316.899 67.4463 316.899C67.4463 316.899 66.1502 316.639 65.3705 318.195C64.5908 319.751 69.0023 321.437 69.0023 321.437L67.3164 322.473C67.3164 322.48 71.5945 322.61 73.8003 320.921Z" fill="#33A86D"/>
<path d="M167.885 318.557C167.885 318.557 166.705 317.575 167.297 316.197C167.885 314.822 169.065 316.392 169.065 316.392C169.065 316.392 170.046 312.264 171.424 313.246C172.799 314.227 171.619 315.999 171.619 315.999C171.619 315.999 175.159 310.1 176.732 312.658C178.305 315.212 174.571 317.377 174.571 317.377C174.571 317.377 177.323 319.343 176.144 319.343C174.964 319.343 167.297 320.325 166.117 319.932C164.937 319.542 167.885 318.557 167.885 318.557Z" fill="#288453"/>
<path d="M94.3121 317.972C86.0705 316.283 78.8137 318.916 83.0371 320.185C83.0371 320.185 66.1401 321.946 71.3039 323.847C76.4678 325.749 99.4657 325.256 105.307 324.692C111.148 324.128 113.025 323.564 115.737 321.59C118.449 319.617 102.554 319.662 94.3121 317.972Z" fill="#288453"/>
<path d="M84.8631 325.762C84.8631 325.762 84.2373 322.527 85.1777 323.259C86.1148 323.991 86.426 326.703 84.8631 325.762Z" fill="#33A86D"/>
<path d="M100.509 325.373C100.509 325.373 99.8829 322.138 100.823 322.869C101.76 323.598 102.072 326.31 100.509 325.373Z" fill="#33A86D"/>
<path d="M83.1943 325.345C83.1943 325.345 82.5685 322.11 83.5089 322.842C84.446 323.573 84.7572 326.285 83.1943 325.345Z" fill="#33A86D"/>
<path d="M50.9802 315.647C50.9802 315.647 47.8955 312.843 49.578 312.142C51.2606 311.441 51.1204 313.544 51.1204 313.544C51.1204 313.544 51.4008 308.637 52.8029 309.338C54.205 310.039 53.2235 312.282 53.2235 312.282C53.2235 312.282 54.205 309.758 54.4854 311.441C54.7658 313.123 52.9431 316.208 50.9802 315.647Z" fill="#288453"/>
<path d="M95.0919 272.274V142.931C95.0919 142.931 95.0919 140.459 97.5644 138.339C100.037 136.218 103.217 133.394 103.217 133.394V101.227C103.217 100.02 104.106 98.9943 105.3 98.8233L110.635 98.0607V48.2825C110.635 46.8564 111.743 45.6766 113.165 45.5843L122.296 44.9995L125.124 47.8858C125.124 47.8858 208.509 45.0576 211.689 45.0576C214.869 45.0576 254.795 64.4888 258.328 66.2568C261.86 68.0248 259.74 69.085 260.096 72.9698C260.448 76.8547 260.448 160.242 260.448 160.242V270.509L95.0919 272.274Z" fill="#F7BC4B"/>
<path d="M125.124 47.8858L133.899 57.338L131.789 140.158L138.687 162.075L138.28 173.846L138.195 177.204L137.877 211.997L199.566 213.618L200.783 133.26L201.994 44.5515L125.124 47.8858Z" fill="#F5894E"/>
<path d="M205.472 50.981V160.557L233.302 161.481L235.679 128.353L225.611 118.429V54.0417C225.611 54.0417 222.447 42.3359 218.207 41.2757C215.687 40.6465 212.339 46.8192 209.189 47.0175C207.096 47.1509 205.472 48.8881 205.472 50.981Z" fill="#CE9436"/>
<path d="M199.898 48.6074C199.898 53.1591 199.898 167.557 199.898 167.557H231.144V137.173L217.366 129.047C217.366 129.047 217.366 55.6761 217.366 51.6681C217.366 47.6601 214.363 44.9551 212.756 44.9551C211.149 44.9551 204.617 45.0508 202.568 45.0508C200.517 45.0508 199.898 47.4173 199.898 48.6074Z" fill="#CC6D3D"/>
<path d="M201.994 44.5517C201.994 49.1034 201.994 158.748 201.994 158.748H233.24V128.363L219.462 120.238C219.462 120.238 219.462 51.6204 219.462 47.6124C219.462 43.6045 218.884 40.8994 217.277 40.8994C215.67 40.8994 206.717 40.9952 204.665 40.9952C202.613 40.9952 201.994 43.3651 201.994 44.5517Z" fill="#F7BC4B"/>
<path d="M129.362 52.4822V140.811L137.135 145.404V172.612L133.25 177.205L135.37 181.089V225.256L138.903 223.491L140.315 181.089L138.195 177.205L140.315 174.732V139.751L136.724 134.717L133.9 57.3383L129.362 52.4822Z" fill="#CC6D3D"/>
<path d="M163.692 58.5009V62.7687C163.692 63.2099 164.052 63.5587 164.493 63.5484L189.792 62.8269C190.309 62.8132 190.692 62.3173 190.572 61.818L189.556 57.5809C189.471 57.2219 189.149 56.9756 188.776 56.9859L164.493 57.6801C164.052 57.687 163.692 58.0563 163.692 58.5009Z" fill="#FEED7F"/>
<path d="M188.643 71.5231L175.364 71.9027C174.786 71.9198 174.314 71.4616 174.314 70.8836V67.9495C174.314 67.3715 174.783 66.8893 175.364 66.8722L188.643 66.4927C189.221 66.4756 189.693 66.9304 189.693 67.5117V70.4459C189.693 71.0239 189.225 71.506 188.643 71.5231Z" fill="#FEED7F"/>
<path d="M158.173 111.251L142.938 111.685C142.206 111.706 141.611 111.128 141.611 110.396V107.181C141.611 106.449 142.206 105.837 142.938 105.817L158.173 105.382C158.905 105.362 159.5 105.94 159.5 106.672V109.886C159.5 110.618 158.905 111.23 158.173 111.251Z" fill="#FEED7F"/>
<path d="M175.087 109.65L169.917 109.798C169.414 109.811 169.007 109.418 169.007 108.915V106.539C169.007 106.036 169.414 105.619 169.917 105.605L175.087 105.458C175.59 105.444 175.997 105.837 175.997 106.34V108.717C175.993 109.216 175.586 109.637 175.087 109.65Z" fill="#FEED7F"/>
<path d="M164.462 122.532L146.152 123.056C145.496 123.073 144.966 122.556 144.966 121.9V119.243C144.966 118.586 145.499 118.039 146.152 118.022L164.462 117.498C165.118 117.481 165.649 117.998 165.649 118.654V121.312C165.652 121.965 165.118 122.512 164.462 122.532Z" fill="#FEED7F"/>
<path d="M176.831 155.893H162.574V161.203H176.831V155.893Z" fill="#FEED7F"/>
<path d="M215.44 44.9106L212.243 49.2777L214.91 56.3395L214.438 72.4569L216.791 80.7875L217.106 58.877L216.634 53.0839L218.204 51.0936C218.207 51.0902 216.853 45.0919 215.44 44.9106Z" fill="#FEED7F"/>
<path d="M117.987 82.3708L123.018 94.9488L119.663 104.175L120.504 120.949V131.01L117.987 129.335L116.729 118.432L118.404 96.6279L117.987 82.3708Z" fill="#CC6D3D"/>
<path d="M103.59 120.108L102.752 135.623L105.686 142.754L105.266 175.46L106.524 179.653L108.621 142.333L104.849 133.948L103.59 120.108Z" fill="#CE9436"/>
<path d="M129.868 108.368L118.127 129.8L129.31 143.034L128.192 156.45L138.814 172.106L137.135 145.404L130.428 134.228L129.868 108.368Z" fill="#CC6D3D"/>
<path d="M231.065 53.0156L230.508 78.7357L240.012 102.219V123.466L261.259 157.572L260.503 68.5756C260.496 67.6933 259.986 66.8931 259.193 66.5135L231.065 53.0156Z" fill="#CE9436"/>
<path d="M132.525 80.1343L141.331 83.9063L148.04 80.5515L167.328 80.9721L148.04 82.6478L140.489 87.6817L131.266 83.0684L132.525 80.1343Z" fill="#CC6D3D"/>
<path d="M200.876 104.873L204.648 112.003L200.876 116.616V104.873Z" fill="#CC6D3D"/>
<path d="M108.771 184.861L120.002 185.271L126.075 192.73L129.16 214.945L124.68 241.557L112.413 251.297L105.491 230.446L108.771 184.861Z" fill="#4B3355"/>
<path d="M126.075 192.73L118.829 202.151L120.754 214.914L125.545 228.617L129.16 214.945L126.075 192.73Z" fill="#665070"/>
<path d="M286.5 170.491C286.5 170.491 279.079 151.764 277.314 149.292C275.55 146.819 274.486 145.759 266.713 145.407C258.94 145.055 250.107 142.579 250.107 142.579L233.863 150.3L231.736 157.065L238.449 280.375L257.9 289.119L278.45 289.379L282.611 283.555C282.611 283.555 281.551 207.592 281.551 202.643C281.551 197.695 284.024 196.638 285.436 195.578C286.852 194.515 286.5 170.491 286.5 170.491Z" fill="#273252"/>
<path d="M238.613 149.183L248.397 146.666L261.536 152.815C261.536 152.815 266.009 155.332 268.803 154.49C271.597 153.649 276.07 151.973 276.07 151.973L279.144 157.565L283.898 171.541L283.617 188.873L277.188 188.035L270.198 206.765L262.51 185.798L266.703 172.379L259.853 155.886L247.833 149.457L238.613 149.183Z" fill="#3E4C6F"/>
<path d="M48.2854 209.005L56.7664 201.232V169.431L57.2794 159.412C57.3991 157.093 58.767 155.021 60.8531 153.998L89.2714 140.104C89.2714 140.104 99.517 141.872 104.465 145.049C109.41 148.229 111.886 153.53 111.886 153.53L113.299 169.428V193.808C113.299 193.808 114.359 194.868 111.886 196.988C109.414 199.108 109.058 200.168 109.058 200.168C109.058 200.168 108.35 201.936 108.706 203.701C109.058 205.469 108.706 265.534 108.706 265.534L93.5119 287.096H54.6462L50.0534 269.422L48.2854 209.005Z" fill="#3E4C6F"/>
<path d="M48.2854 209.005L56.7664 201.232V169.431L57.146 162.045C57.3478 158.098 59.6767 154.573 63.2264 152.839L64.5669 152.182L89.2714 140.104L80.9066 158.878L85.7182 176.114C85.4104 177.882 85.9166 179.698 87.0998 181.048L88.8986 183.104C90.9949 185.501 91.7131 186.746 94.1958 184.752L113.299 169.425L112.816 180.765L104.848 187.474L102.331 205.086C102.331 205.086 100.3 233.511 100.656 235.279C100.789 235.949 93.1083 231.924 93.1083 231.924L85.1403 265.53L93.5119 287.092H54.6462L50.0534 269.419L48.2854 209.005Z" fill="#273252"/>
<path d="M78.9879 178.723L73.9575 187.108L83.1806 189.204L87.3766 190.046L84.0218 179.561L78.9879 178.723Z" fill="#3E4C6F"/>
<path d="M67.9421 164.38L75.2159 160.471L79.5488 161.391C80.284 161.442 82.5753 173.996 82.0657 174.53L78.3416 173.692L74.0771 171.452C74.0156 172.16 73.0136 172.239 72.8426 171.551L69.2997 178.124L65.4456 178.418L60.528 168.391L67.9421 164.38Z" fill="#48598B"/>
<path d="M62.2141 157.849L70.6028 159.805L78.1503 155.055L88.2147 141.075L70.042 150.021L60.5385 156.45L62.2141 157.849Z" fill="#48598B"/>
<path d="M264.052 187.761L262.657 201.461L268.245 213.481L269.459 226.34L271.88 235.843L267.407 226.34L266.289 214.6L260.14 201.18L262.517 185.805L264.052 187.761Z" fill="#3E4C6F"/>
<path d="M268.806 226.76L276.353 230.252L279.428 240.597L279.708 245.35L278.59 240.316L275.235 231.931L269.644 229.694L268.806 226.76Z" fill="#3E4C6F"/>
<path d="M238.647 156.661C237.737 155.752 238.951 151.515 240.767 154.945C242.579 158.375 239.553 157.568 238.647 156.661Z" fill="#288453"/>
<path d="M235.377 155.608C234.064 154.9 234.57 151.118 235.983 152.178C236.79 152.783 238.332 153.488 237.193 155.307C236.691 156.114 236.691 156.316 235.377 155.608Z" fill="#288453"/>
<path d="M236.02 152.12C234.608 151.111 234.608 145.256 236.827 146.871C239.05 148.485 237.433 153.129 236.02 152.12Z" fill="#288453"/>
<path d="M238.647 153.33C238.647 153.33 239.656 149.093 240.665 151.313C241.673 153.532 238.647 153.33 238.647 153.33Z" fill="#288453"/>
<path d="M234.704 161.234C234.704 161.234 235.316 157.28 233.606 158.676C231.896 160.071 232.751 162.396 234.704 161.234Z" fill="#288453"/>
<path d="M234.071 152.045C233.445 151.333 231.096 150.684 232.659 153.255C234.437 156.183 234.693 152.756 234.071 152.045Z" fill="#288453"/>
<path d="M235.213 159.487C235.213 159.487 239.652 162.715 238.643 160.294C237.634 157.873 235.415 157.671 235.213 159.487Z" fill="#288453"/>
<path d="M235.012 151.717C235.012 151.717 234.406 145.458 233.599 147.48C232.792 149.501 233.801 152.12 235.012 151.717Z" fill="#288453"/>
<path d="M230.894 153.238C229.465 152.66 227.789 154.104 231.034 155.201C234.276 156.296 232.324 153.816 230.894 153.238Z" fill="#288453"/>
<path d="M25.838 293.449C24.0699 292.741 20.5373 283.908 22.6576 281.791C24.7778 279.671 26.1902 280.023 24.4256 274.37C22.6576 268.718 23.0132 238.685 23.0132 226.319C23.0132 213.953 23.0132 203 25.1335 198.055C27.2537 193.11 25.1335 188.161 26.5458 185.689C27.9582 183.216 31.8465 181.448 31.8465 181.448C31.8465 181.448 32.9066 169.79 33.6145 168.022C34.3224 166.254 41.7399 163.43 44.568 163.43C47.3962 163.43 47.3962 164.842 51.9889 169.79C56.5817 174.735 60.1143 177.564 61.1744 179.332C62.2346 181.1 61.8823 183.22 62.9425 185.692C64.0026 188.165 70.0077 211.84 71.0678 214.312C72.128 216.785 72.128 216.08 72.4802 222.086C72.8324 228.091 73.5403 248.585 73.8926 250.35C74.2448 252.118 73.8926 253.53 76.7207 255.295C79.5489 257.063 79.5489 260.24 80.2533 262.008C80.9612 263.776 80.9612 270.489 80.9612 273.666C80.9612 276.843 80.2533 289.92 80.609 292.04C80.9612 294.161 82.7293 296.633 78.1365 297.341C73.5438 298.049 64.3582 298.401 60.1177 298.753C55.8772 299.106 54.8171 297.341 54.8171 297.341C54.8171 297.341 43.5113 296.633 38.5629 296.633C33.6145 296.633 31.8499 297.693 31.142 296.281C30.4307 294.862 27.606 294.154 25.838 293.449Z" fill="#856792"/>
<path d="M52.1531 294.923L52.3378 288.586L44.5099 279.267L46.001 266.036L39.4795 261.19L37.8038 252.432L32.5852 244.42C32.5852 244.42 37.0583 229.697 36.8702 228.579C36.6855 227.461 43.9525 224.667 43.9525 224.667L52.3378 234.731L50.474 244.796L52.3378 254.672L64.4506 288.593L60.1657 288.22L58.3019 296.978L52.1531 294.923Z" fill="#665070"/>
<path d="M37.9884 182.169L40.7823 181.424C40.7823 181.424 47.8168 185.804 47.8168 189.997C47.8168 194.19 45.2999 199.224 45.2999 199.224C45.2999 199.224 44.462 206.771 46.1377 211.384C47.8134 215.998 54.523 226.479 54.523 226.479L62.9083 230.672C62.9083 230.672 63.3289 237.381 64.1667 238.64C64.9533 239.82 64.6318 245.025 64.6318 245.025C64.6318 245.025 66.7281 248.239 66.8684 246.283C67.0086 244.327 69.6179 243.253 69.6179 243.253L67.1009 236.964L67.5215 228.996L56.1987 223.966L48.6512 210.967L48.2306 201.323L50.7476 190C50.7476 190 47.4851 182.826 44.6911 180.87C43.4976 180.032 35.9331 181.242 35.9331 181.242L37.9884 182.169Z" fill="#BB83C3"/>
<path d="M65.4321 239.057L64.1736 242.552L65.4321 267.992C65.4321 267.992 67.0633 261.375 67.9012 254.665C68.739 247.959 65.4321 239.057 65.4321 239.057Z" fill="#BB83C3"/>
<path d="M24.1965 283.368C24.1965 283.368 27.5513 287.003 29.5074 287.003C31.4635 287.003 33.9805 282.81 33.9805 282.81C33.9805 282.81 40.1292 282.53 41.2475 282.53C42.3658 282.53 46.8388 286.722 46.8388 286.722L51.3119 289.239L48.7949 289.52L45.4401 287.844L40.6867 284.489L34.8149 284.77L30.0614 289.523L25.308 285.888L24.1965 283.368Z" fill="#BB83C3"/>
<path d="M32.8622 285.604L30.0683 291.476L31.1387 296.274L28.1088 293.151L27.5513 288.121H29.5074L32.8622 285.604Z" fill="#BB83C3"/>
<path d="M44.4655 167.352L41.528 171.456L43.2071 176.469L47.8203 181.028L48.6582 188.319L50.3339 181.483L46.9791 177.382L44.0449 172.369L44.4655 167.352Z" fill="#BB83C3"/>
<path d="M27.2709 196.286C27.2709 196.286 25.1746 211.802 25.5952 215.994C26.0159 220.187 28.95 223.962 28.95 226.476C28.95 228.989 28.5294 238.216 25.1746 244.088C21.8198 249.959 23.4989 229.831 23.4989 229.831L22.6611 211.798C22.6576 211.802 22.6577 196.707 27.2709 196.286Z" fill="#BB83C3"/>
<path d="M30.3452 238.5C26.8502 246.188 25.4515 246.468 27.5513 250.661C29.6476 254.853 33.9804 265.058 33.9804 265.058C33.9804 265.058 41.5279 275.122 43.207 275.54C44.8826 275.96 42.7863 265.896 42.7863 265.896L39.4315 267.154L37.3352 265.479L32.7219 249.963L30.205 246.188L33.1392 235.286L32.5817 224.383L30.4854 228.159L30.3452 238.5Z" fill="#BB83C3"/>
<path d="M36.4974 197.545L34.4011 204.675L36.4974 213.899V219.77L38.1731 213.481L36.4974 204.675L38.1731 194.19L36.4974 197.545Z" fill="#665070"/>
<path d="M36.4976 210.543L40.6902 211.802L46.1413 211.385L41.528 214.736L36.4976 213.898V210.543Z" fill="#665070"/>
<path d="M38.1732 194.19L32.7221 192.515L30.2086 188.739L26.8538 189.577L28.5294 191.673L31.4636 194.611L38.1732 194.19Z" fill="#665070"/>
<path d="M34.7157 227.245C35.4612 228.364 38.0705 228.921 38.6279 226.965C39.1853 225.009 36.9522 224.171 36.9522 224.171C36.9522 224.171 33.9701 226.127 34.7157 227.245Z" fill="#288453"/>
<path d="M35.1808 218.953C35.1808 218.953 34.6234 224.544 37.6977 222.588C40.7721 220.632 37.4173 217.835 35.1808 218.953Z" fill="#33A86D"/>
<path d="M40.7721 225.105C40.7721 225.105 41.3295 229.017 42.7282 226.503C44.1269 223.986 43.0086 222.588 40.7721 225.105Z" fill="#33A86D"/>
<path d="M37.6978 230.416C37.6978 230.416 40.2147 224.544 40.4917 227.341C40.7721 230.135 37.6978 230.416 37.6978 230.416Z" fill="#33A86D"/>
<path d="M128.544 214.572C128.544 214.572 128.171 207.086 130.414 210.455C132.658 213.823 130.787 215.697 130.787 215.697C130.787 215.697 133.034 210.455 135.281 214.948C137.528 219.442 131.912 220.191 131.912 220.191C131.912 220.191 124.426 220.564 124.426 214.948C124.426 209.333 128.544 214.572 128.544 214.572Z" fill="#33A86D"/>
<path d="M56.8039 162.772C56.8039 162.772 52.601 158.289 52.601 160.252C52.601 162.215 55.4018 164.455 55.4018 164.455C55.4018 164.455 51.7598 164.174 52.3206 166.137C52.8815 168.1 55.6822 166.979 55.6822 166.979C55.6822 166.979 58.483 172.303 59.8851 166.979C61.2872 161.654 58.2026 153.806 56.8039 162.772Z" fill="#33A86D"/>
<path d="M68.9681 176.287C68.3217 174.136 72.7127 169.55 72.7127 172.543C72.7127 175.538 70.0898 180.032 68.9681 176.287Z" fill="#33A86D"/>
<path d="M66.67 182.146C66.67 182.146 69.6452 177.683 70.3907 180.409C71.1362 183.134 67.4121 186.855 66.67 182.146Z" fill="#33A86D"/>
<path d="M68.592 194.255C68.592 194.255 64.4746 187.142 68.592 187.891C72.7128 188.64 71.2149 197.627 68.592 194.255Z" fill="#33A86D"/>
<path d="M72.7127 193.882C72.7127 193.882 78.328 188.267 77.9552 191.635C77.579 195.004 74.5833 197.251 72.7127 193.882Z" fill="#33A86D"/>
<path d="M66.3484 196.129C66.3484 196.129 60.7331 195.756 63.3527 197.25C65.9722 198.748 70.0896 199.124 66.3484 196.129Z" fill="#33A86D"/>
<path d="M64.1017 191.636C64.1017 191.636 58.8592 190.514 61.8549 192.385C64.8506 194.255 64.1017 191.636 64.1017 191.636Z" fill="#33A86D"/>
<path d="M73.0854 202.866C73.0854 202.866 73.8344 196.129 76.4539 198C79.0769 199.874 77.579 203.991 73.0854 202.866Z" fill="#33A86D"/>
<path d="M70.8386 206.984C70.8386 206.984 66.7212 200.619 70.4658 202.866C74.207 205.113 74.956 206.984 70.8386 206.984Z" fill="#33A86D"/>
<path d="M71.9638 211.477C71.9638 211.477 74.2106 204.364 76.0812 209.23C77.9518 214.097 72.7127 214.473 71.9638 211.477Z" fill="#33A86D"/>
<path d="M73.4618 217.842C73.4618 217.842 67.0976 211.85 69.3444 215.222C71.5877 218.591 73.4618 217.842 73.4618 217.842Z" fill="#33A86D"/>
<path d="M78.3279 214.473C78.3279 214.473 73.0854 218.218 77.579 217.093C82.0692 215.971 80.9475 214.846 78.3279 214.473Z" fill="#33A86D"/>
<path d="M68.7799 210.54C68.7799 210.54 65.4115 213.909 68.5919 212.975C71.7722 212.041 72.5246 209.606 68.7799 210.54Z" fill="#33A86D"/>
<path d="M71.2149 219.9C71.2149 219.9 69.5289 225.328 73.6497 223.457C77.7637 221.586 77.0182 217.093 71.2149 219.9Z" fill="#33A86D"/>
<path d="M77.579 223.084C77.579 223.084 80.0139 219.903 81.6964 221.586C83.3789 223.268 72.7127 227.389 77.579 223.084Z" fill="#33A86D"/>
<path d="M72.3364 225.143C72.3364 225.143 64.2863 228.139 70.4658 227.202C76.6419 226.265 75.3321 226.077 72.3364 225.143Z" fill="#33A86D"/>
<path d="M74.207 228.139C74.207 228.139 75.893 230.758 78.3244 229.076C80.7559 227.393 78.8887 227.763 74.207 228.139Z" fill="#33A86D"/>
<path d="M80.9475 224.955C80.9475 224.955 87.1236 224.955 83.3824 225.892C79.6411 226.829 77.7637 226.452 80.9475 224.955Z" fill="#33A86D"/>
<path d="M71.3996 229.633C71.3996 229.633 68.5919 233.377 73.8344 231.319C79.0769 229.26 71.3996 229.633 71.3996 229.633Z" fill="#33A86D"/>
<path d="M79.2614 230.382C79.2614 230.382 75.893 234.499 81.3201 232.44C86.7507 230.382 84.8767 229.072 79.2614 230.382Z" fill="#33A86D"/>
<path d="M73.0855 233.754C73.0855 233.754 72.8975 236 75.8932 234.691C78.8889 233.378 77.9519 232.817 73.0855 233.754Z" fill="#33A86D"/>
<path d="M73.6463 237.495C73.6463 237.495 70.2778 239.365 74.5833 239.181C78.8888 238.992 73.6463 237.495 73.6463 237.495Z" fill="#33A86D"/>
<path d="M65.9723 201.184C65.9723 201.184 58.8592 199.874 62.6038 201.745C66.3485 203.616 66.7212 202.118 65.9723 201.184Z" fill="#33A86D"/>
<path d="M70.2778 198.936C70.2778 198.936 64.1017 197.999 67.4702 199.685C70.8386 201.368 71.9637 200.434 70.2778 198.936Z" fill="#33A86D"/>
<path d="M77.0183 204.925C77.0183 204.925 83.1944 201.745 80.9476 204.364C78.7008 206.984 72.1485 209.231 77.0183 204.925Z" fill="#33A86D"/>
<path d="M57.7376 171.921C57.7376 171.921 50.5014 170.423 53.4937 172.42C56.486 174.417 60.4837 174.417 57.7376 171.921Z" fill="#33A86D"/>
<path d="M57.9871 175.416C57.9871 175.416 54.2425 180.658 59.485 178.661C64.7275 176.664 61.4821 174.417 57.9871 175.416Z" fill="#33A86D"/>
<path d="M57.7375 171.921C57.7375 171.921 63.9752 170.423 60.4836 172.919C56.9886 175.416 57.7375 171.921 57.7375 171.921Z" fill="#33A86D"/>
<path d="M61.7283 166.179C61.7283 166.179 57.2347 172.666 62.7269 169.175C68.219 165.683 65.9722 162.937 61.7283 166.179Z" fill="#33A86D"/>
<path d="M65.2233 170.173C65.2233 170.173 68.7183 171.421 64.724 172.669C60.7332 173.917 61.978 173.169 65.2233 170.173Z" fill="#33A86D"/>
<path d="M64.4744 174.667C64.4744 174.667 60.7298 178.162 65.2233 176.664C69.7169 175.166 68.7183 174.168 64.4744 174.667Z" fill="#33A86D"/>
<path d="M61.978 181.654C61.978 181.654 54.9914 182.153 60.2305 183.651C65.4696 185.149 64.4744 182.652 61.978 181.654Z" fill="#33A86D"/>
<path d="M62.7271 179.157C62.7271 179.157 67.4703 175.163 66.2221 178.159C64.9739 181.154 61.2326 181.404 62.7271 179.157Z" fill="#33A86D"/>
<path d="M66.9812 178.616C66.9812 178.616 72.9726 177.119 68.9783 179.116C64.984 181.113 66.9812 178.616 66.9812 178.616Z" fill="#33A86D"/>
<path d="M60.7332 185.897C60.7332 185.897 52.7481 186.646 57.7375 187.645C62.727 188.64 62.2277 186.896 60.7332 185.897Z" fill="#33A86D"/>
<path d="M56.7391 183.151C56.7391 183.151 51.4966 183.151 53.993 184.4C56.4894 185.648 59.4851 185.648 56.7391 183.151Z" fill="#33A86D"/>
<path d="M195.1 211.617L134.99 212.222C133.814 212.222 131.17 211.477 131.17 214.972C131.17 218.467 131.194 220.307 131.194 220.307L195.808 220.098L195.1 211.617Z" fill="#4B3355"/>
<path d="M118.545 232.601C118.545 232.601 118.175 232.043 118.056 228.504C117.915 224.38 117.563 222.95 119.174 222.143C121.13 221.165 126.092 220.885 126.092 220.885L190.934 219.247L191.215 224.472V233.305L118.545 232.601Z" fill="#4B3355"/>
<path d="M117.973 223.415C117.973 223.415 117.645 222.105 119.386 221.647C123.527 220.56 125.859 219.814 131.263 219.63C136.666 219.445 191.211 219.527 191.211 219.527V224.472L117.973 223.415Z" fill="#FEED7F"/>
<path d="M118.825 232.56C118.825 232.56 118.685 232.676 114.4 233.886C110.115 235.097 109.602 236.386 109.602 237.799C109.602 239.211 113.377 238.917 113.377 238.917L190.51 240.035V233.028L118.825 232.56Z" fill="#FEED7F"/>
<path d="M110.857 246.102C108.993 246.102 107.783 247.213 104.52 248.889C102.058 250.158 100.235 250.753 99.8624 252.801C99.4178 255.24 191.215 260.585 191.215 260.585V246.81C191.215 246.81 112.721 246.102 110.857 246.102Z" fill="#FFACFF"/>
<path d="M103.029 250.569C101.282 251.01 100.546 250.716 99.9547 251.711C99.4794 252.508 99.3015 254.07 99.3015 254.857C99.3015 256.625 99.2468 260.592 99.2468 260.592H191.211L189.874 251.69C189.874 251.69 153.149 251.201 127.443 250.873L125.74 251.786C125.74 251.786 123.797 250.828 123.154 250.818C112.05 250.668 103.795 250.374 103.029 250.569Z" fill="#4B3355"/>
<path d="M193.349 265.003L91.012 265.568C90.6871 265.568 90.4545 263.611 91.7472 263.112L99.1852 260.616C99.2262 260.595 99.2741 260.585 99.322 260.585H195.934C196.18 260.585 196.327 260.862 196.187 261.067L193.602 264.867C193.544 264.955 193.451 265.003 193.349 265.003Z" fill="#FFACFF"/>
<path d="M89.285 271.162C89.285 271.162 88.8643 269.299 89.0524 267.483C89.2371 265.667 90.9162 264.08 90.9162 264.08C90.9162 263.468 91.6993 263.707 92.3149 263.707L190.774 263.803C191.386 263.803 191.885 264.299 191.885 264.914V270.612C191.885 271.224 191.389 271.72 190.777 271.723L91.3437 271.928C90.7281 271.928 89.285 271.774 89.285 271.162Z" fill="#665070"/>
<path d="M90.4171 271.135L79.1079 275.728L175.296 278.337L196.868 275.728L193.605 271.627L90.4171 271.135Z" fill="#FFACFF"/>
<path d="M79.108 275.707C79.108 275.707 77.87 280.946 77.6819 282.249C77.4973 283.552 79.108 285.142 79.108 285.142H194.04L197.924 275.355L179.068 276.1C179.068 276.1 175.747 277.219 174.875 277.219C171.661 277.219 168.025 275.444 168.025 275.444L79.108 275.707Z" fill="#665070"/>
<path d="M78.3658 285.238L72.4462 286.787C69.8232 287.474 68.7391 287.55 68.7391 290.262L67.9936 292.871C67.9936 296.164 66.9369 298.835 70.2301 298.835H189.843C193.137 298.835 195.808 296.164 195.808 292.871V291.004C195.808 287.71 193.137 285.04 189.843 285.04H79.8773C79.3678 285.046 78.8616 285.111 78.3658 285.238Z" fill="#665070"/>
<path d="M79.0155 285.07L70.2745 287.358C69.5735 287.543 69.5256 288.521 70.2061 288.774L75.0896 290.576C75.2024 290.617 80.3594 288.418 80.4791 288.401L92.7253 288.408C92.7629 288.405 92.8006 288.401 92.8382 288.401L152.383 289.79C152.636 289.796 152.872 289.93 153.002 290.149C153.289 290.627 153.98 290.631 154.271 290.156L154.531 289.731C154.664 289.513 154.904 289.379 155.163 289.379H192.716C193.222 289.379 193.581 288.883 193.42 288.401L192.658 286.11C192.559 285.809 192.275 285.604 191.957 285.604L79.207 285.046C79.142 285.046 79.077 285.053 79.0155 285.07Z" fill="#FFACFF"/>
<path d="M135.459 211.245C135.459 211.245 130.428 212.595 131.547 213.016C132.665 213.437 144.128 213.201 148.461 213.481C152.794 213.762 191.793 213.201 191.793 213.201C191.793 213.201 193.284 211.245 188.113 211.385C182.936 211.522 135.459 211.245 135.459 211.245Z" fill="#FEED7F"/>
<path d="M119.338 223.265L121.202 223.822L122.132 224.66L128.469 223.73L129.96 224.103L132.197 222.984L119.338 223.265Z" fill="#FEED7F"/>
<path d="M182.139 237.016L180.189 238.64L178.955 237.037L177.867 237.043L177.392 237.898L175.197 237.061L145.523 237.242L143.417 237.881L141.05 238.22L136.297 236.708L110.949 236.589C110.949 236.589 109.598 236.387 109.598 237.799C109.598 239.212 109.086 245.719 110.484 246.557C111.883 247.395 190.507 247.511 190.507 247.511V236.961L182.139 237.016Z" fill="#4B3355"/>
<path d="M128.469 248.981L131.335 252.23C131.335 252.23 136.109 251.905 137.541 252.23C138.519 252.453 152.417 252.613 152.417 252.613L156.162 253.041L160.43 251.122L154.014 249.628L128.469 248.981Z" fill="#FFACFF"/>
<path d="M97.3009 263.239L106.107 264.918L108.702 265.533L113.093 265.475L116.729 266.036L123.719 262.401L97.3009 263.239Z" fill="#FFACFF"/>
<path d="M135.832 274.794L138.253 277.03L143.471 278.149L145.896 276.846L149.436 277.03L153.536 274.794H135.832Z" fill="#FFACFF"/>
<path d="M110.953 236.589L117.197 236.773L118.688 237.892L117.943 239.94L119.806 242.734V244.782L123.346 244.225L125.022 246.273L109.927 245.901C109.927 245.901 109.369 245.528 109.369 242.546C109.369 239.564 108.993 236.216 110.953 236.589Z" fill="#34283A"/>
<path d="M89.285 271.163C89.285 271.163 87.3734 268.088 90.9163 264.08L92.9647 263.8L92.78 266.782L95.0918 269.737C95.1534 269.75 95.2115 269.713 95.2252 269.651L95.3893 268.83L102.844 267.339L103.59 269.203L102.287 271.067L89.285 271.163Z" fill="#4B3355"/>
<path d="M105.129 255.414L106.527 257.23L106.876 258.837L109.533 258.906L110.86 260.305L111.141 260.513H101.914L99.322 260.588L99.1886 257.439C99.1886 257.439 99.1886 253.034 99.3972 252.617C99.6058 252.2 100.447 251.15 100.447 251.15L103.241 250.38L105.478 251.499L105.129 255.414Z" fill="#34283A"/>
<path d="M82.4353 288.493L83.4612 292.594L86.5356 293.151L87.9343 295.948L90.9163 298.835H76.0061L76.4746 296.041L74.1423 293.896L75.4487 290.73L80.4792 288.401L82.4353 288.493Z" fill="#4B3355"/>
<path d="M108.436 288.774L108.203 290.915L110.484 292.686L114.352 291.893L117.382 294.55L121.602 289.065L108.436 288.774Z" fill="#4B3355"/>
<path d="M91.6619 288.213L92.4074 289.332L94.8286 287.656L97.4379 289.332H101.165C101.165 289.332 101.35 290.823 101.911 291.007C102.472 291.192 106.011 287.841 106.011 287.841L92.0347 286.165L91.6619 288.213Z" fill="#FFACFF"/>
<path d="M168.073 263.054L169.191 264.918L172.919 265.103L177.204 263.984L179.068 264.918L180.374 263.054H168.073Z" fill="#FFACFF"/>
<path d="M128.544 214.572C128.544 214.572 128.171 207.086 130.415 210.455C132.658 213.823 130.787 215.697 130.787 215.697C130.787 215.697 133.034 210.455 135.281 214.948C137.528 219.442 131.912 220.191 131.912 220.191C131.912 220.191 124.427 220.564 124.427 214.948C124.427 209.333 128.544 214.572 128.544 214.572Z" fill="#33A86D"/>
<path d="M188.188 241.157C188.188 241.157 188.188 230.203 188.188 226.319C188.188 222.434 190.309 220.006 190.309 220.006C190.309 220.006 190.5 212.13 190.671 210.338C190.88 208.101 195.657 203.793 195.657 203.793L196.669 198.201V154.237C196.669 154.237 195.609 151.408 195.257 150.704C194.905 149.996 195.257 146.819 195.257 146.819C195.257 146.819 205.15 142.579 206.211 142.579C207.271 142.579 227.41 148.231 227.41 148.231C227.41 148.231 239.068 162.01 239.423 164.13C239.776 166.25 239.423 181.797 239.423 181.797L249.098 186.222L254.128 199.22C254.128 199.22 257.439 219.954 258.855 220.307C260.267 220.659 264.86 233.733 265.215 235.853C266.354 242.689 268.389 237.012 268.389 257.76L273.419 265.533L275.516 291.941L260.978 302.097L196.403 301.071L190.664 299.023L188.188 241.157Z" fill="#665070"/>
<path d="M224.602 184.407L233.145 188.599L234.324 193.072L237.566 196.984L240.217 203.974L240.282 209.285L253.431 212.36L253.711 215.574C253.711 215.574 252.873 227.174 252.873 229.411C252.873 231.647 252.217 249.399 252.217 249.399L256.929 261.7L252.217 299.16L193.67 294.547L192.49 254.013L196.909 215.995L203.389 211.522L206.337 189.157L213.997 180.21L224.602 184.407Z" fill="#856792"/>
<path d="M186.896 248.424C186.896 248.424 187.874 238.247 187.874 233.469C187.874 232.132 188.188 227.167 188.188 226.319C188.188 224.899 188.472 223.675 188.831 222.69C189.454 220.984 190.308 220.006 190.308 220.006C190.308 220.006 190.596 211.142 190.671 210.338C190.88 208.101 195.657 203.793 195.657 203.793L200.503 206.029L201.248 202.49L196.669 192.425V154.237C196.669 154.237 195.609 151.408 195.257 150.704C194.905 149.996 195.257 146.819 195.257 146.819C195.257 146.819 205.15 142.579 206.21 142.579C207.271 142.579 206.747 171.548 206.747 171.548C206.747 171.548 225.683 176.557 226.035 178.678C226.387 180.798 207.725 241.578 207.725 241.578L186.619 266.039L186.896 248.424Z" fill="#856792"/>
<path d="M199.197 212.64L201.153 198.663L212.742 187.48L227.711 188.599C227.711 188.599 230.087 190.746 230.44 193.219C230.792 195.691 235.539 200.9 235.539 200.9C235.539 200.9 236.435 207.055 237.214 212.144C237.399 213.354 248.862 215.218 249.235 215.577C251.786 218.022 249.792 235.939 249.792 237.802C249.792 239.666 262.859 250.572 263.211 252.34C263.564 254.108 266.446 262.004 266.446 262.004C266.446 262.004 260.417 299.775 260.417 301.54C260.417 303.305 197.237 301.119 197.237 301.119V218.231L199.197 212.64Z" fill="#1D2538"/>
<path d="M208.399 176.787L211.487 172.307L206.84 171.302L208.399 176.787Z" fill="#665070"/>
<path d="M207.585 150.161L203.81 153.515L208.423 157.708L207.585 150.161Z" fill="#665070"/>
<path d="M225.755 151.419L228.272 164.277C228.272 164.277 231.907 170.706 234.143 173.504C236.38 176.298 236.099 184.406 236.099 184.406L241.691 188.041L234.424 185.524C234.424 185.524 234.143 176.298 233.305 174.903C232.468 173.504 228.552 167.912 227.157 166.237C225.755 164.558 225.755 151.419 225.755 151.419Z" fill="#4B3355"/>
<path d="M198.806 232.187C198.806 232.187 194.689 232.04 192.432 232.286C189.99 232.553 188.315 232.874 185.863 236.896C183.759 240.347 182.822 243.664 182.234 245.035C181.646 246.407 181.841 247.193 183.606 248.763C185.37 250.332 195.766 255.431 201.255 249.744C206.747 244.057 205.961 236.8 204.196 235.036C202.431 233.271 198.806 232.187 198.806 232.187Z" fill="#665070"/>
<path d="M211.75 223.06C209.298 221.395 201.433 221.025 197.801 222.143C191.697 224.021 191.652 227.454 190.254 231.09C189.252 233.692 190.722 237.474 192.689 238.237C194.655 238.996 201.843 238.856 204.302 237.081C206.761 235.306 214.202 224.729 211.75 223.06Z" fill="#665070"/>
<path d="M206.357 222.471C206.357 222.471 202.551 222.143 206.747 225.221L201.464 232.888C201.464 232.888 197.945 234.512 196.864 237.218C195.783 239.923 197.869 246.868 197.729 247.969C197.141 252.675 191.061 270.718 192.63 277.191C194.2 283.661 207.339 278.761 221.852 280.919C236.366 283.077 261.077 278.761 264.606 277.978C268.136 277.195 265.112 263.724 263.724 260.424C260.585 252.972 261.467 248.756 259.901 242.675C258.331 236.595 261.275 233.104 253.236 228.2C245.189 223.296 214.397 219.924 206.357 222.471Z" fill="#856792"/>
<path d="M231.045 218.638C231.045 218.638 236.041 218.703 240.562 219.818C241.803 220.122 244.734 219.192 246.016 219.541C251.091 220.923 255.486 223.597 256.118 224.951C257.49 227.892 259.453 239.465 257.688 241.034C255.924 242.604 253.82 244.635 250.288 244.635C246.755 244.635 240.873 244.047 240.09 240.908C239.303 237.768 224.181 227.266 231.045 218.638Z" fill="#856792"/>
<path d="M201.159 249.536L197.726 245.809C191.45 245.415 187.723 246.003 185.175 247.966C182.624 249.926 180.859 253.554 180.271 258.653C179.683 263.752 179.683 267.281 184.977 271.009C190.271 274.736 191.645 273.95 197.332 275.714C203.02 277.479 212.612 275.537 212.612 275.537L213.73 272.462L214.288 267.151C214.288 267.151 213.334 262.21 213.45 260.722C213.549 259.443 210.273 255.025 208.313 254.83C206.354 254.635 202.626 254.242 201.057 253.654L201.159 249.536Z" fill="#856792"/>
<path d="M205.383 258.171H207.821C207.821 258.171 207.561 256.81 211.737 256.539C215.916 256.266 215.936 259.135 215.936 259.135C215.936 259.135 216.275 261.837 217.024 264.863C217.574 267.096 217.222 269.343 217.222 270.701C217.222 273.902 215.392 276.931 212.78 277.745C210.861 278.344 206.645 277.342 204.442 275.15C203.649 274.36 203.119 273.416 203.05 272.335C202.938 270.595 203.799 268.211 203.796 266.125C203.796 265.325 202.893 264.73 202.903 263.991C202.938 262.141 203.009 260.578 203.119 259.798C203.382 257.897 205.383 258.171 205.383 258.171Z" fill="#665070"/>
<path d="M205.075 259.19H208.098C208.098 259.19 208.078 257.853 209.456 257.709C214.637 257.463 213.99 259.932 213.99 259.932C213.99 259.932 215.331 261.909 216.011 265.27C216.439 267.367 216.459 269.33 216.459 270.564C216.459 273.471 213.99 276.231 210.752 276.969C208.372 277.513 206.641 276.603 203.912 274.613C202.931 273.895 202.271 273.037 202.185 272.059C202.048 270.479 203.112 268.314 203.109 266.419C203.109 265.691 201.987 265.154 202.004 264.48C202.045 262.798 202.137 261.382 202.271 260.674C202.592 258.944 205.075 259.19 205.075 259.19Z" fill="#856792"/>
<path d="M267.062 280.427C267.062 286.603 267.859 294.301 267.062 296.093C266.265 297.885 265.523 299.434 261.539 301.26C256.765 303.449 253.731 301.862 250.148 303.257C246.564 304.652 241.195 304.252 234.427 304.054C227.663 303.856 227.262 302.064 224.277 303.456C221.292 304.847 215.324 305.644 215.122 300.272C214.924 294.899 214.726 283.358 215.321 280.372C215.919 277.387 218.203 277.674 220.991 277.486C223.976 277.287 228.254 278.382 228.254 278.382C234.789 275.728 243.363 276.101 243.363 276.101C243.363 276.101 248.352 274.801 252.333 273.608C256.313 272.414 255.913 272.414 257.507 271.221C259.101 270.024 267.062 274.247 267.062 280.427Z" fill="#665070"/>
<path d="M187.627 268.953C187.627 268.953 178.001 272.212 175.213 274.004C172.426 275.796 171.233 277.188 171.233 281.962C171.233 286.736 171.831 290.518 171.831 292.509C171.831 294.499 175.213 297.881 177.402 300.466C179.591 303.052 180.983 302.057 185.76 302.655C190.537 303.253 191.529 301.66 195.113 302.057C198.694 302.453 204.268 301.26 204.268 301.26C204.268 301.26 205.461 302.85 208.843 303.25C212.226 303.647 209.64 303.647 213.022 303.448C216.405 303.25 218.395 302.255 218.197 293.699C217.998 285.142 219.988 281.76 216.805 279.373C213.621 276.986 212.824 276.788 209.839 276.586C206.853 276.384 206.333 277.304 204.145 276.908C201.956 276.511 192.603 274.719 191.211 272.729C189.816 270.745 191.009 270.147 187.627 268.953Z" fill="#665070"/>
<path d="M237.255 221.788C237.255 221.788 238.79 229.027 240.767 232.102C242.744 235.176 242.792 235.826 246.96 236.486C251.129 237.142 253.762 236.267 253.762 236.267C253.762 236.267 254.945 238.411 250.011 238.298C245.072 238.189 240.466 237.091 239.587 236.434C238.708 235.778 238.134 230.566 237.255 227.386C236.376 224.205 237.255 221.788 237.255 221.788Z" fill="#665070"/>
<path d="M252.446 254.073C252.446 254.073 250.253 253.099 249.108 253.164C247.962 253.229 245.674 256.413 245.008 257.62C244.341 258.827 245.192 265.82 245.192 267.069C245.192 268.317 244.72 269.12 246.437 269.787C248.154 270.454 250.537 269.637 251.016 269.668C251.491 269.698 252.924 268.402 252.162 268.214C251.399 268.026 248.157 268.929 247.49 268.607C246.823 268.286 246.345 266.313 246.345 266.313C246.345 266.313 245.869 261.98 246.057 260.605C246.245 259.23 247.012 257.753 247.012 257.753C247.012 257.753 248.345 254.508 249.111 254.559C249.87 254.603 252.446 254.073 252.446 254.073Z" fill="#665070"/>
<path d="M243.927 276.939L237.823 281.604C237.823 281.604 235.155 291.606 235.641 293.959C236.126 296.312 239.037 299.547 239.037 299.547L248.253 302.782C248.253 302.782 251.649 303.076 253.831 301.018C256.012 298.959 255.045 294.25 255.045 294.25C255.045 294.25 253.789 278.526 252.456 277.496C251.122 276.467 243.927 276.939 243.927 276.939Z" fill="#856792"/>
<path d="M221.285 278.07C221.285 278.07 215.926 276.306 215.673 277.776C215.42 279.247 214.654 286.897 215.163 288.955C215.673 291.014 216.182 292.19 216.182 292.19L215.163 294.543C215.163 294.543 215.194 303.571 216.836 303.91C218.48 304.252 222.307 300.425 222.307 300.425L223.839 295.425C223.839 295.425 224.349 280.717 223.583 279.835C222.817 278.952 221.285 278.07 221.285 278.07Z" fill="#856792"/>
<path d="M257.541 254.361C257.541 254.361 259.012 257.073 259.306 260.322C259.6 263.571 258.69 266.809 256.659 269.323C252.87 274.011 252.466 273.683 252.466 273.683C252.466 273.683 244.669 275.102 242.316 274.117L252.025 271.31C252.025 271.31 257.743 266.238 257.743 265.356C257.743 264.474 257.202 257.06 257.202 257.06L257.541 254.361Z" fill="#665070"/>
<path d="M210.177 213.388C210.177 213.388 210.714 215.355 210.266 216.521C209.818 217.684 208.252 217.461 207 217.461C205.748 217.461 204.63 217.328 204.004 216.791C203.378 216.254 202.472 213.282 202.93 212.588C203.389 211.894 204.897 212.14 206.778 212.41C208.659 212.681 210.177 213.388 210.177 213.388Z" fill="#856792"/>
<path d="M231.708 220.936C231.708 220.936 231.971 212.609 231.048 210.232C230.121 207.852 230.121 208.119 227.611 206.399C225.101 204.682 224.704 204.945 224.571 203.889C224.437 202.832 223.644 202.302 218.36 202.302C213.073 202.302 207.786 202.832 206.6 203.889C205.413 204.945 204.035 209.23 204.035 209.23C204.035 209.23 202.975 213.761 203.953 220.276C203.967 222.065 204.233 224.431 204.233 224.431L203.488 224.804C203.488 224.804 203.874 232.04 204.271 233.36C204.668 234.68 204.404 236.137 212.201 235.607C219.998 235.077 225.682 234.68 227.002 232.17C228.322 229.66 229.581 227.923 229.581 227.923C229.581 227.923 231.998 224.476 231.708 220.936Z" fill="#856792"/>
<path d="M215.057 214.863C215.057 214.863 216.114 217.154 216.818 217.859C217.523 218.563 222.81 218.741 222.81 218.741C222.81 218.741 219.992 219.093 218.227 219.093C216.466 219.093 215.761 218.389 215.761 218.389L215.057 214.863Z" fill="#665070"/>
<path d="M209.541 214.924C208.423 213.666 203.601 213.269 203.529 214.144C203.46 215.016 204.196 217.373 205.02 217.581C205.755 217.766 209.202 218.084 209.445 217.397C209.643 216.836 210.659 216.183 209.541 214.924Z" fill="#665070"/>
<path d="M225.186 211.443L231.311 211.464L231.277 212.432L227.214 213.403C227.214 213.403 226.243 215.834 225.894 216.443C224.499 218.861 215.973 217.113 215.973 217.113L215.276 215.438L225.186 211.443Z" fill="#665070"/>
<path d="M203.437 224.616C203.437 224.616 203.871 227.544 204.664 230.187C205.458 232.83 205.718 234.109 207.571 234.243C209.421 234.376 217.047 234.322 221.938 233.795C226.828 233.265 227.799 230.98 228.593 229.264C229.386 227.547 229.783 225.3 229.783 225.3C229.783 225.3 230.443 226.49 230.046 227.81C229.649 229.13 229.988 233.532 226.551 234.192C224.284 234.626 212.099 235.744 207.308 235.566C203.741 235.433 203.874 233.757 203.611 230.057C203.341 226.353 203.437 224.616 203.437 224.616Z" fill="#665070"/>
<path d="M214.66 213.491C214.66 213.491 215.101 216.046 216.336 216.661C217.57 217.277 221.445 217.191 223.295 217.102C225.145 217.013 224.882 217.191 225.056 215.693C225.234 214.196 225.586 210.848 224.704 210.407C223.822 209.965 216.685 212.082 214.66 213.491Z" fill="#34283A"/>
<path d="M209.527 214.289C209.527 214.289 209.924 215.742 209.592 216.6C209.261 217.459 208.108 217.295 207.181 217.295C206.258 217.295 205.43 217.195 204.969 216.799C204.507 216.402 203.837 214.21 204.175 213.697C204.514 213.184 205.629 213.365 207.014 213.564C208.406 213.759 209.527 214.289 209.527 214.289Z" fill="#34283A"/>
<path d="M231.927 210.407C231.927 210.407 231.81 211.994 230.47 211.994C229.129 211.994 225.566 210.893 223.018 211.686C220.47 212.48 216.415 214.825 214.941 214.825C213.467 214.825 210.683 214.86 209.743 214.86C208.802 214.86 208.269 213.803 205.988 213.67C203.707 213.536 202.554 213.858 202.342 213.553C201.939 211.967 202.099 209.046 203.307 207.989C204.514 206.933 201.706 202.265 210.28 201.249C225.891 199.399 225.617 202.176 226.421 202.966C227.224 203.759 228.849 203.704 229.813 204.245C232.016 205.472 231.927 208.294 231.927 210.407Z" fill="#856792"/>
<path d="M204.507 212.363C201.152 212.082 202.099 209.042 203.306 207.985C204.514 206.929 201.706 202.261 210.279 201.245C225.891 199.395 225.617 202.172 226.421 202.962C226.947 203.482 221.753 205.65 218.866 207.544C215.98 209.439 215.197 208.068 214.356 208.625C213.518 209.182 209.151 207.814 209.537 207.886C209.541 207.89 205.96 212.482 204.507 212.363Z" fill="#665070"/>
<path d="M204.493 219.271L204.757 224.25L203.464 224.623L203.512 225.468C203.512 225.468 217.605 224.558 223.155 225.878L222.098 224.558C222.098 224.558 213.61 223.368 206.032 223.987L205.283 222.797L204.493 219.271Z" fill="#665070"/>
<path d="M209.568 214.856C209.568 214.856 211.134 215.164 211.357 215.164C211.576 215.164 212.547 215.03 212.547 215.03L215.235 214.812L214.971 215.208L212.591 215.957L210.916 216.002L209.722 215.796L209.568 214.856Z" fill="#665070"/>
<path d="M231.78 217.927C231.78 217.927 231.814 223.142 231.297 224.332C230.415 226.497 229.666 227.362 229.666 227.362L229.844 225.631C229.844 225.631 231.031 224.332 231.208 223.686C231.383 223.036 231.78 217.927 231.78 217.927Z" fill="#665070"/>
<path d="M205.143 204.416C205.143 204.416 206.73 207.322 207.92 207.852C209.11 208.382 212.15 207.589 212.15 207.589C212.15 207.589 208.053 209.702 207.26 209.176C206.467 208.646 205.143 204.416 205.143 204.416Z" fill="#856792"/>
<path d="M183.79 249.204C183.79 249.204 186.328 248.031 189.467 246.96C192.606 245.89 193.978 245.699 193.978 245.699C193.978 245.699 192.114 244.245 188.745 245.787C186.577 246.779 185.281 247.019 183.79 249.204Z" fill="#856792"/>
<path d="M185.274 258.656L185.568 266.747L188.657 273.365C188.657 273.365 183.804 268.512 183.804 267.189C183.804 265.865 185.274 258.656 185.274 258.656Z" fill="#665070"/>
<path d="M221.487 256.068L224.626 254.279L230.905 255.045L233.401 256.622L234.129 256.656L229.277 253.588L222.998 252.822L219.859 254.611L220.037 257.302L221.753 257.059L221.487 256.068Z" fill="#665070"/>
<path d="M219.5 256.865L216.524 256.557C216.347 256.54 216.182 256.646 216.124 256.813L214.883 260.49C214.825 260.664 214.897 260.852 215.057 260.945L216.251 261.618C216.511 261.765 216.511 262.138 216.251 262.282L215.649 262.617C215.522 262.689 215.447 262.825 215.454 262.972L215.994 272.24C215.998 272.308 216.018 272.373 216.056 272.428L218.905 276.723C218.966 276.816 219.062 276.877 219.171 276.891L225.19 277.695C225.255 277.705 225.323 277.695 225.385 277.671L229.048 276.166C229.431 276.009 229.325 275.444 228.911 275.434L220.132 275.226C219.978 275.222 219.842 275.126 219.787 274.983L218.545 271.819C218.508 271.72 218.429 271.642 218.33 271.604L216.798 271.006C216.647 270.947 216.548 270.797 216.555 270.636L216.627 268.947C216.634 268.827 216.695 268.714 216.795 268.649L217.02 268.157C217.236 268.01 217.243 267.699 217.037 267.541L216.593 266.809C216.504 266.741 216.449 266.635 216.446 266.522L216.367 264.47C216.364 264.375 216.398 264.279 216.459 264.207L217.663 262.812C217.793 262.661 217.786 262.439 217.646 262.299L216.145 260.756C216.029 260.637 216.005 260.452 216.083 260.305L217.181 258.322C217.232 258.229 217.321 258.161 217.424 258.137L219.551 257.617C219.968 257.511 219.924 256.909 219.5 256.865Z" fill="#665070"/>
<path d="M176.178 278.416C177.997 277.373 184.443 277.383 185.992 278.416C187.542 279.448 184.939 287.7 184.939 287.7C184.939 287.7 191.057 298.025 189.508 299.574C187.959 301.123 178.66 297.508 176.851 295.699C175.042 293.89 173.456 284.763 174.112 282.547C174.724 280.481 174.358 279.459 176.178 278.416Z" fill="#856792"/>
<path d="M188.216 276.012L192.627 279.25L201.942 279.151L192.627 277.188L188.216 276.012Z" fill="#856792"/>
<path d="M251.286 252.432L238.079 254.895L234.109 257.241L237.799 253.496L246.461 251.006L251.286 252.432Z" fill="#665070"/>
<path d="M242.696 235.863L239.133 241.013C239.133 241.013 238.736 251.707 241.509 252.897C241.509 252.897 243.489 248.144 243.886 245.767C244.283 243.39 244.283 242.864 244.943 241.673C245.603 240.487 246.659 237.053 246.659 237.053L242.696 235.863Z" fill="#665070"/>
<path d="M213.005 244.434C213.005 244.434 212.102 250.388 212.284 252.912C212.465 255.435 216.073 258.503 216.073 258.503C216.073 258.503 214.089 255.617 214.089 252.371C214.089 249.126 213.005 244.434 213.005 244.434Z" fill="#665070"/>
<path d="M212.195 235.607C212.195 235.607 216.34 240.197 219.588 240.197C222.837 240.197 227.707 233.973 227.707 233.973L212.195 235.607Z" fill="#665070"/>
<path d="M227.707 276.316C227.707 276.316 234.741 273.611 235.282 273.071C235.822 272.53 235.282 267.117 235.282 267.117C235.282 267.117 238.394 272.257 236.636 274.151C234.878 276.046 227.707 276.316 227.707 276.316Z" fill="#665070"/>
<path d="M257.921 238.661C257.921 238.661 259.001 241.729 259.545 246.598C260.085 251.468 256.84 257.422 256.84 257.422C256.84 257.422 261.528 255.076 261.169 248.223C260.807 241.366 257.921 238.661 257.921 238.661Z" fill="#665070"/>
<path d="M196.861 268.741C196.724 269.959 199.658 272.575 199.658 272.575L198.755 269.08L199.094 265.834C199.094 265.831 196.997 267.52 196.861 268.741Z" fill="#665070"/>
<path d="M187.391 272.055C187.391 272.055 189.194 273.837 190.818 274.558C192.442 275.28 199.477 275.82 199.477 275.82C200.164 276.002 194.392 276.309 190.459 275.28C189.737 275.092 189.194 274.579 187.391 272.055Z" fill="#665070"/>
<path d="M190.096 232.618C190.096 232.618 192.771 231.069 194.333 231.011C195.893 230.953 196.119 232.143 196.119 232.143C196.119 232.143 194.631 231.602 193.482 231.736C191.635 231.955 190.096 232.618 190.096 232.618Z" fill="#856792"/>
<path d="M201.46 253.236C201.46 253.236 198.355 251.803 196.447 251.803C194.539 251.803 191.314 254.669 191.314 254.669C191.314 254.669 196.447 253.356 197.521 253.475C198.594 253.595 201.46 253.236 201.46 253.236Z" fill="#665070"/>
<path d="M211.877 257.24C211.877 256.7 209.849 254.894 208.225 254.894C206.6 254.894 206.309 255.007 205.068 255.435C203.762 255.886 202.903 256.515 202.544 257.059C202.544 257.059 202.544 254.535 205.431 254.173C208.317 253.814 208.074 253.506 209.127 253.814C210.208 254.128 211.877 257.24 211.877 257.24Z" fill="#665070"/>
<path d="M196.184 253.588C196.184 253.588 201.46 253.725 203.355 255.483C203.355 255.483 205.27 254.204 203.355 253.588C199.566 252.371 196.184 253.588 196.184 253.588Z" fill="#665070"/>
<path d="M32.0825 294.933L32.5818 289.927L15.5582 277.91L5.54512 282.414L0.538574 289.927L9.54967 296.934L32.0825 294.933Z" fill="#665070"/>
<path d="M9.54967 296.934L18.0615 295.935L10.8868 290.258L15.5582 277.91L5.54512 282.414L6.0444 286.921L0.538574 289.927L9.54967 296.934Z" fill="#4B3355"/>
<path d="M246.697 306.27L241.55 297.925L235.709 300.148L233.138 306.611L236.411 307.189L241.181 308.403L246.697 306.27Z" fill="#4B3355"/>
<path d="M241.414 297.994L241.971 301.957L239.745 304.183L239.536 306.687L241.137 308.215C244.615 307.938 246.701 306.266 246.701 306.266L246.978 302.231L241.414 297.994Z" fill="#665070"/>
<path d="M234.42 308.527L235.539 304.054L230.135 302.19L226.592 305.733L229.202 308.154L234.42 308.527Z" fill="#4B3355"/>
<path d="M234.42 308.527L231.438 304.426L228.644 305.733L229.202 308.154L234.42 308.527Z" fill="#665070"/>
<path d="M195.561 244.232C195.561 244.232 195.561 240.04 197.798 241.158C200.034 242.276 198.916 245.351 198.916 245.351C198.916 245.351 201.433 243.675 201.99 245.908C202.548 248.144 200.315 247.307 200.315 247.307L195.561 244.232Z" fill="#33A86D"/>
<path d="M190.25 246.188C190.25 246.188 188.852 243.671 191.088 243.951C193.325 244.232 191.649 246.468 190.25 246.188Z" fill="#33A86D"/>
<path d="M196.122 247.863C196.122 247.863 192.767 243.671 192.21 246.745C191.649 249.823 194.723 250.661 196.122 247.863Z" fill="#288453"/>
<path d="M195.842 251.219C195.842 251.219 195.284 244.509 197.798 245.908C200.315 247.306 198.639 252.06 195.842 251.219Z" fill="#288453"/>
<path d="M194.443 254.296C194.443 254.296 188.294 256.532 192.767 257.09C197.24 257.651 194.443 254.296 194.443 254.296Z" fill="#288453"/>
<path d="M174.372 299.057C174.372 299.057 173.206 294.943 174.745 295.101C176.284 295.258 175.552 298.414 175.552 298.414C175.552 298.414 178.363 293.589 178.962 296.94C179.56 300.292 178.702 301.526 178.702 301.526C178.702 301.526 180.593 298.811 181.485 300.165C182.375 301.519 181.181 302.467 181.181 302.467C181.181 302.467 179.228 304.46 177.748 303.428C176.267 302.395 176.267 302.395 176.267 302.395C176.267 302.395 174.988 303.705 172.368 301.147C169.752 298.585 170.125 294.629 174.372 299.057Z" fill="#33A86D"/>
<path d="M67.8054 298.185C67.8054 298.185 66.9675 292.594 69.7615 293.432C72.5554 294.27 71.1601 296.506 71.1601 296.506C71.1601 296.506 74.5149 295.668 73.1163 298.743C71.7176 301.817 70.3223 301.817 70.3223 301.817C70.3223 301.817 66.4101 304.054 65.0114 299.023C63.6127 293.993 67.8054 298.185 67.8054 298.185Z" fill="#33A86D"/>
<path d="M55.5079 298.186C55.5079 298.186 53.8322 294.55 55.5079 293.993C57.1836 293.436 57.1836 296.23 57.1836 296.23C57.1836 296.23 59.1397 292.594 59.7005 295.392C60.2579 298.186 59.1397 301.817 55.5079 298.186Z" fill="#33A86D"/>
<path d="M56.3457 288.401C56.3457 288.401 56.3457 291.756 58.0214 290.638C59.7005 289.52 60.5383 285.047 56.3457 288.401Z" fill="#33A86D"/>
<path d="M47.957 288.959C47.957 288.959 47.1192 292.594 48.7949 292.314C50.4706 292.033 51.0314 291.756 50.4706 290.077C49.9166 288.402 47.957 288.959 47.957 288.959Z" fill="#33A86D"/>
<path d="M46.2814 284.766C46.2814 284.766 47.1193 288.121 48.7984 286.165C50.4741 284.205 48.2375 282.53 46.2814 284.766Z" fill="#33A86D"/>
<path d="M50.7545 286.442C50.7545 286.442 51.8727 288.959 52.991 288.678C54.1092 288.398 54.3897 283.367 50.7545 286.442Z" fill="#33A86D"/>
<path d="M48.5179 282.81C48.5179 282.81 48.7983 287.283 51.3118 284.486C53.8254 281.688 51.0348 280.85 48.5179 282.81Z" fill="#33A86D"/>
<path d="M48.2376 279.175C48.2376 279.175 47.9571 282.53 49.9132 280.574C51.8728 278.614 50.4741 275.82 48.2376 279.175Z" fill="#33A86D"/>
<path d="M249.515 257.928C249.515 257.928 249.936 252.477 253.29 254.573C256.645 256.669 251.194 259.607 249.515 257.928Z" fill="#33A86D"/>
<path d="M250.773 260.024C250.773 260.024 244.809 263.844 251.519 261.796C258.228 259.747 257.298 259.002 250.773 260.024Z" fill="#33A86D"/>
<path d="M252.08 263.475C252.08 263.475 252.825 269.624 254.316 266.084C255.807 262.541 255.246 262.914 252.08 263.475Z" fill="#33A86D"/>
<path d="M250.961 263.659C250.961 263.659 245.558 264.777 250.031 265.335C254.501 265.896 250.961 263.659 250.961 263.659Z" fill="#33A86D"/>
<path d="M251.519 272.417C251.519 272.417 255.992 269.808 252.264 269.808C248.537 269.808 247.046 272.417 251.519 272.417Z" fill="#33A86D"/>
<path d="M255.852 247.96C255.852 247.96 255.106 252.433 258.461 250.008C261.816 247.587 259.767 246.653 255.852 247.96Z" fill="#33A86D"/>
<path d="M262.004 241.995C262.004 241.995 256.973 243.859 260.328 244.232C263.68 244.604 263.122 242.18 262.004 241.995Z" fill="#33A86D"/>
<path d="M258.834 237.522C258.834 237.522 258.276 241.995 260.882 239.758C263.495 237.522 262.189 237.522 258.834 237.522Z" fill="#33A86D"/>
<path d="M257.531 239.759C257.531 239.759 254.364 239.386 256.973 240.504C259.579 241.623 257.531 239.759 257.531 239.759Z" fill="#33A86D"/>
<path d="M257.343 235.098C257.343 235.098 262.561 237.707 260.509 235.098C258.461 232.488 254.361 232.304 257.343 235.098Z" fill="#33A86D"/>
<path d="M259.952 297.344C259.952 297.344 259.206 300.884 261.628 299.954C264.049 299.024 263.303 297.16 262.373 296.972C261.443 296.784 259.952 297.344 259.952 297.344Z" fill="#33A86D"/>
<path d="M259.952 294.923C259.952 294.923 262.373 289.147 261.816 293.059C261.258 296.971 259.952 294.923 259.952 294.923Z" fill="#33A86D"/>
<path d="M258.834 296.229C258.834 296.229 252.87 288.962 255.667 289.707C258.461 290.453 258.276 292.689 258.276 292.689C258.276 292.689 258.834 284.861 259.952 287.844C261.07 290.826 258.834 296.229 258.834 296.229Z" fill="#33A86D"/>
<path d="M263.683 291.889C263.683 291.889 267.746 288.972 267.164 291.441C266.583 293.91 263.102 292.789 263.683 291.889Z" fill="#33A86D"/>
<path d="M266.662 298.462C266.662 298.462 266.477 293.616 264.986 293.616C263.495 293.616 264.986 299.208 266.662 298.462Z" fill="#33A86D"/>
<path d="M268.341 297.905C268.341 297.905 265.92 288.401 268.898 290.077C271.88 291.756 270.577 299.581 268.341 297.905Z" fill="#33A86D"/>
<path d="M261.816 288.959C261.816 288.959 262.188 284.113 263.119 287.283C264.052 290.45 262.561 290.823 261.816 288.959Z" fill="#33A86D"/>
<path d="M270.204 296.971C270.204 296.971 270.95 291.195 272.441 291.568C273.932 291.941 272.998 294.177 272.998 294.177C272.998 294.177 274.674 288.774 276.165 290.265C277.656 291.756 275.047 293.993 275.047 293.993C275.047 293.993 279.332 291.756 278.029 293.808C276.726 295.856 273.744 295.111 273.744 295.111C273.744 295.111 274.862 298.65 270.204 296.971Z" fill="#33A86D"/>
<path d="M254.549 303.681C254.549 303.681 249.146 299.397 251.567 298.836C253.988 298.278 253.431 300.139 253.431 300.139C253.431 300.139 256.225 298.463 256.04 299.581C255.855 300.699 256.597 300.884 256.597 300.884C256.597 300.884 260.886 304.615 254.549 303.681Z" fill="#33A86D"/>
<path d="M191.369 296.23C191.369 296.23 191.369 292.502 192.299 293.248C193.229 293.993 193.044 295.857 193.044 295.857C193.044 295.857 196.584 293.62 196.211 295.484C195.838 297.348 193.975 297.532 193.975 297.532C193.975 297.532 193.975 300.699 192.856 299.769C191.738 298.839 191.369 296.23 191.369 296.23Z" fill="#33A86D"/>
<path d="M192.487 288.213C192.487 288.213 195.842 289.332 194.351 290.45C192.86 291.568 192.487 288.213 192.487 288.213Z" fill="#33A86D"/>
<path d="M195.096 292.129C195.096 292.129 196.026 296.229 197.89 293.247C199.757 290.265 199.569 291.195 195.096 292.129Z" fill="#33A86D"/>
<path d="M180.186 272.931C180.186 272.931 177.765 268.831 180.559 269.764C183.353 270.698 181.304 272.185 181.304 272.185C181.304 272.185 185.404 271.628 184.286 273.488C183.168 275.352 180.747 274.234 180.747 274.234L180.186 272.931Z" fill="#33A86D"/>
<path d="M179.068 273.491C179.068 273.491 179.44 270.697 177.949 270.136C176.458 269.575 175.34 274.421 179.068 273.491Z" fill="#33A86D"/>
<path d="M180.186 267.527C180.186 267.527 177.392 263.799 179.256 264.172C181.12 264.545 181.492 265.475 181.492 265.475C181.492 265.475 184.102 265.29 182.983 267.896C181.865 270.502 180.186 267.527 180.186 267.527Z" fill="#33A86D"/>
<path d="M178.883 260.63C178.883 260.63 181.304 263.424 182.423 261.375C183.541 259.327 178.883 260.63 178.883 260.63Z" fill="#33A86D"/>
<path d="M186.711 261.748C186.711 261.748 189.132 259.511 188.014 259.511C186.895 259.511 186.895 259.511 186.338 259.511C185.777 259.511 185.404 261.563 186.711 261.748Z" fill="#33A86D"/>
<path d="M183.356 257.835C183.356 257.835 181.68 260.817 184.286 259.326C186.892 257.835 187.268 257.09 183.356 257.835Z" fill="#33A86D"/>
<path d="M183.773 247.586C183.773 247.586 183.216 244.42 185.076 245.538C186.94 246.656 185.449 247.959 185.449 247.959C185.449 247.959 189.177 247.214 187.686 249.45C186.195 251.687 184.892 250.38 184.892 250.38L183.773 247.586Z" fill="#33A86D"/>
<path d="M182.098 244.043C182.098 244.043 176.322 243.486 178.37 245.346C180.422 247.213 183.961 244.789 182.098 244.043Z" fill="#33A86D"/>
<path d="M181.54 247.026C181.54 247.026 178.558 249.447 181.167 248.701C183.773 247.959 182.47 246.841 181.54 247.026Z" fill="#33A86D"/>
<path d="M179.861 251.314C179.861 251.314 184.707 250.568 181.909 250.011C179.112 249.454 178.37 250.753 179.861 251.314Z" fill="#33A86D"/>
<path d="M183.028 255.226C183.028 255.226 184.703 252.99 182.655 252.99C180.606 252.99 180.606 254.854 183.028 255.226Z" fill="#33A86D"/>
<path d="M230.508 283.74C230.508 283.74 226.78 286.35 229.578 285.604C232.372 284.858 230.508 283.74 230.508 283.74Z" fill="#33A86D"/>
<path d="M231.253 286.537C230.734 286.965 233.117 289.892 233.675 287.095C234.235 284.301 234.42 283.928 231.253 286.537Z" fill="#33A86D"/>
<path d="M228.829 288.959C228.829 288.959 234.047 292.498 231.996 290.077C229.947 287.656 227.899 288.401 228.829 288.959Z" fill="#33A86D"/>
<path d="M229.574 291.941C229.574 291.941 231.995 295.853 232.184 293.805C232.372 291.756 232.744 291.756 229.574 291.941Z" fill="#33A86D"/>
<path d="M228.644 294.923C228.644 294.923 235.354 296.599 231.065 296.787C226.777 296.975 225.289 295.111 228.644 294.923Z" fill="#33A86D"/>
<path d="M236.472 277.592C236.472 277.592 234.608 280.201 237.217 279.083C239.827 277.964 242.248 276.285 236.472 277.592Z" fill="#33A86D"/>
<path d="M235.726 281.319C235.726 281.319 238.893 281.504 237.402 280.762C235.911 280.013 234.047 279.828 235.726 281.319Z" fill="#33A86D"/>
<path d="M235.726 283.367C235.726 283.367 237.775 285.604 238.893 283.183C240.011 280.758 234.235 282.437 235.726 283.367Z" fill="#33A86D"/>
<path d="M210.365 170.05C210.365 170.05 207.63 164.274 210.365 164.883C213.101 165.492 211.278 167.619 211.278 167.619C211.278 167.619 215.536 165.492 214.927 168.532C214.319 171.572 213.105 172.485 213.105 172.485C213.105 172.485 216.754 169.445 216.449 173.398C216.145 177.351 213.105 174.615 213.105 174.615C213.105 174.615 211.282 177.656 209.151 174.92C207.021 172.184 209.151 173.097 209.151 173.097C209.151 173.097 202.763 168.227 210.365 170.05Z" fill="#33A86D"/>
<path d="M204.23 202.483C202.739 203.041 200.876 208.632 206.327 205.277C211.778 201.926 205.721 201.926 204.23 202.483Z" fill="#33A86D"/>
<path d="M206.641 198.687C208.023 198.687 212.482 198.598 208.18 201.019C203.878 203.44 205.259 198.687 206.641 198.687Z" fill="#33A86D"/>
<path d="M207.927 208.707C207.927 208.707 210.229 206.019 206.775 207.24C203.324 208.464 204.186 210.42 207.927 208.707Z" fill="#33A86D"/>
<path d="M209.052 210.964C206.898 211.74 207.055 214.107 210.194 212.363C213.33 210.615 211.207 210.188 209.052 210.964Z" fill="#33A86D"/>
<path d="M210.827 205.048C209.463 205.281 210.437 208.577 213.806 206.772C215.543 205.838 212.191 204.812 210.827 205.048Z" fill="#33A86D"/>
<path d="M202.367 221.866C202.367 221.866 203.485 219.818 201.436 220.191C199.388 220.563 200.506 221.682 200.506 221.682C200.506 221.682 197.34 217.769 196.033 219.445C194.73 221.121 198.27 222.427 198.27 222.427C198.27 222.427 193.051 221.309 191.933 223.173C190.815 225.036 194.542 223.545 194.542 223.545C194.542 223.545 190.069 226.339 191.375 227.085C192.678 227.83 194.73 226.339 194.73 226.339C194.73 226.339 195.848 228.949 196.594 226.524C197.34 224.103 197.34 224.103 197.34 224.103C197.34 224.103 200.506 226.151 200.322 224.103C200.137 222.054 200.322 222.612 200.322 222.612C200.322 222.612 202.924 224.476 202.367 221.866Z" fill="#33A86D"/>
<path d="M229.947 171.267C229.947 171.267 225.754 169.031 227.43 173.223C229.106 177.416 231.346 172.943 229.947 171.267Z" fill="#288453"/>
<path d="M229.667 168.47C229.667 168.47 234.977 164.278 232.741 167.633C230.504 170.987 229.667 168.47 229.667 168.47Z" fill="#288453"/>
<path d="M225.754 164.277C225.754 164.277 223.798 167.352 227.153 166.794C230.508 166.237 225.754 164.277 225.754 164.277Z" fill="#288453"/>
<path d="M226.873 160.646C226.873 160.646 232.744 164.839 228.829 164.001C224.916 163.16 226.873 160.646 226.873 160.646Z" fill="#288453"/>
<path d="M232.183 172.386C232.183 172.386 227.71 176.021 231.065 175.741C234.42 175.46 232.183 172.386 232.183 172.386Z" fill="#288453"/>
<path d="M234.139 176.579C234.139 176.579 239.45 177.416 235.815 178.535C232.18 179.653 233.862 176.021 234.139 176.579Z" fill="#288453"/>
<path d="M46.7464 233.299C46.7464 233.299 53.7364 228.826 51.7769 232.461C49.8208 236.096 46.7464 233.299 46.7464 233.299Z" fill="#33A86D"/>
<path d="M47.5842 236.653C47.5842 236.653 46.1856 241.407 49.2599 239.17C52.3377 236.934 47.5842 236.653 47.5842 236.653Z" fill="#33A86D"/>
<path d="M45.0673 235.535C45.0673 235.535 41.4321 227.988 39.1956 231.9C36.959 235.812 41.4321 233.299 41.4321 233.299C41.4321 233.299 37.5199 237.211 40.3138 236.653C43.1112 236.096 45.0673 235.535 45.0673 235.535Z" fill="#33A86D"/>
<path d="M43.9491 229.106C43.9491 229.106 41.993 234.136 46.1857 230.505C50.3783 226.873 45.0674 229.386 45.0674 229.386L43.9491 229.106Z" fill="#33A86D"/>
<path d="M103.029 149.463C103.029 149.463 106.941 146.108 106.664 149.183C106.384 152.257 103.029 149.463 103.029 149.463Z" fill="#33A86D"/>
<path d="M103.87 152.257C103.87 152.257 106.664 156.169 108.063 153.375C109.462 150.581 103.87 152.257 103.87 152.257Z" fill="#33A86D"/>
<path d="M110.58 155.054C110.58 155.054 105.549 161.203 110.58 158.409C115.61 155.615 115.61 154.213 110.58 155.054Z" fill="#33A86D"/>
<path d="M104.708 156.172C104.708 156.172 97.1608 157.291 101.914 158.409C106.668 159.527 108.62 159.527 104.708 156.172Z" fill="#33A86D"/>
<path d="M110.019 163.44C110.019 163.44 116.448 161.483 113.931 160.923C111.418 160.365 108.063 163.44 110.019 163.44Z" fill="#33A86D"/>
<path d="M110.299 165.118C107.225 164.28 102.752 166.794 110.857 167.635C118.965 168.47 113.374 165.956 110.299 165.118Z" fill="#33A86D"/>
<path d="M256.911 126.864C255.236 122.579 254.863 117.172 258.214 110.835C258.214 110.835 259.709 113.968 261.545 113.793C263.385 113.619 264.896 111.208 264.989 107.583C265.081 103.893 264.206 102.289 264.206 102.289L267.352 106.352C267.352 106.352 267.79 103.001 267.547 100.326C267.277 97.3614 265.669 94.5161 265.669 94.5161C265.669 94.5161 274.017 97.0194 275.932 103.722C277.392 108.828 276.975 112.077 276.975 112.077L279.649 109.16C279.649 109.16 283.004 120.715 280.193 126.83C277.864 131.891 273.463 134.746 269.028 135.064C263.925 135.427 258.59 131.149 256.911 126.864Z" fill="#FFACFF"/>
<path d="M269.681 129.658C269.681 129.658 265.588 129.063 263.502 124.979C261.357 120.787 264.374 119.617 264.374 119.617L266.326 122.948L269.961 113.164C269.961 113.164 272.198 115.866 272.663 117.076C273.128 118.287 276.609 127.353 269.681 129.658Z" fill="#9E54C7"/>
<path d="M272.475 93.0355C272.475 93.0355 272.194 91.0793 273.032 91.0793C273.873 91.0793 274.711 92.7585 272.475 93.0355Z" fill="#9E54C7"/>
<path d="M260.454 99.1872C260.454 99.1872 259.055 95.275 261.292 93.3154C261.292 93.3154 256.261 96.6702 260.454 99.1872Z" fill="#FFACFF"/>
<path d="M269.424 84.5576C269.493 85.1492 268.71 85.4194 268.409 84.9064C267.738 83.7574 267.013 82.2492 268.279 82.9742C269.072 83.4256 269.363 84.0138 269.424 84.5576Z" fill="#FFACFF"/>
<path d="M78.3656 137.648C78.3656 137.648 70.3052 139.799 65.1072 130.435C61.6977 124.909 63.9444 115.317 63.9444 115.317C63.9444 115.317 67.4326 115.084 69.7615 117.642C68.3662 109.965 72.3195 106.244 72.3195 106.244L74.4124 107.174C74.4124 107.174 75.77 105.601 78.7315 100.571C78.7315 100.571 89.0045 106.935 87.5238 114.899C86.043 122.864 86.5115 120.197 86.5115 120.197L92.3285 116.941C92.3217 116.944 97.1196 136.81 78.3656 137.648Z" fill="#FFACFF"/>
<path d="M82.2028 132.415C82.2028 132.415 78.3658 135.555 75.223 132.764C72.0837 129.974 72.7813 125.785 72.7813 125.785L74.1766 127.18C74.1766 127.18 73.8278 124.389 76.2695 120.549C78.7112 116.712 78.7112 116.712 78.7112 116.712L80.1065 121.944L82.1994 120.2C82.2028 120.2 87.7873 129.622 82.2028 132.415Z" fill="#9E54C7"/>
<path d="M63.8933 104.455C63.8933 104.455 63.7086 107.81 65.0116 108.928C66.3145 110.047 64.266 105.574 65.9417 102.964L63.8933 104.455Z" fill="#9E54C7"/>
<path d="M74.1422 96.0671C74.1422 96.0671 72.0938 98.6764 73.3967 99.4219C74.6997 100.167 74.1422 96.0671 74.1422 96.0671Z" fill="#FFACFF"/>
<path d="M84.5794 97.0005C84.5794 97.0005 84.3948 99.7945 85.5096 99.049C86.6313 98.3034 85.8858 94.9487 84.5794 97.0005Z" fill="#9E54C7"/>
<path d="M78.4307 87.3091C78.4307 87.3091 80.1064 87.6818 79.9218 89.3575C79.7371 91.0332 78.4307 87.3091 78.4307 87.3091Z" fill="#FFACFF"/>
<path d="M88.4232 285.42C88.3308 286.073 95.2969 289.52 99.77 289.332C104.243 289.144 112.512 289.435 113.323 288.528C114.102 287.656 111.418 286.955 111.418 286.955C111.418 286.955 105.091 284.791 99.3972 283.717C91.9866 282.322 88.5155 284.767 88.4232 285.42Z" fill="#C94039"/>
<path d="M109.041 299.745C109.041 301.26 108.829 315.612 108.528 318.276C108.326 320.055 106.08 321.183 105.864 318.765C105.553 315.301 104.506 310.062 104.353 308.64C103.898 304.375 105.009 300.247 105.009 300.247C105.009 300.247 109.041 299.044 109.041 299.745Z" fill="#F5894E"/>
<path d="M107.461 304.731C107.006 305.264 108.385 315.476 108.084 318.143C107.882 319.921 106.08 321.183 105.864 318.766C105.553 315.301 104.507 310.062 104.353 308.64C103.898 304.375 104.722 300.261 104.722 300.261C104.722 300.261 107.916 304.197 107.461 304.731Z" fill="#CC6D3D"/>
<path d="M109.927 291.476C109.859 292.967 109.985 295.754 109.735 297.792C109.694 298.137 109.77 297.826 109.263 302.833L104.189 302.867L103.963 297.286C103.669 296.352 102.879 290.843 102.865 290.918C103.146 289.52 110.019 289.413 109.927 291.476Z" fill="#273252"/>
<path d="M107.27 318.498C108.945 319.429 109.209 319.582 110.614 320.352C112.122 321.176 106.555 321.368 106.151 320.284C105.744 319.203 105.833 317.698 107.27 318.498Z" fill="#CC6D3D"/>
<path d="M105.656 319.043C105.833 318.65 106.781 318.841 106.965 318.916C107.15 318.992 109.106 319.744 109.106 319.744C109.106 319.744 111.052 320.568 111.585 320.647C113.1 320.869 114.239 321.943 110.563 322.316C109.103 322.463 107.608 321.844 107.608 321.844L107.482 322.299L107.133 322.367C107.133 322.367 105.786 322.456 105.714 322.299C105.618 322.08 105.478 319.436 105.656 319.043Z" fill="#992C29"/>
<path d="M111.329 322.226C111.329 322.226 109.195 322.62 107.605 321.771C107.605 321.771 107.376 321.3 108.111 321.433C110.344 321.84 110.614 322.155 111.329 322.226Z" fill="#C94039"/>
<path d="M109.099 291.476C109.014 293.151 108.603 295.111 108.436 296.694C108.398 297.04 108.35 301.632 107.885 302.378C107.42 303.123 104.359 302.563 104.359 302.563L103.604 296.745C103.334 295.832 102.756 290.822 102.738 290.918C102.988 289.52 109.202 289.413 109.099 291.476Z" fill="#1D2538"/>
<path d="M101.586 283.508C101.586 283.508 102.54 290.016 103.015 291.691C103.491 293.367 109.598 295.48 109.831 293.107C110.064 290.734 110.648 283.788 109.38 281.552C108.111 279.315 101.586 279.873 101.586 283.508Z" fill="#273252"/>
<path d="M101.586 283.508C101.586 283.508 102.444 290.016 102.875 291.691C103.306 293.367 108.805 295.48 109.017 293.107C109.226 290.73 109.756 283.788 108.61 281.552C107.461 279.315 101.586 279.873 101.586 283.508Z" fill="#1D2538"/>
<path d="M94.6782 294.578C94.6782 294.578 94.1413 298.045 93.023 301.612C92.2536 304.067 92.0587 304.963 92.0621 310.144C92.0621 311.331 91.6996 315.517 91.7269 316.338C91.7748 317.764 91.7509 318.773 92.4827 318.636C93.6317 318.417 93.984 317.948 95.2938 312.254C97.0447 304.645 98.9153 294.643 98.9153 294.643L94.6782 294.578Z" fill="#F5894E"/>
<path d="M94.6782 294.578C94.6782 294.578 94.1413 298.045 93.023 301.612C92.2536 304.067 92.0587 304.963 92.0621 310.144C92.0621 311.331 91.3781 316.621 91.4055 317.442C91.4534 318.868 91.7509 318.773 92.4793 318.636C93.6283 318.417 93.1462 316.553 94.4559 310.859C96.2069 303.25 95.6665 302.847 95.6665 302.847L94.6782 294.578Z" fill="#CC6D3D"/>
<path d="M102.185 282.653C102.185 282.653 100.56 292.174 99.3703 294.356C97.7869 297.259 94.6783 296.726 94.4047 294.872C93.9739 291.924 93.6592 286.586 93.9226 283.7C94.2064 280.598 98.7444 278.043 102.185 282.653Z" fill="#273252"/>
<path d="M94.4491 294.174C93.5155 294.653 92.8111 301.588 92.8111 301.588L97.3559 302.494C97.3559 302.494 98.5631 299.406 99.2608 295.108C99.9037 291.151 95.2288 292.71 94.4491 294.174Z" fill="#273252"/>
<path d="M100.704 282.345C100.704 282.345 100.516 287.051 99.5923 290.238C99.3358 291.127 98.6074 294.383 98.3475 294.858C96.7642 297.762 94.6747 296.722 94.4011 294.865C93.9702 291.917 93.6556 286.579 93.9189 283.693C94.2062 280.598 97.2635 277.735 100.704 282.345Z" fill="#1D2538"/>
<path d="M92.1887 316.464C92.5546 316.364 92.9479 316.467 93.2591 316.689C94.48 317.565 94.4047 317.756 96.0052 318.858C97.1611 319.654 91.6587 320.342 91.3577 319.463C91.0944 318.707 90.9781 316.792 92.1887 316.464Z" fill="#CC6D3D"/>
<path d="M91.0156 317.866C91.2687 317.295 91.0464 315.985 92.6879 316.902C94.9894 318.188 95.8751 318.448 96.5283 318.704C97.1815 318.96 97.5337 319.121 98.0296 319.203C99.5001 319.439 99.1307 319.655 97.4551 320.4C96.1658 320.975 93.5326 320.243 93.5326 320.243L93.4334 320.527C93.365 320.725 93.1803 320.855 92.9717 320.855L91.5389 320.759C91.5389 320.759 91.2208 320.646 91.1422 320.448C91.0327 320.171 90.7626 318.437 91.0156 317.866Z" fill="#992C29"/>
<path d="M94.4491 294.174C93.5155 294.653 92.8111 301.588 92.8111 301.588L96.8156 302.357C96.8156 302.357 97.7184 299.221 98.4161 294.926C99.059 290.969 95.2288 292.71 94.4491 294.174Z" fill="#1D2538"/>
<path d="M107.225 265.663L106.668 269.018C106.668 269.018 109.462 274.794 111.048 278.71C112.632 282.622 113.565 284.766 113.47 288.213C113.47 288.213 109.742 286.91 106.295 286.815C102.848 286.722 92.4107 281.688 88.4027 285.416C88.4027 285.416 93.529 275.54 95.5774 270.786C95.5774 270.786 92.8758 259.976 96.3229 258.112C99.7701 256.249 104.151 256.994 105.081 257.459C106.011 257.928 108.993 260.445 107.225 265.663Z" fill="#F7BC4B"/>
<path d="M104.848 265.664L104.291 269.018L107.085 278.895L101.634 281.272L107.365 281.552C107.365 281.552 103.829 282.91 99.2571 283.508C95.2457 284.035 90.2734 283.676 88.4027 285.42C88.4027 285.42 93.529 275.543 95.5774 270.79C95.5774 270.79 92.8758 259.98 96.3229 258.116C99.7701 256.252 104.151 256.998 105.081 257.463C106.011 257.928 106.62 260.445 104.848 265.664Z" fill="#CE9436"/>
<path d="M96.1966 241.978C96.1966 241.978 97.373 243.295 98.5494 243.828C99.4385 244.235 100.136 244.286 100.136 244.286L99.9481 243.945L100.369 243.592C100.369 243.592 98.7375 243.49 96.5283 241.756L96.1966 241.978Z" fill="#EE5D4F"/>
<path d="M96.0769 241.821C96.0769 241.821 96.7335 243.459 97.6534 244.365C98.3476 245.049 98.9871 245.34 98.9871 245.34L98.9255 244.953L99.4385 244.765C99.4385 244.765 97.9406 244.109 96.4599 241.725L96.0769 241.821Z" fill="#EE5D4F"/>
<path d="M96.8256 242.672C97.236 242.583 97.5403 240.353 96.552 240.346C95.6218 240.34 94.572 240.504 94.7772 241.198C94.9789 241.889 96.4152 242.761 96.8256 242.672Z" fill="#992C29"/>
<path d="M97.13 241.4C97.13 241.4 96.9385 240.456 96.6444 240.491C96.3503 240.525 96.6307 240.918 96.7333 241.541C96.8359 242.16 97.2018 241.797 97.13 241.4Z" fill="#F7BC4B"/>
<path d="M96.4633 242.228C96.4633 242.228 96.3812 241.794 97.0002 241.346C97.6192 240.898 98.0945 240.648 98.5083 240.881C98.9221 241.113 99.1102 242.214 98.9016 242.779C98.693 243.343 97.2601 242.98 96.8942 242.785C96.5317 242.59 96.4633 242.228 96.4633 242.228Z" fill="#992C29"/>
<path d="M98.7649 241.763C98.7649 241.763 98.9359 242.641 98.546 242.802C97.9681 243.042 98.269 241.349 98.2895 241.082C98.3135 240.819 98.8435 241.123 98.7649 241.763Z" fill="#F7BC4B"/>
<path d="M103.716 243.486C103.716 243.486 105.748 244.129 106.603 247.012C107.457 249.898 107.379 253.827 103.532 253.827C97.4957 253.827 97.5572 248.968 97.7316 247.867C98.4806 243.165 103.716 243.486 103.716 243.486Z" fill="#CC6D3D"/>
<path d="M103.392 243.393C103.392 243.393 105.423 244.036 106.278 246.919C107.133 249.805 107.054 253.735 103.207 253.735C97.1711 253.735 97.2326 248.875 97.407 247.774C98.1559 243.072 103.392 243.393 103.392 243.393Z" fill="#F5894E"/>
<path d="M104.951 248.705C104.951 248.705 105.614 244.721 103.586 243.254C101.914 242.043 100.396 241.937 98.2619 242.252C98.2619 242.252 101.254 242.005 103.563 244.871C104.376 245.88 104.951 248.705 104.951 248.705Z" fill="#F7BC4B"/>
<path d="M101.774 242.833C101.774 242.833 98.5592 241.157 95.625 243.531C92.6908 245.907 92.5028 247.21 93.0636 248.609C93.621 250.008 93.621 250.008 93.621 250.008C93.621 250.008 91.3845 250.428 91.3845 251.683C91.3845 252.938 91.3708 255.921 95.5771 256.157C98.4908 256.321 98.908 255.271 98.908 255.271C98.908 255.271 104.568 257.087 106.479 254.665C107.905 252.86 108.097 249.96 105.163 249.122C105.163 249.122 104.708 243.254 101.774 242.833Z" fill="#273252"/>
<path d="M100.656 242.833C100.656 242.833 97.1162 240.805 94.5069 243.531C92.4106 245.72 91.7574 247.399 91.9455 248.609C92.1746 250.097 92.5029 250.008 92.5029 250.008C92.5029 250.008 90.2664 250.429 90.2664 251.684C90.2664 252.939 90.2664 255.736 94.459 256.157C98.6517 256.577 99.0723 255.599 99.0723 255.599C99.0723 255.599 105.348 257.09 106.387 253.842C107.133 251.513 107.167 250.347 104.233 249.509C104.229 249.509 103.59 243.254 100.656 242.833Z" fill="#1D2538"/>
<path d="M99.746 242.682C99.746 242.682 100.772 239.42 102.075 239.981C103.378 240.538 101.145 243.243 101.145 243.243C101.145 243.243 103.101 241.099 104.219 241.94C105.337 242.778 104.219 244.83 102.075 244.922C99.9307 245.011 99.746 242.682 99.746 242.682Z" fill="#273252"/>
<path d="M99.3972 242.645C99.3972 242.645 100.423 239.382 101.726 239.943C103.029 240.501 100.796 243.206 100.796 243.206C100.796 243.206 102.752 241.062 103.87 241.903C104.989 242.741 103.87 244.792 101.726 244.885C99.5819 244.977 99.3972 242.645 99.3972 242.645Z" fill="#1D2538"/>
<path d="M105.765 247.878C105.765 247.878 105.064 245.894 104.322 246.257C103.58 246.619 103.658 248.657 105.296 249.468C106.931 250.282 105.765 247.878 105.765 247.878Z" fill="#CC6D3D"/>
<path d="M106.062 248.027C106.062 248.027 105.505 246.454 104.917 246.742C104.329 247.032 104.39 248.646 105.69 249.289C106.993 249.936 106.062 248.027 106.062 248.027Z" fill="#F5894E"/>
<path d="M117.522 280.478C117.697 280.656 118.128 281.292 118.336 281.689C118.401 281.809 118.603 282.048 118.582 282.301C118.531 282.947 118.405 283.344 117.902 283.296C117.779 283.016 117.611 282.109 117.266 281.969C116.903 281.822 116.609 279.555 117.522 280.478Z" fill="#CC6D3D"/>
<path d="M112.307 278.771C112.283 278.727 112.403 278.361 112.954 278.012C113.6 277.605 113.925 277.998 113.925 277.998L120.949 286.278L118.582 288.141L112.307 278.771Z" fill="#1D2538"/>
<path d="M110.987 275.413C110.108 275.974 110.006 277.167 110.731 278.033C111.418 278.853 112.594 279.055 113.377 278.528C114.154 278.005 114.311 276.928 113.713 276.076C113.08 275.18 111.852 274.859 110.987 275.413ZM112.687 277.742C112.362 277.909 111.842 277.769 111.517 277.42C111.185 277.061 111.185 276.627 111.527 276.456C111.866 276.285 112.399 276.446 112.714 276.808C113.025 277.157 113.008 277.574 112.687 277.742Z" fill="#1D2538"/>
<path d="M111.558 275.816C111.052 276.128 110.997 276.812 111.425 277.328C111.51 277.43 111.606 277.516 111.709 277.588C111.64 277.54 111.575 277.482 111.517 277.42C111.186 277.061 111.186 276.627 111.528 276.456C111.866 276.285 112.4 276.446 112.714 276.808C113.022 277.16 113.008 277.574 112.687 277.745C112.485 277.851 112.211 277.834 111.952 277.728C112.311 277.885 112.718 277.878 113.022 277.687C113.49 277.389 113.566 276.747 113.183 276.237C112.789 275.704 112.061 275.509 111.558 275.816Z" fill="#F7BC4B"/>
<path d="M111.76 277.622C111.77 277.629 111.777 277.636 111.788 277.639C111.777 277.632 111.77 277.629 111.76 277.622Z" fill="#F6BE4A"/>
<path d="M111.876 277.688C111.893 277.694 111.907 277.701 111.924 277.711C111.907 277.705 111.89 277.694 111.876 277.688Z" fill="#F6BE4A"/>
<path d="M112.636 278.378C112.622 278.392 112.605 278.402 112.584 278.406C112.43 278.43 112.283 278.43 112.15 278.406C112.102 278.395 112.071 278.344 112.085 278.293C112.099 278.238 112.146 278.204 112.198 278.214C112.311 278.235 112.437 278.238 112.571 278.214C112.622 278.207 112.666 278.242 112.67 278.296C112.67 278.327 112.656 278.358 112.636 278.378Z" fill="#3E4C6F"/>
<path d="M115.648 281.63C116.082 281.169 116.24 280.707 116.24 280.707L119.663 284.763C120.049 285.184 121.161 286.415 121.161 286.415C121.161 286.415 118.982 288.193 118.613 288.408C118.613 288.408 117.604 286.859 117.337 286.404L114.667 282.379C114.667 282.372 115.214 282.095 115.648 281.63Z" fill="#C94039"/>
<path d="M115.528 283.614L115.197 283.039C115.197 283.039 115.775 282.69 116.677 281.726C116.677 281.726 116.92 281.887 115.528 283.614Z" fill="#1D2538"/>
<path d="M116.212 280.676C116.212 280.676 115.087 281.853 114.458 282.075L114.065 281.391C114.065 281.391 115.6 280.55 115.864 280.266L116.212 280.676Z" fill="#C73F37"/>
<path d="M117.44 282.13L117.574 282.291C117.574 282.291 116.684 283.354 115.843 283.829L117.44 282.13Z" fill="#1D2538"/>
<path d="M116.134 284.592L116.469 285.091C116.469 285.091 117.707 284.219 118.189 283.008C118.189 283.008 116.978 284.475 116.134 284.592Z" fill="#1D2538"/>
<path d="M117.338 286.397L116.838 285.635C116.838 285.635 118.24 285.026 118.955 283.901L120.029 285.166C120.029 285.17 119.078 285.515 117.338 286.397Z" fill="#1D2538"/>
<path d="M117.946 287.355L118.203 287.779C118.203 287.779 119.591 287.359 120.33 286.042C120.33 286.045 118.363 287.502 117.946 287.355Z" fill="#1D2538"/>
<path d="M125.182 286.117C125.073 286.155 125.005 286.247 124.912 286.315L116.917 292.604C116.807 292.679 116.565 292.625 115.925 292.519C115.494 292.447 115.077 292.211 115.214 291.78C115.395 291.216 115.491 290.487 115.689 290.371L123.531 284.499C123.654 284.41 124.242 284.328 124.485 284.294C124.758 284.257 124.923 284.103 125.254 284.164C125.5 284.209 125.647 284.462 125.63 284.766L125.182 286.117Z" fill="#C94039"/>
<path d="M124.947 285.734C124.906 285.843 124.834 285.942 124.738 286.014L116.442 292.231C116.418 292.248 115.371 292.235 115.221 291.971C115.07 291.708 115.535 290.463 115.535 290.463C115.535 290.463 123.869 284.014 124.027 284.031C124.314 284.065 124.68 284.021 125.029 284.082C125.289 284.13 125.439 284.393 125.35 284.64L124.947 285.734Z" fill="#F5894E"/>
<path d="M124.947 285.735C124.906 285.844 124.834 285.943 124.738 286.015L122.809 285.96L115.535 290.461C115.535 290.461 123.869 284.011 124.027 284.028C124.382 284.014 124.68 284.018 125.029 284.079C125.289 284.127 125.439 284.391 125.35 284.637L124.947 285.735Z" fill="#FEED7F"/>
<path opacity="0.5" d="M133.12 301.769L131.488 299.631L125.846 298.759L127.402 300.883L133.12 301.769Z" fill="#FEED7F"/>
<path opacity="0.5" d="M130.983 299.03L130.323 298.237L124.68 297.365L125.265 298.144L130.983 299.03Z" fill="#FEED7F"/>
<path d="M123.743 286.896L123.233 286.824C123.059 286.797 123.024 286.807 122.994 286.985L122.877 287.543L123.743 286.896Z" fill="#C94039"/>
<path d="M142.463 313.16C142.463 313.16 123.541 289.198 123.281 288.825C123.021 288.452 122.748 288.1 122.748 288.1C122.57 287.956 122.389 288.042 121.739 288.582L119.061 290.678L138.048 316.604C138.14 316.734 141.97 317.749 141.97 317.749C142.062 317.712 142.237 317.784 142.326 317.411L142.661 313.676C142.651 313.41 142.541 313.263 142.463 313.16Z" fill="#F7BC4B"/>
<path d="M142.463 313.16C142.463 313.16 123.548 289.167 123.288 288.795C123.025 288.422 122.624 287.926 122.624 287.926C122.624 287.926 122.6 287.909 122.259 288.182L142.062 313.725C142.062 313.725 142.237 317.784 142.326 317.411L142.661 313.677C142.651 313.41 142.541 313.263 142.463 313.16Z" fill="#F5894E"/>
<path d="M133.308 301.708L134.098 302.627C134.17 302.686 134.05 302.802 133.882 302.836L132.744 303.069C132.641 303.089 132.573 303.055 132.59 302.993L133.058 301.735C133.085 301.636 133.233 301.649 133.308 301.708Z" fill="#F5894E"/>
<path d="M133.701 310.646L134.659 310.773L134.426 311.628L133.701 310.646Z" fill="#F5894E"/>
<path d="M135.38 311.909L136.683 311.84L135.934 312.75L135.38 311.909Z" fill="#F5894E"/>
<path d="M142.158 317.647L120.747 289.379" stroke="#F3E7D9" stroke-miterlimit="10"/>
<path d="M130.428 306.119L131.02 305.675L131.991 306.191L131.998 307.197L134.036 307.764L134.819 307.993" stroke="#F3E7D9" stroke-miterlimit="10"/>
<path d="M110.019 263.334C110.019 263.334 112.255 268.737 112.72 270.509C112.919 271.258 113.23 272.691 112.71 273.2C112.002 273.894 110.292 273.423 109.646 272.188C108.528 270.044 105.871 265.106 106.243 263.803C106.62 262.493 109.041 261.098 110.019 263.334Z" fill="#F5894E"/>
<path d="M108.48 264.498C108.48 264.498 110.436 268.69 111.205 270.578C111.616 271.583 110.764 274.329 109.646 272.185C108.528 270.041 105.871 265.103 106.243 263.8C106.62 262.494 107.502 262.261 108.48 264.498Z" fill="#CC6D3D"/>
<path d="M115.47 281.131C115.47 281.131 117.252 281.412 115.702 278.242C114.509 275.8 113.897 273.584 113.127 271.556C112.399 269.637 109.82 270.998 109.913 272.394C110.005 273.792 111.106 275.215 112.255 277.308C113.839 280.201 114.352 281.224 115.47 281.131Z" fill="#F5894E"/>
<path d="M115.47 281.131C115.47 281.131 116.985 281.678 115.436 278.512C114.242 276.07 112.56 272.725 111.418 270.858C110.091 268.69 109.181 269.948 109.273 271.347C109.366 272.746 111.106 275.218 112.255 277.311C113.839 280.201 114.352 281.223 115.47 281.131Z" fill="#CC6D3D"/>
<path d="M114.119 279.921C114.119 279.921 114.461 278.929 115.75 279.281C116.667 279.531 116.609 279.555 117.522 280.482C117.696 280.659 118.103 281.343 118.315 281.74C118.527 282.137 116.595 282.349 116.499 282.438C116.315 282.612 116.489 283.997 116.489 283.997L116.77 284.941C116.77 284.941 117.002 285.639 117.094 285.919C117.187 286.199 116.756 286.199 116.575 286.066C116.393 285.933 115.894 285.256 115.894 285.256C115.597 285.386 115.511 285.502 114.81 284.26C114.598 283.888 114.253 283.211 114.253 283.211C114.253 283.211 113.839 281.039 114.119 279.921Z" fill="#CC6D3D"/>
<path d="M105.967 256.906C105.967 256.906 107.225 256.721 108.343 258.954C109.462 261.191 110.255 263.708 110.255 263.708L106.48 265.383C106.48 265.383 105.594 264.963 104.616 260.63C103.754 256.813 105.967 256.906 105.967 256.906Z" fill="#C94039"/>
<path d="M106.664 257.042C106.664 257.042 106.49 260.304 106.698 260.793C106.907 261.283 108.552 264.429 108.552 264.429L106.48 265.383C106.48 265.383 105.594 264.962 104.616 260.629C104.185 258.721 104.431 257.367 105.221 256.994C105.898 256.68 106.664 257.042 106.664 257.042Z" fill="#992C29"/>
<path d="M107.109 259.921C107.109 259.921 106.797 261.857 107.461 262.876L107.991 263.406C107.991 263.403 107.033 260.298 107.109 259.921Z" fill="#992C29"/>
<path d="M103.402 256.064C101.942 256.064 94.0387 256.669 92.64 258.906C90.3522 262.565 88.68 266.734 86.7238 268.273C84.7677 269.811 75.6814 273.303 72.1864 272.886C68.6914 272.469 66.7353 271.768 64.3585 274.842C61.9818 277.916 56.9513 283.788 55.9733 284.205C55.9733 284.205 62.358 285.416 64.1739 284.578C65.9898 283.74 68.9274 283.925 73.4004 285.604C77.8735 287.28 79.4124 286.025 79.4124 286.025C79.4124 286.025 83.3246 283.508 86.2622 280.293C89.1963 277.078 95.2083 276.986 97.9099 274.982C100.612 272.978 102.085 271.939 103.549 267.948C104.421 265.564 106.107 261.365 106.299 260.072C106.569 258.256 106.446 256.82 106.114 256.625C105.43 256.228 104.52 256.064 103.402 256.064Z" fill="#1689CB"/>
<path d="M103.44 258.061C103.44 258.061 99.6095 261.378 95.516 262.561C93.9156 263.026 92.3391 262.978 90.9438 261.122C89.552 259.265 90.3317 257.332 91.4021 255.445C92.4724 253.557 94.9313 253.981 98.4981 253.769C102.065 253.557 105.225 254.494 103.44 258.061Z" fill="#29ABE2"/>
<path d="M102.472 254.2C103.382 254.898 93.56 259.104 92.7564 258.372C91.9562 257.64 92.1237 255.787 93.112 254.552C93.8233 253.663 94.8493 253.872 97.8279 253.766C100.502 253.673 101.562 253.502 102.472 254.2Z" fill="#992C29"/>
</svg>
