<svg width="310" height="239" viewBox="0 0 310 239" fill="none" xmlns="http://www.w3.org/2000/svg">
<path d="M304.792 219.812C296.874 208.495 242.93 167.543 158.114 170.922C86.1776 173.788 35.8647 206.965 28.1868 210.696C20.509 214.426 23.7092 216.915 45.4627 213.804C67.2162 210.693 78.0917 211.315 78.0917 211.315L76.8116 214.424C76.8116 214.424 59.4848 228.989 58.2073 233.964C56.9272 238.939 63.9651 239.561 71.6429 236.453C79.3208 233.344 135.674 222.509 142.712 221.887C149.75 221.265 162.156 225.243 167.273 225.863C172.391 226.485 206.173 237.014 213.274 237.628C220.376 238.245 216.816 226.778 207.828 210.566C203.845 203.38 240.668 221.642 248.986 223.509C257.304 225.376 245.064 214.429 243.784 212.565C242.504 210.701 291.147 223.129 301.385 228.726C311.62 234.328 312.709 231.128 304.792 219.812Z" fill="#F4E8D8"/>
<path d="M114.314 165.58C114.314 165.58 52.141 176.99 26.9909 140.197C1.84085 103.404 24.9459 50.2789 72.4512 40.0332C72.4512 40.0332 22.5668 60.7923 40.2659 112.021C57.965 163.249 114.314 165.58 114.314 165.58Z" fill="#F4E8D8"/>
<path d="M260.247 147.146C273.766 134.072 275.615 122.934 283.237 109.909C290.859 96.8838 298.947 89.7491 298.947 89.7491C298.947 89.7491 294.015 89.7414 281.857 100.693C271.035 110.442 260.247 133.024 260.247 133.024C262.684 121.779 261.97 107.594 261.97 107.594C247.795 138.586 198.349 160.515 184.376 153.37C184.378 153.37 221.233 184.872 260.247 147.146Z" fill="#F4E8D8"/>
<path d="M229.813 95.721C232.141 95.721 273.598 76.5403 275.454 57.9972C276.852 44.026 274.057 23.0681 240.059 12.3558C201.488 0.202771 185.569 6.30223 170.667 10.4918C170.667 10.4918 212.117 4.43822 237.731 22.6014C280.552 52.9687 229.813 95.721 229.813 95.721Z" fill="#F4E8D8"/>
<path d="M210.717 46.8208C210.717 46.8208 183.239 21.2067 156.227 25.3988C137.352 28.3287 88.2304 40.3822 80.7794 70.1069C75.677 90.4707 98.476 98.5158 98.476 98.5158C98.476 98.5158 84.0383 90.5982 91.0251 71.0376C98.0119 51.477 141.323 30.5191 168.801 32.3831C196.279 34.2471 210.717 46.8208 210.717 46.8208Z" fill="#F4E8D8"/>
<path d="M71.9337 72.435C71.9337 72.435 49.1143 92.9263 63.0854 105.036C77.0565 117.146 105.932 106.9 105.932 106.9C105.932 106.9 85.4407 108.764 76.1258 97.121C66.8108 85.4754 71.9337 72.435 71.9337 72.435Z" fill="#F4E8D8"/>
<path d="M26.9909 140.197C26.9909 140.197 -6.54083 125.527 1.14469 96.8865C8.83021 68.2456 22.1026 81.518 22.1026 81.518C22.1026 81.518 19.3079 54.9731 33.9777 46.5889C48.6475 38.2047 54.237 43.5622 54.237 43.5622C54.237 43.5622 61.2238 36.1112 64.7147 37.5086C66.2676 38.1308 66.4843 39.3012 66.2498 40.413C65.9336 41.9022 56.8175 46.7343 55.3998 47.2876C51.2995 48.8915 47.7831 50.2915 39.3326 58.9307C26.9501 71.5886 22.7401 89.7339 23.4975 105.271C24.8948 133.909 26.9909 140.197 26.9909 140.197Z" fill="#F4E8D8"/>
<path d="M69.1388 78.4887C69.1388 78.4887 75.659 67.3123 67.2748 65.4483C58.8906 63.5843 58.4265 81.2834 58.4265 81.2834C58.4265 81.2834 55.6318 77.0913 51.4397 84.5422C47.2476 91.9931 56.5625 103.172 63.0827 105.034C69.6055 106.898 66.3441 84.5448 69.1388 78.4887Z" fill="#F4E8D8"/>
<path d="M264.857 69.6405C264.857 69.6405 278.655 68.0391 285.465 52.5253C291.754 38.2048 285.465 28.7726 278.129 26.6791C270.793 24.5831 264.857 27.7271 264.857 27.7271C264.857 27.7271 271.145 9.56391 255.427 7.46785C239.709 5.3718 240.059 12.3586 240.059 12.3586C240.059 12.3586 234.819 4.67312 227.485 1.53159C220.149 -1.61248 220.498 8.51843 220.498 8.51843C220.498 8.51843 213.511 0.83291 203.732 2.92896C193.953 5.02501 194.208 7.40666 198.75 7.756C203.291 8.10534 230.568 8.15379 248.382 26.317C266.196 44.4802 264.857 69.6405 264.857 69.6405Z" fill="#F4E8D8"/>
<path d="M116.642 38.9033C116.642 38.9033 132.127 19.3427 153.432 16.548C170.476 14.3117 161.918 26.2479 164.376 24.9322C170.897 21.4387 179.067 18.361 182.308 20.276C187.43 23.3027 183.006 27.0282 183.006 27.0282C183.006 27.0282 197.676 35.1778 199.772 39.602C200.004 40.7673 187.632 30.3406 171.595 29.1243C153.2 27.7269 116.642 38.9033 116.642 38.9033Z" fill="#F4E8D8"/>
<path d="M75.0827 127.996C75.0827 127.996 74.2642 125.02 73.3283 122.888C72.4333 120.848 71.7474 122.264 71.3113 124.276C70.8549 126.384 71.0691 129.59 71.0614 130.355C71.0538 131.122 74.9501 130.686 75.0827 127.996Z" fill="#1D2538"/>
<path d="M83.3573 153.225C85.5962 152.356 90.3926 146.511 89.4364 142.467C88.4801 138.423 87.5265 132.428 86.2744 130.187C86.2744 130.187 86.0781 125.938 85.6726 123.656C85.2698 121.377 84.668 121.275 83.8673 122.376C83.0666 123.478 82.0058 127.231 82.0058 127.231C82.0058 127.231 76.6688 125.094 72.3696 126.953C68.0704 128.812 66.7572 131.727 66.4028 134.213L66.2727 134.394C66.2727 134.394 61.563 135.557 59.3471 136.47C57.1312 137.383 56.4605 138.52 57.4652 140.901C58.4699 143.283 58.6382 144.474 59.9998 145.349C61.3615 146.223 67.3743 148.131 70.4597 148.584C70.4597 148.584 71.7704 154.146 72.821 155.63C73.8715 157.117 81.121 154.097 83.3573 153.225Z" fill="#273150"/>
<path d="M84.0406 146.358C84.0406 146.358 90.3925 146.511 89.4388 142.467C88.4851 138.423 87.5289 132.428 86.2769 130.187C86.2769 130.187 86.0805 125.938 85.6751 123.656C85.2722 121.377 84.6704 121.275 83.8698 122.376C83.0691 123.478 82.0083 127.231 82.0083 127.231C82.0083 127.231 76.6713 125.094 72.3721 126.953C72.3721 126.953 77.3572 127.081 79.2952 128.94C81.2331 130.799 83.6428 138.41 83.6428 138.41C83.6428 138.41 78.1808 145.06 78.5098 145.527C79.5578 147.014 84.0406 146.358 84.0406 146.358Z" fill="#1D2538"/>
<path d="M74.0143 128.062C74.0143 128.062 73.3921 125.155 72.9433 123.225C72.4384 121.055 71.3853 122.302 70.9492 124.314C70.4928 126.423 70.248 128.588 70.2404 129.355C70.2353 130.123 74.1647 129.939 74.0143 128.062Z" fill="#273150"/>
<path d="M73.1545 132.971C73.488 132.02 73.2433 131.068 72.608 130.845C71.9728 130.623 71.1875 131.214 70.854 132.165C70.5206 133.117 70.7652 134.069 71.4005 134.291C72.0358 134.514 72.8211 133.923 73.1545 132.971Z" fill="#121721"/>
<path d="M57.0037 138.767C56.843 140.083 57.5111 140.687 57.8452 141.429C58.3016 142.442 61.0836 140.547 61.2468 139.231C61.4074 137.915 61.4227 136.064 59.852 136.355C58.758 136.559 57.1643 137.451 57.0037 138.767Z" fill="#121721"/>
<path d="M77.054 146.835C77.054 146.835 71.003 149.944 70.623 148.521C67.5937 148.11 62.7106 146.529 62.7106 146.529L70.8984 146.524L77.054 146.835Z" fill="#1D2538"/>
<path d="M105.761 150.728C105.529 149.973 104.828 145.857 103.93 144.394C103.035 142.93 100.776 139.567 98.0729 139.664C98.0729 139.664 99.6258 137.713 104.486 140.087C109.346 142.458 110.027 149.568 110.081 150.169C110.315 152.857 106.421 152.88 105.761 150.728Z" fill="#1D2538"/>
<path d="M72.0609 187.11C72.4944 185.843 74.1977 184.497 74.1977 184.497C74.3609 184.211 74.927 183.637 74.9703 183.364C75.3095 181.278 76.2351 175.587 76.2886 174.677C76.4034 172.785 75.5645 167.149 75.72 162.817C75.8756 158.485 82.4621 161.891 82.7655 166.076C82.9822 169.059 80.9066 181.268 80.6898 182.462L79.0808 186.363C78.4867 187.194 76.8369 187.786 75.1412 187.868C73.448 187.944 71.6376 188.349 72.0609 187.11Z" fill="#1D2538"/>
<path d="M101.056 163.138C99.4141 162.595 96.8616 164.01 96.8335 166.338C96.8106 168.32 105.82 176.151 105.82 176.151L106.324 177.747C106.324 177.747 105.055 179.213 105.598 180.001C105.725 180.187 107.462 179.881 108.862 179.601C109.887 179.394 110.616 178.904 110.613 178.412L110.608 177.793L111.139 175.442L104.937 168.988C104.94 168.99 103.3 163.883 101.056 163.138Z" fill="#1D2538"/>
<path d="M78.0508 146.903C78.0508 146.903 84.8489 142.043 90.8184 144.715C96.1554 147.104 98.588 147.507 104.54 147.596C108.278 147.652 110.846 160.805 110.07 163.365C108.668 168.149 92.1571 168.572 90.0406 168.644C83.8035 168.855 78.5888 165.663 76.0159 164.444C73.7082 163.35 70.3092 157.011 73.1957 152.184C74.2973 150.343 75.5672 148.349 78.0508 146.903Z" fill="#273150"/>
<path d="M79.7464 147.395C83.6299 144.297 84.8463 142.045 90.8182 144.715C96.1553 147.104 100.194 147.586 106.143 147.767C112.878 147.974 111.973 159.29 109.994 164.14C108.492 167.822 92.1569 168.572 90.043 168.643C90.043 168.643 95.7549 164.946 95.4744 162.317C95.1965 159.688 88.6431 155.825 88.6431 155.825C85.4863 152.62 78.3694 148.494 79.7464 147.395Z" fill="#1D2538"/>
<path d="M83.329 186.689C83.3213 185.545 86.1416 182.778 86.1237 182.497C85.8356 177.765 84.6473 173.284 84.4586 172.206C84.0736 169.992 81.5695 166.241 80.7076 161.458C79.8764 156.847 88.0923 159.109 89.1683 164.423C89.788 167.488 91.3179 178.022 91.7106 180.899C91.7667 181.304 91.7412 181.715 91.6367 182.112L89.9971 185.606C89.8058 186.608 88.2198 187.47 86.2793 187.584C84.3388 187.699 83.3417 188.247 83.329 186.689Z" fill="#273150"/>
<path d="M110.154 158.393C108.104 156.524 103.545 158.979 102.714 159.739C101.842 160.537 105.651 165.553 105.842 166.254C106.041 166.986 114.482 171.64 116.195 173.001C118.049 174.475 116.499 176.5 117.605 177.132C118.166 177.453 122.845 176.472 122.547 174.636C122.267 172.902 120.426 170.171 120.38 170.033C120.29 169.765 113.043 164.143 112.87 163.793C112.704 163.452 110.761 158.949 110.154 158.393Z" fill="#1D2538"/>
<path d="M89.6707 142.662C89.6707 142.662 90.9023 143.97 91.2134 145.123C91.2134 145.123 87.4625 147.833 80.7 151.056C77.0766 152.783 71.4794 154.369 71.4794 154.369L70.666 151.332C70.6686 151.329 82.1025 148.328 89.6707 142.662Z" fill="#992C29"/>
<path d="M70.7094 151.362C70.7094 151.362 68.7434 155.393 69.0596 157.421L74.1314 159.045C74.1314 159.045 72.1628 153.144 70.7094 151.362Z" fill="#C93F37"/>
<path d="M70.7095 151.362C72.2088 152.853 74.1315 159.045 74.1315 159.045C74.1315 159.045 71.4872 156.938 71.2169 156.128C70.9466 155.317 70.7095 151.362 70.7095 151.362Z" fill="#992C29"/>
<path d="M71.5024 153.369C71.5024 153.369 75.131 156.554 76.7528 156.952L77.1735 154.259C77.1761 154.259 74.5471 152.931 71.5024 153.369Z" fill="#992C29"/>
<path d="M156.23 105.263L132.477 103.866C125.74 102.966 125.809 93.7502 125.959 86.8909L126.268 63.0311C126.405 56.3706 130.195 51.8215 136.927 51.8215H156.459C164.012 51.8215 168.569 56.34 168.569 63.6915L170.433 93.9287C170.433 101.591 163.999 106.319 156.23 105.263Z" fill="#634874"/>
<path d="M131.497 58.9968C133.693 53.9301 127.627 49.3147 121.846 47.3232C113.64 44.4979 112.669 42.9908 109.305 41.2416C105.174 39.092 101.671 38.3015 99.1667 40.1859C96.6652 42.0703 96.1221 45.3342 97.6036 46.7571C101.1 50.1205 102.767 50.8702 107.217 54.0499C115.366 59.8715 119.719 61.1362 122.353 62.8982C126.767 65.8536 128.871 65.058 131.497 58.9968Z" fill="#A86243"/>
<path d="M133.213 59.7747C135.409 54.708 102.765 50.8703 107.214 54.0476C115.364 59.8691 119.717 61.1339 122.351 62.8959C126.767 65.8538 130.59 65.8359 133.213 59.7747Z" fill="#D77E5B"/>
<path d="M104.065 33.8954C102.29 36.4581 99.4624 40.8644 101.857 43.2614C103.583 44.9877 102.841 46.7191 105.394 45.4798C108.262 44.085 110.037 37.5648 110.113 37.4092C111.462 34.6783 105.86 31.3072 104.065 33.8954Z" fill="#7A4630"/>
<path d="M114.395 19.4243C114.395 19.4243 102.793 28.1298 99.7454 31.539C96.7314 34.9126 94.1075 39.0282 95.8542 43.664C96.915 46.4791 98.1339 48.3839 101.908 47.16C106.24 45.7549 109.575 39.6274 111.322 35.726C113.666 30.5012 116.674 27.8646 118.452 26.0414C120.731 23.7031 120.555 16.3184 114.395 19.4243Z" fill="#A86243"/>
<path d="M130.755 17.6216L130.962 21.1354L128.69 21.755L126.897 18.741L130.755 17.6216Z" fill="#273150"/>
<path d="M112.286 23.8487L114.943 19.6056C114.943 19.6056 120.538 17.5121 123.763 17.275C126.989 17.0378 128.82 18.555 128.82 18.555L129.093 24.7743C129.123 25.4756 128.659 26.1131 128.024 26.2457L127.032 26.4522L125.505 26.3783L125.446 27.2121C125.418 27.6303 125.151 27.9949 124.781 28.1224L122.779 28.8084L119.801 29.4586C119.801 29.4586 117.554 28.89 117.791 27.3906C118.029 25.8912 113.645 28.7574 112.286 23.8487Z" fill="#A86243"/>
<path d="M108.917 23.6165L111.108 27.3369L116.616 25.5595C117.093 25.4066 117.353 24.7512 117.167 24.1698C116.955 23.5068 116.376 23.1677 115.841 23.3896L112.082 24.4401L111.353 22.7852L108.917 23.6165Z" fill="#273150"/>
<path d="M104.883 10.3314C99.294 12.4275 75.3093 19.6464 75.3093 19.6464C75.1537 20.8117 75.4648 25.6999 76.3191 26.2431C76.3191 26.2431 79.8125 30.8992 100.923 26.3986C125.571 21.1432 150.846 10.7675 150.846 10.7675L150.443 4.04327C150.446 4.04582 110.47 8.23538 104.883 10.3314Z" fill="#B44C29"/>
<path d="M103.252 6.52939C97.6114 8.48264 78.4129 14.5643 75.6182 18.8329C73.4354 22.1682 80.8965 25.2357 107.908 18.9501C134.92 12.6645 145.632 7.03428 149.589 5.17282C153.547 3.30881 144.349 0.904221 127.313 0.0117416C123.412 -0.194804 115.362 2.33729 103.252 6.52939Z" fill="#F08650"/>
<path d="M76.3956 21.5867L85.3995 18.4808L77.6374 22.6729L76.3956 21.5867Z" fill="#B44C29"/>
<path d="M127.527 0.261719L112.449 5.21115C112.452 5.2086 127.497 0.917053 127.527 0.261719Z" fill="#B44C29"/>
<path d="M96.6167 16.969C99.0621 15.8037 88.7654 18.9733 83.5763 21.1611C83.5763 21.1611 94.1713 18.1318 96.6167 16.969Z" fill="#B44C29"/>
<path d="M139.813 9.63235L138.647 8.23499L142.605 8.81892L139.813 9.63235Z" fill="#B44C29"/>
<path d="M98.3634 21.6253L100.11 19.7638L102.204 21.2759L98.3634 21.6253Z" fill="#B44C29"/>
<path d="M118.261 8.15106C118.926 9.12514 117.371 10.6729 113.923 11.8765C108.974 13.6028 102.354 13.9598 101.556 11.9607C100.804 10.0737 106.125 7.86291 111.21 7.21268C114.841 6.74604 117.613 7.20503 118.261 8.15106Z" fill="#B44C29"/>
<path d="M117.942 7.33509C118.5 8.04398 116.901 9.36994 113.528 10.571C108.685 12.2947 102.359 13.0827 101.755 11.5858C101.184 10.1732 106.416 8.04143 111.304 7.14385C114.795 6.50381 117.399 6.64661 117.942 7.33509Z" fill="#F08650"/>
<path d="M157.071 52.3824C158.063 48.9068 163.42 50.9927 166.095 52.6731C170.351 55.3429 169.905 57.3267 172.789 58.8312C177.998 61.5494 192.413 71.5044 188.478 76.0356C184.546 80.5669 177.945 76.538 172.794 73.3276C169.107 71.0301 162.563 66.1087 158.881 62.5056C157.349 61.0063 156.079 55.8579 157.071 52.3824Z" fill="#A86243"/>
<path d="M187.578 82.6835C189.476 79.5752 191.424 76.7753 188.848 73.6619C184.814 68.7889 181.65 71.4562 178.939 74.794C176.275 78.0784 176.287 79.1748 173.855 82.4796C171.404 85.8072 166.689 90.5884 166.689 90.5884C166.689 90.5884 162.699 94.1583 164.601 96.8383C166.608 99.6687 168.026 99.6993 170.247 98.4881C173.488 96.7235 186.151 85.0244 187.578 82.6835Z" fill="#A86243"/>
<path d="M124.628 168.075C124.569 168.095 124.511 168.123 124.455 168.154C123.61 168.618 116.718 172.346 115.917 173.346C115.262 174.164 115.68 177.181 115.91 178.537C115.981 178.958 116.274 179.302 116.677 179.442C118.309 180.006 122.608 181.505 126.778 181.085C132.005 180.557 131.844 178.588 135.735 176.727C138.28 175.51 139.831 174.725 140.601 174.33C140.97 174.139 141.131 173.769 141.152 173.353L141.366 168.794C141.391 168.223 141.075 167.715 140.514 167.603C137.921 167.073 130.615 165.915 124.628 168.075Z" fill="#29ACE4"/>
<path d="M124.539 168.108C124.539 168.108 116.618 172.433 115.767 173.496C114.915 174.559 115.723 178.226 115.723 178.226C115.723 178.226 121.392 180.48 126.619 179.953C131.847 179.425 131.844 177.683 135.735 175.822C138.749 174.381 140.369 173.547 140.945 173.244C141.1 173.162 141.2 173.006 141.208 172.833L141.445 168.498C141.468 168.1 141.197 167.746 140.81 167.664C138.517 167.172 130.791 165.813 124.539 168.108Z" fill="#13161F"/>
<path d="M120.678 170.16C120.678 170.16 124.635 168.763 128.516 170.548" stroke="#29ACE4" stroke-width="2" stroke-miterlimit="10" stroke-linecap="round" stroke-linejoin="round"/>
<path d="M123.549 168.452C123.549 168.452 127.507 167.055 131.388 168.839" stroke="#29ACE4" stroke-width="2" stroke-miterlimit="10" stroke-linecap="round" stroke-linejoin="round"/>
<path d="M166.817 168.245C171.205 169.78 177.57 171.272 177.868 173.235C178.167 175.184 178.373 177.239 178.202 177.968C178.072 178.519 177.838 178.848 177.414 179.029C176.336 179.49 174.184 180.597 169.831 181.031C167.952 181.219 163.826 180.209 161.309 178.345C159.31 176.864 156.91 175.14 156.01 174.495C155.776 174.327 155.62 174.072 155.579 173.786L155.25 171.578C155.184 171.127 155.411 170.68 155.819 170.474C157.729 169.505 163.237 166.993 166.817 168.245Z" fill="#29ACE4"/>
<path d="M168.587 167.34C172.419 168.786 177.664 170.971 177.963 173.139C178.23 175.092 178.35 176.166 178.297 176.913C178.271 177.277 177.389 177.451 176.958 177.632C175.862 178.093 173.671 179.203 169.247 179.641C167.335 179.83 163.581 179.266 161.026 177.405C158.897 175.854 156.324 174.039 155.523 173.475C155.363 173.363 155.255 173.19 155.222 172.996L154.901 171.091C154.763 170.27 155.23 169.469 156.013 169.189C158.859 168.161 165.177 166.055 168.587 167.34Z" fill="#13161F"/>
<path d="M166.164 171.479C166.164 171.479 169.734 168.22 173.771 169.462" stroke="#29ACE4" stroke-width="2" stroke-miterlimit="10" stroke-linecap="round" stroke-linejoin="round"/>
<path d="M163.68 169.926C163.68 169.926 167.406 166.976 171.442 168.217" stroke="#29ACE4" stroke-width="2" stroke-miterlimit="10" stroke-linecap="round" stroke-linejoin="round"/>
<path d="M165.542 103.173C165.542 103.173 166.692 118.404 168.801 130.651C169.938 137.255 171.004 149.079 171.677 157.69C172.131 163.494 172.503 167.872 172.233 168.071C171.567 168.566 168.352 167.605 162.477 169.076C156.678 170.529 154.291 171.368 154.291 171.368L153.381 168.569C153.381 168.569 152.835 167.266 153.549 161.893C153.761 160.304 151.943 157.838 151.683 155.814C150.025 142.84 147.628 123.019 146.443 109.693C144.635 89.3343 161.747 86.1188 165.542 103.173Z" fill="#F6BE4A"/>
<path opacity="0.5" d="M165.542 103.173C165.542 103.173 166.692 118.404 168.801 130.651C170.098 138.189 171.118 151.058 171.993 160.016C172.177 161.895 172.863 162.053 172.99 163.507C173.143 165.259 172.886 167.775 172.128 168.173C171.307 168.604 168.354 167.605 162.479 169.076C156.681 170.529 154.294 171.368 154.294 171.368L153.384 168.569C153.098 167.24 153.055 166.58 153.552 161.893C153.72 160.322 151.93 157.726 151.685 155.814C150.028 142.791 147.598 122.654 146.445 109.693C144.635 89.3343 161.747 86.1188 165.542 103.173Z" fill="#F6BE4A"/>
<path d="M126.79 102.306C126.79 102.306 125.959 119.676 125.518 130.027C125.199 137.47 124.202 168.046 124.202 168.046C124.202 168.046 125.513 167.541 131.074 167.715L139.056 171.262C139.056 171.262 140.846 171.746 141.317 171.476C141.789 171.208 143.069 169.951 143.194 166.896C143.592 157.183 143.666 136.016 143.52 134.448C143.388 133.033 143.523 116.68 144.589 104.558C145.056 99.2462 142.608 94.7991 135.585 92.9861C128.843 91.2471 126.966 96.9589 126.79 102.306Z" fill="#F6BE4A"/>
<path d="M168.803 130.651C170.088 138.117 171.103 150.808 171.97 159.756C172.034 160.401 172.863 162.031 172.924 162.632C173.271 166.052 172.656 168.209 171.983 168.349C171.307 168.487 168.357 167.605 162.482 169.076C156.683 170.53 154.296 171.369 154.296 171.369L153.386 168.569C153.386 168.569 159.2 160.264 162.283 154.868C163.214 153.239 166.801 148.399 167.755 141.945C168.647 135.907 168.285 127.652 168.803 130.651Z" fill="#F6BE4A"/>
<path d="M145.905 111.557C156.236 111.557 164.611 105.432 164.611 97.8768C164.611 90.3213 156.236 84.1964 145.905 84.1964C135.573 84.1964 127.198 90.3213 127.198 97.8768C127.198 105.432 135.573 111.557 145.905 111.557Z" fill="#F6BE4A"/>
<path opacity="0.5" d="M145.905 111.557C156.236 111.557 164.611 105.432 164.611 97.8768C164.611 90.3213 156.236 84.1964 145.905 84.1964C135.573 84.1964 127.198 90.3213 127.198 97.8768C127.198 105.432 135.573 111.557 145.905 111.557Z" fill="#F6BE4A"/>
<path d="M143.11 97.7009C143.597 94.8271 141.498 96.6299 139.869 97.5836C138.665 98.2899 137.712 98.8203 138.834 99.6312C140.639 100.937 142.794 99.57 143.11 97.7009Z" stroke="#FEED7F" stroke-width="3" stroke-miterlimit="10"/>
<path d="M143.421 97.3518C143.421 97.3518 145.749 100.029 147.845 100.379C149.941 100.728 149.592 97.5839 148.194 97.0025C146.797 96.4211 144.237 96.4211 143.421 97.3518Z" stroke="#FEED7F" stroke-width="3" stroke-miterlimit="10"/>
<path d="M143.538 97.1196C143.538 97.1196 146.448 99.9729 146.565 103.93" stroke="#FEED7F" stroke-width="3" stroke-miterlimit="10"/>
<path d="M143.072 102.882C143.072 102.882 143.362 98.5169 143.538 97.1196" stroke="#FEED7F" stroke-width="3" stroke-miterlimit="10"/>
<path d="M163.486 151.938C166.123 149.212 168.525 142.71 168.336 139.499C168.336 139.499 158.427 153.792 158.091 154.401C157.152 156.107 163.384 152.045 163.486 151.938Z" fill="#F6BE4A"/>
<path d="M132.217 50.4658C132.217 50.4658 130.496 50.8662 129.976 56.2874C129.743 58.7021 127.755 69.8632 127.897 77.5768C128.066 86.6189 127.293 98.8433 127.293 98.8433C127.293 98.8433 133.596 96.9844 142.896 96.2704C152.198 95.5564 163.477 99.4221 163.477 99.4221C167.077 100.016 163.273 89.1178 162.446 84.9665C161.48 80.1089 162.844 71.3218 162.044 64.771C160.837 54.9206 159.152 52.9418 158.95 52.1335C158.509 50.3587 152.805 50.3052 148.96 49.7544C143.335 48.9537 136.353 49.8692 132.217 50.4658Z" fill="#29ACE4"/>
<path d="M127.586 63.6159C127.586 63.6159 145.051 58.794 158.673 62.7719L159.371 66.3877C159.371 66.3877 143.422 60.6019 127.12 67.1119L127.586 63.6159Z" fill="#3D4C6D"/>
<path d="M127.005 67.956C127.005 67.956 145.051 63.0142 158.673 66.9921L159.371 70.608C159.371 70.608 143.536 65.1842 127.237 71.6917L127.005 67.956Z" fill="#3D4C6D"/>
<path opacity="0.5" d="M132.217 50.4659C132.217 50.4659 130.496 50.8663 129.976 56.2874C129.744 58.7022 127.755 69.8633 127.897 77.5769C136.58 64.256 157.456 95.9747 164.611 96.5969C166.59 96.7677 162.342 89.1766 162.128 81.8123C161.878 73.2063 163.176 65.6636 163.176 65.6636C161.97 55.8131 159.155 52.947 158.953 52.1361C158.512 50.3614 152.808 50.3078 148.963 49.757C143.335 48.9538 136.353 49.8692 132.217 50.4659Z" fill="#29ACE4"/>
<path d="M152.736 50.1779C152.999 50.1626 152.736 50.7822 152.736 50.7822C150.893 52.455 146.573 55.0584 142.73 55.0584C138.939 55.0584 135.746 54.8187 134.922 52.3861C134.568 51.3381 136.243 49.9586 136.243 49.9586C136.243 49.9586 139.255 49.4435 142.725 49.3364C146.112 49.2293 152.474 50.1932 152.736 50.1779Z" fill="#7A4630"/>
<path d="M142.595 51.652C139.548 51.5551 139.642 49.2015 139.665 47.725L139.966 42.9057C139.984 41.7327 141.21 40.7612 143.108 40.8173L146.384 40.8683C148.225 40.9244 149.128 41.9367 149.296 43.074C149.296 43.074 149.837 48.1534 149.648 49.7369C149.454 51.3434 145.645 51.7463 142.595 51.652Z" fill="#7A4630"/>
<path d="M164.173 61.5249C164.173 61.5249 165.022 72.2117 163.556 70.85C158.211 65.8827 159.035 56.6009 159.445 54.1198C159.856 51.6387 161.026 50.6876 162.63 51.7662C165.098 53.4186 164.173 61.5249 164.173 61.5249Z" fill="#A86243"/>
<path d="M130.333 49.0302C131.745 49.0735 133.614 49.4994 133.28 50.2363C132.271 52.4675 130.682 58.0111 129.851 62.6392C128.877 68.0604 128.002 72.9945 127.581 76.7302C127.387 78.4539 125.88 79.8181 124.539 78.8543C124.159 78.5814 123.874 78.1989 123.784 77.666C123.435 75.5317 122.221 66.2346 127.227 50.9962C127.846 49.1143 128.846 48.9843 130.333 49.0302Z" fill="#634874"/>
<path d="M161.475 50.2388C160.544 49.5146 156.661 48.7216 155.22 49.1652C153.779 49.6089 154.2 55.9583 155.995 63.1338C157.732 70.0696 160.417 79.0607 161.85 80.6468C162.133 80.9579 162.531 81.1185 162.941 81.0905C163.803 81.0293 165.175 80.7284 165.104 79.4254C165.002 77.5359 163.489 69.1925 162.319 60.1223C161.324 52.3909 162.378 50.94 161.475 50.2388Z" fill="#634874"/>
<path d="M166.304 100.851C167.095 101.101 167.97 100.899 168.551 100.308C169.931 98.9078 170.499 96.8092 170.31 94.5602C170.078 91.7654 166.702 90.7174 164.527 90.2533C162.806 89.8836 161.378 89.5164 160.858 89.3787C160.725 89.343 160.582 89.3736 160.475 89.4603L154.297 94.4633C154.19 94.55 154.131 94.6826 154.139 94.8203L154.261 97.1433C154.274 97.3728 154.463 97.5513 154.692 97.5513C155.069 97.5513 155.263 98 155.008 98.2754L154.868 98.4259C154.748 98.5534 154.72 98.7421 154.792 98.9002L155.406 100.229C155.513 100.458 155.791 100.547 156.01 100.422L156.403 100.198C156.571 100.101 156.783 100.129 156.921 100.267L158.027 101.374C158.155 101.501 158.349 101.537 158.512 101.46L159.838 100.848C160.055 100.749 160.307 100.843 160.409 101.06C160.549 101.356 160.794 101.738 161.189 101.935C161.796 102.238 164.367 100.93 165.03 100.583C165.132 100.53 165.249 100.519 165.358 100.555L166.304 100.851Z" fill="#A86243"/>
<path d="M160.289 89.6135L154.299 94.4609C154.192 94.5476 154.134 94.6802 154.141 94.8179L154.264 97.1409C154.276 97.3704 154.465 97.5489 154.695 97.5489C155.072 97.5489 155.266 97.9977 155.011 98.2731L154.871 98.4235C154.751 98.551 154.723 98.7397 154.794 98.8978L155.409 100.226C155.516 100.456 155.794 100.545 156.013 100.42L156.406 100.196C156.574 100.099 156.786 100.127 156.923 100.265L158.03 101.371C158.157 101.499 158.351 101.534 158.514 101.458L159.84 100.846C160.057 100.746 160.31 100.841 160.412 101.058C160.552 101.353 160.797 101.736 161.192 101.932C161.771 102.223 164.14 101.042 164.93 100.632C165.086 100.55 165.177 100.382 165.16 100.206L164.953 98.1252C164.889 97.48 164.596 96.8757 164.127 96.4269L163.336 95.6696C162.821 95.1774 162.52 94.5042 162.497 93.7928L162.459 92.681C162.441 92.1558 162.273 91.6458 161.972 91.2148L160.911 89.6951C160.769 89.4962 160.483 89.4554 160.289 89.6135Z" fill="#D77E5B"/>
<path d="M154.867 33.8296C154.531 42.8513 152.649 45.6817 146.646 45.7837C142.108 45.8602 138.425 40.4314 138.425 33.8296C138.425 27.2278 142.108 21.8755 146.646 21.8755C151.185 21.8755 155.168 25.708 154.867 33.8296Z" fill="#273150"/>
<path d="M152.335 31.7845C152.292 25.8661 151.647 22.4798 145.101 21.9978C141.684 21.7479 138.321 22.059 136.34 23.0841C134.55 24.0123 133.468 25.4555 132.844 29.3391C132.372 32.2639 131.709 37.323 132.688 42.2214C133.315 45.3604 137.342 46.5486 140.891 46.7934C150.056 47.4258 151.463 44.9906 152.035 40.671C152.805 34.824 152.351 34.2146 152.335 31.7845Z" fill="#7A4630"/>
<path d="M151.149 35.3675C151.093 30.237 148.985 28.0083 143.092 27.5723C140.016 27.3454 133.958 28.9289 133.675 32.3254C133.371 36.0024 132.93 39.2051 133.583 42.3875C134.144 45.1235 137.079 46.0823 140.276 46.3067C148.528 46.883 150.407 44.0883 150.894 40.345C151.31 37.1575 151.172 37.4737 151.149 35.3675Z" fill="#A96344"/>
<path d="M134.932 22.9973C134.384 23.3288 134.172 23.6577 133.784 25.7742C133.703 26.2204 134.524 24.4967 135.263 23.8235C136.003 23.1503 135.832 24.053 139.703 23.9586C143.574 23.8643 149.061 23.1987 149.061 23.1987L149.599 28.5485L151.598 33.1945L152.804 30.6293C152.985 26.0751 152.164 23.4231 149.173 22.4185C143.699 20.5774 136.944 21.7784 134.932 22.9973Z" fill="#273150"/>
<path d="M144.64 27.6767C144.571 28.5794 144.145 29.2755 143.686 29.2398C143.227 29.2041 142.906 28.4519 142.964 27.5492C143.023 26.6363 143.451 25.9147 143.921 25.9504C144.387 25.9861 144.709 26.7638 144.64 27.6767Z" fill="#102342"/>
<path d="M142.77 25.8788L145.078 25.147" stroke="#273150" stroke-miterlimit="10" stroke-linecap="round" stroke-linejoin="round"/>
<path d="M138.165 27.9032C138.135 28.7549 137.762 29.4103 137.334 29.3771C136.903 29.344 136.571 28.6351 136.592 27.7834C136.612 26.9241 136.985 26.2458 137.423 26.2789C137.864 26.3121 138.196 27.0439 138.165 27.9032Z" fill="#102342"/>
<path d="M137.941 25.8789L135.868 25.2873" stroke="#273150" stroke-miterlimit="10" stroke-linecap="round" stroke-linejoin="round"/>
<path d="M155.265 35.6578C154.664 38.0981 152.935 39.8116 151.387 39.5617C151.387 39.5617 151.435 34.0284 151.412 32.9727C151.397 32.3097 151.78 30.2647 153.429 30.535C155.074 30.8027 155.887 33.1333 155.265 35.6578Z" fill="#7A4630"/>
<path d="M154.393 37.3995C154.306 37.9886 153.748 38.4195 153.146 38.371C152.544 38.3226 152.116 37.8101 152.195 37.221C152.271 36.6269 152.832 36.1832 153.444 36.2316C154.054 36.2826 154.48 36.8079 154.393 37.3995Z" fill="#E2D6C9"/>
<path d="M178.834 85.1803C178.834 85.1803 172.22 85.2899 169.137 84.094C166.054 82.9006 166.923 70.1968 173.053 68.5241C180.058 66.6116 188.475 70.6966 193.132 73.981C197.788 77.2653 195.896 82.1765 189.159 84.4918C182.322 86.8403 178.834 85.1803 178.834 85.1803Z" fill="#1689CB"/>
<path d="M193.249 79.2109C193.249 82.4748 180.869 82.6406 177.093 82.6406C173.319 82.6406 170.259 79.9937 170.259 76.7298C170.259 73.4659 173.319 70.819 177.093 70.819C180.866 70.8165 193.249 75.947 193.249 79.2109Z" fill="#992C29"/>
<path d="M190.73 81.2685C190.73 81.2685 207.534 86.9881 217.315 101.27C225.689 113.5 237.496 105.618 244.482 108.877C251.469 112.136 209.806 120.086 202.607 122.034C193.991 124.363 168.494 95.589 173.268 87.674C179.036 78.1041 190.73 81.2685 190.73 81.2685Z" fill="#1689CB"/>
<path d="M194.805 85.0093C194.889 85.4045 203.936 89.2932 209.668 98.2052C221.854 117.144 236.991 104.881 243.975 108.14C250.959 111.399 248.942 119.806 248.942 119.806C248.942 119.806 237.299 116.547 234.505 125.859C231.71 135.172 207.478 136.49 200.279 138.436C191.663 140.764 171.85 137.278 171.85 137.278C171.85 137.278 164.371 105.62 173.811 84.5426C175.479 80.8172 187.239 81.7479 187.239 81.7479L194.805 85.0093Z" fill="#992C29"/>
<path d="M180.951 57.3702C180.951 57.3702 177.856 56.3375 174.76 60.4658C172.327 63.7094 171.091 66.6571 173.498 70.6681C174.179 71.8029 171.435 72.0451 173.154 76.8594C174.954 81.9006 185.192 82.1327 188.632 79.7255C188.632 79.7255 195.282 85.3431 202.733 81.3294C207.746 78.6291 200.899 71.4688 200.899 71.4688C200.899 71.4688 204.477 63.6788 196.223 55.9983C190.345 50.5313 184.047 54.2746 180.951 57.3702Z" fill="#273150"/>
<path d="M178.58 66.0731C180.764 66.0731 182.535 63.0706 182.535 59.3668C182.535 55.663 180.764 52.6605 178.58 52.6605C176.396 52.6605 174.625 55.663 174.625 59.3668C174.625 63.0706 176.396 66.0731 178.58 66.0731Z" fill="#273150"/>
<path d="M187.091 56.108C188.247 53.3994 187.839 50.6297 186.179 49.9216C184.52 49.2135 182.238 50.8352 181.082 53.5438C179.926 56.2524 180.335 59.0221 181.994 59.7302C183.653 60.4383 185.935 58.8166 187.091 56.108Z" fill="#273150"/>
<path d="M180.112 59.0659C180.112 59.0659 177.537 57.3982 174.658 60.7871C171.779 64.176 171.318 67.1747 173.393 70.6324C173.98 71.6116 171.542 72.5347 173.023 76.686C173.85 78.9962 177.636 79.9423 177.394 79.5113C177.152 79.0804 177.361 77.8641 177.361 77.8641C179.964 79.4195 184.22 80.3349 188.711 79.9831C191.233 81.4952 195.884 81.3422 198.89 79.723C203.212 77.3974 197.309 71.224 197.309 71.224C197.309 71.224 200.395 64.51 193.278 57.8878C188.211 53.1679 182.782 56.3961 180.112 59.0659Z" fill="#3D4C6D"/>
<path d="M179.684 59.502C179.684 62.6945 179.954 66.5678 178.07 66.5678C176.188 66.5678 174.661 63.9796 174.661 60.7871C174.661 57.5946 176.188 55.0064 178.07 55.0064C179.952 55.0064 179.684 56.3094 179.684 59.502Z" fill="#3D4C6D"/>
<path d="M184.626 56.0722C183.629 58.4054 182.44 61.7203 181.01 61.1083C179.579 60.4989 179.227 58.1096 180.222 55.7764C181.219 53.4432 183.185 52.0458 184.615 52.6553C186.046 53.2672 185.623 53.739 184.626 56.0722Z" fill="#3D4C6D"/>
<path d="M194.04 81.3242C194.04 81.3242 196.932 80.5184 197.403 78.4326C197.403 78.4326 198.413 81.4593 194.04 81.3242Z" fill="#273150"/>
<path d="M197.228 88.4056C197.228 88.4056 202.022 97.8124 203.386 100.179C204.75 102.542 201.091 105.296 198.704 104.656C196.317 104.016 191.766 92.9343 190.623 90.5884C189.479 88.2399 194.209 84.5552 197.228 88.4056Z" fill="#F6874E"/>
<path d="M197.891 89.5608C197.891 89.5608 193.5 80.7916 190.544 81.2556C187.581 81.7197 187.64 83.0559 188.27 85.6364C189.203 89.4614 191.758 94.5816 191.758 94.5816C191.758 94.5816 194.3 90.5451 197.891 89.5608Z" fill="#C93F37"/>
<path d="M209.36 99.6408C209.36 99.6408 203.422 99.2532 202.024 98.7866C200.627 98.3199 195.677 100.592 197.717 103.909C199.385 106.625 208.506 105.577 210.059 104.957C211.612 104.338 212.27 100.184 209.36 99.6408Z" fill="#F6874E"/>
<path d="M224.691 37.1162C224.691 37.1162 215.312 85.9833 215.2 86.7431C215.088 87.503 214.988 88.1864 214.988 88.1864C214.833 88.5409 214.453 88.5995 213.063 88.2808L207.109 87.2455L215.419 35.3083C215.46 35.0431 220.44 30.596 220.44 30.596C220.606 30.5807 220.815 30.341 221.233 30.8332L224.586 36.1906C224.785 36.5986 224.731 36.902 224.691 37.1162Z" fill="#F6BE4A"/>
<path d="M224.691 37.1162C224.691 37.1162 215.312 85.9833 215.2 86.7432C215.088 87.5031 214.988 88.1864 214.988 88.1864C214.833 88.5409 215.491 88.6199 214.103 88.2986L223.65 36.5757C223.65 36.5757 220.815 30.3385 221.236 30.8306L224.589 36.1881C224.785 36.5986 224.732 36.9021 224.691 37.1162Z" fill="#F6874E"/>
<path d="M219.665 61.3125L220.152 59.3287C220.213 59.1859 219.945 59.1017 219.667 59.1782L217.78 59.6984C217.612 59.7443 217.533 59.8489 217.604 59.9279L219.27 61.4579C219.389 61.5905 219.598 61.4579 219.665 61.3125Z" fill="#F6874E"/>
<path d="M213.438 47.5787L214.782 46.6581L213.779 45.5515L213.438 47.5787Z" fill="#F6874E"/>
<path d="M222.561 45.0874L220.975 43.5625L222.957 43.435L222.561 45.0874Z" fill="#F6874E"/>
<path d="M220.807 30.6034L210.592 87.6736" stroke="#F4E8D8" stroke-miterlimit="10"/>
<path d="M211.969 56.8781L213.198 57.0923L214.264 55.5777L213.509 54.063L216.138 51.6533L217.143 50.7098" stroke="#F4E8D8" stroke-miterlimit="10"/>
<path d="M208.481 106.905C208.455 106.984 207.864 107.262 206.803 106.982C205.559 106.653 205.668 105.799 205.668 105.799L207.772 87.6226L213.576 88.5533L208.481 106.905Z" fill="#1D2538"/>
<path d="M205.867 112.401C207.565 112.837 209.157 111.587 209.386 109.7C209.605 107.908 208.501 106.23 206.948 105.87C205.413 105.516 203.904 106.564 203.544 108.282C203.167 110.09 204.189 111.97 205.867 112.401ZM206.775 107.625C207.356 107.829 207.785 108.632 207.729 109.435C207.673 110.256 207.132 110.756 206.528 110.534C205.928 110.312 205.51 109.471 205.592 108.667C205.671 107.882 206.199 107.421 206.775 107.625Z" fill="#1D2538"/>
<path d="M205.706 111.23C206.668 111.495 207.576 110.774 207.721 109.654C207.749 109.435 207.744 109.216 207.713 109.006C207.734 109.147 207.739 109.292 207.729 109.437C207.673 110.258 207.132 110.758 206.528 110.536C205.928 110.315 205.51 109.473 205.592 108.67C205.671 107.884 206.199 107.425 206.775 107.627C207.134 107.754 207.435 108.109 207.599 108.553C207.377 107.93 206.905 107.436 206.313 107.285C205.408 107.053 204.531 107.698 204.34 108.757C204.146 109.845 204.75 110.967 205.706 111.23Z" fill="#F6BE4A"/>
<path d="M207.696 108.904C207.693 108.887 207.69 108.866 207.685 108.848C207.69 108.869 207.693 108.887 207.696 108.904Z" fill="#F6BE4A"/>
<path d="M207.645 108.688C207.637 108.66 207.627 108.632 207.616 108.601C207.627 108.629 207.637 108.657 207.645 108.688Z" fill="#F6BE4A"/>
<path d="M207.621 106.954C207.654 106.954 207.688 106.967 207.716 106.987C207.925 107.15 208.093 107.329 208.213 107.522C208.259 107.594 208.228 107.691 208.149 107.737C208.07 107.782 207.968 107.762 207.925 107.691C207.823 107.527 207.677 107.372 207.496 107.232C207.428 107.178 207.422 107.081 207.484 107.015C207.517 106.972 207.57 106.951 207.621 106.954Z" fill="#F4E8D8"/>
<path d="M208.187 99.5029C207.119 99.5029 206.369 99.8395 206.369 99.8395L207.42 90.958C207.491 89.9993 207.726 87.2147 207.726 87.2147C207.726 87.2147 213.206 88.0103 213.897 88.2168C213.897 88.2168 213.15 91.2411 212.897 92.0953L210.595 99.8114C210.595 99.814 209.256 99.5029 208.187 99.5029Z" fill="#C73F37"/>
<path d="M211.324 97.3658L211 98.4343C211 98.4343 209.151 98.2787 206.928 98.2787C206.93 98.2787 207.601 97.6412 211.324 97.3658Z" fill="#1D2538"/>
<path d="M206.364 99.9083C206.364 99.9083 209.419 99.8828 210.421 100.4L210.031 101.67C210.031 101.67 206.915 100.803 206.26 100.803L206.364 99.9083Z" fill="#C73F37"/>
<path d="M206.739 96.7235L206.783 96.3741C206.783 96.3741 209.116 96.2415 210.666 96.7337L206.739 96.7235Z" fill="#1D2538"/>
<path d="M211.816 95.5631L212.102 94.6579C212.102 94.6579 208.998 93.9847 206.956 94.7879C206.956 94.7879 210.704 94.6579 211.816 95.5631Z" fill="#1D2538"/>
<path d="M212.897 92.0977L212.431 93.6404C212.431 93.6404 209.383 92.4037 207.175 92.8168L207.496 90.0348C207.496 90.0348 209.807 90.9681 212.897 92.0977Z" fill="#1D2538"/>
<path d="M213.377 90.244L213.603 89.4382C213.603 89.4382 210.704 88.0511 208.231 88.6554C208.231 88.6554 213.073 89.5632 213.377 90.244Z" fill="#1D2538"/>
<path d="M202.692 82.7674C202.866 82.6934 203.062 82.6705 203.251 82.7036L220.195 85.3071C220.412 85.353 220.626 85.7151 221.233 86.6254C221.641 87.2374 221.832 88.0253 221.141 88.3492C220.236 88.775 219.231 89.4966 218.859 89.387L202.601 86.4928C202.351 86.4444 201.57 85.8171 201.252 85.557C200.89 85.2612 200.385 84.6926 200.076 84.2106C199.847 83.8536 199.989 83.3844 200.377 83.2187L202.692 82.7674Z" fill="#C73F37"/>
<path d="M202.269 82.0462C202.452 81.9671 202.654 81.9442 202.853 81.9799L220.057 85.0372C220.103 85.0474 221.294 86.353 221.141 86.8401C220.988 87.3271 218.92 88.189 218.92 88.189C218.92 88.189 201.382 85.3534 201.226 85.1418C200.938 84.7491 200.461 84.3513 200.137 83.849C199.897 83.4767 200.048 82.9871 200.451 82.8137L202.269 82.0462Z" fill="#F6874E"/>
<path d="M202.269 82.0462C202.452 81.9671 202.654 81.9442 202.853 81.9799L205.005 84.4176L218.92 88.189C218.92 88.189 201.382 85.3534 201.226 85.1418C200.8 84.7211 200.461 84.3513 200.137 83.849C199.897 83.4767 200.048 82.9871 200.451 82.8137L202.269 82.0462Z" fill="#F6BE4A"/>
<path d="M212.033 59.0226L211.278 63.4926L216.702 71.4408L217.525 67.0804L212.033 59.0226Z" fill="#F6BE4A"/>
<path d="M211.12 64.8113L210.906 66.5325L216.327 74.4807L216.612 72.8666L211.12 64.8113Z" fill="#F6BE4A"/>
<path d="M205.183 82.4694L205.686 83.1783C205.854 83.4282 205.905 83.4537 206.163 83.288L206.981 82.7856L205.183 82.4694Z" fill="#C73F37"/>
<path d="M207.356 98.7756C207.195 99.1606 207.608 99.283 208.192 99.3468C208.613 99.3927 209.391 98.9694 209.391 98.9694C209.391 98.9694 210.092 99.1989 210.385 99.3748C210.536 99.4641 209.212 99.3468 208.743 99.3748C208.274 99.4029 207.21 99.8517 207.21 99.8517C207.18 99.8542 207.149 99.8593 207.121 99.8695C206.764 99.997 206.54 100.374 206.606 100.963C206.616 101.042 206.655 101.101 206.713 101.155C206.787 101.224 206.922 101.252 206.871 101.463C206.802 101.741 206.481 101.943 206.484 102.144C206.484 102.259 206.708 103.228 206.785 103.314L207.815 103.355C207.815 103.355 206.632 103.49 206.547 104.031C206.402 104.969 207.2 105.462 207.754 105.372C208.439 105.263 208.434 105.599 209.026 105.701C209.026 105.701 210.485 105.859 210.678 105.352C210.882 104.819 211.533 104.403 211.734 103.651C211.851 103.21 211.851 102.333 212.173 101.805C212.802 100.775 212.027 100.474 212.201 99.8109C212.354 99.2371 212.757 99.1963 212.553 98.5206C212.392 97.9953 211.841 97.8474 211.438 97.6995C211.035 97.5542 209.972 97.4649 208.919 97.5822C208.921 97.5873 207.519 98.3906 207.356 98.7756Z" fill="#CE6D3E"/>
<path d="M207.356 98.7756C207.195 99.1606 207.603 99.3417 208.187 99.4054C208.608 99.4513 209.388 98.9694 209.388 98.9694C209.388 98.9694 210.089 99.1989 210.383 99.3748C210.533 99.4641 209.21 99.3468 208.74 99.3748C208.271 99.4029 207.208 99.8516 207.208 99.8516C207.177 99.8542 207.147 99.8593 207.119 99.8695C206.762 99.997 206.507 100.408 206.576 100.994C206.586 101.073 206.746 101.267 206.805 101.32C206.879 101.389 206.82 101.479 206.805 101.509C206.678 101.767 206.522 101.823 206.479 102.019C206.377 102.473 206.496 102.894 206.782 103.314L207.863 103.355C207.863 103.355 206.616 103.488 206.545 104.031C206.476 104.554 206.925 105.265 207.524 105.112C208.381 104.893 209.416 105.245 209.526 105.196C210.298 104.844 209.623 104.095 209.878 103.516C210.066 103.088 210.082 102.598 210.281 102.136C210.454 101.736 210.383 100.589 210.383 100.589L211.392 99.6808C211.392 99.6808 211.359 98.8062 211.29 98.4696C211.165 97.8423 209.541 97.4649 208.919 97.5822C208.807 97.6077 207.519 98.3905 207.356 98.7756Z" fill="#F6874E"/>
<path d="M206.043 101.097C206.652 102.014 207.427 101.061 207.246 99.666C207.159 98.9954 206.948 98.1284 205.933 98.4267C204.918 98.7251 204.954 99.4569 206.043 101.097Z" fill="#F6874E"/>
<path d="M215.258 129.872C215.309 131.265 210.046 131.897 208.7 133.779C206.757 136.497 208.432 136.604 190.541 137.948C176.068 139.037 171.532 132.042 171.713 129.095C171.891 126.188 182.267 122.345 193.183 122.332C204.12 122.322 215.151 126.922 215.258 129.872Z" fill="#EC5E4D"/>
<path d="M173.732 138.93C173.732 138.93 170.938 127.583 170.706 124.13C170.474 120.678 182.117 115.743 184.213 121.417C186.309 127.091 186.775 136.217 186.775 140.412C186.775 144.606 186.077 148.306 180.954 148.059C173.467 147.697 175.55 146.363 173.732 138.93Z" fill="#273150"/>
<path d="M173.732 138.93C173.732 138.93 170.938 127.583 170.706 124.13C170.474 120.678 182.117 115.743 184.213 121.417C186.309 127.091 186.775 136.217 186.775 140.412C186.775 144.606 186.077 148.306 180.954 148.059C173.467 147.697 175.55 146.363 173.732 138.93Z" fill="#102441"/>
<path d="M181.92 139.886C178.845 139.152 174.513 141.702 174.819 145.098C175.051 147.689 172.452 148.428 170.706 153.485C168.959 158.541 181.882 161.872 183.047 155.459C184.21 149.046 190.187 141.86 181.92 139.886Z" fill="#273150"/>
<path d="M182.116 139.055C179.041 138.32 174.515 141.701 174.821 145.098C175.053 147.689 176.606 149.191 174.859 154.247C173.113 159.304 181.884 161.874 183.05 155.458C184.21 149.045 190.381 141.028 182.116 139.055Z" fill="#102441"/>
<path d="M183.047 155.459C181.882 161.872 174.898 179.759 174.199 182.965C173.5 186.173 171.172 187.363 171.172 187.363C171.172 187.363 167.985 188.827 168.084 181.598C168.158 176.075 168.961 158.544 170.708 153.487C170.708 153.487 175.132 151.636 177.927 152.378C180.719 153.115 183.047 155.459 183.047 155.459Z" fill="#F6874E"/>
<path d="M183.047 155.459C181.882 161.872 174.898 179.76 174.199 182.965C173.857 184.538 173.462 186.899 172.608 186.963C171.723 187.029 171.366 187.624 171.134 182.1C170.902 176.919 173.113 158.542 174.859 153.485C174.859 153.485 175.132 151.634 177.927 152.376C180.719 153.115 183.047 155.459 183.047 155.459Z" fill="#CE6D3E"/>
<path d="M171.363 180.073C170.086 182.49 167.755 183.916 167.755 183.916C167.755 183.916 166.103 186.841 166.34 187.942C166.493 188.61 167.164 190.314 167.164 190.314C167.164 190.314 167.663 196.242 167.839 196.941C168.099 197.986 178.582 199.659 179.283 199.924C179.985 200.19 179.832 194.292 179.832 194.292C179.832 194.292 175.339 188.743 174.497 186.369C173.668 184.038 172.743 177.467 171.363 180.073Z" fill="#CE6D3E"/>
<path d="M189.101 119.688C186.773 121.662 185.414 126.101 187.16 130.296C188.907 134.49 190.498 142.053 192.128 143.782C193.757 145.511 196.552 147.811 199.813 147.811C203.072 147.811 204.469 143.124 203.888 139.424C203.307 135.724 201.211 125.239 199.581 120.552C197.952 115.866 191.429 117.714 189.101 119.688Z" fill="#102441"/>
<path d="M192.569 141.161C191.414 142.395 191.125 146.478 190.475 148.676C189.6 151.634 189.432 153.872 189.601 157.922C189.771 162.037 190.598 167.364 191 170.233C191.827 176.126 190.108 178.316 192.903 178.643C195.697 178.972 195.231 177.985 196.317 175.024C197.403 172.064 201.363 156.606 202.139 153.48C202.914 150.356 203.38 146.901 203.536 144.106C203.691 141.311 195.654 137.864 192.569 141.161Z" fill="#273150"/>
<path d="M192.961 140.796C191.194 141.987 190.965 146.457 191.485 151.248C191.898 155.05 201.366 156.608 202.141 153.485C202.916 150.361 203.383 146.906 203.538 144.111C203.694 141.316 196.314 138.088 192.961 140.796Z" fill="#102441"/>
<path d="M189.838 151.501C188.897 154.561 189.366 159.773 190.692 169.46C191.498 175.356 190.304 179.52 193.099 179.849C195.894 180.177 196.376 180.269 196.939 177.169C197.51 174.024 201.363 156.611 202.138 153.487C202.138 153.487 198.645 151.35 195.386 151.185C192.127 151.019 189.838 151.501 189.838 151.501Z" fill="#F6874E"/>
<path d="M191.485 151.248C191.503 154.744 192.897 165.623 193.058 171.439C193.224 177.449 191.622 178.989 194.417 179.318C197.212 179.647 196.391 180.272 196.942 177.169C197.538 173.798 201.366 156.611 202.141 153.487C202.141 153.487 198.793 151.458 195.389 151.185C194.014 151.073 191.485 151.248 191.485 151.248Z" fill="#CE6D3E"/>
<path d="M191.176 176.536C191.176 176.536 190.855 178.495 189.973 180.552C189.215 182.317 193.158 183.125 194.593 184.438C194.593 184.438 205.015 189.89 208.506 188.164C212.384 186.246 201.628 180.795 204.704 182.467C204.704 182.467 198.183 179.26 197.253 176.794C196.319 174.331 191.176 176.536 191.176 176.536Z" fill="#F6874E"/>
<path d="M192.846 176.215C192.711 179.14 191.429 179.8 190.962 181.529C190.062 184.862 196.674 186.909 196.24 186.652C196.24 186.652 204.895 189.658 208.388 187.932C212.338 185.979 201.554 180.833 204.701 182.47C204.701 182.47 198.181 179.262 197.25 176.796C196.319 174.331 192.969 173.576 192.846 176.215Z" fill="#CE6D3E"/>
<path d="M190.225 179.109C190.391 178.78 190.694 178.495 190.745 178.824C190.799 179.153 191.301 180.412 191.99 180.8C192.676 181.187 200.509 185.456 203.255 184.678C204.931 184.204 203.719 182.692 202.521 181.583C201.756 180.874 200.993 180.331 200.993 180.331C200.993 180.331 204.507 182.309 206.121 183.24C207.735 184.171 211.129 187.353 211.451 188.595C211.775 189.837 199.52 189.992 197.763 189.176C196.006 188.36 193.402 186.032 192.433 185.102C191.541 184.245 190.503 184.627 190.171 184.247C189.422 183.393 189.723 180.096 190.225 179.109Z" fill="#992C29"/>
<path d="M186.655 81.0512C186.655 81.0512 189.756 80.3525 190.847 81.7499C192.102 83.3589 195.455 87.4923 195.621 90.7818C195.753 93.4031 195.302 95.4992 193.981 99.1456C192.898 102.142 191.436 106.742 189.595 107.578C183.985 110.126 179.194 109.71 176.06 107.831C174.895 107.132 173.658 105.36 173.753 100.721C173.793 98.7223 173.732 98.0517 173.266 90.9501C172.641 81.4031 176.41 81.0079 180.245 80.7937C184.077 80.5769 186.655 81.0512 186.655 81.0512Z" fill="#F6BE4A"/>
<path d="M186.247 84.7715L185.635 84.7383C184.539 84.6797 183.697 83.7413 183.759 82.6448L184.192 74.6023C184.251 73.5058 185.189 72.6644 186.286 72.7255L186.898 72.7587C187.994 72.8173 188.836 73.7557 188.774 74.8522L188.341 82.8947C188.28 83.9912 187.344 84.8301 186.247 84.7715Z" fill="#F6874E"/>
<path d="M186.403 81.5129L185.791 81.4797C184.695 81.4211 183.853 80.4827 183.914 79.3862L184.348 71.3437C184.407 70.2472 185.345 69.4057 186.441 69.4669L187.053 69.5001C188.15 69.5587 188.991 70.4971 188.93 71.5936L188.497 79.6361C188.435 80.73 187.5 81.5715 186.403 81.5129Z" fill="#CE6D3E"/>
<path d="M168.166 183.597C167.834 183.704 167.131 184.263 167.006 184.589C166.457 186.019 165.996 187.371 166.131 188.22C166.184 188.552 166.503 189.398 166.832 191.005C167.197 192.774 166.952 195.962 167.936 197.303C168.918 198.644 177.302 201.556 179.164 201.207C181.028 200.858 179.972 195.373 179.829 194.294C179.679 193.157 175.596 188.062 173.898 184.273C173.898 184.273 173.913 184.645 174.184 185.594C174.821 187.812 176.063 192.463 174.326 192.634C171.84 192.876 168.273 189.498 168.125 187.807C167.98 186.137 167.707 184.803 167.755 184.459C167.804 184.11 168.166 183.597 168.166 183.597Z" fill="#992C29"/>
<path d="M194.376 126.517L199.122 130.696C199.619 131.089 200.313 130.78 200.213 130.204C199.871 128.228 198.862 124.89 194.376 126.517Z" fill="#EC5E4D"/>
<path d="M173.888 102.318C173.112 103.791 167.135 122.421 172.878 134.84C172.878 134.84 177.937 129.347 185.163 127.86C199.555 124.902 198.314 128.964 198.683 130.038C198.928 130.752 199.703 131.122 200.417 130.877C200.601 130.813 200.807 130.737 201.037 130.645C204.27 129.355 209.893 127.396 215.125 129.247C215.125 129.247 204.974 112.362 191.398 103.939C178.404 95.8866 174.663 100.844 173.888 102.318Z" fill="#F6BE4A"/>
<path opacity="0.5" d="M199.69 128.939C199.69 128.939 198.347 119.255 194.983 116.297C194.983 116.297 196.327 118.584 196.327 120.331L194.713 119.255C194.713 119.255 196.386 121.723 197.538 124.232C198.548 126.43 198.999 128.687 199.69 128.939Z" fill="#F6BE4A"/>
<path d="M195.848 65.9711C197.819 75.4543 193.953 78.6877 187.262 78.4786C182.234 78.3205 178.115 75.1381 177.787 68.8449C177.455 62.5516 180.104 57.388 185.069 56.5567C191.623 55.4603 194.565 59.8105 195.848 65.9711Z" fill="#CE6D3E"/>
<path d="M193.543 68.1285C193.642 68.5952 193.721 69.0414 193.785 69.4672C194.713 75.814 191.699 78.0121 186.714 77.8616C182.716 77.7392 179.439 75.2632 179.176 70.3648C178.914 65.4664 183.039 62.1795 186.989 61.5344C192.204 60.6801 192.523 63.3321 193.543 68.1285Z" fill="#F6874E"/>
<path d="M178.519 73.4075C180.056 73.1695 181.056 71.3814 180.752 69.4136C180.447 67.4458 178.954 66.0434 177.416 66.2813C175.878 66.5193 174.878 68.3074 175.183 70.2752C175.487 72.2431 176.981 73.6454 178.519 73.4075Z" fill="#F6874E"/>
<path d="M177.784 66.239L179.398 68.0112C179.398 68.0112 179.406 60.5985 185.215 58.556C190.386 56.7353 192.752 58.7753 192.752 58.7753C192.752 58.7753 189.96 54.1625 182.93 57.1841C177.05 59.7111 177.784 66.239 177.784 66.239Z" fill="#F6BE4A"/>
<path d="M182.588 67.2667C183.04 67.2667 183.407 66.5817 183.407 65.7367C183.407 64.8917 183.04 64.2067 182.588 64.2067C182.136 64.2067 181.77 64.8917 181.77 65.7367C181.77 66.5817 182.136 67.2667 182.588 67.2667Z" fill="#273150"/>
<path d="M191 66.6112C191.452 66.6112 191.819 65.9262 191.819 65.0812C191.819 64.2363 191.452 63.5513 191 63.5513C190.548 63.5513 190.182 64.2363 190.182 65.0812C190.182 65.9262 190.548 66.6112 191 66.6112Z" fill="#273150"/>
<path d="M190.036 63.2247L191.566 62.3858" stroke="#273150" stroke-miterlimit="10" stroke-linecap="round" stroke-linejoin="round"/>
<path d="M183.894 63.661L181.864 63.1154" stroke="#273150" stroke-miterlimit="10" stroke-linecap="round" stroke-linejoin="round"/>
<path d="M191.982 57.4748C191.982 57.4748 193.456 59.2674 194.968 60.0349C196.11 60.6163 197.028 60.7234 197.028 60.7234L196.799 60.2644L197.367 59.8258C197.367 59.8258 195.231 59.6014 192.426 57.207L191.982 57.4748Z" fill="#EE5D4F"/>
<path d="M191.834 57.2658C191.834 57.2658 192.607 59.4536 193.764 60.6929C194.639 61.6287 195.465 62.0444 195.465 62.0444L195.406 61.5369L196.092 61.3202C196.092 61.3202 194.162 60.3792 192.347 57.1663L191.834 57.2658Z" fill="#EE5D4F"/>
<path d="M192.77 58.4209C193.316 58.324 193.833 55.4145 192.535 55.3533C191.314 55.2946 189.929 55.4527 190.159 56.3733C190.391 57.2938 192.227 58.5178 192.77 58.4209Z" fill="#EE5D4F"/>
<path d="M193.242 56.7662C193.242 56.7662 193.04 55.5192 192.653 55.5473C192.265 55.5753 192.612 56.1083 192.711 56.9293C192.813 57.7504 193.31 57.294 193.242 56.7662Z" fill="#F7BC4B"/>
<path d="M192.319 57.8189C192.319 57.8189 192.237 57.2452 193.073 56.6893C193.91 56.1334 194.547 55.83 195.078 56.1615C195.608 56.493 195.794 57.9439 195.491 58.6757C195.187 59.4076 193.326 58.8517 192.857 58.5763C192.387 58.2983 192.319 57.8189 192.319 57.8189Z" fill="#EE5D4F"/>
<path d="M195.363 57.332C195.363 57.332 195.539 58.4973 195.019 58.686C194.246 58.969 194.733 56.7633 194.779 56.4165C194.823 56.0672 195.503 56.4981 195.363 57.332Z" fill="#F7BC4B"/>
<path d="M175.13 96.3892C175.13 96.3892 178.169 103.167 179.556 104.654C180.954 106.153 182.802 107.818 184.621 107.114C186.434 106.413 187.234 101.897 185.957 99.5308C184.694 97.195 182.379 90.4581 181.599 89.3948C180.824 88.3365 177.935 89.0862 176.527 89.9405C175.109 90.7972 174.11 93.8572 175.13 96.3892Z" fill="#F6874E"/>
<path d="M182.553 91.2433C182.553 91.2433 179.942 80.7401 176.448 81.2041C173.113 81.6478 172.498 84.4936 172.919 88.3924C173.347 92.3754 175.181 96.5879 175.181 96.5879C175.181 96.5879 175.877 92.7681 182.553 91.2433Z" fill="#EC5E4D"/>
<path d="M181.494 87.8316C181.494 87.8316 179.944 80.7402 176.45 81.2043C173.115 81.648 172.501 84.4937 172.921 88.3926C173.35 92.3756 174.008 93.1482 174.008 93.1482C174.008 93.1482 174.354 90.634 174.818 89.1219C175.219 87.824 177.769 87.2196 177.769 87.2196L181.494 87.8316Z" fill="#C93F37"/>
<path d="M202.373 94.0125C202.373 94.0125 197.095 95.0987 194.15 96.0703C191.554 96.927 187.107 98.3754 184.567 100.171C182.004 101.984 181.709 104.574 182.389 106.267C183.078 107.976 186.385 106.958 189.116 106.025C191.834 105.094 202.172 100.15 204.701 98.5157C207.211 96.8913 206.563 92.4238 202.373 94.0125Z" fill="#CE6D3E"/>
<path d="M191.312 97.0395C188.517 97.8147 187.107 98.3757 184.567 100.171C182.004 101.984 181.709 104.575 182.389 106.268C183.078 107.976 186.385 106.959 189.116 106.025C191.837 105.095 193.772 96.3561 191.312 97.0395Z" fill="#F6874E"/>
<path d="M204.168 97.3124C204.936 98.363 206.884 98.2023 207.539 97.6464C208.335 96.9758 208.809 96.4046 209.314 96.4072C209.63 96.4072 210.796 96.6265 211.433 96.9146C211.469 96.9834 211.316 97.2537 211.344 97.3302C211.382 97.4373 211.415 97.5011 211.53 97.5087C212.254 97.5597 212.851 97.0829 212.813 96.3256L212.739 95.3183L213.481 94.4208L213.624 91.6082L211.163 88.9613C211.04 88.8313 210.867 88.7624 210.689 88.7752L207.343 89.0225C207.142 89.0378 206.958 89.1475 206.851 89.3158L203.814 94.0689C203.811 94.0714 203.401 96.2618 204.168 97.3124Z" fill="#CE6D3E"/>
<path d="M211.308 95.5148C211.54 95.7673 211.905 96.1523 212.218 96.3971C212.558 96.6623 212.835 96.7567 212.813 96.3257L212.739 95.3185L213.664 94.5816C213.664 94.5816 213.878 92.3988 213.807 91.769C213.616 90.0962 211.137 88.8544 211.137 88.8544C210.918 88.7447 210.864 88.7652 210.686 88.7779C210.686 88.7779 209.898 90.0809 209.85 90.4736C209.801 90.8663 210.528 92.5926 210.528 92.5926C210.528 92.5926 209.735 93.5998 209.691 93.9007C209.587 94.6071 210.502 94.6402 211.308 95.5148Z" fill="#F6874E"/>
<path d="M174.1 91.0625C174.1 91.0625 174.332 89.4917 175.497 89.0251C175.497 89.0251 174.204 92.7913 174.005 93.1483C173.806 93.5053 173.809 91.9371 174.1 91.0625Z" fill="#C93F37"/>
<path d="M173.345 83.3008C172.722 85.0858 170.394 91.1393 168.066 104.491C165.738 117.842 169.464 135.072 171.636 136.936C173.809 138.8 181.415 124.982 197.717 133.598C197.717 133.598 186.535 117.564 180.252 113.184C172.567 107.829 173.189 94.8648 174.12 87.957C175.053 81.0518 173.345 83.3008 173.345 83.3008Z" fill="#29ACE4"/>
<path d="M168.066 104.493C165.738 117.845 169.464 135.075 171.636 136.939C173.809 138.803 181.415 124.985 197.717 133.601C197.717 133.601 191.804 125.36 188.137 121.096C188.137 121.096 183.414 128.05 182.203 127.797C181.484 127.647 175.609 128.154 172.116 123.965C168.622 119.775 168.066 104.493 168.066 104.493Z" fill="#1689CB"/>
<path d="M171.914 120.229C171.914 120.229 172.108 121.734 173.831 124.263C175.915 127.321 182.206 128.601 182.206 128.601L184.727 126.936C184.727 126.936 181.265 126.65 178.304 125.171C175.344 123.692 172.026 121.168 171.914 120.229Z" fill="#1689CB"/>
<path d="M183.28 80.4109C182.109 80.1406 175.479 79.5949 173.615 82.8563C171.751 86.1151 173.266 92.1508 173.266 92.1508C173.266 92.1508 173.613 87.1759 176.119 85.5924C177.57 84.6744 186.123 87.6731 187.354 87.8618C189.624 88.2112 186.773 84.9523 186.773 84.9523C186.773 84.9523 184.794 80.7602 183.28 80.4109Z" fill="#29ACE4"/>
<path d="M188.693 80.8571C187.887 81.0637 185.636 88.7007 187.857 87.3391C188.441 86.9795 191.656 86.0003 195.328 86.3497C197.773 86.5817 199.699 87.9612 199.869 87.6884C200.453 86.7551 192.123 79.9723 188.693 80.8571Z" fill="#1689CB"/>
<path d="M187.762 86.6788C187.988 86.6788 188.17 86.4962 188.17 86.2708C188.17 86.0455 187.988 85.8629 187.762 85.8629C187.537 85.8629 187.354 86.0455 187.354 86.2708C187.354 86.4962 187.537 86.6788 187.762 86.6788Z" fill="#273150"/>
<path d="M123.238 117.588C123.238 117.588 123.513 112.48 120.831 112.184C118.148 111.888 112.431 117.809 111.139 118.439C109.846 119.072 108.826 121.106 108.165 121.736C107.505 122.366 105.73 122.848 104.746 123.639C103.759 124.432 100.304 126.816 102.782 129.478C105.266 132.145 106.204 132.928 109.626 131.474C113.038 130.024 124.131 120.224 123.238 117.588Z" fill="#1D2436"/>
<path d="M117.927 145.565C117.927 145.565 108.872 142.602 98.4888 141.289C93.8072 140.698 93.57 147.738 96.6656 153.167C98.3665 156.153 107.437 158.302 115.826 162.443C122.762 165.865 129.088 171.677 131.967 171.557C138.319 171.289 134.282 149.066 117.927 145.565Z" fill="#48598B"/>
<path d="M109.617 148.697C108.235 148.577 110.729 151.27 111.379 152.45C113.271 155.885 114.819 159.807 116.484 162.296C117.955 164.494 116.922 161.548 115.726 157.808C115.183 156.109 114.775 154.483 114.38 153.371C114.158 152.743 109.617 148.697 109.617 148.697Z" fill="#273150"/>
<path d="M109.908 189.868C109.908 189.868 104.596 194.338 102.737 196.751C100.871 199.17 105.856 201.797 110.28 201.19C114.694 200.586 118.878 198.974 120.373 196.572C121.862 194.178 121.872 194.152 124.205 191.582C126.531 189.022 123.33 183.588 122.012 182.445C120.691 181.306 110.637 185.995 109.908 189.868Z" fill="#EC6141"/>
<path d="M110.045 188.703C110.045 188.703 104.734 193.173 102.875 195.585C101.008 198.005 106.315 199.622 110.739 199.015C115.153 198.411 118.167 197.651 119.661 195.249C121.15 192.854 122.237 192.503 124.57 189.932C126.895 187.372 123.468 182.425 122.15 181.283C120.829 180.14 110.775 184.83 110.045 188.703Z" fill="#13161F"/>
<path d="M106.962 181.556C106.962 181.556 108.579 184.034 108.265 185.044C107.952 186.056 106.995 188.864 110.785 190.136C114.013 191.22 121.833 186.569 124.299 184.939C124.738 184.649 125.029 184.18 125.077 183.682C125.21 182.298 125.284 179.447 123.95 177.759C122.139 175.472 122.377 176.129 119.513 168.589C116.672 161.103 107.602 145.528 107.034 143.929C106.465 142.333 99.088 140.813 97.6014 140.989C96.1122 141.165 90.3417 148.789 90.4947 150.89C90.6477 152.996 93.9167 160.284 96.7267 166.475C99.5521 172.702 103.02 175.589 103.849 177.374C105.147 180.171 106.962 181.556 106.962 181.556Z" fill="#48598B"/>
<path d="M122.078 175.515C120.745 173.031 121.387 176.757 120.686 179.396C120.283 180.91 123.415 177.998 122.078 175.515Z" fill="#273150"/>
<path d="M106.858 180.793C106.858 180.793 108.459 184.947 109.354 185.256C110.249 185.567 112.929 185.217 114.747 184.287C116.566 183.353 110.104 184.83 106.858 180.793Z" fill="#273150"/>
<path d="M93.3176 154.111C93.3176 154.111 94.2917 152.443 95.0643 150.916C95.837 149.388 96.2042 154.562 94.5339 155.893C92.8637 157.227 93.3176 154.111 93.3176 154.111Z" fill="#273150"/>
<path d="M113.475 154.052L108.25 151.487L101.801 146.328C101.801 146.328 103.311 146.359 104.494 147.188C105.03 147.563 107.847 149.896 109.382 151.117C111.231 152.594 112.904 153.461 113.475 154.052Z" fill="#273150"/>
<path d="M144.382 119.239C144.382 119.239 117.626 113.347 122.726 109.46C127.793 105.597 141.929 98.6436 147.098 106.123C152.303 113.655 147.519 121.917 144.382 119.239Z" fill="#1D2436"/>
<path d="M154.671 173.37C154.671 173.37 155.09 172.383 156.331 171.523C157.571 170.667 161.413 171.024 162.099 172.546C162.785 174.073 162.778 184.543 162.778 185.252C162.778 185.964 161.398 188.914 160.146 190.648C158.891 192.387 156.528 192.721 154.444 191.905C152.361 191.089 153.771 187.496 154.335 185.78C154.898 184.072 153.697 175.208 154.671 173.37Z" fill="#EC6141"/>
<path d="M153.858 172.556C153.858 172.556 153.932 171.949 155.174 171.09C156.413 170.233 160.256 170.59 160.942 172.112C161.628 173.64 161.964 183.73 161.964 184.439C161.964 185.15 160.585 188.101 159.333 189.835C158.078 191.574 155.714 191.908 153.631 191.092C151.548 190.276 152.958 186.683 153.521 184.967C154.085 183.256 152.884 174.395 153.858 172.556Z" fill="#13161F"/>
<path d="M147.442 176.496C147.442 176.496 152.093 172.52 154.276 172.424C158.937 172.214 157.859 176.901 157.849 180.132C157.841 183.373 155.327 185.76 154.393 186.379C153.46 186.999 155.087 186.683 152.376 190.378C149.65 194.09 144.811 198.54 141.588 198.994C139.132 199.341 130.896 195.013 135.299 186.186C136.676 183.429 144.969 178.829 147.442 176.496Z" fill="#273150"/>
<path d="M132.39 156.846C132.39 156.846 131.528 178.016 131.883 186.015C132.24 194.085 131.872 197.887 133.826 199.884C135.781 201.885 139.331 202.258 141.82 201.437C144.303 200.616 143.411 199.58 145.39 199.03C147.366 198.481 148.784 192.481 149.288 190.454C149.793 188.432 151.142 168.78 151.668 161.676C152.19 154.63 150.772 151.029 145.007 151.101C139.231 151.177 133.428 152.71 132.39 156.846Z" fill="#273150"/>
<path d="M131.865 160.268C131.865 160.268 131.574 179.948 131.852 187.3C132.135 194.718 131.844 198.208 133.382 200.047C134.922 201.885 137.722 202.23 139.683 201.472C141.641 200.718 146.506 193.328 146.904 191.466C147.302 189.607 148.72 176.939 147.445 164.937C146.759 158.485 146.739 155.153 142.195 155.219C137.643 155.283 132.683 156.466 131.865 160.268Z" fill="#47588A"/>
<path d="M116.361 150.055C117.774 151.899 119.309 153.24 121.173 154.712C121.609 155.056 136.386 161.232 136.386 161.232C136.386 161.232 128.093 158.08 129.246 158.904C134.17 162.42 135.455 164.802 141.2 166.199C142.541 166.526 145.331 163.891 146.129 164.764C148.692 167.558 147.781 172.849 147.993 170.236C148.748 160.905 151.999 156.65 144.966 153.003C137.559 149.163 112.419 144.905 116.361 150.055Z" fill="#273150"/>
<path d="M119.543 145.387C119.76 143.454 119.294 135.977 119.368 126.509C119.441 117.144 119.375 113.426 124.801 111.238C130.202 109.06 136.97 108.415 142.1 111.766C144.479 113.319 145.522 147.327 145.976 150.367C146.43 153.416 141.07 158.417 136.225 158.728C131.373 159.042 118.924 150.946 119.543 145.387Z" fill="#F6BE4A"/>
<path opacity="0.5" d="M131.577 147.572C131.577 147.572 130.807 149.01 131.125 150.392C128.297 149.163 125.515 147.774 124.745 146.797C124.745 146.797 127.229 150.989 130.954 152.387C134.68 153.784 138.094 153.162 138.094 153.162C138.094 153.162 132.775 149.503 131.577 147.572Z" fill="#F6BE4A"/>
<path d="M116.318 148.314C116.318 148.414 116.353 148.508 116.422 148.579C116.978 149.161 118.661 151.675 121.249 152.552C121.943 152.787 123.136 152.279 123.141 151.984L123.154 151.379C123.157 151.234 121.708 151.374 121.581 151.308C120.816 150.905 117.585 148.373 116.239 146.782C116.006 146.506 116.32 147.947 116.318 148.314Z" fill="#F4E8D8"/>
<path d="M127.032 110.229C127.688 109.864 119.043 114.048 122.924 131.357C123.957 135.96 122.932 143.995 123.269 145.553C123.608 147.111 124.651 150.589 123.116 151.377C120.272 152.836 117.58 148.353 116.588 147.348C115.048 145.793 118.215 145.063 118.085 139.329C117.947 133.267 115.915 124.809 116.312 121.367C117.223 113.51 119.813 112.904 120.831 112.184C121.94 111.402 126.239 110.672 127.032 110.229Z" fill="#972B28"/>
<path d="M127.033 110.229C127.28 109.311 122.014 112.052 121.293 112.705C120.589 113.342 119.844 114.222 119.169 115.441C117.004 119.337 122.494 129.315 122.494 129.315C122.494 129.315 122.476 119.77 122.685 117.593C122.891 115.42 126.556 112.003 127.033 110.229Z" fill="#F4E8D8"/>
<path d="M127.209 109.476C127.209 109.476 126.946 110.08 126.974 110.82C127.079 113.793 127.701 122.011 128.81 122.113C129.937 122.215 130.457 121.945 131.87 117.337C132.171 116.356 135.164 108.963 134.223 108.326" stroke="#913636" stroke-miterlimit="10"/>
<path d="M129.017 124.653C129.346 124.653 129.613 124.041 129.613 123.286C129.613 122.531 129.346 121.919 129.017 121.919C128.687 121.919 128.42 122.531 128.42 123.286C128.42 124.041 128.687 124.653 129.017 124.653Z" fill="#29ACE4"/>
<path d="M127.005 106.696L127.178 111.337C127.249 113.267 129.022 114.693 131.054 114.453L131.329 114.42C133.28 114.19 134.708 112.507 134.522 110.666L134.055 106.066C133.836 103.896 131.498 102.568 129.328 103.374C127.889 103.909 126.951 105.25 127.005 106.696Z" fill="#CE6D3E"/>
<path d="M136.847 153.679L136.865 154.067C136.875 154.289 136.959 154.495 137.102 154.648C138.125 155.75 142.483 160.322 145.361 161.403C147.577 162.234 150.551 162.39 152.246 162.403C153.052 162.408 153.792 161.885 154.133 161.066C154.358 160.531 154.075 159.911 153.56 159.807C150.979 159.279 143.987 157.502 138.15 152.873C137.597 152.432 136.812 152.917 136.847 153.679Z" fill="#F4E8D8"/>
<path d="M135.083 108.734C134.287 109.351 130.873 115.529 133.731 124.054C136.613 132.655 133.976 148.108 135.845 151.943C136.378 153.034 144.015 159.98 146.915 160.102C148.825 160.181 151.576 160.49 153.486 160.74C154.383 160.857 155.765 159.116 155.796 158.203C155.89 155.316 155.796 149.212 153.853 143.089C151.201 134.728 150.997 110.774 144.27 107.599C139.135 105.174 135.878 108.117 135.083 108.734Z" fill="#972B28"/>
<path d="M144.115 144.63C144.115 144.63 149.518 147.921 150.951 148.386L150.14 150.318C150.14 150.318 144.089 147.026 143.143 145.759L144.115 144.63Z" fill="#F4E8D8"/>
<path d="M134.932 108.275C136.523 106.89 141.7 106.181 143.25 107.168C144.127 107.724 139.981 105.972 137.877 110.715C135.271 116.585 134.333 125.925 134.333 125.925C134.333 125.925 132.918 125.155 132.413 117.686C132.076 112.701 133.339 109.662 134.932 108.275Z" fill="#F4E8D8"/>
<path d="M148.225 141.245C148.225 141.245 148.865 139.381 148.575 138.509C148.284 137.637 147.527 140.605 146.655 141.827C146.234 142.413 147.955 141.444 148.225 141.245Z" fill="#972B28"/>
<path d="M117.993 141.671L117.779 142.702L119.156 141.906L119.408 140.682L117.993 141.671Z" fill="#F4E8D8"/>
<path d="M133.866 162.28C133.866 162.28 136.195 163.639 137.747 164.881C139.3 166.123 142.251 167.094 142.251 167.094C142.251 167.094 138.523 167.714 133.866 162.28Z" fill="#273150"/>
<path d="M115.974 129.72C117.172 133.274 113.273 137.548 109.604 137.584C107.406 137.606 105.753 136.594 104.282 134.57C103.726 133.805 104.065 132.917 103.662 132.081C103.351 131.433 102.263 130.839 102.056 130.217C100.883 126.665 102.913 124.099 106.546 123.745C109.165 123.49 109.706 125.227 111.144 125.877C111.662 126.111 113.222 126.157 113.707 126.458C115.456 127.557 115.387 127.983 115.974 129.72Z" fill="#C93F37"/>
<path d="M115.257 131.996C115.438 133.84 114.275 135.676 112.653 136.097C111.029 136.515 109.571 135.352 109.395 133.503C109.219 131.657 110.012 128.97 111.628 128.557C113.242 128.141 115.076 130.155 115.257 131.996Z" fill="#F4E8D8"/>
<path d="M114.423 132.182C114.556 133.57 113.709 134.954 112.531 135.268C111.353 135.584 110.292 134.707 110.165 133.315C110.037 131.925 110.85 129.174 112.635 129.64C113.811 129.946 114.29 130.798 114.423 132.182Z" fill="#CE6D3E"/>
<path d="M112.189 129.952C111.529 130.472 110.998 131.553 110.812 133.21C110.626 134.868 114.222 136.661 114.222 136.661C114.222 136.661 116.463 137.489 117.957 133.896C118.551 132.466 115.486 129.817 115.509 128.904C115.593 125.591 113.273 129.097 112.189 129.952Z" fill="#F6874E"/>
<path d="M115.043 129.485C115.043 129.485 113.878 129.62 114.112 130.495C114.344 131.367 116.178 132.92 118.1 132.455C120.023 131.991 115.043 129.485 115.043 129.485Z" fill="#CE6D3E"/>
<path d="M103.749 130.882C103.593 129.873 103.698 128.906 103.672 128.71C103.596 128.128 102.742 130.961 102.742 130.961C103.787 132.473 103.828 131.405 103.749 130.882Z" fill="#972B28"/>
<path d="M110.619 125.992C110.619 125.992 108.405 124.013 107.709 127.157C107.707 127.157 108.989 126.341 110.619 125.992Z" fill="#972B28"/>
<path d="M144.293 129.219C142.705 126.649 141.088 123.382 139.423 120.825C137.76 118.275 138.716 110.174 142.335 108.779C145.943 107.389 146.616 109.105 149.946 113.925C153.289 118.764 158.445 131.461 156.852 135.836C156.003 138.164 148.529 139.35 144.293 129.219Z" fill="#1D2436"/>
<path d="M155.822 131.6C154.044 129.043 151.777 127.273 147.142 128.204C144.831 128.668 144.538 130.863 144.538 130.863C144.538 130.863 141.904 130.624 140.703 131.695C139.499 132.768 135.422 131.695 135.552 137.05C135.682 142.404 136.995 144.865 140.575 145.548C144.153 146.232 149.743 141.555 149.743 141.555C149.743 141.555 151.714 141.938 154.332 139.449C156.974 136.94 158.644 135.662 155.822 131.6Z" fill="#C93F37"/>
<path d="M145.135 130.142C145.135 130.142 147.244 128.285 149.317 130.116C149.544 130.318 146.759 129.759 145.135 130.142Z" fill="#972B28"/>
<path d="M135.672 139.314C135.399 144.156 141.2 143.674 141.2 143.674C141.2 143.674 140.089 144.187 140.78 144.375C141.596 144.597 143.024 144.839 143.896 144.23C147.012 142.05 148.748 136.697 144.936 134.504C144.237 134.104 144.031 137.128 143.929 136.256C143.819 135.331 142.835 133.898 141.093 132.987C140.122 132.477 136.009 133.311 135.672 139.314Z" fill="#972B28"/>
<path d="M150.459 133.209C150.459 133.209 149.46 132.161 148.172 131.695C146.884 131.228 144.63 130.705 144.63 130.705C144.984 130.598 150.599 130.251 150.459 133.209Z" fill="#972B28"/>
<path d="M138.28 133.393C137.401 133.446 134.606 133.727 134.392 138.681C134.221 142.68 137.783 143.61 137.783 143.61C137.783 143.61 140.377 143.835 141.557 142.83C143.148 141.476 143.278 138.256 142.292 135.499C141.784 134.086 139.16 133.339 138.28 133.393Z" fill="#F4E8D8"/>
<path d="M136.511 134.313C135.634 134.352 133.084 133.875 132.951 138.577C132.844 142.369 136.409 143.302 136.409 143.302C136.409 143.302 138.994 143.549 140.155 142.611C141.718 141.346 141.794 138.291 140.767 135.662C140.239 134.311 137.388 134.275 136.511 134.313Z" fill="#CE6D3E"/>
<path d="M119.099 117.459C119.099 117.459 120.112 116.084 123.001 116.173C127.037 116.298 131.372 117.51 132.663 119.333C133.619 120.682 133.672 122.051 133.672 122.051C133.672 122.051 134.955 122.176 135.59 123.114C135.99 123.706 135.812 131.144 135.812 131.144C135.743 132.457 135.088 133.36 133.751 133.342L132.619 133.327L118.824 131.524C118.829 131.524 117.781 119.07 119.099 117.459Z" fill="#634874"/>
<path d="M114.344 127.855C114.499 131.424 117.562 132.049 118.444 132.197C120.828 132.595 133.667 133.717 133.667 133.717C133.667 133.717 135.906 132.86 134.628 132.771C134.322 132.75 127.986 131.335 125.91 130.958C122.373 130.315 121.175 128.008 121.175 128.008C121.175 128.008 114.272 126.225 114.344 127.855Z" fill="#7E6391"/>
<path d="M133.203 144.417L134.259 133.929C134.198 133.388 133.772 133.161 132.094 132.868C132.094 132.868 131.283 132.794 130.648 132.73C130.34 132.7 129.595 132.85 129.564 133.778L129.037 145.656C128.991 146.09 130.549 145.786 130.549 145.786C132.851 145.5 133.155 145.396 133.203 144.417Z" fill="#634874"/>
<path d="M121.106 129.543C118.885 130.532 117.439 130.828 115.402 129.844C113.887 129.198 113.469 125.896 113.507 124.861L113.536 121.301C113.617 118.981 115.596 117.102 117.955 117.102C121.349 117.099 123.121 119.743 123.029 123.089L122.909 125.093C122.881 126.126 122.126 129.089 121.106 129.543Z" fill="#634874"/>
<path d="M130.082 145.58L130.373 133.412C130.424 132.414 130.487 132.249 128.894 132.116L127.455 132.106C126.27 132.17 125.683 132.771 125.648 133.751L126.142 143.476C126.119 145.208 125.895 145.689 127.116 145.786C129.151 145.947 130.059 146.174 130.082 145.58Z" fill="#7E6391"/>
<path d="M124.862 133.691C125.01 135.201 125.326 136.835 127.425 137.356C127.514 137.379 129.161 137.274 129.161 137.274L128.47 133.273C128.483 132.485 128.062 132.067 127.563 132.011L125.79 131.889C125.14 131.815 124.765 132.689 124.862 133.691Z" fill="#7E6391"/>
<path d="M126.624 133.722C126.749 135.158 127.111 136.772 128.924 137.269C129.001 137.289 129.082 137.289 129.161 137.274C130.24 137.363 131.964 136.685 131.977 135.933L132.15 132.87C132.099 132.743 127.563 132.149 127.563 132.149C127.002 132.08 126.54 132.771 126.624 133.722Z" fill="#634874"/>
<path d="M120.295 122.681C120.176 123.931 119.041 124.879 117.761 124.8C116.481 124.721 115.542 123.642 115.665 122.39C115.787 121.141 116.924 120.197 118.202 120.276C119.477 120.358 120.415 121.434 120.295 122.681Z" fill="#1D2436"/>
<path d="M119.594 122.021C119.428 123.757 117.853 125.078 116.073 124.969C114.29 124.859 112.987 123.357 113.158 121.618C113.329 119.884 114.907 118.571 116.682 118.683C118.457 118.795 119.76 120.289 119.594 122.021Z" fill="#F6BE4A"/>
<path d="M118.24 121.763C118.135 122.857 117.141 123.686 116.022 123.617C114.902 123.548 114.078 122.602 114.188 121.508C114.295 120.417 115.29 119.588 116.407 119.659C117.523 119.731 118.345 120.672 118.24 121.763Z" fill="#1D2436"/>
<path d="M123.455 117.469C125.081 118.593 125.487 120.256 125.064 123.183C125.028 123.423 125.222 123.637 125.507 123.681L131.459 124.662C131.818 124.718 132.739 124.976 132.777 124.67C132.935 123.433 133.139 119.902 130.554 118.583C129.332 117.961 126.382 117.109 123.975 116.661C123.383 116.551 122.998 117.153 123.455 117.469Z" fill="#BB83C3"/>
<path d="M124.01 116.431C124.01 116.431 128.317 118.186 126.53 124.135" stroke="#634874" stroke-width="2" stroke-miterlimit="10" stroke-linecap="round" stroke-linejoin="round"/>
<path d="M127.096 117.109C127.096 117.109 130.663 119.463 128.947 124.415" stroke="#634874" stroke-width="2" stroke-miterlimit="10" stroke-linecap="round" stroke-linejoin="round"/>
<path d="M129.434 117.798C129.434 117.798 132.624 120.134 131.265 124.672" stroke="#634874" stroke-width="2" stroke-miterlimit="10" stroke-linecap="round" stroke-linejoin="round"/>
<path d="M124.921 124.981L132.739 126.34" stroke="#BB83C3" stroke-width="2" stroke-miterlimit="10" stroke-linecap="round" stroke-linejoin="round"/>
<path d="M139.643 135.984C139.643 135.984 139.015 133.511 138.658 132.833C138.482 132.499 138.523 131.833 138.118 130.854C137.679 129.793 137.893 128.936 137.424 128.095C137.026 127.381 135.188 128.681 135.262 130.025C135.303 130.785 135.394 132.269 135.598 133.011C135.828 133.853 132.684 133.187 132.684 133.187C132.35 133.07 130.19 133.223 129.838 133.261L127.61 133.292C126.684 133.59 126.528 134.263 126.559 135.235C126.574 135.755 129.073 135.462 130.131 135.632C130.901 135.755 132.618 135.467 132.643 135.579C132.643 135.579 126.753 137.053 126.429 137.81C125.791 139.312 125.975 141.278 126.21 141.571C126.906 142.441 126.959 142.507 126.959 142.507C126.959 142.507 126.918 143.626 127.734 144.175C128.966 145.003 132.888 145.692 132.888 145.692C132.888 145.692 137.513 144.131 138.286 143.4C139.059 142.67 140.023 142.074 140.122 139.745C140.216 137.425 139.643 135.984 139.643 135.984Z" fill="#F6874E"/>
<path d="M126.423 137.808C125.799 139.315 125.969 141.276 126.204 141.569C126.9 142.438 126.954 142.505 126.954 142.505C126.954 142.505 126.913 143.624 127.729 144.172C128.961 145.001 132.882 145.69 132.882 145.69L131.475 143.015C131.475 143.015 130.225 136.902 129.858 136.693C129.491 136.484 126.653 137.257 126.423 137.808Z" fill="#CE6D3E"/>
<path d="M115.895 114.548L115.731 106.39L111.963 109.795L107.658 103.506L107.215 110.939L100.988 111.013L105.817 114.28L103.512 117.09L109.708 117.373C110.259 117.396 106.751 115.894 106.751 115.894L107.153 114.415L105.81 112.128L108.635 111.993L109.173 109.035L111.764 111.554L114.418 109.843C114.416 109.84 115.897 114.606 115.895 114.548Z" fill="#F6BE4A"/>
<path d="M111.889 134.473L114.737 137.102C114.786 137.145 114.844 137.173 114.911 137.181C115.533 137.25 119.393 137.196 120.661 136.995C121.214 136.908 122.558 135.533 123.993 134.128C124.442 133.687 124.763 133.43 125.22 132.876C125.472 132.57 125.536 132.17 125.192 131.974C125.192 131.974 124.628 131.66 124.317 131.892C124.182 131.994 124.172 131.956 124.205 131.879C124.274 131.719 124.205 131.533 124.042 131.466C123.726 131.339 123.241 131.227 122.764 131.466C122.066 131.816 122.142 131.719 122.142 131.719C122.142 131.39 121.772 131 121.288 130.982C120.64 130.956 120.125 131.334 120.026 131.413C120.013 131.423 119.136 131.619 118.358 131.989C117.435 132.428 116.068 131.854 115.349 131.581C114.026 131.081 111.976 131.028 111.784 134.23C111.784 134.32 111.823 134.411 111.889 134.473Z" fill="#F6874E"/>
<path d="M139.387 95.7179C138.112 102.955 135.7 104.296 135.7 104.296C125.184 108.162 116.422 103.801 115.532 97.48C114.382 91.1357 113.612 87.808 124.304 85.74C134.927 83.6873 140.509 89.3635 139.387 95.7179Z" fill="#1D2436"/>
<path d="M138.199 94.3152C137.112 100.448 127.991 98.6781 127.991 98.6781C126.148 98.1962 119.798 96.9161 118.602 93.5119C117.582 90.6101 116.246 87.3436 125.316 85.5893C133.576 83.993 139.155 88.9246 138.199 94.3152Z" fill="#3D4C6D"/>
<path d="M136.992 97.658C136.992 97.658 137.747 95.6767 137.046 93.5296C137.046 93.5296 139.818 94.1696 136.992 97.658Z" fill="#1D2436"/>
<path d="M121.173 88.2873C121.173 88.2873 114.897 89.955 114.196 91.1738C113.495 92.3952 116.629 105.958 119.204 108.888C121.785 111.826 133.221 106.981 135.276 103.765C136.959 101.136 136.138 100.239 135.723 96.7888C135.292 93.1934 132.125 91.6915 131.5 90.4547C130.442 88.3459 121.173 88.2873 121.173 88.2873Z" fill="#CE6D3E"/>
<path d="M134.437 98.6195C134.899 100.973 132.589 106.348 127.836 107.799C123.065 109.258 119.207 108.886 117.235 103.829C115.213 98.6399 120.354 91.5587 125.084 90.146C129.796 88.741 132.826 93.3258 134.437 98.6195Z" fill="#F6874E"/>
<path d="M120.67 98.0664C120.859 98.8926 120.533 99.3541 120.102 99.4561C119.668 99.5581 119.293 99.2649 119.107 98.4361C118.919 97.61 119.117 96.8552 119.551 96.7532C119.979 96.6537 120.482 97.2402 120.67 98.0664Z" fill="#34273A"/>
<path d="M126.778 92.0278L125.569 93.2544" stroke="#34273A" stroke-miterlimit="10" stroke-linecap="round" stroke-linejoin="round"/>
<path d="M120.301 95.7583L118.603 95.8679" stroke="#34273A" stroke-miterlimit="10" stroke-linecap="round" stroke-linejoin="round"/>
<path d="M126.041 95.1337C126.242 94.4911 127.328 93.2442 128.7 93.6267C128.7 93.6267 126.862 95.3836 126.232 95.9727C126.135 96.0619 126.002 95.2561 126.041 95.1337Z" fill="#34273A"/>
<path d="M136.702 94.7997C136.745 96.8932 135.766 98.7292 134.514 98.8924C133.262 99.0556 132.214 97.4848 132.176 95.3888C132.137 93.2953 133.119 91.4746 134.366 91.314C135.613 91.1508 136.658 92.7113 136.702 94.7997Z" fill="#F6874E"/>
<path d="M127.542 85.6446C127.542 85.6446 117.48 96.5455 114.043 97.8817C110.595 99.223 112.324 89.8673 117.378 86.5498C122.404 83.2553 127.542 85.6446 127.542 85.6446Z" fill="#1D2436"/>
<path d="M128.195 85.4486C128.195 85.4486 128.317 86.2111 126.252 87.5855C122.677 89.9646 115.8 93.6314 114.058 94.3071C111.299 95.3781 113.428 89.2837 117.37 86.4788C121.57 83.4928 128.195 85.4486 128.195 85.4486Z" fill="#3D4C6D"/>
<path d="M121.308 88.5135C121.308 88.5135 118.515 92.7006 115.601 94.0367C115.598 94.0393 122.506 91.0074 121.308 88.5135Z" fill="#1D2436"/>
<path d="M130.103 88.4199C130.103 88.4199 130.822 93.5656 131.854 94.8789L133.889 96.7072L132.512 89.4143L130.103 88.4199Z" fill="#3D4C6D"/>
</svg>
