<svg width="300" height="271" viewBox="0 0 300 271" fill="none" xmlns="http://www.w3.org/2000/svg">
<path d="M265.319 72.0086C265.319 72.0086 273.523 29.0822 239.899 16.8216C206.275 4.56099 183.832 12.4718 176.013 14.8574C168.194 17.2429 122.605 46.3154 150.189 80.2845C150.189 80.2845 143.73 76.797 140.791 79.4394C137.852 82.0818 137.855 82.082 137.855 82.082C137.855 82.082 124.036 78.9079 112.748 87.4028C101.46 95.9007 107.591 99.0206 109.939 100.893C112.287 102.766 110.546 102.674 110.546 102.674C110.546 102.674 89.7148 106.474 82.0982 111.667C74.4817 116.861 67.8552 123.157 94.8905 121.082C121.926 119.008 135.688 116.588 135.688 116.588C135.688 116.588 111.317 121.249 111.06 126.132C110.803 131.015 168.579 122.865 179.865 121.012C191.151 119.16 243.311 104.769 253.956 101.835C253.956 101.835 244.54 107.981 251.863 108.367C259.186 108.752 290.422 93.2633 294.771 90.3447C299.121 87.4261 285.815 87.7738 285.815 87.7738C285.815 87.7738 288.713 79.1847 284.841 73.0362C280.969 66.8878 267.946 68.6489 265.319 72.0086Z" fill="#F3E7D9"/>
<path d="M95.8275 67.8732C95.8275 67.8732 99.1057 58.5562 91.1302 54.1629C85.8638 51.2638 74.8511 57.8521 75.3821 64.3472C75.613 67.1533 72.004 62.07 65.8188 66.6409C59.6335 71.2118 59.7448 79.0834 59.7448 79.0834C59.7448 79.0834 46.439 82.7539 44.6399 83.7073C42.8407 84.6608 40.6216 86.9938 54.7889 83.5407C68.9589 80.0972 95.8275 67.8732 95.8275 67.8732Z" fill="#F3E7D9"/>
<path d="M56.0909 143.287C56.0909 143.287 54.3093 137.249 43.06 138.406C31.8107 139.563 27.1493 148.409 28.8353 149.546C30.5245 150.683 30.8187 151.75 30.8187 151.75C30.8187 151.75 14.4112 157.879 7.98668 160.338C1.56218 162.797 7.63801 166.962 20.1007 162.725C32.5637 158.484 64.5514 148.629 76.1502 147.491C87.749 146.352 56.0909 143.287 56.0909 143.287Z" fill="#F3E7D9"/>
<path d="M121.439 196.861C99.2688 203.334 96.616 213.789 96.616 213.789C96.616 213.789 51.5369 221.04 41.1681 225.559C30.7993 230.079 16.2322 238.273 36.0375 246.055C49.4362 251.319 82.426 259.638 112.465 256.661C142.505 253.683 162.036 251.82 170.293 247.115C178.55 242.412 171.364 235.566 171.364 235.566C171.364 235.566 189.48 238.341 215.35 239.387C241.22 240.432 256.05 234.552 244.079 229.147C244.079 229.147 308.491 213.039 275.872 200.052C270.648 198.257 258.346 186.593 215.939 183.982C173.531 181.372 152.303 187.848 121.439 196.861Z" fill="#856792"/>
<path d="M171.191 203.775C171.191 203.775 140.516 209.851 145.519 214.426C150.522 219.001 169.529 219.469 169.529 219.469C169.529 219.469 177.428 229.124 192.801 228.86C208.174 228.596 218.824 228.134 228.249 225.01C237.675 221.886 276.35 214.382 242.534 207.49C208.719 200.598 171.191 203.775 171.191 203.775Z" fill="#4B3355"/>
<path d="M160.615 193.741C142.732 196.461 139.495 199.541 152.24 203.419C164.986 207.297 170.121 204.316 178.846 200.239C187.574 196.162 178.502 191.019 160.615 193.741Z" fill="#4B3355"/>
<path d="M151.553 221.364C145.57 219.528 139.75 224.287 151.845 225.431C163.94 226.575 157.532 223.196 151.553 221.364Z" fill="#4B3355"/>
<path d="M123.578 228.373C123.578 228.373 122.802 228.445 121.59 228.575C116.512 229.118 103.766 230.662 108.185 232.121C113.662 233.93 134.982 233.025 128.068 229.623" fill="#4B3355"/>
<path d="M96.4294 220.002C96.4294 220.002 57.2938 223.589 51.1682 227.562C45.0425 231.536 67.9873 235.844 67.9873 235.844C67.9873 235.844 75.7638 237.955 86.6312 237.576C97.4985 237.197 132.023 231.049 122.717 226.373C115.514 222.749 96.4294 220.002 96.4294 220.002Z" fill="#4B3355"/>
<path d="M142.718 238.648C142.718 238.648 120.65 236.169 124.48 241.564C128.31 246.96 160.606 242.731 142.718 238.648Z" fill="#4B3355"/>
<path d="M151.041 255.143C147.111 256.813 137.995 262.56 158.191 263.623C178.388 264.686 183.457 251.784 178.58 251.527C173.706 251.27 154.968 253.475 151.041 255.143Z" fill="#856792"/>
<path d="M179.093 169.978C179.093 169.978 126.214 173.48 116.268 176.692C106.322 179.905 92.2212 189.753 116.451 193.845C140.68 197.939 153.983 203.242 165.069 199.001C176.156 194.76 168.532 184.809 168.532 184.809C168.532 184.809 187.95 187.477 201.106 185.216C214.266 182.949 217.915 165.223 179.093 169.978Z" fill="#856792"/>
<path d="M208.743 226.949C206.52 227.508 204.436 231.788 209.993 232.08C215.55 232.373 221.428 230.736 219.298 228.518C216.735 225.849 210.969 226.39 208.743 226.949Z" fill="#4B3355"/>
<path d="M183.737 240.15C183.737 240.15 179.032 242.941 184.562 243.739C190.092 244.537 190.305 240.496 183.737 240.15Z" fill="#856792"/>
<path d="M186.109 247.515C183.938 249.469 182.351 252.411 189.953 253.13C197.556 253.849 198.213 247.357 195.693 246.906C193.167 246.454 188.28 245.561 186.109 247.515Z" fill="#856792"/>
<path d="M232.75 223.147C232.75 223.147 232.803 225.343 237.029 225.231C241.256 225.116 246.068 223.513 246.068 223.513C246.068 223.513 250.091 224.063 253.227 222.201C256.363 220.338 253.351 216.635 244.498 218.028C235.646 219.417 231.614 222.243 232.75 223.147Z" fill="#4B3355"/>
<path d="M183.605 177.718C183.605 177.718 171.142 176.302 174.734 180.289C178.322 184.28 194.053 181.309 183.605 177.718Z" fill="#4B3355"/>
<path d="M184.577 159.184L183.301 177.361L181.014 178.849L178.209 182.856C178.209 182.856 178.359 186.065 177.772 191.156C177.185 196.247 176.193 202.915 176.193 202.915L215.216 221.614L230.502 223.06L243.946 222.05L266.809 211.098L261.616 191.411L261.194 187.227L256.221 184.406L259.547 182.022L258.255 157.95L203.725 154.119L184.577 159.184Z" fill="#7A462F"/>
<path d="M258.259 157.941L231.362 145.963L201.526 147.274L184.577 159.184C184.577 159.184 187.011 161.553 192.119 161.822C197.227 162.09 219.737 166.157 219.737 166.157L236.352 166.712C236.352 166.712 249.707 162.293 253.589 161.537C257.471 160.781 258.259 157.941 258.259 157.941Z" fill="#A96443"/>
<path d="M252.961 214.418L243.47 202.27L243.313 186.055L238.553 170.608L238.926 182.783L241.69 187.994L240.413 202.616L240.361 213.248L230.505 223.057L244.321 214.977L243.204 207.321L249.346 215.748L252.961 214.418Z" fill="#A96443"/>
<path d="M226.192 164.892L224.809 171.912L218.643 163.99L226.192 164.892Z" fill="#A96443"/>
<path d="M245.597 161.861L248.869 167.099L251.765 160.162L245.597 161.861Z" fill="#A96443"/>
<path d="M223.109 156.119L220.822 170.688L225.475 178.53L224.464 188.1L222.817 180.924L218.324 170.05L223.109 156.119Z" fill="#A96443"/>
<path d="M227.497 178.636L226.885 190.252L230.683 204.635L230.817 211.732L232.891 201.206L229.941 189.909L227.497 178.636Z" fill="#A96443"/>
<path d="M230.952 180.339L229.968 189.404L231.668 195.57L231.773 183.927L233.449 176.165L230.952 180.339Z" fill="#A96443"/>
<path d="M184.444 178.65L182.218 187.228L183.637 195.575L182.476 201.59L184.813 195.637L183.371 187.793L184.444 178.65Z" fill="#A96443"/>
<path d="M252.111 163.218C252.111 163.218 251.18 171.272 251.1 172.789C251.021 174.305 250.21 189.709 250.21 189.709L256.057 203.693L254.713 190.707L266.808 211.095L261.194 187.224L256.221 184.403L259.547 182.019L258.672 163.567L256.67 168.017L255.913 177.601L254.463 171.445L254.994 166.154L252.111 163.218Z" fill="#A96443"/>
<path d="M249.444 221.069C250.846 220.889 253.478 216.597 248.04 209.218C245.786 206.161 245.561 214.175 246.358 217.108C247.158 220.041 248.042 221.248 249.444 221.069Z" fill="#33A86D"/>
<path d="M251.355 217.045C251.355 217.045 249.825 208.839 251.277 209.013C255.643 209.53 253.912 212.343 253.912 212.343C253.912 212.343 260.271 206.789 261.273 208.976C262.274 211.165 258.103 214.206 258.103 214.206C258.103 214.206 269.03 207.695 263.591 212.83C258.156 217.966 250.341 220.912 251.355 217.045Z" fill="#33A86D"/>
<path d="M246.742 197.883C246.742 197.883 248.418 204.554 250.144 200.594C251.873 196.633 251.022 193.55 246.742 197.883Z" fill="#33A86D"/>
<path d="M259.795 200.092C259.795 200.092 263.038 196.21 259.502 196.024C255.966 195.837 257.826 198.974 259.795 200.092Z" fill="#33A86D"/>
<path d="M247.912 166.035C247.912 166.035 248.684 170.635 245.703 169.464C242.723 168.293 242.939 164.255 247.912 166.035Z" fill="#33A86D"/>
<path d="M246.953 174.595C246.953 174.595 254.103 173.45 250.648 171.751C247.193 170.049 244.003 172.922 246.953 174.595Z" fill="#33A86D"/>
<path d="M250.542 183.394C250.542 183.394 255.327 179.087 250.808 178.342C246.288 177.6 245.517 182.622 250.542 183.394Z" fill="#33A86D"/>
<path d="M241.316 175.818C241.316 175.818 241.503 181.907 243.628 179.992C245.753 178.076 245.995 173.533 241.316 175.818Z" fill="#33A86D"/>
<path d="M222.123 225.584C222.123 225.584 219.155 219.99 222.18 217.612C225.206 215.231 222.123 225.584 222.123 225.584Z" fill="#288453"/>
<path d="M220.149 224.338C219.28 225.644 213.589 211.838 216.639 211.616C219.689 211.395 221.022 223.036 220.149 224.338Z" fill="#288453"/>
<path d="M214.622 222.7C213.897 221.27 213.474 214.029 215.93 217.112C217.735 219.382 218.192 219.847 218.57 223.077C218.948 226.304 215.348 224.131 214.622 222.7Z" fill="#288453"/>
<path d="M176.732 204.833C176.732 204.833 176.213 195.435 173.13 196.286C170.048 197.138 173.357 201.617 173.357 201.617C173.357 201.617 169.023 197.337 170.101 200.939C171.178 204.54 176.732 204.833 176.732 204.833Z" fill="#33A86D"/>
<path d="M179.722 205.751C179.722 205.751 182.286 200.313 179.789 199.675C177.291 199.037 177.621 202.345 177.621 202.345C177.621 202.345 175.642 196.669 175.243 199.436C174.844 202.199 176.254 204.301 177.98 205.152C179.709 206.003 179.709 206.003 179.709 206.003" fill="#288453"/>
<path d="M104.571 250.29C104.571 250.29 100.584 239.446 102.719 242.215C104.851 244.986 105.529 246.543 105.529 246.543C105.529 246.543 105.11 240.063 107.682 241.719C110.254 243.375 108.519 247.46 108.519 247.46C108.519 247.46 112.867 244.269 113.125 246.564C113.382 248.858 107.541 251.586 104.571 250.29Z" fill="#33A86D"/>
<path d="M80.0939 251.03C80.0939 251.03 76.7248 242.874 79.4167 242.259C82.1087 241.64 82.5877 246.984 82.5877 246.984C82.5877 246.984 82.7286 237.114 86.1358 237.293C89.543 237.473 86.0548 246.025 86.0548 246.025C86.0548 246.025 87.2902 244.191 89.0844 246.184C90.8786 248.178 89.5634 251.528 89.5634 251.528C89.5634 251.528 93.4908 249.076 95.6657 251.089C97.8374 253.103 95.5261 253.741 95.5261 253.741C95.5261 253.741 102.804 252.604 102.324 254.478C101.846 256.352 95.7042 257.549 90.1023 255.734C84.5004 253.918 71.9382 254.399 73.2367 251.426C74.5319 248.456 80.0939 251.03 80.0939 251.03Z" fill="#33A86D"/>
<path d="M38.3873 232.317C38.3873 232.317 32.2671 225.131 37.3851 220.566L38.5532 225.362C38.5532 225.362 40.9125 219.353 43.8146 217.479L40.3699 226.274C40.3699 226.274 42.6576 221.923 45.4918 220.802C48.3259 219.684 38.3873 232.317 38.3873 232.317Z" fill="#856792"/>
<path d="M35.685 231.938C35.685 231.938 29.486 227.319 22.5746 226.426C22.5746 226.426 27.4853 225.026 30.4964 226.192C33.5075 227.358 33.368 229.769 33.368 229.769L32.2678 224.22C32.2678 224.22 38.3313 230.343 38.3839 232.317C38.4364 234.291 35.685 231.938 35.685 231.938Z" fill="#856792"/>
<path d="M271.574 201.634C271.574 201.634 269.783 192.748 272.912 190.291L272.727 195.187C272.727 195.187 274.771 190.401 276.437 189.675L273.446 196.683C273.446 196.683 275.201 193.424 276.717 193.379C278.234 193.333 271.574 201.634 271.574 201.634Z" fill="#856792"/>
<path d="M270.354 200.322C270.354 200.322 268.131 193.812 264.993 190.534C264.993 190.534 267.537 190.962 268.784 193.118C270.032 195.273 269.593 197.478 269.593 197.478L269.928 191.901C269.928 191.901 271.857 199.769 271.577 201.634C271.297 203.5 270.354 200.322 270.354 200.322Z" fill="#856792"/>
<path d="M152.081 197.472C152.018 197.491 151.954 197.516 151.893 197.547C150.968 197.993 142.182 199.257 141.272 200.261C140.528 201.079 140.507 204.738 140.664 206.154C140.713 206.595 141.003 206.967 141.42 207.127C143.116 207.785 145.505 209.297 149.758 209.274C155.394 209.242 156.53 208.954 160.812 207.181C163.617 206.02 167.96 205.007 168.813 204.626C169.22 204.444 169.415 204.06 169.46 203.628L169.935 198.881C169.994 198.287 169.681 197.748 169.085 197.607C166.322 196.961 158.578 195.477 152.081 197.472Z" fill="#29ABE2"/>
<path d="M155.22 195.797C155.22 195.797 142.169 198.79 141.216 199.772C140.263 200.754 140.658 204.843 140.658 204.843C140.658 204.843 144.243 207.303 149.83 207.065C155.44 206.825 156.719 207.196 160.971 205.59C164.269 204.343 168.676 203.358 169.313 203.091C169.482 203.018 169.596 202.874 169.615 202.706L170.051 198.512C170.09 198.129 169.818 197.773 169.404 197.673C166.957 197.091 161.979 193.885 155.22 195.797Z" fill="#121721"/>
<path d="M147.386 198.283C147.386 198.283 150.932 197.906 153.449 200.304" stroke="#29ABE2" stroke-width="2" stroke-miterlimit="10" stroke-linecap="round" stroke-linejoin="round"/>
<path d="M149.868 197.259C149.868 197.259 152.414 196.97 156.49 199.716" stroke="#29ABE2" stroke-width="2" stroke-miterlimit="10" stroke-linecap="round" stroke-linejoin="round"/>
<path d="M200.975 131C200.975 131 178.733 124.933 170.139 123.611C165.403 122.883 163.129 124.165 161.522 126.818C159.912 129.467 159.789 138.822 164.343 141.653C168.896 144.483 176.338 144.74 182.24 147.106C188.138 149.469 196.492 154.815 201.602 152.603C206.712 150.391 214.298 137.458 200.975 131Z" fill="#CE9436"/>
<path d="M200.974 131L190.968 128.518L171.536 144.203C171.536 144.203 179.635 146.062 182.236 147.106C188.135 149.469 196.489 154.815 201.599 152.603C206.712 150.391 208.163 131.21 200.974 131Z" fill="#F7BC4B"/>
<path d="M172.361 162.227C172.361 162.227 172.345 140.127 173.054 135.403C173.765 130.678 173.646 123.97 165.206 123.166C159.494 122.621 156.118 123.385 155.418 130.269C154.86 135.756 154.008 140.232 154.539 145.951C155.256 153.623 153.992 188.568 152.838 189.746C151.684 190.924 151.598 190.422 151.572 193.402C151.552 195.807 153.633 196.161 159.168 197.463C162.578 198.071 165.937 200.585 168.838 198.97C171.739 197.355 171.127 196.027 171.127 196.027L171.131 193.036L172.361 162.227Z" fill="#CE9436"/>
<path d="M172.361 162.227C172.361 162.227 175.957 141.053 176.668 136.329C177.38 131.604 164.839 160.502 165.504 163.578C166.171 166.654 166.218 172.892 166.218 172.892L164.27 169.899C164.27 169.899 161.104 189.625 161.078 192.608C161.058 195.013 153.629 196.168 159.164 197.466C162.574 198.075 165.933 200.589 168.834 198.973C171.735 197.358 171.123 196.031 171.123 196.031L171.127 193.04L172.361 162.227Z" fill="#F7BC4B"/>
<path d="M241.194 136.474C241.194 136.474 245.377 146.825 243.541 152.805C241.706 158.787 240.361 158.717 233.314 157.839C226.877 157.037 189.532 151.692 196.887 137.856C203.061 126.238 212.05 128.861 221.892 131.069C231.738 133.276 241.194 136.474 241.194 136.474Z" fill="#F7BC4B"/>
<path d="M198.547 90.3266C198.547 90.3266 192.433 94.6135 191.607 100.568C190.78 106.522 186.692 112.862 185.14 114.826C183.588 116.791 179.588 123.886 185.707 128.256C191.825 132.627 194.585 123.643 197.182 119.771C199.779 115.9 203.442 112.41 205.555 106.561C207.669 100.709 210.336 86.6451 198.547 90.3266Z" fill="#7A462F"/>
<path d="M190.919 124.523C190.919 124.523 192.243 128.973 187.118 133.255C181.993 137.538 173.433 144.243 171.203 146.072C168.973 147.9 165.978 147.014 163.971 144.856C161.963 142.694 164.126 139.704 169.642 133.697C175.159 127.689 181.265 119.494 186.321 117.789C191.376 116.084 190.919 124.523 190.919 124.523Z" fill="#7A462F"/>
<path d="M177.509 137.174C178.489 136.456 192.242 128.973 187.117 133.255C181.992 137.538 173.433 144.243 171.203 146.072C168.973 147.9 167.575 143.068 169.7 141.155C171.825 139.243 173.901 139.812 177.509 137.174Z" fill="#A96443"/>
<path d="M166.322 140.117C165.283 139.772 163.632 140.164 161.366 140.717C159.654 141.134 157.033 141.249 155.25 141.409C152.449 141.659 152.509 140.589 150.589 141.755C149.623 142.342 150.04 143.866 150.625 144.288C152.008 145.29 156.172 144.764 156.705 145.03C157.239 145.296 153.258 149.182 153.07 149.476C152.883 149.769 148.219 151.767 147.206 152.408C146.193 153.05 146.885 153.634 147.286 154.033C147.688 154.433 149.18 154.487 149.18 154.487C149.18 154.487 147.742 155.074 148.7 156.191C149.661 157.312 150.405 157.204 151.044 156.884C151.684 156.564 152.643 156.352 152.643 156.352C152.643 156.352 152.349 157.767 153.79 157.977C155.231 158.187 155.816 157.764 155.816 157.764C155.816 157.764 156.03 158.458 157.229 158.859C158.428 159.26 158.562 158.86 160.774 157.553C162.986 156.246 165.999 154.408 166.878 153.635C167.757 152.861 171.089 146.864 170.529 145.079C169.975 143.288 167.361 140.463 166.322 140.117Z" fill="#7A462F"/>
<path d="M167.903 143.254C166.864 142.908 163.796 141.862 161.533 142.412C159.822 142.829 156.73 142.244 154.951 142.403C152.15 142.653 152.821 141.193 150.902 142.359C149.935 142.947 150.05 143.863 150.631 144.288C152.014 145.29 156.178 144.765 156.712 145.03C157.245 145.296 153.264 149.182 153.077 149.476C152.889 149.77 148.226 151.767 147.213 152.409C146.2 153.05 146.892 153.634 147.293 154.034C147.694 154.433 149.53 153.979 149.53 153.979C149.53 153.979 147.748 155.074 148.706 156.195C149.667 157.315 150.39 156.528 151.09 156.383C152.07 156.181 152.801 155.966 152.801 155.966C152.801 155.966 152.005 157.723 153.796 157.98C154.88 158.134 157.075 156.729 157.075 156.729C157.075 156.729 155.99 157.495 156.658 158.068C157.69 158.955 158.367 158.221 160.579 156.914C162.791 155.607 165.429 153.461 166.308 152.688C167.188 151.914 170.126 146.731 169.566 144.947C169.006 143.159 168.942 143.6 167.903 143.254Z" fill="#A96443"/>
<path d="M155.6 150.879C155.6 150.879 158.323 152.881 159.439 153.318C160.555 153.756 161.339 154.135 161.339 154.135C161.339 154.135 157.097 151.337 156.85 151.198C156.604 151.06 155.271 149.933 155.271 149.933L155.6 150.879Z" fill="#7A462F"/>
<path d="M156.028 157.369L158.938 155.592L160.922 153.987C160.922 153.987 160.259 154.872 159.012 155.793C158.253 156.35 156.93 156.947 156.028 157.369Z" fill="#7A462F"/>
<path d="M152.792 156.091L155.763 154.138C155.763 154.138 157.594 152.771 158.638 152.431L156.269 154.165L152.792 156.091Z" fill="#7A462F"/>
<path d="M149.094 154.166L153.363 152.492L155.616 150.583C155.616 150.583 153.553 152.079 153.203 152.314C152.853 152.549 148.458 154.258 148.458 154.258L149.094 154.166Z" fill="#7A462F"/>
<path d="M219.428 84.9335C208.432 85.3684 203.279 87.037 200.689 88.0834C198.103 89.1299 198.561 89.9988 198.561 89.9988C198.561 89.9988 198.943 98.7982 199.28 102.023C199.617 105.248 200.48 113.281 200.704 117.46C200.95 122.057 204.202 130.431 203.803 133.198C203.319 136.552 204.88 141.612 204.88 141.612C204.88 141.612 214.515 139.797 221.204 140.994C227.893 142.191 241.509 140.12 242.192 139.987C242.875 139.854 242.382 137.97 242.471 136.288C242.56 134.603 242.444 131.981 242.444 131.981C242.444 131.981 241.507 116.908 241.685 113.538C241.862 110.171 243.383 92.0264 242.206 88.4102C241.476 86.1785 230.423 84.4985 219.428 84.9335Z" fill="#29ABE2"/>
<path d="M238.027 111.66C238.027 111.66 238.333 117.079 238.129 120.951C237.925 124.823 239.739 128.886 238.834 131.623C237.93 134.36 237.132 139.89 237.132 139.89" stroke="#1689CB" stroke-miterlimit="10"/>
<path d="M226.77 84.9638C227.781 85.017 226.867 90.3066 225.456 92.2597C224.046 94.2129 218.111 97.1075 213.557 97.0367C208.67 96.961 206.294 95.2684 208.141 90.8415C209.108 88.5301 209.746 86.0294 211.446 85.781C213.148 85.5327 214.358 85.3867 218.293 85.2122C222.229 85.0376 225.759 84.9106 226.77 84.9638Z" fill="#7A462F"/>
<path d="M220.944 90.3105C224.803 89.5311 224.59 89.4699 224.338 87.4824L223.668 78.1516C223.47 76.5705 221.761 75.52 219.357 76.0036L214.259 76.8585C211.926 77.327 210.933 78.8861 210.891 80.4607C210.891 80.4607 211.209 87.1355 211.69 89.2352C212.176 91.3601 217.083 91.0897 220.944 90.3105Z" fill="#A96443"/>
<path d="M220.71 90.6097C212.457 85.8357 210.93 78.8877 210.888 80.4592C210.888 80.4592 210.971 87.4314 211.452 89.5311C211.944 91.6595 216.848 91.392 220.71 90.6097Z" fill="#7A462F"/>
<path d="M199.941 105.519L200.583 110.627C200.583 110.627 215.249 113.036 234.189 111.627L233.353 105.885C233.349 105.885 219.807 107.578 199.941 105.519Z" fill="#3E4C6F"/>
<path d="M234.188 114.032C234.188 114.032 217.211 115.166 200.837 113.291L201.438 117.922C201.438 117.922 206.941 119.225 215.162 119.489C223.383 119.753 235.087 118.638 235.087 118.638L234.188 114.032Z" fill="#3E4C6F"/>
<path d="M225.957 65.9943C227.221 81.276 224.382 80.0409 218.148 80.8955C212.933 81.6127 207.941 75.8715 207.027 68.2706C206.113 60.6697 209.608 53.9986 214.835 53.3695C220.062 52.7404 225.181 56.6016 225.957 65.9943Z" fill="#273252"/>
<path d="M222.765 64.2719C221.891 57.2801 220.677 53.3678 213.074 53.7279C209.106 53.9164 205.276 54.7598 203.139 56.2523C201.206 57.6023 200.163 59.4622 199.983 64.1396C199.847 67.6648 199.79 73.7379 201.598 79.3897C202.759 83.0114 207.559 83.846 211.681 83.6312C222.113 83.0915 223.579 81.8139 223.615 74.3474C223.65 67.3283 223.124 67.1411 222.765 64.2719Z" fill="#7A462F"/>
<path d="M221.535 56.9197C219.341 52.7087 212.97 57.4795 215.746 58.655C219.835 60.3908 218.328 69.8197 217.348 75.5376C216.269 81.829 212.583 83.1994 212.583 83.1994C212.583 83.1994 214.558 83.3566 216.919 82.8582C220.76 82.0467 223.448 82.2726 223.436 72.9796C223.433 68.521 222.885 59.5063 221.535 56.9197Z" fill="#A96443"/>
<path d="M201.504 56.2856C200.92 56.7429 200.168 60.7395 200.015 63.2313C199.984 63.7553 200.616 59.959 201.372 59.082C201.372 59.082 203.582 59.7271 206.147 59.4992C210.909 59.0772 215.183 58.0538 215.183 58.0538C215.183 58.0538 216.83 63.5063 218.324 65.2619C219.856 67.0634 221.7 67.9989 221.7 67.9989L223.769 64.1031C223.346 58.837 221.399 54.3918 217.818 53.6464C211.263 52.2845 203.651 54.6027 201.504 56.2856Z" fill="#273252"/>
<path d="M212.715 68.6835C212.72 69.7353 212.231 69.8598 211.699 69.8599C211.167 69.8632 210.782 69.7428 210.765 68.6904C210.749 67.6287 211.177 66.7561 211.722 66.7535C212.266 66.754 212.712 67.6224 212.715 68.6835Z" fill="#1D2538"/>
<path d="M210.102 63.242C210.102 63.242 212.264 62.949 213.229 63.9386" stroke="#1D2538" stroke-miterlimit="10" stroke-linecap="round" stroke-linejoin="round"/>
<path d="M204.954 69.2166C204.999 70.2016 204.569 70.276 204.069 70.2778C203.568 70.2797 203.177 70.209 203.123 69.2235C203.065 68.2284 203.434 67.4091 203.944 67.4078C204.455 67.4034 204.906 68.2189 204.954 69.2166Z" fill="#1D2538"/>
<path d="M204.693 64.0085C204.693 64.0085 203.106 63.4743 201.696 64.8115" stroke="#1D2538" stroke-miterlimit="10" stroke-linecap="round" stroke-linejoin="round"/>
<path d="M226.567 69.0961C225.903 71.6048 223.929 73.325 222.137 73.0117C222.137 73.0117 222.12 67.2758 222.08 66.1817C222.054 65.4952 222.468 63.3863 224.378 63.7215C226.281 64.0563 227.251 66.5008 226.567 69.0961Z" fill="#A96443"/>
<path d="M225.423 71.6987C225.318 72.3786 224.663 72.8761 223.965 72.8144C223.267 72.7526 222.776 72.1509 222.872 71.4706C222.967 70.784 223.62 70.2738 224.33 70.3362C225.04 70.3986 225.531 71.0128 225.423 71.6987Z" fill="#F3E7D9"/>
<path d="M212.846 148.827C212.846 148.827 212.987 153.759 208.721 153.844C208.721 153.844 212.661 149.843 212.846 148.827Z" fill="#CE9436"/>
<path d="M193.102 208.295C187.441 209.99 179.211 211.563 178.749 213.976C178.288 216.373 177.941 218.914 178.134 219.825C178.283 220.515 178.57 220.934 179.111 221.175C180.487 221.789 183.229 223.244 188.821 223.945C191.233 224.247 196.557 223.148 199.824 220.936C202.413 219.185 205.507 217.158 206.664 216.399C206.966 216.202 207.169 215.897 207.229 215.547L207.696 212.855C207.79 212.307 207.513 211.751 207.004 211.483C204.618 210.222 197.699 206.917 193.102 208.295Z" fill="#29ABE2"/>
<path d="M193.472 205.968C188.539 207.369 179.152 210.605 178.71 212.997C178.311 215.157 178.127 216.348 178.173 217.183C178.196 217.591 179.332 217.823 179.883 218.046C181.286 218.611 184.082 219.947 189.759 220.637C192.206 220.935 197.023 220.475 200.317 218.524C203.052 216.906 206.346 215.021 207.368 214.436C207.572 214.319 207.713 214.135 207.759 213.922L208.19 211.839C208.375 210.945 208.305 207.049 207.319 206.7C203.731 205.428 197.843 204.724 193.472 205.968Z" fill="#121721"/>
<path d="M193.837 212.291C193.837 212.291 189.381 208.139 184.166 209.495" stroke="#29ABE2" stroke-width="2" stroke-miterlimit="10" stroke-linecap="round" stroke-linejoin="round"/>
<path d="M197.051 210.489C197.051 210.489 192.393 206.718 187.194 208.068" stroke="#29ABE2" stroke-width="2" stroke-miterlimit="10" stroke-linecap="round" stroke-linejoin="round"/>
<path d="M201.586 208.553C201.586 208.553 199.74 208.8 195.678 208.461C191.613 208.125 191.389 206.784 190.349 206.153C189.309 205.523 186.883 207.986 188.124 201.352C189.365 194.719 188.41 192.059 188.172 190.382C187.935 188.705 187.473 190.649 187.759 185.405C188.044 180.16 188.584 176.021 188.633 169.1C188.681 162.178 188.771 140.069 189.66 137.165C190.551 134.259 210.66 136.334 211.889 141.514C213.118 146.695 211.062 152.64 210.317 155.032C209.571 157.424 210.126 164.549 209.243 169.315C208.75 171.967 208.319 179.92 208.524 188.857C208.729 197.794 209.2 200.979 209.745 201.968C210.291 202.957 209.416 206.199 208.966 207.568C208.521 208.94 201.586 208.553 201.586 208.553Z" fill="#F7BC4B"/>
<path d="M242.704 141.45C242.305 139.402 241.886 140.772 226.937 137.92C215.367 135.713 199.864 129.406 197.163 135.846C194.462 142.287 226.556 145.159 233.954 145.717C241.355 146.276 243.103 143.499 242.704 141.45Z" fill="#F7BC4B"/>
<path d="M200.033 148.659C200.033 148.659 193.962 145.302 194.707 140.782C195.461 136.194 206.458 135.071 211.835 134.51C202.158 130.709 190.55 134.265 189.659 137.172C188.768 140.078 188.68 162.188 188.632 169.106C188.584 176.028 188.044 180.167 187.758 185.411C187.47 190.655 187.932 188.712 188.172 190.389C188.412 192.066 189.364 194.725 188.123 201.359C186.882 207.992 189.309 205.529 190.349 206.16C191.389 206.79 191.612 208.132 195.677 208.468C199.743 208.804 201.586 208.56 201.586 208.56C201.586 208.56 208.521 208.943 208.968 207.575C209.416 206.206 210.294 202.964 209.748 201.975C209.454 201.44 204.191 195.443 199.316 189.746L199.71 191.178L199.738 196.654C199.738 196.654 197.789 191.896 197.099 190.142C196.61 188.899 195.684 186.285 195.18 184.86C192.87 182.085 191.172 179.934 190.998 179.384C190.713 178.492 190.92 145.62 194.003 147.666C197.598 150.052 200.033 148.659 200.033 148.659Z" fill="#CE9436"/>
<path d="M240.643 87.6545C239.107 87.6393 236.102 86.6552 234.186 92.3801C232.271 98.105 235.449 112.198 238.491 111.348C241.533 110.497 241.474 102.895 242.389 98.6376C243.305 94.3775 242.638 87.675 240.643 87.6545Z" fill="#7A462F"/>
<path d="M240.642 87.6515C238.874 87.3112 238.136 88.7898 236.926 90.9194C235.025 94.2704 235.968 102.336 238.989 101.885C242.01 101.434 242.275 94.8021 243.1 92.255C243.926 89.7078 243.065 88.12 240.642 87.6515Z" fill="#A96443"/>
<path d="M250.37 104.88C250.37 104.88 249.049 101.097 247.017 96.4313C244.985 91.7657 243.774 87.4813 240.691 88.3328C237.608 89.1842 236.047 93.9985 235.595 97.773C235.143 101.548 236.717 105.344 239.383 109.198C241.523 112.29 243.66 121.748 246.648 125.957C250.38 131.215 253.63 134.428 257.311 131.837C260.993 129.246 259.094 122.053 256.566 117.108C254.039 112.163 250.37 104.88 250.37 104.88Z" fill="#A96443"/>
<path d="M238.111 102.039C235.127 98.0491 236.714 92.5103 236.714 92.5103C236.714 92.5103 235.751 93.9802 235.299 97.7547C234.847 101.529 236.421 105.326 239.087 109.18C241.227 112.271 243.66 121.745 246.646 125.954C246.646 125.954 255.399 124.831 252.787 123.934C250.301 123.08 248.811 123.74 248.176 122.552C246.937 120.244 242.863 110.433 242.863 110.433C242.863 110.433 240.476 105.205 238.111 102.039Z" fill="#7A462F"/>
<path d="M255.675 124.405C255.675 124.405 253.54 123.47 247.89 124.946C242.24 126.423 244.84 128.14 234.409 132.656C229.066 134.969 232.409 139.81 239.545 138.921C246.682 138.03 252.496 136.649 256.231 133.048C259.965 129.443 260.337 127.185 255.675 124.405Z" fill="#A96443"/>
<path d="M245.572 128.685C247.134 127.413 249.699 125.464 250.428 124.636C250.994 123.993 250.357 124.194 247.886 124.84C242.236 126.316 244.843 128.14 234.412 132.656C229.065 134.969 242.793 130.945 245.572 128.685Z" fill="#7A462F"/>
<path d="M235.416 133.976C234.634 133.378 229.992 131.16 227.228 130.761C224.465 130.362 221.392 130.96 221.392 130.96L215.716 132.939C215.716 132.939 213.715 134.862 213.17 135.59C212.625 136.322 213.537 137.064 213.537 137.064C213.537 137.064 215.43 138.365 215.831 138.008C216.228 137.65 216.228 137.65 216.228 137.65C216.228 137.65 217.179 138.839 217.931 139.007C218.682 139.172 219.572 139.093 219.572 139.093C219.572 139.093 221.547 140.083 222.936 140.156C224.324 140.229 225.701 138.149 227.102 137.969C228.504 137.789 229.596 139.937 232.255 139.949C234.913 139.963 237.729 135.744 235.416 133.976Z" fill="#A96443"/>
<path d="M233.698 133.032C231.886 132.157 229.119 131.032 227.228 130.761C224.465 130.362 221.392 130.96 221.392 130.96L215.716 132.939C215.716 132.939 213.715 134.862 213.17 135.59C212.625 136.322 213.537 137.064 213.537 137.064C213.537 137.064 215.43 138.365 215.831 138.008C216.228 137.65 216.228 137.65 216.228 137.65C216.228 137.65 217.179 138.839 217.931 139.007C218.682 139.172 219.572 139.093 219.572 139.093L220.209 137.397L228.462 132.935C228.466 132.935 234.537 133.436 233.698 133.032Z" fill="#7A462F"/>
<path d="M123.333 180.252C123.333 180.252 125.056 185.909 126.246 187.257L127.703 184.424C127.7 184.424 126.06 181.453 123.333 180.252Z" fill="#992C29"/>
<path d="M124.047 182.671C124.047 182.671 122.954 187.263 123.317 188.924L125.72 188.278C125.717 188.278 125.696 185.336 124.047 182.671Z" fill="#992C29"/>
<path d="M64.1894 201.127C64.1894 201.127 61.8366 213.49 62.2552 216.475C62.6707 219.46 61.4558 223.163 60.1547 225.056C59.4329 226.226 61.5345 230.82 61.5345 230.82C61.5345 230.82 65.0984 232.065 68.6415 231.028C71.7398 230.121 71.0947 228.288 69.2159 227.307C67.322 226.316 72.2545 218.56 72.2545 218.56C72.2545 218.56 76.3639 205.1 76.6938 203.053C77.0236 201.008 66.4047 194.467 64.1894 201.127Z" fill="#1D2538"/>
<path d="M120.074 183.137C116.992 183.626 101.467 182.011 100.488 175.896C99.7648 171.377 98.2102 166.318 98.0071 162.509C98.0071 162.509 96.4915 159.738 95.2031 156.398C93.9093 153.041 94.5808 152.529 96.4399 153.528C98.2838 154.517 101.679 158.078 101.679 158.078C101.679 158.078 106.387 155.053 112.707 154.825C118.835 154.607 117.305 156.622 119.447 159.573L120.962 162.234C120.962 162.234 125.519 160.052 128.473 159.866C131.383 159.685 132.316 160.929 133.376 164.201C134.472 167.579 134.513 167.919 133.706 169.825C132.895 171.741 130.181 175.272 127.255 177.843C127.264 177.837 123.112 182.656 120.074 183.137Z" fill="#1D2538"/>
<path d="M120.074 183.137C116.991 183.626 113.601 186.639 112.624 180.524C111.901 176.005 112.508 168.635 112.508 168.635C112.508 168.635 106.397 155.047 112.716 154.819C118.844 154.601 119.177 156.358 120.767 159.082L121.778 161.817C121.778 161.817 125.529 160.043 128.483 159.861C131.392 159.679 132.325 160.923 133.386 164.196C134.481 167.573 134.523 167.913 133.715 169.82C132.904 171.736 130.19 175.266 127.264 177.837C127.264 177.837 123.112 182.656 120.074 183.137Z" fill="#273252"/>
<path d="M132.286 161.203C133.323 162.718 131.052 164.248 130.006 162.728C128.954 161.199 125.863 160.489 127.717 159.911C128.999 159.515 131.246 159.681 132.286 161.203Z" fill="#121721"/>
<path d="M109.301 156.999C109.301 156.999 108.837 152.557 108.939 149.252C109.039 146.097 110.713 146.698 112.257 149.339C113.868 152.089 116.051 157.336 116.434 158.379C116.82 159.422 110.819 160.677 109.301 156.999Z" fill="#273252"/>
<path d="M110.979 149.97C110.527 146.783 111.086 147.76 112.63 150.398C114.238 153.142 114.095 153.666 114.481 154.713C114.864 155.756 111.38 152.807 110.979 149.97Z" fill="#1D2538"/>
<path d="M112.729 221.047C112.355 219.82 110.148 219.669 110.073 219.362C108.802 214.157 108.661 208.928 108.513 207.703C108.207 205.187 109.838 200.408 109.219 194.987C108.622 189.762 99.6594 194.306 100.221 200.518C100.545 204.105 102.394 216.232 102.928 219.527C103.004 219.991 103.177 220.435 103.441 220.833L105.982 223.558C106.551 224.576 107.809 224.277 110.11 223.713C112.383 223.156 113.235 222.713 112.729 221.047Z" fill="#273252"/>
<path d="M128.508 228.22C128.378 225.046 124.489 224.914 124.489 224.914C124.283 224.487 123.564 223.66 123.508 223.235C123.077 220.008 123.647 212.633 123.578 211.206C123.434 208.235 124.195 199.305 124.001 192.462C123.806 185.587 115.168 190.989 114.77 197.776C114.488 202.608 117.589 222.029 117.876 223.896C117.876 223.896 121.965 230.431 124.126 230.326C126.262 230.223 128.59 230.176 128.508 228.22Z" fill="#273252"/>
<path d="M100.373 178.127C98.9459 180.933 99.8366 182.26 96.2562 183.351C88.1127 185.835 81.503 186.047 72.3177 188.173C66.3251 189.56 61.9891 202.034 64.3534 205.679C66.7209 209.323 76.9697 209.224 83.135 213.71C89.6016 218.415 97.229 213.492 101.48 211.794C105.73 210.097 116.801 203.121 119.57 200.56C120.57 199.636 121.095 196.973 121.858 194.188C122.962 190.154 124.841 185.547 122.413 181.684C120.77 179.063 101.801 175.324 100.373 178.127Z" fill="#1D2538"/>
<path d="M115.843 183.516L111.551 190.693C111.551 190.693 106.753 197.261 107.144 197.266L111.23 205.243C111.23 205.243 116.804 203.118 119.57 200.557C120.57 199.634 122.741 197.495 123.505 194.707C124.609 190.673 124.209 187.382 123.554 181.588L115.843 183.516Z" fill="#273252"/>
<path d="M100.44 176.851C100.44 176.851 99.7531 177.65 99.7756 179.363C99.7756 179.363 105.077 181.488 115.278 183.483C120.456 184.497 124.475 183.917 124.475 183.917L124.231 180.775C124.231 180.778 111.997 182.262 100.44 176.851Z" fill="#992C29"/>
<path d="M73.697 192.408C72.8462 191.096 71.4798 191.972 68.2889 185.722C65.0981 179.471 64.3781 169.434 68.9866 166.344C68.9866 166.344 64.1388 164.825 59.9378 174.081C55.6413 183.545 65.5976 194.888 66.5177 195.775C70.5841 199.715 76.1161 196.142 73.697 192.408Z" fill="#273252"/>
<path d="M74.1842 192.776C73.3277 191.455 70.2832 196.391 65.5694 186.857C63.0895 181.842 61.9349 169.539 69.002 166.344C69.002 166.344 61.4446 164.826 58.9408 174.769C55.7018 187.62 65.5845 195.13 66.5104 196.027C70.6123 200.006 76.6266 196.543 74.1842 192.776Z" fill="#1D2538"/>
<path d="M77.3703 204.884C77.3703 204.884 80.6984 221.188 82.3775 223.704C84.0479 226.207 85.2415 229.922 84.7343 232.01C84.2265 234.108 88.0688 236.838 88.0688 236.838C88.0688 236.838 93.2385 236.522 94.1035 236.258C94.9653 235.993 96.7725 232.687 94.5048 232.437C92.2122 232.184 91.3764 222.266 91.3764 222.266C91.3764 222.266 91.3876 204.636 90.8589 202.675C90.3299 200.716 76.7387 198.099 77.3703 204.884Z" fill="#1D2538"/>
<path d="M120.169 162.204C120.51 162.093 120.528 161.205 120.209 160.22C119.89 159.235 119.355 158.526 119.013 158.636C118.672 158.747 118.653 159.635 118.972 160.62C119.292 161.606 119.827 162.315 120.169 162.204Z" fill="#121721"/>
<path d="M130.086 173.762C130.086 173.762 125.577 173.525 125.41 177.111C125.399 177.386 125.529 177.652 125.752 177.814L128.827 180.029C128.827 180.029 134.851 187.435 135.822 188.247C136.793 189.058 140.638 191.369 143.451 187.635C145.97 184.291 144.832 178.212 142.213 177.439L130.086 173.762Z" fill="#F5894E"/>
<path d="M135.543 185.529C134.769 183.286 136.485 179.096 140.24 178.855C144.56 178.576 144.507 185.159 142.736 187.356C140.56 190.061 136.788 189.142 135.543 185.529Z" fill="#FFFCF3"/>
<path d="M135.822 183.435L137.798 185.184C137.798 185.184 137.527 184.851 137.729 183.282C137.861 182.25 138.776 181.169 140.793 180.405L138.867 179.734C138.867 179.734 136.451 179.923 135.822 183.435Z" fill="#F5894E"/>
<path d="M135.13 186.943C135.13 186.943 141.638 189.986 142.311 183.607C142.429 182.506 140.959 180.413 138.613 180.881C135.988 181.403 138.457 179.859 139.043 179.89C139.63 179.921 144.232 180.764 142.873 184.945C141.563 188.971 138.193 188.725 136.465 187.983C135.694 187.652 135.13 186.943 135.13 186.943Z" fill="#F5894E"/>
<path d="M131.377 174.083C131.377 174.083 127.056 173.193 127.164 178.927" stroke="#F7BC4B" stroke-miterlimit="10" stroke-linecap="round" stroke-linejoin="round"/>
<path d="M131.229 174.454C131.229 174.454 134.192 171.064 131.992 171.963C129.792 172.861 131.229 174.454 131.229 174.454Z" stroke="#F7BC4B" stroke-miterlimit="10"/>
<path d="M131.377 174.083C131.377 174.083 134.267 172.082 135.313 173.911C136.359 175.741 133.073 175.568 132.449 175.407C131.822 175.246 131.377 174.083 131.377 174.083Z" stroke="#F7BC4B" stroke-miterlimit="10"/>
<path d="M131.377 174.084C131.377 174.084 130.278 173.932 128.879 175.251C127.95 176.125 127.025 178.604 127.537 179.107" stroke="#F7BC4B" stroke-miterlimit="10" stroke-linecap="round" stroke-linejoin="round"/>
</svg>
