<svg width="287" height="164" viewBox="0 0 287 164" fill="none" xmlns="http://www.w3.org/2000/svg">
<path d="M204.075 152.308C205.605 152.23 223.965 151.682 229.411 153.321C229.411 153.321 249.664 152.294 249.515 156.898C249.515 156.898 271.394 157.703 275.292 159.039C279.191 160.373 254.774 162.378 250.532 161.828C246.29 161.276 232.34 158.154 213.92 157.555C202.179 157.174 172.918 156.336 158.779 158.053C150.737 159.031 196.095 162.289 187.365 162.732C163.291 163.952 96.4912 161.213 114.238 156.097C131.983 150.987 204.075 152.308 204.075 152.308Z" fill="#866694"/>
<path d="M161.265 149.338C192.13 150.637 239.695 150.802 249.865 147.498C249.865 147.498 227.872 145.886 227.291 142.525C226.532 138.128 224.84 131.179 206.629 121.098C206.629 121.098 222.316 92.9763 199.359 78.6276C176.403 64.2788 184.056 80.9226 184.056 80.9226C184.056 80.9226 152.806 39.2472 113.654 30.034C100.645 26.9732 103.706 38.0698 103.706 38.0698C103.706 38.0698 92.2262 28.8875 79.2174 31.5654C67.1349 34.0519 47.4632 50.4014 54.5295 77.8536C72.4104 85.4284 78.0709 91.7516 78.0709 91.7516C78.4517 82.8348 88.5911 78.2426 103.609 82.3552C122.34 87.4847 120.539 105.026 120.539 105.026C140.709 101.593 145.027 126.071 145.027 126.071C145.027 126.071 144.65 117.928 157.523 128.656C170.396 139.384 161.479 149.027 161.479 149.027L161.265 149.338Z" fill="#F4E8D8"/>
<path d="M183.004 149.793C183.004 149.793 166.873 138.279 154.977 128.366C143.082 118.453 146.299 132.797 146.299 132.797C146.299 132.797 138.371 103.06 119.734 106.232C119.734 106.232 119.337 87.9933 105.064 84.0289C90.7917 80.0645 78.8368 83.6337 78.8368 93.5467C78.8368 93.5467 72.3324 86.2766 50.905 78.2429C35.6299 72.5145 23.7841 73.3255 15.0629 81.2542L18.632 84.0289C18.632 84.0289 5.15188 86.0111 1.1875 96.7166C-2.77689 107.422 14.2704 112.576 20.6142 114.161C26.9581 115.746 80.8787 130.813 80.8787 130.813C80.8787 130.813 68.8332 130.017 67.6455 131.999C66.4558 133.981 81.7061 145.773 100.307 146.673C115.218 147.397 183.004 149.793 183.004 149.793Z" fill="#F4E8D8"/>
<path d="M73.6701 157.257C73.6701 157.257 75.7346 154.126 96.7709 154.892C102.499 155.099 117.525 154.96 119.431 157.257C121.337 159.554 139.77 161.244 133.414 161.244C127.058 161.244 75.5781 160.319 73.6701 157.257Z" fill="#866694"/>
<path d="M42.8709 138.316C42.8709 138.316 45.166 133.724 43.6366 129.899C42.1052 126.073 35.9837 126.455 32.1572 126.838C28.3307 127.221 28.905 130.568 28.905 130.568C28.905 130.568 24.4733 127.365 20.6777 127.985C15.4166 128.845 16.0856 134.489 16.0856 137.933C16.0856 141.376 21.0586 148.072 26.6079 142.142C26.6079 142.142 34.8351 150.178 41.7203 144.437C41.7203 144.437 56.2605 147.115 61.6163 146.349L42.8709 138.316Z" fill="#F4E8D8"/>
<path d="M94.2554 15.1542C94.2554 15.1542 65.9427 10.1812 62.1163 10.1812C58.2898 10.1812 49.1075 3.6768 60.5849 0.616027C72.0622 -2.44474 82.776 6.73757 85.0731 9.79834C87.3702 12.8591 86.6045 10.1812 86.6045 10.1812C86.6045 10.1812 84.6923 4.44251 88.1359 4.44251C91.5795 4.44251 103.821 9.41343 94.2554 15.1542Z" fill="#F4E8D8"/>
<path d="M278.466 101.01C278.466 101.01 285.933 105.137 284.939 105.155C281.368 105.219 277.447 106.876 276.012 107.45C274.577 108.025 264.693 99.4784 270.529 96.9919C272.63 97.663 278.466 101.01 278.466 101.01Z" fill="#229BC6"/>
<path opacity="0.5" d="M278.466 101.01C278.466 101.01 285.933 105.137 284.939 105.155C281.368 105.219 277.447 106.876 276.012 107.45C274.577 108.025 264.693 99.4784 270.529 96.9919C272.63 97.663 278.466 101.01 278.466 101.01Z" fill="#229BC6"/>
<path d="M273.715 103.496C273.715 103.496 275.5 101.965 279.964 102.093C283.453 102.191 286.596 102.731 286.596 102.731C286.596 102.731 279.709 97.5663 274.545 97.2781C269.38 96.992 262.779 96.7039 262.779 96.7039L273.715 103.496Z" fill="#F6BE4A"/>
<path d="M286.597 102.733C285.312 101.992 283.976 101.343 282.614 100.759C281.251 100.174 279.86 99.6515 278.441 99.2069C277.019 98.7787 275.576 98.4041 274.106 98.1695C272.637 97.941 271.142 97.8381 269.665 97.9513C271.147 97.9986 272.606 98.2086 274.049 98.4865L275.125 98.7252C275.486 98.7993 275.838 98.9064 276.196 98.9969L276.731 99.1328L277.26 99.2872C277.612 99.3921 277.968 99.4889 278.318 99.6021L279.37 99.9376C279.72 100.051 280.065 100.18 280.415 100.298C280.765 100.413 281.111 100.543 281.457 100.67C281.803 100.796 282.148 100.924 282.492 101.057C282.838 101.187 283.182 101.321 283.523 101.459C283.867 101.593 284.211 101.73 284.551 101.872C285.24 102.14 285.917 102.436 286.597 102.733Z" fill="#F4E8D8"/>
<path opacity="0.5" d="M273.715 103.496C273.715 103.496 275.5 101.965 279.964 102.093C283.453 102.191 286.596 102.731 286.596 102.731C286.596 102.731 279.709 97.5663 274.545 97.2781C269.38 96.992 262.779 96.7039 262.779 96.7039L273.715 103.496Z" fill="#F6874E"/>
<path d="M241.994 77.0351C241.994 77.0351 239.434 72.7393 237.989 69.2525C236.605 65.9179 239.034 66.7022 241.873 68.4497C244.849 70.2817 248.359 74.1267 249.264 74.9788C250.168 75.831 245.285 79.8983 241.994 77.0351Z" fill="#1D2538"/>
<path d="M243.267 75.8612C243.267 75.8612 240.723 71.6827 238.97 68.9925C237 65.9667 238.799 66.3598 241.639 68.1074C244.616 69.9393 248.109 72.0491 249.012 72.9013C249.916 73.7514 245.293 78.1439 243.267 75.8612Z" fill="#273150"/>
<path d="M228.437 93.6762C229.969 91.5087 232.321 83.5861 233.665 79.6464L237.237 74.5705C237.237 74.5705 245.122 69.6079 252.52 71.3204C259.918 73.033 262.859 77.2958 264.148 81.1552L264.407 81.4063C264.407 81.4063 271.008 82.5981 274.806 83.405C278.601 84.2139 280.003 85.8318 279.095 89.9197C278.188 94.0076 277.766 95.0038 275.851 96.7946C273.937 98.5833 265.329 104.161 260.539 105.783C260.539 105.783 258.536 109.873 256.112 111.53C253.683 113.196 224.555 99.1782 228.437 93.6762Z" fill="#273150"/>
<path d="M238.248 106.193C238.248 106.193 225.008 98.5937 228.184 92.6574C231.118 87.1739 232.324 83.5862 233.668 79.6486C233.528 80.0994 232.186 75.2252 231.118 70.3387C230.586 67.9098 231.692 67.4693 233.623 68.3482C235.631 69.2621 240.938 72.1253 240.938 72.1253C240.938 72.1253 245.125 69.61 252.52 71.3226C252.52 71.3226 244.487 76.6022 241.938 80.1282C239.39 83.6542 240.335 97.4595 240.335 97.4595C240.335 97.4595 247.214 102.42 246.825 103.26C245.586 105.93 238.248 106.193 238.248 106.193Z" fill="#1D2538"/>
<path d="M257.701 79.5639C258.51 80.9842 258.399 82.5732 257.452 83.1125C256.505 83.6518 255.649 82.5979 254.838 81.1777C254.027 79.7574 253.574 78.508 254.521 77.9687C255.468 77.4294 256.892 78.1437 257.701 79.5639Z" fill="#121721"/>
<path d="M279.199 86.1528C279.674 88.2482 279.441 90.3045 278.293 91.1978C276.016 92.968 272.303 89.5491 271.661 87.499C271.019 85.4488 270.512 82.1431 274.466 83.2896C277.776 84.2509 278.867 84.6934 279.199 86.1528Z" fill="#121721"/>
<path d="M252.125 105.149C252.125 105.149 258.506 106.846 260.541 105.783C264.23 104.579 269.829 100.541 269.829 100.541L259.743 103.352L252.125 105.149Z" fill="#1D2538"/>
<path d="M272.295 99.4311C272.295 99.4311 265.216 96.7532 262.777 96.7058Z" fill="#273150"/>
<path d="M164.709 115.919C163.468 115.847 156.902 116.31 154.325 115.482C151.748 114.657 145.752 112.454 144.892 108.278C144.892 108.278 142.485 111.386 147.936 117.944C153.386 124.502 164.526 122.888 165.469 122.744C169.672 122.1 168.252 116.127 164.709 115.919Z" fill="#1D2538"/>
<path d="M251.875 121.097C251.875 121.097 264.215 127.698 266.796 128.559C269.379 129.419 270.814 134.872 270.526 137.167C270.24 139.462 266.222 144.914 266.222 144.914L249.578 130.854C249.58 130.854 243.553 120.811 251.875 121.097Z" fill="#1D2537"/>
<path d="M185.238 128.326C187.401 127.046 206.404 128.001 206.054 132.021C205.879 134.017 186.345 145.077 186.345 145.077L178.954 151.483C178.954 151.483 180.252 153.831 179.435 155.307C179.244 155.655 176.117 155.733 174.398 155.537C173.139 155.395 171.439 150.867 171.439 150.867C171.371 149.92 171.655 148.195 172.455 147.683L177.105 143.723C177.706 143.34 178.153 142.759 178.371 142.078C179.425 138.791 182.778 129.783 185.238 128.326Z" fill="#1D2538"/>
<path d="M244.51 107.705C244.51 107.705 234.276 101.393 225.493 96.5801C217.568 101.294 206.601 101.465 197.297 102.687C191.452 103.455 172.144 108.082 166.362 113.636C162.484 117.361 160.632 126.488 165.214 129.131C172.675 133.435 208.34 131.391 222.032 132.957C231.806 134.075 244.911 130.934 248.719 128.557C250.777 127.272 255.571 119.115 254.375 112.831C253.587 108.691 248.032 109.786 244.51 107.705Z" fill="#273150"/>
<path d="M242.34 103.113C242.34 103.113 234.354 91.3086 225.491 96.5801C217.566 101.294 206.599 101.465 197.295 102.687C191.45 103.455 172.142 108.082 166.36 113.636C162.483 117.361 160.916 128.209 165.5 130.854C172.962 135.158 188.648 134.839 192.761 130.568C193.996 129.285 208.544 118.802 216.578 114.976C223.22 111.814 218.501 106.598 220.405 105.41C223.819 103.278 251.21 108.354 242.34 103.113Z" fill="#1D2538"/>
<path d="M207.517 112.222C207.517 112.222 211.842 128.512 223.91 133.221C223.91 133.221 221.847 134.191 215.985 133.557C211.955 133.122 200.514 121.342 201.002 113.2C201.762 110.721 207.517 112.222 207.517 112.222Z" fill="#634874"/>
<path d="M227.93 93.1653C227.93 93.1653 226.145 93.4205 224.869 96.4813C224.869 96.4813 230.161 102.73 240.683 107.897C248.423 111.697 256.562 112.489 258.157 110.511C259.752 108.533 260.542 105.783 260.542 105.783C260.542 105.783 251.838 108.691 243.841 105.122C236.696 101.934 232.084 97.8666 227.93 93.1653Z" fill="#992C29"/>
<path d="M259.645 108.788C259.645 108.788 251.134 111.503 248.378 111.03L250.531 106.304C250.531 106.304 255.695 105.946 259.645 108.788Z" fill="#C93F37"/>
<path d="M259.598 108.741C259.598 108.741 257.962 115.618 255.549 117.777L247.744 114.683C247.746 114.683 256.043 109.459 259.598 108.741Z" fill="#C93F37"/>
<path d="M259.598 108.741C256.28 109.06 247.746 114.683 247.746 114.683C247.746 114.683 253.075 114.757 254.215 114.041C255.356 113.327 259.598 108.741 259.598 108.741Z" fill="#992C29"/>
<path d="M224.536 112.384C228.092 113.99 246.134 114.63 249.549 125.644C249.647 125.965 249.859 126.237 250.152 126.404C251.016 126.898 252.095 126.282 252.107 125.286C252.152 121.428 247.735 114.821 240.416 111.161C231.62 106.765 225.27 108.23 225.27 108.23C225.27 108.23 223.887 112.092 224.536 112.384Z" fill="#634874"/>
<path d="M168.97 122.836C170.936 121.165 177.283 119.316 183.86 122.542C190.436 125.767 189.679 130.322 189.722 131.345C189.825 133.746 181.758 137.93 180.573 138.688C178.613 139.939 167.683 144.194 164.433 146.623C162.515 148.057 158.242 152.686 159.125 153.349C159.905 153.936 160.878 156.612 159.936 157.034C157.984 157.909 147.847 157.452 148.952 153.889C149.996 150.525 150.167 146.308 150.982 144.502C151.214 143.988 159.892 137.784 160.292 137.123C160.683 136.477 167.792 123.839 168.97 122.836Z" fill="#1D2538"/>
<path d="M234.082 125.975C234.082 125.975 238.386 134.297 241.255 136.018C244.125 137.739 255.604 138.313 259.334 140.322C263.064 142.331 264.787 146.923 265.361 147.784C265.935 148.644 274.257 149.793 276.552 145.2C278.847 140.608 270.813 140.322 268.804 138.313C266.795 136.304 265.075 134.295 263.352 132.861C261.631 131.426 256.178 129.131 256.178 129.131C256.178 129.131 247.929 119.308 244.485 118.734C241.041 118.162 232.073 121.671 234.082 125.975Z" fill="#273150"/>
<path d="M225.406 111.622C223.397 114.475 204.922 116.219 190.165 114.327C188.597 114.125 187.216 113.31 186.384 112.114C184.727 109.733 183.33 104.931 182.383 101.475C181.364 97.7594 183.463 91.889 185.151 90.4543C188.797 87.3544 192.598 88.6883 196.653 88.3219C203.532 87.7003 209.586 88.0707 215.051 89.7133C221.843 91.7552 225.437 97.1831 228.035 101.298C230.437 105.097 226.421 110.182 225.406 111.622Z" fill="#BB83C3"/>
<path opacity="0.5" d="M189.332 88.987C185.448 88.8965 191.411 101.767 193.838 102.123C196.265 102.48 209.623 103.892 213.586 102.928C223.449 101.218 207.565 89.4152 189.332 88.987Z" fill="#634874"/>
<path opacity="0.5" d="M187.485 111.734C186.839 113.862 182.574 103.517 182.274 100.66C182.033 98.3814 183.194 93.9786 183.577 93.1676C184.449 91.3233 186.02 99.6823 187.323 102.776C188.626 105.87 187.757 110.841 187.485 111.734Z" fill="#634874"/>
<path d="M171.066 36.4969C171.066 36.4969 178.816 28.3252 181.677 20.7175C181.677 20.7175 192.228 23.875 196.985 23.2493C196.985 23.2493 191.197 36.0234 186.374 39.0286L171.066 36.4969Z" fill="#229BC6"/>
<path d="M196.982 23.2515L190.178 26.2134C189.043 26.7054 187.903 27.1829 186.763 27.6502C185.618 28.1112 184.472 28.5723 183.305 28.9469L183.109 29.0107L183.177 29.2042L184.033 31.6434L184.873 34.0887C185.151 34.9038 185.419 35.723 185.684 36.5423C185.941 37.3635 186.197 38.1869 186.37 39.0329C186.271 38.1745 186.053 37.3327 185.845 36.4949C185.633 35.6572 185.388 34.8297 185.145 34.0002C184.894 33.1748 184.641 32.3494 184.371 31.5281C184.101 30.7068 183.836 29.8876 183.55 29.0725L183.422 29.3277C184.614 28.9531 185.769 28.4982 186.913 28.0227C188.059 27.5514 189.192 27.0491 190.317 26.5345C191.441 26.0158 192.561 25.4889 193.673 24.9414C194.228 24.6717 194.78 24.3877 195.332 24.1077C195.887 23.8278 196.439 23.5458 196.982 23.2515Z" fill="#F4E8D8"/>
<path d="M187.585 27.5488L186.807 25.9536L186.01 24.3687C185.742 23.8417 185.506 23.2983 185.197 22.794C184.89 22.2897 184.567 21.7916 184.184 21.3264L184.147 21.347C184.33 21.9192 184.575 22.4606 184.835 22.9916C185.092 23.5247 185.421 24.0167 185.722 24.5272L186.625 26.0524L187.548 27.5694L187.585 27.5488Z" fill="#F4E8D8"/>
<path d="M184.859 33.0593L182.332 33.8806L179.81 34.7204C178.97 35.0024 178.12 35.2515 177.297 35.5808C176.473 35.906 175.654 36.2477 174.86 36.6532L174.874 36.6923C175.745 36.4988 176.595 36.2415 177.437 35.9678C178.281 35.6961 179.096 35.3462 179.923 35.0312L182.402 34.0741L184.874 33.0984L184.859 33.0593Z" fill="#F4E8D8"/>
<path d="M178.279 58.1826C178.279 58.1826 192.19 70.0902 205.81 75.0282C205.81 75.0282 204.881 81.09 193.171 84.6366C193.171 84.6366 170.451 74.9561 165.641 67.791L178.279 58.1826Z" fill="#229BC6"/>
<path d="M178.605 58.4014L179.457 61.5609C179.741 62.6148 180.033 63.6646 180.33 64.7143L181.215 67.8657C181.505 68.9175 181.818 69.9631 182.118 71.0108L182.149 71.1199L182.262 71.1405L188.219 72.2335L194.184 73.2812C196.171 73.6393 198.165 73.9543 200.156 74.2919C201.15 74.4606 202.148 74.6212 203.144 74.7776C204.141 74.9361 205.139 75.0967 206.137 75.2469C205.149 75.039 204.159 74.8414 203.169 74.6438C202.179 74.4442 201.189 74.2466 200.197 74.0593C198.213 73.6826 196.234 73.2853 194.248 72.9272L188.291 71.8321L182.328 70.7803L182.472 70.91C182.157 69.8664 181.855 68.8187 181.532 67.7772L180.572 64.6485C180.253 63.6049 179.932 62.5634 179.601 61.5239L178.605 58.4014Z" fill="#F4E8D8"/>
<path d="M191.793 73.0996C191.676 74.0917 191.672 75.0921 191.713 76.0904C191.756 77.0887 191.853 78.0829 191.999 79.0709C192.156 80.0568 192.337 81.0407 192.592 82.004C192.833 82.9715 193.139 83.9245 193.498 84.8528C193.304 83.873 193.084 82.9077 192.905 81.9341L192.767 81.2054L192.641 80.4747C192.555 79.9889 192.479 79.499 192.407 79.0112L192.298 78.2784L192.203 77.5436C192.137 77.0537 192.086 76.5618 192.032 76.0698C191.931 75.0818 191.845 74.0938 191.793 73.0996Z" fill="#F4E8D8"/>
<path d="M180.774 66.344C179.537 66.4922 178.304 66.6445 177.071 66.8112C175.838 66.9697 174.609 67.1406 173.376 67.2888C172.145 67.4452 170.912 67.5934 169.68 67.721C168.445 67.8404 167.212 67.9639 165.966 68.0113C167.207 68.1245 168.461 68.108 169.704 68.0421C170.95 67.9804 172.191 67.8486 173.428 67.6984C174.663 67.5399 175.896 67.3526 177.12 67.1282C178.347 66.9059 179.566 66.6486 180.774 66.344Z" fill="#F4E8D8"/>
<path d="M220.875 91.2551C220.875 91.2551 207.146 75.5231 203.771 67.2732C203.771 67.2732 191.96 72.8452 186.454 72.0177C186.454 72.0177 197.589 90.0839 203.192 93.4657L220.875 91.2551Z" fill="#F6874E"/>
<path d="M220.875 91.2551C220.875 91.2551 207.146 75.5231 203.771 67.2732C203.771 67.2732 191.96 72.8452 186.454 72.0177C186.454 72.0177 197.589 90.0839 203.192 93.4657L220.875 91.2551Z" fill="#F6BE4A"/>
<path d="M203.771 67.2732L201.298 80.8377L220.875 91.2551" stroke="#F4E8D8" stroke-width="2" stroke-miterlimit="10"/>
<path d="M209.125 85.2878C209.125 85.2878 203.876 88.9147 203.193 93.4657" stroke="#F4E8D8" stroke-width="2" stroke-miterlimit="10"/>
<path d="M202.328 76.3217C202.328 76.3217 194.119 74.568 186.454 72.0198" stroke="#F4E8D8" stroke-width="2" stroke-miterlimit="10"/>
<path d="M227.327 101.429C227.327 101.429 224.068 99.5086 215.724 96.2461C214.958 95.9477 212.517 93.8399 209.878 94.0622C200.245 94.8732 198.487 99.3686 196.19 98.7882C194.941 98.2345 193.905 91.7095 193.076 89.8488C191.909 87.2285 192.981 82.6301 195.021 82.4881C195.021 82.4881 206.675 82.4593 209.958 83.719C213.241 84.9787 214.627 87.3623 215.25 87.953C215.983 88.6487 219.083 87.4364 221.275 89.0934C226.53 93.0619 224.544 91.3287 226.958 95.1531C230.184 100.262 231.791 102.975 230.68 105.05C229.554 107.149 228.09 109.942 225.645 111.678C223.202 113.413 232.277 105.074 227.327 101.429Z" fill="#634874"/>
<path d="M188.673 84.3037C188.373 84.5548 189.824 85.8762 193.679 86.2159C194.379 86.2776 194.994 86.2241 195.087 85.9997C195.151 85.8454 195.363 84.6206 195.194 84.0443C195.126 83.8138 194.974 83.8405 194.756 83.7932C193.267 83.4721 192.399 83.7191 190.447 82.342L188.673 84.3037Z" fill="#BB83C3"/>
<path d="M190.742 94.3076C190.585 93.8382 193.673 94.6328 196.223 93.0231C196.443 92.8832 196.732 93.2269 196.919 93.4719L197.65 94.4269C198.242 95.2029 197.697 95.5734 197.03 96.0633C194.603 97.85 194.441 97.8479 192.695 97.4898C191.903 97.3272 191.277 96.7138 191.102 95.9234L190.742 94.3076Z" fill="#BB83C3"/>
<path d="M213.249 94.9748C214.97 95.6891 217.936 96.4713 219.832 96.9859C221.728 97.5004 229.535 99.5691 232.332 97.98C232.332 97.98 227.332 105.326 213.675 105.573C213.675 105.573 201.965 102.712 201.395 96.3416C201.395 96.3395 207.461 92.5707 213.249 94.9748Z" fill="#229BC6"/>
<path d="M213.674 105.571C213.711 104.727 213.725 103.881 213.737 103.037C213.748 102.191 213.741 101.347 213.731 100.501C213.713 99.6552 213.696 98.8112 213.643 97.9632C213.628 97.7512 213.614 97.5392 213.591 97.323C213.581 97.214 213.569 97.109 213.544 96.9875C213.519 96.8743 213.488 96.7673 213.451 96.6602C213.301 96.2362 213.097 95.8534 212.834 95.487L212.788 95.4232L212.708 95.4088C212.039 95.2915 211.372 95.1865 210.701 95.1C210.03 95.0074 209.359 94.9312 208.684 94.8715C208.011 94.8098 207.334 94.7686 206.655 94.7625C206.315 94.7625 205.975 94.7686 205.638 94.7913C205.3 94.8139 204.959 94.8571 204.635 94.958C205.302 94.8468 205.977 94.8942 206.646 94.9456C207.315 95.0033 207.984 95.0836 208.649 95.1721C209.981 95.3553 211.313 95.5714 212.634 95.8081L212.509 95.7299C212.735 96.051 212.931 96.4215 213.06 96.794C213.091 96.8887 213.12 96.9834 213.14 97.076C213.159 97.1625 213.173 97.2654 213.184 97.3683C213.206 97.5721 213.225 97.7821 213.239 97.9899C213.295 98.8277 213.34 99.6696 213.379 100.511L213.511 103.039C213.564 103.885 213.612 104.729 213.674 105.571Z" fill="#F4E8D8"/>
<path d="M213.453 99.0992C216.157 99.3997 218.862 99.6591 221.575 99.8567C222.931 99.9555 224.288 100.04 225.646 100.091C227.005 100.141 228.365 100.176 229.722 100.112C228.363 100.141 227.007 100.071 225.65 99.9884C224.296 99.904 222.944 99.7846 221.591 99.6508C218.889 99.3853 216.192 99.0601 213.504 98.6917L213.453 99.0992Z" fill="#F4E8D8"/>
<path d="M210.437 94.2891C210.318 94.3199 210.203 94.359 210.085 94.394C209.97 94.4311 209.855 94.4723 209.744 94.5175C209.63 94.5608 209.501 94.5731 209.412 94.6575C209.322 94.7398 209.239 94.8366 209.192 94.9951L209.212 95.0301C209.373 95.0692 209.499 95.0486 209.616 95.0157C209.735 94.9827 209.811 94.8778 209.908 94.8037C210.003 94.7296 210.098 94.6534 210.19 94.5731C210.281 94.4908 210.373 94.4126 210.462 94.3241L210.437 94.2891Z" fill="#F4E8D8"/>
<path d="M209.435 127.777C210.417 127.361 211.772 126.739 212.955 126.187C214.147 125.632 214.517 125.169 213.826 124.191L213.297 123.417C212.768 122.923 212.148 122.898 211.35 123.359L208.054 125.263C207.056 125.84 206.498 126.348 207.107 126.998L207.799 127.935C208.241 128.264 208.832 128.034 209.435 127.777Z" stroke="#866694" stroke-width="4" stroke-miterlimit="10"/>
<path d="M213.19 123.922C213.19 123.922 215.063 133.503 213.326 138.606L207.789 136.325C207.789 136.325 208.521 128.59 207.978 127.069L210.53 125.657L213.19 123.922Z" fill="#634874"/>
<path d="M213.867 123.949L207.624 127.582" stroke="#866694" stroke-width="4" stroke-miterlimit="10"/>
<path d="M276.011 107.45C274.576 108.025 272.104 117.25 270.974 120.332C270.624 121.289 254.762 111.95 253.245 110.766C250.631 108.727 250.759 107.833 250.759 107.833C250.759 107.833 257.58 103.953 263.907 100.401C266.46 98.9679 277.445 106.876 276.011 107.45Z" fill="#229BC6"/>
<path opacity="0.5" d="M276.011 107.45C274.576 108.025 270.949 114.175 269.973 115.315C269.973 115.315 265.82 114.5 261.26 112.384C256.701 110.268 252.302 107.01 252.302 107.01C252.302 107.01 257.58 103.953 263.907 100.401C266.46 98.9679 277.445 106.876 276.011 107.45Z" fill="#229BC6"/>
<path d="M268.518 113.35C268.518 113.35 255.032 109.046 251.014 104.167C251.014 104.167 261.057 96.7058 262.78 96.7058C263.58 96.7058 266.283 97.4448 269.29 98.4101C269.914 98.6098 270.55 98.8197 271.186 99.0338C274.068 100.007 276.927 101.086 278.433 101.839C278.433 101.839 273.746 102.669 272.822 104.262C271.383 106.744 268.518 113.35 268.518 113.35Z" fill="#F6BE4A"/>
<path opacity="0.5" d="M251.014 104.167C251.014 104.167 261.057 96.7058 262.78 96.7058C263.58 96.7058 266.283 97.4448 269.29 98.4101C269.914 98.6098 270.55 98.8197 271.186 99.0338C274.068 100.007 276.927 101.086 278.433 101.839C278.433 101.839 255.03 109.046 251.014 104.167Z" fill="#F6874E"/>
<path d="M270.91 98.8098C271.06 98.9724 271.186 99.1742 271.202 99.3841C271.217 99.5982 271.044 99.7505 270.853 99.8328C270.661 99.9152 270.439 99.9687 270.225 100.024L269.572 100.183L266.948 100.769C265.196 101.163 263.447 101.562 261.709 102.037C261.275 102.159 260.843 102.284 260.413 102.42C259.984 102.552 259.562 102.682 259.13 102.795C258.27 103.025 257.397 103.215 256.52 103.39C254.762 103.725 252.99 103.999 251.208 104.213C253.003 104.151 254.795 103.978 256.574 103.696C257.463 103.556 258.348 103.379 259.225 103.163C259.663 103.06 260.1 102.929 260.532 102.799C260.956 102.667 261.386 102.546 261.818 102.428C263.545 101.959 265.289 101.539 267.028 101.095C267.897 100.87 268.767 100.65 269.632 100.401C269.848 100.337 270.064 100.277 270.28 100.207C270.494 100.133 270.708 100.072 270.923 99.9604C271.025 99.9007 271.124 99.8287 271.198 99.7258C271.272 99.6249 271.305 99.4932 271.287 99.3718C271.242 99.133 271.077 98.9539 270.91 98.8098Z" fill="#F4E8D8"/>
<path d="M265.538 101.189C265.496 102.265 265.663 103.309 265.852 104.34C266.048 105.372 266.295 106.388 266.575 107.395C266.853 108.403 267.155 109.402 267.483 110.394C267.808 111.386 268.15 112.372 268.518 113.35C268.183 112.362 267.874 111.365 267.582 110.365C267.287 109.365 267.02 108.356 266.775 107.346C266.528 106.335 266.316 105.314 266.157 104.289C266.003 103.266 265.877 102.228 265.949 101.216L265.538 101.189Z" fill="#F4E8D8"/>
<path d="M262.779 96.7057C260.34 96.6584 270.241 94.458 272.297 99.431Z" fill="#273150"/>
<path d="M184.405 95.7571C184.405 95.7571 175.694 101.829 173.201 103.768C170.711 105.707 148.417 91.7165 146.684 88.0691C146.684 88.0691 158.472 79.4467 162.895 77.376C162.895 77.378 165.248 90.9076 184.405 95.7571Z" fill="#F6BE4A"/>
<path opacity="0.5" d="M165.662 94.6331C167.86 98.7869 148.419 91.7185 146.686 88.0711C146.686 88.0711 158.474 79.4486 162.897 77.3779C162.895 77.3779 163.463 90.4794 165.662 94.6331Z" fill="#F6874E"/>
<path d="M172.875 103.945L172.796 101.726L172.698 99.5073C172.663 98.7684 172.661 98.0253 172.578 97.2905C172.498 96.5536 172.399 95.8208 172.232 95.0901L172.191 95.0921C172.132 95.8393 172.142 96.5803 172.166 97.3193C172.189 98.0603 172.296 98.7931 172.368 99.5299L172.591 101.739L172.833 103.947L172.875 103.945Z" fill="#F4E8D8"/>
<path d="M146.684 88.0917L150.482 88.1576L154.279 88.2029C155.545 88.2193 156.811 88.2584 158.077 88.2276C158.709 88.209 159.343 88.1926 159.975 88.1555L160.924 88.102C161.241 88.0752 161.556 88.0567 161.872 88.0238V87.9826C161.556 87.9517 161.239 87.9373 160.924 87.9126L159.975 87.8673C159.341 87.8385 158.709 87.8262 158.075 87.8138C156.809 87.7932 155.543 87.8447 154.277 87.8715L150.48 87.9497L146.682 88.0485L146.684 88.0917Z" fill="#F4E8D8"/>
<path d="M162.895 77.3779C162.36 80.4037 161.985 83.4645 161.901 86.5479C161.884 87.3198 161.891 88.0937 161.952 88.8656C162.014 89.6375 162.109 90.4155 162.372 91.173C162.51 91.5456 162.679 91.9325 163.015 92.229C163.329 92.4965 163.675 92.6859 164.021 92.8712C164.719 93.2293 165.441 93.5134 166.172 93.7707C167.638 94.2688 169.132 94.6578 170.639 94.9851C171.392 95.1498 172.149 95.2938 172.909 95.4256C173.669 95.5614 174.432 95.6664 175.196 95.757C178.25 96.1151 181.365 96.2571 184.405 95.7549C183.641 95.8414 182.876 95.8866 182.108 95.9093C181.342 95.9299 180.574 95.9113 179.809 95.8784C178.277 95.8146 176.752 95.6623 175.235 95.4441C172.207 95.0016 169.19 94.3799 166.304 93.3837C165.583 93.1367 164.871 92.8609 164.198 92.5233C163.867 92.3504 163.533 92.1672 163.262 91.9387C163.01 91.7246 162.848 91.3871 162.72 91.0475C162.471 90.3538 162.368 89.5922 162.302 88.8368C162.241 88.0793 162.216 87.3157 162.214 86.5499C162.214 85.0206 162.302 83.4871 162.426 81.9578C162.541 80.4305 162.708 78.9032 162.895 77.3779Z" fill="#F4E8D8"/>
<path d="M138.373 60.1086C134.019 58.1964 118.24 51.7023 106.367 52.4659C106.367 52.4659 96.2917 57.1857 96.6745 63.4349C96.6745 63.4349 112.382 63.017 117.081 64.5834C120.811 65.8267 129.898 71.3431 129.898 71.3431C129.898 71.3431 130.728 69.0789 131.43 67.1667C132.469 64.3303 136.415 62.3254 138.422 61.2098C138.865 60.9607 138.838 60.3124 138.373 60.1086Z" fill="#229BC6"/>
<path opacity="0.5" d="M106.367 52.466C106.367 52.466 96.8862 56.9059 96.668 62.8751C96.6619 63.0604 108.39 62.8751 108.39 62.8751C108.39 62.8751 107.847 56.6857 109.232 55.4651C110.618 54.2445 122.667 54.8949 122.667 54.8949C116.982 53.1885 111.161 52.1573 106.367 52.466Z" fill="#229BC6"/>
<path d="M106.653 52.5299C108.055 52.6019 109.432 52.9251 110.71 53.4726C111.994 54.0098 113.188 54.7446 114.3 55.5803C114.855 56.0002 115.393 56.4428 115.922 56.8977C116.451 57.3526 116.963 57.826 117.484 58.2994C117.745 58.5361 118.007 58.7708 118.285 58.9972C118.425 59.1104 118.565 59.2216 118.727 59.3224C118.803 59.3759 118.896 59.4192 118.987 59.4624C119.038 59.4809 119.091 59.4994 119.145 59.5138L119.281 59.5344C120.001 59.6415 120.687 59.695 121.391 59.7629C124.188 59.9811 126.985 60.1828 129.785 60.3475L133.984 60.578C135.385 60.6377 136.785 60.7118 138.187 60.7571C136.791 60.6192 135.394 60.506 133.998 60.3784L129.807 60.0325C127.014 59.8041 124.217 59.6065 121.426 59.3554C120.732 59.2936 120.02 59.2442 119.353 59.1495L119.227 59.133L119.135 59.1022C119.069 59.0692 119.001 59.0404 118.933 58.9931C118.795 58.9107 118.659 58.8037 118.525 58.6987C118.258 58.4847 117.996 58.2541 117.735 58.0215C116.694 57.0891 115.644 56.1381 114.487 55.3272C113.336 54.51 112.105 53.7937 110.786 53.2873C109.463 52.7933 108.059 52.5093 106.653 52.5299Z" fill="#F4E8D8"/>
<path d="M130.585 69.4496L129.293 67.0414L127.984 64.6434C127.545 63.8447 127.138 63.0296 126.656 62.2557C126.178 61.4797 125.684 60.714 125.133 59.9812L125.098 60.0018C125.454 60.8478 125.87 61.6588 126.3 62.4615C126.728 63.2663 127.228 64.0279 127.7 64.808L129.116 67.1443L130.55 69.4702L130.585 69.4496Z" fill="#F4E8D8"/>
<path d="M115.866 56.5911L111.388 57.0233L106.913 57.507C105.422 57.6738 103.928 57.822 102.446 58.0628C101.705 58.1842 100.964 58.3077 100.229 58.4642C99.4944 58.6144 98.7554 58.777 98.0412 59.0158L98.0514 59.0549C99.5314 58.8182 101.02 58.6638 102.506 58.4703C103.992 58.283 105.472 58.0463 106.956 57.8343L111.412 57.2271L115.871 56.6322L115.866 56.5911Z" fill="#F4E8D8"/>
<path d="M74.1169 83.4727C74.1169 83.4727 73.4789 95.7157 65.5727 98.6489C65.5727 98.6489 50.5241 101.582 39.2999 97.8832C39.2999 97.8832 52.9694 93.96 56.6457 91.2512C59.0683 89.4666 60.7274 87.4247 60.7274 85.3849C60.7253 85.3869 70.4181 85.0041 74.1169 83.4727Z" fill="#F6BE4A"/>
<path opacity="0.5" d="M65.5725 98.6507C65.5725 98.6507 50.5239 101.584 39.2997 97.885C39.2997 97.885 52.9692 93.9618 56.6454 91.253C59.0681 89.4684 60.7271 87.4265 60.7271 85.3867C60.7251 85.3867 62.4088 92.3522 65.5725 98.6507Z" fill="#F6874E"/>
<path d="M74.1169 83.4727C72.4559 84.5903 70.7886 85.6957 69.1152 86.7887C68.2754 87.33 67.4376 87.8734 66.5854 88.3942C65.7436 88.9252 64.8708 89.3966 63.9816 89.8515C63.5391 90.0841 63.0945 90.3105 62.6499 90.5513C62.2073 90.7942 61.7627 91.035 61.3469 91.3541C61.1432 91.5208 60.9311 91.6937 60.7932 91.9798C60.6697 92.27 60.6862 92.5562 60.7212 92.8217C60.8097 93.3527 61.0238 93.8282 61.2708 94.2749C61.7668 95.1682 62.4111 95.9586 63.1109 96.6811C63.8211 97.3954 64.5847 98.052 65.4122 98.618C64.6424 97.9779 63.9096 97.2966 63.2591 96.5432C62.6025 95.7981 62.0077 94.9933 61.5548 94.1246C61.3346 93.6903 61.1473 93.2313 61.0793 92.7702C61.0505 92.5438 61.0546 92.3092 61.1349 92.1363C61.2152 91.9675 61.3984 91.8049 61.5837 91.6649C61.9665 91.3808 62.4029 91.1421 62.8413 90.9074C63.2797 90.6748 63.7264 90.4484 64.171 90.2199C65.0581 89.7547 65.9474 89.2751 66.7933 88.7276C67.6373 88.1842 68.473 87.6326 69.2942 87.0583C70.943 85.9159 72.5505 84.7221 74.1169 83.4727Z" fill="#F4E8D8"/>
<path d="M61.746 94.3137C60.6489 94.6698 59.56 95.0506 58.4814 95.4561C57.4008 95.8554 56.3304 96.2774 55.2601 96.7055C54.1939 97.1398 53.1276 97.5783 52.0717 98.0393C51.0137 98.4942 49.966 98.9759 48.9266 99.4802C50.0237 99.1241 51.1125 98.7433 52.1911 98.3378C53.2717 97.9385 54.3421 97.5145 55.4124 97.0884C56.4786 96.6541 57.5449 96.2156 58.5988 95.7546C59.6588 95.2976 60.7065 94.818 61.746 94.3137Z" fill="#F4E8D8"/>
<path d="M65.4448 89.3408C65.3604 88.89 65.1813 88.4619 64.9652 88.0605C64.8602 87.8567 64.7326 87.6653 64.6071 87.4739C64.4712 87.2886 64.3333 87.1055 64.1831 86.9325C64.0349 86.7576 63.8661 86.5991 63.7034 86.4385C63.5264 86.2924 63.3597 86.1339 63.1662 86.0083C62.7978 85.7346 62.384 85.5267 61.9559 85.3723C62.2996 85.6749 62.6475 85.9466 62.9624 86.2553C63.2835 86.5559 63.5902 86.8687 63.8743 87.2022C64.1666 87.5274 64.4362 87.8753 64.6956 88.2314C64.9529 88.5875 65.2019 88.9538 65.4448 89.3408Z" fill="#F4E8D8"/>
<path d="M41.2084 40.7976C41.2084 40.7976 34.7205 36.8497 33.0285 34.5917C31.3366 32.3357 30.2086 27.8218 29.3626 23.3099C28.5166 18.7979 29.3626 13.156 29.3626 13.156C29.3626 13.156 18.6448 24.1558 16.6708 25.2838C16.6708 25.2838 13.8509 34.3097 20.6188 45.8735C20.6188 45.8756 31.3366 47.5675 41.2084 40.7976Z" fill="#229BC6"/>
<path opacity="0.5" d="M20.5565 36.4542C21.5198 31.0016 29.3601 23.3116 29.3601 23.3116C28.5141 18.7997 29.3601 13.1577 29.3601 13.1577C29.3601 13.1577 18.6423 24.1575 16.6683 25.2855C16.6683 25.2855 13.8484 34.3114 20.6162 45.8752C20.6183 45.8752 20.0687 39.2226 20.5565 36.4542Z" fill="#229BC6"/>
<path d="M41.0507 40.7665C39.3011 40.5957 37.5597 40.3569 35.8328 40.0379C34.1058 39.725 32.3912 39.3442 30.7157 38.8338C29.0484 38.3171 27.3956 37.7058 25.9033 36.8186C25.1623 36.374 24.4624 35.8533 23.8841 35.2255C23.5856 34.8982 23.2789 34.5915 23.1142 34.2375C23.0731 34.1489 23.0422 34.0584 23.0216 33.9657C22.9989 33.8752 22.9948 33.7784 22.9866 33.6714C22.9763 33.4615 22.9763 33.2474 22.9866 33.0333C23.0319 32.1729 23.1574 31.3064 23.3139 30.448C23.4703 29.5876 23.6576 28.7334 23.8614 27.8813C24.269 26.1769 24.7588 24.4912 25.2714 22.8136C25.788 21.1381 26.3541 19.4749 26.9963 17.8427C27.3133 17.0255 27.6467 16.2125 28.0234 15.42C28.2107 15.0227 28.4083 14.6316 28.6244 14.2508C28.8405 13.87 29.0711 13.4954 29.3572 13.1599C28.7582 13.8083 28.3301 14.5925 27.9205 15.3685C27.515 16.1507 27.1486 16.9535 26.8028 17.7624C26.1215 19.3864 25.5163 21.0434 24.9606 22.7127C24.4048 24.3841 23.9211 26.0802 23.4909 27.7886C23.2789 28.6449 23.0833 29.5053 22.9187 30.3739C22.7581 31.2425 22.614 32.1194 22.579 33.0148C22.5708 33.2392 22.5708 33.4656 22.5832 33.694C22.5914 33.8052 22.5976 33.9287 22.6285 34.0522C22.6552 34.1736 22.6964 34.293 22.7499 34.4021C22.964 34.8488 23.3036 35.1658 23.5938 35.4848C24.2113 36.1497 24.942 36.6807 25.7098 37.1356C27.2495 38.0372 28.927 38.6485 30.6252 39.126C34.0338 40.0708 37.5392 40.5731 41.0507 40.7665Z" fill="#F4E8D8"/>
<path d="M23.5867 28.433L18.7393 23.6885L23.2903 28.7191L23.5867 28.433Z" fill="#F4E8D8"/>
<path d="M28.8951 38.3542L26.9891 45.7767L29.2924 38.4675L28.8951 38.3542Z" fill="#F4E8D8"/>
</svg>
