<svg width="389" height="280" viewBox="0 0 389 280" fill="none" xmlns="http://www.w3.org/2000/svg">
<path d="M39.3125 218.781C39.3125 218.781 38.5479 206.907 46.5869 201.547C54.629 196.184 57.3066 202.696 57.3066 202.696C57.3066 202.696 59.8016 186.938 72.4374 186.173C85.0732 185.408 90.6202 196.184 90.6202 196.184C90.6202 196.184 104.628 184.398 107.085 197.717C109.539 211.036 43.5223 226.06 27.8251 229.506C12.1248 232.949 39.3125 218.781 39.3125 218.781Z" fill="#F4E8D8"/>
<path d="M54.0281 275.027C72.45 275.524 103.816 269.05 140.163 250.624C171.387 234.793 177.007 224.228 177.007 224.228L143.152 237.676C143.152 237.676 168.543 221.242 172.278 210.038C176.013 198.834 119.369 243.376 88.3832 258.095C68.4667 267.558 54.0281 275.027 54.0281 275.027Z" fill="#F4E8D8"/>
<path d="M226.295 262.454C242.86 254.702 265.819 244.89 269.705 240.301C275.56 233.387 285.773 217.937 294.102 212.272C318.203 195.876 319.339 217.198 319.339 217.198C319.339 217.198 322.435 209.166 329.882 201.125C324.763 194.673 316.312 190.481 306.058 190.343C282.054 190.019 270.344 219.366 270.344 219.366C270.344 219.366 269.787 196.873 245.686 213.27C237.357 218.935 216.339 235.439 224.555 260.839C224.838 261.711 224.992 261.507 226.295 262.454Z" fill="#F4E8D8"/>
<path d="M377.694 237.887C393.111 216.181 378.975 193.651 354.971 193.33C330.968 193.005 319.257 222.353 319.257 222.353C319.257 222.353 318.7 199.86 294.599 216.257C286.27 221.922 276.06 237.371 270.202 244.285C263.887 251.744 187.956 278.762 187.956 278.762C187.956 278.762 340.863 289.74 377.694 237.887Z" fill="#F4E8D8"/>
<path d="M165.428 111.305C164.871 109.021 160.803 106.855 160.076 106.534C159.349 106.213 157.817 106.811 156.883 108.375C154.806 111.859 135.654 117.622 131.611 119.951C127.571 122.28 125.834 138.336 136.308 134.566C156.864 127.17 161.039 125.018 165.428 121.949C171.176 117.933 166.923 117.449 165.428 111.305Z" fill="#C83F37"/>
<path d="M190.945 90.7639C190.945 90.7639 189.951 88.0258 184.97 90.2666C179.989 92.5074 168.788 102.22 166.051 103.214C163.314 104.209 160.451 104.895 160.451 106.887C160.451 108.278 162.234 108.816 164.226 113.672C165.903 117.76 168.178 120.231 170.783 118.903C178.913 114.751 196.671 98.4838 190.945 90.7639Z" fill="#1D2436"/>
<path d="M171.154 158.119C171.154 158.119 154.101 171.441 149.995 176.672C145.889 181.902 143.646 177.046 139.165 186.384C134.685 195.722 125.847 217.261 122.112 217.635C118.377 218.01 112.777 215.394 112.031 223.237C111.285 231.08 125.101 243.779 130.702 246.023C136.302 248.263 142.277 243.782 144.146 234.07C146.012 224.358 154.976 212.697 159.082 205.975C163.188 199.253 162.732 197.176 165.928 195.102C172.268 190.982 183.406 183.816 199.163 170.075C213.725 157.373 189.451 139.07 171.154 158.119Z" fill="#273150"/>
<path d="M149.995 176.672C145.499 181.572 143.646 177.046 139.165 186.384C134.685 195.722 124.428 215.602 130.453 215.269C132.693 215.143 150.244 211.533 154.353 204.811C158.459 198.088 163.48 192.691 166.674 190.617C169.713 188.644 170.034 174.264 170.034 174.264C165.22 172.105 155.099 171.108 149.995 176.672Z" fill="#465788"/>
<path d="M237.996 167.457C238.049 170.236 227.673 174.333 212.356 168.451C197.04 162.573 204.009 144.02 219.325 149.899C234.642 155.781 237.914 163.142 237.996 167.457Z" fill="#F2A62F"/>
<path d="M233.522 164.562C232.364 174.812 214.011 171.759 195.8 169.698C177.586 167.636 166.407 167.347 167.564 157.1C168.722 146.852 184.429 140.212 202.643 142.273C220.854 144.332 234.683 154.311 233.522 164.562Z" fill="#273150"/>
<path d="M212.605 153.263C212.605 153.263 203.766 157.081 200.406 168.288C197.046 179.492 197.169 183.643 194.928 188.873C192.688 194.104 187.459 217.135 184.473 224.981C181.487 232.827 183.362 227.986 179.993 231.703C170.283 242.41 189.866 255.524 189.866 255.524C189.866 255.524 199.959 268.399 205.506 263.077C211.604 257.226 209.864 252.868 209.864 248.883C209.864 244.899 214.93 220.723 216.169 214.768C216.585 212.776 217.497 212.609 218.328 210.287C219.158 207.964 217.913 203.605 217.913 202.485C217.913 201.364 225.87 182.466 230.526 173.433C242.851 149.528 212.605 153.263 212.605 153.263Z" fill="#465788"/>
<path d="M209.118 154.012C209.118 154.012 203.392 157.125 200.032 168.329C196.671 179.533 197.169 183.643 194.928 188.87C193.701 191.737 203.641 176.42 210.113 173.931C214.162 172.373 218.309 171.831 222.808 171.938C225.719 172.008 229.696 175.01 229.696 175.01C233.987 167.255 234.667 161.827 232.518 158.617C227.352 150.903 209.118 154.012 209.118 154.012Z" fill="#273150"/>
<path d="M180.317 242.989C179.064 238.639 177.29 238.765 181.05 236.77C183.787 235.124 196.401 240.487 196.401 240.487C196.401 240.487 195.737 237.862 196.678 235.977C196.678 235.977 214.596 248.754 206.604 259.996C197.883 272.267 181.714 247.845 180.317 242.989Z" fill="#273150"/>
<path d="M127.143 261.39C130.393 259.2 138.382 251.417 137.548 245.519C136.714 239.621 132.426 234.45 129.132 234.142C125.837 233.834 125.022 229.185 118.67 223.051C112.317 216.918 102.686 213.248 96.7304 217.679C91.6207 221.481 90.0003 230.331 97.7184 238.174C101.721 242.243 104.052 245.919 106.701 249.686C116.288 263.326 123.893 263.581 127.143 261.39Z" fill="#13161F"/>
<path d="M127.143 261.39C132.822 256.931 131.111 251.508 116.496 236.937C112.494 225.387 102.271 215.621 96.0005 219.552C90.9977 222.686 91.1236 232.647 97.2181 238.671C101.966 243.363 103.98 245.859 106.698 249.686C116.203 263.058 122.999 264.644 127.143 261.39Z" fill="#EC6043"/>
<path d="M197.543 272.912C197.543 272.912 206.68 263.083 206.214 257.598C205.887 253.736 202.508 247.864 199.909 246.268C198.814 245.598 197.694 246.551 196.174 244.773C190.325 237.925 180.49 230.205 171.032 235.436C163.222 239.753 166.328 247.857 170.173 252.603C174.018 257.349 179.118 261.809 180.933 264.254C187.405 272.969 192.937 276.024 197.543 272.912Z" fill="#13161F"/>
<path d="M195.926 274.039C195.926 274.039 205.135 271.294 188.195 252.26C179.159 234.202 170.535 235.313 167.048 238.923C164.421 241.645 165.544 248.531 170.28 254.186C175.015 259.839 179.58 263.093 180.99 265.069C186.918 273.393 190.942 274.989 195.926 274.039Z" fill="#EC6043"/>
<path d="M200.903 180.404C201.898 178.909 209.118 173.682 217.831 175.426C217.831 175.426 201.649 182.648 197.666 185.138C193.682 187.627 199.906 181.899 200.903 180.404Z" fill="#273150"/>
<path d="M195.926 193.106C195.926 193.106 198.54 194.973 203.021 192.732L200.903 196.219C200.903 196.219 202.646 197.962 206.007 196.842C209.367 195.718 200.158 207.797 195.926 193.106Z" fill="#273150"/>
<path d="M222.645 170.944C226.854 173.37 225.964 180.76 223.806 187.564L230.775 172.769C230.775 172.769 218.432 168.514 222.645 170.944Z" fill="#273150"/>
<path d="M153.478 205.805C153.478 205.805 140.943 223.105 128.169 220.339L153.478 205.805Z" fill="#465788"/>
<path d="M141.406 184.889C141.406 184.889 146.135 185.635 148.375 184.392C150.615 183.145 147.129 187.63 147.129 187.63C147.129 187.63 149.618 192.36 145.137 190.368C140.657 188.376 141.406 184.889 141.406 184.889Z" fill="#273150"/>
<path d="M169.37 143.221C169.37 143.221 172.857 147.205 180.323 148.366C187.789 149.528 203.559 102.55 199.242 95.4122C194.928 88.2744 176.67 102.383 171.359 115C166.051 127.617 169.37 143.221 169.37 143.221Z" fill="#EC5E4D"/>
<path d="M229.655 154.135C229.655 154.135 231.605 158.16 234.012 158.991C234.626 159.35 239.446 159.032 242.891 157.581C246.337 156.127 247.661 154.387 252.809 154.135C257.953 153.886 264.633 154.591 268.286 151.438C271.935 148.284 267.207 147.702 265.463 147.535C264.601 147.454 261.15 150.025 259.529 150.025C254.731 150.025 244.842 152.64 240.484 154.881C237.606 156.363 230.63 152.876 229.655 154.135Z" fill="#F4E8D8"/>
<path d="M259.404 138.821C268.78 140.646 272.681 142.638 270.192 148.448C268.607 152.146 257.956 152.772 253.803 152.143C248.618 151.353 244.301 155.838 235.671 157.745C231.373 158.695 229.032 156.665 228.535 151.271C228.163 147.249 232.005 134.638 239.072 132.262C245.497 130.106 254.942 137.952 259.404 138.821Z" fill="#EC5E4D"/>
<path d="M230.901 89.7662C230.901 89.7662 222.686 84.9101 209.616 86.0305C196.546 87.1509 192.263 88.3531 189.866 93.7505C187.874 98.232 190.571 113.672 188.705 124.876C187.44 132.47 178.498 139.318 175.512 148.281C175.512 148.281 188.73 159.542 212.523 156.829C225.634 155.334 237.665 165.71 237.999 167.454C238.398 165.717 238.43 161.89 238.745 143.922C239.11 123.17 240.308 93.7725 230.901 89.7662Z" fill="#F6BE4A"/>
<path d="M219.7 87.8999C213.725 87.5254 208.996 72.3372 215.342 125.376C216.522 135.23 177.048 143.674 175.512 148.284C175.512 148.284 188.73 159.545 212.523 156.832C225.634 155.337 237.665 165.713 237.999 167.457C238.398 165.72 238.43 161.893 238.745 143.926C239.11 123.17 225.671 88.2744 219.7 87.8999Z" fill="#F2A62F"/>
<path d="M204.374 86.4963C204.374 86.4963 199.327 90.1879 200.114 95.2202C200.9 100.253 212.369 96.7309 215.565 92.0322C218.762 87.3334 208.958 84.6489 204.374 86.4963Z" fill="#F6874E"/>
<path d="M198.537 88.3971C199.531 89.3098 193.604 102.506 181.484 113.505C172.523 121.641 170.862 131.268 173.351 137.575C176.028 144.357 177.501 145.584 179.077 147.617C180.663 149.666 169.446 144.939 168.703 143.8C166.215 139.982 161.847 118.087 174.845 104.624C179.492 99.8087 179.492 93.0046 183.724 90.512C187.959 88.0226 197.543 87.4845 198.537 88.3971Z" fill="#972A27"/>
<path opacity="0.5" d="M198.537 88.3972C199.531 89.3098 193.604 102.506 181.484 113.505C172.523 121.641 170.862 131.268 173.351 137.575C176.028 144.357 177.501 145.584 179.077 147.617C180.663 149.666 169.446 144.939 168.703 143.8C166.215 139.982 164.503 121.408 177.501 107.944C182.148 103.129 179.492 93.0046 183.724 90.5152C187.959 88.0227 197.543 87.4845 198.537 88.3972Z" fill="#972A27"/>
<path d="M169.163 144.259C169.163 144.259 168.955 145.795 169.786 146.626C170.616 147.457 174.889 149.408 178.331 149.613C178.331 149.613 180.49 148.203 178.083 147.787C175.676 147.372 169.163 144.259 169.163 144.259Z" fill="#F4E8D8"/>
<path d="M200.239 87.2768C199.176 86.0935 195.85 86.1186 192.937 87.3869C190.473 88.4601 189.743 93.3193 187.198 98.7262C185.37 102.607 182.812 110.352 178.331 116.825C175.868 120.385 184.306 119.979 196.605 96.3563C198.767 92.2084 200.938 88.0541 200.239 87.2768Z" fill="#F4E8D8"/>
<path d="M205.135 85.9078C199.657 89.0203 200.032 107.447 202.646 107.821C205.261 108.196 218.331 97.2375 216.959 87.7772" stroke="#913636" stroke-miterlimit="10"/>
<path d="M203.256 109.654C203.438 108.604 203.174 107.682 202.666 107.593C202.157 107.505 201.597 108.284 201.415 109.334C201.232 110.383 201.496 111.306 202.004 111.395C202.513 111.483 203.073 110.704 203.256 109.654Z" fill="#29ACE4"/>
<path d="M200.239 87.2768C199.176 86.0935 195.85 86.1186 192.937 87.3869C190.473 88.4601 189.743 93.3193 187.198 98.7262C186.216 100.813 188.787 99.5601 191.939 97.2375C190.706 100.511 190.693 100.476 190.693 100.476C194.264 97.7537 200.434 87.4939 200.239 87.2768Z" fill="#F4E8D8"/>
<path d="M203.442 80.8282C203.442 80.8282 204.176 86.6348 204.364 89.955C204.553 93.2753 206.686 93.099 209.524 92.756C212.366 92.4129 215.21 93.398 215.902 88.7465C216.594 84.095 217.809 76.29 215.317 75.1382C212.828 73.9863 203.241 74.8518 203.442 80.8282Z" fill="#F6874E"/>
<path d="M208.373 80.3059C209.012 84.8094 215.144 92.328 215.842 89.1462C216.541 85.9644 217.667 76.63 216.276 75.6386C214.153 74.1185 207.731 75.8023 208.373 80.3059Z" fill="#CE6D3E"/>
<path d="M217.334 90.1816C217.334 90.1816 217.085 114.666 221.068 122.138C225.052 129.609 236.13 130.481 240.985 147.038C243.143 154.399 247.208 143.302 258.409 143.054C263.337 142.944 266.407 144.706 267.704 145.128C270.535 146.056 266.244 151.699 268.449 150.44C277.162 145.461 267.619 140.114 266.955 137.823C266.042 134.67 264.133 123.796 256.333 121.804C248.118 119.705 240.982 105.703 239.239 100.473C237.495 95.2422 237.247 89.7662 231.272 87.774C225.297 85.7819 218.328 85.4514 217.334 90.1816Z" fill="#972A27"/>
<path opacity="0.5" d="M217.334 90.1815C217.334 90.1815 217.085 114.666 221.068 122.138C225.052 129.609 226.033 136.558 242.976 139.819C249.448 141.065 246.711 119.897 244.968 114.67C243.225 109.442 237.25 89.7692 231.275 87.7771C225.3 85.7849 218.328 85.4513 217.334 90.1815Z" fill="#972A27"/>
<path d="M244.924 148.863C244.924 148.863 246.5 150.066 247.372 150.273C248.662 150.582 252.349 146.04 256.833 145.21C261.313 144.379 266.807 144.7 268.034 146.456C269.072 147.938 267.122 150.856 264.466 151.686C263.447 152.004 265.498 152.517 266.54 152.35C268.717 151.998 271.851 148.448 269.777 145.792C268.084 143.627 263.635 142.638 258.658 142.887C254.335 143.104 250.402 145.046 244.924 148.863Z" fill="#F4E8D8"/>
<path d="M227.54 87.2767C228.163 85.7818 220.82 83.9565 217.334 85.2027C213.847 86.449 213.102 104.709 218.328 114.67C221.899 121.474 220.662 108.375 222.185 97.9865C222.893 93.1682 226.917 88.7716 227.54 87.2767Z" fill="#F4E8D8"/>
<path d="M227.54 87.2767C228.163 85.7818 220.82 83.9565 217.334 85.2027C218.328 88.523 220.662 108.375 222.188 97.9865C222.893 93.1682 226.917 88.7716 227.54 87.2767Z" fill="#F4E8D8"/>
<path d="M259.155 128.363C259.155 128.363 251.188 126.122 246.211 130.852" stroke="#F4E8D8" stroke-width="4" stroke-miterlimit="10"/>
<path d="M110.288 118.154L153.23 144.3C144.977 126.138 126.511 92.8001 122.339 85.3099C122.002 84.7025 121.112 84.756 120.854 85.4011C117.965 92.5578 112.78 113.921 112.78 113.921L110.288 118.154Z" fill="#624873"/>
<path d="M229.702 57.7941C227.864 70.2695 219.429 75.9186 212.913 78.4678C206.397 81.017 191.87 71.9626 189.995 61.1585C187.67 50.2347 186.169 44.4817 203.924 40.7019C221.682 36.9222 231.329 46.7476 229.702 57.7941Z" fill="#1D2436"/>
<path d="M227.496 58.7823C225.936 69.3788 210.635 66.452 210.635 66.452C207.539 65.6463 196.898 63.5314 194.699 57.6808C192.82 52.68 190.382 47.0308 205.462 43.8207C219.262 40.8813 228.878 49.4007 227.496 58.7823Z" fill="#3D4C6D"/>
<path d="M225.615 64.1136C225.615 64.1136 226.968 60.7493 225.895 56.9822C225.895 56.9822 230.51 58.2914 225.615 64.1136Z" fill="#1D2436"/>
<path d="M198.503 50.6092C198.503 50.6092 190.91 47.8114 189.34 49.5801C187.77 51.3488 187.855 75.1161 190.882 80.9635C193.909 86.8109 212.885 83.4152 217.654 79.2169C218.765 78.2412 221.138 73.4607 221.795 67.5566C222.188 65.7407 217.661 62.3324 214.323 58.3701C210.984 54.4078 198.503 50.6092 198.503 50.6092Z" fill="#CE6D3E"/>
<path d="M219.067 70.8863C218.655 81.7566 210.733 83.5347 202.602 84.0225C194.472 84.5072 190.954 82.235 189.63 72.6487C188.261 62.7572 191.404 56.3905 199.535 55.9058C207.662 55.4149 218.473 60.913 219.067 70.8863Z" fill="#F6874E"/>
<path d="M206.362 65.9547C206.457 67.522 205.758 68.2522 204.975 68.2994C204.191 68.3466 203.622 67.692 203.527 66.1247C203.433 64.5574 203.993 63.2513 204.776 63.2041C205.56 63.1569 206.268 64.3875 206.362 65.9547Z" fill="#34273A"/>
<path d="M194.459 66.3796C194.548 67.8494 193.893 68.5354 193.157 68.5795C192.421 68.6236 191.886 68.0099 191.798 66.537C191.71 65.0673 192.235 63.8367 192.971 63.7927C193.704 63.7518 194.371 64.9099 194.459 66.3796Z" fill="#34273A"/>
<path d="M207.026 62.2757C207.026 62.2757 205.771 60.0129 203.726 60.6266" stroke="#34273A" stroke-miterlimit="10" stroke-linecap="round" stroke-linejoin="round"/>
<path d="M193.623 61.4291C193.623 61.4291 191.2 61.2561 190.634 63.1758" stroke="#34273A" stroke-miterlimit="10" stroke-linecap="round" stroke-linejoin="round"/>
<path d="M224.014 66.8993C224.924 63.4183 224.037 60.1715 222.033 59.6473C220.029 59.1232 217.667 61.5201 216.757 65.0011C215.847 68.4821 216.733 71.7289 218.737 72.2531C220.741 72.7773 223.104 70.3803 224.014 66.8993Z" fill="#F6874E"/>
<path d="M208.675 45.9923C202.489 53.5581 190.8 56.0664 185.634 56.0538C181.081 56.0443 185.763 43.8302 193.745 40.7334C201.728 37.6398 211.119 43.0025 208.675 45.9923Z" fill="#1D2436"/>
<path d="M208.203 43.8743C210.091 45.1866 209.314 48.9758 206.129 50.6344C200.636 53.4983 189.592 55.3992 187.361 55.5062C183.145 55.7076 186.921 47.6666 192.663 44.3401C199.11 40.6075 206.315 42.5619 208.203 43.8743Z" fill="#3D4C6D"/>
<path d="M199.204 50.6438C199.204 50.6438 193.811 53.7437 189.573 55.4715C189.573 55.4715 200.787 54.4707 199.204 50.6438Z" fill="#1D2436"/>
<path d="M215.093 54.9869C215.093 54.9869 214.288 63.9091 215.449 66.5181L218.023 70.3828L218.598 57.6242L215.093 54.9869Z" fill="#3D4C6D"/>
<path d="M124.519 116.451L151.279 113.049C151.279 113.049 144.64 91.7583 122.984 81.7976C91.5262 67.3301 66.8273 100.12 60.2514 104.706C52.0362 110.434 44.5668 111.428 28.8853 108.441C28.8853 108.441 16.1897 131.598 4.4884 138.324C4.4884 138.324 18.6785 141.348 37.5976 138.324C54.8176 135.573 64.3511 128.523 79.9193 108.193C88.8801 96.4916 124.768 92.5483 124.519 116.451Z" fill="#F5BF4E"/>
<path d="M27.8061 112.926C27.8061 112.926 16.1897 130.355 12.2064 134.591C12.2064 134.591 33.35 135.431 44.8185 133.096C59.5057 130.11 76.1059 102.953 87.8859 96.7403C101.579 89.5176 121.98 94.3988 126.224 104.709C129.71 113.175 130 115.79 130 115.79L147.55 113.382C147.55 113.382 135.185 78.3137 101.33 82.298C83.9246 84.3468 68.4697 102.717 59.2603 109.688C50.0446 116.659 39.7528 115.416 27.8061 112.926Z" fill="#F4E8D8"/>
<path d="M49.796 110.934L42.078 135.334" stroke="#F5BF4E" stroke-width="3" stroke-miterlimit="10"/>
<path d="M70.1247 99.5601L69.2122 118.154" stroke="#F5BF4E" stroke-width="3" stroke-miterlimit="10"/>
<path d="M89.1286 101.719L86.8884 85.7819" stroke="#F5BF4E" stroke-width="3" stroke-miterlimit="10"/>
<path d="M109.291 81.0517L104.562 97.2375" stroke="#F5BF4E" stroke-width="3" stroke-miterlimit="10"/>
<path d="M123.232 102.965L133.936 91.0125" stroke="#F5BF4E" stroke-width="3" stroke-miterlimit="10"/>
<path d="M127.964 114.169L145.389 104.457" stroke="#F5BF4E" stroke-width="3" stroke-miterlimit="10"/>
<path d="M9.96301 136.331C10.2839 136.404 10.6993 136.483 11.1995 136.561" stroke="#F4E8D8" stroke-width="6" stroke-miterlimit="10"/>
<path d="M14.3585 136.958C23.914 137.918 44.4189 138.21 55.5192 130.604C68.9636 121.392 76.4299 102.714 92.6117 97.4861C101.154 94.7261 116.411 93.335 123.232 104.709C125.051 108.067 125.938 111.33 126.369 113.549" stroke="#F4E8D8" stroke-width="6" stroke-miterlimit="10" stroke-dasharray="8.1 10.12"/>
<path d="M126.627 115.12C126.734 115.913 126.759 116.372 126.759 116.372" stroke="#F4E8D8" stroke-width="6" stroke-miterlimit="10"/>
<path d="M149.621 112.303C149.621 112.303 134.672 77.9014 105.307 80.0572C78.1731 82.0494 63.983 108.942 51.7845 111.928C41.1089 114.544 27.8848 110.434 27.8848 110.434" stroke="#F4E8D8" stroke-width="5" stroke-miterlimit="10" stroke-dasharray="8 10"/>
<path opacity="0.5" d="M60.2514 104.709C52.0362 110.437 44.5668 111.431 28.8853 108.445C28.8853 108.445 16.1897 131.601 4.4884 138.327C4.4884 138.327 18.6785 141.351 37.5976 138.327C54.8176 135.576 64.3511 128.527 79.9193 108.196C60.2514 113.175 60.2514 104.709 60.2514 104.709Z" fill="#F5BF4E"/>
<path d="M67.7177 74.8266C74.8249 74.8266 80.5864 69.1412 80.5864 62.1279C80.5864 55.1145 74.8249 49.4291 67.7177 49.4291C60.6106 49.4291 54.8491 55.1145 54.8491 62.1279C54.8491 69.1412 60.6106 74.8266 67.7177 74.8266Z" fill="#29ACE4"/>
<path d="M73.4001 58.9367L70.861 68.6897C70.603 69.681 69.272 69.8667 68.756 68.9824L61.5446 56.6864C61.0254 55.8021 61.8341 54.732 62.8283 54.9901L72.5789 57.5299C73.1893 57.6904 73.5605 58.3198 73.4001 58.9367Z" fill="#F6BE4A"/>
<path opacity="0.5" d="M78.9219 60.3843C78.9219 66.2191 57.514 66.2191 57.514 60.3843C57.514 54.5495 62.306 49.8224 68.218 49.8224C74.1268 49.8224 78.9219 54.5495 78.9219 60.3843Z" fill="#29ACE4"/>
<path d="M99.8326 59.4496C99.8326 59.4496 109.039 64.9729 111.248 68.6582L126.344 56.1357L114.929 41.4038C114.929 41.4038 102.409 58.345 99.8326 59.4496Z" fill="#9A6EA7"/>
<path d="M114.929 41.4038C116.524 43.7359 114.164 57.5991 114.164 57.5991C114.001 58.7132 113.104 59.5755 111.984 59.6951L99.8326 59.4496L114.929 41.4038Z" fill="#624873"/>
<path d="M113.456 52.208L123.767 53.1899" stroke="#624873" stroke-miterlimit="10"/>
<path d="M109.284 59.2042L109.816 66.7762" stroke="#624873" stroke-miterlimit="10"/>
<path opacity="0.5" d="M101.632 57.5676L121.804 50.5683L114.888 41.7689C114.888 41.772 104.496 54.9082 101.632 57.5676Z" fill="#9A6EA7"/>
<path d="M150.379 12.6734L140.304 19.9842C137.189 22.2439 136.494 26.6058 138.756 29.7215L146.065 39.7987C146.921 40.9758 148.076 41.8098 149.35 42.2661C149.366 42.2724 149.375 42.2818 149.391 42.2881L157.427 45.086C157.993 45.2842 158.547 44.7618 158.386 44.1827L157.285 40.2739L165.878 34.0394C168.993 31.7798 169.688 27.4178 167.426 24.3021L160.117 14.2249C157.855 11.1061 153.494 10.4137 150.379 12.6734Z" fill="#F6BE4A"/>
<path d="M156.751 16.6688L142.243 27.197L143.996 29.6144L158.505 19.0862L156.751 16.6688Z" fill="#F4E8D8"/>
<path d="M159.382 20.298L144.874 30.8261L146.627 33.2435L161.135 22.7154L159.382 20.298Z" fill="#F4E8D8"/>
<path d="M162.013 23.9272L147.505 34.4553L149.258 36.8727L163.766 26.3446L162.013 23.9272Z" fill="#F4E8D8"/>
<path opacity="0.5" d="M150.48 14.6089L141.229 21.3218C138.369 23.3989 168.206 28.1448 166.13 25.284L159.418 16.0314C157.342 13.1675 153.34 12.5317 150.48 14.6089Z" fill="#F6BE4A"/>
<path d="M260.813 9.76225L221.801 1.87547C221.543 1.82197 221.251 2.12725 221.147 2.54896L215.559 25.4068C215.455 25.8285 215.575 26.2313 215.826 26.3069L253.907 37.5422C254.231 37.6398 254.593 37.3251 254.712 36.8435L261.2 10.763C261.32 10.2752 261.147 9.82834 260.813 9.76225Z" fill="#F6BE4A"/>
<path d="M261.257 7.89287L222.245 0.00608819C221.987 -0.0474135 221.697 0.257861 221.594 0.67958L216.006 23.5374C215.902 23.9591 216.021 24.3619 216.273 24.4375L254.354 35.6728C254.678 35.7704 255.039 35.4557 255.159 34.9742L261.647 8.89366C261.763 8.40585 261.59 7.95896 261.257 7.89287Z" fill="#465788"/>
<path d="M235.995 9.29647L243.348 17.5168C243.577 17.7718 243.448 18.2879 243.127 18.4075L232.804 22.247C232.521 22.3509 232.291 22.0393 232.382 21.6742L235.353 9.60804C235.444 9.24297 235.793 9.07302 235.995 9.29647Z" fill="#EC5E4D"/>
<path opacity="0.5" d="M260.083 8.3366L225.999 1.44747C225.775 1.40341 225.52 1.66463 225.429 2.03599L254.048 32.6075C254.332 32.6925 254.649 32.4187 254.753 31.9969L260.42 9.20836C260.527 8.78664 260.376 8.39325 260.083 8.3366Z" fill="#465788"/>
<path d="M281.551 30.949C281.22 32.2896 279.619 33.0292 278.008 32.6138C276.425 32.2047 275.418 30.8325 275.733 29.5359C276.048 28.2393 277.577 27.4745 279.178 27.8364C280.808 28.2078 281.884 29.6051 281.551 30.949Z" fill="#F6BE4A"/>
<path d="M292.16 33.4918C291.789 34.9269 290.112 35.7326 288.444 35.3015C286.808 34.8797 285.792 33.4257 286.141 32.041C286.491 30.6531 288.092 29.8223 289.747 30.1936C291.437 30.5713 292.532 32.0536 292.16 33.4918Z" fill="#F6BE4A"/>
<path d="M280.402 30.8766L284.206 17.1455L294.495 18.7317L291.084 32.6327" stroke="#F6BE4A" stroke-width="8" stroke-miterlimit="10" stroke-linecap="round" stroke-linejoin="round"/>
<path d="M305.882 22.2155C306.46 23.3013 305.705 24.8151 304.223 25.5861C302.77 26.3415 301.156 26.0928 300.589 25.048C300.023 24 300.712 22.5145 302.15 21.7214C303.619 20.9095 305.299 21.1266 305.882 22.2155Z" fill="#F6BE4A"/>
<path d="M311.627 15.0715C312.033 12.6262 307.741 8.92511 307.741 8.92511L304.632 23.0716" stroke="#F6BE4A" stroke-width="8" stroke-miterlimit="10" stroke-linecap="round" stroke-linejoin="round"/>
<path d="M178.923 17.2399C177.658 22.7915 180.902 27.9403 185.977 29.1676C190.954 30.373 196.489 27.5059 198.594 22.3824C200.903 16.7553 198.317 10.4515 192.48 8.78665C186.505 7.08404 180.32 11.1187 178.923 17.2399Z" fill="#EC5E4D"/>
<path d="M184.042 14.3099C187.276 11.188 189.617 15.7985 189.903 16.4028C190.495 16.0377 195.089 13.3563 195.926 17.5169C197.156 23.6287 187.956 25.7908 186.896 26.0205L186.883 26.0646C186.883 26.0646 186.87 26.052 186.845 26.0331C186.814 26.0394 186.795 26.0425 186.795 26.0425L186.807 25.9985C186.03 25.3092 179.19 18.9898 184.042 14.3099Z" fill="#F4E8D8"/>
<path d="M195.098 143.589C196.395 142.015 194.507 141.128 188.796 141.21C186.465 141.244 184.309 141.808 181.257 141.144C179.272 140.712 176.922 141.118 177.844 143C178.618 144.574 179.379 146.27 182.972 146.163C183.944 146.135 187.33 146.277 189.211 146.443C191.002 146.604 194.252 144.618 195.098 143.589Z" fill="#F6874E"/>
<path d="M110.288 118.154L140.163 172.436L148.752 170.444L189.954 168.7L181.987 146.664C183.601 146.261 184.533 144.571 184.01 142.991L173.722 113.559C173.03 111.456 170.94 110.144 168.744 110.434L110.288 118.154Z" fill="#9A6EA7"/>
<path d="M145.018 150.176C145.018 150.176 140.997 145.93 138.649 147.828C136.302 149.729 137.309 153.417 139.433 155.652C141.557 157.886 145.232 159.797 147.588 157.44C150.379 154.645 145.018 150.176 145.018 150.176Z" fill="#F4E8D8"/>
<path d="M148.003 129.194C146.15 131.29 142.598 145.707 141.157 148.615C138.791 153.386 143.023 156.958 146.26 154.84C149.202 152.917 163.314 149.984 165.928 147.369C167.004 146.292 170.783 142.638 164.808 134.67C158.666 126.484 150.867 125.955 148.003 129.194Z" fill="#F5BF4E"/>
<path d="M164.995 145.576C167.556 143.015 166.11 137.415 161.765 133.069C157.42 128.724 151.822 127.277 149.262 129.838C146.701 132.4 148.147 137.999 152.492 142.345C156.837 146.691 162.435 148.137 164.995 145.576Z" fill="#F4E8D8"/>
<mask id="mask0_1_2305" style="mask-type:luminance" maskUnits="userSpaceOnUse" x="143" y="132" width="20" height="11">
<path d="M162.718 137.743C162.718 134.865 158.317 132.531 152.889 132.531C147.46 132.531 143.06 134.865 143.06 137.743C143.06 140.621 147.46 142.955 152.889 142.955C158.317 142.955 162.718 140.621 162.718 137.743Z" fill="white"/>
</mask>
<g mask="url(#mask0_1_2305)">
<path d="M155.413 143.829C156.864 142.378 157.184 140.344 156.127 139.287C155.07 138.23 153.038 138.55 151.586 140.001C150.135 141.453 149.816 143.486 150.872 144.543C151.929 145.6 153.962 145.281 155.413 143.829Z" fill="#465788"/>
</g>
<path opacity="0.5" d="M118.834 117.181C118.834 117.181 178.706 141.043 180.427 141.675C181.811 141.329 182.613 139.878 182.167 138.522L173.325 113.238C172.731 111.431 170.934 110.305 169.049 110.553L118.834 117.181Z" fill="#9A6EA7"/>
<path d="M226.131 129.109C224.721 124.958 225.964 112.404 225.964 101.386C225.964 94.9119 230.41 89.2029 234.261 89.9299C240.403 91.0912 241.73 96.9009 242.891 104.372C244.528 114.899 245.147 130.692 241.356 138.818C237.87 146.292 227.54 133.26 226.131 129.109Z" fill="#1D2436"/>
<path d="M226.131 129.109C224.721 124.958 225.964 112.404 225.964 101.386C225.964 94.9119 230.41 89.2029 234.261 89.9299C240.403 91.0912 231.605 99.7239 232.766 107.195C234.403 117.722 238.713 122.645 234.925 130.767C231.439 138.242 227.54 133.26 226.131 129.109Z" fill="#1D2436"/>
<path d="M233.931 128.445C231.275 126.453 226.987 125.502 224.97 126.786C222.972 128.058 222.512 129.137 222.512 129.137C222.512 129.137 218.759 129.279 215.905 131.762C213.077 134.223 197.379 135.913 195.366 140.193C193.321 144.539 191.546 153.688 200.667 155.507C210.893 157.55 212.705 152.845 216.673 151.85C220.76 150.827 236.753 144.401 239.991 139.815C241.979 136.996 238.458 131.844 233.931 128.445Z" fill="#C83F37"/>
<path d="M233.931 128.445C232.729 127.545 237.703 136.055 229.283 142.056C227.386 143.41 222.865 143.85 220.323 145.043C209.194 150.267 196.602 154.692 200.667 155.504C210.893 157.547 212.705 152.842 216.673 151.847C220.76 150.824 236.753 144.398 239.99 139.812C241.979 136.996 238.458 131.844 233.931 128.445Z" fill="#972A27"/>
<path d="M195.592 140.483C198.578 137.993 201.816 138.242 204.389 143.885C204.389 143.885 205.135 140.565 206.796 144.052C208.763 148.184 206.913 155.52 201.819 155.589C195.674 155.671 193.871 141.915 195.592 140.483Z" fill="#972A27"/>
<path d="M200.032 155.986C196.791 156.527 193.566 153.263 192.782 148.898C192.031 144.725 193.774 140.917 196.715 140.212C199.736 139.488 203.062 142.251 204.113 146.579C205.211 151.12 203.367 155.429 200.032 155.986Z" fill="#F4E8D8"/>
<path d="M198.569 154.607C196.671 154.856 194.544 152.168 193.808 148.738C193.1 145.443 193.925 142.576 195.658 142.21C197.43 141.839 199.576 144.19 200.447 147.598C201.353 151.152 200.51 154.355 198.569 154.607Z" fill="#972A27"/>
<path d="M199.286 154.384L193.767 157.496C193.767 157.496 188.872 161.314 186.049 161.147C183.227 160.98 178.46 161.119 177.044 160.609C173.829 159.447 176.547 158.286 176.547 158.286C176.547 158.286 174.826 158.928 173.02 158.431C171.74 158.078 170.607 155.916 172.894 155.63L174.656 155.359C174.656 155.359 169.575 156.023 169.323 153.742C169.144 152.093 170.651 151.749 173.804 151.916C176.956 152.083 183.595 149.405 184.756 149.074C185.917 148.744 188.132 145.751 190.854 143.139C196.838 137.411 203.329 150.336 199.286 154.384Z" fill="#F6874E"/>
<path d="M189.825 148.096C189.825 148.096 190.759 145.417 189.699 144.92C188.642 144.423 185.363 147.287 183.372 147.784C181.38 148.281 172.709 147.91 170.966 148.281C169.223 148.653 169.348 150.273 170.966 150.771C172.583 151.268 175.635 151.58 179.181 151.205C184.18 150.683 183.576 150.51 189.825 148.096Z" fill="#F6874E"/>
<path d="M222.509 129.137C222.509 129.137 227.415 129.357 229.906 131.227C232.395 133.093 228.358 125.902 222.509 129.137Z" fill="#972A27"/>
<path d="M222.311 129.732C222.311 129.732 228.16 132.47 229.655 138.446C229.655 138.446 231.149 133.839 228.16 131.847C225.174 129.858 222.56 128.986 222.311 129.732Z" fill="#972A27"/>
<path d="M134.188 44.4471C134.188 44.4471 159.579 56.4 159.579 94.2477" stroke="#F6BE4A" stroke-width="7" stroke-miterlimit="10" stroke-linecap="round" stroke-linejoin="round"/>
<path d="M128.213 47.9341C128.213 47.9341 139.666 51.9184 142.154 60.3843" stroke="#29ACE4" stroke-width="7" stroke-miterlimit="10" stroke-linecap="round" stroke-linejoin="round"/>
<path d="M145.389 68.1011C146.419 68.1011 147.255 67.2656 147.255 66.2349C147.255 65.2041 146.419 64.3686 145.389 64.3686C144.358 64.3686 143.523 65.2041 143.523 66.2349C143.523 67.2656 144.358 68.1011 145.389 68.1011Z" fill="#29ACE4"/>
<path d="M190.759 133.15C190.759 133.15 227.418 98.1093 263.387 109.936" stroke="#29ACE4" stroke-width="7" stroke-miterlimit="10" stroke-linecap="round" stroke-linejoin="round"/>
<path d="M287.595 131.085C287.595 131.085 262.33 103.762 232.527 118.317" stroke="#F6BE4A" stroke-width="7" stroke-miterlimit="10" stroke-linecap="round" stroke-linejoin="round"/>
<path d="M271.602 113.672C272.632 113.672 273.468 112.836 273.468 111.806C273.468 110.775 272.632 109.939 271.602 109.939C270.572 109.939 269.736 110.775 269.736 111.806C269.736 112.836 270.572 113.672 271.602 113.672Z" fill="#29ACE4"/>
<path d="M270.516 46.6973C263.091 42.9459 254.032 45.9231 250.282 53.3504C248.548 56.7808 248.256 60.5605 249.168 64.0067C249.171 64.0161 249.171 64.0224 249.171 64.0319C249.178 64.057 249.184 64.0822 249.19 64.1042C249.2 64.1357 249.206 64.164 249.215 64.1955C250.977 70.6975 254.419 80.3782 255.936 80.5954C258.23 80.9227 268.521 75.519 271.816 72.8533C274.024 71.4466 275.9 69.4513 277.168 66.943C280.918 59.5125 277.942 50.4519 270.516 46.6973Z" fill="#EC5E4D"/>
<path d="M263.723 71.626C270.062 71.626 275.201 66.4858 275.201 60.1451C275.201 53.8045 270.062 48.6643 263.723 48.6643C257.384 48.6643 252.245 53.8045 252.245 60.1451C252.245 66.4858 257.384 71.626 263.723 71.626Z" fill="#F4E8D8"/>
<path opacity="0.5" d="M250.279 53.3504C248.545 56.7808 248.253 60.5606 249.165 64.0067C249.168 64.0161 249.168 64.0224 249.168 64.0319C249.175 64.0571 249.181 64.0822 249.187 64.1043C249.197 64.1357 249.203 64.1641 249.212 64.1955C250.974 70.6976 254.417 80.3782 255.933 80.5954C257.28 80.7874 278.801 68.3624 270.337 53.6714C261.873 38.9805 251.83 50.2819 250.279 53.3504Z" fill="#EC5E4D"/>
<path d="M279.569 149.279C279.569 149.279 296.247 141.685 305.46 130.355C305.46 130.355 331.848 130.355 337.075 130.604C337.075 130.604 328.362 154.758 312.181 167.457C312.181 167.457 292.764 171.441 279.569 149.279Z" fill="#F6BE4A"/>
<path d="M309.245 133.543C309.245 133.543 304.063 138.239 299.712 142.037C295.672 145.565 289.168 150.229 286.541 151.919C286.541 151.919 292.063 156.92 296.499 157.663C304.34 158.978 309.692 154.758 309.692 154.758L306.124 144.983L313.924 140.823L309.245 133.543Z" fill="#9A6EA7"/>
<path d="M319.811 142.846L320.411 141.568C320.874 140.586 322.202 139.872 323.555 139.973C325.131 140.089 326.172 141.244 325.609 142.557L324.876 144.272C324.288 145.644 322.447 146.198 321.019 145.584C319.804 145.068 319.335 143.863 319.811 142.846Z" fill="#9A6EA7"/>
<path opacity="0.5" d="M279.569 149.279C279.569 149.279 296.247 141.685 305.46 130.355C305.46 130.355 326.496 130.604 331.723 130.852C331.723 130.852 297.368 163.35 279.569 149.279Z" fill="#F6BE4A"/>
<path d="M117.592 15.6418L108.033 12.8173L105.209 22.3787L114.768 25.2032L117.592 15.6418Z" fill="#F4E8D8"/>
<path d="M178.014 55.9163L168.056 45.9556L158.098 55.9163L168.056 65.877L178.014 55.9163Z" stroke="#F4E8D8" stroke-width="3" stroke-miterlimit="10"/>
<path d="M281.095 183.696L274.132 168.475L258.914 175.44L265.878 190.662L281.095 183.696Z" fill="#F4E8D8"/>
<path d="M268.337 175.788L262.427 162.87L249.512 168.782L255.422 181.699L268.337 175.788Z" fill="#F4E8D8"/>
<path d="M109.852 137.313L103.167 124.32L90.1774 131.006L96.8623 143.999L109.852 137.313Z" stroke="#F4E8D8" stroke-width="3" stroke-miterlimit="10"/>
<path d="M327.956 55.8376L319.045 38.5179L301.73 47.431L310.641 64.7506L327.956 55.8376Z" stroke="#F4E8D8" stroke-width="3" stroke-miterlimit="10"/>
<path d="M335.893 60.1336L329.208 47.1403L316.218 53.8269L322.903 66.8201L335.893 60.1336Z" fill="#F4E8D8"/>
<path d="M96.7149 135.476L91.7232 125.774L82.0234 130.767L87.0151 140.469L96.7149 135.476Z" fill="#F4E8D8"/>
<path d="M311.668 80.1957L306.766 98.1187L287.082 97.1714C283.52 106.969 291.213 115.148 302.474 115.164C313.933 115.176 323.117 107.991 325.71 97.8984C328.164 88.3374 322.161 79.9282 311.668 80.1957Z" fill="#C83F37"/>
<path d="M310.057 78.9116L305.422 95.8591L286.808 94.9653C283.442 104.231 289.121 111.148 299.724 112.133C310.938 113.172 321.572 104.029 324.023 94.4869C326.345 85.4451 319.98 78.6599 310.057 78.9116Z" fill="#29ABE3"/>
<path opacity="0.5" d="M301.313 95.664L286.808 94.9684C283.442 104.234 289.121 111.151 299.724 112.136C306.954 112.807 313.946 109.241 318.656 104.067C307.949 103.878 301.313 95.664 301.313 95.664Z" fill="#29ACE4"/>
<path d="M283.911 93.5333L283.288 91.1667L308.257 74.0146C308.257 74.0146 308.613 75.3239 308.88 76.3813L303.965 93.9991L283.911 93.5333Z" fill="#EC5E4D"/>
<path d="M283.288 91.1696C286.767 81.7785 297.802 74.304 308.257 74.0176L303.261 92.1043L283.288 91.1696Z" fill="#F6BE4A"/>
<path opacity="0.5" d="M283.288 91.1698C285.049 86.4113 288.753 82.1438 293.34 79.0564C292.513 87.5285 299.658 91.9377 299.658 91.9377L283.288 91.1698Z" fill="#F6BE4A"/>
</svg>
