<svg width="287" height="312" viewBox="0 0 287 312" fill="none" xmlns="http://www.w3.org/2000/svg">
<path d="M139.254 178.349C139.254 178.349 52.5981 149.722 30.5473 135.021C8.49653 120.321 -7.36456 110.262 8.49653 94.0144C24.3576 77.7664 46.0216 113.744 45.6347 121.868C45.6347 121.868 54.1455 117.613 65.7512 122.642C77.3569 127.671 80.0649 143.532 80.0649 143.532C80.0649 143.532 91.6706 133.087 102.116 138.503C112.561 143.919 108.692 160.554 108.692 160.554C108.692 160.554 117.977 160.167 123.393 165.583C128.809 170.999 139.254 178.349 139.254 178.349Z" fill="#1D2538" fill-opacity="0.03"/>
<path d="M42.8996 54.4321C42.8996 54.4321 56.6777 37.5914 76.1467 43.3052C95.6157 49.019 104.302 62.5518 105.2 75.483C105.2 75.483 103.403 70.0699 109.693 67.9648C115.983 65.8598 128.264 74.5809 132.158 86.0085C136.051 97.4362 136.051 97.4362 136.051 97.4362C136.051 97.4362 137.249 95.3311 139.346 95.6318C141.443 95.9325 157.917 106.759 157.917 109.165C157.917 109.165 136.051 103.451 131.558 99.842C131.558 99.842 77.3448 76.3852 76.1467 76.3852C74.9486 76.3852 43.1991 61.9503 36.9091 56.5372C30.6191 51.1241 42.8996 54.4321 42.8996 54.4321Z" fill="#1D2538" fill-opacity="0.03"/>
<path d="M181.552 300.92C181.552 300.92 148.67 302.104 142.48 302.576C136.29 303.048 125.965 306.031 132.035 307.543C138.105 309.056 148.279 310.553 162.592 310.553C176.906 310.553 205.367 309.93 210.18 305.652C214.435 301.864 181.552 300.92 181.552 300.92Z" fill="#33A86D"/>
<path d="M32.8682 304.851C32.8682 304.851 26.2916 298.661 17.3939 299.435C8.49623 300.208 -8.185 310.363 5.40138 310.653C23.5836 311.04 30.547 312.201 45.2475 309.88C59.9481 307.559 32.8682 304.851 32.8682 304.851Z" fill="#33A86D"/>
<path d="M271.222 283.315C265.79 282.611 260.305 282.305 254.982 282.294C253.956 281.771 251.306 281.384 246.223 281.117C222.962 279.895 109.787 283.702 109.787 283.702C109.787 283.702 32.5858 282.452 20.5701 284.232C8.55432 286.007 32.8798 291.435 32.8798 291.435L45.6306 292.762C45.6306 292.762 18.1406 294.336 44.3888 298.936C70.637 303.536 56.5515 304.232 81.79 305.045C178.481 308.151 224.424 301.373 224.424 301.373C224.424 301.373 240.339 298.924 240.954 293.416C241.066 292.418 241.681 291.485 242.598 290.619C275.411 288.769 305.242 287.729 271.222 283.315Z" fill="#33A86D"/>
<path d="M241.256 280.251C241.256 280.251 244.316 274.131 245.542 273.821C246.769 273.512 246.459 278.719 246.459 278.719C246.459 278.719 252.579 269.229 258.703 270.456C264.823 271.678 254.722 278.413 254.722 278.413C254.722 278.413 265.435 275.964 266.355 278.413C267.272 280.862 264.518 283.311 264.518 283.311C264.518 283.311 277.373 279.024 273.702 282.7C270.03 286.375 265.133 286.065 251.662 285.454C238.196 284.839 241.256 280.251 241.256 280.251Z" fill="#33A86D"/>
<path d="M177.386 287.187C177.386 287.187 132.085 289.636 149.227 291.473C166.368 293.311 166.368 293.311 166.368 293.311C166.368 293.311 141.269 297.597 158.411 300.046C175.552 302.495 234.931 297.597 232.482 291.477C230.033 285.349 177.386 287.187 177.386 287.187Z" fill="#288453"/>
<path d="M108.723 298.615C102.603 298.615 99.539 303.207 115.458 301.98C131.373 300.758 114.843 298.615 108.723 298.615Z" fill="#288453"/>
<path d="M236.552 301.662C230.432 301.662 227.368 306.254 243.287 305.028C259.202 303.805 242.672 301.662 236.552 301.662Z" fill="#288453"/>
<path d="M129.841 295.555C125.555 294.943 115.149 298.615 129.536 298.003C143.923 297.388 134.128 296.166 129.841 295.555Z" fill="#288453"/>
<path d="M84.3199 249.531C84.3199 249.531 89.3491 235.217 95.5388 232.509C101.728 229.801 110.626 232.509 114.108 234.83C114.108 234.83 110.239 238.312 108.305 237.538C108.305 237.538 108.305 242.18 103.276 242.18C99.1095 242.18 84.3199 249.531 84.3199 249.531Z" fill="#33A86D"/>
<path d="M84.3199 256.881C84.3199 256.881 90.8965 247.983 96.3125 247.209C101.728 246.436 112.56 252.239 112.56 252.239C112.56 252.239 104.436 252.239 101.342 252.239C98.2468 252.239 84.3199 256.881 84.3199 256.881Z" fill="#33A86D"/>
<path d="M91.6704 255.72C91.6704 255.72 94.7652 256.494 97.4732 259.975C100.181 263.457 97.8601 268.873 97.8601 268.873C97.8601 268.873 91.2835 265.391 88.1887 263.07C85.0938 260.749 91.6704 255.72 91.6704 255.72Z" fill="#33A86D"/>
<path d="M87.8018 278.158C87.8018 278.158 98.2469 265.778 106.758 270.034C106.758 270.034 99.7943 276.223 87.8018 278.158Z" fill="#33A86D"/>
<path d="M88.5754 285.509C88.5754 285.509 98.2468 273.903 106.758 273.903C106.758 273.903 105.984 285.895 95.152 287.83C84.32 289.764 88.5754 285.509 88.5754 285.509Z" fill="#33A86D"/>
<path d="M64.2036 279.319C64.2036 279.319 61.8825 272.355 54.919 266.939C47.9556 261.523 39.8317 269.647 39.8317 269.647L53.7585 271.968L64.2036 279.319Z" fill="#33A86D"/>
<path d="M59.9482 280.866C59.9482 280.866 55.3059 274.676 51.4373 274.29C47.5688 273.903 39.8317 275.063 39.8317 275.063L59.9482 280.866Z" fill="#33A86D"/>
<path d="M60.3347 292.858L58.0136 230.188L52.9845 167.13L47.5685 63.0658L68.4587 60.7446L94.7649 63.8395L91.6701 159.78L93.6043 177.575L86.2541 291.698L76.9695 296.34L60.3347 292.858Z" fill="#856792"/>
<path d="M47.5688 63.0659C47.5688 63.0659 56.0797 66.1607 59.9482 66.1607C59.9482 66.1607 66.9116 71.1898 76.583 70.0293L94.7653 63.8396L72.3276 58.4236L47.5688 63.0659Z" fill="#665070"/>
<path d="M76.5829 70.0292L75.8091 102.912C75.8091 102.912 75.4223 141.211 75.8091 143.145C76.196 145.079 76.9697 168.291 76.9697 168.291L76.5829 228.64L79.2908 169.064L78.1303 143.532L78.904 101.364L81.2251 67.3212L76.5829 70.0292Z" fill="#665070"/>
<path d="M55.0038 64.9188L57.6267 119.547L60.3347 139.276L57.2979 216.431L56.853 139.276L54.5319 111.81L55.0038 64.9188Z" fill="#665070"/>
<path d="M71.1669 225.545L72.3274 272.355L73.8284 295.4L76.9697 296.34L75.0354 271.968L71.1669 225.545Z" fill="#665070"/>
<path d="M61.89 293.562L63.4297 265.005L65.5651 293.562H61.89Z" fill="#665070"/>
<path d="M91.2832 158.232L89.3489 182.604V193.823L93.6043 177.575L91.2832 158.232Z" fill="#665070"/>
<path d="M66.5245 202.334L65.3639 217.808L64.2034 230.961L67.6851 220.129L66.5245 202.334Z" fill="#665070"/>
<path d="M86.2542 291.698L88.9777 243.979L82.3857 278.545L73.368 250.865L74.2888 279.79L76.9697 296.34L86.2542 291.698Z" fill="#665070"/>
<path d="M78.1147 137.307L73.8748 155.138L79.3372 162.407L78.1147 137.307Z" fill="#665070"/>
<path d="M54.9188 65.0001L55.6925 78.1532L62.2691 66.1607L54.9188 65.0001Z" fill="#665070"/>
<path d="M80.8384 295.179C80.2272 295.791 77.7436 280.479 85.4807 272.355C93.2178 264.231 92.831 267.713 90.5098 276.223C88.1887 284.734 88.1887 284.734 88.1887 284.734C88.1887 284.734 91.2836 278.158 93.6047 280.866C95.9258 283.574 88.9624 290.924 88.9624 290.924C88.9624 290.924 94.7653 293.245 96.3127 293.245C97.8601 293.245 81.2253 294.792 80.8384 295.179Z" fill="#288453"/>
<path d="M62.6562 294.792C62.6562 294.792 59.9482 285.508 56.8534 282.8C53.7585 280.092 55.3059 285.121 56.8534 286.281C58.4008 287.442 50.2768 275.45 47.9557 283.96C45.6345 292.471 55.6928 292.084 55.6928 292.084C55.6928 292.084 46.7951 295.179 52.5979 295.179C58.4008 295.179 62.6562 294.792 62.6562 294.792Z" fill="#288453"/>
<path d="M62.1261 265.465C59.6618 267.066 59.7701 276.548 65.8515 269.732C71.9329 262.915 64.5904 263.863 62.1261 265.465Z" fill="#33A86D"/>
<path d="M70.7803 268.486C68.0723 270.42 70.0066 277.771 74.262 273.128C78.5174 268.486 73.4883 266.552 70.7803 268.486Z" fill="#33A86D"/>
<path d="M69.6195 276.997C66.1378 276.997 63.4298 281.639 68.0721 280.092C72.7144 278.544 73.1012 276.997 69.6195 276.997Z" fill="#33A86D"/>
<path d="M74.842 263.047C72.2462 264.594 68.4086 267.345 70.9348 262.494C73.4648 257.643 77.4378 261.5 74.842 263.047Z" fill="#33A86D"/>
<path d="M52.9848 75.8321C52.9848 75.8321 49.8899 63.0658 45.6345 60.7447C41.3791 58.4235 33.642 61.9052 33.642 61.9052C33.642 61.9052 42.1528 65.3869 46.0214 67.7081C49.8899 70.0292 52.9848 75.8321 52.9848 75.8321Z" fill="#33A86D"/>
<path d="M52.211 80.8614C52.211 80.8614 47.9556 82.0219 45.6345 78.1534C43.3134 74.2848 43.3134 74.2848 43.3134 74.2848C43.3134 74.2848 51.4373 71.5768 52.211 80.8614Z" fill="#33A86D"/>
<path d="M52.4664 66.1107C53.4452 67.3331 57.364 66.602 55.6503 64.1532C53.9365 61.7044 51.4877 64.8882 52.4664 66.1107Z" fill="#33A86D"/>
<path d="M56.0797 76.6059C59.1746 77.3796 59.9483 71.5767 56.4666 71.1899C52.9849 70.803 52.9849 75.8322 56.0797 76.6059Z" fill="#33A86D"/>
<path d="M55.306 82.4087C55.306 82.4087 57.2403 78.1533 59.5614 78.1533C61.8826 78.1533 64.5906 79.3139 64.5906 79.3139L55.306 82.4087Z" fill="#33A86D"/>
<path d="M56.8533 87.0511C56.8533 87.0511 56.0796 84.7299 53.7584 85.8905C51.4373 87.0511 50.6636 91.6934 53.7584 90.9196C56.8533 90.1459 56.8533 87.0511 56.8533 87.0511Z" fill="#33A86D"/>
<path d="M66.254 52.3693C66.254 52.3693 55.4414 52.4428 51.0235 45.371C46.6056 38.2993 52.1299 10.2329 55.0004 6.47653C57.8709 2.72016 74.0066 2.94067 74.0066 2.94067C74.0066 2.94067 77.9835 13.5483 76.2156 15.3162C74.4476 17.0841 71.3528 15.3162 71.3528 15.3162" stroke="#7A462F" stroke-width="4" stroke-miterlimit="10" stroke-linecap="round" stroke-linejoin="round"/>
<path d="M88.9625 23.6064C88.9625 23.6064 93.9916 27.0881 96.3127 31.3436C98.6339 35.599 100.181 38.6938 100.181 38.6938C100.181 38.6938 108.692 47.2047 109.466 48.7521C110.24 50.2995 110.24 55.3286 104.824 51.0732C99.4076 46.8178 94.3785 40.2413 94.3785 40.2413C94.3785 40.2413 87.0282 29.7961 86.2545 27.0881C85.4808 24.3802 85.4808 22.059 88.9625 23.6064Z" fill="#7A462F"/>
<path d="M96.313 31.3435C98.6341 35.5989 100.182 38.6938 100.182 38.6938C100.182 38.6938 108.692 47.2046 109.466 48.752C110.24 50.2995 111.068 50.1254 106.275 48.6979C98.6225 42.5778 96.019 38.9027 96.019 38.9027C96.019 38.9027 93.9919 27.0881 96.313 31.3435Z" fill="#A96443"/>
<path d="M110.24 49.5257C110.24 49.5257 112.948 48.3652 114.882 47.9783C116.816 47.5915 116.429 49.9126 115.269 49.9126C114.108 49.9126 111.783 50.5857 111.783 50.5857C111.783 50.5857 117.195 54.3614 119.13 54.3614C121.064 54.3614 119.13 55.8934 119.13 55.8934C119.13 55.8934 120.669 57.4331 119.137 57.6536C117.768 57.8509 114.615 57.4988 114.615 57.4988C114.615 57.4988 111.783 56.0984 111.4 55.7193C110.627 54.9417 105.211 51.0732 110.24 49.5257Z" fill="#A96443"/>
<path d="M125.327 44.4967C124.96 41.398 122.619 32.891 114.844 39.6958C107.478 46.1409 109.799 54.5202 114.855 56.6633C119.911 58.8104 126.391 53.4563 125.327 44.4967Z" fill="#F7BC4B"/>
<path d="M125.328 44.4966C124.96 41.3979 122.62 32.8909 114.844 39.6957C121.985 47.4212 120.964 55.7851 120.964 55.7851C120.964 55.7851 126.391 53.4562 125.328 44.4966Z" fill="#FEED7F"/>
<path d="M115.049 39.5797C115.049 39.5797 117.064 41.1813 120.252 41.9627C123.467 42.7519 124.793 42.3186 124.793 42.3186" stroke="#BB83C3" stroke-miterlimit="10"/>
<path d="M113.749 40.7789C113.749 40.7789 116.124 42.6629 119.877 43.5875C123.664 44.5198 125.227 44.0092 125.227 44.0092" stroke="#BB83C3" stroke-miterlimit="10"/>
<path d="M110.457 47.1271C110.457 47.1271 112.933 49.336 117.138 50.7597C121.652 52.2916 124.329 51.6765 124.329 51.6765" stroke="#BB83C3" stroke-miterlimit="10"/>
<path d="M111.025 45.866L113.695 43.8273C113.818 43.7305 114.004 43.6764 114.008 43.7383L114.147 47.5179C114.151 47.5914 113.969 47.572 113.822 47.4869L111.029 45.9163C111.01 45.9085 111.01 45.8815 111.025 45.866Z" fill="#BB83C3"/>
<path d="M114.109 47.5527L117.157 45.0382C117.219 44.9879 117.319 45.0188 117.327 45.0962L117.846 48.8062C117.853 48.8719 117.784 48.9183 117.714 48.8951L114.147 47.6997C114.078 47.6765 114.054 47.5953 114.109 47.5527Z" fill="#BB83C3"/>
<path d="M117.641 48.868L120.329 46.1561C120.356 46.129 120.399 46.1445 120.407 46.1793L121.045 49.7036C121.053 49.7345 121.022 49.7616 120.991 49.7539L117.664 48.9454C117.625 48.9337 117.614 48.8912 117.641 48.868Z" fill="#BB83C3"/>
<path d="M121.033 49.696L123.408 46.7017C123.432 46.6746 123.478 46.6824 123.486 46.7172L124.507 50.1486C124.515 50.1795 124.492 50.2105 124.457 50.2066L121.06 49.7695C121.029 49.7656 121.01 49.7231 121.033 49.696Z" fill="#FFACFF"/>
<path d="M111.025 45.9203C111.025 45.9203 117.621 50.0403 124.457 50.2105" stroke="#BB83C3" stroke-miterlimit="10"/>
<path d="M120.964 49.8081C122.101 50.0325 123.273 50.1795 124.457 50.2104" stroke="#FFACFF" stroke-miterlimit="10"/>
<path d="M113.161 54.5507C113.498 54.5507 113.772 54.2944 113.772 53.9782C113.772 53.662 113.498 53.4056 113.161 53.4056C112.823 53.4056 112.55 53.662 112.55 53.9782C112.55 54.2944 112.823 54.5507 113.161 54.5507Z" fill="#BB83C3"/>
<path d="M119.97 40.9646C120.286 40.9646 120.542 40.7256 120.542 40.4307C120.542 40.1359 120.286 39.8969 119.97 39.8969C119.653 39.8969 119.397 40.1359 119.397 40.4307C119.397 40.7256 119.653 40.9646 119.97 40.9646Z" fill="#BB83C3"/>
<path d="M121.614 38.8988C121.93 38.8988 122.186 38.6598 122.186 38.3649C122.186 38.0701 121.93 37.8311 121.614 37.8311C121.297 37.8311 121.041 38.0701 121.041 38.3649C121.041 38.6598 121.297 38.8988 121.614 38.8988Z" fill="#FFACFF"/>
<path d="M123.068 41.1966C123.384 41.1966 123.641 40.9576 123.641 40.6628C123.641 40.3679 123.384 40.1289 123.068 40.1289C122.752 40.1289 122.496 40.3679 122.496 40.6628C122.496 40.9576 122.752 41.1966 123.068 41.1966Z" fill="#FFACFF"/>
<path d="M116.871 53.135C117.187 53.135 117.443 52.896 117.443 52.6011C117.443 52.3063 117.187 52.0673 116.871 52.0673C116.555 52.0673 116.298 52.3063 116.298 52.6011C116.298 52.896 116.555 53.135 116.871 53.135Z" fill="#BB83C3"/>
<path d="M112.7 51.2201C113.017 51.2201 113.273 50.9811 113.273 50.6862C113.273 50.3914 113.017 50.1523 112.7 50.1523C112.384 50.1523 112.128 50.3914 112.128 50.6862C112.128 50.9811 112.384 51.2201 112.7 51.2201Z" fill="#BB83C3"/>
<path d="M117.675 39.5136C117.992 39.5136 118.248 39.2746 118.248 38.9798C118.248 38.6849 117.992 38.4459 117.675 38.4459C117.359 38.4459 117.103 38.6849 117.103 38.9798C117.103 39.2746 117.359 39.5136 117.675 39.5136Z" fill="#BB83C3"/>
<path d="M117.788 56.1177C118.104 56.1177 118.36 55.8786 118.36 55.5838C118.36 55.2889 118.104 55.0499 117.788 55.0499C117.471 55.0499 117.215 55.2889 117.215 55.5838C117.215 55.8786 117.471 56.1177 117.788 56.1177Z" fill="#BB83C3"/>
<path d="M121.459 54.28C121.775 54.28 122.032 54.041 122.032 53.7461C122.032 53.4513 121.775 53.2123 121.459 53.2123C121.143 53.2123 120.886 53.4513 120.886 53.7461C120.886 54.041 121.143 54.28 121.459 54.28Z" fill="#FFACFF"/>
<path d="M108.186 51.4524C109.733 50.6787 110.24 52.2339 111.014 53.7813C111.489 54.7291 112.673 55.3249 113.772 55.4293C114.468 55.4951 115.076 55.584 115.687 55.8123C116.994 56.2997 114.882 57.6499 112.948 57.263C111.014 56.8761 106.638 52.2261 108.186 51.4524Z" fill="#A96443"/>
<path d="M80.7923 59.0271C80.7923 59.0271 79.0051 61.12 80.4094 61.8589C81.8136 62.5978 82.0148 62.4701 83.1638 62.8531C84.3127 63.2361 87.4385 65.24 87.895 65.4682C88.6687 65.8551 89.8293 65.0814 89.0556 64.3077C89.0556 64.3077 90.5721 65.3909 91.0595 64.269C91.0595 64.269 92.1891 64.0988 91.4154 63.3251C91.4154 63.3251 93.0673 63.0775 91.5199 61.9169C90.8583 61.4217 91.222 61.089 88.9008 60.4043C85.7983 59.4874 81.7479 58.0135 80.7923 59.0271Z" fill="#A96443"/>
<path d="M78.9042 43.723C79.6741 43.6379 90.5254 37.514 93.6202 40.9957C96.7151 44.4774 87.3338 58.0212 83.8521 59.5648C83.032 59.9284 81.4188 60.8453 80.6374 60.6364C79.5271 60.3424 78.7611 60.1335 79.5387 58.0328C80.8888 54.4041 83.1597 49.9127 83.1597 49.9127C83.1597 49.9127 77.7437 53.0076 75.0357 50.6864C72.3277 48.3653 75.4225 44.1099 78.9042 43.723Z" fill="#7A462F"/>
<path d="M87.7556 41.6572C87.7556 41.6572 91.1986 38.8254 93.6204 40.9957C97.0905 44.1022 87.3339 58.0212 83.8522 59.5648C83.0321 59.9284 86.6067 53.1352 86.6067 53.1352L89.1328 46.1718L87.7556 41.6572Z" fill="#A96443"/>
<path d="M87.8058 21.506C83.0475 19.4672 81.2254 20.5117 72.3277 28.6357C66.7802 33.6997 62.6563 43.3362 67.2986 44.8837C71.9409 46.4311 75.8481 44.8218 78.5174 43.3362C82.208 41.282 86.7188 39.0886 88.9625 34.8254C92.8311 27.4751 92.0922 23.3435 87.8058 21.506Z" fill="#A96443"/>
<path d="M90.7653 27.3204C90.7653 27.3204 86.6414 25.3243 86.2546 22.446C86.2546 22.446 84.0301 25.0767 90.7653 27.3204Z" fill="#7A462F"/>
<path d="M78.1151 26.0476C78.1151 26.0476 81.2254 20.5117 72.3277 28.6357C66.7802 33.6996 62.6563 43.3362 67.2986 44.8836C70.0066 44.8836 75.5115 34.7712 75.5115 34.7712C75.5115 34.7712 74.0105 30.7479 74.4399 30.0284C75.8945 27.568 78.1151 26.0476 78.1151 26.0476Z" fill="#7A462F"/>
<path d="M71.0859 35.2238C68.2658 36.2064 64.6448 36.2799 64.6448 48.5433C64.6448 60.8066 74.3394 59.147 77.295 54.2571C81.9914 46.5045 73.9061 34.2412 71.0859 35.2238Z" fill="#A96443"/>
<path d="M72.6023 40.3808C69.7821 41.3634 64.6447 42.4195 64.1843 49.615C63.4029 61.8552 73.2136 57.4218 73.2136 57.4218L68.0103 53.441C68.0103 53.441 67.8788 49.7156 69.2328 46.5047C70.7106 43.0075 73.643 40.021 72.6023 40.3808Z" fill="#7A462F"/>
<path d="M73.7786 44.6167L71.38 58.0329C71.38 58.0329 70.0028 54.5125 70.6141 50.6865C71.2253 46.8605 73.7786 44.6167 73.7786 44.6167Z" fill="#7A462F"/>
<path d="M68.0879 34.0827C66.1536 35.2433 64.5675 40.9688 64.2618 48.3925C64.5868 51.1237 64.6255 45.4331 68.3161 41.8121C69.5463 40.6051 72.6566 38.9146 74.5909 38.1409C74.9004 36.4542 70.0221 32.9222 68.0879 34.0827Z" fill="#7A462F"/>
<path d="M88.9625 34.8254C88.9625 34.8254 93.4191 24.6202 83.8793 27.8311C79.2408 29.394 74.3858 40.6708 77.0938 42.2182C79.8018 43.7657 79.3801 43.3943 83.0127 41.0461C86.6414 38.694 88.1888 37.1466 88.9625 34.8254Z" fill="#D77D5B"/>
<path d="M71.5348 62.2146C71.5348 62.2146 69.8133 64.234 71.001 65.4526C72.1847 66.6751 74.0919 68.5242 74.3434 69.4063C74.5484 70.122 75.0359 70.6403 75.5659 70.6829C76.0997 70.7254 76.2506 69.356 76.2506 69.356C76.2506 69.356 76.6529 70.5397 77.4963 70.6171C78.3396 70.6945 78.1926 69.6616 78.1926 69.6616C78.1926 69.6616 78.9277 70.768 79.6936 70.4624C80.4596 70.1568 80.4441 69.2399 80.4441 69.2399C80.4441 69.2399 81.5776 69.8086 81.9451 68.8956C82.3126 67.9788 81.7904 66.9304 78.7303 64.381C78.1965 63.9361 76.15 63.0734 75.6703 62.7214C73.4691 61.1237 72.7882 61.4641 71.5348 62.2146Z" fill="#D77D5B"/>
<path d="M75.7011 62.5358C75.7011 62.5358 80.5871 52.965 82.6026 47.5258C84.6413 42.017 87.1404 39.1272 82.6026 38.1407C80.4439 37.6726 78.5638 38.1794 76.7882 38.9569C75.1556 39.6726 74.4593 42.6282 73.8287 44.5702C73.2562 46.3304 72.1962 54.0598 71.6082 57.6924C71.2252 60.0599 70.7145 62.9343 71.1749 63.5958C71.9331 64.6867 75.0512 64.3579 75.7011 62.5358Z" fill="#A96443"/>
<path d="M81.5621 37.9318C81.5621 37.9318 74.7264 37.572 68.97 42.4193C68.97 42.4193 78.7033 38.0904 81.5621 37.9318Z" fill="#7A462F"/>
<path d="M71.7005 22.7475C63.5418 27.235 62.6636 30.4962 63.9518 32.2178C65.2439 33.9393 69.5458 40.3959 71.7005 41.688C73.8515 42.9801 76.0062 42.5507 74.2847 39.9665C73.4723 38.7479 72.9772 37.1695 72.1338 35.2314C71.1899 33.0611 69.3214 31.0881 69.7779 30.179C70.4665 29.5678 83.755 25.7611 84.6177 22.7514C85.4726 19.7378 80.3081 18.0163 71.7005 22.7475Z" fill="#A96443"/>
<path d="M71.7007 22.7477C63.542 27.2352 63.6232 30.1134 63.7276 30.9413C63.8824 32.1638 65.8708 30.0979 68.8535 30.713C67.631 28.6859 65.2557 30.3301 65.2557 30.3301C66.1184 28.6086 80.3083 18.0164 71.7007 22.7477Z" fill="#7A462F"/>
<path d="M71.7005 22.7478C66.1955 25.9007 65.2593 27.4365 64.6055 28.0593C63.9518 28.6822 63.1819 30.6861 64.2071 29.9897C65.1085 29.3785 68.8029 26.1289 68.8029 26.1289C68.8029 26.1289 77.1629 21.3822 79.2442 21.2468C81.1243 21.1269 83.4145 21.2739 84.606 22.7478C85.4725 19.7381 80.2229 17.8657 71.7005 22.7478Z" fill="#7A462F"/>
<path d="M72.6639 42.0212C72.6639 42.0212 73.8516 42.5473 76.4319 42.9767C79.0161 43.4061 80.3043 44.2688 81.167 45.1276C82.0297 45.9903 82.8885 43.8355 81.5964 42.5434C80.3043 41.2513 76.8613 39.5298 74.281 39.9592C71.7006 40.3886 70.6174 41.0656 72.6639 42.0212Z" fill="#D77D5B"/>
<path d="M76.4319 41.6884C76.4319 41.6884 80.3043 43.4099 79.8749 45.9941C79.4455 48.5783 77.3758 45.085 75.6117 43.3867C73.8477 41.6884 71.7006 40.3963 76.4319 41.6884Z" fill="#D77D5B"/>
<path d="M84.3198 11.2274C84.3198 11.2274 83.9717 3.50576 92.881 2.02023C102.982 0.33741 105.202 9.82699 104.665 11.3551C102.962 16.2256 101.342 19.3514 101.342 19.3514C101.342 19.3514 107.918 28.2491 101.342 29.7965C94.7649 31.3439 88.9621 25.5411 86.2541 22.4462C83.5461 19.3514 84.3198 11.2274 84.3198 11.2274Z" fill="#D77D5B"/>
<path d="M84.3199 11.2272C84.3199 11.2272 83.9331 2.71637 92.8308 1.16895C100.258 -0.12315 104.398 6.26384 104.641 11.2001C104.688 12.1789 102.371 5.23094 95.1016 10.7398C91.0009 13.8462 94.03 17.8579 94.03 17.8579C94.03 17.8579 91.5928 21.6762 92.8308 24.3803C93.8753 26.6589 95.1519 29.4094 101.342 29.7963C94.765 31.3437 87.8016 25.5409 85.0936 22.446C82.3857 19.3512 84.3199 11.2272 84.3199 11.2272Z" fill="#A96443"/>
<path d="M84.3199 11.2272C84.3199 11.2272 83.933 2.71637 92.8307 1.16895C92.8307 1.16895 96.649 0.298521 99.8444 2.53068C97.6664 2.67769 91.4264 8.29483 91.4264 8.29483L90.9661 6.15165C87.4457 9.67204 88.3625 22.2217 88.3625 22.2217C86.3741 24.0592 84.0917 23.8155 83.0046 18.856C82.3818 15.9894 84.3199 11.2272 84.3199 11.2272Z" fill="#7A462F"/>
<path d="M89.349 15.0957C89.349 15.0957 89.7359 8.51917 84.3199 8.51917C78.9039 8.51917 78.6215 12.4071 78.9039 15.0957C79.1863 17.7844 83.0858 22.5272 86.641 21.6723C89.7436 20.9256 89.349 15.0957 89.349 15.0957Z" fill="#A96443"/>
<path d="M89.353 15.0957C89.353 15.0957 89.6664 8.51917 85.2678 8.51917C80.8693 8.51917 80.8693 12.0009 80.8693 15.0957C80.8693 18.1906 84.2659 22.5272 87.1557 21.6723C89.6702 20.9256 89.353 15.0957 89.353 15.0957Z" fill="#D77D5B"/>
<path d="M85.4805 18.1904C85.4805 18.1904 84.3199 13.935 86.6411 13.1613C86.6411 13.1613 84.3199 10.4533 82.7725 13.5482C81.2251 16.643 85.4805 18.1904 85.4805 18.1904Z" fill="#A96443"/>
<path d="M98.0531 18.1907C98.5872 18.1907 99.0202 17.4979 99.0202 16.6432C99.0202 15.7886 98.5872 15.0958 98.0531 15.0958C97.5189 15.0958 97.0859 15.7886 97.0859 16.6432C97.0859 17.4979 97.5189 18.1907 98.0531 18.1907Z" fill="#1D2538"/>
</svg>
