<svg width="287" height="262" viewBox="0 0 287 262" fill="none" xmlns="http://www.w3.org/2000/svg">
<path d="M165.475 205.18C163.832 205.18 119.504 197.519 97.6108 197.519C75.7181 197.519 59.8468 200.802 59.8468 200.802L83.9288 211.748C83.9288 211.748 50.5675 224.275 35.7683 228.712C19.3505 233.637 2.1096 236.65 0.466783 240.751C-1.17603 244.857 8.40417 246.773 24.822 251.151C41.2397 255.53 45.0718 259.362 70.2467 259.908C95.4216 260.455 120.596 260.593 139.069 261.413C152.747 262.022 185.313 258.539 190.788 256.899C196.259 255.257 190.376 248.689 187.094 248.689C183.812 248.689 240.045 243.764 253.588 237.608C265.648 232.126 252.769 226.115 233.477 224.884C261.235 226.654 252.634 215.196 165.475 205.18Z" fill="#33A86D"/>
<path d="M259.61 228.439C260.156 226.25 268.094 210.652 262.346 215.85C256.597 221.048 257.967 227.07 257.967 227.07C257.967 227.07 257.147 213.934 254.135 219.132C251.126 224.33 248.937 228.436 248.937 228.436C248.937 228.436 253.315 238.836 259.06 229.805" fill="#33A86D"/>
<path d="M211.889 234.287C211.889 234.287 201.461 238.835 190.377 241.298C179.295 243.76 166.979 249.916 143.582 249.508C120.185 249.1 122.603 240.022 122.603 240.022C122.603 240.022 78.0425 248.962 61.2166 243.214C44.3872 237.466 92.2744 212.976 122.239 206.408C152.204 199.84 152.204 199.84 152.204 199.84L211.889 234.287Z" fill="#288453"/>
<path d="M117.522 204.982C117.522 204.982 120.078 204.47 123.914 205.494C127.749 206.518 127.237 209.586 126.981 210.353C126.725 211.121 123.402 212.653 115.987 212.145C108.571 211.636 108.381 211.18 104.224 211.377C99.7002 211.592 101.668 204.218 102.944 201.914C104.224 199.615 117.522 204.982 117.522 204.982Z" fill="#EE5D4F"/>
<path d="M116.989 201.417C116.989 201.417 119.168 200.856 123.004 201.88C126.839 202.904 127.24 207.888 126.985 208.655C126.729 209.423 123.405 210.955 115.99 210.447C108.575 209.938 107.174 210.295 103.058 209.679C100.789 209.34 101.671 202.52 102.951 200.216C104.231 197.913 116.989 201.417 116.989 201.417Z" fill="#121721"/>
<path d="M97.369 134.507C97.369 134.507 107.07 133.141 112.459 132.201C117.847 131.26 126.739 128.984 128.088 133.318C129.437 137.651 128.627 146.557 120.005 148.227C111.383 149.898 91.4548 155.276 86.5921 152.478C81.7294 149.68 77.1572 138.786 97.369 134.507Z" fill="#121721"/>
<path d="M125.356 138.668C125.356 138.668 128.482 139.035 128.282 144.032C128.081 149.03 123.99 160.754 124.263 163.48C124.536 166.205 121.807 182.021 120.991 188.291C120.171 194.562 120.718 200.289 119.355 203.015C117.993 205.74 120.718 205.197 114.448 205.197C108.177 205.197 104.359 204.377 103.27 203.561C102.18 202.741 102.996 195.928 102.996 195.928C102.996 195.928 104.359 192.656 104.359 192.11C104.359 191.563 103.539 175.751 104.359 171.659C105.179 167.568 106.541 145.755 111.449 140.847C116.36 135.939 125.356 138.668 125.356 138.668Z" fill="#121721"/>
<path d="M249.895 148.783L251.946 199.157L253.046 232.325L239.211 236.129L214.31 240.626L211.889 236.475C211.889 236.475 197.363 237.167 194.942 237.167C192.521 237.167 179.524 229.441 179.524 229.441L180.07 223.966L165.292 226.338L148.919 216.395L155.76 141.05L197.764 137.038L249.895 148.783Z" fill="#7A462F"/>
<path d="M198.494 134.303L230.603 137.588L249.895 148.784L217.675 158.692L212.235 156.915L199.407 155.829L158.087 147.895L155.784 141.099L198.494 134.303Z" fill="#D77D5B"/>
<path d="M199.711 137.221L222.839 140.49L236.735 147.749L213.525 154.172L209.606 153.02L200.368 151.177L170.604 146.034L168.944 141.628L199.711 137.221Z" fill="#B44C29"/>
<path d="M214.31 240.626L215.551 194.139L217.606 175.899L217.651 158.703L212.2 156.946L208.849 173.298L206.466 200.247L203.239 236.738L211.889 236.476L214.31 240.626Z" fill="#A96443"/>
<path d="M179.932 224.035L165.202 226.338L170.355 181.688L172.589 177.081L176.511 152.228L175.145 194.596L173.139 219.815L179.932 224.035Z" fill="#A96443"/>
<path d="M197.034 235.507L195.917 225.654L196.851 217.855L196.104 205.954L194.61 217.855L192.932 224.014L193.306 233.045L197.034 235.507Z" fill="#A96443"/>
<path d="M199.545 155.967L200.776 177.811L196.944 193.409L191.608 203.263L198.176 177.13L192.476 154.552L199.545 155.967Z" fill="#A96443"/>
<path d="M235.801 234.732L244.558 232.543L237.444 213.798L233.065 209.965L235.255 199.569L229.918 194.641L228.414 175.349L227.594 189.308L227.729 196.557L231.834 200.116L228.96 213.798L231.973 218.723L235.801 234.732Z" fill="#A96443"/>
<path d="M222.804 189.169L220.753 201.893L223.624 212.155L221.984 222.828L221.161 211.335L219.11 200.251L222.804 189.169Z" fill="#A96443"/>
<path d="M238.264 152.502L233.612 154.141V162.352L235.801 177.538L234.435 186.568L235.801 190.127L239.087 176.992L237.444 161.805L238.264 152.502Z" fill="#A96443"/>
<path d="M207.801 235.282C207.801 235.282 204.221 229.773 203.879 232.443C203.536 235.113 204.221 235.78 204.221 235.78C204.221 235.78 199.448 228.6 200.13 231.775C200.811 234.947 200.98 235.78 200.98 235.78C200.98 235.78 199.445 232.443 198.252 232.941C197.058 233.439 198.082 235.113 198.082 235.113C198.082 235.113 189.387 227.767 189.387 229.603C189.387 231.44 189.387 231.44 189.387 231.44C189.387 231.44 186.659 227.435 186.32 228.936C185.977 230.437 187.17 231.775 187.17 231.775C187.17 231.775 181.374 224.595 181.035 226.266C180.693 227.936 182.059 228.102 182.059 228.102C182.059 228.102 177.967 223.928 179.503 227.269C181.038 230.606 185.811 237.119 196.038 237.285C206.265 237.454 207.801 235.282 207.801 235.282Z" fill="#288453"/>
<path d="M165.976 225.062C165.976 225.062 165.931 222.005 164.928 221.87C163.925 221.731 164.517 222.689 164.517 222.689C164.517 222.689 163.469 218.127 162.601 218.902C161.733 219.677 162.462 221.23 162.462 221.23C162.462 221.23 162.051 219.497 161.594 219.632C161.138 219.77 161.183 220.5 161.183 220.5C161.183 220.5 159.997 216.305 158.904 216.806C157.811 217.308 159.132 218.812 159.132 218.812C159.132 218.812 158.492 216.99 157.399 217.626C156.306 218.266 157.216 221.046 157.216 221.046C157.216 221.046 155.846 215.298 154.297 215.392C152.747 215.482 154.982 219.587 154.982 219.587L165.976 225.062Z" fill="#288453"/>
<path d="M270.643 201.823C270.643 201.823 262.387 207.972 260.716 232.801L259.904 232.165C259.904 232.165 260.028 212.025 269.193 201.262L270.643 201.823Z" fill="#7A462F"/>
<path d="M263.307 195.59C263.857 193.657 265.635 193.172 269.958 196.382C274.281 199.592 279.504 203.759 279.663 207.211C279.818 210.659 275.398 208.795 270.757 205.091C266.109 201.387 262.757 197.527 263.307 195.59Z" fill="#F5894E"/>
<path d="M263.625 195.185C264.175 193.252 265.953 192.768 270.276 195.977C274.599 199.187 279.822 203.354 279.981 206.806C280.136 210.254 275.716 208.39 271.075 204.686C266.434 200.982 263.075 197.119 263.625 195.185Z" fill="#F7BC4B"/>
<path d="M269.66 199.619C269.802 199.118 270.262 198.993 271.379 199.823C272.496 200.653 273.845 201.729 273.887 202.621C273.928 203.514 272.787 203.029 271.587 202.075C270.383 201.117 269.519 200.121 269.66 199.619Z" fill="#EE5D4F"/>
<path d="M266.316 207.035C266.316 207.035 268.312 202.289 263.473 201.774C258.631 201.259 255.346 205.98 255.346 205.98C255.346 205.98 261.166 207.754 263.079 207.612C264.988 207.47 266.316 207.035 266.316 207.035Z" fill="#288453"/>
<path d="M265.96 207.903C265.96 207.903 270.034 210.438 269.491 214.273C268.948 218.106 268.132 218.206 268.132 218.206C268.132 218.206 264.58 211.655 265.96 207.903Z" fill="#288453"/>
<path d="M238.084 234.913C238.084 234.913 240.273 226.429 236.991 221.231C233.709 216.033 232.886 230.808 234.255 233.544C234.255 233.544 230.973 221.778 227.141 225.333C223.309 228.892 228.234 235.183 228.234 235.183C228.234 235.183 225.225 229.162 223.309 232.174C221.393 235.183 223.036 241.204 229.057 238.469C235.071 235.736 238.084 234.913 238.084 234.913Z" fill="#33A86D"/>
<path d="M240.18 235.28C240.18 235.28 241.823 220.228 244.285 224.334C246.747 228.439 241.549 237.742 240.18 235.28Z" fill="#33A86D"/>
<path d="M221.573 231.175C221.573 231.175 217.194 233.091 218.291 228.985C219.384 224.88 224.582 228.985 221.573 231.175Z" fill="#33A86D"/>
<path d="M252.312 221.415C254.865 221.504 255.363 233.824 251.192 233.824C247.021 233.824 249.756 221.325 252.312 221.415Z" fill="#33A86D"/>
<path d="M246.886 233.682C246.886 233.682 252.084 224.105 247.159 226.841C242.234 229.577 242.507 238.334 246.886 233.682Z" fill="#33A86D"/>
<path d="M256.051 215.761C256.051 215.761 254.135 220.686 251.399 218.496C248.664 216.307 251.399 212.202 253.589 213.298C255.778 214.391 256.051 215.761 256.051 215.761Z" fill="#288453"/>
<path d="M254.135 205.634C254.135 205.634 250.853 208.916 248.937 205.634C247.021 202.352 250.03 201.255 252.496 202.352C254.958 203.444 254.135 205.634 254.135 205.634Z" fill="#288453"/>
<path d="M247.021 213.844C244.831 211.655 247.294 208.646 250.03 209.739C252.769 210.836 249.21 216.034 247.021 213.844Z" fill="#288453"/>
<path d="M247.567 213.845C247.567 213.845 248.114 216.58 245.924 215.761C243.739 214.937 244.831 212.475 247.567 213.845Z" fill="#288453"/>
<path d="M250.67 218.953C250.58 222.145 247.84 221.688 247.567 219.136C247.294 216.58 250.763 215.76 250.67 218.953Z" fill="#288453"/>
<path d="M256.507 187.072C255.961 188.988 252.312 190.264 253.315 186.342C254.318 182.42 257.054 185.159 256.507 187.072Z" fill="#288453"/>
<path d="M250.486 181.963C253.222 181.963 254.954 186.069 249.483 185.066C244.012 184.063 247.75 181.963 250.486 181.963Z" fill="#288453"/>
<path d="M249.393 166.642C251.493 166.002 255.871 168.741 252.402 169.471C248.937 170.197 247.294 167.278 249.393 166.642Z" fill="#288453"/>
<path d="M253.405 171.567C255.138 171.384 257.6 174.303 253.405 174.213C249.21 174.123 251.672 171.75 253.405 171.567Z" fill="#288453"/>
<path d="M253.588 176.402C254.958 178.044 253.678 182.15 251.216 179.321C248.753 176.492 252.222 174.759 253.588 176.402Z" fill="#288453"/>
<path d="M276.574 218.132C276.574 218.132 273.382 227.346 262.162 229.168L262.436 227.892C262.436 227.892 272.469 225.156 275.388 217.769L276.574 218.132Z" fill="#7A462F"/>
<path d="M275.895 220.05C272.295 217.972 270.029 215.158 270.833 213.765C271.637 212.373 275.207 212.928 278.807 215.006C282.406 217.085 284.672 219.898 283.868 221.291C283.064 222.684 279.494 222.128 275.895 220.05Z" fill="#F5894E"/>
<path d="M275.988 219.321C272.388 217.243 270.122 214.429 270.926 213.037C271.73 211.644 275.3 212.199 278.9 214.278C282.499 216.356 284.765 219.17 283.961 220.562C283.157 221.955 279.587 221.4 275.988 219.321Z" fill="#F7BC4B"/>
<path d="M276.923 217.701C275.636 216.958 274.826 215.952 275.114 215.454C275.401 214.957 276.677 215.155 277.964 215.898C279.251 216.641 280.061 217.647 279.774 218.145C279.487 218.643 278.21 218.444 276.923 217.701Z" fill="#EE5D4F"/>
<path d="M273.382 222.143C273.382 222.143 276.941 221.78 277.304 225.152C277.667 228.528 275.025 228.985 275.025 228.985C275.025 228.985 267.911 225.152 273.382 222.143Z" fill="#288453"/>
<path d="M269.643 224.243C269.643 224.243 269.097 221.871 267.181 222.6C265.265 223.33 265.905 224.423 265.905 224.423C265.905 224.423 268.274 226.156 269.643 224.243Z" fill="#288453"/>
<path d="M259.427 228.982C259.427 228.982 261.564 222.418 263.895 222.418C266.226 222.418 265.061 231.313 265.061 231.313C265.061 231.313 266.257 231.23 270.92 231.815C275.582 232.399 275.457 235.104 274.582 235.979C273.707 236.854 276.623 234.813 283.616 235.688C290.613 236.563 282.741 239.769 272.832 239.479C262.923 239.188 271.279 236.176 271.279 236.176C271.279 236.176 257.359 235.775 254.045 233.551C252.523 232.524 257.134 230.175 259.427 228.982Z" fill="#33A86D"/>
<path d="M251.51 195.991C251.51 195.991 247.433 192.629 246.115 195.873C244.797 199.117 249.186 201.365 250.563 199.342C251.939 197.319 251.51 195.991 251.51 195.991Z" fill="#33A86D"/>
<path d="M253.001 209.181C253.001 209.181 248.532 207.919 248.463 211.72C248.394 215.521 251.555 215.006 253.17 212.847C254.789 210.693 253.001 209.181 253.001 209.181Z" fill="#33A86D"/>
<path d="M244.565 189.893C243.725 192.871 247.343 194.296 249.196 192.006C251.05 189.717 245.406 186.915 244.565 189.893Z" fill="#33A86D"/>
<path d="M245.451 205.771C245.451 205.771 244.593 203.115 243.082 204.899C241.574 206.688 243.732 208.303 245.451 205.771Z" fill="#33A86D"/>
<path d="M246.623 199.252C244.984 196.509 242.819 198.245 243.829 200.608C244.839 202.97 248.259 201.994 246.623 199.252Z" fill="#33A86D"/>
<path d="M171.057 207.483C171.057 207.483 166.979 204.121 165.661 207.365C164.344 210.609 168.733 212.858 170.109 210.834C171.486 208.811 171.057 207.483 171.057 207.483Z" fill="#33A86D"/>
<path d="M172.551 220.674C172.551 220.674 168.082 219.411 168.013 223.212C167.944 227.013 171.105 226.498 172.72 224.34C174.336 222.185 172.551 220.674 172.551 220.674Z" fill="#33A86D"/>
<path d="M164.112 201.386C163.272 204.363 166.889 205.788 168.743 203.499C170.597 201.209 164.952 198.408 164.112 201.386Z" fill="#33A86D"/>
<path d="M165.001 217.264C165.001 217.264 164.143 214.607 162.632 216.392C161.124 218.18 163.278 219.795 165.001 217.264Z" fill="#33A86D"/>
<path d="M166.17 210.744C164.531 208.002 162.366 209.738 163.375 212.1C164.382 214.462 167.809 213.487 166.17 210.744Z" fill="#33A86D"/>
<path d="M184.632 121.261C184.632 127.282 179.523 131.84 174.052 134.396" stroke="#34283A" stroke-width="8" stroke-miterlimit="10"/>
<path d="M169.269 128.6L182.477 122.72L168.94 135.908L185.251 130.561L172.693 138.225L190.47 131.453" stroke="#4B3355" stroke-width="5" stroke-miterlimit="10"/>
<path d="M132.255 148.279C132.117 151.772 131.723 153.214 135.008 155.158C138.291 157.098 142.389 156.14 144.16 153.017C145.931 149.894 144.706 145.789 141.424 143.849C138.138 141.905 132.394 144.782 132.255 148.279Z" fill="#34283A"/>
<path d="M134.251 214.037C134.251 214.037 136.084 215.759 133.895 216.586C131.861 217.353 127.901 220.39 122.599 222.42C118.3 224.066 117.93 224.305 117.086 223.541C116.284 222.814 117.214 220.549 120.413 218.339C124.155 215.752 126.68 213.303 128.022 213.106C129.44 212.895 134.251 214.037 134.251 214.037Z" fill="#34283A"/>
<path d="M178.7 131.02C180.25 132.39 180.07 131.75 182.533 133.939C186.302 137.291 168.121 145.159 162.649 147.895C157.178 150.63 150.79 152.09 147.324 151.36C143.859 150.63 143.859 145.159 137.474 145.339C131.09 145.519 146.138 132.57 153.436 129.651C160.733 126.732 173.319 122.72 174.599 122.72C175.875 122.72 177.151 129.651 178.7 131.02Z" fill="#34283A"/>
<path d="M140.49 209.353C140.49 209.353 134.383 210.802 133.431 210.719C132.484 210.64 130.668 207.596 130.668 207.596C130.668 207.596 129.534 178.181 128.358 170.652C127.23 163.441 127.836 152.795 127.943 151.872C128.05 150.952 130.945 149.686 135.316 148.59C139.563 147.525 139.65 155.669 141.576 155.497C143.506 155.324 144.336 154.857 145.194 157.316C146.066 159.813 143.859 164.741 142.936 176.749C141.881 190.542 140.49 209.353 140.49 209.353Z" fill="#4B3355"/>
<path d="M160.502 110.436C160.502 110.436 157.624 108.672 159.111 102.81C160.602 96.9473 162.542 94.101 162.542 94.101" stroke="#4B3355" stroke-width="3" stroke-miterlimit="10"/>
<path d="M167.076 97.8396C167.076 97.8396 165.005 103.716 164.652 105.241C164.296 106.763 163.237 113.075 163.237 113.075" stroke="#34283A" stroke-width="3" stroke-miterlimit="10"/>
<path d="M165.593 94.8964C165.593 94.8964 158.593 102.64 166.402 111.757" stroke="#665070" stroke-width="5" stroke-miterlimit="10"/>
<path d="M163.887 99.6625C163.887 99.6625 167.557 100.762 167.775 104.933C167.993 109.101 163.4 111.695 161.802 110.865" stroke="#34283A" stroke-width="3" stroke-miterlimit="10"/>
<path d="M161.781 110.038C161.781 110.038 155.68 100.97 166.115 96.8091" stroke="#4B3355" stroke-width="3" stroke-miterlimit="10"/>
<path d="M167.861 109.059C167.861 109.059 164.935 106.566 161.667 107.748C158.399 108.931 158.523 111.636 158.523 111.636" stroke="#34283A" stroke-width="3" stroke-miterlimit="10"/>
<path d="M165.963 110.505C163.275 110.505 161.096 107.732 161.096 104.311C161.096 100.89 163.275 98.1163 165.963 98.1163C168.65 98.1163 170.829 100.89 170.829 104.311C170.829 107.732 168.65 110.505 165.963 110.505Z" fill="#34283A"/>
<path d="M167.225 110.758C164.816 110.758 162.864 107.984 162.864 104.563C162.864 101.142 164.816 98.369 167.225 98.369C169.634 98.369 171.586 101.142 171.586 104.563C171.586 107.984 169.634 110.758 167.225 110.758Z" fill="#34283A"/>
<path d="M167.301 106.331C166.797 106.331 166.388 105.501 166.388 104.477C166.388 103.453 166.797 102.623 167.301 102.623C167.805 102.623 168.214 103.453 168.214 104.477C168.214 105.501 167.805 106.331 167.301 106.331Z" fill="#856792"/>
<path d="M146.903 132.407C148.625 132.556 144.852 139.605 143.022 140.749C141.189 141.894 139.311 140.974 140.954 138.37C142.593 135.762 145.184 132.259 146.903 132.407Z" fill="#665070"/>
<path d="M133.615 143.07C134.168 143.983 135.334 143.233 137.371 141.531C139.408 139.826 145.236 132.525 143.756 131.387C142.275 130.249 136.821 137.488 135.953 138.425C135.088 139.359 133.065 142.154 133.615 143.07Z" fill="#665070"/>
<path d="M137.305 126.576C136.787 125.151 132.059 129.485 131.149 130.523C130.24 131.56 128.911 134.196 129.427 135.475C129.939 136.755 131.585 134.251 134.321 131.425C137.06 128.603 137.824 128.001 137.305 126.576Z" fill="#665070"/>
<path d="M138.834 129.402C139.771 131.36 132.315 138.315 130.699 138.754C129.084 139.193 127.981 137.367 130.551 134.984C133.12 132.601 137.9 127.445 138.834 129.402Z" fill="#665070"/>
<path d="M140.639 132.899C140.639 132.899 136.382 138.457 133.138 141.358C130.862 143.395 130.212 139.722 134.047 135.427C137.879 131.135 141.483 130.37 140.639 132.899Z" fill="#665070"/>
<path d="M136.717 136.164C136.717 136.164 138.657 134.601 139.795 135.452C140.933 136.302 138.284 138.104 140.981 138.056C143.679 138.004 151.44 131.747 157.922 127.431C164.403 123.115 173.298 118.18 172.067 117.139C170.836 116.097 168.041 116.433 167.803 113.829C167.564 111.224 170.213 108.949 168.079 106.822C165.945 104.695 159.554 105.411 154.114 108.496C148.673 111.581 133.725 125.235 132.307 128.078C130.889 130.921 132.076 133.525 133.169 134.992C134.261 136.458 135.818 136.496 136.717 136.164Z" fill="#493253"/>
<path d="M168.439 100.05C168.439 100.05 167.471 99.023 165.039 98.7671C162.608 98.5077 161.66 98.7152 161.169 94.6653C160.678 90.6153 161.46 77.4728 163.203 71.1989C164.946 64.9251 168.564 58.3919 171.348 58.2259C174.132 58.0599 172.206 64.6208 173.316 67.2008C174.426 69.7809 177.231 66.5403 177.096 73.5992C176.961 80.6581 176.349 99.5107 174.502 103.772C173.482 106.123 172.185 106.756 170.898 105.85C169.608 104.944 170.957 100.936 168.439 100.05Z" fill="#4B3355"/>
<path d="M214.732 125.82C214.732 125.82 203.056 140.415 193.389 143.334Z" fill="#665070"/>
<path d="M193.389 134.76L189.374 146.07L204.515 129.835L194.551 147.851L214.002 126.733L211.083 135.673" stroke="#34283A" stroke-width="5" stroke-miterlimit="10"/>
<path d="M213.819 125.089C213.819 125.089 218.014 125.089 218.744 132.57C219.474 140.051 211.263 149.171 211.263 149.171" stroke="#34283A" stroke-width="8" stroke-miterlimit="10"/>
<path d="M178.023 175.049C173.284 174.603 169.77 170.765 170.174 166.476C170.578 162.188 174.748 159.073 179.487 159.52C184.226 159.966 187.74 163.805 187.336 168.093C186.932 172.381 182.763 175.496 178.023 175.049Z" fill="#34283A"/>
<path d="M178.338 232.267C178.338 232.267 179.707 234.183 178.064 235.276C176.422 236.369 172.866 240.747 167.118 244.853C161.37 248.958 160.823 249.504 159.457 248.685C158.088 247.865 159.457 243.76 164.109 239.381C168.761 235.003 171.497 231.444 172.866 231.171C174.232 230.901 178.338 232.267 178.338 232.267Z" fill="#493253"/>
<path d="M185.759 141.767C185.759 141.767 187.679 138.958 189.996 137.578C192.345 136.174 193.586 137.149 196.308 138.318C199.092 139.515 204.678 138.488 209.689 135.392C214.856 132.2 215.714 129.454 221.483 132.574C227.518 135.839 221.791 146.027 216.779 151.983C211.885 157.797 195.9 169.857 190.401 169.103C185.123 168.38 185.676 167.311 181.858 163.756C178.171 160.322 176.076 160.249 174.305 160.83C172.555 161.401 170.033 158.983 170.566 157.219C171.095 155.449 185.759 141.767 185.759 141.767Z" fill="#493253"/>
<path d="M172.316 229.804C172.316 229.804 178.369 231.72 179.316 231.72C180.264 231.72 182.156 228.881 182.156 228.881C182.156 228.881 184.552 202.63 186.13 193.797C187.707 184.964 188.547 174.405 188.461 173.16C188.374 171.915 183.214 167.91 178.797 165.07C174.381 162.231 173.703 168.273 171.496 167.958C169.29 167.644 168.339 166.993 167.391 170.148C166.443 173.302 168.941 185.67 170.044 200.106C171.223 215.576 172.316 229.804 172.316 229.804Z" fill="#493253"/>
<path d="M178.749 228.438C179.697 228.438 181.077 227.207 181.077 227.207C181.077 227.207 182.92 203.201 184.497 194.368C186.074 185.535 187.001 178.057 186.915 176.809C186.828 175.56 183.671 174.54 179.254 171.701C174.837 168.861 174.779 183.902 175.878 198.335C177.054 213.805 177.801 228.438 178.749 228.438Z" fill="#665070"/>
<path d="M175.152 73.9999C171.924 73.9999 169.307 70.169 169.307 65.4434C169.307 60.7178 171.924 56.887 175.152 56.887C178.38 56.887 180.997 60.7178 180.997 65.4434C180.997 70.169 178.38 73.9999 175.152 73.9999Z" fill="#34283A"/>
<path d="M178.645 74.3492C175.753 74.3492 173.409 70.5183 173.409 65.7927C173.409 61.0671 175.753 57.2362 178.645 57.2362C181.537 57.2362 183.881 61.0671 183.881 65.7927C183.881 70.5183 181.537 74.3492 178.645 74.3492Z" fill="#BB83C3"/>
<path d="M178.735 68.2379C178.129 68.2379 177.639 67.0905 177.639 65.6751C177.639 64.2597 178.129 63.1123 178.735 63.1123C179.34 63.1123 179.831 64.2597 179.831 65.6751C179.831 67.0905 179.34 68.2379 178.735 68.2379Z" fill="#FFACFF"/>
<path d="M233.156 68.9022C233.156 68.9022 227.134 75.8332 232.063 80.395" stroke="#34283A" stroke-width="3" stroke-miterlimit="10"/>
<path d="M231.243 71.8456C231.243 71.8456 225.222 78.7765 230.15 83.3384" stroke="#665070" stroke-width="3" stroke-miterlimit="10"/>
<path d="M231.423 71.7072C231.423 71.7072 231.696 76.9745 232.312 83.0651" stroke="#665070" stroke-width="3" stroke-miterlimit="10"/>
<path d="M235.352 78.0162C232.527 78.0162 230.236 74.1853 230.236 69.4597C230.236 64.7341 232.527 60.9032 235.352 60.9032C238.177 60.9032 240.467 64.7341 240.467 69.4597C240.467 74.1853 238.177 78.0162 235.352 78.0162Z" fill="#34283A"/>
<path d="M238.406 78.3659C235.875 78.3659 233.823 74.535 233.823 69.8094C233.823 65.0838 235.875 61.2529 238.406 61.2529C240.937 61.2529 242.988 65.0838 242.988 69.8094C242.988 74.535 240.937 78.3659 238.406 78.3659Z" fill="#BB83C3"/>
<path d="M238.489 72.2508C237.958 72.2508 237.527 71.1034 237.527 69.688C237.527 68.2726 237.958 67.1252 238.489 67.1252C239.02 67.1252 239.45 68.2726 239.45 69.688C239.45 71.1034 239.02 72.2508 238.489 72.2508Z" fill="#FFACFF"/>
<path d="M204.38 55.95C204.38 55.95 206.753 61.2866 208.029 58.3675C209.305 55.4485 208.029 40.262 208.029 40.262L203.834 41.175C204.56 43.9107 204.38 55.95 204.38 55.95Z" fill="#4B3355"/>
<path d="M215.095 45.0977C215.095 45.0977 218.56 53.6714 215.278 57.1369C211.996 60.6024 210.17 54.0346 210.17 54.0346" stroke="#34283A" stroke-miterlimit="10"/>
<path d="M215.825 44.0012C215.825 44.0012 217.101 46.5536 216.371 49.1095C215.641 51.6654 211.079 53.3047 211.079 53.3047" stroke="#34283A" stroke-miterlimit="10"/>
<path d="M217.284 44.368C217.284 44.368 220.02 48.9299 217.467 51.6656C214.915 54.4013 211.266 52.3954 211.266 52.3954" stroke="#34283A" stroke-miterlimit="10"/>
<path d="M205.428 43.181C205.428 43.181 205.975 53.5809 206.705 54.8571C207.434 56.1333 210.716 55.7702 210.716 55.7702L211.446 41.9048L205.428 43.181Z" fill="#34283A"/>
<path d="M203.938 106.5L206.113 127.189" stroke="#34283A" stroke-width="8" stroke-miterlimit="10"/>
<path d="M190.813 105.024C190.813 105.024 194.091 121.144 195.364 125.982" stroke="#4B3355" stroke-width="3" stroke-miterlimit="10"/>
<path d="M193.389 104.889L195.565 125.578" stroke="#665070" stroke-width="5" stroke-miterlimit="10"/>
<path d="M196.398 104.889L198.573 125.578" stroke="#665070" stroke-width="5" stroke-miterlimit="10"/>
<path d="M206.625 106.23L206.884 126.92" stroke="#665070" stroke-width="5" stroke-miterlimit="10"/>
<path d="M201.531 105.29L203.71 125.979" stroke="#665070" stroke-width="5" stroke-miterlimit="10"/>
<path d="M198.48 105.829L200.656 126.519" stroke="#34283A" stroke-width="8" stroke-miterlimit="10"/>
<path d="M191.93 108.309C191.93 108.309 185.178 117.979 191.2 118.526C197.221 119.072 200.14 109.406 200.14 109.406" stroke="#4B3355" stroke-width="3" stroke-miterlimit="10"/>
<path d="M194.482 109.032C194.482 109.032 194.482 119.535 198.314 117.543C202.146 115.551 200.32 108.126 200.32 108.126" stroke="#34283A" stroke-width="3" stroke-miterlimit="10"/>
<path d="M209.99 55.95C209.99 55.95 212.363 61.2866 213.639 58.3675C214.915 55.4485 213.639 40.262 213.639 40.262L209.444 41.175C210.17 43.9107 209.99 55.95 209.99 55.95Z" fill="#665070"/>
<path d="M208.067 117.63C209.534 119.366 217.706 119.148 219.294 117.522C221.12 115.651 222.223 112.929 223.489 107.672C225.862 97.8224 225.495 85.963 226.408 79.7618C226.408 79.7618 231.15 76.8428 232.793 74.8368C234.435 72.8308 235.528 68.6356 235.712 63.8905C235.895 59.1488 234.435 58.419 230.787 57.6893C229.759 57.4852 227.428 57.0321 224.278 56.5099C216.25 55.1783 202.907 53.3868 192.293 54.0405C177.514 54.9535 177.514 55.3167 176.238 61.7012C174.962 68.0857 174.595 69.7285 175.508 71.0047C176.421 72.2809 177.698 73.7404 177.698 73.7404C177.698 73.7404 173.136 109.132 182.439 114.787C182.439 114.787 183.716 116.429 186.818 113.694C189.92 110.958 191.56 110.775 195.208 110.958C198.857 111.141 203.782 111.871 206.701 115.883C207.206 116.568 207.659 117.145 208.067 117.63Z" fill="#856792"/>
<path d="M204.332 111.318C204.332 111.318 191.196 107.213 185.451 111.591C179.703 115.97 179.157 109.129 178.61 100.098C178.064 91.0682 190.376 87.5093 195.301 82.8576C200.23 78.2058 207.617 109.402 204.332 111.318Z" fill="#665070"/>
<path d="M186.008 118.951C186.008 118.951 191.684 121.22 195.212 121.262C198.971 121.307 205.362 122.911 208.894 121.078C212.636 119.138 215.091 118.699 216.61 120.449C218.163 122.24 217.288 125.274 215.811 128.293C214.517 130.935 205.653 135.058 202.744 135.929C199.971 136.759 190.546 134.909 185.119 132.336C180.219 130.012 178.908 127.899 178.265 124.06C177.628 120.272 178.23 115.849 180.073 115.603C181.99 115.348 183.529 116.306 183.957 116.738C184.386 117.174 186.008 118.951 186.008 118.951Z" fill="#856792"/>
<path d="M181.159 118.993C182.052 120.442 181.844 121.895 183.667 125.343C185.559 128.919 195.142 133.744 199.389 133.073C203.972 132.35 199.009 137.645 187.219 132.595C177.625 128.487 178.517 123.51 178.517 121.12C178.517 118.73 180.284 117.568 181.159 118.993Z" fill="#665070"/>
<path d="M177.791 60.1454C177.791 60.1454 177.518 56.4067 183.411 55.8256C187.426 55.4314 190.999 55.2792 193.413 55.2308C193.807 55.2239 193.88 55.7911 193.493 55.881C189.446 56.8252 182.723 58.6893 181.211 60.9616C180.06 62.6874 178.908 65.3194 178.071 67.436C177.829 68.0517 176.912 67.858 176.937 67.1974L177.791 60.1454Z" fill="#665070"/>
<path d="M202.692 66.3503L201.233 82.405L181.346 81.2187V65.4373L202.692 66.3503Z" fill="#4B3355"/>
<path d="M200.769 66.804L207.244 62.3943L208.437 62.792L204.688 86.9017L203.453 86.3967L199.406 82.4055L200.769 66.804Z" fill="#665070"/>
<path d="M201.226 67.935L206.766 64.1617L207.787 64.5007L204.577 85.1344L203.522 84.7056L200.057 81.2851L201.226 67.935Z" fill="#4B3355"/>
<path d="M202.035 68.9724L206.721 65.7802L207.586 66.0672L204.871 83.5156L203.979 83.1525L201.049 80.2611L202.035 68.9724Z" fill="#34283A"/>
<path d="M209.668 62.8859L207.244 62.3948L203.647 86.5321L205.919 86.9921L209.668 62.8859Z" fill="#BB83C3"/>
<path d="M196.581 71.0923L196.716 68.8131L194.343 68.6748V66.0774" stroke="#34283A" stroke-width="2" stroke-miterlimit="10"/>
<path d="M198.175 74.6061L199.362 74.651L198.95 78.8013L199.545 78.9362" stroke="#34283A" stroke-width="2" stroke-miterlimit="10"/>
<path d="M194.527 77.7985L194.437 79.7145L192.794 79.6211L192.704 81.8554" stroke="#34283A" stroke-width="2" stroke-miterlimit="10"/>
<path d="M191.289 73.008L188.187 72.9181" stroke="#34283A" stroke-width="2" stroke-miterlimit="10"/>
<path d="M192.057 77.8879L196.781 78.0297C197.553 78.0539 198.227 77.4452 198.293 76.6705L198.452 74.789L198.666 72.2919C198.736 71.4826 198.151 70.7978 197.359 70.7667L192.493 70.5799C191.69 70.5488 191.002 71.1921 190.957 72.0083L190.722 76.4284C190.681 77.2135 191.279 77.8637 192.057 77.8879Z" fill="#34283A"/>
<path d="M191.995 76.9299L196.335 77.0647C197.041 77.0855 197.664 76.5287 197.722 75.8127L198.054 71.7766C198.117 71.0296 197.577 70.3966 196.847 70.369L192.375 70.1926C191.639 70.1649 191.006 70.7529 190.968 71.5068L190.764 75.5845C190.726 76.3073 191.276 76.9091 191.995 76.9299Z" fill="#BB83C3"/>
<path d="M193.399 75.0275L195.194 75.0863C195.488 75.0966 195.744 74.8649 195.765 74.564L195.886 72.9039C195.907 72.5996 195.685 72.3471 195.388 72.3333L193.569 72.2675C193.271 72.2572 193.012 72.4958 192.994 72.8001L192.894 74.4672C192.88 74.7681 193.105 75.0205 193.399 75.0275Z" fill="#9E54C7"/>
<path d="M188.052 69.7263L187.685 78.6632" stroke="#34283A" stroke-width="7" stroke-miterlimit="10"/>
<path d="M184.403 69.7263L184.037 78.6632" stroke="#34283A" stroke-width="7" stroke-miterlimit="10"/>
<path d="M207.244 62.3933L206.569 62.8844L203.239 86.1882L203.785 86.3266L207.244 62.3933Z" fill="#665070"/>
<path d="M142.946 118.622C142.946 118.622 144.917 121.209 148.794 119.414C152.726 117.598 162.836 103.148 166.789 98.8114C170.901 94.3014 174.488 89.8192 171.531 85.3784C168.816 81.3042 166.426 86.6788 164.015 88.3908C161.636 90.082 141.628 109.889 140.888 113.144C140.175 116.291 142.946 118.622 142.946 118.622Z" fill="#F5894E"/>
<path d="M142.946 118.622C142.946 118.622 144.917 121.209 148.794 119.414C152.726 117.598 159.467 107.171 163.424 102.834L159.318 103.245L152.678 99.3163C146.944 105.182 141.285 111.4 140.891 113.147C140.175 116.291 142.946 118.622 142.946 118.622Z" fill="#CC6D3D"/>
<path d="M127.164 86.5989C127.164 86.5989 151.063 109.951 152.339 112.687C153.615 115.423 152.156 118.158 149.057 119.255C145.954 120.348 145.591 122.174 137.018 113.6C128.444 105.026 108.377 90.7976 109.47 86.7822C110.563 82.7668 115.308 76.3823 127.164 86.5989Z" fill="#F5894E"/>
<path d="M167.802 91.7526C167.802 91.7526 173.139 92.2991 175.19 90.7946C177.241 89.2901 178.337 87.6473 179.022 85.7313C179.707 83.8152 177.652 73.4188 174.509 74.1001C171.361 74.7849 170.403 75.4697 168.899 79.2984C167.391 83.1339 164.655 91.6143 167.802 91.7526Z" fill="#F5894E"/>
<path d="M170.811 82.9782C170.811 82.9782 170.811 88.0761 172.568 88.0761C174.325 88.0761 177.49 87.7233 179.074 85.9664C180.658 84.2094 176.788 77.5275 174.854 78.0532C172.921 78.5823 170.811 82.9782 170.811 82.9782Z" fill="#CC6D3D"/>
<path d="M178.507 84.0226C178.303 84.3996 177.137 86.2118 177.445 86.6234C177.905 87.239 178.984 87.9584 180.627 85.7691C182.27 83.5799 182.646 81.612 180.73 82.0062C179.568 82.2414 178.714 83.6456 178.507 84.0226Z" fill="#F5894E"/>
<path d="M178.036 81.9784C178.036 81.9784 175.612 84.3406 176.345 85.0738C177.476 86.2048 177.97 85.392 179.056 84.4686C180.779 83.0021 181.225 81.7882 180.972 81.0238C180.717 80.256 179.952 80.1281 178.036 81.9784Z" fill="#CC6D3D"/>
<path d="M177.791 81.6949C177.791 81.6949 175.19 84.2266 175.978 85.0117C177.192 86.2257 177.721 85.3541 178.887 84.3615C180.734 82.7879 181.215 81.4874 180.938 80.6678C180.661 79.8481 179.841 79.7132 177.791 81.6949Z" fill="#F5894E"/>
<path d="M180.046 77.797C180.592 78.8899 180.388 79.5747 179.157 80.9443C177.926 82.3139 177.037 83.68 176.214 83.4068C175.39 83.1336 174.844 82.4488 176.214 80.1246C177.583 77.8005 179.499 76.7006 180.046 77.797Z" fill="#CC6D3D"/>
<path d="M179.98 77.6584C180.526 78.7513 180.322 79.4361 179.091 80.8057C177.86 82.1752 176.971 83.5414 176.148 83.2682C175.328 82.9949 174.778 82.3101 176.148 79.986C177.517 77.6584 179.43 76.5655 179.98 77.6584Z" fill="#F5894E"/>
<path d="M171.223 75.4694C171.223 75.4694 173.388 73.0588 175.19 72.4605C176.833 71.914 179.703 71.2293 181.346 71.0909C182.989 70.9526 183.535 73.0069 182.577 73.1418C181.619 73.2802 178.337 75.3311 177.106 75.4694C175.874 75.6078 174.097 78.2052 172.727 77.5204C171.358 76.839 171.223 75.4694 171.223 75.4694Z" fill="#F5894E"/>
<path d="M172.523 77.5893C172.523 77.5893 174.235 75.4001 176.148 74.6461C177.742 74.0201 179.772 73.2765 180.457 73.7572C181.142 74.238 179.088 75.6733 177.856 76.3581C176.625 77.0429 172.523 77.5893 172.523 77.5893Z" fill="#CC6D3D"/>
<path d="M186.672 72.2117L180.616 72.3846L180.526 77.1367L186.454 77.0882L186.672 72.2117Z" fill="#FFACFF"/>
<path d="M171.015 84.946C171.015 84.946 174.429 84.4756 175.84 81.356C176.912 78.9869 177.403 78.6376 179.022 77.8663C179.828 77.4824 182.218 76.6385 181.35 75.0614C180.433 73.3979 176.044 75.511 174.64 76.1128C172.008 77.2369 165.271 84.6797 171.015 84.946Z" fill="#CC6D3D"/>
<path d="M170.95 85.3231C170.95 85.3231 174.294 84.4135 175.74 81.2177C176.836 78.7933 176.971 78.6169 179.389 77.524C181.007 76.7908 182.169 76.2928 181.35 74.6499C180.481 72.9103 176.151 75.1272 174.713 75.7428C172.018 76.898 165.067 85.0464 170.95 85.3231Z" fill="#F5894E"/>
<path d="M235.802 134.715C235.802 134.715 239.084 133.622 239.496 125.138C239.907 116.654 238.949 112.003 238.949 112.003" stroke="#4B3355" stroke-width="3" stroke-miterlimit="10"/>
<path d="M233.477 115.011C233.477 115.011 233.616 123.769 233.477 125.958C233.339 128.147 232.385 137.039 232.385 137.039" stroke="#34283A" stroke-width="3" stroke-miterlimit="10"/>
<path d="M235.802 111.729C235.802 111.729 240.042 125.138 229.78 133.895" stroke="#665070" stroke-width="5" stroke-miterlimit="10"/>
<path d="M235.94 118.844C235.94 118.844 232.108 118.705 230.604 124.18C229.099 129.652 232.654 135.127 234.436 134.715" stroke="#34283A" stroke-width="3" stroke-miterlimit="10"/>
<path d="M234.709 133.619C234.709 133.619 243.327 124.177 234.709 114.053" stroke="#4B3355" stroke-width="3" stroke-miterlimit="10"/>
<path d="M229.234 129.651C229.234 129.651 232.793 127.601 235.529 130.609C238.264 133.618 237.306 137.177 237.306 137.177" stroke="#34283A" stroke-width="3" stroke-miterlimit="10"/>
<path d="M197.93 146.816C198.12 145.053 190.501 147.968 188.869 149.58C187.236 151.192 188.543 152.63 191.746 151.51C194.949 150.389 197.74 148.584 197.93 146.816Z" fill="#34283A"/>
<path d="M185.507 157.32C184.67 156.618 188.488 155.003 191.034 153.554C193.361 152.233 199.085 148.912 199.974 150.538C200.863 152.163 193.102 155.878 191.967 156.521C190.833 157.164 186.344 158.022 185.507 157.32Z" fill="#34283A"/>
<path d="M202.346 158.548C203.899 159.202 198.711 163.677 197.487 164.521C196.263 165.365 193.216 166.499 191.825 165.863C190.432 165.226 193.351 163.753 196.709 161.194C200.067 158.627 200.794 157.894 202.346 158.548Z" fill="#34283A"/>
<path d="M200.686 156.051C199.777 155.428 197.916 155.926 195.921 157.365C192.687 159.696 189.284 161.768 188.848 162.591C188.035 164.127 189.823 165.617 192.967 163.518C196.114 161.425 202.651 157.4 200.686 156.051Z" fill="#34283A"/>
<path d="M198.598 153.478C198.598 153.478 191.67 156.386 187.814 159.056C185.109 160.931 187.682 162.37 193.195 159.388C198.708 156.411 201.555 153.146 198.598 153.478Z" fill="#34283A"/>
<path d="M237.32 117.744C237.32 117.744 238.731 116.637 241.954 116.637C245.177 116.637 246.388 117.007 247.598 112.21C248.809 107.416 249.615 91.5555 248.204 83.8083C246.793 76.0611 242.964 67.7641 239.336 67.2107C235.708 66.6573 237.32 74.7711 235.507 77.7247C233.695 80.6749 230.468 76.4347 229.662 84.9185C228.856 93.4024 227.03 116.091 228.856 121.434C229.863 124.384 231.478 125.308 233.29 124.384C235.103 123.461 233.896 118.48 237.32 117.744Z" fill="#4B3355"/>
<path d="M233.291 80.1217C235.179 79.7309 234.65 80.976 236.466 78.2091C238.281 75.4423 239.941 78.6484 240.346 84.9187C240.751 91.1891 240.751 111.107 238.734 112.584C236.718 114.061 234.1 116.641 233.695 118.671C233.291 120.701 232.689 122.911 231.074 122.174C229.462 121.438 229.057 119.407 229.057 113.69C229.057 107.973 230.25 86.2641 230.669 84.7354C231.274 82.5185 231.402 80.5125 233.291 80.1217Z" fill="#34283A"/>
<path d="M195.115 151.904C195.762 150.935 197.619 151.222 197.294 149.725C196.969 148.231 195.149 148.718 196.405 146.093C197.66 143.468 206.203 140.376 213.334 135.946C220.463 131.515 229.04 124.564 229.51 126.238C229.981 127.912 228.863 130.754 231.312 132.152C233.761 133.549 236.953 132.148 238.087 135.192C239.222 138.235 235.663 144.184 230.205 148.144C224.748 152.104 206.96 160.585 203.54 160.706C200.119 160.827 197.294 158.413 196.343 156.687C195.391 154.961 194.468 152.872 195.115 151.904Z" fill="#856792"/>
<path d="M240.82 132.754C236.94 132.754 233.795 128.751 233.795 123.814C233.795 118.876 236.94 114.873 240.82 114.873C244.699 114.873 247.844 118.876 247.844 123.814C247.844 128.751 244.699 132.754 240.82 132.754Z" fill="#34283A"/>
<path d="M242.642 133.12C239.166 133.12 236.348 129.118 236.348 124.18C236.348 119.242 239.166 115.24 242.642 115.24C246.119 115.24 248.937 119.242 248.937 124.18C248.937 129.118 246.119 133.12 242.642 133.12Z" fill="#4B3355"/>
<path d="M242.753 126.733C242.025 126.733 241.435 125.534 241.435 124.056C241.435 122.577 242.025 121.379 242.753 121.379C243.481 121.379 244.071 122.577 244.071 124.056C244.071 125.534 243.481 126.733 242.753 126.733Z" fill="#856792"/>
<path d="M199.711 151.499C199.711 151.499 203.263 158.115 203.747 158.921C204.231 159.727 200.842 160.373 199.068 158.599C197.294 156.825 195.032 154.563 195.678 153.11C196.325 151.658 199.711 151.499 199.711 151.499Z" fill="#665070"/>
<path d="M222.783 23.8755C222.783 23.8755 224.588 29.3331 221.4 32.5219C218.979 34.9429 215.551 33.0545 215.551 33.0545" stroke="#34283A" stroke-miterlimit="10"/>
<path d="M222.091 24.5668C222.091 24.5668 224.512 33.2132 222.091 35.6342C219.67 38.0552 213.099 37.0176 213.099 37.0176" stroke="#34283A" stroke-miterlimit="10"/>
<path d="M226.069 22.6649C226.069 22.6649 227.798 28.5445 223.302 29.9279C218.806 31.3113 215.693 24.7401 215.693 24.7401" stroke="#554B5A" stroke-miterlimit="10"/>
<path d="M222.61 22.6649C222.61 22.6649 226.415 25.7776 226.761 31.6572C227.106 37.5367 219.498 40.6494 219.498 40.6494" stroke="#34283A" stroke-miterlimit="10"/>
<path d="M188.025 37.5367C188.025 37.5367 187.679 42.7245 188.716 44.4538C189.754 46.1831 190.819 47.7014 195.979 48.2444C202.551 48.9361 206.701 48.9361 210.159 48.5902C212.663 48.3412 222.264 46.8748 222.264 43.7621C222.264 40.6494 223.302 38.2284 221.573 37.1908C221.092 36.9003 218.394 38.1454 214.655 38.2284C204.978 38.4428 188.025 37.5367 188.025 37.5367Z" fill="#4B3355"/>
<path d="M216.385 38.5739C216.039 38.9197 214.382 46.8882 216.782 46.4282C219.11 45.9821 221.607 45.6812 221.742 43.5888C222.05 38.8678 222.869 38.56 220.189 37.8787C217.229 37.1316 216.73 38.228 216.385 38.5739Z" fill="#665070"/>
<path d="M229.182 18.86C229.182 18.86 228.836 9.86776 228.836 7.44676C228.836 5.02577 223.994 2.95063 217.423 1.22135C210.851 -0.507926 207.393 -0.507925 197.017 1.91307C186.641 4.33406 186.295 8.13848 186.295 10.5595C186.295 12.9805 185.258 21.9727 185.95 30.2733C186.641 38.5738 186.524 38.4147 190.287 40.1717C192.739 41.3164 196.668 42.2433 200.866 42.3609C206.587 42.52 214.656 38.9404 214.656 38.9404C214.656 38.9404 216.783 38.0516 218.46 33.7353C221.23 26.5968 222.61 24.743 225.723 24.0513C228.836 23.3596 228.836 22.6644 229.182 18.86Z" fill="#665070"/>
<path d="M218.46 41.3648C216.932 41.3648 215.693 39.4292 215.693 37.0416C215.693 34.6539 216.932 32.7184 218.46 32.7184C219.988 32.7184 221.227 34.6539 221.227 37.0416C221.227 39.4292 219.988 41.3648 218.46 41.3648Z" fill="#34283A"/>
<path d="M219.151 40.8255C217.814 40.8255 216.73 39.1315 216.73 37.0418C216.73 34.9522 217.814 33.2582 219.151 33.2582C220.489 33.2582 221.572 34.9522 221.572 37.0418C221.572 39.1315 220.489 40.8255 219.151 40.8255Z" fill="#BB83C3"/>
<path d="M226.415 6.40894C226.415 6.40894 219.864 6.38819 216.731 9.52164C213.618 12.6343 215.001 14.0178 215.001 20.589C215.001 27.1603 215.001 35.8067 216.039 35.115C217.077 34.4233 218.806 28.5437 221.919 25.431C225.031 22.3183 226.761 23.3559 227.452 22.3183C228.144 21.2807 228.144 7.79236 226.415 6.40894Z" fill="#856792"/>
<path d="M208.537 30.6192C207.451 30.6192 206.569 28.9933 206.569 26.9877C206.569 24.9821 207.451 23.3562 208.537 23.3562C209.624 23.3562 210.505 24.9821 210.505 26.9877C210.505 28.9933 209.624 30.6192 208.537 30.6192Z" fill="#34283A"/>
<path d="M192.282 29.9275C191.195 29.9275 190.314 28.3017 190.314 26.296C190.314 24.2904 191.195 22.6646 192.282 22.6646C193.369 22.6646 194.25 24.2904 194.25 26.296C194.25 28.3017 193.369 29.9275 192.282 29.9275Z" fill="#34283A"/>
<path d="M213.964 8.48442C212.407 9.31447 195.979 6.06343 189.062 7.79271C189.062 7.79271 188.025 5.37171 191.483 4.33414C194.942 3.29658 202.896 0.183872 209.122 0.529728C215.347 0.875584 227.048 4.68 225.031 4.68C223.302 4.68 219.152 5.71757 213.964 8.48442Z" fill="#856792"/>
<path d="M47.2618 222.416C47.2618 222.416 43.4297 213.659 42.0636 217.765C40.694 221.87 43.4332 225.702 43.4332 225.702C43.4332 225.702 38.7814 218.861 37.4118 221.597C36.0422 224.332 41.7904 227.345 41.7904 227.345C41.7904 227.345 33.3065 225.429 37.9583 228.164C42.61 230.9 48.0815 229.257 48.0815 229.257L47.2618 222.416Z" fill="#288453"/>
<path d="M101.716 158.519C101.716 158.519 102.173 211.071 102.173 212.109C102.173 213.147 112.389 228.527 112.389 228.527L113.586 239.314L91.5619 247.397L77.6031 245.529L62.5861 251.699L43.1559 239.473L44.7987 208.004L47.1851 152.912L65.8579 157.408L101.716 158.519Z" fill="#7A462F"/>
<path d="M100.443 155.679L101.716 158.795L92.8345 162.596L77.6168 161.905L76.5793 164.671L67.587 164.326L51.9128 161.12L47.185 152.912L72.4359 152.089L100.443 155.679Z" fill="#D77D5B"/>
<path d="M87.0312 156.609L87.761 158.397L82.6665 160.576L73.9406 160.179L73.3457 161.766L68.189 161.569L59.2037 159.729L56.4922 155.022L70.9697 154.552L87.0312 156.609Z" fill="#B44C29"/>
<path d="M92.8348 162.597L77.6171 161.905L76.5415 164.541L76.998 176.718L75.5385 207.914L77.1468 210.283L77.6171 245.495L91.5932 247.411L90.4519 211.74L90.1337 201.71L92.4094 191.497L92.8348 162.597Z" fill="#A96443"/>
<path d="M51.9131 161.12L47.1853 152.913L43.156 239.473L48.3542 242.756L51.9131 161.12Z" fill="#A96443"/>
<path d="M86.1186 191.22C86.1186 191.22 83.6561 211.197 84.749 208.185C85.8454 205.179 86.1186 191.22 86.1186 191.22Z" fill="#7A462F"/>
<path d="M82.8365 165.499C82.8365 165.499 83.1097 172.613 82.8365 176.172C82.5633 179.731 82.5633 188.211 82.5633 188.211L81.4703 176.445L82.8365 165.499Z" fill="#7A462F"/>
<path d="M89.4941 200.25L88.6744 211.197L85.1155 216.395L85.662 226.248L88.6744 231.72L86.7584 224.606V215.848L89.7673 211.47L89.4941 200.25Z" fill="#7A462F"/>
<path d="M49.9973 163.583L48.9044 170.971L49.1776 183.287L47.8081 192.863L47.5348 183.287V171.794L49.9973 163.583Z" fill="#7A462F"/>
<path d="M54.376 245.402L58.2081 236.921L57.1117 225.975L59.0277 210.104L54.6492 226.248L56.5652 237.195L52.7332 244.582L54.376 245.402Z" fill="#A96443"/>
<path d="M52.4598 221.05L55.199 209.554L54.6491 195.599L57.9347 187.391L55.7454 187.665L52.4598 196.422L53.8294 208.734L52.4598 221.05Z" fill="#A96443"/>
<path d="M96.8368 161.604L98.5799 161.753L99.5276 167.027L97.9228 177.109L99.2682 190.127L96.2765 176.957L97.902 166.761L96.8368 161.604Z" fill="#A96443"/>
<path d="M72.3501 169.127L73.0488 181.432L70.1712 188.325L69.7009 206.272L68.2932 188.792L71.3022 180.509L71.9662 168.065" fill="#A96443"/>
<path d="M81.5568 245.859L79.1877 245.675L80.374 230.9L78.4579 214.756L81.1937 221.597L82.0133 230.9L81.5568 245.859Z" fill="#7A462F"/>
<path d="M96.5186 245.952L95.6954 234.455L100.347 223.786L98.7079 211.743L101.99 223.236L97.065 235.005L98.7079 245.129L96.5186 245.952Z" fill="#A96443"/>
<path d="M113.894 240.477C113.894 240.477 117.453 236.918 116.084 234.729C114.714 232.54 113.075 237.191 113.075 237.191C113.075 237.191 111.159 231.72 110.339 233.632C109.519 235.549 111.159 239.654 111.159 239.654C111.159 239.654 107.6 233.086 106.507 236.372C105.414 239.654 107.326 241.57 107.326 241.57C107.326 241.57 101.578 237.738 101.855 240.75C102.128 243.759 102.54 243.351 102.54 243.351L113.894 240.477Z" fill="#288453"/>
<path d="M98.1577 246.36C98.1577 246.36 102.263 242.255 99.8005 240.066C97.338 237.876 98.1577 241.435 98.1577 241.435C98.1577 241.435 97.0648 233.498 95.1488 235.687C93.2328 237.876 96.2417 241.708 96.2417 241.708C96.2417 241.708 92.1364 237.876 92.1364 240.066C92.1364 242.255 95.6952 244.444 95.6952 244.444C95.6952 244.444 89.1274 241.982 90.7702 244.444C92.4131 246.907 98.1577 246.36 98.1577 246.36Z" fill="#33A86D"/>
<path d="M83.2443 241.207C83.2893 241.846 81.3283 246.132 78.5926 243.942C75.8568 241.753 78.5925 237.648 80.7818 238.744C82.9711 239.837 83.1993 240.567 83.2443 241.207Z" fill="#33A86D"/>
<path d="M80.6919 231.083C80.3737 231.63 77.4097 234.366 75.4937 231.083C73.5776 227.801 76.5866 226.705 79.0525 227.801C81.5116 228.894 81.0101 230.534 80.6919 231.083Z" fill="#33A86D"/>
<path d="M74.214 239.291C72.0247 237.101 74.4872 234.092 77.2229 235.185C79.9621 236.282 76.4032 241.48 74.214 239.291Z" fill="#33A86D"/>
<path d="M74.7638 239.291C74.7638 239.291 75.3103 242.026 73.121 241.207C70.9318 240.387 72.0247 237.925 74.7638 239.291Z" fill="#288453"/>
<path d="M77.8628 244.399C77.7729 247.591 75.0337 247.135 74.7605 244.582C74.4907 242.026 77.9562 241.207 77.8628 244.399Z" fill="#33A86D"/>
<path d="M76.4518 222.511C76.3619 223.559 75.1756 226.844 72.4399 224.655C69.7042 222.466 72.803 219.685 74.0827 219.412C75.3624 219.138 76.5418 221.459 76.4518 222.511Z" fill="#33A86D"/>
<path d="M75.1721 211.792C75.1721 211.792 71.89 215.075 69.9739 211.792C68.0579 208.51 71.0668 207.414 73.5328 208.51C75.9953 209.603 75.1721 211.792 75.1721 211.792Z" fill="#33A86D"/>
<path d="M68.0579 220C65.8687 217.81 68.3312 214.801 71.0669 215.894C73.8061 216.991 70.2472 222.189 68.0579 220Z" fill="#33A86D"/>
<path d="M68.6044 220C68.6044 220 69.1509 222.735 66.9616 221.916C64.7758 221.096 65.8687 218.634 68.6044 220Z" fill="#33A86D"/>
<path d="M74.4424 229.577C74.3525 232.769 71.6133 232.312 71.3401 229.76C71.0703 227.208 74.5358 226.384 74.4424 229.577Z" fill="#288453"/>
<path d="M103.633 204.128C103.086 206.044 99.4375 207.32 100.441 203.398C101.443 199.476 104.179 202.212 103.633 204.128Z" fill="#288453"/>
<path d="M97.6114 199.019C100.347 199.019 102.08 203.124 96.6084 202.121C91.1369 201.118 94.8756 199.019 97.6114 199.019Z" fill="#288453"/>
<path d="M96.5185 183.698C98.6179 183.058 102.996 185.797 99.5275 186.527C96.062 187.253 94.4192 184.334 96.5185 183.698Z" fill="#288453"/>
<path d="M100.531 188.623C102.263 188.44 104.726 191.359 100.531 191.269C96.3353 191.175 98.7978 188.803 100.531 188.623Z" fill="#288453"/>
<path d="M100.714 193.458C102.083 195.1 100.804 199.206 98.3412 196.377C95.8787 193.548 99.3442 191.815 100.714 193.458Z" fill="#288453"/>
<path d="M76.2684 248.138C76.2684 248.138 69.9739 247.045 67.7846 247.865C65.5953 248.685 65.5953 248.685 65.5953 248.685C65.5953 248.685 62.8596 245.676 61.49 246.222C60.1204 246.769 62.5829 248.685 62.5829 248.685C62.5829 248.685 55.1954 242.936 55.7419 244.579C56.2883 246.222 59.3007 248.685 59.3007 248.685C59.3007 248.685 49.724 239.291 48.3544 242.757C46.9848 246.222 48.0812 246.222 48.0812 246.222C48.0812 246.222 47.5347 237.738 44.799 238.835C42.0633 239.928 44.799 241.57 44.799 241.57C44.799 241.57 33.033 248.958 49.9972 252.243C66.9649 255.529 76.2684 248.138 76.2684 248.138Z" fill="#33A86D"/>
<path d="M41.1918 243.244C41.1918 243.244 48.6278 233.439 45.8886 233.439C43.1494 233.439 39.2343 244.019 41.1918 243.244Z" fill="#288453"/>
<path d="M40.4101 242.964C40.4101 242.964 41.586 231.222 37.2801 233.961C32.9742 236.7 39.625 246.488 40.4101 242.964Z" fill="#288453"/>
<path d="M27.1014 239.702C27.1014 239.702 23.9714 230.309 23.1863 235.005C22.4047 239.702 27.1014 239.702 27.1014 239.702Z" fill="#288453"/>
<path d="M28.2739 239.962C28.2739 239.962 31.4039 234.089 27.8831 232.916C24.3622 231.744 27.4922 241.137 28.2739 239.962Z" fill="#288453"/>
<path d="M45.1068 248.314C45.1068 248.314 47.4551 239.311 49.8035 242.441C52.1519 245.571 48.2368 249.877 45.1068 248.314Z" fill="#288453"/>
<path d="M43.9309 247.923C43.9309 247.923 48.2368 241.66 45.4977 239.702C42.7585 237.745 43.9309 247.923 43.9309 247.923Z" fill="#288453"/>
<path d="M145.858 232.933C145.858 232.933 148.884 232.328 153.422 233.538C157.96 234.749 157.354 238.38 157.054 239.286C156.753 240.193 152.817 242.008 144.042 241.403C135.268 240.798 135.043 240.262 130.125 240.497C124.771 240.749 127.099 232.023 128.614 229.302C130.125 226.58 145.858 232.933 145.858 232.933Z" fill="#EE5D4F"/>
<path d="M145.225 228.711C145.225 228.711 147.802 228.047 152.339 229.257C156.877 230.467 157.354 236.364 157.05 237.274C156.749 238.18 152.813 239.996 144.039 239.391C135.264 238.785 133.608 239.211 128.735 238.484C126.051 238.083 127.095 230.011 128.607 227.289C130.125 224.567 145.225 228.711 145.225 228.711Z" fill="#121721"/>
<path d="M80.5915 131.228C80.5915 131.228 75.4002 145.041 77.1917 151.723C78.9832 158.405 82.5732 159.816 89.39 160.871C91.8249 161.248 99.3922 161.165 108.149 160.435C117.29 159.674 123.647 149.987 118.805 138.681C111.269 121.094 82.7427 127.361 80.5915 131.228Z" fill="#1D2538"/>
<path d="M120.666 138.83C120.666 138.83 133.117 139.867 140.034 140.213C146.951 140.559 158.364 140.213 160.093 146.093C161.823 151.972 160.785 163.04 149.718 162.694C138.65 162.348 102.899 163.185 96.653 158.246C90.4103 153.311 94.7266 138.484 120.666 138.83Z" fill="#1D2538"/>
<path d="M156.289 147.476C156.289 147.476 160.256 147.94 160.003 154.279C159.748 160.619 154.56 175.491 154.906 178.949C155.251 182.408 151.793 202.467 150.755 210.422C149.718 218.377 149.327 223.609 147.598 227.068C145.868 230.527 149.69 231.111 141.735 231.111C133.781 231.111 129.658 230.828 128.275 229.79C126.891 228.752 127.929 220.106 127.929 220.106C127.929 220.106 129.658 215.956 129.658 215.264C129.658 214.572 128.621 194.513 129.658 189.325C130.696 184.137 133.801 162.421 140.027 156.195C146.252 149.97 156.289 147.476 156.289 147.476Z" fill="#1D2538"/>
<path d="M150.427 159.477C150.427 159.477 160.259 147.94 160.003 154.279C159.747 160.619 154.56 175.49 154.905 178.949C155.251 182.408 151.793 202.467 150.755 210.422C149.718 218.377 149.327 223.609 147.597 227.068C145.868 230.526 149.69 231.111 141.735 231.111C133.781 231.111 129.658 230.827 128.275 229.79C126.891 228.752 137.291 227.479 137.291 227.479C137.291 227.479 138.111 222.835 138.111 222.143C138.111 221.451 143.914 208.724 144.952 203.536C145.989 198.348 144.54 181.916 143.309 176.033C142.078 170.15 150.427 159.477 150.427 159.477Z" fill="#273252"/>
<path d="M138.626 87.9031C143.479 95.5327 134.583 118.698 131.076 117.156C128.133 115.859 122.437 93.9556 124.564 86.4748C124.972 85.0429 126.272 83.4105 127.327 83.2791" stroke="#992C29" stroke-miterlimit="10"/>
<path d="M130.969 121.841C130.257 121.79 129.762 120.573 129.865 119.121C129.967 117.669 130.628 116.533 131.34 116.583C132.053 116.633 132.548 117.851 132.445 119.303C132.343 120.755 131.682 121.891 130.969 121.841Z" fill="#29ABE2"/>
<path d="M139.951 75.8846C139.259 76.2305 133.38 85.2227 133.38 85.2227L120.583 78.9973L126.462 69.3134L139.951 75.8846Z" fill="#CC6D3D"/>
<path d="M120.237 137.793C120.237 137.793 122.312 128.455 123.35 126.726C124.387 124.996 131.463 115.627 135.558 109.402C144.205 96.2591 142.126 90.6113 142.126 90.6113C142.126 90.6113 136.153 81.5292 127.853 78.0706C119.552 74.612 112.628 75.1931 110.553 75.8848C108.478 76.5765 102.263 79.4367 99.1398 84.5312C96.2242 89.2832 86.3431 103.207 84.2679 113.583C82.1928 123.959 80.6468 131.979 80.6468 131.979C80.6468 131.979 91.8768 137.101 97.7563 137.793C103.636 138.485 120.237 137.793 120.237 137.793Z" fill="#F7BC4B"/>
<path d="M117.588 87.374C117.588 87.374 112.628 75.193 110.553 75.8847C108.478 76.5764 102.263 79.4366 99.1397 84.5311C96.2241 89.2832 86.343 103.207 84.2679 113.583C82.1927 123.959 80.0069 131.657 80.0069 131.657C80.0069 131.657 91.8767 137.101 97.7563 137.793C100.15 138.073 108.557 127.462 108.557 127.462L105.275 116.243L117.588 87.374Z" fill="#CE9436"/>
<path d="M129.575 95.6333C127.6 100.873 128.278 106.123 131.09 107.358C133.902 108.593 139.359 101.157 141.334 95.9169C143.309 90.6772 141.058 89.6188 138.242 88.3841C135.431 87.1494 131.55 90.3936 129.575 95.6333Z" fill="#CC6D3D"/>
<path d="M106.915 117.066C106.915 117.066 113.483 100.648 115.945 96.5427C115.945 96.5427 112.386 110.225 108.284 119.528C106.555 123.447 106.915 117.066 106.915 117.066Z" fill="#CE9436"/>
<path d="M163.151 108.856C169.722 106.435 185.545 97.5809 189.695 96.5433C193.845 95.5057 195.43 96.8926 193.935 101.333C192.441 105.774 183.453 110.938 178.611 114.742C173.769 118.547 163.348 123.264 159.543 121.189C155.739 119.114 156.579 111.277 163.151 108.856Z" fill="#F5894E"/>
<path d="M176.878 111.502C183.809 109.312 193.935 101.33 193.935 101.33C192.441 105.771 183.452 110.935 178.61 114.739C173.768 118.543 163.348 123.261 159.543 121.186C155.739 119.111 169.947 113.691 176.878 111.502Z" fill="#CC6D3D"/>
<path d="M191.563 103.748C189.785 102.994 187.274 98.3661 189.19 92.618C189.657 91.2138 192.652 87.9178 193.524 86.5759C194.572 84.9573 194.8 83.2695 196.329 81.8549C198.058 80.2571 198.95 82.0832 198.542 83.9992C198.338 84.9504 197.128 86.9183 196.809 88.1945C196.491 89.4707 196.581 90.0171 196.581 90.0171C196.581 90.0171 199.912 88.1461 201.233 86.8699C202.554 85.5937 203.377 86.0502 203.65 84.3624C203.993 82.2423 205.362 80.8727 206.729 81.0111C208.098 81.1494 208.098 81.6958 207.344 85.2755C207.344 85.2755 209.194 86.1747 208.714 87.6031C208.236 89.0176 207.483 89.9065 207.483 89.9065C207.483 89.9065 208.745 90.0898 208.302 91.2761C208.153 91.6703 206.798 93.3754 206.455 93.7386C206.455 93.7386 206.812 93.6417 207.14 94.4683C207.469 95.2949 203.363 99.5939 202.146 100.649C200.776 101.832 193.34 104.502 191.563 103.748Z" fill="#F5894E"/>
<path d="M158.703 120.896C155.144 118.969 145.138 113.584 139.259 108.05C133.379 102.517 128.067 98.5359 131.18 93.3481C134.292 88.1602 136.333 86.9152 140.483 89.3362C142.129 90.2942 146.681 96.1391 150.516 99.3694C156.361 104.291 162.255 108.797 164.109 110.499C168.21 114.262 165.271 124.454 158.703 120.896Z" fill="#F5894E"/>
<path d="M158.703 120.896C155.144 118.969 145.139 113.584 139.259 108.05C133.379 102.517 128.067 98.5359 131.18 93.3481C134.292 88.1602 136.333 86.9152 140.483 89.3362C142.13 90.2942 146.681 96.1391 150.517 99.3694C156.362 104.291 161.798 108.797 163.652 110.499C167.758 114.262 165.271 124.454 158.703 120.896Z" fill="#CC6D3D"/>
<path d="M160.917 113.964C157.358 112.037 155.85 111.837 149.97 106.303C144.091 100.77 136.333 86.918 140.483 89.339C142.13 90.297 146.681 96.1419 150.517 99.3722C156.362 104.294 161.798 108.8 163.652 110.502C167.758 114.261 167.481 117.519 160.917 113.964Z" fill="#F5894E"/>
<path d="M202.827 90.5219L205.895 87.2605L207.344 85.2753C207.379 85.1508 207.697 85.7422 206.148 87.8173C205.805 88.2739 202.827 90.5219 202.827 90.5219Z" fill="#CC6D3D"/>
<path d="M207.548 89.8618C207.548 89.8618 205.2 93.2581 204.515 93.8046C204.515 93.8046 207.275 91.1034 207.683 90.0417L207.548 89.8618Z" fill="#CC6D3D"/>
<path d="M133.725 48.9077C133.725 48.9077 148.898 45.3558 150.973 55.0398C153.048 64.7237 151.537 75.0199 150.499 77.7867C149.462 80.5536 144.966 79.8619 139.086 78.8243C133.206 77.7867 129.402 76.0574 129.056 69.4862C128.71 62.9149 127.846 48.9077 133.725 48.9077Z" fill="#CC6D3D"/>
<path d="M138.249 55.6866C138.249 55.6866 149.358 53.0858 150.876 60.1758C152.395 67.2659 151.288 74.8055 150.531 76.8322C149.77 78.859 146.477 78.3505 142.175 77.5931C137.872 76.8357 135.085 75.5664 134.832 70.7556C134.58 65.9412 133.947 55.6866 138.249 55.6866Z" fill="#F5894E"/>
<path d="M129.575 54.0957C129.575 54.0957 143.755 59.2836 149.635 55.4792C155.514 51.6747 153.093 49.5996 147.214 46.141C141.334 42.6825 136.146 42.3366 130.958 45.1035C125.771 47.8703 125.079 53.404 129.575 54.0957Z" fill="#273252"/>
<path d="M146.321 49.0182C146.321 49.0182 143.755 59.2832 149.635 55.4788C155.514 51.6744 153.093 49.5993 147.214 46.1407C142.832 43.9342 143.243 44.5498 146.321 49.0182Z" fill="#3E4C6F"/>
<path d="M142.026 54.4412L142.717 63.7794H139.951C139.951 63.7794 135.109 72.4258 131.65 74.155C130.267 75.0128 126.237 74.8744 123.471 73.1451C120.704 71.4159 120.237 65.8545 119.891 59.9749C119.545 54.0954 117.522 50.7613 126.116 47.1783C138.567 41.9904 142.026 54.4412 142.026 54.4412Z" fill="#273252"/>
<path d="M140.777 64.582C140.777 64.582 141.403 60.5147 137.021 59.2627C132.639 58.0107 133.58 63.6412 134.517 66.1452C135.455 68.6492 137.824 70.5203 139.837 69.5865C144.246 67.5425 140.777 64.582 140.777 64.582Z" fill="#F5894E"/>
<path d="M148.971 62.4694C148.912 63.4724 149.358 63.9393 149.859 63.9669C150.361 63.9946 150.728 63.5796 150.786 62.5766C150.845 61.5736 150.489 60.7401 149.987 60.709C149.486 60.6813 149.029 61.4664 148.971 62.4694Z" fill="#34283A"/>
<path d="M147.629 59.1598C147.629 59.1598 148.611 57.3924 150.205 57.8732" stroke="#34283A" stroke-width="2" stroke-miterlimit="10" stroke-linecap="round" stroke-linejoin="round"/>
</svg>
