<svg width="286" height="205" viewBox="0 0 286 205" fill="none" xmlns="http://www.w3.org/2000/svg">
<path d="M81.927 93.1453C81.927 93.1453 31.4861 134.78 19.0745 141.985C6.66285 149.19 -4.54456 132.376 1.86112 117.964C8.2668 103.551 16.6736 102.352 16.6736 102.352C16.6736 102.352 -0.941993 72.7266 22.6796 49.5072C46.3011 26.2879 71.5191 22.2856 75.5239 33.8953C75.5239 33.8953 93.1091 11.0934 127.968 2.2691C159.595 -5.738 158.795 8.67478 141.18 26.2904C141.18 26.2904 153.189 20.2845 158.795 22.2881C164.396 24.2893 81.927 93.1453 81.927 93.1453Z" fill="#F4E8D8"/>
<path d="M229.25 90.3441C229.25 90.3441 127.164 140.785 119.16 145.992C111.153 151.196 108.752 152.397 109.151 156C109.551 159.602 124.763 151.998 124.763 151.998C124.763 151.998 113.553 164.407 143.98 158.803C174.405 153.199 211.637 143.591 246.466 121.973C281.295 100.355 289.302 96.3526 284.898 88.3455C280.493 80.3384 266.882 81.9398 259.278 85.5424C251.673 89.145 271.687 76.7358 263.682 75.5341C255.673 74.3299 229.25 90.3441 229.25 90.3441Z" fill="#F4E8D8"/>
<path d="M168.199 51.7091C168.199 51.7091 168.199 42.7027 151.385 39.0976C134.572 35.4925 134.572 43.3023 135.773 49.9078C136.975 56.5134 146.584 60.718 148.385 60.718C150.186 60.718 168.199 51.7091 168.199 51.7091Z" fill="#48598B"/>
<path d="M146.381 97.9485C146.381 97.9485 141.577 109.158 149.584 115.964C157.591 122.769 171.601 125.572 184.413 115.964C197.224 106.355 165.998 75.1314 146.381 97.9485Z" fill="#273150"/>
<path d="M155.588 54.5141C155.588 54.5141 170.648 36.7112 188.815 40.9032C209.634 45.7075 217.039 57.517 220.641 75.5324C220.641 75.5324 232.051 70.1285 235.653 86.9422C239.256 103.756 217.638 111.563 205.029 110.963C192.42 110.361 155.588 54.5141 155.588 54.5141Z" fill="#48598B"/>
<path d="M151.585 57.1178C151.585 57.1178 166.645 39.315 184.812 43.507C205.631 48.3113 213.036 60.1208 216.638 78.1361C216.638 78.1361 228.048 72.7323 231.651 89.5459C235.253 106.36 213.635 114.167 201.024 113.567C188.415 112.963 151.585 57.1178 151.585 57.1178Z" fill="#273150"/>
<path d="M140.977 78.7353C140.977 78.7353 131.971 84.7412 128.366 75.7323C124.761 66.7234 138.574 58.9187 143.978 59.5183C149.384 60.1204 147.583 70.928 140.977 78.7353Z" fill="#273150"/>
<path d="M166.198 53.5148C166.198 53.5148 166.198 44.5084 149.384 40.9033C132.57 37.2982 132.57 45.1079 133.772 51.7135C134.974 58.319 144.582 62.5237 146.384 62.5237C148.182 62.5212 166.198 53.5148 166.198 53.5148Z" fill="#273150"/>
<path d="M162.795 124.775C162.795 124.775 150.986 136.984 144.38 144.791C138.301 151.974 124.564 158.202 122.562 167.811C120.561 177.419 141.577 180.422 147.983 174.017C154.388 167.611 175.607 141.991 178.809 135.185C182.01 128.377 173.603 114.364 162.795 124.775Z" fill="#CE6D3E"/>
<path d="M184.413 120.772C184.413 120.772 178.007 115.967 174.005 116.367C170.003 116.767 158.393 129.378 158.393 129.378C158.393 129.378 162.997 129.578 166 132.381C169.003 135.184 172.806 143.791 172.806 143.791C172.806 143.791 188.817 125.576 184.413 120.772Z" fill="#C93F37"/>
<path d="M171.202 174.416C171.202 174.416 158.191 164.876 146.65 162.139C136.624 159.763 131.771 159.336 126.567 162.139C121.363 164.942 117.359 173.149 121.963 174.95C126.565 176.751 171.202 174.416 171.202 174.416Z" fill="#F6874E"/>
<path d="M231.652 181.221C231.652 181.221 233.253 155.6 230.852 139.586C228.451 123.572 224.846 111.563 217.242 106.758C209.634 101.954 195.624 109.561 185.216 113.963C176.728 117.553 173.206 134.38 167.6 143.988C162.806 152.208 159.193 160.002 171.203 174.413C183.212 188.823 224.846 207.24 231.652 181.221Z" fill="#D09435"/>
<path d="M231.652 181.22C231.652 181.22 233.254 155.6 230.853 139.586C228.452 123.571 224.847 111.562 217.242 106.758C209.635 101.954 218.444 138.784 210.837 153.998C205.898 163.875 201.628 174.415 212.838 182.821C227.845 194.077 224.847 207.24 231.652 181.22Z" fill="#F6BE4A"/>
<path d="M167.208 104.355C181.147 120.652 184.823 127.174 184.823 127.174C184.823 127.174 199.236 126.775 198.834 117.166C198.432 107.558 193.339 105.982 187.224 97.1497C180.019 86.7418 162.553 98.9131 167.208 104.355Z" fill="#F6874E"/>
<path d="M167.197 104.357C174.002 112.964 184.21 112.364 184.21 112.364C184.21 112.364 202.825 115.666 187.213 97.152C179.054 87.4726 162.542 98.9153 167.197 104.357Z" fill="#CE6D3E"/>
<path d="M156.69 52.8144C156.69 52.8144 142.571 51.5722 139.176 73.3318C134.771 101.555 141.576 112.365 169.2 109.363C196.824 106.36 197.424 88.544 195.622 75.9351C193.821 63.321 172.901 48.6097 156.69 52.8144Z" fill="#F6874E"/>
<path d="M156.69 52.8168C156.69 52.8168 142.571 51.5746 139.176 73.3342C134.771 101.558 141.576 112.368 169.2 109.365C169.2 109.365 156.589 95.754 154.787 83.1425C152.986 70.531 175.606 52.4499 156.69 52.8168Z" fill="#CE6D3E"/>
<path d="M141.777 64.374C141.777 64.374 147.305 52.4455 164.397 55.317C176.907 57.4193 190.318 70.1295 190.318 70.1295L195.623 65.5251C195.623 65.5251 184.008 47.5704 159.992 50.4115C146.882 51.9623 143.229 59.5697 141.777 64.374Z" fill="#F6BE4A"/>
<path d="M141.777 64.3713C141.777 64.3713 147.305 52.4429 164.397 55.3143L159.992 50.4114C146.882 51.9597 143.229 59.5671 141.777 64.3713Z" fill="#D09435"/>
<path d="M200.428 78.7344C193.822 78.7344 188.818 85.9395 187.216 94.3463C185.792 101.83 184.213 111.16 206.433 110.56C228.651 109.961 213.036 78.7344 200.428 78.7344Z" fill="#273150"/>
<path d="M190.417 87.1417C194.452 87.1417 197.723 82.5034 197.723 76.7818C197.723 71.0602 194.452 66.4219 190.417 66.4219C186.382 66.4219 183.11 71.0602 183.11 76.7818C183.11 82.5034 186.382 87.1417 190.417 87.1417Z" fill="#F6874E"/>
<path d="M162.522 73.3518C163.862 73.0136 164.487 70.9142 163.919 68.6627C163.351 66.4111 161.804 64.8599 160.464 65.1981C159.124 65.5362 158.499 67.6356 159.067 69.8872C159.635 72.1387 161.182 73.6899 162.522 73.3518Z" fill="#263052"/>
<path d="M147.723 77.414C147.858 75.5143 147.051 73.9094 145.921 73.8293C144.79 73.7492 143.765 75.2242 143.63 77.1239C143.496 79.0235 144.303 80.6284 145.433 80.7085C146.563 80.7886 147.589 79.3136 147.723 77.414Z" fill="#263052"/>
<path d="M142.511 73.1273L147.115 73.4613" stroke="#273150" stroke-width="2" stroke-miterlimit="10"/>
<path d="M153.854 65.7223C153.854 65.7223 155.121 62.7193 157.391 62.5852" stroke="#273150" stroke-width="2" stroke-miterlimit="10"/>
<path d="M183.967 61.5188C183.967 61.5188 190.974 70.0344 198.162 73.6825C203.596 76.4426 207.95 76.9511 207.95 76.9511L206.862 74.7754L209.569 72.6883C209.569 72.6883 199.412 71.6257 186.084 60.2412L183.967 61.5188Z" fill="#C93F37"/>
<path d="M183.256 60.5275C183.256 60.5275 186.925 70.9279 192.427 76.8175C196.589 81.2701 200.505 83.2409 200.505 83.2409L200.229 80.8248L203.485 79.7926C203.485 79.7926 194.307 75.3147 185.682 60.0544L183.256 60.5275Z" fill="#C93F37"/>
<path d="M187.713 66.0227C190.303 65.5674 192.767 51.739 186.599 51.4481C180.793 51.1723 174.211 51.9135 175.303 56.2903C176.399 60.667 185.124 66.4781 187.713 66.0227Z" fill="#C93F37"/>
<path d="M189.949 58.1566C189.949 58.1566 188.995 52.2266 187.156 52.3581C185.314 52.4897 186.961 55.0221 187.436 58.9282C187.912 62.8344 190.283 60.6587 189.949 58.1566Z" fill="#F7BC4B"/>
<path d="M185.561 63.1555C185.561 63.1555 185.172 60.4257 189.149 57.7845C193.126 55.1433 196.151 53.7038 198.681 55.2724C201.211 56.8409 202.086 63.7399 200.642 67.2185C199.197 70.6946 190.348 68.0534 188.119 66.7454C185.89 65.4375 185.561 63.1555 185.561 63.1555Z" fill="#C93F37"/>
<path d="M200.037 60.8444C200.037 60.8444 200.87 66.3773 198.395 67.283C194.72 68.6263 197.037 58.1475 197.252 56.4904C197.467 54.8334 200.7 56.8801 200.037 60.8444Z" fill="#F7BC4B"/>
<path d="M120.859 121.372C120.859 121.372 123.26 112.664 122.061 108.161C120.859 103.658 120.26 102.155 116.055 99.7544C111.85 97.3535 107.347 97.6521 107.949 92.8478C108.549 88.0435 109.751 90.4469 115.455 91.3476C121.16 92.2482 121.069 95.7698 125.965 97.6521C129.868 99.1523 134.971 101.556 137.675 107.86C140.377 114.165 147.884 119.27 141.278 123.773C134.67 128.276 121.459 126.174 120.859 121.372Z" fill="#F6874E"/>
<path d="M186.814 115.567C186.814 115.567 177.605 135.183 174.805 143.19C172.001 151.198 175.604 155.6 182.01 159.205C188.415 162.807 196.02 164.209 202.426 151.397C208.832 138.586 214.435 129.979 212.034 123.574C209.634 117.168 194.821 104.357 186.814 115.567Z" fill="#F6874E"/>
<path d="M186.814 115.567C186.814 115.567 177.605 135.183 174.805 143.19C172.001 151.198 175.604 155.6 182.01 159.205C188.415 162.807 188.415 157.603 194.821 144.792C201.227 131.98 214.438 129.979 212.034 123.574C209.631 117.168 194.821 104.357 186.814 115.567Z" fill="#CE6D3E"/>
<path d="M186.414 116.767C186.414 116.767 194.021 98.7514 196.422 95.1489C198.823 91.5463 204.03 89.1429 209.633 91.1466C215.237 93.1477 218.04 106.759 218.04 111.965C218.04 117.169 210.433 132.784 210.033 135.986C209.633 139.189 208.831 124.377 200.824 119.572C192.817 114.768 186.414 116.767 186.414 116.767Z" fill="#C93F37"/>
<path d="M196.423 95.1489C198.823 91.5463 204.03 89.1429 209.634 91.1466C215.237 93.1477 218.041 106.759 218.041 111.965C218.041 117.169 210.433 132.784 210.033 135.986C209.634 139.189 212.434 106.361 209.234 101.957C204.685 95.7004 196.423 95.1489 196.423 95.1489Z" fill="#EE5D4F"/>
<path d="M197.779 146.266C197.779 146.266 193.392 130.027 178.402 130.664C163.413 131.302 169.993 155.5 184.983 157.41C199.972 159.32 197.779 146.266 197.779 146.266Z" fill="#CE6D3E"/>
<path d="M198.024 149.19C198.024 149.19 193.219 129.841 176.806 130.641C160.392 131.44 151.185 124.369 144.377 121.966C139.133 120.114 130.066 127.972 138.073 133.975C146.08 139.981 167.597 160.797 184.011 163.2C200.425 165.604 198.024 149.19 198.024 149.19Z" fill="#F6874E"/>
<path d="M125.965 117.467C125.965 117.467 116.058 113.563 114.857 112.662C113.655 111.762 113.055 107.557 109.152 107.557C105.248 107.557 108.552 111.762 108.851 114.163C109.152 116.564 112.031 118.828 114.156 121.77C115.456 123.571 116.858 126.875 120.863 128.575C127.592 131.434 134.974 133.979 140.378 132.178C145.782 130.377 135.273 115.364 125.965 117.467Z" fill="#F6874E"/>
<path d="M131.569 107.422C131.569 107.422 132.571 119.566 134.372 120.467C136.173 121.367 140.676 121.967 140.676 121.967C140.676 121.967 134.971 125.569 132.269 121.967C129.568 118.367 131.569 107.422 131.569 107.422Z" fill="#CE6D3E"/>
<path d="M124.903 101.086C124.28 100.34 122.039 99.4669 119.671 100.588C117.306 101.708 117.306 101.959 117.43 104.324C117.553 106.69 117.43 111.547 118.176 112.296C118.922 113.042 121.29 113.915 122.659 112.296C124.027 110.677 124.652 107.813 124.652 105.445C124.655 103.077 125.525 101.832 124.903 101.086Z" fill="#F6874E"/>
<path d="M127.665 99.6197C126.997 98.8203 124.596 97.8842 122.061 99.0859C119.526 100.288 119.526 100.553 119.66 103.088C119.794 105.623 119.66 110.827 120.46 111.629C121.259 112.429 123.796 113.365 125.264 111.629C126.731 109.894 127.399 106.825 127.399 104.29C127.399 101.755 128.333 100.419 127.665 99.6197Z" fill="#CE6D3E"/>
<path d="M128.467 99.6197C127.799 98.8203 125.398 97.8842 122.863 99.0859C120.328 100.288 120.328 100.553 120.462 103.088C120.596 105.623 120.462 110.827 121.261 111.629C122.061 112.429 124.598 113.365 126.066 111.629C127.533 109.894 128.201 106.825 128.201 104.29C128.201 101.755 129.132 100.419 128.467 99.6197Z" fill="#F6874E"/>
<path d="M126.597 100.351C124.495 100.951 122.393 107.557 122.393 109.358C122.393 111.159 124.128 113.062 127.83 113.16C131.235 113.251 129.765 107.822 129.765 107.822C129.765 107.822 128.7 99.7493 126.597 100.351Z" fill="#CE6D3E"/>
<path d="M144.58 122.571C144.58 122.571 144.18 112.962 143.28 110.562C142.379 108.161 138.776 105.757 134.572 103.356C130.367 100.956 129.767 99.7539 127.665 100.354C125.563 100.953 123.46 107.559 123.46 109.36C123.46 111.161 124.26 111.963 127.964 112.062C131.369 112.153 130.833 107.824 130.833 107.824C130.833 107.824 132.166 109.36 132.467 114.162C132.768 118.963 133.871 126.174 144.58 122.571Z" fill="#F6874E"/>
<path d="M51.7024 162.568L67.5142 162.001L91.2344 161.9L96.9393 160.6L64.3114 158.798L51.7024 162.568Z" fill="#634874"/>
<path d="M57.2404 91.0452L73.6543 92.9452L103.077 81.1357L103.297 79.7113L88.8666 75.833L57.2404 91.0452Z" fill="#634874"/>
<path d="M31.4832 54.8665L40.2493 50.0015L40.5023 49.9964L51.5225 43.821H51.7755L62.7096 37.5342L102.543 52.1139V65.7247L63.1119 53.2802L31.4832 69.3779V54.8665Z" fill="#29ACE4"/>
<path d="M63.1119 53.1461L31.4832 69.3779V54.8665L40.2518 49.9964H40.5023L51.5225 43.821H51.7754L62.7096 37.5342" fill="#48598B"/>
<path d="M31.4832 69.3775L76.7227 77.033L102.543 65.7244L63.1119 53.1458L51.7932 58.9518L51.53 58.9443L40.5073 64.7023L40.2467 64.6998L31.4832 69.3775Z" fill="#634874"/>
<path d="M42.2936 132.974L64.6325 135.917L100.941 127.52L87.2801 123.29L42.2936 132.974Z" fill="#634874"/>
<path d="M65.5132 94.6465L51.0347 87.6058L61.5109 80.4336L103.145 91.9117L65.5132 94.6465Z" fill="#634874"/>
<path d="M31.0834 105.859V119.669L65.247 122.371L100.142 114.564L92.036 106.559L102.343 104.156L79.9255 90.0442L62.9094 92.0453L31.0834 105.859Z" fill="#634874"/>
<path d="M31.4832 70.1287L62.7096 53.8135L77.4386 58.4659L77.5221 67.2598L91.143 62.7921L103.279 66.6248V80.2356L63.1119 69.428L31.4832 84.6402V70.1287Z" fill="#29ACE4"/>
<path d="M63.1119 69.428L31.4832 84.6402V70.1287L62.7096 53.8135" fill="#48598B"/>
<path d="M77.5319 67.2597L91.1352 62.8223V77.0326L77.5218 79.8029L77.5319 67.2597Z" fill="#48598B"/>
<path d="M31.4832 84.6372L45.6303 85.2696L77.5398 73.3033L63.1119 69.4249L31.4832 84.6372Z" fill="#634874"/>
<path d="M51.0347 76.2322V87.6066L63.044 82.5696V70.4261L51.0347 76.2322Z" fill="#48598B"/>
<path d="M103.145 80.5027V91.9125L63.0437 82.6379V70.4261L103.145 80.5027Z" fill="#29ACE4"/>
<path d="M31.0834 96.2509V106.492L62.9094 94.4825V83.0398L31.0834 96.2509Z" fill="#48598B"/>
<path d="M62.9091 83.0398V94.4825L76.0216 97.6524V86.2426L62.9091 83.0398Z" fill="#29ACE4"/>
<path d="M89.5671 89.3759L89.266 101.185L102.343 104.155V92.4471L89.5671 89.3759Z" fill="#29ACE4"/>
<path d="M31.1166 107.357V119.667L42.5265 114.562V102.854L31.1166 107.357Z" fill="#48598B"/>
<path d="M51.2345 100.05V111.46L62.91 107.356V95.347L51.2345 100.05Z" fill="#48598B"/>
<path d="M62.9091 95.347L100.141 104.655V114.562L62.9091 107.356V95.347Z" fill="#29ACE4"/>
<path d="M53.7718 134.898V123.523L87.1536 112.769V125.36L53.7718 134.898Z" fill="#48598B"/>
<path d="M87.1103 112.776V125.337L100.941 127.541V115.506L87.1103 112.776Z" fill="#29ACE4"/>
<path d="M29.6994 140.806L67.3846 146.908L89.3744 140.862L53.9281 132.548L29.6994 140.806Z" fill="#634874"/>
<path d="M40.2339 123.258L39.9658 138.101L63.6076 141.711L63.8606 126.815L40.2339 123.258Z" fill="#29ACE4"/>
<path d="M40.8869 137.645L51.052 134.974L69.6847 136.841L56.6127 139.54L40.8869 137.645Z" fill="#634874"/>
<path d="M29.9498 126.944L29.6994 140.807L40.1099 138.151L40.378 123.245L29.9498 126.944Z" fill="#48598B"/>
<path d="M41.2006 123.327L40.8869 137.646L51.0545 135.03L51.2569 120.116L41.2006 123.327Z" fill="#48598B"/>
<path d="M51.226 120.132L50.9983 135.134L89.45 140.864L89.6575 128.232L51.226 120.132Z" fill="#29ACE4"/>
<path d="M102.677 152.194L85.9293 156.897L60.0282 155.364L90.5666 150.426L102.677 152.194Z" fill="#634874"/>
<path d="M90.5669 138.2L102.677 139.872V152.195L90.5669 150.427V138.2Z" fill="#29ACE4"/>
<path d="M90.6171 138.216V150.426L70.6512 154.329V143.054L90.6171 138.216Z" fill="#48598B"/>
<path d="M77.3381 148.936L46.6987 155.332L31.8862 154.297L59.424 146.148L77.3381 148.936Z" fill="#634874"/>
<path d="M63.7781 134.563V146.83L31.8863 154.299V142.788L63.7781 134.563Z" fill="#48598B"/>
<path d="M63.7779 134.564V146.831L77.2875 149.014V136.785L63.7779 134.564Z" fill="#29ACE4"/>
<path d="M100.81 163.804L74.2536 169.277L56.0383 164.24L89.4658 157.467L100.81 163.804Z" fill="#634874"/>
<path d="M51.7024 150.827V162.57L64.3696 159.636V147.459L51.7024 150.827Z" fill="#48598B"/>
<path d="M100.81 153.329V163.806L62.5784 160.236V148.06L100.81 153.329Z" fill="#29ACE4"/>
<path d="M33.153 165.31V177.185H63.7773L78.8251 174.382L78.7568 162.906L64.1112 161.206L33.153 165.31Z" fill="#48598B"/>
<path d="M60.3092 167.247V178.103H88.2973L102.05 175.54L101.989 165.051L88.6034 163.498L60.3092 167.247Z" fill="#48598B"/>
<path d="M88.8767 163.459V175.807L102.111 175.575V164.648L88.8767 163.459Z" fill="#29ACE4"/>
<path d="M64.4125 161.17V174.682L78.891 174.426V162.473L64.4125 161.17Z" fill="#29ACE4"/>
<path d="M40.3757 49.9946V64.6958" stroke="#29ACE4" stroke-miterlimit="10"/>
<path d="M51.6519 43.821V58.9447" stroke="#29ACE4" stroke-miterlimit="10"/>
<path d="M89.567 89.3762L76.0548 92.6119V98.6027L86.9814 101.353L89.2659 101.186L89.567 89.3762Z" fill="#48598B"/>
<path d="M262.878 201.238C262.141 199.984 234.055 173.615 167.197 172.815C113.022 172.167 31.4839 174.416 13.4685 180.422C13.4685 180.422 67.3147 177.419 100.942 185.427C134.569 193.434 156.873 197.998 173.203 200.039C186.015 201.641 209.368 203.776 214.972 204.176C241.363 206.06 212.333 194.38 241.561 199.738C259.576 203.04 263.728 202.688 262.878 201.238Z" fill="#866694"/>
<path d="M94.3361 188.027C94.3361 188.027 76.3208 181.221 45.8963 183.222C9.58232 185.611 0.335564 180.743 0.335564 180.743C0.335564 180.743 10.3438 195.396 33.8288 191.318C65.6953 185.788 94.3361 188.027 94.3361 188.027Z" fill="#866694"/>
</svg>
