<svg width="287" height="218" viewBox="0 0 287 218" fill="none" xmlns="http://www.w3.org/2000/svg">
<path d="M240.581 70.1656C240.581 70.1656 164.609 69.2204 148.777 97.5504C132.946 125.88 53.7851 139.213 24.6205 125.88C-4.54413 112.55 -10.376 91.7185 22.9539 73.3856C64.7511 50.3978 60.0225 80.9789 63.7849 75.8842C84.8086 47.4042 123.712 12.9869 151.279 20.0563C183.777 28.3894 159.612 59.2206 159.612 59.2206C159.612 59.2206 208.918 44.3342 240.581 70.1656Z" fill="#BB83C3"/>
<path d="M95.4484 142.13C95.4484 142.13 164.401 132.894 185.233 102.063C206.064 71.2317 286.268 92.6899 286.268 92.6899C286.268 92.6899 249.813 97.0657 233.981 117.063C233.981 117.063 252.106 109.145 269.604 113.313C269.604 113.313 257.106 121.438 242.73 136.435C228.389 151.401 122.946 160.463 95.4484 142.13Z" fill="#BB83C3"/>
<path d="M155.123 209.175C155.123 209.175 160.22 204.951 148.261 205.446C136.445 205.936 123.818 207.587 129.047 210.559C134.278 213.532 150.22 211.713 155.123 209.175Z" fill="#866694"/>
<path d="M180.507 204.981C180.507 204.981 188.068 198.714 170.328 199.449C152.798 200.176 134.065 202.624 141.824 207.037C149.583 211.447 173.237 208.748 180.507 204.981Z" fill="#866694"/>
<path d="M175.741 213.825C175.741 213.825 179.206 210.955 171.078 211.289C163.048 211.621 154.464 212.745 158.019 214.764C161.573 216.787 172.41 215.552 175.741 213.825Z" fill="#866694"/>
<path d="M272.518 201.918C275.435 200.252 252.103 200.876 240.415 199.973C239.61 199.909 238.709 200.049 237.746 200.07C232.332 199.233 203.065 198.18 191.691 198.793C180.359 199.404 168.082 203.116 179.227 206.078C187.584 208.298 192.778 209.464 211.69 208.377C215.556 208.153 226.029 206.323 234.391 204.525C237.348 204.509 246.855 205.167 250.268 204.97C257.869 204.53 270.033 203.337 272.518 201.918Z" fill="#866694"/>
<path d="M265.926 190.713C265.926 190.713 268.891 182.119 274.225 182.414C279.559 182.711 276.595 188.045 276.595 188.045C276.595 188.045 278.964 184.488 281.929 187.453C284.893 190.418 281.929 192.49 281.929 192.49C281.929 192.49 284.298 191.007 284.596 193.675C284.893 196.342 273.037 200.194 268.593 199.009C264.149 197.824 265.926 190.713 265.926 190.713Z" fill="#288453"/>
<path d="M132.738 182.546C98.6684 183.238 121.28 189.004 121.28 189.004C121.28 189.004 -1.30805 187.295 33.7858 194.212C33.7858 194.212 12.1803 198.022 6.28785 201.71C2.45698 204.109 38.3434 212.858 58.3666 212.126C86.9072 211.084 90.5854 207.821 90.4484 205.044C90.2773 201.613 70.2304 201.297 76.2835 199.628C85.2063 197.166 91.5069 200.676 125.864 196.711C147.53 194.212 163.985 195.044 163.985 195.044C163.985 195.044 146.935 200.27 163.601 198.927C195.912 196.324 202.699 199.57 206.691 194.209C212.61 186.263 174.928 181.687 132.738 182.546Z" fill="#866694"/>
<path d="M238.676 49.0232L245.679 14.5902C245.721 14.3875 248.104 13.9978 248.104 13.9978L251.163 14.9167L250.029 55.4028C250.013 56.0136 249.31 56.3401 248.754 55.9925L239.118 49.9764C238.783 49.7684 238.604 49.3813 238.676 49.0232Z" fill="#1D2538"/>
<path d="M242.101 49.7235L247.838 14.1768C247.92 13.7897 252.48 15.0325 252.467 15.4406L251.248 54.239C251.211 55.408 249.871 56.0241 248.82 55.3685L242.906 51.5139C242.277 51.1216 241.951 50.3949 242.101 49.7235Z" fill="#1D2538"/>
<path d="M241.785 33.7473C241.785 33.7473 241.266 33.0733 243.249 32.9548C245.239 32.8337 251.758 38.4444 251.758 38.4444L251.298 55.1765L238.554 49.6237L241.785 33.7473Z" fill="#C73F37"/>
<path d="M239.131 46.7723C239.131 46.7723 244.752 19.3296 245.018 17.9578C245.331 16.3333 246.777 16.2438 246.606 18.3686C246.493 19.7772 241.348 47.4305 241.348 47.4305L239.131 46.7723Z" fill="#F4E8D8"/>
<path d="M242.627 29.5453C242.627 29.5453 243.064 29.0951 243.952 29.1741C247.585 29.4979 251.85 35.1692 251.85 35.1692L251.74 38.513C251.74 38.513 245.947 32.5547 244.549 32.1967C242.562 31.6885 241.919 33.1629 241.919 33.1629L242.627 29.5453Z" fill="#C73F37"/>
<path d="M251.008 42.5516C251.008 42.5516 246.382 37.0752 242.317 37.5649C240.605 37.7703 241.143 38.339 241.143 38.339C241.143 38.339 240.803 38.5812 242.217 38.547C244.318 38.497 251.008 42.5516 251.008 42.5516Z" fill="#1D2538"/>
<path d="M251.521 46.122C249.531 42.7993 242.932 40.772 242.932 40.772C242.932 40.772 250.365 45.1373 251.45 47.0699L251.521 46.122Z" fill="#1D2538"/>
<path d="M239.823 44.774C239.823 44.774 240.639 43.5392 241.327 43.7998C242.014 44.0605 246.545 46.8434 247.556 48.2204C248.554 49.5817 241.474 45.0294 241.111 44.8767C240.745 44.7266 239.823 44.774 239.823 44.774Z" fill="#1D2538"/>
<path d="M251.368 51.4351C251.368 51.4351 250.731 50.4136 249.42 50.0318C248.109 49.65 251.366 52.4356 251.366 52.4356L251.368 51.4351Z" fill="#1D2538"/>
<path d="M205.546 200.354C238.881 199.686 262.103 201.508 268.354 199.009C268.354 199.009 274.185 185.044 267.103 175.044C252.367 159.763 242.104 153.797 218.981 156.296C195.859 158.794 176.415 173.238 170.165 186.987C163.914 200.736 170.86 200.978 173.048 201.292C175.236 201.605 195.164 200.565 205.546 200.354Z" fill="#634874"/>
<path d="M237.128 158.915C225.669 154.903 218.603 154.381 205.801 160.945C193 167.512 190.072 169.328 188.214 178.188C186.355 187.05 198.748 185.995 207.626 183.896C216.509 181.8 250.25 163.51 237.128 158.915Z" fill="#F4E8D8"/>
<path d="M258.246 178.145C246.321 182.95 237.757 184.327 225.119 177.245C211.665 169.707 208.847 167.582 215.364 159.328C220.432 152.906 238.478 157.596 245.447 159.931C251.819 162.066 268.04 174.199 258.246 178.145Z" fill="#F4E8D8"/>
<path d="M217.939 41.9307L265.794 69.6841C266.311 69.9842 270.278 67.7094 270.642 67.1907C271.005 66.672 269.449 62.9201 268.62 62.4278L222.423 34.7455C221.746 34.3427 218.408 35.2115 218.408 35.2115L217.939 41.9307Z" fill="#F6874E"/>
<path d="M240.44 48.4913L243.252 53.4911L221.37 40.3872C220.754 40.0054 220.332 38.6679 220.332 38.6679L219.395 35.5032L240.44 48.4913Z" fill="#F4E8D8"/>
<path d="M270.644 67.1878C270.644 67.1878 270.302 67.5748 269.533 68.0382C268.246 68.8123 266.566 70.1208 265.61 69.618C264.654 69.1151 218.705 42.4859 217.942 41.9304C217.362 41.5091 217.109 37.5545 217.109 37.0701C217.109 36.583 218.413 35.2139 218.413 35.2139C218.413 35.2139 218.847 39.1896 219.611 40.0584C220.374 40.9273 266.655 67.7644 266.655 67.7644C267.277 67.9698 269.394 67.5195 270.644 67.1878Z" fill="#C73F37"/>
<path d="M218.442 159.023L236.977 54.1943C237.019 53.9627 237.101 53.7389 237.222 53.5361C237.859 52.4645 238.826 52.2934 240.234 53.1017C240.234 53.1017 248.009 57.6408 248.704 58.0594C249.399 58.4754 250.226 59.289 250.129 60.4212L241.438 161.777C241.366 162.614 240.769 163.31 239.953 163.51L231.185 165.655C230.803 165.75 230.4 165.724 230.032 165.587L220.672 162.072C220.451 161.988 220.245 161.867 220.066 161.709L219.076 160.837C218.563 160.382 218.321 159.695 218.442 159.023Z" fill="#F6BE4A"/>
<path d="M237.085 53.7627C237.522 52.8675 238.47 52.3383 238.381 52.8912L220.48 161.035C220.414 161.427 219.943 161.598 219.642 161.332L218.46 160.29C218.329 160.174 218.265 159.995 218.297 159.821L237.02 53.9312C237.033 53.8733 237.054 53.8153 237.085 53.7627Z" fill="#F6874E"/>
<path d="M230.751 165.566L245.021 55.9927" stroke="#F4E8D8" stroke-width="2" stroke-miterlimit="10"/>
<path d="M234.595 83.1088L243.91 105.188L244.56 98.9878L235.582 75.5813L234.595 83.1088Z" fill="#F4E8D8"/>
<path d="M236.016 72.3193L245.331 96.7526L247.317 81.3528L238.338 57.9463L236.016 72.3193Z" fill="#F4E8D8"/>
<path d="M262.938 174.004C262.938 174.004 264.188 178.796 253.98 182.13C253.978 182.127 267.935 181.919 262.938 174.004Z" fill="#F4E8D8"/>
<path d="M245.229 118.106L242.522 117.271L240.439 121.023L242.103 124.564L236.688 131.02L235.021 133.261" stroke="#F4E8D8" stroke-width="2" stroke-miterlimit="10"/>
<path d="M189.574 180.023C189.574 180.023 195.127 186.373 205.235 184.973C209.605 184.607 222.68 180.336 222.68 180.336C222.68 180.336 198.929 184.772 189.574 180.023Z" fill="#634874"/>
<path d="M255.645 61.5109L258.562 60.2629L260.02 64.2202L255.645 61.5109Z" fill="#C73F37"/>
<path d="M249.828 0.161985C245.663 -0.788491 242.182 2.55003 242.106 7.39192C242.035 11.989 245.089 16.1726 248.886 16.9388C252.638 17.6971 255.976 14.8799 256.403 10.4592C256.85 5.80692 253.938 1.0993 249.828 0.161985ZM248.859 12.4418C247.422 11.9758 246.197 9.96426 246.129 7.90797C246.058 5.80429 247.222 4.4773 248.722 4.99072C250.21 5.49887 251.416 7.61309 251.424 9.66938C251.432 11.6809 250.289 12.9052 248.859 12.4418Z" fill="#1D2538"/>
<path d="M250.505 3.13451C248.141 2.55001 246.158 4.47466 246.095 7.34978C246.082 7.91322 246.148 8.4714 246.274 9.00588C246.192 8.6478 246.14 8.2792 246.129 7.90796C246.058 5.80427 247.222 4.47729 248.723 4.99071C250.21 5.49886 251.416 7.61307 251.424 9.66937C251.432 11.6809 250.287 12.9052 248.859 12.4418C247.97 12.1522 247.161 11.2702 246.658 10.1538C247.346 11.723 248.596 12.9368 250.042 13.2712C252.261 13.782 254.194 12.0469 254.381 9.32709C254.578 6.52042 252.851 3.71375 250.505 3.13451Z" fill="#F6BE4A"/>
<path d="M246.34 9.25854C246.354 9.30594 246.364 9.35333 246.377 9.40072C246.364 9.35333 246.354 9.30594 246.34 9.25854Z" fill="#F6BE4A"/>
<path d="M246.519 9.80884C246.546 9.88256 246.577 9.95365 246.606 10.0247C246.577 9.95365 246.546 9.88256 246.519 9.80884Z" fill="#F6BE4A"/>
<path d="M244.72 12.3973C244.602 12.3973 244.483 12.3446 244.407 12.2419C241.795 8.83496 243.601 4.16683 243.68 3.96936C243.759 3.76663 243.988 3.66658 244.194 3.7482C244.396 3.82718 244.496 4.05888 244.415 4.26162C244.396 4.30637 242.698 8.71384 245.036 11.7627C245.168 11.9365 245.136 12.184 244.963 12.3157C244.889 12.3709 244.805 12.3973 244.72 12.3973Z" fill="#F4E8D8"/>
<path d="M247.509 14.5956C247.427 14.5956 247.346 14.5719 247.277 14.5193C246.737 14.1243 246.292 13.682 245.958 13.2002C245.834 13.0212 245.877 12.7763 246.056 12.6499C246.235 12.5262 246.479 12.5683 246.606 12.7473C246.89 13.1554 247.275 13.5372 247.743 13.8795C247.92 14.0085 247.959 14.256 247.83 14.4324C247.751 14.5403 247.633 14.5956 247.509 14.5956Z" fill="#F4E8D8"/>
<path d="M267.24 202.819C269.391 201.627 261.579 190.897 256.008 188.27C250.437 185.642 253.957 198.446 258.106 201.384C262.256 204.325 265.089 204.015 267.24 202.819Z" fill="#33A86D"/>
<path d="M262.906 203.562C262.906 203.562 252.116 198.317 246.463 198.509C240.813 198.701 247.743 203.132 247.743 203.132C247.743 203.132 241.779 201.906 240.279 205.039C238.778 208.172 262.906 203.562 262.906 203.562Z" fill="#33A86D"/>
<path d="M273.438 201.271C273.98 200.11 273.567 196.687 268.612 197.253C263.656 197.819 262.469 202.372 264.201 203.48C265.934 204.586 272.895 202.432 273.438 201.271Z" fill="#33A86D"/>
<path d="M230.126 100.52L229.768 104.312C229.708 104.551 230.108 104.741 230.503 104.659L233.544 104.033C233.849 103.969 233.997 103.769 233.863 103.598L231.18 100.433C230.951 100.144 230.208 100.204 230.126 100.52Z" fill="#F6874E"/>
<path d="M244.083 131.612L241.479 134.216L243.562 136.922L244.083 131.612Z" fill="#F6874E"/>
<path d="M223.876 140.256L226.169 143.381L223.147 145.048L223.876 140.256Z" fill="#F6874E"/>
<path d="M255.052 215.989C255.052 215.989 253.238 214.815 249.797 215.262C246.398 215.704 245.137 216.463 247.577 217.155C249.144 217.598 253.849 217.632 255.052 215.989Z" fill="#33A86D"/>
<path d="M241.929 209.114C241.929 209.114 240.115 207.94 236.674 208.388C233.275 208.83 232.014 209.588 234.455 210.281C236.021 210.723 240.724 210.757 241.929 209.114Z" fill="#288453"/>
<path d="M249.741 212.864C249.741 212.864 247.927 211.689 244.486 212.137C241.087 212.579 239.826 213.337 242.266 214.03C243.833 214.472 248.535 214.509 249.741 212.864Z" fill="#33A86D"/>
<path d="M242.24 214.428C242.24 214.428 240.426 213.254 236.985 213.701C233.586 214.143 232.325 214.902 234.766 215.594C236.332 216.036 241.037 216.071 242.24 214.428Z" fill="#33A86D"/>
<path d="M216.28 212.181C216.28 212.181 214.353 210.764 210.52 211.028C206.734 211.288 205.291 212.047 207.942 212.971C209.643 213.566 214.84 213.919 216.28 212.181Z" fill="#288453"/>
<path d="M230.551 213.039C230.551 213.039 228.624 211.623 224.79 211.886C221.004 212.147 219.561 212.905 222.213 213.829C223.916 214.424 229.111 214.777 230.551 213.039Z" fill="#288453"/>
<path d="M222.521 209.943C222.521 209.943 221.009 208.832 218.008 209.04C215.041 209.245 213.911 209.838 215.988 210.562C217.321 211.028 221.391 211.304 222.521 209.943Z" fill="#288453"/>
<path d="M222.831 213.345C222.831 213.345 220.904 211.928 217.07 212.192C213.284 212.452 211.841 213.21 214.493 214.135C216.196 214.73 221.393 215.082 222.831 213.345Z" fill="#288453"/>
<path d="M241.272 143.658C241.272 143.658 240.856 140.324 239.329 141.296C237.802 142.267 237.802 143.239 238.497 144.49C239.189 145.743 240.716 144.908 241.272 143.658Z" fill="#288453"/>
<path d="M239.605 138.658C239.605 138.658 239.189 135.324 237.662 136.296C236.135 137.267 236.135 138.239 236.83 139.49C237.525 140.74 239.049 139.908 239.605 138.658Z" fill="#33A86D"/>
<path d="M240.439 134.285C240.439 134.285 240.023 130.951 238.496 131.923C236.969 132.894 236.969 133.866 237.664 135.117C238.354 136.367 239.884 135.535 240.439 134.285Z" fill="#33A86D"/>
<path d="M245.437 114.493C245.437 114.493 245.021 111.16 243.494 112.131C241.967 113.103 241.967 114.074 242.662 115.325C243.354 116.578 244.881 115.743 245.437 114.493Z" fill="#33A86D"/>
<path d="M247.103 110.744C247.103 110.744 246.687 107.41 245.16 108.382C243.633 109.353 243.633 110.325 244.328 111.576C245.023 112.826 246.548 111.994 247.103 110.744Z" fill="#288453"/>
<path d="M242.243 148.381C242.243 148.381 241.901 145.048 240.653 146.019C239.402 146.991 239.402 147.962 239.971 149.213C240.539 150.463 241.79 149.631 242.243 148.381Z" fill="#288453"/>
<path d="M240.3 147.686C240.3 147.686 239.958 144.352 238.71 145.324C237.46 146.296 237.459 147.267 238.028 148.518C238.594 149.768 239.845 148.936 240.3 147.686Z" fill="#288453"/>
<path d="M243.243 142.204C243.243 142.204 242.967 139.503 241.953 140.29C240.939 141.077 240.94 141.865 241.4 142.878C241.861 143.892 242.875 143.218 243.243 142.204Z" fill="#288453"/>
<path d="M239.189 153.294C239.189 153.294 238.957 151.037 238.112 151.696C237.267 152.354 237.267 153.012 237.652 153.857C238.036 154.702 238.881 154.139 239.189 153.294Z" fill="#288453"/>
<path d="M244.397 108.245C244.397 108.245 243.981 104.912 242.454 105.883C240.927 106.855 240.927 107.826 241.622 109.077C242.314 110.328 243.841 109.496 244.397 108.245Z" fill="#288453"/>
<path d="M225.543 159.526C225.543 159.526 221.377 157.965 219.813 160.048C219.297 160.737 219.066 161.414 218.987 162.014C218.826 163.225 219.295 164.11 219.295 164.11C219.295 164.11 215.44 160.153 212.733 162.235C210.024 164.318 213.671 166.819 213.671 166.819C213.671 166.819 211.067 165.777 208.879 166.714C206.691 167.651 208.15 170.463 208.15 170.463C208.15 170.463 209.711 172.443 211.899 171.087C214.087 169.734 213.981 169.315 213.981 169.315C213.981 169.315 215.44 169.837 217.731 168.17C220.021 166.503 220.127 165.774 220.127 165.774C220.127 165.774 222.107 167.441 223.355 166.398C224.605 165.355 225.126 164.107 225.126 164.107C225.126 164.107 225.543 166.295 227.417 166.295C229.294 166.295 232.001 156.817 225.543 159.526Z" fill="#288453"/>
<path d="M248.667 166.274C248.667 166.274 248.251 164.292 246.724 164.871C245.197 165.45 245.197 166.027 245.892 166.772C246.587 167.517 248.111 167.017 248.667 166.274Z" fill="#288453"/>
<path d="M251.582 168.773C251.582 168.773 251.166 166.79 249.639 167.37C248.112 167.949 248.112 168.526 248.807 169.271C249.502 170.016 251.029 169.518 251.582 168.773Z" fill="#288453"/>
<path d="M247.73 170.647C247.73 170.647 247.314 168.665 245.787 169.244C244.26 169.823 244.26 170.4 244.955 171.145C245.647 171.887 247.174 171.392 247.73 170.647Z" fill="#288453"/>
<path d="M254.915 173.67C254.915 173.67 254.499 171.688 252.972 172.267C251.445 172.846 251.445 173.423 252.14 174.168C252.832 174.908 254.359 174.413 254.915 173.67Z" fill="#288453"/>
<path d="M242.522 165.985C242.522 165.985 245.439 164.526 244.189 162.444C242.938 160.361 239.397 160.464 238.773 162.338C238.773 162.338 237.73 155.777 235.337 156.193C232.941 156.609 232.109 158.589 232.941 161.714C232.941 161.714 231.482 159.734 229.4 162.028C227.317 164.318 230.024 165.985 230.024 165.985C230.024 165.985 227.315 163.902 226.691 167.027C226.067 170.153 228.773 172.341 230.961 171.298C233.149 170.255 233.773 169.526 233.773 169.526C233.773 169.526 241.48 172.962 242.522 165.985Z" fill="#288453"/>
<path d="M238.217 165.874C238.217 165.874 237.604 163.312 235.35 164.06C233.096 164.808 233.096 165.556 234.121 166.514C235.142 167.475 237.396 166.835 238.217 165.874Z" fill="#33A86D"/>
<path d="M236.272 163.792C236.272 163.792 235.751 161.23 233.844 161.978C231.936 162.725 231.935 163.473 232.804 164.431C233.671 165.392 235.579 164.753 236.272 163.792Z" fill="#33A86D"/>
<path d="M232.662 164.068C232.662 164.068 232.141 161.506 230.234 162.254C228.325 163.002 228.325 163.749 229.194 164.708C230.058 165.671 231.967 165.029 232.662 164.068Z" fill="#33A86D"/>
<path d="M225.937 163.799C225.937 163.799 227.467 162.751 226.625 160.845C225.816 159.018 224.489 159.694 223.957 160.874C223.426 162.056 224.779 163.549 225.937 163.799Z" fill="#33A86D"/>
<path d="M218.566 166.398C218.566 166.398 218.502 163.741 215.801 163.831C213.1 163.92 212.915 164.644 213.826 165.866C214.737 167.085 217.415 167.098 218.566 166.398Z" fill="#33A86D"/>
<path d="M176.483 96.0918C176.483 96.0918 175.406 91.7159 175.077 88.3327C174.761 85.0942 176.649 86.4106 178.637 88.6618C180.72 91.0235 182.734 95.2572 183.289 96.2314C183.845 97.2029 178.568 99.4251 176.483 96.0918Z" fill="#1D2538"/>
<path d="M139.681 145.048C139.049 144.124 135.097 139.7 134.265 137.41C133.433 135.119 131.695 129.632 134.196 126.715C134.196 126.715 130.655 126.715 128.989 134.213C127.322 141.712 134.615 148.76 135.239 149.35C138.014 151.991 141.487 147.686 139.681 145.048Z" fill="#1D2538"/>
<path d="M207.815 163.152C207.038 161.585 204.139 160.853 204.139 160.853C203.915 160.527 203.233 159.992 203.154 159.608C202.08 154.395 201.072 149.677 200.706 148.444C199.945 145.885 199.3 141.78 197.638 135.88C195.977 129.98 189.482 134.482 190.745 140.364C191.646 144.558 198.223 161.627 198.441 161.891L201.327 164.958C202.07 165.858 203.328 166.451 204.631 165.871C205.935 165.292 208.575 164.684 207.815 163.152Z" fill="#1D2538"/>
<path d="M157.424 156.282C158.945 154.5 167.005 152.986 167.905 156.638C168.674 159.747 157.308 179.473 157.308 179.473L157.376 182.272C157.376 182.272 159.261 183.867 158.988 185.415C158.922 185.779 156.984 186.276 155.407 186.624C154.254 186.877 153.301 186.516 153.119 185.739L152.892 184.76L151.45 181.353L155.544 167.688C155.541 167.693 155.344 158.718 157.424 156.282Z" fill="#1D2538"/>
<path d="M181.067 135.883C177.594 136.37 167.318 132.342 165.651 126.51C163.985 120.678 161.902 111.51 161.902 107.761C161.902 107.761 159.125 102.205 158.013 99.0117C156.902 95.818 157.597 95.2624 159.401 96.0944C161.207 96.9264 165.233 100.955 165.233 100.955C165.233 100.955 170.509 94.4278 177.315 93.7327C184.121 93.0376 187.871 95.8153 190.093 98.7326L190.388 98.8721C190.388 98.8721 196.759 98.7326 200.229 98.3166C203.702 97.9006 205.369 98.8721 205.785 102.621C206.201 106.371 206.132 107.342 205.021 109.427C203.91 111.51 197.799 118.003 194.189 120.78C194.189 120.78 196.48 128.8 196.204 131.438C195.927 134.077 184.54 135.396 181.067 135.883Z" fill="#273150"/>
<path d="M175.304 127.618C175.304 127.618 167.318 132.339 165.651 126.507C163.985 120.675 161.902 111.507 161.902 107.758C161.902 107.758 159.125 102.203 158.013 99.0089C156.902 95.8152 157.597 95.2597 159.401 96.0917C161.207 96.9237 165.233 100.952 165.233 100.952C165.233 100.952 170.509 94.4251 177.315 93.73C177.315 93.73 172.002 100.57 170.857 104.319C169.711 108.069 174.538 119.561 174.538 119.561C174.538 119.561 181.846 121.786 181.76 122.616C181.483 125.256 175.304 127.618 175.304 127.618Z" fill="#1D2538"/>
<path d="M177.889 95.4151C177.889 95.4151 176.609 91.2683 175.806 88.488C174.903 85.3627 177.133 86.2 179.121 88.4538C181.204 90.8155 183.063 93.401 183.618 94.3725C184.174 95.3467 179.037 97.9164 177.889 95.4151Z" fill="#273150"/>
<path d="M187.402 99.6839C187.941 99.0738 187.636 97.9234 186.721 97.1146C185.806 96.3058 184.627 96.1447 184.088 96.7548C183.548 97.365 183.853 98.5153 184.768 99.3242C185.684 100.133 186.863 100.294 187.402 99.6839Z" fill="#121721"/>
<path d="M193.613 123.89C193.613 123.89 200.701 127.707 202.117 129.79L197.707 131.351C197.707 131.351 194.242 128.226 193.613 123.89Z" fill="#992C29"/>
<path d="M178.995 105.028C179.645 104.292 179.277 102.905 178.173 101.93C177.069 100.955 175.648 100.76 174.998 101.495C174.348 102.231 174.716 103.618 175.819 104.593C176.923 105.569 178.345 105.763 178.995 105.028Z" fill="#121721"/>
<path d="M182.734 121.715C182.734 121.715 171.049 119.64 165.027 126.715C159.643 133.042 156.771 135.045 149.196 138.797C144.435 141.154 138.551 140.919 135.239 147.338C133.017 151.643 134.128 157.894 136.35 163.309C141.071 168.586 177.897 158.123 180.651 156.922C188.776 153.381 193.513 146.101 196.067 142.965C198.357 140.153 198.468 131.043 192.188 125.522C189.898 123.508 186.799 122.049 182.734 121.715Z" fill="#273150"/>
<path d="M180.859 123.382C173.984 121.784 171.049 119.641 165.027 126.715C159.643 133.042 156.771 135.046 149.196 138.798C144.435 141.154 138.551 140.92 135.239 147.339C133.017 151.643 134.128 157.894 136.35 163.31C141.071 168.586 177.897 158.123 180.651 156.922C180.651 156.922 171.067 155.672 169.819 152.131C168.569 148.589 174.611 139.632 174.611 139.632C176.694 133.59 183.297 123.948 180.859 123.382Z" fill="#1D2538"/>
<path d="M202.811 105.31C204.906 103.775 205.677 101.265 204.533 99.7041C203.389 98.1428 200.764 98.1214 198.669 99.6562C196.574 101.191 195.803 103.701 196.947 105.262C198.09 106.824 200.716 106.845 202.811 105.31Z" fill="#121721"/>
<path d="M202.004 172.248C200.748 170.427 197.243 170.013 197.243 170.013C196.909 169.642 196.003 169.094 195.824 168.628C193.384 162.301 191.132 156.577 190.427 155.1C188.96 152.036 188.063 145.891 184.787 138.805C181.512 131.72 171.978 144.145 176.27 149.066C179.861 153.186 190.619 172.004 190.93 172.293L194.955 175.626C196.019 176.624 197.601 177.143 198.965 176.195C200.332 175.25 203.236 174.034 202.004 172.248Z" fill="#273150"/>
<path d="M136.037 159.782C138.438 156.069 145.641 158.602 147.039 159.576C148.511 160.598 146.044 169.513 145.97 170.716C145.892 171.975 135.157 182.298 133.093 185.079C130.863 188.083 133.649 190.89 132.245 192.28C131.534 192.985 124.578 192.893 124.483 189.8C124.394 186.877 126.253 181.822 126.279 181.585C126.332 181.119 135.091 169.597 135.239 168.971C135.384 168.357 135.323 160.885 136.037 159.782Z" fill="#1D2538"/>
<path d="M186.83 122.689C186.83 122.689 194.608 122.413 194.192 120.78C196.988 118.679 200.979 114.375 200.979 114.375L192.804 118.94L186.83 122.689Z" fill="#1D2538"/>
<path d="M164.541 123.382C164.541 123.382 163.743 125.812 164.053 127.478C164.053 127.478 170.67 128.658 181.552 128.658C187.384 128.658 195.717 127.27 195.717 127.27L194.885 122.879C194.885 122.879 178.013 126.02 164.541 123.382Z" fill="#992C29"/>
<path d="M193.25 124.182C193.25 124.182 198.216 120.193 201.125 119.99L204.97 126.504C204.97 126.504 196.178 125.635 193.25 124.182Z" fill="#C93F37"/>
<path d="M193.25 124.182C195.788 125.788 204.966 126.504 204.966 126.504C204.966 126.504 201.217 123.505 200.009 123.384C198.8 123.263 193.25 124.182 193.25 124.182Z" fill="#992C29"/>
<path d="M75.2436 46.2141C79.6195 46.5274 90.2538 55.9374 97.7417 63.9072C107.428 74.2176 119.326 85.1599 124.197 87.3426C130.24 90.0519 137.009 93.5931 139.821 93.5931C139.821 93.5931 126.801 107.461 121.488 112.147C116.175 116.834 118.989 107.461 112.115 112.147C105.24 116.834 93.5739 130.675 93.5739 130.675C93.5739 130.675 87.5314 128.89 78.5742 120.675C66.8736 109.946 48.2643 62.6592 50.8682 54.4314C53.4748 46.2009 71.0757 45.0688 75.2436 46.2141Z" fill="#992C29"/>
<path d="M75.2438 46.2139C79.6197 46.5272 90.5673 55.429 98.0553 63.3988C107.742 73.7092 120.838 84.849 125.727 86.9948C131.317 89.4461 142.741 94.3354 145.553 94.3354L140.032 98.3848C140.032 98.3848 127.496 97.6317 117.533 86.7184C105.48 73.517 85.5016 50.6161 75.2438 46.2139Z" fill="#29ACE4"/>
<path d="M55.2546 52.5201C55.2546 52.5201 44.157 52.6886 38.986 50.8377C33.8149 48.9868 35.2709 29.3032 45.5577 26.7098C57.3109 23.7452 71.4338 30.0773 79.2456 35.1667C87.0574 40.2561 83.8848 47.8678 72.5791 51.4538C61.1076 55.0898 55.2546 52.5201 55.2546 52.5201Z" fill="#229BC6"/>
<path d="M79.8646 42.3753C79.8646 48.6943 59.3201 49.0128 53.0565 49.0128C46.7928 49.0128 41.7139 43.8892 41.7139 37.5703C41.7139 31.2513 46.7928 26.1277 53.0565 26.1277C59.3201 26.1277 79.8646 36.0563 79.8646 42.3753Z" fill="#992C29"/>
<path d="M117.705 112.618C117.323 112.063 111.28 104.425 109.198 102.342C107.115 100.259 122.668 111.091 122.668 111.091C122.668 111.091 121.046 112.831 119.716 113.347C118.468 113.835 118.086 113.174 117.705 112.618Z" fill="#C93F37"/>
<path d="M108.834 97.5002L106.125 96.9789L102.463 99.7039C101.828 98.9483 102.847 93.6825 103.832 93.614C105.359 93.5061 108.571 93.2849 110.525 94.4197C111.881 95.2069 116.212 98.7666 115.38 99.6012C115.195 99.7855 114.321 99.7066 114.321 99.7066C114.124 99.804 113.384 99.6381 113.105 99.7408C112.828 99.8461 112.291 99.7803 111.846 99.5933L108.834 97.5002Z" fill="#F6874E"/>
<path d="M84.4037 56.9691C84.4037 56.9691 89.6116 69.0567 90.72 71.6659C92.7842 76.5236 88.5347 78.9538 85.6201 76.5236C82.7055 74.0935 76.8762 62.7983 75.7836 60.1286C74.6883 57.4562 81.368 53.4463 84.4037 56.9691Z" fill="#CE6D3E"/>
<path d="M85.904 60.2525C85.904 60.2525 89.7875 69.2965 90.7433 71.7346C91.8728 74.6176 88.5395 76.3 87.0467 74.536C85.2247 72.3849 83.7477 57.4774 85.904 60.2525Z" fill="#F6874E"/>
<path d="M73.3345 46.1454C75.188 44.9974 79.5402 47.2644 82.081 52.051C84.8955 57.3536 85.6749 59.5705 85.6749 59.5705C85.6749 59.5705 82.5996 59.0413 81.0831 60.4078C78.6187 62.6273 76.6967 65.1338 76.6967 65.1338C76.6967 65.1338 73.8532 59.3783 72.3366 55.508C70.9333 51.9114 70.9412 47.6303 73.3345 46.1454Z" fill="#C93F37"/>
<path d="M104.274 91.6288C105.527 94.9831 102.391 96.2812 100.517 94.8199C98.6421 93.3613 94.9508 88.0718 90.6381 83.3826C85.6725 77.9878 83.869 75.3417 87.0311 73.0327C90.1932 70.721 90.3406 70.95 95.4326 78.201C98.9318 83.1825 103.682 90.0491 104.274 91.6288Z" fill="#CE6D3E"/>
<path d="M100.312 86.5211C97.9503 89.9465 88.7325 77.206 88.7325 77.206C85.7995 73.4304 86.1101 73.4225 87.5345 72.501C90.4175 71.0423 90.4676 71.2503 93.8719 75.9553C96.5548 79.6624 101.054 85.4417 100.312 86.5211Z" fill="#F6874E"/>
<path d="M105.878 94.7565L110.162 95.1252C110.377 95.1436 110.575 95.2515 110.709 95.4227L115.741 98.8981C116.03 99.2693 116.583 99.3009 116.912 98.9639C117.154 98.7138 117.205 98.3346 117.031 98.0319L112.565 93.914C112.478 93.7613 112.342 93.6428 112.181 93.5796L104.332 90.4254C104.051 90.3122 101.902 89.5171 100.488 90.9336C99.0744 92.3501 99.809 93.8693 99.9511 94.1747L100.694 97.4895C100.702 97.5053 100.707 97.5185 100.715 97.5316L103.258 102.234C103.395 102.489 103.664 102.645 103.953 102.642L104.522 102.634C105.046 102.629 105.414 102.118 105.254 101.618L104.348 98.7796C104.306 98.6453 104.301 98.5005 104.332 98.361L105.054 95.3463C105.143 94.9777 105.493 94.725 105.878 94.7565Z" fill="#CE6D3E"/>
<path d="M94.8953 114.195C94.8953 114.195 94.116 117.739 75.0512 119.869C67.271 120.738 59.6671 120.154 53.5799 119.84C48.4589 119.577 39.0068 117.587 34.6967 116.02C30.413 114.464 26.6269 111.207 36.7267 104.109C46.8449 96.9974 90.193 101.07 94.8953 114.195Z" fill="#EC5E4D"/>
<path d="M44.7912 108.424C44.7912 108.424 41.8608 106.873 42.7981 104.998C43.7354 103.124 46.2867 103.019 46.2867 103.019L44.7912 108.424Z" fill="#C93F37"/>
<path d="M81.1694 33.4517C80.5902 41.6322 73.3945 42.867 65.0772 43.6095C60.0773 44.0571 54.7509 42.0877 51.294 38.6728C49.0007 36.4085 47.5289 33.507 47.5236 30.2554C47.5078 22.1013 56.7072 14.8214 65.0245 14.0789C73.3392 13.3364 81.7908 24.6631 81.1694 33.4517Z" fill="#273150"/>
<path d="M65.3605 16.5185C67.7452 13.0477 68.0297 9.10125 65.9959 7.70384C63.9621 6.30642 60.3801 7.98722 57.9954 11.458C55.6107 14.9288 55.3262 18.8753 57.36 20.2727C59.3938 21.6701 62.9758 19.9893 65.3605 16.5185Z" fill="#273150"/>
<path d="M58.5848 11.9557C58.9061 7.86488 57.465 4.41499 55.366 4.25012C53.2669 4.08526 51.3049 7.26785 50.9836 11.3586C50.6623 15.4494 52.1034 18.8993 54.2024 19.0641C56.3014 19.229 58.2635 16.0464 58.5848 11.9557Z" fill="#273150"/>
<path d="M58.5753 24.4221C60.2113 19.9402 58.8245 15.3167 55.4778 14.0951C52.1311 12.8735 48.0919 15.5164 46.4559 19.9982C44.82 24.4801 46.2068 29.1036 49.5535 30.3252C52.9001 31.5468 56.9394 28.9039 58.5753 24.4221Z" fill="#273150"/>
<path d="M54.3467 42.1628C59.0107 39.9375 61.006 34.3909 58.8032 29.7741C56.6004 25.1573 51.0338 23.2186 46.3698 25.4439C41.7057 27.6692 39.7105 33.2158 41.9133 37.8326C44.116 42.4494 49.6826 44.3881 54.3467 42.1628Z" fill="#273150"/>
<path d="M76.7086 29.7267C80.2608 26.6917 80.2282 20.823 76.636 16.6186C73.0437 12.4141 67.252 11.4661 63.6998 14.5011C60.1477 17.536 60.1802 23.4047 63.7725 27.6092C67.3647 31.8136 73.1564 32.7617 76.7086 29.7267Z" fill="#273150"/>
<path d="M81.1008 32.9658C80.6295 39.6428 74.7555 40.6486 67.9705 41.2542C63.8895 41.6175 59.5426 40.0114 56.7228 37.2258C54.8508 35.3775 53.6528 33.0106 53.6475 30.3566C53.6344 23.7033 61.1408 17.7634 67.9284 17.1552C74.7107 16.5523 81.6063 25.7964 81.1008 32.9658Z" fill="#48598B"/>
<path d="M65.0544 17.658C67.1031 14.6762 67.3465 11.285 65.5979 10.0836C63.8493 8.88216 60.771 10.3254 58.7222 13.3073C56.6734 16.2891 56.4301 19.6803 58.1787 20.8817C59.9272 22.0831 63.0056 20.6398 65.0544 17.658Z" fill="#48598B"/>
<path d="M58.0964 14.4544C58.3154 11.6653 57.3332 9.31327 55.9024 9.20089C54.4716 9.08851 53.1342 11.2584 52.9151 14.0474C52.6961 16.8365 53.6784 19.1885 55.1091 19.3009C56.5399 19.4133 57.8773 17.2434 58.0964 14.4544Z" fill="#48598B"/>
<path d="M60.2256 24.4292C61.9573 19.6851 61.0301 14.9884 58.1547 13.9389C55.2793 12.8893 51.5445 15.8843 49.8128 20.6283C48.0811 25.3724 49.0083 30.0691 51.8837 31.1187C54.7591 32.1683 58.4939 29.1733 60.2256 24.4292Z" fill="#48598B"/>
<path d="M56.4181 40.4578C60.426 38.5455 62.1405 33.7793 60.2477 29.8121C58.3549 25.845 53.5715 24.1791 49.5636 26.0913C45.5557 28.0035 43.8411 32.7698 45.734 36.7369C47.6268 40.7041 52.4102 42.37 56.4181 40.4578Z" fill="#48598B"/>
<path d="M75.0795 29.7692C78.132 27.1612 78.104 22.1181 75.0171 18.5051C71.9302 14.8922 66.9532 14.0775 63.9008 16.6855C60.8483 19.2935 60.8763 24.3366 63.9632 27.9496C67.0501 31.5625 72.0271 32.3772 75.0795 29.7692Z" fill="#48598B"/>
<path d="M49.6196 126.543C49.6064 129.816 50.4726 137.856 54.8274 138.067C59.098 138.275 60.7962 135.16 62.2232 130.255C64.2585 123.262 73.6342 90.2405 62.7446 89.3348C51.8549 88.4291 50.8913 93.2842 49.6722 99.6242C48.4532 105.967 49.6459 120.485 49.6196 126.543Z" fill="#273150"/>
<path d="M50.1412 131.922C50.2939 132.604 53.1611 127.546 53.1611 127.546C53.1611 127.546 52.9478 116.865 54.6197 115.672C60.4516 110.88 65.8701 113.381 65.8701 113.381C68.295 102.45 69.6194 89.9064 62.7449 89.335C51.8552 88.4293 50.8915 93.2844 49.6725 99.6244C48.9669 103.305 49.0722 109.74 49.2776 115.677C49.4276 119.971 49.3592 128.434 50.1412 131.922Z" fill="#102441"/>
<path d="M47.3108 136.965C38.7855 152.965 41.0129 168.141 40.489 187.163C40.281 194.712 44.8148 193.467 46.0786 187.753C47.7295 180.302 52.9505 164.723 58.577 143.486C60.3489 138.173 52.8794 126.512 47.3108 136.965Z" fill="#CE6D3E"/>
<path d="M48.4299 134.047C50.8864 128.96 55.5835 127.849 59.1089 129.524C61.4232 130.622 61.8814 131.717 59.9699 139.044C58.7745 143.62 57.9715 145.95 57.832 146.301C57.832 146.301 52.2239 143.252 44.5148 143.486C44.5148 143.483 46.7633 137.499 48.4299 134.047Z" fill="#102441"/>
<path d="M48.8855 138.146C41.5318 151.95 43.2432 165.399 42.7903 181.81C42.7456 183.424 42.6324 184.725 42.814 185.807C43.23 188.271 45.8471 189.34 46.6686 185.633C48.093 179.204 53.7511 162.092 58.6061 143.77C60.1332 139.189 53.6905 129.128 48.8855 138.146Z" fill="#F6874E"/>
<path d="M49.4121 135.047C49.4121 135.047 52.7453 126.506 59.3539 128.278C61.5603 128.868 62.0131 131.501 60.0701 138.486C58.7246 143.33 58.0901 145.826 57.9637 146.2C57.9637 146.2 53.1692 143.041 46.5054 143.423L49.4121 135.047Z" fill="#273150"/>
<path d="M60.0358 133.936C60.0358 133.936 56.1128 134.632 54.7226 133.104C54.7226 133.104 55.3466 135.674 56.7368 136.159C58.1243 136.646 59.4092 135.256 59.4092 135.256L58.1585 135.116L60.0358 133.936Z" fill="#102441"/>
<path d="M41.8234 189.456C42.4237 194.909 43.0398 201.894 54.643 200.567C60.5275 199.893 53.2476 193.058 51.1307 190.515C51.1307 190.515 47.4341 186.336 47.1208 185.67C46.323 183.969 43.5243 183.548 42.0104 187.005C41.2258 188.79 41.7365 188.664 41.8234 189.456Z" fill="#F6874E"/>
<path d="M39.4116 192.753C39.2299 193.711 39.7117 194.101 41.0597 194.959C43.8927 196.765 48.4608 198.34 53.0579 197.855C58.8318 197.25 47.1207 195.043 46.0781 193.69C45.0354 192.337 44.6168 189.63 43.7874 187.805C42.8159 185.67 42.5368 184.109 41.5995 185.775C40.6622 187.439 39.6169 191.67 39.4116 192.753Z" fill="#CE6D3E"/>
<path d="M40.4887 187.266C40.4887 187.266 40.307 187.414 41.3576 189.42C45.3148 196.989 47.3211 197.055 52.2235 197.024C55.4541 197.003 50.4174 190.705 50.4174 190.705L47.3264 186.008C47.3264 186.008 49.9487 189.141 52.8976 192.492C54.7116 194.551 56.8811 196.294 57.6526 197.558C58.9927 199.42 60.4698 202.411 58.8874 202.753C53.5742 203.898 46.5312 202.532 45.2253 201.868C43.9194 201.205 43.7667 199.364 42.1185 197.442C41.4945 196.713 39.8621 195.984 39.7568 195.325C39.6462 193.627 39.1222 192.408 39.5067 190.378C39.9148 188.227 40.4887 187.266 40.4887 187.266Z" fill="#992C29"/>
<path d="M80.5429 179.175C79.5872 182.848 80.4797 183.527 81.4908 184.691C88.9814 193.326 90.7507 189.988 91.9486 190.557C95.9427 192.455 96.0639 187.671 94.2603 186.67C92.5252 185.707 89.7054 181.805 87.5148 179.812C86.4906 178.88 86.4143 178.298 85.0162 178.111C83.5628 177.919 80.9484 177.624 80.5429 179.175Z" fill="#F6874E"/>
<path d="M80.5668 183.74C84.7716 194.627 93.7787 191.815 95.5533 190.988C96.2852 190.646 91.5618 185.32 91.5618 185.32C91.5618 185.32 86.2302 183.893 83.3498 182.61C80.3325 181.268 79.3162 180.507 80.5668 183.74Z" fill="#CE6D3E"/>
<path d="M80.2562 179.322C80.559 178.762 80.6169 179.017 80.7143 179.425C81.4674 182.585 81.7254 183.848 84.253 186.563C85.1139 187.487 85.0929 189.551 92.2938 189.912C95.348 190.065 91.5619 185.323 91.5619 185.323L87.2834 179.557L88.5551 180.802C88.5551 180.802 93.5787 186.4 95.5481 187.692C97.478 188.959 99.7107 195.009 97.8677 195.183C93.1627 195.625 88.6762 195.128 84.9296 194.222C83.184 193.701 82.1414 190.036 81.47 189.799C81.47 189.799 79.6348 188.477 79.6164 187.495C79.6006 186.547 79.8323 180.107 80.2562 179.322Z" fill="#992C29"/>
<path d="M87.9507 132.41C87.9507 132.41 90.8679 110.897 86.8054 99.9621C84.3752 93.4167 79.8045 92.2056 74.8546 92.3636C69.9048 92.5216 68.8938 96.4156 69.6283 100.583C70.3629 104.751 73.812 127.552 75.555 132.773C77.427 138.381 81.1236 137.979 83.5063 137.968C86.2788 137.952 87.3556 136.501 87.9507 132.41Z" fill="#273150"/>
<path d="M79.4083 115.883C81.2829 114.633 88.8683 114.012 88.8683 114.012C88.7919 109.043 88.2654 103.901 86.8015 99.9624C84.3713 93.417 79.8006 92.2058 74.8507 92.3638C69.9009 92.5218 68.8899 96.4159 69.6244 100.584C69.943 102.393 70.7724 107.714 71.7544 113.585C71.7544 113.585 74.0924 127.345 75.0298 130.504C75.2088 130.412 75.7933 127.137 76.6964 121.929C77.3836 120.107 77.5336 117.134 79.4083 115.883Z" fill="#102441"/>
<path d="M75.7909 137.228C71.9363 150.098 75.6961 156.159 80.6617 179.505C81.1199 181.658 85.4958 183.186 86.6226 179.942C86.8096 179.405 86.7279 178.381 86.7279 177.209C86.7279 168.552 89.0396 147.139 87.6205 138.848C86.5226 132.452 77.6892 130.886 75.7909 137.228Z" fill="#F6874E"/>
<path d="M74.1614 145.438C74.0824 147.613 74.1851 150.777 75.0513 155.185C76.3467 161.783 78.6057 170.066 78.8874 171.504C79.3561 173.9 80.6831 179.784 81.049 181.269C81.2781 182.199 84.0953 183.17 84.0953 183.17C84.0953 183.17 82.3181 178.139 81.9074 176.851C81.0596 174.187 76.9049 155.301 75.9544 145.817C75.8464 144.722 74.2404 143.24 74.1614 145.438Z" fill="#CE6D3E"/>
<path d="M74.8376 134.787C76.3041 130.327 78.3025 129.356 81.8253 129.272C84.7926 129.2 87.286 129.032 87.5729 136.02C87.7599 140.577 87.9363 143.895 88.1548 145.777C88.1548 145.777 84.3108 144.208 74.1057 145.83C74.1083 145.83 73.8661 137.744 74.8376 134.787Z" fill="#273150"/>
<path d="M74.8379 134.788C75.1434 133.911 75.2092 136.915 75.2092 136.915L75.9622 145.577C75.9622 145.577 75.5488 145.601 74.1086 145.83C74.1086 145.83 73.8243 140.606 74.8379 134.788Z" fill="#102441"/>
<path d="M86.6437 134.937C86.6437 134.937 83.0761 134.803 81.6675 134.021C80.2589 133.239 84.282 138.721 86.6437 134.937Z" fill="#102441"/>
<path d="M75.0352 74.8572C70.5882 79.5227 57.4659 74.6913 56.9103 70.2601C56.6733 68.375 55.9914 63.9965 53.9931 56.003C52.7424 51.0031 52.5344 49.3654 53.09 48.6625C54.5486 46.8168 60.0382 46.1612 65.6594 45.3108C74.9299 43.9048 75.5881 46.1243 78.6449 50.4318C82.3678 55.6844 83.7843 65.6789 75.0352 74.8572Z" fill="#F6BE4A"/>
<path d="M59.9303 56.3029C55.4833 60.9684 57.4658 74.691 56.9103 70.2599C56.6733 68.3747 55.9914 63.9962 53.9931 56.0027C52.7424 51.0028 52.5344 49.3652 53.09 48.6622C54.5486 46.8165 60.0382 46.1609 65.6594 45.3105C74.9299 43.9045 75.5802 46.0951 78.8108 50.6C82.56 55.8316 68.6794 47.1246 59.9303 56.3029Z" fill="#D09435"/>
<path d="M57.3265 65.887C56.6314 68.4909 56.7604 75.139 56.9789 71.1633C57.0842 69.2676 53.9932 55.5871 53.9932 55.5871L68.3662 50.5398L58.922 59.0809C58.9246 59.0809 58.0216 63.283 57.3265 65.887Z" fill="#D09435"/>
<path d="M55.4519 72.5533C55.4519 72.5533 37.0058 98.3926 35.6972 101.792C34.386 105.201 30.1181 109.577 30.3024 111.367C31.532 107.963 42.7613 109.074 44.786 108.424C44.786 108.424 40.676 105.715 44.1462 104.467C47.6164 103.219 55.5361 103.082 60.1911 103.161C74.0875 103.403 90.1772 106.073 94.9059 114.387C94.9059 114.387 86.9887 75.4811 76.0122 67.019C65.2594 58.7253 55.4519 72.5533 55.4519 72.5533Z" fill="#F6BE4A"/>
<path d="M77.5339 52.6065C79.3559 53.5965 80.9883 55.6607 80.9883 55.6607C80.9883 55.6607 80.6591 53.3332 79.0452 51.0426C77.8288 49.3154 73.3687 51.6666 73.3687 51.6666C73.3687 51.6666 76.3781 51.9799 77.5339 52.6065Z" fill="#D09435"/>
<path d="M75.3331 70.8054C72.587 73.0776 59.1144 72.5879 61.147 66.8034C62.1185 64.0336 68.2611 60.6345 72.6738 60.1264C79.9485 59.2891 81.2834 65.8872 75.3331 70.8054Z" fill="#FEED7F"/>
<path d="M87.9498 102.134L62.1185 100.052C55.6758 100.052 47.1188 88.3853 49.2041 85.0521C51.2867 81.7188 59.8989 71.0266 59.8989 71.0266C60.802 66.5823 62.3449 63.249 68.7876 63.249C68.7876 63.249 76.1492 63.665 79.2033 71.7217C79.2033 71.7217 87.1205 83.6987 88.3685 92.8665C89.2847 99.5883 87.9498 102.134 87.9498 102.134Z" fill="#FEED7F"/>
<path d="M57.0002 99.1326C54.6016 99.3011 52.4927 100.367 50.2889 93.5193C50.2916 93.5193 52.7191 97.021 57.0002 99.1326Z" fill="#FEED7F"/>
<path d="M49.4802 82.5532C49.4802 82.5532 50.1753 87.8296 52.5344 91.3024C52.5344 91.3024 50.4518 85.3309 50.5913 81.7186C50.7308 78.1063 49.4802 82.5532 49.4802 82.5532Z" fill="#F6BE4A"/>
<path d="M86.5229 102.574C86.615 101.21 87.1074 96.8897 86.1674 94.7202C86.1674 94.7202 88.179 98.2009 88.0815 101.784C87.9868 105.368 86.4307 103.938 86.5229 102.574Z" fill="#F6BE4A"/>
<path d="M56.4498 75.1235C56.4498 75.1235 59.4039 70.4607 65.1199 68.5176C65.1199 68.5176 58.2954 69.3627 55.8679 72.6934C53.4404 76.024 56.4498 75.1235 56.4498 75.1235Z" fill="#F6BE4A"/>
<path d="M68.103 49.9845L67.4975 50.0766C65.9625 50.311 64.5276 49.2578 64.2932 47.7228L63.398 41.8752C63.1637 40.3402 64.2169 38.9052 65.7519 38.6709L66.3574 38.5788C67.8924 38.3444 69.3273 39.3976 69.5616 40.9326L70.4568 46.7802C70.6938 48.3152 69.638 49.7502 68.103 49.9845Z" fill="#F6874E"/>
<path d="M67.247 43.1125L66.236 43.2678C64.8116 43.4864 63.482 42.5096 63.2635 41.0852L62.3077 34.832C62.0892 33.4076 63.066 32.078 64.4904 31.8595L65.5014 31.7041C66.9258 31.4856 68.2555 32.4624 68.474 33.8868L69.4297 40.14C69.6482 41.5644 68.6714 42.8966 67.247 43.1125Z" fill="#CE6D3E"/>
<path d="M46.3889 58.8045C44.6169 63.2489 41.7576 71.1897 40.9572 72.5377C40.1568 73.8858 40.1305 75.9447 42.2631 76.9979C44.3931 78.0537 46.0019 77.5218 46.9629 76.3765C47.9239 75.2312 53.4029 65.9555 54.5482 62.2405C55.4487 59.3232 54.8405 56.1216 53.2634 55.366C51.6863 54.6103 48.1608 54.3602 46.3889 58.8045Z" fill="#F6874E"/>
<path d="M46.3887 58.8041C44.6168 63.2484 41.7575 71.1892 40.9571 72.5373C40.7122 72.9506 40.5384 73.4851 40.5095 73.7774C40.4463 74.433 40.9228 74.4909 41.5889 73.6984C42.1155 73.0717 45.9859 65.2125 47.326 60.8762C48.4292 57.3033 47.1891 56.7952 46.3887 58.8041Z" fill="#CE6D3E"/>
<path d="M56.0069 48.249C53.6953 47.4486 50.5568 48.6992 48.3689 54.0124C47.221 56.8033 45.6254 60.5393 45.6254 60.5393C45.6254 60.5393 49.2378 61.108 53.8875 64.0121C53.8875 64.0121 55.3645 61.0949 56.4229 58.3883C58.6451 52.6933 57.8131 48.873 56.0069 48.249Z" fill="#EC5E4D"/>
<path d="M56.0069 48.249C53.6953 47.4486 50.5568 48.6992 48.3689 54.0124C47.221 56.8033 45.6254 60.5393 45.6254 60.5393L47.2578 60.8869L50.7649 57.9196L57.118 56.1661C58.5293 51.4664 57.6156 48.8071 56.0069 48.249Z" fill="#C93F37"/>
<path d="M27.69 88.8693C27.69 88.8693 25.4468 91.1862 26.1787 92.4974C26.8685 93.727 29.3382 94.7301 31.0996 93.3004C32.861 91.8708 38.5217 88.1557 46.0466 78.0375C49.2561 73.7248 43.0214 70.7207 40.5306 73.4457C38.0399 76.1708 27.69 88.8693 27.69 88.8693Z" fill="#F6874E"/>
<path d="M29.8987 86.4421L35.4542 83.1773L42.1654 72.5088C42.1654 72.5088 41.2465 72.6457 40.5304 73.4487C38.0739 76.2027 29.8987 86.4421 29.8987 86.4421Z" fill="#CE6D3E"/>
<path d="M22.4684 96.6862C22.4684 96.6862 20.0409 100.87 19.3932 101.894C18.8271 102.787 17.9846 102.02 18.2452 101.415C18.5059 100.809 20.291 96.4967 22.4684 96.6862Z" fill="#CE6D3E"/>
<path d="M20.9415 96.6862C20.9415 96.6862 18.514 100.87 17.8663 101.894C17.3002 102.787 16.4577 102.02 16.7183 101.415C16.979 100.809 18.7614 96.4967 20.9415 96.6862Z" fill="#CE6D3E"/>
<path d="M31.265 92.2077C31.0386 93.6689 30.1276 95.928 27.9133 98.3476C26.2046 100.214 25.8175 101.157 25.1936 102.51C25.0356 102.85 24.6196 103.274 24.2036 103.656C22.8766 104.872 22.3369 104.682 22.1999 103.874C22.042 102.926 22.5106 102.21 23.3426 100.949C23.7692 100.301 23.8481 99.5245 23.9929 99.1006C24.1799 98.5635 24.2536 97.2786 22.6976 97.0101C21.0994 96.7336 20.2279 94.6378 20.7624 93.8664C21.6997 92.5131 27.8212 89.014 28.5268 89.2167C30.0907 89.509 31.4915 90.7464 31.265 92.2077Z" fill="#F6874E"/>
<path d="M23.2215 95.0464C23.7507 95.1964 24.4458 96.2338 23.7323 96.871C23.0188 97.5081 19.2959 99.4091 18.2664 100.654C17.0421 102.137 16.3681 103.432 15.6072 103.827C14.6356 104.33 13.3903 104.264 14.396 102.719C15.8204 100.531 16.8762 98.1611 19.3196 96.9499C21.7655 95.7388 22.6923 94.8963 23.2215 95.0464Z" fill="#F6874E"/>
<path d="M23.0925 96.8788C24.28 95.6545 22.9635 92.6451 22.092 92.8926C21.2205 93.1401 17.2422 96.3943 16.3181 96.8182C15.3939 97.2421 13.3008 100.307 12.84 101.397C12.3766 102.487 12.3371 103.161 13.6115 102.837C14.8858 102.513 16.376 98.8929 18.1242 97.9793C19.8725 97.0657 21.9051 98.1031 23.0925 96.8788Z" fill="#F6874E"/>
<path d="M53.6451 57.9697C53.6451 57.9697 49.7616 58.7464 48.3741 59.5916C46.9865 60.4367 47.3262 60.8764 47.3262 60.8764L53.6451 57.9697Z" fill="#C93F37"/>
<path d="M72.2209 49.4281C64.5644 54.636 47.1951 56.4421 47.2504 56.2789C47.806 54.607 51.5631 46.3028 55.4519 45.6078C58.0611 45.5999 68.282 45.6973 72.2209 49.4281Z" fill="#229BC6"/>
<path d="M74.896 45.1946C72.3973 44.639 67.2553 48.7595 66.9762 49.8706C66.6971 50.9817 75.3462 49.2571 91.0751 58.5276C96.4778 61.7107 78.9217 46.1661 74.896 45.1946Z" fill="#29ACE4"/>
<path d="M69.098 50.0473C69.4964 50.0473 69.8194 49.7243 69.8194 49.3259C69.8194 48.9275 69.4964 48.6045 69.098 48.6045C68.6995 48.6045 68.3765 48.9275 68.3765 49.3259C68.3765 49.7243 68.6995 50.0473 69.098 50.0473Z" fill="#273150"/>
<path d="M75.6515 11.8098C76.4414 12.0757 76.3492 16.0013 74.3851 15.7433C72.5368 15.5011 70.5042 14.935 71.1256 13.795C71.7443 12.6576 74.8616 11.5438 75.6515 11.8098Z" fill="#C93F37"/>
<path d="M75.8647 13.0868C75.8647 13.0868 75.5461 15.4617 74.8695 15.5591C74.1902 15.6539 74.7826 14.5402 74.9379 12.9894C75.0933 11.4386 75.9726 12.089 75.8647 13.0868Z" fill="#F7BC4B"/>
<path d="M70.7964 14.7642C70.7964 14.7642 74.256 17.721 77.5445 18.84C80.03 19.6851 81.9362 19.722 81.9362 19.722L81.357 18.94L82.418 18.058C82.418 18.058 77.9816 18.0185 71.6468 14.2061L70.7964 14.7642Z" fill="#C93F37"/>
<path d="M72.4943 15.8408C72.4943 15.8408 75.0798 19.3241 77.9944 20.9855C80.1981 22.2414 82.0517 22.6073 82.0517 22.6073L81.6936 21.7464L82.9706 21.0724C82.9706 21.0724 78.6395 20.2641 73.4763 15.4485L72.4943 15.8408Z" fill="#C93F37"/>
<path d="M55.1179 31.7334C56.7207 30.633 57.0045 28.2619 55.7518 26.4374C54.4992 24.6129 52.1844 24.0258 50.5817 25.1262C48.9789 26.2266 48.6951 28.5977 49.9477 30.4222C51.2004 32.2468 53.5151 32.8338 55.1179 31.7334Z" fill="#CE6D3E"/>
<path d="M66.3572 15.4041C67.2366 16.9522 64.2641 18.811 61.0941 20.6119C57.9267 22.4128 54.6435 22.6182 53.7641 21.0674C52.8847 19.5193 54.7383 16.8021 57.9056 15.0012C61.0756 13.203 65.4778 13.8559 66.3572 15.4041Z" fill="#273150"/>
<path d="M52.2712 26.2249C52.3871 16.8281 60.0304 14.0345 61.9287 13.6712C71.3966 11.8545 75.6567 17.4652 77.4655 27.3965C78.7872 34.6528 74.4929 36.6906 70.196 38.3309C65.025 40.3056 52.1291 37.9623 52.2712 26.2249Z" fill="#CE6D3E"/>
<path d="M55.3939 29.2554C55.902 22.1387 62.7423 19.6901 64.4274 19.332C64.4274 19.332 73.6241 21.5674 75.396 22.9602C77.168 24.353 77.4944 29.0343 77.4944 29.0343C78.3422 34.4659 74.4798 36.1958 70.6279 37.628C65.9992 39.3473 54.7594 38.1415 55.3939 29.2554Z" fill="#F6874E"/>
<path d="M58.2796 17.1232C63.2557 13.4003 71.2018 14.9037 71.2018 14.9037C71.2018 14.9037 63.6717 8.91645 56.8157 14.9958C50.6652 20.4485 52.3634 25.2799 53.2297 28.1656C53.2297 28.1656 52.3977 21.5254 58.2796 17.1232Z" fill="#F6BE4A"/>
<path d="M63.1109 25.5139C63.6577 25.4159 63.9525 24.5091 63.7695 23.4886C63.5866 22.4681 62.995 21.7203 62.4482 21.8183C61.9015 21.9164 61.6066 22.8231 61.7896 23.8436C61.9726 24.8641 62.5642 25.6119 63.1109 25.5139Z" fill="#273252"/>
<path d="M72.5915 24.1862C73.0483 24.0904 73.2604 23.2582 73.0651 22.3275C72.8699 21.3967 72.3413 20.7199 71.8845 20.8157C71.4276 20.9116 71.2156 21.7438 71.4108 22.6745C71.6061 23.6052 72.1347 24.2821 72.5915 24.1862Z" fill="#273252"/>
<path d="M62.3713 18.3555C62.3713 18.3555 61.0364 18.6003 60.7363 19.8167" stroke="#273252" stroke-miterlimit="10" stroke-linecap="round" stroke-linejoin="round"/>
<path d="M72.4209 18.021C72.4209 18.021 71.5494 17.2733 70.6463 17.3996" stroke="#273252" stroke-miterlimit="10" stroke-linecap="round" stroke-linejoin="round"/>
</svg>
