<svg width="287" height="342" viewBox="0 0 287 342" fill="none" xmlns="http://www.w3.org/2000/svg">
<path d="M137.573 251.992C101.44 252.361 72.5031 260.152 44.6623 267.861C25.9996 273.028 10.1195 285.206 16.4708 285.575C22.8221 285.944 33.5466 284.837 33.5466 284.837C33.5466 284.837 -9.93448 307.877 2.57619 318.051C12.1234 325.801 54.3386 315.468 57.5161 314.73C60.6936 313.992 52.3495 320.635 84.4565 323.956C96.3324 325.185 99.2184 315.099 99.2184 313.623C109.574 311.154 125.052 315.099 125.052 315.099C125.052 315.099 118.04 328.016 142.766 332.075C178.766 337.98 193 329.676 204.275 328.016C224.325 325.063 216.206 312.885 216.206 312.885C216.206 312.885 281.701 315.099 286.067 305.135C278.523 288.897 229.289 274.873 229.289 274.873C229.289 274.873 251.524 270.444 228.894 264.54C206.264 258.635 173.703 251.623 137.573 251.992Z" fill="#BB83C3"/>
<path d="M145.718 253.837C126.158 254.206 107.234 260.166 100.325 265.647C93.4166 271.127 119.516 273.766 119.516 273.766C119.516 273.766 113.341 283.892 140.551 276.349C167.946 268.754 188.527 270.444 189.634 265.647C190.742 260.849 165.277 253.468 145.718 253.837Z" fill="#856792"/>
<path d="M117.645 296.278C114.154 297.521 114.486 300.706 121.8 299.23C129.115 297.754 122.468 295.484 117.645 296.278Z" fill="#856792"/>
<path d="M42.0158 320.265C37.9563 321.742 37.4064 326.395 44.6693 324.694C50.8729 323.218 46.0753 318.789 42.0158 320.265Z" fill="#BB83C3"/>
<path d="M39.4326 289.11C33.6497 291.014 -2.09247 309.485 27.756 308.153C43.0272 307.47 53.8033 305.444 66.3767 300.337C78.1862 295.539 77.4481 290.236 82.2457 286.682C95.5314 277.729 101.436 276.349 95.1624 273.765C78.8062 267.03 39.1891 272.747 49.4006 281.884C56.4125 288.158 42.0197 291.479 42.0197 291.479C42.0197 291.479 45.1012 287.243 39.4326 289.11Z" fill="#856792"/>
<path d="M87.501 317.417C79.906 317.494 24.8775 344.907 86.1466 340.556C137.075 336.939 103.407 323.727 103.407 323.727C103.407 323.727 138.643 312.464 112.751 311.147C83.829 309.674 87.501 317.417 87.501 317.417Z" fill="#BB83C3"/>
<path d="M176.718 275.241C181.516 271.551 216.944 278.194 223.587 288.527C226.705 293.376 201.444 298.122 198.861 300.337C196.277 302.551 203.658 311.777 191.111 315.837C178.563 319.896 159.742 324.694 152.361 322.479C144.98 320.265 127.266 314.36 129.111 309.932C130.956 305.503 151.254 305.134 159.004 299.229C166.754 293.325 178.563 287.42 175.98 284.099C173.397 280.777 171.92 278.932 176.718 275.241Z" fill="#856792"/>
<path d="M77.2231 288.158C63.0148 288.158 48.8065 304.396 66.3953 304.396C83.984 304.396 91.4314 288.158 77.2231 288.158Z" fill="#856792"/>
<path d="M271.659 339.29C280.232 336.337 272.685 330.938 263.171 331.108C253.657 331.278 263.075 342.249 271.659 339.29Z" fill="#BB83C3"/>
<path d="M255.177 338.083C274.644 333.95 277.564 317.534 239.426 319.368C201.289 321.203 235.714 342.212 255.177 338.083Z" fill="#BB83C3"/>
<path d="M219.896 301.813C214.73 304.765 228.015 310.301 230.968 304.765C233.92 299.23 225.063 298.861 219.896 301.813Z" fill="#856792"/>
<path d="M37.9049 74.2997C37.9049 74.2997 15.0498 88.5043 21.3494 95.1471L146.305 29.0546C146.305 29.0546 145.936 16.0125 133.824 17.9832C133.824 17.9832 127.808 -4.24078 109.415 0.722898C91.0217 5.68657 87.6413 25.7332 87.6413 25.7332C87.6413 25.7332 81.135 17.5551 68.7276 22.0759C50.8732 28.6117 52.0726 64.0254 52.0726 64.0254C52.0726 64.0254 48.0979 56.5153 36.5468 63.3722C27.793 68.5758 37.9049 74.2997 37.9049 74.2997Z" fill="#F3E7D9"/>
<path d="M191.111 94.0398C191.111 94.0398 192.956 80.7541 201.445 80.7541C201.445 80.7541 196.278 76.3255 204.028 72.266C211.778 68.2065 215.837 67.0994 222.48 70.4208C222.48 70.4208 212.147 49.0161 239.456 40.159C266.766 31.3019 284.111 51.9685 275.254 55.6589C266.397 59.3494 252.373 70.0517 243.147 70.4208L191.111 94.0398Z" fill="#F3E7D9"/>
<path d="M126.528 198.849L106.599 208.075C106.599 208.075 114.349 197.003 102.909 195.896C91.4684 194.789 69.6947 217.67 69.6947 217.67C69.6947 217.67 57.5162 206.599 40.54 213.611C23.5639 220.622 20.6115 237.23 20.6115 237.23C20.6115 237.23 6.58774 240.551 1.42109 248.67C-3.74556 256.789 6.58774 253.099 20.2425 249.039C33.8972 244.98 95.897 220.992 112.504 215.825C129.111 210.658 130.218 198.111 126.528 198.849Z" fill="#F3E7D9"/>
<path d="M82.8292 272.076C82.8292 272.076 85.6266 271.5 89.7562 272.651C93.8858 273.803 93.1773 277.213 92.8636 278.062C92.5499 278.91 88.9148 280.593 80.9655 280.032C73.0163 279.471 72.8059 278.973 68.3294 279.191C63.4617 279.427 65.5947 271.212 66.9971 268.61C68.3995 266.009 82.8292 272.076 82.8292 272.076Z" fill="#EE5D4F"/>
<path d="M82.353 268.042C82.353 268.042 84.7518 267.403 88.911 268.566C93.0701 269.728 93.2546 275.323 92.9446 276.176C92.6347 277.028 88.9811 278.722 81.0097 278.161C73.0383 277.6 70.6985 278.014 66.2478 277.334C63.7974 276.965 65.5835 269.289 66.9859 266.673C68.3883 264.056 82.353 268.042 82.353 268.042Z" fill="#121721"/>
<path d="M68.9051 185.249C69.5804 185.777 92.4466 219.368 92.4466 219.368C92.4466 219.368 94.5907 226.675 94.17 228.576C93.7493 230.476 83.7555 267.694 83.7555 267.694L76.7436 269.171L68.728 267.023L76.9245 228.192C76.9245 228.192 52.5859 192.815 51.4603 191.147C50.3347 189.479 58.9925 177.533 68.9051 185.249Z" fill="#1D2538"/>
<path d="M74.8613 194.421C75.5367 194.948 92.4464 219.368 92.4464 219.368C92.4464 219.368 94.5905 226.675 94.1698 228.576C93.7491 230.476 83.7553 267.695 83.7553 267.695L76.7435 269.171L80.028 258.635L89.2541 224.682C89.2541 224.682 80.7661 210.851 79.6589 209.183C78.5518 207.514 64.9524 186.704 74.8613 194.421Z" fill="#273252"/>
<path d="M63.7458 287.339C63.7458 287.339 66.4657 286.79 70.54 287.889C74.6142 288.989 74.0053 292.255 73.7248 293.056C73.4443 293.857 69.9273 295.481 62.1368 294.942C54.3462 294.403 54.1248 293.927 49.7516 294.134C44.9946 294.362 46.8656 286.502 48.1683 284.011C49.4711 281.52 63.7458 287.339 63.7458 287.339Z" fill="#EE5D4F"/>
<path d="M63.1739 283.479C63.1739 283.479 65.5026 282.87 69.599 283.981C73.6954 285.092 74.0275 290.447 73.7507 291.262C73.474 292.078 69.9459 293.702 62.1295 293.159C54.3131 292.617 52.0361 293.023 47.6813 292.369C45.2751 292 46.8214 284.675 48.1278 282.169C49.4343 279.663 63.1739 283.479 63.1739 283.479Z" fill="#121721"/>
<path d="M33.2331 178.829C33.2331 178.829 29.5094 185.147 32.281 192.358C35.0045 199.433 44.9208 209.083 63.4211 192.207C74.7841 181.84 44.8396 172.555 33.2331 178.829Z" fill="#273252"/>
<path d="M35.4105 197.786C48.3271 214.283 58.2914 228.956 58.2914 228.956C57.9666 231.595 58.9999 231.595 58.9999 231.595L46.0759 277.087C46.0759 277.087 45.574 282.342 47.8363 283.32C50.0985 284.298 59.9853 284.616 59.9853 284.616L65.7276 283.32C65.7276 283.32 81.914 235.322 82.2831 234.204C82.6521 233.086 83.8331 227.421 82.8551 225.133C81.8771 222.845 69.5251 201.064 59.4243 187.778C48.9729 174.053 21.9735 180.63 35.4105 197.786Z" fill="#273252"/>
<path d="M35.4105 197.786C48.3271 214.283 58.2914 228.956 58.2914 228.956C57.9666 231.595 58.9999 231.595 58.9999 231.595L46.0759 277.087C46.0759 277.087 45.574 282.342 47.8363 283.32C50.0985 284.298 59.9853 284.616 59.9853 284.616L65.7276 283.32L55.6711 273.766C55.6711 273.766 65.8789 233.289 66.0598 232.743C66.4288 231.635 50.0063 201.137 49.0283 198.849C48.0503 196.561 59.4243 187.778 59.4243 187.778C48.9729 174.053 21.9735 180.63 35.4105 197.786Z" fill="#1D2538"/>
<path d="M116.372 106.614C109.404 107.474 85.6118 109.241 77.5703 111.781C69.5288 114.32 72.1195 129.705 82.7665 128.587C93.4135 127.469 114.427 126.373 121.321 124.402C128.215 122.431 123.339 105.758 116.372 106.614Z" fill="#7A462F"/>
<path d="M113.01 116.294C113.01 116.294 110.091 123.306 109.508 123.885C107.663 125.73 88.9297 128.314 99.5804 127.207C110.231 126.1 114.427 126.369 121.321 124.406C128.215 122.442 113.01 116.294 113.01 116.294Z" fill="#A96443"/>
<path d="M122.837 123.563C122.837 123.563 102.071 132.258 100.325 135.742C98.4803 138.694 95.6201 148.658 106.551 144.997C117.482 141.336 129.646 133.498 130.303 130.018C130.96 126.538 132.37 121.869 122.837 123.563Z" fill="#F5894E"/>
<path d="M72.9275 132.163C72.9275 132.163 95.7125 131.794 103.093 132.465C110.474 133.137 114.084 140.499 106.946 144.714C99.8089 148.928 85.6929 145.242 77.3081 145.526C68.9234 145.81 62.8932 135.742 72.9275 132.163Z" fill="#CC6D3D"/>
<path d="M72.9275 132.163C72.9275 132.163 95.7125 131.794 103.093 132.465C110.474 133.137 114.084 140.499 106.946 144.714C99.8089 148.928 85.6929 145.242 77.3081 145.526C68.9234 145.81 62.8932 135.742 72.9275 132.163Z" fill="#F5894E"/>
<path d="M72.9275 132.163L85.5637 137.588C85.5637 137.588 89.959 142.887 92.5756 143.123C99.9565 143.788 114.084 140.499 106.946 144.714C99.8089 148.928 85.6929 145.242 77.3081 145.526C68.9234 145.81 62.8932 135.742 72.9275 132.163Z" fill="#CC6D3D"/>
<path d="M106.599 141.278L102.171 143.492C102.171 143.492 95.62 148.659 106.551 144.998C117.482 141.337 129.646 133.498 130.303 130.018C130.643 128.224 122.649 122.759 117.302 125.778C115.803 126.623 116.272 134.849 114.718 135.742C111.057 137.842 108.983 140.274 106.599 141.278Z" fill="#CC6D3D"/>
<path d="M168.732 155.338C168.732 155.338 149.885 150.386 147.877 149.615C145.87 148.843 136.692 156.368 146.087 161.206C155.483 166.044 161.587 167.849 168.23 167.48C174.504 167.133 173.884 158.339 168.732 155.338Z" fill="#F5894E"/>
<path d="M179.914 148.065C179.914 148.065 170.599 154.933 166.016 157.011C161.432 159.088 164.049 167.765 169.046 167.292C174.043 166.82 184.675 160.218 186.808 156.697C188.941 153.176 188.103 144.821 179.914 148.065Z" fill="#F5894E"/>
<path d="M179.914 148.065C179.914 148.065 170.599 154.933 166.016 157.011C161.432 159.088 162.484 165.369 167.492 164.897C172.5 164.425 184.686 160.218 186.819 156.697C188.952 153.176 188.103 144.821 179.914 148.065Z" fill="#CC6D3D"/>
<path d="M195.281 141.097C195.281 141.097 194.543 140.384 186.284 144.51C181.693 146.802 175.582 150.36 175.582 150.36L181.745 161.734C181.745 161.734 196.278 155.301 199.544 149.29C202.81 143.278 195.281 141.097 195.281 141.097Z" fill="#992C29"/>
<path d="M168.732 155.338C168.732 155.338 149.885 150.386 147.877 149.615C145.87 148.843 136.692 156.368 146.087 161.206C155.483 166.044 160.849 165.635 167.492 165.266C173.766 164.919 173.884 158.339 168.732 155.338Z" fill="#CC6D3D"/>
<path d="M126.572 257.446C126.026 257.446 121.955 260.284 118.409 264.539C115.423 268.119 117.243 269.89 120.254 271.182C122.837 272.289 125.863 273.396 131.89 268.79C135.496 266.034 138.271 263.472 138.625 261.701C138.979 259.93 137.917 254.608 137.917 254.608L126.572 257.446Z" fill="#29ABE2"/>
<path d="M126.572 256.737C126.026 256.737 124.284 258.254 120.217 262.011C115.087 266.753 117.419 267.986 118.445 268.75C121.73 271.182 125.151 271.628 131.536 268.082C132.764 267.399 134.525 265.336 135.436 264.539C137.462 262.757 138.389 261.151 138.625 259.93C138.994 258.155 137.916 253.899 137.916 253.899L126.572 256.737Z" fill="#121721"/>
<path d="M162.842 255.882C163.48 255.882 168.142 258.192 172.29 262.695C175.781 266.485 173.865 267.267 172.29 268.968C169.256 272.249 162.366 271.633 155.313 266.754C151.092 263.835 149.15 262.263 148.733 260.384C148.316 258.506 149.564 252.878 149.564 252.878L162.842 255.882Z" fill="#29ABE2"/>
<path d="M160.155 253.254C160.794 253.254 166.016 257.159 171.182 261.218C175.242 264.403 174.135 265.647 171.551 267.861C168.64 270.356 163.613 269.761 158.635 266.385C157.494 265.61 152.272 262.635 152.272 262.635C152.272 262.635 149.021 260.177 148.733 258.882C148.32 257.007 149.564 252.128 149.564 252.128L160.155 253.254Z" fill="#121721"/>
<path d="M121.608 163.133C121.608 166.908 120.992 174.976 120.992 180.766C120.992 195.528 120.992 210.747 121.239 212.135C121.59 214.065 124.911 253.859 126.528 256.789C126.528 256.789 128.118 258.369 130.115 258.155C134.37 257.701 138.806 256.059 138.972 254.966C139.312 252.822 137.618 230.24 138.33 212.526C138.682 204.476 139.911 196.488 141.995 188.704C147.844 153.914 121.608 150.017 121.608 163.133Z" fill="#F7BC4B"/>
<path d="M135.078 198.236C135.078 198.236 129.48 209.821 129.849 211.766C130.218 213.71 124.911 253.49 126.528 256.42C126.528 256.42 128.118 258.369 130.115 258.155C134.37 257.701 138.806 256.059 138.972 254.966C139.322 252.752 138.699 212.504 138.699 212.504C138.699 212.504 141.854 189.534 141.994 188.685C147.844 153.914 135.078 198.236 135.078 198.236Z" fill="#CE9436"/>
<path d="M149.269 157.885C149.269 157.885 121.269 150.327 120.992 162.683C120.715 175.038 162.163 184.825 163.802 166.004C164.861 153.825 149.269 157.885 149.269 157.885Z" fill="#F7BC4B"/>
<path d="M140.921 175.599C140.825 177.843 147.087 207.788 147.777 213.906C149.01 224.79 147.844 255.675 147.844 255.675C147.844 255.675 152.741 257.107 154.708 257.107C156.675 257.107 161.672 253.9 161.672 253.9C161.672 253.9 162.473 231.052 162.735 224.472C163.244 211.818 164.51 221.424 165.274 204.913C165.982 189.708 162.384 164.521 158.48 159.583C154.501 154.564 141.898 152.755 140.921 175.599Z" fill="#F7BC4B"/>
<path d="M121.771 166.613L132.063 170.802L161.48 164.277L121.771 166.613Z" fill="#CE9436"/>
<path d="M139.411 167.646C139.411 167.646 129.547 173.141 134.647 175.23C139.747 177.319 141.161 168.089 141.161 168.089C141.161 168.089 141.161 173.765 144.703 173.052C148.246 172.34 144.05 166.856 139.411 167.646Z" stroke="#FEED7F" stroke-width="2" stroke-miterlimit="10"/>
<path d="M159.901 177.67C159.856 178.666 157.159 197.373 157.159 197.373L147.933 210.253L147.844 255.682C147.844 255.682 152.741 257.114 154.708 257.114C156.675 257.114 161.672 253.907 161.672 253.907C161.672 253.907 164.949 218.198 164.171 222.837C163.392 227.476 166.385 209.182 166.385 209.182C166.385 209.182 165.857 163.934 161.956 158.992C157.978 153.955 160.879 154.826 159.901 177.67Z" fill="#CE9436"/>
<path d="M128.742 212.873C128.742 212.873 131.326 227.265 130.218 235.384C130.218 235.384 128.004 224.682 127.635 220.992C127.266 217.301 128.742 212.873 128.742 212.873Z" fill="#F7BC4B"/>
<path d="M138.197 103.716L112.209 106.72L113.242 116.666L116.649 129.04L120.708 166.177C120.708 166.177 133.256 168.31 144.944 166.82C151.466 166.014 157.93 164.793 164.296 163.162L166.444 125.778L167.954 118.537C167.954 118.537 169.799 109.119 168.522 108.728C167.245 108.337 148.302 103.155 138.197 103.716Z" fill="#1689CB"/>
<path d="M152.852 114.198L150.583 130.805L142.74 150.874L136.02 162.978L120.723 166.178C120.723 166.178 133.271 168.311 144.958 166.82C151.481 166.015 157.945 164.794 164.311 163.163L166.444 125.779L167.954 118.538C167.954 118.538 169.799 109.12 168.522 108.729C167.245 108.337 162.47 113.508 152.852 114.198Z" fill="#29ABE2"/>
<path d="M130.993 116.497C133.381 119.91 138.157 120.925 142.593 119.91C147.029 118.895 148.047 117.179 148.39 114.452C148.734 111.725 150.095 105.244 146.342 104.218C142.589 103.192 133.056 102.174 130.311 107.289C130.311 107.289 128.606 113.087 130.993 116.497Z" fill="#7A462F"/>
<path d="M119.439 125.892L120.177 133.273C120.177 133.273 147.04 137.742 163.514 131.981V125.634C163.514 125.634 142.729 132.594 119.439 125.892Z" fill="#3E4C6F"/>
<path d="M119.885 134.816L120.594 141.939C120.594 141.939 146.796 145.943 162.861 140.163V134.022C162.861 134.022 142.943 139.695 119.885 134.816Z" fill="#3E4C6F"/>
<path d="M156.421 94.8007C155.827 107.503 153.218 111.459 145.029 111.515C138.84 111.555 133.898 103.857 133.998 94.5609C134.097 85.2646 139.157 76.9979 145.35 77.0644C151.45 77.1308 157.063 81.4043 156.421 94.8007Z" fill="#273252"/>
<path d="M151.782 91.7559C151.867 81.4558 151.073 78.651 142.556 77.9203C138.127 77.5513 132.315 77.5919 129.717 79.0275C127.362 80.3191 126.982 81.9798 126.089 87.4269C125.414 91.5418 125.023 101.063 126.196 107.964C126.934 112.393 131.916 112.699 136.552 112.795C143.298 112.935 150.358 110.341 151.192 104.267C152.332 96.0368 151.753 95.1732 151.782 91.7559Z" fill="#7A462F"/>
<path d="M151.439 101.373C152.749 94.3611 150.874 86.7994 142.427 86.0502C138.02 85.659 129.322 87.7146 128.901 92.42C128.44 97.5165 128.071 102.513 128.99 106.949C129.776 110.762 132.525 112.758 137.681 112.385C143.549 111.957 145.833 112.315 148.442 109.13C151.051 105.946 150.774 104.908 151.439 101.373Z" fill="#A96443"/>
<path d="M128.004 79.6472C126.226 82.9908 126.849 82.8137 126.292 85.7882C126.159 86.4156 128.373 84.0758 128.373 84.0758C128.373 84.0758 129.13 84.7253 133.47 85.3822C137.81 86.0391 139.445 84.8139 139.445 84.8139C139.445 84.8139 142.74 90.881 143.825 93.2835C144.537 94.7889 145.588 96.1089 146.896 97.14L153.31 95.6306C153.627 89.224 152.908 79.3741 148.844 77.9164C141.408 75.2408 129.783 76.3037 128.004 79.6472Z" fill="#273252"/>
<path d="M153.683 98.6794C152.826 102.108 150.442 104.496 148.335 104.119C148.335 104.119 148.487 96.3286 148.472 94.8413C148.472 93.9113 149.014 91.0365 151.258 91.4387C153.502 91.841 154.576 95.1476 153.683 98.6794Z" fill="#A96443"/>
<path d="M152.469 101.122C152.406 101.522 152.194 101.883 151.876 102.134C151.557 102.384 151.156 102.505 150.753 102.472C150.559 102.455 150.371 102.398 150.2 102.305C150.029 102.212 149.879 102.085 149.759 101.932C149.639 101.779 149.551 101.603 149.502 101.414C149.453 101.226 149.442 101.03 149.472 100.837C149.531 100.433 149.741 100.066 150.06 99.811C150.38 99.556 150.784 99.4322 151.192 99.4645C151.388 99.4816 151.578 99.5391 151.75 99.6335C151.923 99.7278 152.074 99.857 152.194 100.013C152.314 100.168 152.4 100.347 152.448 100.538C152.495 100.729 152.502 100.928 152.469 101.122Z" fill="#F3E7D9"/>
<path d="M135.946 96.8667C135.839 98.1362 135.249 99.1105 134.621 99.0551C133.994 98.9998 133.57 97.948 133.666 96.6637C133.761 95.3794 134.356 94.3682 134.99 94.4273C135.625 94.4863 136.057 95.5824 135.946 96.8667Z" fill="#1D2538"/>
<path d="M127.635 95.424C127.528 96.5828 127.163 97.4869 126.827 97.4611C126.491 97.4353 126.292 96.4831 126.395 95.328C126.499 94.1729 126.86 93.2208 127.207 93.2466C127.554 93.2724 127.75 94.2541 127.635 95.424Z" fill="#1D2538"/>
<path d="M134.057 90.8442C134.622 90.6618 135.23 90.662 135.795 90.8448C136.36 91.0276 136.854 91.3838 137.205 91.8627" stroke="#1D2538" stroke-linecap="round" stroke-linejoin="round"/>
<path d="M126.587 91.608L128.599 91.3164" stroke="#1D2538" stroke-linecap="round" stroke-linejoin="round"/>
<path d="M168.599 136.111C168.23 136.48 166.016 144.968 172.29 145.706C178.563 146.445 182.623 140.909 177.825 137.587C173.028 134.266 168.599 136.111 168.599 136.111Z" fill="#273252"/>
<path d="M191.2 210.29C191.174 211.316 191.569 222.276 192.1 226.746C192.632 231.215 195.052 261.513 196.001 267.263C196.85 272.43 203.013 273.364 204.415 268.629C205.818 263.894 204.906 248.128 207.102 237.954C209.298 227.779 207.102 211.615 201.26 210.696C197.937 210.14 194.557 210.003 191.2 210.29V210.29Z" fill="#F5894E"/>
<path d="M190.598 204.119C190.572 205.145 191.015 216.109 191.617 220.579C192.218 225.048 192.451 229.849 192.451 229.849C194.835 231.585 197.586 232.749 200.492 233.252C205.415 234.134 207.943 231.842 207.943 231.842C210.305 221.675 207.87 205.503 201.537 204.562C197.92 203.993 194.249 203.844 190.598 204.119V204.119Z" fill="#121721"/>
<path d="M205.153 264.831C205.522 265.303 207.227 268.706 207.368 270.156C207.508 271.607 208.43 274.456 203.046 274.382C198.617 274.319 196.658 276.522 194.097 276.637C188.432 276.884 184.929 277.161 181.837 275.264C178.744 273.367 184.073 273.865 191.177 270.186C198.282 266.506 204.319 263.761 205.153 264.831Z" fill="#992C29"/>
<path d="M197.046 265.296C200.647 262.1 204.057 262.539 204.618 264.794C204.951 266.101 200.559 268.795 199.514 269.452C196.721 271.201 193.577 273.183 189.89 272.349C186.203 271.514 190.023 271.526 197.046 265.296Z" fill="#F5894E"/>
<path d="M196.857 222.184C196.857 223.291 197.639 235.101 198.333 239.898C199.027 244.696 202.485 277.224 203.625 283.361C204.648 288.897 210.744 289.554 211.97 284.372C213.195 279.191 212.147 265.632 213.523 251.158C214.586 239.972 212.567 222.741 206.792 222.077C203.491 221.657 200.148 221.693 196.857 222.184V222.184Z" fill="#F5894E"/>
<path d="M196.857 222.184C196.857 223.291 197.639 235.101 198.333 239.898C199.027 244.696 202.485 277.224 203.625 283.361C204.648 288.897 212.564 282.623 211.409 277.456C210.671 274.135 210.301 268.968 206.98 250.516C204.991 239.445 212.567 222.749 206.792 222.073C203.491 221.654 200.148 221.692 196.857 222.184Z" fill="#CC6D3D"/>
<path d="M196.045 215.548C196.045 216.656 196.887 228.465 197.636 233.263C198.385 238.06 198.791 243.227 198.791 243.227C201.167 244.951 203.932 246.062 206.84 246.46C211.722 247.146 214.132 244.533 214.132 244.533C216.099 233.44 213.121 216.117 206.844 215.46C203.255 215.035 199.627 215.065 196.045 215.548V215.548Z" fill="#1D2538"/>
<path d="M196.045 215.549C196.045 216.656 196.887 228.465 197.636 233.263C198.385 238.061 198.791 243.227 198.791 243.227C201.167 244.952 203.932 246.062 206.84 246.46L202.921 229.111C202.921 229.111 217.683 219.815 211.409 219.147C205.135 218.479 196.045 215.549 196.045 215.549Z" fill="#121721"/>
<path d="M202.755 282.076C202.755 282.076 194.307 295.262 201.278 292.602C208.25 289.941 214.564 285.915 211.516 282.423C208.467 278.932 202.755 282.076 202.755 282.076Z" fill="#CC6D3D"/>
<path d="M212.56 280.505C212.889 281.047 214.295 284.911 214.287 286.524C214.28 288.137 214.959 291.351 209.508 290.986C205.039 290.687 202.828 293.03 200.223 293.023C194.451 293.023 190.875 293.126 187.923 290.86C184.97 288.594 190.321 289.424 197.868 285.716C205.415 282.007 211.811 279.272 212.56 280.505Z" fill="#992C29"/>
<path d="M204.293 280.597C208.25 277.235 211.652 277.903 212.021 280.434C212.232 281.91 207.53 284.66 206.404 285.332C203.408 287.129 200.031 289.166 196.37 288.048C192.709 286.929 196.584 287.14 204.293 280.597Z" fill="#CC6D3D"/>
<path d="M203.861 167.499C203.861 169.517 190.882 192.31 191.111 195.284C188.528 211.522 188.897 214.187 188.897 214.187C188.897 214.187 198.123 219.066 205.135 220.955C212.147 222.845 222.967 223.42 227.646 220.217C232.326 217.014 230.938 216.527 230.938 216.527L236.873 214.906L241.67 213.774C241.67 213.774 240.67 201.85 235.765 183.512C229.492 160.074 226.539 157.368 219.896 155.914C213.254 154.46 203.88 165.484 203.861 167.499Z" fill="#F7BC4B"/>
<path d="M203.861 167.499C203.861 169.518 190.882 192.31 191.111 195.284C188.528 211.522 188.897 214.187 188.897 214.187C188.897 214.187 198.123 219.066 205.135 220.955C205.135 220.955 206.242 220.955 206.98 205.455C207.718 189.955 214.73 177.858 212.885 166.517C206.242 165.063 203.88 165.484 203.861 167.499Z" fill="#CE9436"/>
<path d="M181.165 143.031C181.165 143.031 181.885 155.508 184.837 158.918C189.195 163.956 204.747 170.296 204.747 170.296C204.747 170.296 206.961 173.326 213.235 171.448C223.568 168.362 229.842 166.565 225.44 158.239C223.45 154.49 215.844 146.637 211.549 142.95C206.316 138.455 199.994 135.093 194.111 135.495C183.394 136.233 181.165 143.031 181.165 143.031Z" fill="#F7BC4B"/>
<path d="M181.165 143.031C181.165 143.031 181.885 155.509 184.837 158.919C189.195 163.956 204.747 170.296 204.747 170.296C204.747 170.296 209.508 174.869 213.235 171.448L206.98 161.207L205.135 148.733C205.135 148.733 199.968 135.078 194.096 135.48C183.394 136.233 181.165 143.031 181.165 143.031Z" fill="#CE9436"/>
<path d="M174.873 138.517L181.516 146.814C182.195 147.766 185.14 139.03 184.099 136.676C183.28 134.809 181.885 133.997 181.379 132.421C181.294 132.136 181.128 131.882 180.902 131.689C180.676 131.496 180.398 131.373 180.104 131.334C179.809 131.295 179.509 131.342 179.24 131.469C178.972 131.596 178.746 131.799 178.589 132.052L174.135 135.491C173.803 136.045 174.504 137.986 174.873 138.517Z" fill="#CC6D3D"/>
<path d="M230.968 216.42L231.706 196.004C231.706 196.004 234.658 213.393 234.658 214.906C234.658 216.42 230.968 216.42 230.968 216.42Z" fill="#CE9436"/>
<path d="M200.053 158.859C200.053 158.859 202.78 174.562 202.367 178.666C201.953 182.77 193.447 187.523 191.697 179.515C189.948 171.506 188.177 163.136 188.251 159.427C188.335 155.302 198.421 152.327 200.053 158.859Z" fill="#F5894E"/>
<path d="M200.053 158.859C200.053 158.859 196.517 161.882 196.646 166.004C196.728 168.609 197.384 177.813 197.384 177.813C197.384 177.813 193.059 185.755 191.697 179.515C189.952 171.51 188.177 163.136 188.251 159.427C188.335 155.302 198.421 152.327 200.053 158.859Z" fill="#CC6D3D"/>
<path d="M188.088 162.033C188.029 161.295 182.623 143.861 189.085 141.961C198.134 139.377 198.529 148.973 199.13 151.899C199.732 154.826 200.201 160.701 200.201 160.701L188.088 162.033Z" fill="#992C29"/>
<path d="M195.539 156.409C195.517 156.114 196.277 153.457 196.277 153.457L189.085 141.961C198.134 139.377 198.529 148.973 199.13 151.899C199.732 154.826 200.2 160.701 200.2 160.701L195.539 156.409Z" fill="#C94039"/>
<path d="M193.469 179.881C193.469 179.881 191.875 180.028 192.218 187.04C192.561 194.052 194.17 206.599 194.432 209.183C194.694 211.766 198.735 213.475 200.706 207.338C202.677 201.2 203.097 186.302 202.629 180.231C202.16 174.16 194.085 174.998 193.469 179.881Z" fill="#F5894E"/>
<path d="M192.956 180.028C192.727 182.072 191.874 180.028 192.218 187.04C192.561 194.052 194.17 206.599 194.432 209.182C194.694 211.766 200.706 207.337 200.706 207.337L197.015 175.968C197.015 175.968 193.325 176.706 192.956 180.028Z" fill="#CC6D3D"/>
<path d="M200.2 205.09C200.2 205.09 203.297 209.969 200.547 212.102C197.798 214.235 194.432 216.564 194.432 216.564C194.432 216.564 195.606 221.945 194.063 221.361C192.52 220.778 189.265 219.147 189.265 219.147C187.616 221.17 188.158 210.659 188.158 210.659C188.158 210.659 194.177 204.223 200.2 205.09Z" fill="#CC6D3D"/>
<path d="M212.475 134.391C212.224 133.587 199.529 125.56 193.351 125.165C186.132 124.707 183.863 127.147 185.232 131.557C186.601 135.967 204.36 133.402 204.36 133.402L212.475 134.391Z" fill="#7A462F"/>
<path d="M205.186 129.609C206.834 129.838 208.446 130.274 209.984 130.908C212.161 131.879 212.91 131.75 214.361 136.112C215.206 138.651 215.401 139.651 215.468 142.386C215.519 144.629 215.136 144.53 214.113 145.116C213.957 145.486 213.669 145.785 213.304 145.954C212.94 146.122 212.526 146.149 212.143 146.028C210.666 145.659 210.666 144.6 210.666 144.6C210.666 144.6 210.36 146.201 208.452 145.707C206.544 145.212 206.607 142.755 206.607 142.755C206.607 142.755 207.046 145.493 205.057 144.74C204.105 144.371 202.998 144.198 203.097 141.614C203.134 140.621 203.012 139.525 202.979 138.555C202.795 138.094 200.215 136.44 200.215 136.44L201.189 137.802C201.189 137.802 202.378 140.647 201.662 141.4C200.248 142.895 198.735 141.437 198.182 140.592C197.462 139.485 195.118 137.437 196.643 135.005C199.315 130.753 200.108 128.827 205.186 129.609Z" fill="#7A462F"/>
<path d="M205.186 129.609C206.834 129.837 208.446 130.274 209.984 130.908C212.161 131.878 212.91 131.749 214.36 136.111C215.206 138.65 215.501 140.211 215.427 141.817L212.873 138.495L210.659 138.706C210.659 138.706 200.108 128.826 205.186 129.609Z" fill="#A96443"/>
<path d="M170.142 109.396C170.079 108.148 177.39 103.805 183.738 104.432C192.883 105.333 199.968 112.123 196.702 118.397C196.702 118.397 206.261 118.12 206.582 124.442C206.903 130.764 204.836 136.661 196.518 133.402C196.518 133.402 184.561 129.808 185.583 129.963C186.605 130.118 170.781 122.039 170.142 109.396Z" fill="#273252"/>
<path d="M165.064 114.817C165.064 114.817 160.901 111.352 163.997 108.359C167.094 105.366 168.599 108.433 168.599 108.433C168.599 108.433 164.507 99.2805 169.463 100.48C174.419 101.679 174.054 112.751 169.566 113.983C165.079 115.216 165.064 114.817 165.064 114.817Z" fill="#273252"/>
<path d="M175.416 112.669C173.165 109.979 170.858 109.961 166.618 112.942C163.145 115.552 162.676 122.375 162.603 128.442C162.529 134.51 166.116 140.621 172.257 140.086C179.007 139.481 179.291 139.267 181.239 136.259C183.188 133.251 181.819 120.334 175.416 112.669Z" fill="#F5894E"/>
<path d="M175.416 112.669C173.165 109.979 170.858 109.961 166.618 112.942C163.145 115.552 164.226 126.431 164.99 131.362C165.754 136.292 172.257 140.086 172.257 140.086C179.007 139.481 179.291 139.267 181.24 136.259C183.188 133.251 181.819 120.334 175.416 112.669Z" fill="#CC6D3D"/>
<path d="M166.618 112.942C166.618 112.942 168.463 112.779 172.707 115.293C175.853 117.182 178.298 120.045 179.671 123.449L181.328 122.131C181.328 122.131 180.346 115.905 176.183 112.3C171.921 108.606 168.762 110.883 166.618 112.942Z" fill="#F7BC4B"/>
<path d="M188.24 126.601C188.24 126.601 179.014 132.015 178.951 137.543C178.889 143.072 192.772 146.4 196.857 138.16C200.943 129.919 188.24 126.601 188.24 126.601Z" fill="#273252"/>
<path d="M179.25 124.438C179.25 124.438 178.852 118.703 183.539 119.991C188.225 121.279 186.919 129.812 183.402 131.04C177.733 133.015 179.25 124.438 179.25 124.438Z" fill="#CC6D3D"/>
<path d="M168.068 120.702C168.138 119.677 167.767 118.817 167.239 118.78C166.71 118.744 166.224 119.545 166.153 120.57C166.082 121.595 166.453 122.455 166.982 122.492C167.51 122.528 167.997 121.727 168.068 120.702Z" fill="#273252"/>
<path d="M167.946 115.813C168.321 115.873 168.674 116.031 168.968 116.271C169.262 116.51 169.488 116.824 169.622 117.179" stroke="#273252" stroke-width="0.5" stroke-linecap="round" stroke-linejoin="round"/>
<path d="M83.1538 114.921L75.4333 126.081L84.8699 141.732L94.7271 125.069C94.7271 125.069 96.0963 111.359 83.1538 114.921Z" fill="#CC6D3D"/>
<path d="M85.3794 142.57C85.3794 142.57 86.1175 157.332 87.2246 158.808" stroke="#992C29" stroke-miterlimit="10"/>
<path d="M87.0399 140.54C87.4089 136.849 85.9327 129.026 78.1828 123.564C74.0827 120.67 57.3206 127.811 51.0505 133.993C32.052 152.718 30.9448 183.718 30.9448 183.718C30.9448 183.718 40.7319 191.417 56.04 191.468C61.1439 191.468 67.8495 190.361 70.8018 186.302L73.3852 170.802C73.3852 170.802 86.6708 144.23 87.0399 140.54Z" fill="#F7BC4B"/>
<path d="M58.6234 128.73C58.6234 128.73 56.0401 129.838 51.2425 133.897C31.5428 151.884 30.9449 183.718 30.9449 183.718C30.9449 183.718 40.7321 191.417 56.0401 191.468C61.144 191.468 67.8496 190.361 70.802 186.302C70.802 186.302 56.6158 190.863 47.552 182.611C45.0831 180.36 40.1711 170.433 40.1711 170.433C40.1711 170.433 39.064 157.885 42.7544 149.028C46.4449 140.171 58.6234 128.73 58.6234 128.73Z" fill="#CE9436"/>
<path d="M61.2066 188.147C58.5224 187.126 56.1191 185.481 54.1948 183.349C49.8622 178.607 45.3376 170.802 45.3376 170.802C45.3376 170.802 45.7067 179.659 49.7662 185.195C53.8257 190.73 61.2066 188.147 61.2066 188.147Z" fill="#CE9436"/>
<path d="M82.8143 123.564C84.4603 126.941 86.7853 132.864 87.2244 137.791C87.7756 144.669 87.7756 151.579 87.2244 158.457" stroke="#992C29" stroke-miterlimit="10"/>
<path d="M87.6615 162.315C88.3104 162.275 88.7739 161.233 88.6966 159.988C88.6194 158.743 88.0307 157.767 87.3818 157.807C86.7329 157.847 86.2694 158.889 86.3466 160.134C86.4239 161.379 87.0126 162.356 87.6615 162.315Z" fill="#29ABE2"/>
<path d="M81.135 129.546C81.135 129.546 74.0013 125.778 66.2624 134.266C58.5235 142.754 61.1806 151.644 66.004 150.135C70.8275 148.625 86.7998 135.181 81.135 129.546Z" fill="#CC6D3D"/>
<path d="M64.993 173.754C60.4611 175.031 54.2907 172.396 55.7669 165.605C57.243 158.815 69.5175 133.528 73.3851 130.859C80.2605 126.128 86.1947 131.598 85.9327 136.026C85.6707 140.455 79.5925 154.05 75.3854 160.568C68.4399 171.34 69.5249 172.477 64.993 173.754Z" fill="#F5894E"/>
<path d="M56.1691 164.764C57.6453 157.973 69.5175 133.524 73.3888 130.859C80.2641 126.128 79.2935 131.553 73.3888 139.521C71.3037 142.34 69.4142 150.629 66.4397 153.766C61.0036 159.49 63.7235 160.08 63.2732 161.649C58.5494 178.182 54.6929 171.539 56.1691 164.764Z" fill="#CC6D3D"/>
<path d="M90.6456 172.418C85.5232 170.16 64.6057 159.132 59.9667 162.232C55.3278 165.332 52.4788 172.37 62.7678 175.448C74.5551 178.972 88.638 182.32 92.3838 182.172C96.7201 182.002 97.6279 175.492 90.6456 172.418Z" fill="#F5894E"/>
<path d="M62.9928 169.326C62.3027 167.783 63.5168 161.797 63.5168 161.797C63.5168 161.797 62.4097 159.845 59.4573 161.826C54.8184 164.941 52.4676 172.374 62.7566 175.452C74.5439 178.976 86.3313 181.412 86.3313 181.412C86.3313 181.412 84.0137 180.334 80.8436 178.828C74.1011 175.599 63.4615 170.366 62.9928 169.326Z" fill="#CC6D3D"/>
<path d="M72.909 164.277C72.909 164.277 70.477 161.745 66.8751 161.941C64.5279 162.07 72.909 164.277 72.909 164.277Z" fill="#CC6D3D"/>
<path d="M89.0808 176.172C89.5532 173.588 94.3323 171.817 97.2699 169.794C100.208 167.772 101.658 167.004 103.522 167.927C105.385 168.85 102.499 170.116 101.769 170.846C101.162 171.564 100.644 172.352 100.226 173.193C99.857 174.352 102.975 174.965 106.636 174.788C109.651 174.644 113.239 172.684 113.25 175.784C113.25 177.293 110.382 178.294 110.382 178.294C110.382 178.294 111.77 178.877 111.489 180.117C111.286 180.988 108.714 182.014 108.714 182.014C108.714 182.014 110.146 183.069 108.935 183.767C108.146 184.174 107.312 184.492 106.452 184.715C106.452 184.715 107.766 186.029 105.138 186.32C103.293 186.527 100.126 186.955 93.764 183.907C89.5015 181.873 88.339 180.238 89.0808 176.172Z" fill="#F5894E"/>
<path d="M102.499 185.885L104.544 182.235L104.983 179.02L106.88 177.415L105.71 182.966L102.499 185.885Z" fill="#CC6D3D"/>
<path d="M55.3424 128.361C55.2723 127.42 63.3728 117.264 66.3289 115.814C73.6028 112.241 77.0312 113.968 77.4003 119.135C77.7693 124.302 58.2542 128.948 58.2542 128.948L55.3424 128.361Z" fill="#7A462F"/>
<path d="M66.5837 123.981C73.8835 118.726 79.6591 113.968 80.0281 119.135C80.3971 124.302 66.4398 126.317 66.4398 126.317C66.4398 126.317 60.9558 128.033 66.5837 123.981Z" fill="#A96443"/>
<path d="M60.3727 123.763C60.3727 123.763 55.9441 126.144 53.9328 128.07C52.1208 129.805 50.7258 135.772 50.4712 136.927C50.4435 137.056 50.4435 137.189 50.4712 137.318C50.6704 138.326 51.6226 142.876 52.571 143.74C53.1394 144.256 54.3351 143.821 54.8111 142.961C55.6083 141.522 54.7152 139.359 54.7152 139.359C54.7152 139.359 56.2947 144.197 56.5604 144.614C57.2395 145.688 58.6123 146.009 60.0627 144.714C60.524 144.301 58.9924 141.308 58.9924 141.308C58.9924 141.308 60.0627 144.423 60.9373 144.518C61.8119 144.614 62.3286 144.496 63.2734 143.644C64.2181 142.791 62.3139 138.776 62.3139 138.776C62.3139 138.776 63.945 142.016 65.1371 141.359C66.1741 140.78 68.0046 139.909 66.7313 137.219C65.9556 135.582 65.4187 133.842 65.1371 132.052C65.1371 132.052 64.554 130.207 66.3032 130.982C68.5581 131.978 71.5622 130.823 72.2707 129.919C73.817 127.963 72.7837 125.741 68.6393 125.435C63.993 125.096 63.1774 122.424 60.3727 123.763Z" fill="#7A462F"/>
<path d="M65.8532 125.734L61.2328 127.579L58.2546 132.159L58.6937 133.129L57.8191 136.344C57.8191 136.344 60.8121 144.503 60.9302 144.518C61.8085 144.614 62.3215 144.496 63.2662 143.643C64.211 142.791 62.3141 138.776 62.3141 138.776C62.3141 138.776 60.8379 135.546 61.3398 136.244C61.9081 137.015 64.7055 141.654 65.3292 141.307C66.3699 140.728 68.0048 139.905 66.7316 137.215C65.9559 135.577 65.419 133.837 65.1373 132.048L66.1559 128.933C66.1559 128.933 71.1749 132.074 72.7286 129.081C73.7508 127.11 72.0384 126.346 70.2449 125.649C68.92 125.15 65.8532 125.734 65.8532 125.734Z" fill="#A96443"/>
<path d="M73.4554 116.766C78.4855 128.077 84.2131 123.903 90.9334 122.361C97.6538 120.818 102.422 100.845 102.54 94.7781C102.614 90.94 102.016 89.7258 94.79 89.2424C89.2543 88.8733 79.29 96.2543 79.29 96.2543C79.29 96.2543 75.356 97.0219 73.7543 98.8376C68.9567 104.285 70.7687 110.725 73.4554 116.766Z" fill="#1D2538"/>
<path d="M94.3797 95.1768C94.3797 95.1768 100.487 96.2248 102.233 97.7601C103.979 99.2953 108.444 116.552 105.861 122.088C104.735 124.498 90.5379 128.73 86.4083 124.372C85.3011 123.217 86.2164 119.785 85.017 114.334C83.7511 108.595 88.9953 103.883 89.2868 101.598C89.7851 97.6826 94.3797 95.1768 94.3797 95.1768Z" fill="#CC6D3D"/>
<path d="M101.956 98.4207C103.687 99.9449 108.024 114.91 105.411 120.796C103.684 124.66 92.8632 125.284 91.8372 122.826C89.1727 116.426 90.4828 105.322 94.4796 101.093C99.3731 95.9186 101.012 97.5903 101.956 98.4207Z" fill="#F5894E"/>
<path d="M81.7031 112.23C82.7844 115.64 85.4342 117.991 87.6374 117.486C89.8406 116.98 90.7743 113.795 89.7003 110.341C88.6264 106.887 85.9324 104.514 83.7181 105.052C81.5038 105.591 80.6218 108.802 81.7031 112.23Z" fill="#CC6D3D"/>
<path d="M89.6226 101.568C89.6226 101.568 91.2095 110.023 90.3607 112.64L88.3383 116.552L86.5964 104.513L89.6226 101.568Z" fill="#1D2538"/>
<path d="M103.488 94.3613C103.488 94.3613 102.248 98.1182 95.7046 101.875C92.1617 103.909 91.6266 103.289 89.9216 103.72C85.7293 104.798 88.1391 95.1769 94.7672 91.1912C101.473 87.176 103.488 94.3613 103.488 94.3613Z" fill="#1D2538"/>
<path d="M94.7895 91.0877C89.5527 94.5679 85.6999 104.03 89.073 103.156C90.5093 102.765 91.9246 102.3 93.3133 101.764C96.1882 99.5241 98.79 95.8115 98.79 95.8115C99.111 97.8155 97.6275 99.4799 95.8671 100.72C97.5692 99.9735 99.2244 99.1243 100.823 98.1771C103.576 96.5312 103.923 96.5607 103.776 95.258C103.517 92.6119 100.436 87.3124 94.7895 91.0877Z" fill="#3E4C6F"/>
<path d="M100.421 106.883C100.679 108.238 101.432 108.692 102.108 108.544C102.783 108.396 103.13 107.703 102.875 106.33C102.621 104.957 101.857 103.986 101.181 104.138C100.506 104.289 100.163 105.525 100.421 106.883Z" fill="#34283A"/>
<path d="M98.8674 103.532C98.8674 103.532 99.2808 101.974 100.713 101.554" stroke="#34283A" stroke-linecap="round" stroke-linejoin="round"/>
<path d="M141.164 264.86C144.301 265.495 160.576 264.539 161.952 258.291C162.971 253.66 164.905 248.493 165.337 244.563C166.571 242.538 167.686 240.443 168.677 238.289C170.256 234.835 169.562 234.292 167.514 235.292C165.466 236.292 161.679 239.883 161.679 239.883C158.227 237.789 154.317 236.567 150.287 236.322C143.965 235.982 145.434 238.06 143.072 241.009L141.378 243.666C141.378 243.666 136.85 241.352 133.868 241.083C130.949 240.835 129.945 242.061 128.701 245.312C127.428 248.659 127.369 249.002 128.074 250.929C128.779 252.855 131.322 256.501 134.134 259.192C134.145 259.221 138.094 264.244 141.164 264.86Z" fill="#1D2538"/>
<path d="M141.164 264.86C144.301 265.495 147.633 268.71 148.977 262.535C149.973 257.959 149.748 250.431 149.748 250.431C149.748 250.431 156.878 236.691 150.287 236.337C143.965 235.997 143.53 237.776 141.755 240.503L140.574 243.249C140.574 243.249 136.85 241.367 133.868 241.112C130.949 240.865 129.945 242.09 128.701 245.342C127.428 248.689 127.369 249.032 128.074 250.958C128.779 252.885 131.322 256.531 134.134 259.221C134.145 259.221 138.094 264.244 141.164 264.86Z" fill="#273252"/>
<path d="M129.971 242.371C128.864 243.847 131.045 245.456 132.185 243.954C133.326 242.452 136.492 241.803 134.647 241.179C133.366 240.751 131.097 240.869 129.971 242.371Z" fill="#121721"/>
<path d="M153.727 238.629C154.143 236.003 154.412 233.357 154.531 230.701C154.597 227.469 152.815 228.066 151.062 230.746C149.239 233.525 146.696 238.828 146.242 239.883C145.788 240.939 151.94 242.356 153.727 238.629Z" fill="#273252"/>
<path d="M152.361 231.41C153.011 228.155 152.361 229.152 150.619 231.823C148.803 234.595 148.921 235.145 148.464 236.189C148.006 237.234 151.785 234.303 152.361 231.41Z" fill="#1D2538"/>
<path d="M142.253 241.031C141.884 242.02 141.843 242.921 142.187 243.042C142.53 243.164 143.117 242.456 143.497 241.467C143.877 240.478 143.906 239.573 143.563 239.455C143.22 239.337 142.633 240.042 142.253 241.031Z" fill="#121721"/>
<path d="M138.001 261.812C138.001 261.812 135.949 267.433 134.68 268.736L133.359 265.82C133.359 265.82 135.167 262.909 138.001 261.812Z" fill="#992C29"/>
<path d="M137.145 264.218C137.145 264.218 138.009 268.894 137.551 270.551L135.152 269.787C135.344 267.794 136.029 265.88 137.145 264.218V264.218Z" fill="#992C29"/>
<path d="M200.234 286.582C200.234 286.582 202.16 299.89 201.507 303.031C200.854 306.171 202.012 310.205 203.382 312.331C204.12 313.641 201.47 318.328 201.47 318.328C201.47 318.328 197.374 319.302 193.462 317.863C190.063 316.615 190.878 314.748 193.037 313.888C195.196 313.028 190.166 304.396 190.166 304.396C190.166 304.396 186.398 289.952 186.151 287.789C185.904 285.627 198.123 279.375 200.234 286.582Z" fill="#1D2538"/>
<path d="M146.667 303.699C147.117 302.481 149.409 302.503 149.505 302.197C151.11 296.997 151.542 291.682 151.763 290.442C152.221 287.896 150.785 282.921 151.726 277.434C152.634 272.134 161.809 277.275 160.864 283.626C160.318 287.287 157.698 299.591 156.956 302.924C156.848 303.395 156.639 303.837 156.343 304.219L153.531 306.802C152.881 307.795 151.586 307.385 149.224 306.621C146.862 305.858 146.05 305.345 146.667 303.699Z" fill="#273252"/>
<path d="M130.218 309.637C130.517 306.474 134.44 306.655 134.44 306.655C134.673 306.245 135.444 305.47 135.521 305.053C136.13 301.846 135.946 294.391 136.093 292.96C136.396 289.985 136.093 280.958 136.665 274.083C137.237 267.207 145.777 273.053 145.818 279.958C145.847 284.877 141.611 304.315 141.216 306.16C141.216 306.16 136.699 312.401 134.518 312.109C132.336 311.818 130.037 311.585 130.218 309.637Z" fill="#273252"/>
<path d="M161.956 260.594C163.314 263.547 162.296 264.872 166.042 266.163C174.659 269.116 181.844 269.677 191.875 272.385C198.518 274.179 202.673 287.701 199.776 291.406C196.879 295.111 185.487 294.233 178.467 298.462C171.194 302.843 163.311 297.17 158.908 295.119C154.505 293.067 143.441 285.25 140.743 282.49C139.773 281.497 139.378 278.799 138.751 275.932C137.846 271.806 136.167 267.075 138.854 263.292C140.673 260.712 160.598 257.649 161.956 260.594Z" fill="#1D2538"/>
<path d="M145.489 265.433L149.549 272.936C149.549 272.936 154.188 279.896 153.774 279.881L149.084 287.76C149.084 287.76 143.452 285.251 140.754 282.49C139.784 281.497 137.688 279.217 137.064 276.368C136.164 272.249 136.739 268.957 137.717 263.148L145.489 265.433Z" fill="#273252"/>
<path d="M161.956 259.276C161.956 259.276 162.639 260.129 162.521 261.893C162.521 261.893 156.804 263.845 146.076 265.428C142.952 265.913 139.773 265.921 136.647 265.454L137.06 262.303C137.06 262.303 149.534 264.329 161.956 259.276Z" fill="#992C29"/>
<path d="M190.092 276.773C191.115 275.437 192.587 276.441 196.532 270.001C200.477 263.561 201.913 252.87 196.901 249.43C196.901 249.43 202.466 247.954 206.696 257.996C211.05 268.329 199.027 279.869 197.938 280.755C193.133 284.67 187.192 280.559 190.092 276.773Z" fill="#273252"/>
<path d="M189.528 277.131C190.557 275.788 193.661 281.191 199.522 271.348C202.629 266.137 204.688 253.066 196.872 249.431C196.872 249.431 205.519 248.054 207.784 258.775C210.737 272.688 199.012 280.131 197.916 281.028C193.082 284.973 186.601 280.947 189.528 277.131Z" fill="#1D2538"/>
<path d="M185.298 289.657C185.298 289.657 180.696 306.46 178.722 308.94C176.748 311.42 175.253 315.154 175.681 317.369C176.109 319.583 171.799 322.055 171.799 322.055C171.799 322.055 166.263 321.229 165.362 320.871C164.462 320.513 162.724 316.948 165.148 316.9C167.573 316.852 169.064 306.688 169.064 306.688C169.064 306.688 170.049 288.45 170.728 286.454C171.407 284.457 186.387 282.575 185.298 289.657Z" fill="#1D2538"/>
</svg>
