<svg width="609" height="550" viewBox="0 0 609 550" fill="none" xmlns="http://www.w3.org/2000/svg">
<path d="M539.23 146.456C539.23 146.456 555.916 59.1491 487.53 34.2127C419.143 9.27624 373.497 25.3659 357.594 30.2177C341.691 35.0696 248.968 94.1992 305.072 163.288C305.072 163.288 291.935 156.195 285.957 161.569C279.979 166.943 279.985 166.944 279.985 166.944C279.985 166.944 251.88 160.488 228.922 177.766C205.962 195.049 218.432 201.395 223.207 205.203C227.983 209.012 224.442 208.825 224.442 208.825C224.442 208.825 182.075 216.554 166.583 227.117C151.092 237.679 137.615 250.486 192.601 246.266C247.588 242.046 275.579 237.124 275.579 237.124C275.579 237.124 226.011 246.605 225.488 256.537C224.965 266.468 342.474 249.891 365.428 246.123C388.382 242.355 494.469 213.086 516.12 207.118C516.12 207.118 496.969 219.62 511.863 220.404C526.757 221.188 590.287 189.685 599.133 183.749C607.979 177.813 580.916 178.52 580.916 178.52C580.916 178.52 586.812 161.051 578.937 148.546C571.061 136.041 544.573 139.623 539.23 146.456Z" fill="#F3E7D9"/>
<path d="M194.507 138.046C194.507 138.046 201.174 119.096 184.953 110.161C174.242 104.265 151.844 117.664 152.924 130.875C153.393 136.582 146.053 126.243 133.473 135.54C120.893 144.836 121.12 160.846 121.12 160.846C121.12 160.846 94.0573 168.311 90.3981 170.251C86.7388 172.19 82.2255 176.935 111.04 169.912C139.86 162.908 194.507 138.046 194.507 138.046Z" fill="#F3E7D9"/>
<path d="M113.688 291.428C113.688 291.428 110.065 279.147 87.185 281.5C64.3053 283.853 54.8248 301.846 58.2539 304.158C61.6893 306.471 62.2878 308.64 62.2878 308.64C62.2878 308.64 28.917 321.106 15.8504 326.107C2.78387 331.109 15.1413 339.58 40.4889 330.961C65.8368 322.337 130.896 302.293 154.486 299.977C178.077 297.662 113.688 291.428 113.688 291.428Z" fill="#F3E7D9"/>
<path d="M246.597 400.389C201.506 413.556 196.111 434.818 196.111 434.818C196.111 434.818 104.426 449.566 83.3368 458.759C62.248 467.951 32.6205 484.617 72.9019 500.444C100.153 511.15 167.25 528.071 228.346 522.015C289.443 515.959 329.166 512.17 345.96 502.599C362.754 493.034 348.138 479.112 348.138 479.112C348.138 479.112 384.985 484.755 437.601 486.881C490.217 489.008 520.379 477.048 496.032 466.056C496.032 466.056 627.037 433.294 560.694 406.881C550.069 403.229 525.049 379.506 438.798 374.196C352.546 368.886 309.371 382.058 246.597 400.389Z" fill="#856792"/>
<path d="M347.786 414.451C347.786 414.451 285.397 426.808 295.573 436.113C305.748 445.417 344.407 446.37 344.407 446.37C344.407 446.37 360.472 466.007 391.739 465.47C423.005 464.934 444.665 463.993 463.835 457.639C483.006 451.286 561.666 436.024 492.889 422.006C424.113 407.988 347.786 414.451 347.786 414.451Z" fill="#4B3355"/>
<path d="M326.277 394.044C289.905 399.575 283.32 405.84 309.243 413.727C335.167 421.614 345.61 415.552 363.355 407.259C381.107 398.967 362.656 388.507 326.277 394.044Z" fill="#4B3355"/>
<path d="M307.845 450.224C295.677 446.491 283.84 456.171 308.44 458.496C333.04 460.822 320.006 453.951 307.845 450.224Z" fill="#4B3355"/>
<path d="M250.949 464.48C250.949 464.48 249.369 464.626 246.906 464.891C236.577 465.995 210.652 469.136 219.64 472.104C230.78 475.783 274.142 473.942 260.08 467.022" fill="#4B3355"/>
<path d="M195.731 447.453C195.731 447.453 116.135 454.749 103.676 462.831C91.2172 470.912 137.884 479.674 137.884 479.674C137.884 479.674 153.7 483.969 175.803 483.198C197.906 482.427 268.123 469.921 249.196 460.411C234.547 453.041 195.731 447.453 195.731 447.453Z" fill="#4B3355"/>
<path d="M289.875 485.379C289.875 485.379 244.992 480.337 252.782 491.311C260.573 502.284 326.257 493.683 289.875 485.379Z" fill="#4B3355"/>
<path d="M306.804 518.926C298.811 522.323 280.27 534.011 321.347 536.173C362.424 538.335 372.733 512.094 362.815 511.572C352.902 511.05 314.791 515.535 306.804 518.926Z" fill="#856792"/>
<path d="M363.859 345.712C363.859 345.712 256.31 352.835 236.08 359.368C215.85 365.902 187.172 385.932 236.452 394.253C285.732 402.581 312.788 413.366 335.336 404.74C357.884 396.114 342.379 375.877 342.379 375.877C342.379 375.877 381.871 381.303 408.63 376.704C435.396 372.093 442.817 336.04 363.859 345.712Z" fill="#856792"/>
<path d="M424.162 461.584C419.641 462.72 415.403 471.425 426.705 472.02C438.007 472.615 449.961 469.286 445.63 464.775C440.417 459.347 428.689 460.447 424.162 461.584Z" fill="#4B3355"/>
<path d="M373.304 488.434C373.304 488.434 363.734 494.109 374.982 495.732C386.229 497.355 386.662 489.137 373.304 488.434Z" fill="#856792"/>
<path d="M378.128 503.411C373.713 507.385 370.484 513.369 385.946 514.832C401.409 516.295 402.746 503.091 397.621 502.172C392.483 501.253 382.544 499.438 378.128 503.411Z" fill="#856792"/>
<path d="M472.988 453.853C472.988 453.853 473.097 458.319 481.693 458.091C490.29 457.856 500.077 454.598 500.077 454.598C500.077 454.598 508.259 455.716 514.637 451.928C521.015 448.14 514.889 440.608 496.884 443.44C478.879 446.266 470.68 452.013 472.988 453.853Z" fill="#4B3355"/>
<path d="M373.034 361.455C373.034 361.455 347.687 358.575 354.992 366.684C362.29 374.8 394.286 368.759 373.034 361.455Z" fill="#4B3355"/>
<path d="M375.012 323.759L372.417 360.728L367.765 363.754L362.06 371.904C362.06 371.904 362.366 378.43 361.172 388.784C359.978 399.138 357.959 412.701 357.959 412.701L437.327 450.732L468.417 453.673L495.761 451.619L542.261 429.344L531.699 389.303L530.842 380.795L520.727 375.057L527.492 370.208L524.864 321.249L413.957 313.457L375.012 323.759Z" fill="#7A462F"/>
<path d="M524.871 321.231L470.167 296.869L409.485 299.535L375.011 323.76C375.011 323.76 379.963 328.577 390.351 329.124C400.74 329.671 446.522 337.941 446.522 337.941L480.317 339.071C480.317 339.071 507.478 330.084 515.373 328.546C523.269 327.008 524.871 321.231 524.871 321.231Z" fill="#A96443"/>
<path d="M514.096 436.098L494.792 411.39L494.473 378.411L484.793 346.994L485.551 371.756L491.172 382.354L488.576 412.094L488.469 433.718L468.424 453.669L496.524 437.234L494.251 421.664L506.744 438.803L514.096 436.098Z" fill="#A96443"/>
<path d="M459.652 335.367L456.839 349.645L444.298 333.535L459.652 335.367Z" fill="#A96443"/>
<path d="M499.118 329.202L505.773 339.855L511.664 325.745L499.118 329.202Z" fill="#A96443"/>
<path d="M453.382 317.524L448.73 347.156L458.193 363.104L456.137 382.57L452.788 367.974L443.65 345.857L453.382 317.524Z" fill="#A96443"/>
<path d="M462.305 363.323L461.061 386.949L468.787 416.201L469.058 430.635L473.277 409.227L467.277 386.251L462.305 363.323Z" fill="#A96443"/>
<path d="M469.332 366.783L467.331 385.221L470.788 397.761L471.003 374.081L474.412 358.294L469.332 366.783Z" fill="#A96443"/>
<path d="M374.741 363.352L370.214 380.797L373.101 397.774L370.739 410.008L375.493 397.9L372.559 381.945L374.741 363.352Z" fill="#A96443"/>
<path d="M512.368 331.962C512.368 331.962 510.474 348.344 510.312 351.428C510.15 354.512 508.501 385.842 508.501 385.842L520.392 414.282L517.659 387.87L542.26 429.338L530.842 380.788L520.727 375.05L527.492 370.201L525.713 332.671L521.641 341.722L520.099 361.214L517.15 348.695L518.232 337.934L512.368 331.962Z" fill="#A96443"/>
<path d="M506.943 449.625C509.794 449.26 515.147 440.531 504.088 425.523C499.503 419.306 499.046 435.605 500.666 441.57C502.293 447.535 504.092 449.991 506.943 449.625Z" fill="#33A86D"/>
<path d="M510.83 441.443C510.83 441.443 507.719 424.753 510.672 425.106C519.551 426.159 516.03 431.879 516.03 431.879C516.03 431.879 528.963 420.583 531.001 425.03C533.038 429.484 524.555 435.668 524.555 435.668C524.555 435.668 546.779 422.425 535.717 432.87C524.661 443.316 508.768 449.308 510.83 441.443Z" fill="#33A86D"/>
<path d="M501.447 402.47C501.447 402.47 504.856 416.038 508.366 407.982C511.883 399.927 510.151 393.657 501.447 402.47Z" fill="#33A86D"/>
<path d="M527.995 406.961C527.995 406.961 534.591 399.065 527.399 398.687C520.208 398.308 523.99 404.688 527.995 406.961Z" fill="#33A86D"/>
<path d="M503.827 337.695C503.827 337.695 505.397 347.052 499.335 344.67C493.274 342.289 493.712 334.076 503.827 337.695Z" fill="#33A86D"/>
<path d="M501.877 355.103C501.877 355.103 516.419 352.776 509.391 349.32C502.364 345.857 495.877 351.701 501.877 355.103Z" fill="#33A86D"/>
<path d="M509.176 373C509.176 373 518.909 364.241 509.717 362.726C500.525 361.218 498.956 371.431 509.176 373Z" fill="#33A86D"/>
<path d="M490.412 357.593C490.412 357.593 490.791 369.977 495.113 366.081C499.436 362.185 499.928 352.946 490.412 357.593Z" fill="#33A86D"/>
<path d="M451.376 458.812C451.376 458.812 445.338 447.434 451.491 442.597C457.645 437.754 451.376 458.812 451.376 458.812Z" fill="#288453"/>
<path d="M447.361 456.279C445.593 458.935 434.019 430.854 440.222 430.405C446.424 429.955 449.136 453.63 447.361 456.279Z" fill="#288453"/>
<path d="M436.12 452.944C434.644 450.035 433.784 435.309 438.78 441.579C442.451 446.195 443.381 447.141 444.149 453.71C444.917 460.273 437.596 455.853 436.12 452.944Z" fill="#288453"/>
<path d="M359.057 416.606C359.057 416.606 358.001 397.492 351.731 399.224C345.461 400.955 352.191 410.066 352.191 410.066C352.191 410.066 343.378 401.361 345.569 408.686C347.761 416.012 359.057 416.606 359.057 416.606Z" fill="#33A86D"/>
<path d="M365.138 418.471C365.138 418.471 370.353 407.412 365.273 406.114C360.193 404.815 360.863 411.545 360.863 411.545C360.863 411.545 356.838 400 356.027 405.627C355.216 411.248 358.083 415.522 361.594 417.253C365.111 418.985 365.111 418.985 365.111 418.985" fill="#288453"/>
<path d="M212.291 509.06C212.291 509.06 204.18 487.004 208.523 492.635C212.859 498.272 214.239 501.438 214.239 501.438C214.239 501.438 213.386 488.258 218.618 491.627C223.849 494.995 220.319 503.304 220.319 503.304C220.319 503.304 229.163 496.814 229.687 501.481C230.211 506.147 218.331 511.695 212.291 509.06Z" fill="#33A86D"/>
<path d="M162.507 510.562C162.507 510.562 155.655 493.974 161.129 492.722C166.605 491.464 167.579 502.334 167.579 502.334C167.579 502.334 167.865 482.259 174.795 482.624C181.725 482.989 174.63 500.382 174.63 500.382C174.63 500.382 177.143 496.652 180.792 500.706C184.442 504.761 181.767 511.576 181.767 511.576C181.767 511.576 189.754 506.587 194.178 510.683C198.595 514.778 193.894 516.077 193.894 516.077C193.894 516.077 208.696 513.763 207.719 517.574C206.749 521.386 194.256 523.821 182.863 520.129C171.469 516.436 145.919 517.414 148.56 511.368C151.194 505.327 162.507 510.562 162.507 510.562Z" fill="#33A86D"/>
<path d="M77.681 472.506C77.681 472.506 65.2334 457.889 75.6428 448.605L78.0184 458.358C78.0184 458.358 82.817 446.139 88.7194 442.326L81.7134 460.214C81.7134 460.214 86.3663 451.365 92.1307 449.085C97.8948 446.811 77.681 472.506 77.681 472.506Z" fill="#856792"/>
<path d="M72.1851 471.731C72.1851 471.731 59.5772 462.336 45.5204 460.521C45.5204 460.521 55.5082 457.674 61.6323 460.045C67.7564 462.417 67.4728 467.321 67.4728 467.321L65.2351 456.035C65.2351 456.035 77.5675 468.489 77.6743 472.503C77.7812 476.518 72.1851 471.731 72.1851 471.731Z" fill="#856792"/>
<path d="M551.952 410.098C551.952 410.098 548.309 392.025 554.675 387.028L554.297 396.986C554.297 396.986 558.456 387.252 561.843 385.776L555.76 400.028C555.76 400.028 559.329 393.401 562.413 393.308C565.498 393.216 551.952 410.098 551.952 410.098Z" fill="#856792"/>
<path d="M549.471 407.428C549.471 407.428 544.95 394.19 538.568 387.522C538.568 387.522 543.741 388.392 546.278 392.777C548.815 397.161 547.924 401.645 547.924 401.645L548.604 390.303C548.604 390.303 552.528 406.304 551.959 410.098C551.39 413.893 549.471 407.428 549.471 407.428Z" fill="#856792"/>
<path d="M308.919 401.634C308.79 401.672 308.66 401.722 308.536 401.786C306.656 402.692 288.785 405.264 286.934 407.305C285.421 408.969 285.379 416.412 285.699 419.292C285.798 420.188 286.388 420.945 287.236 421.269C290.685 422.609 295.544 425.684 304.194 425.637C315.658 425.572 317.967 424.987 326.678 421.379C332.383 419.02 341.216 416.958 342.949 416.184C343.777 415.814 344.174 415.033 344.265 414.153L345.231 404.5C345.352 403.291 344.716 402.195 343.503 401.908C337.884 400.594 322.134 397.576 308.919 401.634Z" fill="#29ABE2"/>
<path d="M315.304 398.226C315.304 398.226 288.759 404.313 286.822 406.311C284.884 408.309 285.687 416.623 285.687 416.623C285.687 416.623 292.977 421.627 304.342 421.143C315.752 420.656 318.353 421.41 327.001 418.143C333.708 415.607 342.672 413.603 343.967 413.06C344.312 412.913 344.544 412.62 344.581 412.278L345.469 403.747C345.548 402.968 344.994 402.246 344.152 402.042C339.175 400.857 329.05 394.336 315.304 398.226Z" fill="#121721"/>
<path d="M299.37 403.281C299.37 403.281 306.582 402.515 311.702 407.392" stroke="#29ABE2" stroke-width="2" stroke-miterlimit="10" stroke-linecap="round" stroke-linejoin="round"/>
<path d="M304.418 401.199C304.418 401.199 309.597 400.612 317.887 406.197" stroke="#29ABE2" stroke-width="2" stroke-miterlimit="10" stroke-linecap="round" stroke-linejoin="round"/>
<path d="M408.363 266.437C408.363 266.437 363.125 254.097 345.646 251.408C336.014 249.927 331.39 252.535 328.122 257.931C324.847 263.32 324.596 282.347 333.858 288.103C343.119 293.86 358.256 294.383 370.259 299.195C382.255 304.001 399.246 314.873 409.639 310.374C420.032 305.875 435.461 279.572 408.363 266.437Z" fill="#CE9436"/>
<path d="M408.362 266.438L388.01 261.389L348.488 293.29C348.488 293.29 364.961 297.072 370.252 299.195C382.248 304.001 399.239 314.874 409.632 310.374C420.031 305.876 422.982 266.864 408.362 266.438Z" fill="#F7BC4B"/>
<path d="M350.167 329.948C350.167 329.948 350.134 285.001 351.575 275.392C353.023 265.783 352.78 252.14 335.615 250.504C323.996 249.396 317.131 250.95 315.706 264.952C314.572 276.111 312.839 285.215 313.919 296.847C315.376 312.45 312.806 383.522 310.459 385.919C308.112 388.315 307.937 387.294 307.885 393.356C307.844 398.247 312.076 398.966 323.333 401.614C330.268 402.851 337.101 407.964 343.001 404.679C348.901 401.395 347.656 398.695 347.656 398.695L347.664 392.612L350.167 329.948Z" fill="#CE9436"/>
<path d="M350.166 329.949C350.166 329.949 357.479 286.884 358.927 277.275C360.374 267.666 334.869 326.439 336.219 332.696C337.576 338.953 337.672 351.64 337.672 351.64L333.71 345.552C333.71 345.552 327.271 385.672 327.219 391.74C327.178 396.631 312.068 398.979 323.326 401.621C330.261 402.858 337.093 407.971 342.993 404.686C348.893 401.401 347.648 398.701 347.648 398.701L347.657 392.618L350.166 329.949Z" fill="#F7BC4B"/>
<path d="M490.163 277.572C490.163 277.572 498.67 298.625 494.938 310.786C491.205 322.954 488.469 322.81 474.137 321.025C461.044 319.394 385.089 308.523 400.049 280.382C412.607 256.754 430.888 262.088 450.907 266.578C470.932 271.068 490.163 277.572 490.163 277.572Z" fill="#F7BC4B"/>
<path d="M403.426 183.714C403.426 183.714 390.991 192.433 389.31 204.543C387.629 216.653 379.314 229.547 376.157 233.543C373.001 237.538 364.866 251.969 377.31 260.858C389.753 269.747 395.367 251.474 400.649 243.601C405.932 235.727 413.382 228.629 417.679 216.733C421.978 204.831 427.403 176.226 403.426 183.714Z" fill="#7A462F"/>
<path d="M387.911 253.266C387.911 253.266 390.603 262.317 380.18 271.027C369.756 279.737 352.347 293.374 347.811 297.093C343.275 300.813 337.185 299.009 333.102 294.62C329.019 290.224 333.418 284.143 344.637 271.924C355.856 259.705 368.277 243.037 378.558 239.569C388.84 236.102 387.911 253.266 387.911 253.266Z" fill="#7A462F"/>
<path d="M360.637 278.993C362.63 277.533 390.603 262.314 380.179 271.024C369.755 279.734 352.346 293.371 347.811 297.09C343.275 300.81 340.432 290.981 344.754 287.092C349.076 283.202 353.298 284.36 360.637 278.993Z" fill="#A96443"/>
<path d="M337.884 284.98C335.77 284.277 332.413 285.074 327.804 286.2C324.323 287.048 318.991 287.282 315.365 287.607C309.669 288.115 309.79 285.939 305.885 288.311C303.919 289.505 304.768 292.604 305.957 293.462C308.771 295.5 317.24 294.432 318.325 294.972C319.41 295.513 311.313 303.417 310.932 304.014C310.551 304.611 301.065 308.675 299.005 309.979C296.944 311.283 298.352 312.471 299.168 313.284C299.984 314.097 303.02 314.206 303.02 314.206C303.02 314.206 300.094 315.401 302.042 317.673C303.997 319.952 305.51 319.733 306.811 319.082C308.111 318.432 310.062 318 310.062 318C310.062 318 309.465 320.876 312.395 321.304C315.326 321.732 316.516 320.872 316.516 320.872C316.516 320.872 316.951 322.282 319.39 323.098C321.829 323.914 322.101 323.101 326.6 320.442C331.098 317.783 337.226 314.046 339.014 312.473C340.802 310.9 347.579 298.701 346.44 295.072C345.314 291.43 339.998 285.684 337.884 284.98Z" fill="#7A462F"/>
<path d="M341.1 291.362C338.986 290.658 332.747 288.529 328.145 289.649C324.664 290.496 318.376 289.306 314.757 289.631C309.06 290.14 310.426 287.17 306.521 289.541C304.555 290.736 304.788 292.6 305.971 293.464C308.784 295.502 317.253 294.434 318.338 294.974C319.423 295.515 311.327 303.419 310.945 304.016C310.564 304.613 301.078 308.676 299.018 309.981C296.957 311.285 298.365 312.472 299.181 313.285C299.997 314.098 303.731 313.175 303.731 313.175C303.731 313.175 300.107 315.402 302.055 317.681C304.01 319.96 305.481 318.358 306.903 318.064C308.897 317.653 310.384 317.216 310.384 317.216C310.384 317.216 308.764 320.79 312.408 321.312C314.613 321.626 319.078 318.768 319.078 318.768C319.078 318.768 316.87 320.325 318.228 321.491C320.328 323.295 321.705 321.802 326.204 319.143C330.703 316.485 336.068 312.122 337.856 310.549C339.644 308.975 345.621 298.434 344.482 294.804C343.343 291.168 343.213 292.065 341.1 291.362Z" fill="#A96443"/>
<path d="M316.077 306.868C316.077 306.868 321.615 310.94 323.884 311.829C326.154 312.719 327.749 313.49 327.749 313.49C327.749 313.49 319.12 307.799 318.62 307.518C318.119 307.237 315.408 304.943 315.408 304.943L316.077 306.868Z" fill="#7A462F"/>
<path d="M316.947 320.07L322.866 316.454L326.901 313.191C326.901 313.191 325.553 314.991 323.016 316.863C321.474 317.997 318.781 319.211 316.947 320.07Z" fill="#7A462F"/>
<path d="M310.365 317.47L316.409 313.499C316.409 313.499 320.132 310.717 322.255 310.027L317.437 313.553L310.365 317.47Z" fill="#7A462F"/>
<path d="M302.845 313.555L311.526 310.149L316.109 306.266C316.109 306.266 311.914 309.31 311.202 309.788C310.489 310.266 301.55 313.741 301.55 313.741L302.845 313.555Z" fill="#7A462F"/>
<path d="M445.893 172.744C423.53 173.628 413.049 177.022 407.783 179.15C402.522 181.279 403.454 183.046 403.454 183.046C403.454 183.046 404.23 200.943 404.916 207.501C405.601 214.06 407.357 230.398 407.813 238.899C408.314 248.247 414.926 265.28 414.114 270.908C413.132 277.728 416.306 288.02 416.306 288.02C416.306 288.02 435.903 284.33 449.507 286.764C463.111 289.198 490.804 284.986 492.193 284.715C493.582 284.445 492.581 280.612 492.761 277.192C492.941 273.765 492.706 268.433 492.706 268.433C492.706 268.433 490.801 237.775 491.162 230.921C491.522 224.074 494.617 187.17 492.223 179.815C490.737 175.276 468.257 171.859 445.893 172.744Z" fill="#29ABE2"/>
<path d="M483.721 227.102C483.721 227.102 484.344 238.125 483.929 246C483.515 253.875 487.203 262.138 485.364 267.705C483.525 273.271 481.902 284.519 481.902 284.519" stroke="#1689CB" stroke-miterlimit="10"/>
<path d="M460.826 172.805C462.882 172.913 461.024 183.671 458.155 187.644C455.286 191.616 443.217 197.504 433.953 197.36C424.015 197.206 419.181 193.763 422.939 184.759C424.905 180.058 426.203 174.972 429.66 174.467C433.123 173.962 435.582 173.665 443.587 173.31C451.591 172.955 458.77 172.697 460.826 172.805Z" fill="#7A462F"/>
<path d="M448.979 183.681C456.826 182.096 456.393 181.971 455.881 177.929L454.519 158.952C454.115 155.736 450.639 153.599 445.751 154.583L435.382 156.322C430.636 157.274 428.617 160.445 428.531 163.648C428.531 163.648 429.178 177.224 430.156 181.494C431.144 185.816 441.126 185.266 448.979 183.681Z" fill="#A96443"/>
<path d="M448.501 184.287C431.716 174.578 428.61 160.446 428.524 163.643C428.524 163.643 428.694 177.823 429.672 182.093C430.673 186.422 440.647 185.878 448.501 184.287Z" fill="#7A462F"/>
<path d="M406.26 214.612L407.565 225.002C407.565 225.002 437.394 229.9 475.917 227.035L474.215 215.357C474.209 215.357 446.664 218.8 406.26 214.612Z" fill="#3E4C6F"/>
<path d="M475.914 231.928C475.914 231.928 441.385 234.234 408.082 230.419L409.305 239.838C409.305 239.838 420.499 242.489 437.219 243.025C453.94 243.562 477.744 241.296 477.744 241.296L475.914 231.928Z" fill="#3E4C6F"/>
<path d="M459.173 134.225C461.743 165.306 455.97 162.794 443.292 164.532C432.684 165.991 422.531 154.314 420.672 138.854C418.813 123.395 425.923 109.827 436.554 108.548C447.184 107.268 457.595 115.121 459.173 134.225Z" fill="#273252"/>
<path d="M452.682 130.721C450.905 116.501 448.434 108.544 432.971 109.276C424.901 109.66 417.111 111.375 412.764 114.411C408.833 117.156 406.712 120.939 406.345 130.452C406.069 137.622 405.954 149.974 409.631 161.469C411.993 168.835 421.754 170.532 430.138 170.096C451.355 168.998 454.336 166.399 454.41 151.214C454.481 136.938 453.412 136.557 452.682 130.721Z" fill="#7A462F"/>
<path d="M450.179 115.767C445.717 107.203 432.76 116.906 438.406 119.296C446.721 122.827 443.657 142.004 441.663 153.633C439.469 166.429 431.973 169.217 431.973 169.217C431.973 169.217 435.99 169.536 440.791 168.523C448.603 166.872 454.07 167.332 454.047 148.431C454.041 139.363 452.925 121.028 450.179 115.767Z" fill="#A96443"/>
<path d="M409.439 114.479C408.251 115.409 406.722 123.537 406.411 128.605C406.348 129.671 407.633 121.95 409.171 120.166C409.171 120.166 413.665 121.478 418.882 121.015C428.568 120.156 437.262 118.075 437.262 118.075C437.262 118.075 440.61 129.165 443.649 132.735C446.765 136.399 450.515 138.302 450.515 138.302L454.724 130.378C453.863 119.668 449.903 110.627 442.621 109.111C429.288 106.341 413.806 111.056 409.439 114.479Z" fill="#273252"/>
<path d="M432.242 139.693C432.25 141.832 431.257 142.086 430.175 142.086C429.092 142.093 428.31 141.848 428.276 139.707C428.243 137.548 429.113 135.773 430.221 135.768C431.328 135.769 432.235 137.535 432.242 139.693Z" fill="#1D2538"/>
<path d="M426.925 128.627C426.925 128.627 431.323 128.031 433.286 130.044" stroke="#1D2538" stroke-miterlimit="10" stroke-linecap="round" stroke-linejoin="round"/>
<path d="M416.456 140.778C416.548 142.781 415.674 142.932 414.655 142.936C413.637 142.94 412.842 142.796 412.731 140.792C412.615 138.768 413.365 137.101 414.403 137.099C415.44 137.09 416.359 138.748 416.456 140.778Z" fill="#1D2538"/>
<path d="M415.925 130.185C415.925 130.185 412.698 129.098 409.831 131.818" stroke="#1D2538" stroke-miterlimit="10" stroke-linecap="round" stroke-linejoin="round"/>
<path d="M460.414 140.534C459.063 145.636 455.048 149.135 451.404 148.497C451.404 148.497 451.369 136.831 451.289 134.606C451.235 133.21 452.078 128.92 455.962 129.602C459.833 130.283 461.805 135.255 460.414 140.534Z" fill="#A96443"/>
<path d="M458.087 145.826C457.874 147.209 456.541 148.221 455.122 148.095C453.703 147.969 452.705 146.746 452.898 145.362C453.093 143.966 454.42 142.928 455.865 143.055C457.309 143.182 458.307 144.431 458.087 145.826Z" fill="#F3E7D9"/>
<path d="M432.508 302.696C432.508 302.696 432.794 312.727 424.118 312.9C424.118 312.9 432.132 304.763 432.508 302.696Z" fill="#CE9436"/>
<path d="M392.351 423.648C380.836 427.096 364.097 430.294 363.158 435.202C362.221 440.077 361.516 445.246 361.908 447.099C362.21 448.502 362.795 449.354 363.895 449.845C366.693 451.093 372.271 454.053 383.644 455.478C388.55 456.093 399.377 453.857 406.022 449.357C411.287 445.797 417.582 441.674 419.935 440.131C420.547 439.73 420.962 439.11 421.082 438.397L422.032 432.923C422.224 431.807 421.66 430.677 420.626 430.132C415.772 427.567 401.7 420.844 392.351 423.648Z" fill="#29ABE2"/>
<path d="M393.103 418.913C383.071 421.764 363.978 428.344 363.079 433.209C362.268 437.602 361.893 440.026 361.988 441.723C362.033 442.553 364.344 443.025 365.465 443.478C368.319 444.628 374.005 447.345 385.551 448.748C390.527 449.354 400.325 448.419 407.025 444.45C412.588 441.161 419.287 437.326 421.367 436.137C421.78 435.898 422.067 435.525 422.16 435.091L423.038 430.855C423.414 429.035 423.271 421.112 421.266 420.402C413.97 417.816 401.993 416.384 393.103 418.913Z" fill="#121721"/>
<path d="M393.845 431.772C393.845 431.772 384.783 423.328 374.176 426.085" stroke="#29ABE2" stroke-width="2" stroke-miterlimit="10" stroke-linecap="round" stroke-linejoin="round"/>
<path d="M400.382 428.11C400.382 428.11 390.909 420.439 380.335 423.185" stroke="#29ABE2" stroke-width="2" stroke-miterlimit="10" stroke-linecap="round" stroke-linejoin="round"/>
<path d="M409.606 424.172C409.606 424.172 405.851 424.675 397.589 423.985C389.321 423.302 388.866 420.573 386.751 419.291C384.636 418.009 379.702 423.018 382.225 409.527C384.749 396.036 382.807 390.626 382.324 387.215C381.842 383.805 380.902 387.758 381.483 377.091C382.063 366.425 383.162 358.006 383.26 343.929C383.358 329.852 383.543 284.885 385.349 278.979C387.162 273.067 428.06 277.288 430.56 287.824C433.06 298.36 428.879 310.453 427.363 315.318C425.847 320.182 426.974 334.674 425.179 344.367C424.176 349.761 423.299 365.935 423.717 384.112C424.134 402.289 425.092 408.767 426.201 410.779C427.311 412.791 425.532 419.385 424.615 422.169C423.711 424.959 409.606 424.172 409.606 424.172Z" fill="#F7BC4B"/>
<path d="M493.235 287.693C492.424 283.527 491.571 286.314 461.166 280.514C437.634 276.023 406.104 263.196 400.61 276.295C395.116 289.395 460.391 295.236 475.438 296.372C490.491 297.508 494.047 291.86 493.235 287.693Z" fill="#F7BC4B"/>
<path d="M406.448 302.356C406.448 302.356 394.099 295.527 395.614 286.335C397.149 277.004 419.516 274.72 430.451 273.577C410.769 265.847 387.161 273.081 385.348 278.992C383.535 284.904 383.357 329.872 383.259 343.943C383.161 358.02 382.063 366.438 381.482 377.105C380.895 387.771 381.835 383.818 382.324 387.229C382.812 390.64 384.748 396.049 382.225 409.54C379.701 423.032 384.635 418.022 386.751 419.305C388.866 420.587 389.32 423.315 397.589 423.999C405.857 424.682 409.606 424.186 409.606 424.186C409.606 424.186 423.711 424.966 424.621 422.182C425.531 419.399 427.316 412.805 426.207 410.793C425.609 409.705 414.904 397.509 404.989 385.921L405.79 388.833L405.847 399.972C405.847 399.972 401.883 390.294 400.48 386.727C399.486 384.199 397.603 378.882 396.578 375.984C391.88 370.34 388.425 365.965 388.071 364.845C387.492 363.033 387.912 296.175 394.184 300.336C401.494 305.188 406.448 302.356 406.448 302.356Z" fill="#CE9436"/>
<path d="M489.042 178.276C485.919 178.246 479.807 176.244 475.911 187.888C472.014 199.531 478.479 228.196 484.666 226.466C490.854 224.736 490.732 209.273 492.594 200.615C494.457 191.95 493.1 178.318 489.042 178.276Z" fill="#7A462F"/>
<path d="M489.042 178.27C485.444 177.578 483.943 180.585 481.482 184.916C477.617 191.732 479.534 208.136 485.679 207.219C491.823 206.301 492.361 192.813 494.04 187.633C495.719 182.452 493.968 179.223 489.042 178.27Z" fill="#A96443"/>
<path d="M508.827 213.312C508.827 213.312 506.139 205.617 502.006 196.128C497.873 186.639 495.411 177.925 489.141 179.656C482.871 181.388 479.695 191.18 478.776 198.857C477.856 206.534 481.058 214.256 486.481 222.094C490.833 228.382 495.179 247.618 501.257 256.179C508.846 266.874 515.457 273.408 522.944 268.138C530.432 262.869 526.569 248.239 521.429 238.182C516.288 228.124 508.827 213.312 508.827 213.312Z" fill="#A96443"/>
<path d="M483.894 207.532C477.824 199.417 481.051 188.152 481.051 188.152C481.051 188.152 479.093 191.142 478.174 198.818C477.254 206.495 480.456 214.217 485.878 222.056C490.231 228.343 495.179 247.611 501.251 256.172C501.251 256.172 519.056 253.889 513.743 252.063C508.686 250.327 505.656 251.669 504.365 249.253C501.844 244.558 493.559 224.605 493.559 224.605C493.559 224.605 488.703 213.97 483.894 207.532Z" fill="#7A462F"/>
<path d="M519.616 253.023C519.616 253.023 515.274 251.121 503.783 254.124C492.291 257.127 497.58 260.619 476.364 269.805C465.496 274.508 472.296 284.354 486.81 282.547C501.326 280.734 513.15 277.927 520.746 270.601C528.342 263.27 529.099 258.677 519.616 253.023Z" fill="#A96443"/>
<path d="M499.067 261.727C502.245 259.139 507.462 255.176 508.944 253.491C510.095 252.184 508.8 252.593 503.774 253.906C492.283 256.91 497.586 260.619 476.37 269.804C465.495 274.507 493.416 266.324 499.067 261.727Z" fill="#7A462F"/>
<path d="M478.412 272.491C476.821 271.275 467.38 266.762 461.759 265.951C456.138 265.14 449.889 266.357 449.889 266.357L438.344 270.382C438.344 270.382 434.275 274.291 433.167 275.773C432.057 277.261 433.912 278.771 433.912 278.771C433.912 278.771 437.763 281.417 438.578 280.69C439.386 279.963 439.386 279.963 439.386 279.963C439.386 279.963 441.32 282.381 442.849 282.722C444.377 283.057 446.187 282.898 446.187 282.898C446.187 282.898 450.204 284.91 453.028 285.059C455.852 285.208 458.652 280.977 461.503 280.612C464.354 280.246 466.574 284.614 471.982 284.638C477.389 284.668 483.116 276.086 478.412 272.491Z" fill="#A96443"/>
<path d="M474.918 270.57C471.231 268.791 465.606 266.503 461.759 265.951C456.138 265.14 449.889 266.357 449.889 266.357L438.344 270.382C438.344 270.382 434.275 274.291 433.167 275.773C432.057 277.261 433.912 278.771 433.912 278.771C433.912 278.771 437.763 281.417 438.578 280.69C439.386 279.963 439.386 279.963 439.386 279.963C439.386 279.963 441.32 282.381 442.849 282.722C444.377 283.057 446.187 282.898 446.187 282.898L447.482 279.447L464.269 270.372C464.276 270.372 476.624 271.391 474.918 270.57Z" fill="#7A462F"/>
<path d="M250.449 366.608C250.449 366.608 253.954 378.114 256.375 380.856L259.338 375.094C259.331 375.094 255.997 369.051 250.449 366.608Z" fill="#992C29"/>
<path d="M251.902 371.528C251.902 371.528 249.679 380.867 250.418 384.247L255.304 382.932C255.298 382.932 255.257 376.948 251.902 371.528Z" fill="#992C29"/>
<path d="M130.16 409.065C130.16 409.065 125.374 434.21 126.226 440.281C127.071 446.352 124.6 453.883 121.953 457.734C120.485 460.113 124.76 469.457 124.76 469.457C124.76 469.457 132.008 471.989 139.214 469.881C145.516 468.036 144.204 464.308 140.383 462.312C136.531 460.296 146.563 444.521 146.563 444.521C146.563 444.521 154.921 417.146 155.592 412.981C156.263 408.823 134.665 395.519 130.16 409.065Z" fill="#1D2538"/>
<path d="M243.822 372.476C237.552 373.47 205.978 370.185 203.985 357.748C202.515 348.558 199.353 338.267 198.94 330.52C198.94 330.52 195.858 324.886 193.237 318.091C190.606 311.265 191.971 310.223 195.753 312.255C199.503 314.266 206.408 321.508 206.408 321.508C206.408 321.508 215.984 315.356 228.837 314.894C241.301 314.449 238.19 318.549 242.545 324.549L245.627 329.962C245.627 329.962 254.896 325.524 260.904 325.147C266.823 324.777 268.719 327.308 270.876 333.963C273.105 340.832 273.189 341.524 271.547 345.402C269.897 349.299 264.378 356.479 258.426 361.708C258.446 361.696 250.001 371.497 243.822 372.476Z" fill="#1D2538"/>
<path d="M243.821 372.476C237.551 373.47 230.655 379.598 228.669 367.161C227.199 357.971 228.434 342.98 228.434 342.98C228.434 342.98 216.003 315.344 228.857 314.882C241.321 314.437 241.998 318.011 245.232 323.552L247.287 329.114C247.287 329.114 254.916 325.506 260.923 325.135C266.842 324.766 268.739 327.296 270.895 333.952C273.124 340.821 273.208 341.512 271.566 345.39C269.916 349.287 264.397 356.467 258.445 361.696C258.445 361.696 250 371.497 243.821 372.476Z" fill="#273252"/>
<path d="M268.659 327.866C270.768 330.949 266.15 334.059 264.022 330.969C261.882 327.859 255.595 326.415 259.366 325.239C261.973 324.434 266.544 324.77 268.659 327.866Z" fill="#121721"/>
<path d="M221.91 319.315C221.91 319.315 220.967 310.28 221.174 303.558C221.378 297.142 224.782 298.365 227.923 303.735C231.198 309.33 235.639 319.999 236.418 322.121C237.203 324.243 224.997 326.795 221.91 319.315Z" fill="#273252"/>
<path d="M225.323 305.019C224.404 298.538 225.541 300.526 228.682 305.89C231.952 311.471 231.66 312.537 232.445 314.666C233.224 316.788 226.139 310.79 225.323 305.019Z" fill="#1D2538"/>
<path d="M228.881 449.579C228.122 447.083 223.633 446.777 223.481 446.152C220.895 435.567 220.608 424.931 220.307 422.44C219.685 417.323 223.003 407.602 221.744 396.578C220.528 385.95 202.3 395.192 203.443 407.826C204.102 415.121 207.863 439.787 208.948 446.488C209.102 447.431 209.456 448.334 209.992 449.145L215.16 454.686C216.318 456.758 218.876 456.148 223.556 455.001C228.178 453.87 229.912 452.968 228.881 449.579Z" fill="#273252"/>
<path d="M260.975 464.167C260.71 457.713 252.802 457.443 252.802 457.443C252.383 456.575 250.918 454.894 250.805 454.029C249.929 447.467 251.087 432.466 250.947 429.563C250.654 423.521 252.202 405.359 251.809 391.44C251.412 377.458 233.843 388.445 233.034 402.25C232.459 412.076 238.767 451.576 239.35 455.374C239.35 455.374 247.667 468.666 252.063 468.452C256.408 468.241 261.141 468.147 260.975 464.167Z" fill="#273252"/>
<path d="M203.752 362.286C200.849 367.994 202.661 370.692 195.379 372.911C178.816 377.964 165.373 378.395 146.691 382.719C134.503 385.539 125.684 410.911 130.493 418.323C135.308 425.735 156.152 425.534 168.692 434.658C181.844 444.227 197.357 434.213 206.002 430.761C214.648 427.309 237.164 413.12 242.796 407.912C244.829 406.034 245.897 400.617 247.449 394.953C249.695 386.747 253.516 377.378 248.578 369.52C245.238 364.19 206.655 356.584 203.752 362.286Z" fill="#1D2538"/>
<path d="M235.216 373.246L226.487 387.842C226.487 387.842 216.729 401.201 217.523 401.211L225.833 417.436C225.833 417.436 237.171 413.114 242.797 407.906C244.83 406.027 249.246 401.678 250.798 396.007C253.044 387.802 252.232 381.109 250.898 369.324L235.216 373.246Z" fill="#273252"/>
<path d="M203.888 359.69C203.888 359.69 202.491 361.315 202.537 364.798C202.537 364.798 213.318 369.12 234.066 373.178C244.597 375.24 252.773 374.061 252.773 374.061L252.275 367.671C252.275 367.677 227.394 370.695 203.888 359.69Z" fill="#992C29"/>
<path d="M149.496 391.33C147.766 388.662 144.987 390.444 138.497 377.731C132.007 365.019 130.543 344.604 139.916 338.321C139.916 338.321 130.056 335.231 121.512 354.056C112.773 373.304 133.023 396.375 134.894 398.179C143.165 406.193 154.416 398.926 149.496 391.33Z" fill="#273252"/>
<path d="M150.488 392.078C148.745 389.39 142.553 399.431 132.966 380.039C127.922 369.84 125.574 344.816 139.948 338.318C139.948 338.318 124.577 335.231 119.484 355.454C112.897 381.592 132.997 396.866 134.88 398.689C143.223 406.784 155.455 399.741 150.488 392.078Z" fill="#1D2538"/>
<path d="M156.968 416.707C156.968 416.707 163.736 449.867 167.151 454.985C170.549 460.076 172.977 467.63 171.945 471.878C170.912 476.144 178.727 481.697 178.727 481.697C178.727 481.697 189.241 481.054 191.001 480.517C192.753 479.979 196.429 473.255 191.817 472.745C187.154 472.233 185.454 452.06 185.454 452.06C185.454 452.06 185.477 416.203 184.402 412.214C183.326 408.231 155.683 402.907 156.968 416.707Z" fill="#1D2538"/>
<path d="M244.014 329.902C244.708 329.677 244.745 327.87 244.096 325.867C243.447 323.863 242.358 322.421 241.664 322.646C240.969 322.871 240.932 324.678 241.581 326.681C242.23 328.685 243.319 330.127 244.014 329.902Z" fill="#121721"/>
<path d="M264.184 353.41C264.184 353.41 255.014 352.927 254.674 360.221C254.651 360.78 254.916 361.322 255.369 361.651L261.623 366.155C261.623 366.155 273.875 381.22 275.85 382.87C277.825 384.52 285.646 389.221 291.366 381.625C296.49 374.825 294.176 362.459 288.849 360.887L264.184 353.41Z" fill="#F5894E"/>
<path d="M275.282 377.341C273.709 372.778 277.199 364.257 284.835 363.768C293.621 363.199 293.515 376.589 289.913 381.057C285.487 386.558 277.816 384.69 275.282 377.341Z" fill="#FFFCF3"/>
<path d="M275.85 373.082L279.869 376.641C279.869 376.641 279.319 375.963 279.729 372.771C279.999 370.673 281.858 368.473 285.961 366.92L282.043 365.556C282.043 365.556 277.13 365.94 275.85 373.082Z" fill="#F5894E"/>
<path d="M274.444 380.217C274.444 380.217 287.679 386.405 289.049 373.432C289.288 371.192 286.298 366.937 281.526 367.888C276.189 368.95 281.209 365.81 282.402 365.873C283.595 365.936 292.955 367.65 290.191 376.152C287.526 384.342 280.674 383.841 277.158 382.333C275.59 381.658 274.444 380.217 274.444 380.217Z" fill="#F5894E"/>
<path d="M266.811 354.064C266.811 354.064 258.023 352.253 258.242 363.916" stroke="#F7BC4B" stroke-miterlimit="10" stroke-linecap="round" stroke-linejoin="round"/>
<path d="M266.509 354.818C266.509 354.818 272.536 347.924 268.061 349.75C263.586 351.577 266.509 354.818 266.509 354.818Z" stroke="#F7BC4B" stroke-miterlimit="10"/>
<path d="M266.809 354.064C266.809 354.064 272.688 349.994 274.815 353.715C276.943 357.436 270.259 357.084 268.991 356.756C267.716 356.428 266.809 354.064 266.809 354.064Z" stroke="#F7BC4B" stroke-miterlimit="10"/>
<path d="M266.811 354.064C266.811 354.064 264.575 353.756 261.729 356.438C259.841 358.215 257.959 363.258 259 364.28" stroke="#F7BC4B" stroke-miterlimit="10" stroke-linecap="round" stroke-linejoin="round"/>
</svg>
