<svg width="208" height="75" viewBox="0 0 208 75" fill="none" xmlns="http://www.w3.org/2000/svg">
<g clip-path="url(#clip0_1306_791)">
<g clip-path="url(#clip1_1306_791)">
<path d="M37.9806 22.0576C81.8341 -31.5824 50.858 72.9168 62.9054 68.0611" stroke="#FF00FF" stroke-width="3"/>
<path d="M31.1572 26.0251C-35.0581 29.3069 66.026 63.9022 62.685 68.1884" stroke="#FF00FF" stroke-width="3"/>
<path d="M42.2011 29.7062C62.1538 14.0519 52.6845 50.233 52.6845 50.233C52.6845 50.233 23.7496 45.9111 36.7431 32.8573" stroke="#FF00FF" stroke-width="2"/>
</g>
</g>
<path d="M116.374 27.0549C116.374 27.0549 97.6847 30.7907 94.11 40.3598C90.5352 49.9288 112.902 47.8112 110.281 57.7586C107.659 67.706 83.1958 65.6492 83.1958 65.6492" stroke="black" stroke-width="2"/>
<path d="M145.454 59.8444C142.622 57.4802 141.943 43.0062 149.061 42.6077C156.179 42.2092 158.222 57.3413 157.223 58.7484" stroke="black" stroke-width="2"/>
<path d="M173.337 36.4975C173.337 36.4975 165.789 39.3826 166.181 43.4914C166.573 47.6002 173.551 48.2979 174.178 51.3989C174.805 54.4999 166.181 56.0127 166.181 56.0127" stroke="black" stroke-width="2"/>
<path d="M198.93 46.6849C192.758 53.9984 182.625 50.9999 181.873 44.5858C181.121 38.1716 187.483 35.3729 190.574 38.1716C193.665 40.9704 190.574 45.1335 186.929 45.9792" stroke="black" stroke-width="2"/>
<path d="M138.321 55.6439C134.273 63.3387 122.439 63.6528 119.481 55.6439C116.522 47.635 123.529 41.0392 128.667 43.3948C133.806 45.7505 129.913 54.3875 124.775 55.6439" stroke="black" stroke-width="2"/>
<path d="M201.307 32.6222C201.307 32.6222 203.884 37.8867 204.564 40.3886C205.243 42.8905 206.183 46.7333 206.183 46.7333" stroke="black" stroke-width="2"/>
<ellipse cx="199.941" cy="30.0444" rx="1.0109" ry="1" fill="black"/>
<defs>
<clipPath id="clip0_1306_791">
<rect width="75" height="75" fill="white" transform="translate(0.645142)"/>
</clipPath>
<clipPath id="clip1_1306_791">
<rect width="75" height="75" fill="white" transform="translate(-4.35486 29.5) rotate(-30)"/>
</clipPath>
</defs>
</svg>
