<svg width="286" height="288" viewBox="0 0 286 288" fill="none" xmlns="http://www.w3.org/2000/svg">
    <path d="M64.8489 190.213L64.7894 137.734L74.4808 137.026L83.9248 193.668L64.8489 190.213Z" fill="#F3E7D9" />
    <path
        d="M186.126 13.729C182.135 18.8785 174.934 19.978 170.042 16.1879C165.149 12.3978 164.416 5.14959 168.407 6.10352e-05C168.407 6.10352e-05 167.451 7.78387 172.623 11.7901C177.794 15.7995 186.126 13.729 186.126 13.729Z"
        fill="#F3E7D9" />
    <path
        d="M165.553 101.944C165.553 101.944 182.336 108.826 187.363 104.917C196.284 97.9786 163.075 78.646 163.075 78.646C169.199 82.6303 183.273 81.2489 176.582 75.3007C169.891 69.3524 158.274 62.17 155.765 58.9437C155.765 58.9437 171.379 67.1222 169.891 63.4041C168.404 59.686 149.368 42.3706 149.368 42.3706C149.368 42.3706 164.873 50.6086 161.34 46.3016C149.444 31.8084 130.004 5.15551 129.566 4.53218C129.563 4.52591 129.557 4.52591 129.553 4.53218C129.237 5.10539 113.212 26.2204 107.577 33.5218C100.003 43.3322 91.0791 54.1136 94.4244 53.3713C97.7698 52.6289 106.406 47.1944 107.884 46.6619C96.6546 64.8951 90.3368 66.0102 85.1308 73.8159C81.8513 78.7368 98.3993 75.9146 98.3993 75.9146C98.3993 75.9146 94.2428 81.6342 84.0157 92.0304C73.7887 102.427 102.092 95.7202 102.092 95.7202C102.092 95.7202 72.3698 113.343 76.8302 123.751C81.1559 133.844 98.2333 119.329 98.2333 119.329C76.4418 134.993 87.7338 149.067 97.0274 147.792C105.785 146.589 122.145 135.397 124.535 134.038L122.308 178.069L144.996 177.048L141.829 138.373C144.667 140.456 147.646 141.938 150.44 142.028C160.341 142.351 159.075 130.26 159.075 130.26C164.908 133.289 181.566 133.198 181.378 124.989C181.196 116.785 165.553 101.944 165.553 101.944Z"
        fill="#F3E7D9" />
    <path
        d="M70.7223 44.9517C70.7223 44.9517 53.3191 77.1112 44.1508 86.6178C34.9825 96.1244 48.5643 90.3515 52.6394 85.5998C52.6394 85.5998 30.5691 118.874 22.0805 124.647C13.5919 130.42 24.8275 135.62 37.3913 127.811C37.3913 127.811 21.0625 153.17 10.8762 160.641C0.68991 168.111 3.74705 174.222 26.8354 160.979C26.8354 160.979 21.7422 166.072 32.6082 166.41C43.4742 166.749 47.208 158.94 47.208 158.94C47.208 158.94 34.6442 176.255 43.4742 177.615C52.3011 178.974 62.4874 162.335 62.4874 162.335C62.4874 162.335 57.7231 174.16 62.1397 174.84C66.5563 175.519 75.7308 163.353 75.7308 163.353C75.7308 163.353 85.5788 175.178 91.69 174.84C97.8012 174.501 89.6509 154.865 89.6509 154.865C89.6509 154.865 95.4237 162.335 103.571 163.353C111.721 164.371 105.269 152.829 105.269 152.829C105.269 152.829 118.85 161.997 129.375 158.602C139.9 155.206 119.727 141.718 110.747 134.085C103.417 127.855 99.0196 121.625 99.0196 121.625L112.579 125.9C119.37 127.26 101.193 104.394 96.78 96.5817C96.78 96.5817 106.691 97.9568 103.295 92.184C99.9029 86.4111 75.4771 55.6455 70.7223 44.9517Z"
        fill="white" />
    <path
        d="M67.5397 44.1724C67.5397 44.1724 48.4952 77.1181 39.2298 86.7249C29.9644 96.3317 43.6902 90.4994 47.8092 85.6944C47.8092 85.6944 25.5039 119.326 16.9245 125.158C8.34511 130.991 19.7029 136.247 32.3982 128.353C32.3982 128.353 15.894 153.982 5.59807 161.534C-4.69786 169.086 -1.6094 175.26 21.7264 161.879C21.7264 161.879 16.58 167.025 27.5587 167.37C38.5375 167.714 42.3151 159.821 42.3151 159.821C42.3151 159.821 29.6167 177.321 38.5407 178.696C47.4615 180.068 57.7574 163.254 57.7574 163.254C57.7574 163.254 52.9431 175.207 57.4035 175.893C61.8639 176.579 71.1387 164.284 71.1387 164.284C71.1387 164.284 81.0932 176.237 87.2701 175.893C93.4471 175.548 85.2091 155.705 85.2091 155.705C85.2091 155.705 91.0414 163.254 99.2794 164.284C107.514 165.315 100.996 153.647 100.996 153.647C100.996 153.647 114.722 162.912 125.362 159.479C136.003 156.046 114.725 142.32 106.831 133.4C98.938 124.479 90.3586 112.466 90.3586 112.466C90.3586 112.466 101.682 121.387 108.548 122.762C115.411 124.134 97.9106 103.887 93.4471 95.9966C93.4471 95.9966 103.398 98.3991 99.9685 92.5636C96.5355 86.7249 72.3446 54.982 67.5397 44.1724Z"
        fill="#F3E7D9" />
    <path
        d="M203.799 31.4364C203.799 31.4364 187.485 57.823 174.721 70.0986C165.528 78.938 181.149 81.3906 189.215 69.9106C189.215 69.9106 174.239 86.4712 168.344 91.1258C162.449 95.7804 180.582 88.0185 180.582 88.0185C180.582 88.0185 171.06 104.172 164.309 112.852C157.559 121.531 175.279 119.361 175.279 119.361C175.279 119.361 164.67 134.308 156.958 144.435C149.243 154.561 171.551 156.432 179.62 145.882C179.62 145.882 165.008 162.859 174.317 165.65C183.626 168.441 205.177 151.185 205.177 151.185C205.177 151.185 218.038 163.222 226.874 164.203C231.736 164.742 233.155 153.481 233.155 153.481C235.61 156.425 251.021 161.644 254.373 159.269C261.818 153.995 251.892 148.1 251.892 148.1C251.892 148.1 275.056 154.402 269.887 147.169C266.783 142.825 256.92 129.437 243.269 110.198C243.269 110.198 261.59 116.949 251.949 107.787C245.462 101.622 232.516 87.4109 223.83 73.4501C223.83 73.4501 243.115 84.2629 240.033 80.3224C231.191 69.0304 211.557 45.7103 203.799 31.4364Z"
        fill="white" />
    <path d="M225.765 187.941L219.219 136.474H206.589L200.002 187.941H225.765Z" fill="#F3E7D9" />
    <path
        d="M208.748 26.9285C208.748 26.9285 189.97 57.5 176.845 70.1169C167.395 79.2038 185.465 78.2798 193.757 66.4803C193.757 66.4803 178.361 83.5045 172.303 88.2875C166.242 93.0706 184.886 85.0925 184.886 85.0925C184.886 85.0925 173.982 102.937 167.041 111.858C160.103 120.779 179.432 117.312 179.432 117.312C179.432 117.312 168.529 132.676 160.598 143.087C152.667 153.499 175.602 155.419 183.893 144.575C183.893 144.575 168.873 162.025 178.439 164.898C188.009 167.767 210.16 150.029 210.16 150.029C210.16 150.029 223.382 162.401 232.466 163.413C237.462 163.967 238.921 152.39 238.921 152.39C241.446 155.419 257.289 160.782 260.732 158.342C268.387 152.92 253.778 142.596 253.778 142.596C253.778 142.596 280.403 146.066 275.09 138.63C271.902 134.163 262.357 124.206 248.325 104.428C248.325 104.428 267.159 111.366 257.245 101.951C250.577 95.614 243.87 87.5546 234.94 73.2023C234.94 73.2023 249.155 81.2398 245.985 77.1897C236.907 65.5751 216.72 41.6003 208.748 26.9285Z"
        fill="#F3E7D9" />
    <path
        d="M56.9901 185.587C56.9901 185.587 64.8554 186.552 66.5875 190.213C66.5875 190.213 64.4075 186.104 64.7426 181.302C64.7426 181.302 69.8013 188.666 69.1905 190.339C69.1905 190.339 67.8624 186.84 68.2226 184.077C68.2226 184.077 72.6705 189.819 69.9736 192.847L66.3401 192.7C66.337 192.7 59.7779 188.356 56.9901 185.587Z"
        fill="#F3E7D9" />
    <path
        d="M224.973 188.202C224.973 188.202 224.099 178.476 222.355 176.484C222.355 176.484 225.597 177.981 226.593 181.471C226.593 181.471 226.342 175.488 225.844 173.74C225.844 173.74 230.082 181.22 229.086 185.211C229.086 185.211 231.081 178.479 230.583 175.735C230.583 175.735 232.826 181.969 232.08 185.211C232.08 185.211 233.825 179.726 239.062 178.479C244.3 177.233 246.044 178.73 246.044 178.73C246.044 178.73 239.56 178.98 237.318 181.721C237.318 181.721 245.296 182.968 247.291 184.963C247.291 184.963 237.816 183.842 234.574 186.46C231.332 189.079 226.596 187.209 226.596 187.209L224.973 188.202Z"
        fill="#F3E7D9" />
    <path
        d="M69.3938 214.46C69.3938 214.46 101.613 219.416 106.073 222.886L104.09 215.45C104.09 215.45 114.004 214.955 118.465 217.928C118.465 217.928 109.046 209.007 103.101 206.031L115.987 211.485L117.97 208.014L128.378 209.997L134.327 201.571L153.161 206.031L156.134 204.049L169.02 212.475C169.02 212.475 172.986 208.014 175.463 204.049L176.453 207.021C176.453 207.021 178.436 205.533 180.419 200.578L182.896 204.049C182.896 204.049 190.828 198.1 190.828 188.685L85.5002 183.479L89.2151 190.32L52.4166 190.912L69.3938 214.46Z"
        fill="#F3E7D9" />
    <path
        d="M95.1698 223.381C95.1698 223.381 105.084 226.354 110.039 227.842L97.6474 234.78L103.101 239.24C103.101 239.24 93.187 242.711 80.7955 246.178L91.2042 248.656L49.4442 253.737L75.8371 255.594L30.4843 267.86L7.06393 257.451L26.7662 244.813L9.29414 241.467C9.29414 241.467 71.8716 222.88 77.8198 222.88C83.7681 222.88 95.1698 223.381 95.1698 223.381Z"
        fill="#F3E7D9" />
    <path
        d="M188.478 189.057L204.093 183.482L286 221.897L276.954 234.783L230.486 251.513L242.01 242.592L223.545 247.177L203.222 246.683L206.195 237.762L186.865 233.796L201.239 225.865L190.831 223.882L193.803 217.934C193.803 217.934 186.367 217.934 180.917 219.422C175.464 220.91 186.865 213.969 186.865 213.969L182.9 210.996C182.9 210.996 193.803 203.065 198.762 202.57C203.717 202.075 181.91 200.092 180.422 200.587C178.934 201.082 181.91 200.092 181.91 200.092L188.478 189.057Z"
        fill="#F3E7D9" />
    <path
        d="M109.763 173.056C109.763 173.056 178.965 171.549 186.254 171.8C186.254 171.8 192.372 176.072 192.372 182.942C192.372 189.811 188.35 193.667 188.35 193.667H111.104C111.104 193.667 105.509 190.306 105.071 187.634C103.226 176.408 109.763 173.056 109.763 173.056Z"
        fill="#7A462F" />
    <path
        d="M188.35 193.685L184.998 189.914L183.238 181.87C183.238 181.87 184.5 173.222 186.235 172.054C187.974 170.888 192.437 177.786 192.553 182.584C192.669 187.383 192.553 189.723 192.553 189.723L188.35 193.685Z"
        fill="#CC6D3D" />
    <path
        d="M188.654 189.605L186.596 187.29L185.515 182.35C185.515 182.35 186.289 177.038 187.357 176.321C188.425 175.603 191.166 179.841 191.238 182.789C191.31 185.736 191.238 187.174 191.238 187.174L188.654 189.605Z"
        fill="#B44C29" />
    <path
        d="M188.35 193.667L176.406 190.24L178.649 188.89L174.11 189.313L176.215 187.399L171.435 187.59L170.48 186.444L177.014 186.215L172.51 183.255L180.309 179.978L135.846 179.822C129.963 179.618 114.678 180.354 108.996 180.646L107.138 180.605L107.379 180.73C107.019 180.749 106.825 180.758 106.825 180.758L109.347 181.754L110.725 182.475L107.135 182.631L107.758 183.725L115.251 184.094L126.947 188.718L111.098 193.673H188.35V193.667Z"
        fill="#A96443" />
    <path d="M114.938 186.215L111.195 185.902L115.564 187.308L113.691 187.775L120.711 186.838L114.938 186.215Z"
        fill="#A96443" />
    <path
        d="M182.358 196.362C182.358 196.362 182.114 189.69 184.801 187.087L183.771 194.363C183.771 194.363 185.657 190.119 189.331 189.148C189.331 189.148 185.484 191.729 184.363 196.503L182.358 196.362Z"
        fill="#BB83C3" />
    <path
        d="M120.927 195.738C120.927 195.738 120.636 194 119.477 192.258C118.318 190.52 116.432 190.52 116.432 190.52C116.432 190.52 118.318 192.838 118.897 193.565C118.897 193.565 117.012 192.841 115.853 194.435C114.694 196.03 114.694 196.03 114.694 196.03C114.694 196.03 119.42 195.231 120.927 195.738Z"
        fill="#BB83C3" />
    <path d="M122.033 195.938C122.033 195.938 120.946 193.219 123.23 191.697L122.033 195.938Z" fill="#BB83C3" />
    <path
        d="M123.01 195.613C123.01 195.613 122.794 193.981 124.749 193.22C126.706 192.458 127.684 192.568 127.684 192.568L123.01 195.613Z"
        fill="#BB83C3" />
    <path
        d="M135.183 170.483C135.183 170.483 134.453 178.022 141.469 177.267C147.956 176.569 151.746 177.468 153.244 175.569C154.703 173.721 154.641 170.479 150.847 167.986C147.057 165.493 138.575 167.989 135.183 170.483Z"
        fill="#1D2538" />
    <path
        d="M135.183 168.186C135.183 168.186 125.604 170.181 123.007 171.281C120.414 172.377 120.313 173.874 121.212 175.472C122.111 177.069 124.874 180.869 130.791 178.366C133.385 177.27 140.269 178.065 142.168 177.069C144.063 176.07 142.168 165.893 135.183 168.186Z"
        fill="#1D2538" />
    <path
        d="M148.561 169.133C153.04 167.607 164.116 165.292 166.111 166.091C169.604 167.488 170.741 172.309 166.697 173.581C164.26 174.348 163.496 174.865 158.528 175.864C153.591 176.854 151.825 176.672 149.861 176.556C145.986 176.328 144.708 170.445 148.561 169.133Z"
        fill="#273252" />
    <path
        d="M148.561 169.133C153.04 167.607 164.116 165.292 166.111 166.091C169.604 167.488 170.741 172.309 166.697 173.581C164.26 174.348 163.496 174.865 158.528 175.864C153.591 176.854 151.825 176.672 149.861 176.556C145.986 176.328 144.708 170.445 148.561 169.133Z"
        fill="#1D2538" />
    <path
        d="M169.387 200.442C169.387 200.442 171.99 200.996 172.256 202.628C172.535 204.354 172.209 205.077 171.426 205.325C170.624 205.579 169.343 206.02 167.623 205.904C164.419 205.691 164.582 205.635 161.994 203.107C159.485 200.652 161.462 199.756 161.681 199.336C161.897 198.926 169.387 200.442 169.387 200.442Z"
        fill="#EE5D4F" />
    <path
        d="M167.075 198.85C167.075 198.85 172.071 200.915 172.303 202.396C172.547 203.959 171.836 204.761 167.623 204.664C164.466 204.592 164.632 203.966 162.126 201.695C159.68 199.477 161.437 199.173 161.653 198.794C161.869 198.421 167.075 198.85 167.075 198.85Z"
        fill="#121721" />
    <path
        d="M160.062 171.567C159.911 167.845 167.294 166.245 169.036 168.901C170.777 171.557 169.521 179.363 169.349 183.382C169.177 187.401 168.453 194.592 168.735 195.225C169.017 195.858 170.066 197.862 170.066 197.862L169.691 199.394C169.691 199.394 165.929 200.472 165.619 200.456C165.308 200.444 161.691 200.597 161.305 199.961C160.92 199.325 160.359 197.96 160.359 197.96C160.359 197.96 160.466 195.488 160.478 195.178C160.494 194.865 160.209 175.288 160.062 171.567Z"
        fill="#1D2538" />
    <path
        d="M167.282 185.045C167.282 185.045 167.683 171.288 169.171 173.553C170.659 175.821 169.587 182.483 169.437 185.913C169.29 189.343 168.673 195.482 168.914 196.021C169.155 196.56 170.051 198.273 170.051 198.273L169.731 199.579C169.731 199.579 166.521 200.497 166.258 200.488C165.995 200.475 162.906 200.607 162.577 200.065C162.248 199.523 161.769 198.354 161.769 198.354C161.769 198.354 162.129 190.687 162.139 190.423C162.148 190.16 167.282 185.045 167.282 185.045Z"
        fill="#273252" />
    <path
        d="M126.531 202.199C126.531 202.199 123.928 202.753 123.662 204.385C123.383 206.111 123.709 206.835 124.492 207.082C125.294 207.336 126.575 207.777 128.294 207.661C131.499 207.448 131.336 207.392 133.923 204.864C136.432 202.409 134.456 201.513 134.236 201.093C134.02 200.683 126.531 202.199 126.531 202.199Z"
        fill="#EE5D4F" />
    <path
        d="M128.845 200.607C128.845 200.607 123.849 202.671 123.618 204.153C123.373 205.716 124.084 206.518 128.297 206.421C131.455 206.349 131.289 205.722 133.795 203.451C136.241 201.234 134.484 200.93 134.268 200.551C134.051 200.181 128.845 200.607 128.845 200.607Z"
        fill="#121721" />
    <path
        d="M132.388 185.75C132.388 185.75 131.79 178.066 129.992 175.67C128.197 173.274 123.308 169.584 121.212 172.676C119.116 175.767 120.116 177.963 121.112 181.058C122.108 184.152 125.058 196.284 125.557 198.079C126.055 199.873 125.857 199.175 126.155 200.475C126.452 201.775 129.447 202.47 129.447 202.47C129.447 202.47 134.734 201.772 135.336 201.073C135.934 200.375 135.235 200.274 135.436 198.777C135.636 197.28 134.239 195.585 134.239 195.585L132.388 185.75Z"
        fill="#1D2538" />
    <path
        d="M132.304 186.054L128.551 182.821C128.551 182.821 122.459 179.388 123.257 182.038C123.708 183.532 127.029 195.109 127.029 195.109L131.827 197.565L127.308 198.664C127.549 199.776 129.948 200.375 129.948 200.375C129.948 200.375 134.189 199.776 134.672 199.178C135.154 198.58 134.59 198.495 134.753 197.214C134.916 195.933 133.791 194.48 133.791 194.48L132.304 186.054Z"
        fill="#273252" />
    <path
        d="M154.643 159.616C154.643 159.616 152.394 155.024 152.303 152.75C152.212 150.479 152.269 148.214 154.631 148.762C156.992 149.307 157.788 150.159 158.242 152.706C158.696 155.249 159.15 156.524 159.968 158.341C160.786 160.158 164.313 166.591 160.961 167.494C157.234 168.499 154.643 159.616 154.643 159.616Z"
        fill="#CC6D3D" />
    <path
        d="M134.784 151.024C133.487 150.025 131.94 150.573 130.894 151.623C129.497 153.02 128.798 154.517 128.3 156.813C127.802 159.109 126.076 162.254 125.506 164.994C125.008 167.391 124.31 169.684 127.003 170.185C129.697 170.683 131.094 166.893 131.592 165.395C132.09 163.898 133.487 160.506 134.386 158.511C135.191 156.713 136.081 152.024 134.784 151.024Z"
        fill="#CC6D3D" />
    <path
        d="M153.941 148.532C153.941 148.532 149.252 146.436 142.866 147.135C137.124 147.761 132.986 150.427 132.986 150.427C132.986 150.427 133.697 157.857 133.697 158.953C133.697 159.438 136.272 171.006 136.272 171.006C136.272 171.006 139.771 173.277 140.072 173.478C140.372 173.678 146.458 174.276 148.454 174.076C150.449 173.875 153.741 168.287 153.741 168.287C153.741 168.287 153.641 156.713 153.741 155.915C153.841 155.116 153.941 148.532 153.941 148.532Z"
        fill="#F7BC4B" />
    <path
        d="M152.535 154.845C151.837 154.235 143.956 153.455 143.956 153.455C143.956 153.455 136.56 155.04 136 156.108C135.439 157.176 136.285 162.187 136.285 162.886C136.285 163.196 138.38 170.557 138.38 170.557C138.38 170.557 141.231 172.004 141.472 172.129C141.716 172.258 146.671 172.637 148.297 172.512C149.923 172.383 152.604 168.828 152.604 168.828C152.604 168.828 152.523 161.458 152.604 160.95C152.689 160.443 153.237 155.456 152.535 154.845Z"
        fill="#FEED7F" />
    <path
        d="M136.977 166.83C136.977 166.83 137.3 160.287 137.544 159.673C137.544 159.673 134.994 162.821 136.977 166.83Z"
        fill="#F7BC4B" />
    <path
        d="M148.338 154.429C148.338 154.429 150.556 156.756 151.107 157.42C151.662 158.084 152.88 163.738 152.88 163.738C152.88 163.738 152.77 158.861 151.884 157.088C150.998 155.315 148.338 154.429 148.338 154.429Z"
        fill="#F7BC4B" />
    <path
        d="M152.993 165.73L150.665 169.498C150.665 169.498 148.006 170.829 145.901 171.381C143.796 171.935 140.692 173.263 140.692 173.263C140.692 173.263 146.524 172.546 147.896 172.045C153.657 169.943 152.993 165.73 152.993 165.73Z"
        fill="#F7BC4B" />
    <path
        d="M148.253 149.929C148.253 152.187 146.465 155.317 144.263 155.317C142.061 155.317 140.272 153.484 140.272 151.226C140.272 148.967 142.061 147.135 144.263 147.135C146.465 147.135 148.253 147.667 148.253 149.929Z"
        fill="#F5894E" />
    <path
        d="M145.284 152.441L141.268 154.02C141.268 154.02 139.473 152.388 139.473 150.129C139.473 147.871 142.057 147.135 144.263 147.135C146.468 147.135 145.284 152.441 145.284 152.441Z"
        fill="#CC6D3D" />
    <path
        d="M140.871 147.134L141.469 151.425C141.469 151.425 142.067 152.622 144.263 152.722C146.459 152.822 146.459 148.732 146.459 148.732L146.258 146.536L140.871 147.134Z"
        fill="#CC6D3D" />
    <path
        d="M156.125 203.072C156.088 204.15 152.874 205.174 147.311 205.174C141.748 205.174 138.45 203.755 138.487 202.677C138.525 201.6 141.763 198.931 147.326 198.931C152.889 198.931 156.166 201.994 156.125 203.072Z"
        fill="#856792" />
    <path d="M138.418 202.677L137.024 185.553L156.532 184.923L156.125 203.072L138.418 202.677Z" fill="#856792" />
    <path
        d="M146.839 187.624C152.252 187.615 156.638 186.529 156.636 185.198C156.634 183.868 152.244 182.797 146.831 182.806C141.418 182.816 137.032 183.902 137.034 185.232C137.036 186.562 141.426 187.633 146.839 187.624Z"
        fill="#665070" />
    <path
        d="M146.857 186.919C151.86 186.911 155.914 186.058 155.912 185.015C155.91 183.972 151.853 183.133 146.85 183.142C141.847 183.15 137.793 184.003 137.795 185.046C137.797 186.089 141.854 186.928 146.857 186.919Z"
        fill="#34283A" />
    <path
        d="M138.029 197.907C138.029 197.907 141.036 199.285 147.148 199.285C153.259 199.285 156.125 198.064 156.125 198.064"
        stroke="#665070" stroke-width="4" stroke-miterlimit="10" stroke-linecap="round" stroke-linejoin="round" />
    <path
        d="M138.108 200.188C138.108 200.188 141.036 201.566 147.148 201.566C153.259 201.566 156.125 200.344 156.125 200.344"
        stroke="#665070" stroke-width="4" stroke-miterlimit="10" stroke-linecap="round" stroke-linejoin="round" />
    <path
        d="M138.49 168.985C139.201 169.343 139.568 170.038 139.211 170.928C138.948 171.588 138.995 172.074 136.414 171.933C133.782 171.786 127.189 171.388 126.212 170.677C125.234 169.966 124.317 168.625 126.362 167.112C128.407 165.599 130.807 166.79 132.038 167.056C134.691 167.629 137.776 168.632 138.49 168.985Z"
        fill="#F5894E" />
    <path
        d="M138.49 168.986C139.201 169.343 131.167 167.961 129.45 167.805C127.734 167.648 126.211 170.674 126.211 170.674C125.234 169.963 124.316 168.622 126.362 167.109C128.407 165.597 130.806 166.787 132.037 167.053C134.69 167.629 137.776 168.632 138.49 168.986Z"
        fill="#CC6D3D" />
    <path
        d="M140.582 168.944C140.582 168.944 139.298 170.366 139.784 170.786C140.269 171.206 141.939 169.781 142.43 169.652C142.922 169.527 143.552 168.797 142.988 168.565C142.424 168.333 140.582 168.944 140.582 168.944Z"
        fill="#CC6D3D" />
    <path
        d="M137.199 170.069C137.199 170.069 137.415 171.933 138.778 171.864C140.141 171.792 140.213 170.573 140.93 169.64C141.647 168.706 143.154 168.061 143.154 168.061C143.154 168.061 145.018 168.49 145.378 168.133C145.738 167.773 145.09 167.632 145.09 167.632C145.09 167.632 145.162 166.915 144.516 166.843C144.516 166.843 145.018 166.342 144.228 165.909C143.439 165.477 141.287 165.048 140.858 165.12C140.429 165.192 139.063 166.62 138.418 167.056C137.776 167.491 137.127 168.634 137.199 170.069Z"
        fill="#F5894E" />
    <path
        d="M161.646 168.696C162.455 167.54 163.438 165.338 161.819 164.53C160.199 163.722 159.341 163.81 156.982 166.168C155.018 168.132 151.648 171.932 150.492 173.203C149.336 174.475 149.377 177 153.324 175.167C156.563 173.664 160.838 169.852 161.646 168.696Z"
        fill="#CC6D3D" />
    <path
        d="M160.91 169.648C161.612 168.646 159.635 167.571 159.635 167.571C159.635 167.571 158.166 167.245 156.124 169.288C154.423 170.989 152.249 172.451 151.25 173.551C150.248 174.653 150.285 176.84 153.703 175.252C156.506 173.952 160.212 170.647 160.91 169.648Z"
        fill="#F5894E" />
    <path
        d="M152.773 173.294C152.773 173.294 153.712 174.441 152.566 175.377C151.419 176.317 149.427 177.125 149.427 177.125L147.855 178.967C147.855 178.967 147.927 180.22 147.686 180.386C147.445 180.552 146.727 180.586 146.633 180.126C146.539 179.666 146.727 178.651 146.727 178.651L147.191 177.73L146.195 178.503C146.195 178.503 145.75 179.186 145.659 179.647C145.568 180.107 145.014 179.922 144.738 179.553C144.463 179.183 144.961 178.243 144.961 178.243C144.961 178.243 144.168 178.409 143.983 178.04C143.799 177.67 146.217 173.962 146.307 173.871C146.398 173.78 148.375 172.655 148.375 172.655C148.375 172.655 150.245 172.571 151.112 172.646C151.98 172.721 152.773 173.294 152.773 173.294Z"
        fill="#F5894E" />
    <path
        d="M137.711 146.085C139.884 149.718 141.407 149.928 141.407 149.928C147.737 149.772 150.537 145.596 149.761 141.828C149.109 137.903 148.1 136.563 143.612 137.001C137.363 137.609 135.775 142.846 137.711 146.085Z"
        fill="#1D2538" />
    <path
        d="M137.711 146.085C139.884 149.718 141.407 149.928 141.407 149.928C147.737 149.772 150.537 145.596 149.761 141.828C149.109 137.903 148.1 136.563 143.612 137.001C137.363 137.609 135.775 142.846 137.711 146.085Z"
        fill="#3E4C6F" />
    <path
        d="M137.582 144.969C139.436 148.07 143.862 145.098 143.862 145.098C144.749 144.415 144.852 142.216 144.796 140.008C144.746 138.1 145.645 136.186 140.329 137.38C135.602 138.439 135.934 142.21 137.582 144.969Z"
        fill="#1D2538" />
    <path
        d="M143.64 137.462C143.64 137.462 147.204 138.743 147.843 139.276C148.482 139.811 149.748 146.408 148.93 148.594C148.125 150.749 141.127 150.565 139.398 149.277C137.983 148.222 138.217 147.561 137.704 145.597C137.162 143.526 138.496 141.973 138.559 141.136C138.669 139.705 143.64 137.462 143.64 137.462Z"
        fill="#CC6D3D" />
    <path
        d="M148.2 142.802C148.833 143.332 149.744 146.411 148.927 148.597C148.385 150.029 141.131 150.887 140.943 148.691C140.846 147.545 140.463 145.612 141.795 144.011C143.423 142.051 147.856 142.514 148.2 142.802Z"
        fill="#F5894E" />
    <path
        d="M136.78 144.726C137.202 145.879 138.095 146.665 138.778 146.48C139.464 146.295 139.68 145.202 139.257 144.04C138.834 142.872 137.932 142.082 137.246 142.277C136.56 142.471 136.354 143.57 136.78 144.726Z"
        fill="#CC6D3D" />
    <path
        d="M138.866 139.774C138.866 139.774 139.583 142.825 139.317 143.79L138.64 145.252L137.807 140.898L138.866 139.774Z"
        fill="#1D2538" />
    <path
        d="M146.264 137.38C146.264 137.38 145.459 138.673 142.058 139.378C140.369 139.729 139.051 140.615 138.196 140.619C136.1 140.625 138.769 136.28 142.214 135.45C145.698 134.608 146.264 137.38 146.264 137.38Z"
        fill="#1D2538" />
    <path
        d="M142.227 135.403C139.486 136.18 137.074 139.237 138.762 139.231C139.242 139.228 140 139.203 140.911 139.121C142.433 138.576 143.909 137.477 143.909 137.477C143.949 138.229 143.135 138.692 142.208 138.977C143.019 138.871 143.89 138.72 144.761 138.514C146.192 138.172 146.358 138.213 146.364 137.734C146.38 136.753 145.187 134.561 142.227 135.403Z"
        fill="#3E4C6F" />
    <path
        d="M146.606 142.865C146.718 143.366 147.007 143.522 147.257 143.457C147.511 143.391 147.633 143.125 147.52 142.623C147.408 142.119 147.11 141.765 146.856 141.834C146.606 141.9 146.493 142.363 146.606 142.865Z"
        fill="#34283A" />
    <path
        d="M142.214 143.175C142.333 143.67 142.618 143.827 142.865 143.761C143.113 143.695 143.229 143.432 143.113 142.934C142.994 142.436 142.699 142.085 142.449 142.151C142.198 142.22 142.095 142.677 142.214 143.175Z"
        fill="#34283A" />
    <path d="M142.104 141.299C142.104 141.299 142.543 140.895 143.072 141.048" stroke="#34283A" stroke-miterlimit="10"
        stroke-linecap="round" stroke-linejoin="round" />
    <path d="M146.424 140.873C146.956 140.801 147.395 141.083 147.395 141.083" stroke="#34283A" stroke-miterlimit="10"
        stroke-linecap="round" stroke-linejoin="round" />
    <path
        d="M267.551 203.338L204.052 191.861C204.052 191.861 198.151 194.592 197.167 194.921C196.184 195.25 194.546 203.119 194.546 203.119L199.792 213.612L259.137 229.023L270.504 224.65L274.11 211.864L267.551 203.338Z"
        fill="#7A462F" />
    <path
        d="M267.551 203.338C267.551 203.338 258.699 204.102 256.513 206.943C254.326 209.784 253.452 218.746 253.452 218.746L259.134 229.02L270.502 224.647C270.502 224.647 274 216.56 274.107 211.861C274.22 207.166 267.551 203.338 267.551 203.338Z"
        fill="#CC6D3D" />
    <path
        d="M266.232 208.366C266.232 208.366 266.035 208.384 265.709 208.422L265.368 213.612L264.45 208.607C262.805 208.892 260.5 209.459 259.701 210.499C258.408 212.181 257.891 217.481 257.891 217.481L261.252 223.557L267.974 220.97C267.974 220.97 270.041 216.187 270.107 213.405C270.176 210.63 266.232 208.366 266.232 208.366Z"
        fill="#B44C29" />
    <path
        d="M241.531 216.556L241.687 216.208L239.075 215.804L242.164 215.162L242.251 214.971L233.829 212.165L242.872 213.605L243.711 211.757L201.494 205.959C201.494 205.959 215.138 211.457 214.349 211.723C213.556 211.986 202.53 210.836 202.53 210.836L206.543 215.447L245.525 225.54L254.499 223.544L241.531 216.556Z"
        fill="#A96443" />
    <path
        d="M196.031 200.932L195.592 202.68L200.403 203.119L201.277 202.026L209.8 202.9L200.839 199.623L196.031 200.932Z"
        fill="#A96443" />
    <path
        d="M199.313 216.857C199.313 216.857 199.849 212.522 203.545 211.162C203.545 211.162 203.113 213.912 199.313 216.857Z"
        fill="#BB83C3" />
    <path
        d="M200.262 212.092C200.325 211.3 199.883 210.279 200.115 208.81C200.115 208.81 197.493 211.726 198.32 214.391L198.515 215.409C198.511 215.413 200.2 212.885 200.262 212.092Z"
        fill="#BB83C3" />
    <path
        d="M264.951 232.074C264.951 232.074 269.665 224.96 273.935 223.153C273.935 223.153 267.723 222.761 265.794 226.717C265.794 226.717 264.838 224.118 264.425 220.058C264.425 220.058 262.574 228.778 263.752 230.868C264.4 232.011 264.951 232.074 264.951 232.074Z"
        fill="#34283A" />
    <path
        d="M262.364 230.141C262.364 230.141 262.658 227.852 261.465 224.497C261.155 223.629 259.091 222.17 259.091 222.17L262.364 230.141Z"
        fill="#34283A" />
    <path
        d="M235.777 228.593C235.777 228.593 236.322 224.311 238.834 222.999L237.164 227.5C237.164 227.5 239.197 225.041 242.342 224.897C242.342 224.897 239.777 225.746 238.126 227.829C237.86 228.167 237.615 228.537 237.412 228.941L235.777 228.593Z"
        fill="#BB83C3" />
    <path
        d="M244.911 227.297C244.911 227.297 247.918 222.326 250.138 221.649L247.501 225.389C247.501 225.389 252.616 222.899 255.266 223.024L247.576 227.929C247.576 227.929 248.992 227.685 250.026 228.161C251.056 228.64 244.265 229.449 244.265 229.449L243.238 225.611L244.911 227.297Z"
        fill="#BB83C3" />
    <path
        d="M228.372 160.732C228.372 160.732 225.731 159.313 223.507 161.152C221.283 162.99 217.606 169.349 215.044 172.929C213.418 175.203 211.545 179.31 214.602 180.506C221.305 183.128 223.567 170.314 226.37 167.704C229.174 165.092 230.768 162.198 228.372 160.732Z"
        fill="#7A462F" />
    <path
        d="M223.507 161.151C221.283 162.989 217.606 169.348 215.044 172.928C213.418 175.202 215.987 174.309 217.969 173.689C219.952 173.069 218.965 173.739 220.738 170.344C222.223 167.497 225.731 159.312 223.507 161.151Z"
        fill="#A96443" />
    <path
        d="M223.457 186.402C223.457 186.402 216.366 188.003 212.14 189.171C207.915 190.339 205.218 191.502 206.53 194.562C207.843 197.622 232.782 197.769 234.533 193.397C236.284 189.024 230.452 185.234 223.457 186.402Z"
        fill="#CE9436" />
    <path
        d="M247.225 185.362C247.225 185.362 249.593 195.726 245.803 197.474C242.013 199.222 224.673 197.036 225.111 191.792C225.55 186.546 228.024 183.194 236.478 183.777C244.932 184.359 247.225 185.362 247.225 185.362Z"
        fill="#CE9436" />
    <path
        d="M244.347 192.958C243.451 193.355 241.192 193.957 239.297 194.486C239.968 194.107 240.638 193.713 241.324 193.396C244.04 192.143 246.132 190.336 246.132 190.336C246.132 190.336 241.186 188.291 238.809 189.791C232.397 193.835 231.266 193.434 233.127 194.856C234.007 195.529 234.843 195.786 235.654 195.786C234.762 196.337 234.683 196.87 237.352 196.456C241.139 195.871 245.656 192.375 244.347 192.958Z"
        fill="#F7BC4B" />
    <path
        d="M224.6 160.531C223.726 161.587 224.271 163.992 224.271 167.926C224.271 170.332 224.525 172.152 224.816 176.669C225.267 183.676 225.114 186.122 225.114 186.122C225.114 186.122 228.509 187.685 233.621 188.186C237.9 188.609 247.582 187.196 247.582 187.196C247.582 187.196 248.017 185.928 247.823 182.736C247.222 172.844 247.454 171.76 247.259 168.108C246.968 162.652 247.441 160.168 245.364 159.51C243.288 158.852 238.699 158.317 236.143 158.241C233.017 158.157 226.022 159.175 224.6 160.531Z"
        fill="#29ABE2" />
    <path
        d="M224.6 160.531C223.726 161.586 224.271 163.992 224.271 167.926C224.271 170.332 225.65 162.858 230.154 162.413C240.234 161.423 242.877 173.815 242.877 173.815C242.877 173.815 235.194 170.842 230.733 177.16C228.992 179.629 231.786 188.007 233.624 188.189C237.903 188.612 247.585 187.199 247.585 187.199C247.585 187.199 248.021 185.931 247.826 182.739C247.225 172.847 247.457 171.763 247.263 168.111C246.971 162.654 247.444 160.171 245.368 159.513C243.291 158.855 238.702 158.319 236.146 158.244C233.017 158.156 226.022 159.174 224.6 160.531Z"
        fill="#1689CB" />
    <path
        d="M224.892 174.253C224.892 174.253 232.76 177.583 244.19 175.018L243.842 172.02C243.842 172.02 237.43 175.011 224.697 171.679L224.892 174.253Z"
        fill="#3E4C6F" />
    <path
        d="M224.635 170.407C224.635 170.407 233.599 173.357 243.582 170.601L243.181 167.49C243.181 167.49 234.066 169.718 224.362 167.465L224.635 170.407Z"
        fill="#3E4C6F" />
    <path
        d="M239.062 158.564C238.733 160.568 238.054 161.148 237.715 161.624C236.838 162.846 235.266 163.879 232.81 163.807C230.354 163.735 231.423 160.371 231.423 160.371C231.423 160.371 232.224 158.398 234.148 158.178C236.798 157.878 239.097 158.363 239.062 158.564Z"
        fill="#7A462F" />
    <path
        d="M234.179 160.518C232.328 160.459 232.469 159.886 232.469 159.886L231.949 155.062C231.874 154.329 232.544 153.721 233.697 153.759L235.683 153.79C236.801 153.824 237.421 154.454 237.606 155.165C237.606 155.165 238.304 158.332 238.304 159.322C238.308 160.324 236.033 160.578 234.179 160.518Z"
        fill="#7A462F" />
    <path
        d="M218.016 235.958C217.982 235.97 217.948 235.986 217.916 236.005C217.418 236.277 213.356 238.476 212.886 239.065C212.5 239.547 212.748 241.323 212.883 242.125C212.923 242.373 213.099 242.576 213.337 242.658C214.298 242.99 216.832 243.873 219.288 243.626C222.367 243.316 222.273 242.153 224.566 241.057C226.067 240.34 226.981 239.879 227.432 239.644C227.648 239.532 227.745 239.312 227.755 239.068L227.88 236.381C227.896 236.042 227.711 235.745 227.379 235.679C225.847 235.369 221.543 234.686 218.016 235.958Z"
        fill="#29ABE2" />
    <path
        d="M217.963 235.98C217.963 235.98 213.296 238.527 212.795 239.156C212.294 239.783 212.77 241.944 212.77 241.944C212.77 241.944 216.112 243.272 219.191 242.962C222.27 242.652 222.27 241.625 224.563 240.528C226.339 239.679 227.294 239.188 227.633 239.009C227.723 238.962 227.783 238.868 227.789 238.768L227.93 236.212C227.943 235.977 227.783 235.77 227.554 235.72C226.201 235.426 221.647 234.627 217.963 235.98Z"
        fill="#121721" />
    <path d="M215.689 237.189C215.689 237.189 218.023 236.365 220.309 237.418" stroke="#29ABE2" stroke-width="2"
        stroke-miterlimit="10" stroke-linecap="round" stroke-linejoin="round" />
    <path d="M217.381 236.183C217.381 236.183 219.714 235.359 222.001 236.412" stroke="#29ABE2" stroke-width="2"
        stroke-miterlimit="10" stroke-linecap="round" stroke-linejoin="round" />
    <path
        d="M229.775 230.259C229.775 230.259 231.523 221.516 232.544 217.144C233.565 212.771 232.544 210.732 232.544 210.732L233.565 205.924L234.877 203.885C234.877 203.885 234.295 201.554 231.817 199.659C229.339 197.764 225.114 192.956 223.51 197.037C221.907 201.119 219.429 219.186 219.138 221.811C218.846 224.433 218.264 230.262 218.264 230.262C218.264 230.262 216.516 231.718 216.66 232.74C216.807 233.761 218.699 235.653 218.699 235.653L224.528 235.07C224.528 235.07 227.297 236.235 228.318 235.944C229.336 235.653 229.775 230.259 229.775 230.259Z"
        fill="#F7BC4B" />
    <path
        d="M234.875 203.885C234.875 203.885 234.292 201.554 231.814 199.659C229.337 197.764 225.111 192.956 223.507 197.037C222.843 198.726 222.051 203.086 222.051 203.086C222.051 203.086 225.838 208.123 227.451 214.027C227.116 217.836 226.358 223.913 226.358 223.913C227.335 221.657 227.88 219.728 228.143 218.108C228.181 218.835 228.175 219.562 228.102 220.282C227.664 224.655 225.261 230.776 225.261 230.776C225.261 230.776 216.519 231.721 216.663 232.743C216.81 233.764 218.702 235.656 218.702 235.656L224.532 235.073C224.532 235.073 227.301 236.238 228.322 235.947C229.343 235.656 229.778 230.265 229.778 230.265C229.778 230.265 231.526 221.523 232.547 217.15C233.568 212.777 232.547 210.738 232.547 210.738L233.568 205.93L234.875 203.885Z"
        fill="#CE9436" />
    <path
        d="M240.265 197.764C240.265 197.764 223.871 190.989 217.898 190.259C211.924 189.53 207.843 189.166 206.678 191.644C205.512 194.122 206.678 195.434 207.551 197.473C208.425 199.512 235.896 204.615 235.896 204.615L240.265 197.764Z"
        fill="#F7BC4B" />
    <path
        d="M240.265 197.764C240.265 197.764 223.798 190.77 217.825 190.04C211.852 189.31 207.842 189.166 206.677 191.644C205.512 194.122 206.677 195.434 207.551 197.473C207.708 197.84 207.667 192.371 210.392 192.227C216.657 191.895 228.754 196.161 228.754 196.161L235.895 204.612L240.265 197.764Z"
        fill="#CE9436" />
    <path
        d="M220.738 193.683C220.738 193.683 223.783 193.673 225.111 194.704C226.439 195.731 228.171 198.494 228.171 198.494L220.738 193.683Z"
        fill="#CE9436" />
    <path
        d="M213.744 191.644C213.744 191.644 220.886 192.81 222.634 193.975C222.634 193.975 219.865 190.041 213.744 191.644Z"
        fill="#F7BC4B" />
    <path
        d="M237.825 198.31C237.825 198.31 236.296 199.622 234.144 202.281C233.192 203.459 231.87 204.577 231.501 205.965C231.115 207.409 231.814 210.115 234 210.735C236.682 211.519 238.054 209.843 239.125 209.041C240.196 208.239 241.13 204.095 242.066 203.691C243.003 203.287 244.205 201.016 244.205 201.016C244.205 201.016 243.404 198.341 242.066 197.539C240.729 196.737 238.893 196.841 237.825 198.31Z"
        fill="#121721" />
    <path
        d="M238.37 200.934C238.37 200.934 234.752 205.078 234.176 206.231C233.6 207.384 232.895 209.755 235.203 210.447C237.512 211.139 238.536 209.686 239.821 208.37C241.105 207.055 241.553 204.101 242.361 203.753C243.169 203.405 243.946 201.742 244.168 201.153C244.497 200.279 243.949 198.713 242.693 198.256C241.424 197.799 239.294 199.665 238.37 200.934Z"
        fill="#1689CB" />
    <path
        d="M245.693 159.767C247.845 160.024 249.105 162.576 249.527 164.258C250.21 166.968 250.596 170.777 251.188 172.572C252.274 175.87 252.616 179.547 249.286 180.067C245.953 180.587 246.063 177.167 245.258 173.734C244.691 171.322 243.441 167.219 243.927 168.612C244.415 170.022 241.321 159.25 245.693 159.767Z"
        fill="#A96443" />
    <path
        d="M245.694 159.766C247.845 160.023 249.255 162.404 249.678 164.083C250.361 166.789 250.592 170.777 251.188 172.571C252.275 175.87 252.616 179.547 249.286 180.067C247.523 180.343 246.182 171.832 246.182 171.832C246.182 171.832 245.731 166.871 245.189 164.437C244.5 161.37 245.694 159.766 245.694 159.766Z"
        fill="#7A462F" />
    <path
        d="M255.36 177.881C255.56 179.51 254.354 181.411 252.663 182.134C250.972 182.858 247.034 183.522 246.831 181.893C246.63 180.264 246.013 179.015 247.705 178.291C249.396 177.571 255.159 176.255 255.36 177.881Z"
        fill="#7A462F" />
    <path
        d="M258.376 172.089C258.661 172.089 258.893 171.869 258.893 171.598C258.893 171.326 258.661 171.106 258.376 171.106C258.091 171.106 257.859 171.326 257.859 171.598C257.859 171.869 258.091 172.089 258.376 172.089Z"
        fill="#4B3355" />
    <path
        d="M256.453 172.535C256.738 172.535 256.97 172.314 256.97 172.043C256.97 171.771 256.738 171.551 256.453 171.551C256.167 171.551 255.936 171.771 255.936 172.043C255.936 172.314 256.167 172.535 256.453 172.535Z"
        fill="#4B3355" />
    <path
        d="M255.619 173.862L239.67 179.174L240.403 182.288L256.299 176.665L257.398 176.976L260.954 175.525L261.402 175.24L261.586 174.269L259.281 172.092L255.933 173.11L255.619 173.862Z"
        fill="#4B3355" />
    <path
        d="M255.36 173.249L239.41 178.558L240.143 181.672L256.039 176.049L257.136 176.359L260.694 174.909L261.587 174.251L260.265 171.73L259.018 171.476L255.673 172.494L255.36 173.249Z"
        fill="#665070" />
    <path
        d="M242.796 180.947C242.796 180.947 243.761 186.434 241.449 187.875C239.237 189.253 238.016 188.997 238.016 188.997C237.183 189.573 235.707 191.947 233.27 192.909C230.833 193.87 226.407 192.652 223.971 190.343C221.534 188.035 242.796 180.947 242.796 180.947Z"
        fill="#4B3355" />
    <path
        d="M242.796 180.947C242.796 180.947 242.508 175.847 238.755 174.597C235.003 173.348 233.465 176.33 232.406 176.618C231.347 176.906 228.848 176.041 226.827 176.33C224.807 176.618 221.728 178.159 221.825 183.932C221.922 189.705 224.71 192.398 229.233 191.725C233.756 191.052 235.391 187.202 236.45 186.049C236.45 186.049 238.279 187.011 240.682 185.858C242.956 184.762 242.796 180.947 242.796 180.947Z"
        fill="#856792" />
    <path
        d="M234.78 183.544C236.18 183.544 237.314 182.554 237.314 181.332C237.314 180.111 236.18 179.121 234.78 179.121C233.381 179.121 232.246 180.111 232.246 181.332C232.246 182.554 233.381 183.544 234.78 183.544Z"
        fill="#4B3355" />
    <path
        d="M234.78 183.546C236.038 183.546 237.058 182.656 237.058 181.557C237.058 180.459 236.038 179.568 234.78 179.568C233.523 179.568 232.503 180.459 232.503 181.557C232.503 182.656 233.523 183.546 234.78 183.546Z"
        fill="#34283A" />
    <path d="M226.386 188.402L228.133 187.819L225.656 180.969L224.346 181.698L226.386 188.402Z" fill="#BB83C3" />
    <path
        d="M227.021 183.055C227.021 183.055 254.902 173.742 255.62 173.476C256.337 173.207 256.738 173.163 256.515 172.402"
        stroke="#BB83C3" stroke-width="0.5" stroke-miterlimit="10" stroke-linecap="round" stroke-linejoin="round" />
    <path
        d="M227.2 183.773C227.2 183.773 255.927 174.038 257.317 173.69C258.708 173.342 258.708 172.716 258.395 171.642"
        stroke="#BB83C3" stroke-width="0.5" stroke-miterlimit="10" stroke-linecap="round" stroke-linejoin="round" />
    <path
        d="M227.62 184.368C227.62 184.368 257.809 174.222 258.304 174.094C258.799 173.965 259.203 175.444 259.203 175.444"
        stroke="#BB83C3" stroke-width="0.5" stroke-miterlimit="10" stroke-linecap="round" stroke-linejoin="round" />
    <path
        d="M227.798 185.025C227.798 185.025 256.246 175.491 256.694 175.312C257.142 175.134 257.634 175.491 257.903 176.208"
        stroke="#BB83C3" stroke-width="0.5" stroke-miterlimit="10" stroke-linecap="round" stroke-linejoin="round" />
    <path
        d="M258.709 176.639C258.713 176.367 258.485 176.144 258.2 176.139C257.914 176.135 257.679 176.351 257.675 176.623C257.671 176.894 257.899 177.118 258.184 177.122C258.47 177.127 258.704 176.911 258.709 176.639Z"
        fill="#665070" />
    <path
        d="M259.926 175.991C259.93 175.72 259.703 175.496 259.417 175.491C259.132 175.487 258.897 175.703 258.893 175.975C258.888 176.246 259.116 176.47 259.402 176.475C259.687 176.479 259.922 176.263 259.926 175.991Z"
        fill="#665070" />
    <path
        d="M250.921 176.957L250.423 177.393L250.548 179.134L251.855 180.378C251.855 180.378 252.91 181.806 253.533 181.747C254.154 181.684 254.216 181.311 254.84 181.311C255.46 181.311 255.648 181.499 256.208 181.001C256.769 180.503 257.327 180.44 257.637 180.381C257.947 180.318 257.947 179.51 258.257 178.953C258.567 178.392 257.511 176.838 257.076 176.03C256.641 175.222 255.707 175.595 255.707 175.905C255.707 176.215 256.143 177.148 256.143 177.148L255.955 178.517L255.394 177.026L254.088 175.285C254.088 175.285 253.468 175.285 253.217 175.473C252.97 175.66 253.092 176.343 253.092 176.343L252.036 175.908L251.103 176.469L251.291 177.089L250.921 176.957Z"
        fill="#7A462F" />
    <path
        d="M226.567 180.183C225.659 179.763 224.137 179.459 222.514 177.968C221.352 176.9 218.245 175.002 216.005 175.077C213.769 175.149 212.03 176.443 213.174 179.638C214.317 182.833 221.593 183.628 223.51 184.208C225.43 184.784 226.439 185.523 227.917 183.848C229.396 182.172 227.476 180.603 226.567 180.183Z"
        fill="#7A462F" />
    <path
        d="M216.36 179.39C215.197 178.322 212.031 176.44 213.174 179.635C214.317 182.83 221.594 183.625 223.511 184.205C225.431 184.781 217.982 180.885 216.36 179.39Z"
        fill="#A96443" />
    <path
        d="M226.489 179.901C226.489 179.901 228.005 179.049 228.857 179.143C229.709 179.237 230.564 180.566 231.037 180.753C231.51 180.945 231.228 182.363 231.228 182.363L230.658 182.649C230.658 182.649 231.701 183.692 232.174 183.88C232.647 184.071 232.838 184.352 232.838 184.923C232.838 185.493 232.553 185.966 232.553 185.966C232.553 185.966 232.932 185.966 232.932 186.536C232.932 187.106 232.459 187.579 231.983 187.579C231.51 187.579 230.561 187.009 230.561 187.009L229.233 187.579C229.233 187.579 227.811 188.052 227.244 187.673C226.674 187.294 225.443 184.262 225.443 184.262C225.443 184.262 225.825 179.901 226.489 179.901Z"
        fill="#7A462F" />
    <path
        d="M238.834 149.587C239.996 155.206 239.298 157.23 235.724 158.17C233.02 158.881 230.001 156.068 229.005 151.99C228.009 147.914 229.403 144.071 232.115 143.407C234.828 142.743 237.788 144.528 238.834 149.587Z"
        fill="#273252" />
    <path
        d="M237.011 148.695C236.093 145.046 235.194 143.05 231.207 143.711C229.127 144.056 227.16 144.739 226.132 145.663C225.202 146.499 224.773 147.548 224.986 150.035C225.146 151.912 225.691 156.037 227.016 158.919C227.864 160.764 230.298 160.128 232.435 159.636C235.542 158.922 238.483 156.977 238.173 154.226C237.75 150.502 237.387 150.192 237.011 148.695Z"
        fill="#A96443" />
    <path
        d="M238.06 152.92C237.826 149.715 236.275 146.596 232.873 147.159C231.097 147.454 227.899 149.271 228.237 151.375C228.604 153.656 228.895 156.08 229.732 157.928C230.449 159.516 231.843 159.902 233.832 159.194C236.093 158.389 237.03 158.304 237.716 156.631C238.399 154.962 238.179 154.539 238.06 152.92Z"
        fill="#7A462F" />
    <path
        d="M225.277 145.812C225.002 146.098 224.798 147.936 224.886 149.299C224.905 149.587 225.462 147.861 225.462 147.861C225.462 147.861 225.766 148.234 227.736 148.036C229.707 147.839 231.041 147.112 231.041 147.112C231.041 147.112 232.403 149.405 233.149 150.336C233.891 151.266 234.922 151.676 234.922 151.676L237.559 150.298C236.98 147.46 235.649 143.557 233.707 143.372C230.158 143.037 226.299 144.766 225.277 145.812Z"
        fill="#273252" />
    <path
        d="M238.064 151.592C238.073 153.187 237.296 154.499 236.335 154.568C236.335 154.568 235.53 151.145 235.354 150.496C235.245 150.089 235.166 148.77 236.19 148.695C237.218 148.62 238.057 149.942 238.064 151.592Z"
        fill="#7A462F" />
    <path
        d="M237.807 152.795C237.844 153.171 237.575 153.518 237.208 153.578C236.842 153.634 236.507 153.38 236.466 153.008C236.422 152.629 236.692 152.275 237.064 152.215C237.434 152.153 237.769 152.416 237.807 152.795Z"
        fill="#F3E7D9" />
    <path
        d="M230.104 152.781C230.198 153.348 230.047 153.84 229.769 153.887C229.49 153.931 229.183 153.514 229.083 152.947C228.979 152.374 229.127 151.867 229.412 151.82C229.7 151.773 230.01 152.208 230.104 152.781Z"
        fill="#1D2538" />
    <path
        d="M226.311 153.079C226.392 153.596 226.336 154.035 226.185 154.06C226.035 154.085 225.844 153.693 225.759 153.176C225.672 152.653 225.728 152.202 225.881 152.174C226.035 152.149 226.226 152.556 226.311 153.079Z"
        fill="#1D2538" />
    <path d="M228.603 150.361L230.094 150.455" stroke="#1D2538" stroke-miterlimit="10" stroke-linecap="round"
        stroke-linejoin="round" />
    <path d="M225.299 151.047L225.863 150.862" stroke="#1D2538" stroke-miterlimit="10" stroke-linecap="round"
        stroke-linejoin="round" />
    <path
        d="M101.14 182.758C101.14 182.758 101.269 180.997 101.557 179.697C101.832 178.454 102.374 179.171 102.841 180.252C103.33 181.383 103.568 183.206 103.655 183.635C103.746 184.064 101.51 184.249 101.14 182.758Z"
        fill="#1D2538" />
    <path
        d="M99.2949 197.829C97.9418 197.588 94.6027 194.844 94.6904 192.47C94.7782 190.096 94.6466 186.625 95.1008 185.228C95.1008 185.228 94.7406 182.822 94.7124 181.498C94.6873 180.173 95.0131 180.05 95.5832 180.58C96.1532 181.109 97.165 183.098 97.165 183.098C97.165 183.098 99.9214 181.306 102.54 181.873C105.159 182.44 106.217 183.928 106.693 185.284L106.787 185.372C106.787 185.372 109.56 185.501 110.903 185.767C112.247 186.033 112.751 186.597 112.451 188.044C112.15 189.491 112.188 190.177 111.524 190.819C110.856 191.461 107.696 193.2 106.014 193.795C106.014 193.795 105.895 197.059 105.472 198.008C105.049 198.957 100.648 198.067 99.2949 197.829Z"
        fill="#273252" />
    <path
        d="M98.1518 194.053C98.1518 194.053 94.606 194.843 94.6905 192.468C94.7783 190.094 94.6467 186.623 95.1009 185.226C95.1009 185.226 94.7407 182.821 94.7125 181.496C94.6874 180.171 95.0132 180.049 95.5833 180.578C96.1533 181.107 97.1651 183.096 97.1651 183.096C97.1651 183.096 99.9215 181.305 102.54 181.872C102.54 181.872 99.7586 182.495 98.8753 183.754C97.9951 185.013 97.4877 189.549 97.4877 189.549C97.4877 189.549 101.29 192.675 101.156 192.973C100.739 193.922 98.1518 194.053 98.1518 194.053Z"
        fill="#1D2538" />
    <path
        d="M101.744 182.672C101.744 182.672 101.769 180.971 101.807 179.841C101.851 178.566 102.578 179.148 103.047 180.229C103.536 181.36 103.915 182.55 104.006 182.979C104.094 183.408 101.87 183.743 101.744 182.672Z"
        fill="#273252" />
    <path
        d="M102.837 186.265C103.067 186.099 103.013 185.632 102.716 185.223C102.42 184.814 101.994 184.617 101.764 184.784C101.534 184.95 101.588 185.417 101.884 185.826C102.181 186.235 102.607 186.431 102.837 186.265Z"
        fill="#121721" />
    <path
        d="M106.275 185.349C106.418 185.265 106.357 184.895 106.138 184.524C105.919 184.153 105.626 183.921 105.483 184.005C105.34 184.089 105.401 184.458 105.62 184.83C105.838 185.201 106.132 185.433 106.275 185.349Z"
        fill="#121721" />
    <path
        d="M112.476 186.792C112.714 187.513 112.404 187.926 112.3 188.381C112.156 189.001 110.387 188.246 110.149 187.525C109.91 186.805 109.697 185.768 110.612 185.756C111.248 185.746 112.241 186.072 112.476 186.792Z"
        fill="#121721" />
    <path
        d="M102.123 193.542C102.123 193.542 105.863 194.613 105.917 193.774C107.571 193.207 110.136 191.779 110.136 191.779L105.541 192.684L102.123 193.542Z"
        fill="#1D2538" />
    <path
        d="M86.0519 206.483C85.8232 206.094 84.351 204.212 84.0785 203.269C83.806 202.326 83.2516 200.077 84.3353 198.971C84.3353 198.971 82.9133 198.877 82.0456 201.847C81.178 204.816 83.9219 207.839 84.1537 208.093C85.1967 209.23 86.7065 207.592 86.0519 206.483Z"
        fill="#1D2538" />
    <path
        d="M109.394 215.589C109.009 214.928 107.906 214.362 107.906 214.362C107.784 214.221 107.402 213.961 107.346 213.813C106.923 212.683 105.773 209.591 105.642 209.087C105.369 208.037 105.212 204.783 104.646 202.368C104.075 199.953 100.761 202.597 101.056 204.977C101.266 206.675 103.784 213.293 104.038 213.939L105.375 215.95C105.801 216.351 106.791 216.498 107.753 216.357C108.708 216.21 109.77 216.238 109.394 215.589Z"
        fill="#1D2538" />
    <path
        d="M101.572 193.693C101.572 193.693 97.2186 191.723 94.1677 193.884C91.4363 195.817 90.6908 201.471 87.3612 202.179C85.2688 202.623 85.3627 210.135 86.0832 211.488C87.4019 214.016 90.2586 213.746 91.452 213.552C94.9727 212.979 103.352 204.28 104.661 203.309C105.836 202.439 107.038 198.504 104.883 196.118C104.06 195.206 103.126 194.229 101.572 193.693Z"
        fill="#273252" />
    <path
        d="M100.677 194.157C98.1521 192.851 97.2218 191.72 94.1678 193.882C91.4364 195.814 89.7982 201.687 86.4811 202.452C82.7254 203.316 83.7215 210.292 86.1396 212.065C92.4669 216.704 96.1881 209.543 97.2594 207.222C97.2594 207.222 93.6447 205.781 93.51 204.275C93.3753 202.768 96.6235 199.874 96.6235 199.874C98.0331 197.725 101.569 194.621 100.677 194.157Z"
        fill="#1D2538" />
    <path
        d="M103.026 216.604C102.904 215.962 101.015 214.722 100.993 214.562C100.63 211.875 100.799 209.231 100.786 208.604C100.758 207.32 101.745 204.936 101.698 202.158C101.654 199.48 97.2939 201.66 97.2814 204.761C97.2751 206.55 97.5852 212.629 97.6823 214.286C97.6949 214.521 97.7575 214.747 97.8577 214.96L99.1639 216.739C99.3832 217.281 100.367 217.588 101.469 217.437C102.572 217.281 103.192 217.478 103.026 216.604Z"
        fill="#273252" />
    <path
        d="M94.581 192.604C94.581 192.604 94.036 193.475 93.989 194.155C93.989 194.155 96.3946 195.257 100.545 196.316C102.769 196.883 106.086 197.152 106.086 197.152L106.205 195.358C106.205 195.361 99.458 194.944 94.581 192.604Z"
        fill="#992C29" />
    <path
        d="M106.186 195.382C106.186 195.382 107.737 197.425 107.784 198.599L105.118 200.071C105.118 200.071 105.569 196.544 106.186 195.382Z"
        fill="#C94039" />
    <path
        d="M106.186 195.382C105.51 196.385 105.118 200.071 105.118 200.071C105.118 200.071 106.368 198.596 106.431 198.111C106.493 197.628 106.186 195.382 106.186 195.382Z"
        fill="#992C29" />
    <path
        d="M105.964 196.598C105.964 196.598 104.282 198.787 103.414 199.191L102.879 197.725C102.879 197.725 104.207 196.688 105.964 196.598Z"
        fill="#992C29" />
    <path
        d="M27.1047 252.042C27.1047 252.042 23.3459 252.578 20.1228 250.968C20.1228 250.968 21.4665 249.358 23.8816 250.163C23.8816 250.163 21.1972 247.209 18.2434 244.255C18.2434 244.255 29.2535 247.209 30.8635 250.432C32.4766 253.652 27.1047 252.042 27.1047 252.042Z"
        fill="#34283A" />
    <path
        d="M47.2298 252.52L95.4362 220.849C95.4362 220.849 97.0744 212.893 94.7346 207.744C92.3947 202.594 81.394 202.362 81.394 202.362L24.295 229.275L47.2298 252.52Z"
        fill="#7A462F" />
    <path
        d="M52.0282 249.635L95.4359 220.849L82.3334 222.957L86.0765 217.106L84.4383 214.531L55.1856 229.977L52.0282 236.996L59.3986 241.56L52.0282 249.635Z"
        fill="#A96443" />
    <path
        d="M47.2295 252.52C47.2295 252.52 34.7472 253.457 30.5374 252.52C26.3244 251.584 21.958 241.911 21.958 241.911C21.958 241.911 18.6815 233.955 24.2978 229.275C29.914 224.596 38.5718 229.04 41.6164 230.679C44.6547 232.317 51.4425 238.948 47.2295 252.52Z"
        fill="#CC6D3D" />
    <path
        d="M50.6094 235.496L49.1027 233.955L63.3548 227.352L55.4958 232.718L60.0972 231.471L59.7119 234.059L63.1637 233.485L52.1411 239.716L50.6094 235.496Z"
        fill="#7A462F" />
    <path
        d="M94.3273 222.607C94.3273 222.607 94.3273 216.27 92.047 213.48L92.8082 220.324C92.8082 220.324 89.0055 215.76 87.7369 214.491C87.7369 214.491 90.7784 219.055 92.047 222.604L88.4981 219.816L93.5693 225.649L94.3273 222.607Z"
        fill="#856792" />
    <path
        d="M39.7588 233.163C39.7588 233.163 32.4887 229.385 28.116 231.462L30.8474 238.635L24.943 235.355C24.0753 238.347 25.3345 241.407 25.3345 241.407C25.3345 241.407 28.5389 249.025 31.6305 249.714C34.7221 250.4 43.881 249.194 43.881 249.194C46.9694 239.23 39.7588 233.163 39.7588 233.163Z"
        fill="#B44C29" />
    <path
        d="M87.2951 205.667L81.3531 208.113L82.7345 208.373L87.4956 207.132L86.6436 209.115L92.5417 206.898L90.1424 205.729L87.2951 205.667Z"
        fill="#A96443" />
    <path
        d="M59.3455 219.185C60.9838 221.825 73.986 215.344 75.8998 212.422C77.5694 209.872 63.0104 211.893 59.9438 213.161C56.8773 214.43 57.8076 216.704 59.3455 219.185Z"
        fill="#C94039" />
    <path
        d="M43.264 175.572C43.2891 174.447 40.398 170.006 38.4434 170.886C36.4857 171.769 39.5616 175.368 39.5616 175.368C39.5616 175.368 36.7676 175.165 35.3706 176.114C33.9736 177.063 34.3933 179.847 36.6987 179.575C39.0041 179.306 43.1951 178.829 43.264 175.572Z"
        fill="#273252" />
    <path
        d="M39.0388 178.942C39.0388 178.942 36.7835 179.506 36.5016 181.83C36.2479 183.928 37.3473 184.718 37.3473 184.718C37.3473 184.718 34.3873 185.914 35.3332 189.109C36.4421 192.865 43.637 193.156 45.2815 190.688C45.2815 190.688 52.1068 191.712 56.1538 187.186C60.2007 182.657 56.1538 177.965 53.5477 178.168C53.5477 178.168 50.8695 169.714 43.1233 173.379C39.1327 175.265 39.0388 178.942 39.0388 178.942Z"
        fill="#273252" />
    <path
        d="M41.1279 178.713C41.1279 178.713 39.1483 179.857 38.9071 182.106C38.6909 184.135 39.6306 184.897 39.6306 184.897C39.6306 184.897 37.1029 186.056 37.911 189.141C38.8601 192.771 45.0026 193.056 46.409 190.666C46.409 190.666 52.2382 191.656 55.6963 187.28C59.1544 182.904 55.6963 178.363 53.4692 178.563C53.4692 178.563 50.2398 170.015 43.6212 173.558C40.2101 175.384 41.1279 178.713 41.1279 178.713Z"
        fill="#3E4C6F" />
    <path
        d="M43.5898 175.324C43.4645 174.485 40.7488 171.55 39.405 172.455C38.0612 173.36 40.8083 175.644 40.8083 175.644C40.8083 175.644 38.7034 175.851 37.7856 176.734C36.8678 177.62 37.535 179.637 39.2139 179.139C40.8991 178.648 43.9563 177.758 43.5898 175.324Z"
        fill="#3E4C6F" />
    <path
        d="M70.5092 205.341C70.5092 205.341 77.3784 206.08 78.434 206.609C79.4896 207.139 80.3823 210.353 77.6352 212.044C74.8882 213.736 72.73 214.111 67.9752 212.526C63.2172 210.938 63.4302 204.812 70.5092 205.341Z"
        fill="#1D2538" />
    <path
        d="M57.0903 218.441C57.0903 218.441 69.5601 218.441 71.7777 218.441C73.9954 218.441 75.5804 210.622 70.1928 210.306C64.8052 209.99 57.0903 207.982 55.189 209.99C53.2877 211.997 51.0669 217.701 57.0903 218.441Z"
        fill="#273252" />
    <path
        d="M57.0903 218.441C57.0903 218.441 69.5601 218.441 71.7777 218.441C73.9954 218.441 75.5804 210.622 70.1928 210.306C64.8052 209.99 57.0903 207.982 55.189 209.99C53.2877 211.997 51.0669 217.701 57.0903 218.441Z"
        fill="#1D2538" />
    <path
        d="M70.5906 237.445C70.5906 237.445 79.2796 214.864 77.8858 212.427C76.4919 209.99 68.351 216.938 68.8678 220.568C69.3815 224.199 66.8412 236.471 66.8412 236.471L70.5906 237.445Z"
        fill="#CC6D3D" />
    <path
        d="M76.5136 220.267C78.3868 214.344 79.8339 208.925 79.245 207.894C77.8511 205.457 74.1112 205.696 72.2412 208.543C70.3712 211.39 68.3508 216.934 68.8645 220.568L76.5136 220.267Z"
        fill="#1D2538" />
    <path
        d="M76.8774 219.841C78.4122 214.983 79.6025 210.538 79.1201 209.695C77.9768 207.697 74.6691 207.838 73.1342 210.174C71.5994 212.511 70.1836 217.112 70.6064 220.088L76.8774 219.841Z"
        fill="#273252" />
    <path
        d="M67.6056 235.641C67.1483 235.942 66.5688 236.568 65.3535 237.417C64.3135 238.144 66.0989 239.848 66.3777 241.029C65.9705 240.299 70.9133 245.665 72.2289 246.338C75.2077 247.86 71.355 241.273 72.3698 243.178C72.3698 243.178 70.1553 239.337 70.5594 237.687C70.9666 236.036 68.066 235.341 67.6056 235.641Z"
        fill="#CC6D3D" />
    <path
        d="M66.0304 236.675C66.2246 236.571 66.4751 236.528 66.3968 236.703C66.3185 236.878 66.1776 237.646 66.4156 238.053C66.6537 238.46 69.407 243.027 71.1047 243.531C72.1415 243.838 71.9724 242.892 71.6372 241.993C71.4148 241.398 71.0452 240.34 71.0452 240.34C71.0452 240.34 72.0413 242.548 72.5926 243.513C73.1438 244.477 73.905 247.099 73.6763 247.801C73.4445 248.502 67.6404 244.646 66.9763 243.691C66.3123 242.736 65.4791 241.248 65.1314 240.54C64.8557 239.982 64.2669 239.691 64.2136 239.403C64.0977 238.758 65.4477 236.991 66.0304 236.675Z"
        fill="#992C29" />
    <path
        d="M69.1085 214.768C69.1085 214.768 69.4186 212.566 71.9182 212.387C74.7842 212.187 79.7584 223.933 80.3441 225.004C80.9298 226.075 87.4701 237.596 87.9838 239.313C88.4568 240.882 85.8758 243.344 83.6299 240.509C81.597 237.941 77.0708 231.892 74.8907 229.762C72.7075 227.632 66.706 219.726 69.1085 214.768Z"
        fill="#CC6D3D" />
    <path
        d="M78.0514 222.508C79.6551 222.395 82.2079 228.609 82.753 229.386C83.3011 230.16 86.565 236.236 86.8563 237.195C87.1194 238.075 83.8524 235.244 83.0349 234.191C82.2173 233.139 81.0459 231.381 79.9934 229.862C78.9409 228.343 76.6543 222.605 78.0514 222.508Z"
        fill="#F5894E" />
    <path
        d="M66.9318 213.439C66.9318 213.439 68.451 210.266 71.317 210.486C74.1831 210.705 79.3389 223.291 80.3162 224.672L74.8879 229.759C72.7078 227.632 64.5293 218.398 66.9318 213.439Z"
        fill="#1D2538" />
    <path
        d="M68.9549 214.274C68.9549 214.274 70.139 211.806 72.3692 211.975C74.5994 212.144 78.615 221.942 79.3762 223.019L74.922 222.177C73.2212 220.52 68.9549 214.274 68.9549 214.274Z"
        fill="#273252" />
    <path
        d="M83.6057 239.772C83.7529 240.302 84.1695 241.044 84.6018 242.46C84.9745 243.675 87.1452 242.497 88.3543 242.594C87.5336 242.757 94.1616 239.703 95.2047 238.657C97.5696 236.292 90.1178 237.934 92.2415 237.551C92.2415 237.551 87.9064 238.479 86.4592 237.586C85.0121 236.696 83.4585 239.243 83.6057 239.772Z"
        fill="#CC6D3D" />
    <path
        d="M83.9002 241.26C83.8595 241.044 83.8971 240.79 84.0412 240.919C84.1821 241.047 85.0435 240.994 85.504 240.894C85.9644 240.793 91.6151 239.074 92.5266 238.209C93.4381 237.345 92.1977 237.67 91.2204 237.786C90.5877 237.861 89.0685 237.971 89.0685 237.971C89.0685 237.971 91.4209 237.67 92.511 237.445C93.601 237.219 95.9972 237.094 96.8649 237.342C97.5759 237.545 97.1531 239.819 91.6182 242.143C90.547 242.594 88.5423 242.648 87.3927 243.631C87.2393 243.763 87.2675 244.026 87.1171 244.154C86.8133 244.417 86.3528 244.508 86.1586 244.483C85.4977 244.399 84.0192 241.912 83.9002 241.26Z"
        fill="#992C29" />
    <path
        d="M72.8548 191.629C72.8548 191.629 73.7632 191.92 73.6723 192.243C73.5846 192.566 72.7639 192.418 72.7639 192.418C72.7639 192.418 72.8798 192.916 72.529 193.004C72.1782 193.092 71.8869 192.976 71.8869 192.976C71.8869 192.976 72.1782 193.299 71.8869 193.386C71.5956 193.474 70.1892 193.621 70.2487 193.474C70.3082 193.324 72.8548 191.629 72.8548 191.629Z"
        fill="#F5894E" />
    <path
        d="M68.9927 193.674C68.9927 193.674 70.1642 191.403 70.5526 191.012C70.9442 190.62 72.504 191.128 72.504 191.128L68.9927 193.674Z"
        fill="#F5894E" />
    <path
        d="M56.5887 194.642C56.5887 194.642 60.3224 199.645 60.9458 200.816C61.5691 201.988 60.2535 204.512 58.2238 203.184C56.1972 201.859 53.0742 198.154 52.9959 196.515C52.9239 194.874 55.0288 193.706 56.5887 194.642Z"
        fill="#CC6D3D" />
    <path
        d="M66.2614 195.539C64.8299 196.3 59.7086 197.919 57.8355 199.401C55.9624 200.882 56.5105 202.442 58.3805 203.457C60.2505 204.472 64.6107 200.892 67.0288 199.41C69.447 197.928 70.0421 196.632 69.4188 195.773C68.7986 194.915 68.097 194.564 66.2614 195.539Z"
        fill="#CC6D3D" />
    <path
        d="M66.6499 197.957L61.3092 203.028C61.3092 203.028 64.2724 201.311 67.4705 199.109C70.2677 197.183 66.6499 197.957 66.6499 197.957Z"
        fill="#F5894E" />
    <path
        d="M68.6545 197.681C68.6545 197.681 70.3553 197.869 71.0726 197.076C71.7899 196.284 73.118 195.457 73.5252 195.197C74.0796 194.846 74.2864 194.201 73.1744 194.288C72.4101 194.348 72.053 194.73 71.3357 194.88C70.6184 195.031 70.4681 194.126 70.4681 194.126C70.4681 194.126 71.3357 193.142 71.5268 192.804C71.7179 192.465 72.8486 192.011 73.5284 191.632C74.2081 191.253 74.3584 190.953 74.0953 190.574C73.8322 190.195 73.4375 190.514 72.6231 190.686C71.9935 190.821 70.7312 191.156 70.2018 191.682C69.6725 192.212 69.0303 192.725 67.5895 194.755C66.6529 196.074 67.1447 197.756 68.6545 197.681Z"
        fill="#CC6D3D" />
    <path
        d="M50.2051 191.763C50.9099 189.931 51.6836 189.508 53.4439 190.213C55.2043 190.918 57.2466 196.271 57.2466 196.271L52.1033 197.962C52.1064 197.962 50.0015 192.293 50.2051 191.763Z"
        fill="#EE5D4F" />
    <path
        d="M42.4905 190.987C43.0605 189.846 44.871 190.197 47.7026 190.141C51.2234 190.072 52.2821 190.492 55.9782 192.183C58.6156 193.389 58.4778 199.369 58.7597 201.27C59.0416 203.171 59.0416 210.921 53.9704 212.048C48.8992 213.176 47.4207 206.836 44.3918 202.047C41.3628 197.258 41.5758 192.819 42.4905 190.987Z"
        fill="#F7BC4B" />
    <path
        d="M42.4905 190.987C43.0605 189.846 44.871 190.197 47.7026 190.141C49.463 190.106 49.3534 194.213 48.5139 195.995C47.5241 198.103 46.8131 200.07 48.6987 202.006C51.9219 205.311 48.492 205.082 53.9704 212.048C48.8992 213.176 47.4207 206.836 44.3918 202.047C41.3628 197.258 41.5758 192.819 42.4905 190.987Z"
        fill="#CE9436" />
    <path
        d="M47.709 208.728C47.778 212.813 47.6151 214.322 49.3942 216.75C51.1734 219.181 58.3401 219.005 59.5367 219.497C60.7332 219.989 60.6643 219.779 60.6643 219.779C60.6643 219.779 60.8241 218.053 61.106 216.434C61.3879 214.814 61.4223 212.947 63.7465 210.939C66.0707 208.932 68.3416 210.786 69.6635 209.777C73.6791 206.714 75.3705 205.868 75.3705 205.868C75.3705 205.868 71.2484 205.339 66.3902 204.813C61.9674 204.333 62.2681 204.321 57.4098 204.39C55.6244 204.415 47.637 204.644 47.709 208.728Z"
        fill="#F7BC4B" />
    <path
        d="M47.3175 208.459C47.3864 212.543 47.6182 214.322 49.3943 216.753C51.1734 219.184 58.3402 219.008 59.5367 219.5C60.7332 219.992 60.6643 219.782 60.6643 219.782C60.6643 219.782 60.8241 218.056 61.106 216.437C61.3879 214.817 61.4224 212.95 63.7465 210.942C66.0707 208.935 68.3417 210.789 69.6635 209.78C69.6635 209.78 66.03 207.046 62.597 207.359C59.164 207.672 54.3371 208.446 53.4694 208.217C52.6018 207.989 51.4867 206.842 50.6816 205.912C49.8766 204.982 47.2737 206.078 47.3175 208.459Z"
        fill="#CE9436" />
    <path
        d="M57.2688 198.627C56.9462 197.659 54.6847 197.226 53.6072 197.872C52.5296 198.517 51.4521 200.027 51.2391 201.101C51.0261 202.176 52.6393 200.24 54.9008 199.917C56.6173 199.673 57.5915 199.598 57.2688 198.627Z"
        fill="#CE9436" />
    <path
        d="M45.4507 199.864C45.4507 199.864 44.6582 206.081 44.2353 207.065C43.8125 208.052 43.5306 210.235 41.4883 210.166C39.446 210.097 39.233 208.546 39.3051 206.996C39.3771 205.445 39.3928 199.582 39.6747 199.018C39.9566 198.454 45.3097 196.976 45.4507 199.864Z"
        fill="#CC6D3D" />
    <path
        d="M45.4505 199.863C45.4505 199.863 44.658 206.081 44.2351 207.064C43.8123 208.051 42.9477 208.668 43.0198 207.12C43.0887 205.57 43.1075 199.706 43.3894 199.142C43.6682 198.579 45.3095 196.975 45.4505 199.863Z"
        fill="#F5894E" />
    <path
        d="M45.7326 197.257C45.7326 197.257 46.7193 190.354 43.6903 190.426C40.6614 190.494 40.0255 193.746 39.7467 197.116C39.6058 198.808 39.4648 200.355 39.4648 200.355C39.4648 200.355 40.8023 199.863 42.2119 199.65C43.7467 199.422 45.4507 199.86 45.4507 199.86L45.7326 197.257Z"
        fill="#C94039" />
    <path
        d="M45.7325 197.257C45.7325 197.257 46.7192 190.354 43.6903 190.426L44.4232 193.473L43.7999 198.388L42.2118 199.657C43.7466 199.428 45.4506 199.866 45.4506 199.866L45.7325 197.257Z"
        fill="#EE5D4F" />
    <path
        d="M43.7936 210.325C44.0943 208.017 44.9025 205.06 41.8735 204.427C38.8446 203.795 39.2862 208.283 39.0732 209.411C38.8634 210.538 38.5094 219.553 38.4405 220.963C38.3716 222.372 41.0466 223.641 42.0333 221.95C43.0199 220.258 43.4679 212.831 43.7936 210.325Z"
        fill="#CC6D3D" />
    <path
        d="M43.7937 210.325C44.038 208.445 44.6206 206.13 43.186 204.997C42.8603 204.74 43.1046 205.435 42.8102 207.659C42.6692 208.733 42.2025 210.86 41.9926 211.988C41.7828 213.116 41.5259 215.23 41.457 216.639C41.3881 218.049 42.6128 220.263 42.8321 218.885C43.2957 215.982 43.5745 212.022 43.7937 210.325Z"
        fill="#F5894E" />
    <path
        d="M33.2035 224.746C33.2035 224.746 32.3547 224.959 31.9819 224.533C31.6092 224.107 34.0524 222.516 34.5316 222.037C35.0109 221.557 37.0813 220.868 38.1965 220.975C39.3116 221.081 33.2035 224.746 33.2035 224.746Z"
        fill="#A96443" />
    <path
        d="M41.9111 220.496C41.9111 220.496 42.6002 221.504 42.4937 222.513C42.3872 223.522 42.5469 223.948 41.1123 224.107C39.6777 224.267 38.4029 225.276 38.4029 225.276C38.4029 225.276 38.0834 225.542 37.6073 225.542C37.1311 225.542 36.9181 225.276 36.9714 225.01C37.0246 224.743 38.9886 223.152 38.9886 223.152C38.9886 223.152 37.2376 223.259 36.9181 223.259C36.5986 223.259 35.1139 224.054 35.1139 224.054C35.1139 224.054 34.1053 225.116 33.7326 225.382C33.3598 225.649 33.0967 225.755 32.511 225.329C31.9284 224.903 33.0435 224.001 33.3066 223.525C33.5728 223.046 35.2705 221.827 35.2705 221.827C35.2705 221.827 39.9471 220.126 41.9111 220.496Z"
        fill="#CC6D3D" />
    <path
        d="M51.34 192.821C51.7337 192.092 51.2322 191.058 50.22 190.511C49.2077 189.965 48.068 190.113 47.6743 190.842C47.2806 191.571 47.7821 192.605 48.7943 193.152C49.8066 193.698 50.9463 193.55 51.34 192.821Z"
        fill="#F5894E" />
    <path d="M44.8868 185.846L47.6933 192.042L51.5085 192.446L50.0269 186.181L44.8868 185.846Z" fill="#F5894E" />
    <path d="M44.8868 185.846L47.6933 192.042L50.503 188.54L50.0269 186.181L44.8868 185.846Z" fill="#CC6D3D" />
    <path
        d="M50.0081 174.295C50.0081 174.295 51.0261 175.432 52.041 175.896C52.8084 176.246 53.4129 176.29 53.4129 176.29L53.25 175.996L53.6134 175.692C53.6134 175.692 52.2007 175.604 50.2931 174.104L50.0081 174.295Z"
        fill="#EE5D4F" />
    <path
        d="M49.905 174.16C49.905 174.16 50.4719 175.578 51.2675 176.362C51.8689 176.954 52.4234 177.204 52.4234 177.204L52.3701 176.872L52.8149 176.709C52.8149 176.709 51.5181 176.142 50.237 174.081L49.905 174.16Z"
        fill="#EE5D4F" />
    <path
        d="M50.5534 174.896C50.9104 174.818 51.1704 172.891 50.3153 172.885C49.5103 172.882 48.6051 173.02 48.7805 173.621C48.9559 174.223 50.1994 174.971 50.5534 174.896Z"
        fill="#EE5D4F" />
    <path
        d="M50.8163 173.793C50.8163 173.793 50.6503 172.979 50.3966 173.007C50.1429 173.035 50.3841 173.376 50.4749 173.915C50.5626 174.451 50.879 174.137 50.8163 173.793Z"
        fill="#F7BC4B" />
    <path
        d="M50.2404 174.51C50.2404 174.51 50.1715 174.134 50.7071 173.746C51.2427 173.357 51.6531 173.141 52.0102 173.345C52.3704 173.548 52.5301 174.497 52.3516 174.986C52.173 175.475 50.9326 175.161 50.6163 174.992C50.2999 174.823 50.2404 174.51 50.2404 174.51Z"
        fill="#EE5D4F" />
    <path
        d="M52.2296 174.105C52.2296 174.105 52.3768 174.866 52.0385 175.004C51.5374 175.211 51.7973 173.748 51.8193 173.516C51.8381 173.291 52.2985 173.554 52.2296 174.105Z"
        fill="#F7BC4B" />
    <path
        d="M52.8177 178.231C55.3454 184.083 54.1301 186.592 49.8858 187.776C46.6971 188.665 43.4833 187.478 42.0393 183.591C40.5922 179.704 41.2406 175.939 44.1944 174.441C48.0973 172.462 51.1199 174.3 52.8177 178.231Z"
        fill="#F5894E" />
    <path
        d="M51.9155 179.679C53.8419 184.882 50.8662 187.024 49.0369 187.551C46.4747 188.287 43.5397 187.429 42.2743 183.983C41.0088 180.537 41.7637 176.716 44.1349 175.469C49.6603 172.563 51.1575 177.637 51.9155 179.679Z"
        fill="#CC6D3D" />
    <path
        d="M43.1597 185.764C43.7984 185.359 43.7477 184.134 43.0465 183.026C42.3452 181.918 41.2589 181.347 40.6202 181.752C39.9814 182.156 40.0321 183.382 40.7334 184.49C41.4347 185.598 42.521 186.168 43.1597 185.764Z"
        fill="#CC6D3D" />
    <path
        d="M41.5258 181.953L41.8547 182.511C41.8547 182.511 40.7803 179.209 44.0254 176.785C46.9134 174.623 50.4686 174.846 50.4686 174.846C50.4686 174.846 47.2642 171.792 42.9761 175.253C39.6966 177.9 41.5258 181.953 41.5258 181.953Z"
        fill="#F7BC4B" />
    <path
        d="M47.1987 180.037C47.1987 180.037 47.2739 180.76 46.7289 181.045C46.1839 181.334 45.6514 180.76 45.6514 180.76C45.6514 180.76 46.0366 180.823 46.4626 180.626C46.8918 180.425 47.1987 180.037 47.1987 180.037Z"
        fill="#273252" />
    <path
        d="M52.0976 177.941C52.0976 177.941 52.4203 178.458 51.8314 178.752C51.515 178.912 50.9293 178.486 50.9293 178.486C50.9293 178.486 51.4023 178.558 51.7249 178.405C52.0475 178.251 52.0976 177.941 52.0976 177.941Z"
        fill="#273252" />
    <path d="M50.2713 176.926C50.9542 176.413 51.5493 176.76 51.5493 176.76" stroke="#1D2538" stroke-width="0.25"
        stroke-miterlimit="10" stroke-linecap="round" stroke-linejoin="round" />
    <path d="M45.8988 178.567C45.2003 178.727 44.9685 179.723 44.9685 179.723" stroke="#1D2538" stroke-width="0.25"
        stroke-miterlimit="10" stroke-linecap="round" stroke-linejoin="round" />
    <path
        d="M148.924 262.168C148.924 262.168 127.483 263.86 126.638 263.86C125.792 263.86 124.946 266.682 127.483 268.937L147.796 264.988L148.924 262.168Z"
        fill="#B44C29" />
    <path d="M137.043 264.715L139.051 265.608L127.483 268.94L147.793 264.991L141.171 263.487L137.043 264.715Z"
        fill="#7A462F" />
    <path
        d="M156.257 266.964C156.257 266.964 162.462 273.736 165.284 276.273C168.106 278.814 173.466 281.351 173.466 281.351C173.466 281.351 173.748 283.891 172.338 285.301C170.928 286.71 165.848 286.992 165.848 286.992L160.701 279.666L152.871 268.089L156.257 266.964Z"
        fill="#B44C29" />
    <path
        d="M173.466 281.354L169.854 281.122L165.836 283.465L165.948 287.036C165.948 287.036 171.884 286.604 172.338 286.15C173.184 285.304 174.315 282.764 173.466 281.354Z"
        fill="#D77D5B" />
    <path
        d="M172.351 282.601L170.171 282.46L167.746 283.876L167.815 286.031C167.815 286.031 171.398 285.768 171.674 285.495C172.178 284.985 172.861 283.453 172.351 282.601Z"
        fill="#A96443" />
    <path
        d="M160.332 273.736L162.387 274.459L156.965 268.843L156.686 270.112L162.387 277.811L164.351 280.712L160.332 273.736Z"
        fill="#7A462F" />
    <path d="M183.696 274.982L158.233 265.272L157.356 267.393L170.365 275.994L176.329 280.116L183.696 274.982Z"
        fill="#B44C29" />
    <path
        d="M183.696 274.982C183.696 274.982 180.629 273.641 180.347 273.641C180.066 273.641 176.886 275.649 176.886 275.649C176.886 275.649 175.405 279.9 176.438 280.335C177.475 280.774 180.902 280.67 180.902 280.67L183.802 278.997L183.696 274.982Z"
        fill="#D77D5B" />
    <path
        d="M182.421 276.138C182.421 276.138 179.793 275.985 179.639 275.985C179.486 275.985 178.267 277.034 178.267 277.034C178.267 277.034 177.682 278.835 178.249 279.076C178.816 279.317 180.72 279.54 180.72 279.54L182.421 277.532V276.138Z"
        fill="#A96443" />
    <path
        d="M175.831 274.61L166.155 269.178L168.921 269.77L161.118 266.613L159.637 267.797L168.623 272.636L168.128 271.449L175.831 274.61Z"
        fill="#7A462F" />
    <path
        d="M146.863 266.501C146.863 266.501 139.893 276.841 138.484 277.968C137.074 279.096 136.793 283.61 141.588 284.74C146.384 285.868 148.642 284.177 148.642 284.177L151.464 267.249L146.863 266.501Z"
        fill="#B44C29" />
    <path
        d="M148.642 284.176L147.537 279.449L141.623 276.771L138.052 278.221C138.052 278.221 137.159 280.564 138.052 282.463C138.945 284.361 140.508 284.918 143.634 285.589C146.753 286.256 148.642 284.176 148.642 284.176Z"
        fill="#D77D5B" />
    <path
        d="M146.437 283.34L145.745 280.38L142.042 278.704L139.806 279.613C139.806 279.613 139.248 281.079 139.806 282.266C140.363 283.453 141.344 283.804 143.298 284.22C145.253 284.64 146.437 283.34 146.437 283.34Z"
        fill="#A96443" />
    <path d="M148.091 268.956L145.078 273.977L147.311 272.749L148.091 278.441L150.882 269.401L148.091 268.956Z"
        fill="#7A462F" />
    <path
        d="M144.693 264.145L134.256 268.377L130.87 271.199C128.612 271.763 119.02 276.84 117.893 277.122C116.765 277.404 118.112 281.489 119.525 282.052C120.934 282.616 122.124 281.354 122.124 281.354C122.124 281.354 144.693 268.659 146.951 267.531C149.206 266.4 144.693 264.145 144.693 264.145Z"
        fill="#B44C29" />
    <path
        d="M143.703 266.538L136.063 269.679L140.837 268.68L136.141 271.452L136.217 271.838L133.137 273.914L145.861 267.615L143.703 266.538Z"
        fill="#7A462F" />
    <path
        d="M117.213 278.723C117.119 277.37 117.886 277.119 117.886 277.119C117.886 277.119 120.113 277.069 120.671 277.589C121.229 278.109 121.526 280.9 121.526 280.9C121.526 280.9 121.266 282.034 120.931 282.184C120.596 282.335 119.456 282.313 118.644 281.999C116.953 281.345 117.263 279.434 117.213 278.723Z"
        fill="#D77D5B" />
    <path
        d="M117.871 279.327C117.811 278.457 118.306 278.294 118.306 278.294C118.306 278.294 119.741 278.259 120.101 278.598C120.461 278.933 120.652 280.731 120.652 280.731C120.652 280.731 120.483 281.46 120.27 281.558C120.054 281.655 119.321 281.639 118.798 281.439C117.702 281.016 117.902 279.788 117.871 279.327Z"
        fill="#A96443" />
    <path d="M135.631 270.742L124.467 276.098L122.979 278.479L125.065 276.844L128.486 276.396L135.631 270.742Z"
        fill="#7A462F" />
    <path
        d="M153.365 270.633C139.476 270.98 134.336 256.027 133.635 253.806C132.933 251.585 130.975 243.441 133.635 240.487C133.635 248.897 138.305 249.665 138.305 249.665C138.305 249.665 133.913 241.345 137.124 238.442C140.335 235.541 146.602 235.579 146.28 225.743C146.18 222.733 149.033 219.651 151.395 219.651C151.395 219.651 149.635 228.904 155.862 228.644C162.089 228.384 159.977 239.45 160.275 243.291C160.275 243.291 161.136 247.15 162.953 244.468C164.77 241.787 165.428 237.853 165.428 237.853C165.428 237.853 167.633 245.032 167.968 249.828C168.851 262.532 161.067 270.442 153.365 270.633Z"
        fill="#F7BC4B" />
    <path
        d="M149.625 268.54C136.616 266.075 139.821 255.224 140.76 253.523C140.76 253.523 140.823 257.075 141.434 258.479C142.449 260.819 146.445 261.611 144.779 258.04C143.113 254.469 142.539 252.211 145.882 246.006C145.882 246.006 150.671 242.09 149.634 233.79C149.026 228.922 152.008 244.662 152.008 244.662C152.008 244.662 153.672 240.866 154.304 246.416C154.702 249.918 157.07 261.636 161.048 256.446C161.941 264.324 154.627 269.489 149.625 268.54Z"
        fill="#EE5D4F" />
    <path
        d="M166.759 263.97C172.904 264.64 170.621 256.424 170.621 256.424C170.621 256.424 169.249 261.217 166.759 263.97Z"
        fill="#F7BC4B" />
    <path
        d="M141.588 216.547C141.312 218.207 141.635 221.471 143.248 217.931C144.689 214.774 141.863 214.887 141.588 216.547Z"
        fill="#FEED7F" />
    <path
        d="M160.466 224.822C160.466 224.822 163.511 225.376 162.681 222.883C161.851 220.392 160.466 224.822 160.466 224.822Z"
        fill="#EE5D4F" />
    <path
        d="M157.56 237.279C157.56 237.279 158.944 236.448 158.665 234.234C158.39 232.016 157.56 237.279 157.56 237.279Z"
        fill="#EE5D4F" />
    <path d="M142.75 228.697L141.92 224.822L141.365 225.376C141.368 225.376 139.705 227.036 142.75 228.697Z"
        fill="#EE5D4F" />
    <path
        d="M147.022 201.298C144.072 202.281 141.121 196.709 145.71 194.413C149.131 192.703 146.603 193.962 145.694 196.947C144.679 200.286 147.777 201.047 147.022 201.298Z"
        fill="#F7BC4B" />
    <path
        d="M135.828 224.171C134.844 222.858 130.681 226.83 132.238 231.24C132.827 232.907 132.219 229.088 134.515 227.45C136.811 225.812 136.811 225.483 135.828 224.171Z"
        fill="#F7BC4B" />
    <path
        d="M157.137 207.641C156.153 207.97 155.17 211.575 159.104 213.871C159.104 213.871 158.12 207.312 157.137 207.641Z"
        fill="#F7BC4B" />
    <path opacity="0.4"
        d="M128.745 236.854C128.745 236.854 125.723 223.707 136.272 214.461C136.272 214.461 138.152 202.063 148.2 195.131C158.249 188.199 160.191 189.418 162.577 169.853C164.444 154.555 171.379 151.307 167.617 138.627C163.787 125.716 170.014 108.886 160.1 100.46C150.186 92.0341 146.192 87.1476 145.726 83.6081C144.294 72.7077 151.217 62.8409 158.612 48.4165C161.685 42.4213 153.657 13.2249 153.657 13.2249C164.065 24.1285 167.617 46.1049 166.048 52.382C161.801 69.3686 158.866 69.2872 166.543 83.6081C174.22 97.9291 184.883 100.46 188.353 126.731C193.988 137.271 189.841 148.541 186.865 155.479C183.893 162.417 185.65 179.313 184.551 185.715C180.234 210.833 170.352 214.959 173.76 230.326C177.168 245.69 179.213 257.865 161.632 267.112C144.047 276.352 111.662 253.803 128.745 236.854Z"
        fill="#FEED7F" />
</svg>