<svg width="29" height="20" viewBox="0 0 29 20" fill="none" xmlns="http://www.w3.org/2000/svg">
<path d="M2.23188 0H26.7153C27.1339 0.00414231 27.5339 0.173004 27.8288 0.470005C28.1237 0.767006 28.2897 1.16823 28.2909 1.58677V18.4132C28.2932 18.7343 28.1974 19.0484 28.0163 19.3135C27.9837 19.3985 27.933 19.4753 27.8677 19.5386C27.8238 19.5806 27.7737 19.6155 27.7192 19.6421C27.4352 19.8817 27.0757 20.0133 26.7041 20.0135H2.23188C1.8153 20.0094 1.41695 19.8421 1.12237 19.5475C0.827785 19.2529 0.660477 18.8546 0.656372 18.438V1.58677C0.657536 1.16823 0.823545 0.767006 1.11844 0.470005C1.41333 0.173004 1.81337 0.00414231 2.23188 0V0ZM2.16436 17.7448L10.4426 9.14247L2.16436 2.1472V17.7448ZM11.6895 10.2161L2.84408 18.7824H26.0266L17.5751 10.2161L15.0993 12.289C14.9902 12.3796 14.8529 12.4292 14.7111 12.4292C14.5693 12.4292 14.4319 12.3796 14.3228 12.289L11.6895 10.2161ZM18.8018 9.12672L26.7829 17.8145V2.07067L18.8018 9.12672ZM2.94312 1.21765L14.6874 10.736L25.9141 1.21765H2.94312Z" fill="#495057"/>
</svg>
