<svg width="26" height="25" viewBox="0 0 26 25" fill="none" xmlns="http://www.w3.org/2000/svg">
<g clip-path="url(#clip0_911_864)">
<path d="M1.82393 12.7983C2.38444 13.2979 2.94454 13.7703 3.50566 14.2151C4.24622 13.0904 5.0531 12.0591 5.93018 11.1271C5.76457 10.8152 5.67098 10.459 5.67098 10.0816C5.67098 9.89522 5.69356 9.71436 5.7369 9.54081C4.82056 8.94714 3.87756 8.28512 2.89571 7.5474C2.1696 9.0448 1.7631 10.7247 1.7631 12.4996H1.76554V12.5002H1.7629C1.7629 12.6206 1.76534 12.7407 1.769 12.8601L1.82393 12.7983ZM3.4377 6.55741C4.42057 7.29879 5.36112 7.96326 6.2734 8.55754C6.6803 8.12337 7.25932 7.85217 7.9008 7.85217C8.40963 7.85217 8.87838 8.02287 9.25374 8.30994C9.5223 8.13192 9.79635 7.96021 10.0751 7.79643C11.2364 7.11365 12.4825 6.5568 13.8206 6.13281C13.8108 6.04411 13.8064 5.95418 13.8064 5.86385C13.8064 5.52327 13.8745 5.19857 13.9986 4.90336C12.6394 3.75163 11.0297 2.73173 9.17684 1.83065C7.63082 2.40641 6.2439 3.30851 5.09888 4.45353C4.46655 5.08525 3.90828 5.79163 3.4377 6.55741ZM10.7371 1.3739C12.2024 2.16248 13.5095 3.03202 14.6537 3.9917C15.0362 3.65641 15.5225 3.43587 16.0575 3.38501C16.1776 2.79724 16.2909 2.19971 16.3985 1.59078C15.3674 1.28337 14.2757 1.11735 13.1455 1.11735V1.11979H13.1445V1.11735C12.3185 1.11735 11.5135 1.20646 10.7371 1.3739ZM17.4664 1.9692C17.3718 2.49797 17.2727 3.0188 17.169 3.53129C17.915 3.81124 18.4912 4.43868 18.7002 5.21668C19.7101 5.14242 20.7605 5.12797 21.8545 5.17598C21.6437 4.92594 21.4231 4.68424 21.192 4.45292C20.1345 3.396 18.8708 2.54639 17.4664 1.9692ZM22.7205 6.34847C21.3226 6.24369 19.997 6.24105 18.7406 6.33565C18.6377 6.87317 18.3614 7.34924 17.973 7.70365C18.3034 8.21289 18.6029 8.74064 18.8704 9.28752C19.2603 10.0852 19.5813 10.9231 19.8346 11.8009C19.9117 11.793 19.99 11.7885 20.0698 11.7885C21.0706 11.7885 21.9175 12.4477 22.1995 13.3567C22.9372 13.3826 23.7 13.3962 24.4918 13.4011C24.5152 13.1034 24.5278 12.8033 24.5278 12.5004H24.5254V12.4998V12.4994H24.5278C24.5272 10.234 23.8637 8.12276 22.7205 6.34847ZM24.3488 14.5152C23.6275 14.5101 22.9299 14.4975 22.2526 14.4751C22.0717 15.3438 21.3847 16.0276 20.5137 16.2038C20.552 17.2449 20.5162 18.3333 20.4034 19.4698C21.0421 19.4025 21.6897 19.3097 22.3486 19.1931C23.3421 17.8304 24.0399 16.24 24.3488 14.5152ZM22.9913 20.1994L22.9938 20.211L22.9803 20.2134C22.6709 20.6083 22.3383 20.9839 21.9834 21.3387C19.7233 23.5988 16.5983 24.9972 13.146 24.9976V25H13.1455H13.1449V24.9976C9.69259 24.9976 6.56779 23.5988 4.30664 21.3381C2.04631 19.0776 0.647786 15.9526 0.64738 12.5002H0.645142V12.4996H0.64738C0.64738 9.04683 2.04631 5.92204 4.30705 3.6613C6.56779 1.40055 9.69198 0.00223796 13.1445 0.00223796V0H13.1455V0.00223796C16.5983 0.00223796 19.7231 1.40076 21.9836 3.66191C24.2444 5.92204 25.6427 9.04683 25.6427 12.4994H25.6451V12.4998V12.5004H25.6427C25.6427 15.4055 24.6523 18.078 22.9913 20.1994ZM21.2423 20.4946C20.9151 20.5381 20.5908 20.5758 20.2688 20.6069C20.2287 20.8948 20.1835 21.1855 20.1345 21.4797C20.506 21.1904 20.8594 20.8791 21.192 20.5465L21.2423 20.4946ZM18.8377 22.3556C18.9516 21.7889 19.0485 21.2343 19.1284 20.6913C17.0896 20.7973 15.1412 20.6502 13.2556 20.2521C12.887 20.6893 12.3358 20.9682 11.7194 20.9682C11.6736 20.9682 11.6284 20.9664 11.5841 20.9637C11.2282 21.8713 10.8838 22.7543 10.568 23.5883C11.3961 23.7801 12.2591 23.8822 13.1447 23.8822V23.8798H13.1453H13.1458V23.8822C15.2187 23.8822 17.1629 23.3262 18.8377 22.3556ZM9.49178 23.2821C9.83744 22.3633 10.1825 21.4762 10.533 20.5806C10.0916 20.2574 9.78699 19.7577 9.7229 19.1852C7.7004 18.3838 5.73954 17.2719 3.80086 15.8478C3.48999 16.3715 3.19234 16.9143 2.9071 17.4764C3.46436 18.6196 4.20858 19.6568 5.09867 20.5469C6.32121 21.769 7.81942 22.7148 9.49178 23.2821ZM2.35535 16.1312C2.53479 15.8036 2.71891 15.4826 2.90751 15.1678C2.57589 14.9068 2.24447 14.6364 1.91366 14.3573C2.01396 14.9658 2.16248 15.5593 2.35535 16.1312ZM9.94487 9.19047C10.0643 9.4635 10.1308 9.76481 10.1308 10.0818C10.1308 10.295 10.1005 10.5015 10.0446 10.6968C11.2695 11.2828 12.4736 11.7478 13.6938 12.1151C14.1374 10.7872 14.5636 9.40816 14.9605 7.9655C14.6486 7.76693 14.3842 7.50122 14.1872 7.18852C12.9167 7.58809 11.7365 8.11361 10.6392 8.75854C10.4045 8.89648 10.1723 9.04093 9.94487 9.19047ZM9.47286 11.6628C9.06982 12.0642 8.5142 12.312 7.90059 12.312C7.4526 12.312 7.03512 12.1796 6.68518 11.9525C5.85714 12.8394 5.09501 13.8224 4.39311 14.895C6.21094 16.2386 8.04199 17.2937 9.92106 18.0617C10.2511 17.4034 10.9324 16.9511 11.719 16.9511C11.7946 16.9511 11.8689 16.9554 11.9427 16.9637C12.4101 15.7426 12.8784 14.4836 13.3329 13.1736C12.0404 12.783 10.767 12.2876 9.47286 11.6628ZM16.9958 8.25439C16.7739 8.31889 16.5391 8.35347 16.296 8.35347C16.202 8.35347 16.1088 8.3488 16.0175 8.33822C15.6262 9.75464 15.2081 11.1092 14.7732 12.4133C15.8413 12.6833 16.931 12.8853 18.068 13.0341C18.2334 12.6986 18.4804 12.4111 18.7838 12.1971C18.5447 11.3491 18.2379 10.543 17.8642 9.77804C17.6066 9.2513 17.3169 8.7441 16.9958 8.25439ZM19.3923 16.1432C18.5262 15.8675 17.8896 15.0771 17.8426 14.1313C16.661 13.974 15.5261 13.7608 14.4124 13.4755C13.9427 14.8309 13.4587 16.1326 12.9757 17.3934C13.4338 17.7616 13.7272 18.3268 13.7272 18.9598C13.7272 19.0432 13.7217 19.1252 13.712 19.2061C15.4934 19.5603 17.3376 19.68 19.2708 19.5636C19.3982 18.3659 19.4379 17.2264 19.3923 16.1432Z" fill="#495057"/>
</g>
<defs>
<clipPath id="clip0_911_864">
<rect width="25" height="25" fill="white" transform="translate(0.645142)"/>
</clipPath>
</defs>
</svg>
