<svg width="39" height="25" viewBox="0 0 39 25" fill="none" xmlns="http://www.w3.org/2000/svg">
<path fill-rule="evenodd" clip-rule="evenodd" d="M21.7652 19.0465C21.458 19.0465 21.2153 18.7177 21.2153 18.3153C21.2153 17.9129 21.4611 17.5842 21.7652 17.5842H32.7968C33.104 17.5842 33.3436 17.9129 33.3436 18.3153C33.3436 18.7177 33.0978 19.0465 32.7968 19.0465H21.7652ZM8.52791 0H30.5112C30.776 0.00100548 31.0323 0.0931919 31.2371 0.261045C31.4419 0.428898 31.5826 0.66217 31.6356 0.921602H34.3358C35.4106 0.924839 36.4405 1.35301 37.2007 2.11269C37.961 2.87237 38.3899 3.9019 38.394 4.97665V20.9511C38.3896 22.0226 37.9611 23.0487 37.202 23.805C36.4439 24.5647 35.4152 24.9923 34.342 24.9939H4.70326C3.62957 24.9906 2.60064 24.5633 1.84055 23.805C1.08047 23.0466 0.650809 22.0186 0.645142 20.945L0.645142 4.97051C0.646295 4.43979 0.752174 3.91451 0.95671 3.42478C1.16125 2.93505 1.46042 2.4905 1.83708 2.11661C2.21238 1.7382 2.65885 1.4378 3.15076 1.2327C3.64267 1.02761 4.17031 0.921876 4.70326 0.921602H7.40356C7.45598 0.661906 7.59654 0.428305 7.80144 0.260355C8.00633 0.0924059 8.26298 0.000429389 8.52791 0V0ZM31.6724 2.81703V2.96756C31.6716 3.27121 31.5506 3.56219 31.3359 3.77691C31.1212 3.99162 30.8302 4.11261 30.5266 4.11342H8.52791C8.22426 4.11261 7.93328 3.99162 7.71856 3.77691C7.50385 3.56219 7.38287 3.27121 7.38205 2.96756V2.81703H4.70326C4.41806 2.81539 4.13539 2.87049 3.87168 2.97913C3.60798 3.08778 3.36853 3.24779 3.16726 3.44987C2.96574 3.65139 2.80629 3.89096 2.69818 4.15465C2.59007 4.41834 2.53545 4.70088 2.5375 4.98587V20.9603C2.54152 21.5294 2.76937 22.074 3.17178 22.4764C3.57419 22.8788 4.11882 23.1067 4.6879 23.1107H34.3205C34.6057 23.1124 34.8884 23.0573 35.1521 22.9486C35.4158 22.84 35.6552 22.68 35.8565 22.4779C36.0586 22.2766 36.2186 22.0372 36.3272 21.7735C36.4359 21.5098 36.491 21.2271 36.4893 20.9419V4.96744C36.4837 4.39885 36.2554 3.85513 35.8533 3.45306C35.4512 3.05099 34.9075 2.82263 34.3389 2.81703H31.6724ZM14.4108 14.7979C16.5858 16.7025 18.0112 13.9592 19.0772 18.432C19.0757 18.5239 19.0557 18.6145 19.0184 18.6984C18.9812 18.7824 18.9274 18.858 18.8603 18.9208C18.7933 18.9835 18.7143 19.0322 18.628 19.0638C18.5418 19.0954 18.4501 19.1094 18.3583 19.1048H6.6417C6.55016 19.1085 6.4588 19.094 6.37293 19.062C6.28707 19.0301 6.2084 18.9814 6.14151 18.9188C6.07462 18.8562 6.02085 18.781 5.98331 18.6974C5.94577 18.6138 5.92522 18.5236 5.92285 18.432C6.96119 14.0268 8.2115 16.6902 10.5616 14.8255C10.6798 14.5395 10.7824 14.2472 10.8688 13.95C10.9456 13.7104 10.4694 13.2373 10.3097 12.9823L9.71678 12.0361C9.52672 11.785 9.40977 11.4863 9.37886 11.1729C9.37426 11.0674 9.39424 10.9622 9.43723 10.8657C9.48422 10.7704 9.55514 10.6889 9.64305 10.6291C9.68784 10.5985 9.73636 10.5737 9.78744 10.5554C9.74473 9.99123 9.73448 9.42504 9.75672 8.85967C9.78129 8.73211 9.81622 8.60677 9.86117 8.48489C9.98781 8.10597 10.2034 7.76291 10.4899 7.48445C10.7764 7.20598 11.1254 7.00021 11.5078 6.88437C11.8795 6.75842 11.7351 6.45122 12.1222 6.47272C13.0069 6.5188 14.3739 7.08712 14.887 7.70152C15.6243 8.5494 15.4338 9.59388 15.4092 10.6322C15.4835 10.6506 15.5514 10.689 15.6055 10.7431C15.6596 10.7972 15.698 10.8651 15.7164 10.9394C15.7504 11.2199 15.6945 11.5038 15.5567 11.7504V11.7719L14.8593 12.9024C14.6212 13.3373 14.3257 13.7382 13.9807 14.0944C13.8794 14.1773 14.3279 14.7272 14.3954 14.8163L14.4108 14.7979ZM21.7836 10.1899C21.4764 10.1899 21.2337 9.86115 21.2337 9.45871C21.2337 9.05628 21.4795 8.72758 21.7836 8.72758H28.3577C28.6649 8.72758 28.9076 9.05628 28.9076 9.45871C28.9076 9.86115 28.6619 10.1899 28.3577 10.1899H21.7836ZM21.7836 14.6043C21.4764 14.6043 21.2337 14.2756 21.2337 13.8732C21.2337 13.4708 21.4795 13.1421 21.7836 13.1421H32.2285C32.5357 13.1421 32.7783 13.4708 32.7783 13.8732C32.7783 14.2756 32.5326 14.6043 32.2285 14.6043H21.7836Z" fill="#495057"/>
</svg>
