<svg width="23" height="25" viewBox="0 0 23 25" fill="none" xmlns="http://www.w3.org/2000/svg">
<path fill-rule="evenodd" clip-rule="evenodd" d="M18.156 16.6382C20.8456 17.4846 22.5892 18.8375 22.5892 20.3634C22.5892 22.9248 17.6779 25 11.6172 25C5.5564 25 0.645142 22.9248 0.645142 20.3634C0.645142 18.8009 2.47618 17.4195 5.26954 16.5792C5.37126 16.7339 5.47299 16.8885 5.57675 17.039C5.79512 17.3564 6.02095 17.6684 6.25423 17.9749C4.29705 18.4998 3.04177 19.3095 3.04177 20.2128C3.04177 21.7957 6.84017 23.0794 11.5276 23.0794C16.2151 23.0794 20.0115 21.7957 20.0115 20.2128C20.0115 19.3665 18.925 18.6056 17.1957 18.0807C17.5355 17.6148 17.8549 17.1306 18.156 16.6321V16.6382ZM15.2223 17.1896C14.3049 18.2006 13.2478 19.0755 12.0831 19.7876C12.0107 19.8416 11.9235 19.8721 11.8333 19.875C11.7431 19.8779 11.6542 19.8531 11.5785 19.8039C9.91636 18.7566 8.44016 17.44 7.21044 15.9079C5.61947 13.912 4.6185 11.6985 4.27467 9.56228C3.92678 7.40572 4.25229 5.32647 5.32447 3.63581C5.76233 2.94754 6.31249 2.33755 6.95206 1.83121C8.47183 0.626795 10.2073 -0.0120352 11.9305 0.000171731C13.691 0.02657 15.3769 0.715193 16.6525 1.92887C17.1436 2.37627 17.5683 2.89143 17.9139 3.45881C19.0695 5.36513 19.3197 7.79431 18.8111 10.256C18.2469 12.8383 17.0086 15.2251 15.2223 17.1733V17.1896ZM11.6009 3.84333C12.3352 3.84333 13.0531 4.06109 13.6637 4.46907C14.2743 4.87705 14.7502 5.45694 15.0312 6.13539C15.3122 6.81384 15.3857 7.56039 15.2425 8.28063C15.0992 9.00087 14.7456 9.66246 14.2263 10.1817C13.7071 10.701 13.0455 11.0546 12.3252 11.1979C11.605 11.3411 10.8584 11.2676 10.18 10.9866C9.50154 10.7056 8.92166 10.2297 8.51367 9.61907C8.10569 9.00848 7.88793 8.29062 7.88793 7.55627C7.88766 7.06861 7.98352 6.58567 8.17002 6.13507C8.35652 5.68448 8.63 5.27506 8.97483 4.93023C9.31966 4.58539 9.72908 4.31191 10.1797 4.12541C10.6303 3.93891 11.1132 3.84306 11.6009 3.84333Z" fill="#495057"/>
</svg>
