<svg width="26" height="25" viewBox="0 0 26 25" fill="none" xmlns="http://www.w3.org/2000/svg">
<g clip-path="url(#clip0_911_830)">
<path d="M7.56071 10.283C8.40661 11.8046 9.38009 13.2691 10.6429 14.604C11.9114 15.9454 13.4822 17.1677 15.5246 18.204L15.5267 18.205L15.5271 18.204C15.6759 18.2798 15.8176 18.278 15.9508 18.2281C16.1438 18.1559 16.3448 17.9956 16.5402 17.8016C16.6893 17.6531 16.8762 17.4082 17.0782 17.1425C17.8646 16.1092 18.8369 14.8318 20.2095 15.4673C20.2385 15.4806 20.2659 15.4962 20.2917 15.5135L24.8663 18.1414C24.8826 18.1508 24.8984 18.1608 24.9133 18.1714C25.5198 18.5877 25.7674 19.229 25.7701 19.9469C25.7729 20.6873 25.4983 21.516 25.1006 22.2167C24.5761 23.1403 23.7947 23.7506 22.9003 24.1643C22.0477 24.5585 21.1014 24.7683 20.1876 24.902C18.7585 25.1116 17.4113 24.9785 16.0393 24.556C14.7 24.1436 13.3452 23.455 11.8681 22.54L11.7605 22.4733C11.0805 22.0521 10.3485 21.599 9.63629 21.0616C7.00578 19.0762 4.32701 16.211 2.59003 13.0664C1.12786 10.4194 0.327768 7.56433 0.763904 4.84201C1.00293 3.34814 1.64722 1.9921 2.7579 1.09386C3.73159 0.30603 5.04552 -0.1207 6.73445 0.0299951C6.9334 0.0471707 7.10106 0.160652 7.19553 0.320139L7.19675 0.319526L10.1256 5.28203C10.557 5.83778 10.6049 6.38924 10.3716 6.93742C10.1788 7.39094 9.78024 7.80663 9.25189 8.1986C9.09118 8.3315 8.90265 8.46952 8.7082 8.61183C8.0543 9.0905 7.30635 9.63786 7.56071 10.283ZM9.77881 15.4215C8.42849 13.9939 7.39979 12.4481 6.51239 10.8502C6.49685 10.825 6.48295 10.7984 6.47109 10.7704C5.8221 9.24528 6.98635 8.39346 8.00319 7.6498C8.17596 7.52343 8.34322 7.40096 8.49412 7.27582L8.49453 7.27643C8.50332 7.26907 8.51252 7.26192 8.52213 7.25496C8.89897 6.97811 9.17051 6.71373 9.27418 6.47041C9.33327 6.33157 9.31139 6.17883 9.17889 6.00728C9.1562 5.98091 9.13534 5.95187 9.11694 5.92079L6.32837 1.1965C5.12833 1.14722 4.19799 1.46661 3.50994 2.02338C2.64319 2.72451 2.13529 3.81434 1.94084 5.02889C1.55132 7.46087 2.29171 10.0576 3.63631 12.4921C5.28802 15.482 7.84329 18.2125 10.356 20.1086C11.0469 20.63 11.7415 21.06 12.3868 21.4595L12.4944 21.5262C13.8885 22.3897 15.156 23.0364 16.39 23.4163C17.5914 23.7862 18.7688 23.903 20.015 23.7202C20.8347 23.6001 21.6739 23.4165 22.4008 23.0804C23.086 22.7634 23.6783 22.3065 24.0639 21.6278C24.3698 21.0886 24.5813 20.4719 24.5794 19.9467C24.5782 19.6134 24.4829 19.3273 24.2512 19.1607L19.7018 16.5477C19.1986 16.3267 18.5508 17.1777 18.0265 17.8666C17.8008 18.1635 17.592 18.4375 17.3812 18.647C17.0792 18.9468 16.7437 19.2038 16.3666 19.3445C15.9299 19.5079 15.468 19.515 14.9855 19.2688L14.9859 19.268C12.8156 18.1669 11.1392 16.86 9.77881 15.4215Z" fill="#495057"/>
</g>
<defs>
<clipPath id="clip0_911_830">
<rect width="25.1253" height="25" fill="white" transform="translate(0.645142)"/>
</clipPath>
</defs>
</svg>
