<svg width="25" height="25" viewBox="0 0 25 25" fill="none" xmlns="http://www.w3.org/2000/svg">
<g clip-path="url(#clip0_911_838)">
<path fill-rule="evenodd" clip-rule="evenodd" d="M8.18705 8.13811C7.95105 8.14624 7.77405 8.19507 7.65198 8.27849C7.5828 8.32528 7.53194 8.38428 7.49939 8.45549C7.46277 8.53483 7.44649 8.63046 7.44852 8.74032C7.4587 9.06381 7.62756 9.48495 7.95308 9.9712L7.95715 9.9773L9.01916 11.6659C9.44437 12.3434 9.88993 13.0331 10.4454 13.5397C10.9784 14.028 11.6254 14.3576 12.4799 14.3596C13.4056 14.3617 14.083 14.0199 14.6344 13.5051C15.2061 12.9701 15.6578 12.2356 16.1013 11.5032L17.2976 9.53378C17.5214 9.02515 17.6007 8.68539 17.5498 8.48601C17.5193 8.368 17.3891 8.309 17.1653 8.2968C17.1185 8.29476 17.0697 8.29476 17.0188 8.29476C16.9659 8.2968 16.909 8.29883 16.852 8.30494C16.8195 8.30697 16.7889 8.30494 16.7605 8.29883C16.6547 8.30494 16.5448 8.2968 16.4329 8.28052L16.8418 6.46778C13.8043 6.94589 11.5318 4.68962 8.31929 6.01612L8.55123 8.15235C8.42305 8.15845 8.30098 8.15438 8.18705 8.13811ZM15.4116 15.3667C15.2244 15.1144 15.0393 14.8418 14.8704 14.5936C14.7931 14.4797 14.7178 14.3718 14.6486 14.2721C14.0688 14.6974 13.373 14.9618 12.4819 14.9598C11.5236 14.9578 10.7851 14.616 10.1748 14.0992C10.1707 14.1053 10.1666 14.1114 10.1626 14.1175C10.0629 14.2559 9.95097 14.4186 9.83093 14.5936C9.61934 14.9049 9.3813 15.2548 9.1453 15.5539L8.81978 15.1917C9.0273 14.9191 9.24296 14.6058 9.4342 14.323C9.55831 14.1399 9.67427 13.969 9.77193 13.8347C9.78821 13.8123 9.80855 13.792 9.83093 13.7778C9.3162 13.2508 8.9032 12.612 8.51054 11.9833L7.44852 10.2967C7.05993 9.71892 6.85852 9.18791 6.84631 8.75456C6.84021 8.55111 6.87479 8.36394 6.95007 8.20321C7.02942 8.03231 7.15149 7.8899 7.31425 7.78003C7.39156 7.72917 7.47701 7.68441 7.5706 7.64982C7.50142 6.7343 7.47701 5.58073 7.51973 4.61638C7.54211 4.38648 7.58687 4.15861 7.64994 3.92871C7.92053 2.96029 8.60209 2.17904 9.44234 1.64396C9.73938 1.45475 10.0649 1.2981 10.4067 1.17399C11.017 0.952232 10.72 0.0183936 11.3975 0.00415208C12.9824 -0.032469 15.5804 1.30827 16.5936 2.40487C17.1836 3.04167 17.5519 3.88802 17.6333 5.007L17.5661 7.76172C17.8611 7.85124 18.0483 8.03842 18.1256 8.33952C18.2111 8.67318 18.1175 9.14519 17.8347 9.79012C17.8286 9.80233 17.8245 9.8125 17.8164 9.82471L16.6079 11.8165C16.142 12.5835 15.6679 13.3546 15.0372 13.9446L15.0108 13.969C15.0861 14.0768 15.1695 14.1989 15.257 14.3271C15.3933 14.5285 15.5418 14.7462 15.6923 14.9517L15.4116 15.3667ZM9.83907 16.327C10.8787 16.8885 12.8562 17.2893 14.6853 16.4185L12.6162 19.4215L9.83907 16.327ZM16.3942 15.4583C17.9344 16.2151 20.7644 16.4674 21.9179 17.1103C22.3411 17.3463 22.7236 17.6474 23.0328 18.0543C23.7998 19.0675 23.867 22.5567 24.1437 23.7997C24.0765 24.524 23.6656 24.9411 22.8579 25.0021H14.1054L15.4319 24.1619C15.9019 23.8648 15.9141 23.6227 15.6191 23.1751L13.5032 19.9484C13.5256 19.9199 13.548 19.8914 13.5703 19.8609L16.3942 15.4583ZM12.4738 25.0001H1.93095C1.12325 24.9391 0.71228 24.522 0.645142 23.7977C0.923869 22.5546 0.988973 19.0654 1.75598 18.0523C2.06319 17.6454 2.44568 17.3442 2.87089 17.1082C3.91256 16.5264 6.31938 16.266 7.91239 15.6637L11.662 19.8609C11.6905 19.9057 11.721 19.9464 11.7495 19.9871L10.3986 20.8477C10.1707 21.0104 10.1036 21.2485 10.2399 21.576L12.4738 25.0001ZM12.1197 20.3736C12.4432 20.6117 12.7688 20.5893 13.0922 20.3553C13.137 20.3431 13.1818 20.3289 13.2286 20.3126C13.2347 20.3492 13.2387 20.3879 13.2387 20.4286C13.2387 20.7826 12.9519 21.0674 12.5999 21.0674C12.2479 21.0674 11.9611 20.7805 11.9611 20.4286C11.9611 20.3899 11.9651 20.3512 11.9712 20.3126C12.018 20.337 12.0689 20.3573 12.1197 20.3736Z" fill="#495057"/>
</g>
<defs>
<clipPath id="clip0_911_838">
<rect width="23.4965" height="25" fill="white" transform="translate(0.645142)"/>
</clipPath>
</defs>
</svg>
